<svg width="591" height="92" viewBox="0 0 591 92" fill="none" xmlns="http://www.w3.org/2000/svg">
<path d="M212.51 18.1797V73.3597H204.67V48.7597H173.15V73.3597H165.31V18.1797H173.15V41.9097H204.67V18.1797H212.51Z" fill="#FEFCFB"/>
<path d="M263.95 59.5697H234.79L228.75 73.3597H220.69L245.54 18.1797H253.3L278.21 73.3597H269.98L263.94 59.5697H263.96H263.95ZM261.21 53.2597L249.37 26.2297L237.53 53.2597H261.21Z" fill="#FEFCFB"/>
<path d="M323.06 73.3597L311.22 56.4097C310.13 56.4897 308.95 56.5797 307.77 56.5797H294.22V73.3597H286.38V18.1797H307.77C322.04 18.1797 330.66 25.4397 330.66 37.4097C330.66 45.9197 326.27 52.0797 318.59 54.8397L331.6 73.3597H323.04H323.06ZM322.83 37.4097C322.83 29.5297 317.57 25.0297 307.55 25.0297H294.23V49.8597H307.55C317.57 49.8597 322.83 45.2997 322.83 37.4097Z" fill="#FEFCFB"/>
<path d="M394.24 73.3597L394.16 33.1597L374.34 66.6597H370.73L350.91 33.3897V73.3597H343.38V18.1797H349.82L372.71 56.9697L395.28 18.1797H401.71L401.79 73.3597H394.24Z" fill="#FEFCFB"/>
<path d="M413.77 45.7696C413.77 29.6096 426.15 17.5596 443 17.5596C459.85 17.5596 472.08 29.5496 472.08 45.7696C472.08 61.9896 459.7 73.9796 443 73.9796C426.3 73.9796 413.77 61.9296 413.77 45.7696ZM464.24 45.7696C464.24 33.5496 455.14 24.5696 443 24.5696C430.86 24.5696 421.61 33.5496 421.61 45.7696C421.61 57.9896 430.71 66.9696 443 66.9696C455.29 66.9696 464.24 57.9896 464.24 45.7696Z" fill="#FEFCFB"/>
<path d="M531.27 18.1797V73.3597H524.84L491.92 32.1997V73.3597H484.08V18.1797H490.51L523.43 59.3397V18.1797H531.27Z" fill="#FEFCFB"/>
<path d="M568.75 54.2797V73.3597H560.99V54.1297L539.21 18.1797H547.6L565.15 47.2597L582.78 18.1797H590.54L568.74 54.2697L568.75 54.2797Z" fill="#FEFCFB"/>
<path d="M64.33 38.8601C73.3 38.8201 81.4301 44.1301 86.3201 51.9901C88.4201 55.3701 89.97 59.1101 90.9 62.9801C91.93 67.3801 91.4801 71.9801 92.4901 76.3801C94.4701 84.8901 101.44 91.2301 110.33 91.2301C120.44 91.2301 128.62 82.9901 128.62 72.8301C128.62 62.6701 120.66 55.5501 111.09 54.4501C102.96 53.5201 98.32 51.4801 93.83 47.8301C85.48 41.0701 82.59 32.1301 82.59 20.0701C82.59 9.78009 74.7901 0.130088 64.1301 0.260088C53.4701 0.380088 46.08 9.78009 46.08 20.0501C46.08 32.1001 43.19 41.0401 34.84 47.8101C30.34 51.4601 25.7 53.5101 17.58 54.4301C8.01005 55.5501 0.0500488 62.8101 0.0500488 72.8301C0.0500488 82.8501 8.24004 91.2301 18.34 91.2301C27.23 91.2301 34.2 84.8801 36.18 76.3801C37.19 71.9801 36.74 67.3801 37.77 62.9801C40.7 50.5301 50.87 38.9001 64.34 38.8301V38.8501L64.33 38.8601Z" fill="url(#paint0_linear_132_270)"/>
<defs>
<linearGradient id="paint0_linear_132_270" x1="0.0400488" y1="45.7601" x2="128.62" y2="45.7601" gradientUnits="userSpaceOnUse">
<stop stop-color="#0DE5B2"/>
<stop offset="1" stop-color="#2B45ED"/>
</linearGradient>
</defs>
</svg>
