<svg width="591" height="92" viewBox="0 0 591 92" fill="none" xmlns="http://www.w3.org/2000/svg">
<path d="M212.51 18.6797V73.8597H204.67V49.2597H173.15V73.8597H165.31V18.6797H173.15V42.4097H204.67V18.6797H212.51Z" fill="#0F1854"/>
<path d="M263.95 60.0697H234.79L228.75 73.8597H220.69L245.54 18.6797H253.3L278.21 73.8597H269.98L263.94 60.0697H263.96H263.95ZM261.21 53.7597L249.37 26.7297L237.53 53.7597H261.21Z" fill="#0F1854"/>
<path d="M323.06 73.8597L311.22 56.9097C310.13 56.9897 308.95 57.0797 307.77 57.0797H294.22V73.8597H286.38V18.6797H307.77C322.04 18.6797 330.66 25.9397 330.66 37.9097C330.66 46.4197 326.27 52.5797 318.59 55.3397L331.6 73.8597H323.04H323.06ZM322.83 37.9097C322.83 30.0297 317.57 25.5297 307.55 25.5297H294.23V50.3597H307.55C317.57 50.3597 322.83 45.7997 322.83 37.9097Z" fill="#0F1854"/>
<path d="M394.24 73.8597L394.16 33.6597L374.34 67.1597H370.73L350.91 33.8897V73.8597H343.38V18.6797H349.82L372.71 57.4697L395.28 18.6797H401.71L401.79 73.8597H394.24Z" fill="#0F1854"/>
<path d="M413.77 46.2696C413.77 30.1096 426.15 18.0596 443 18.0596C459.85 18.0596 472.08 30.0496 472.08 46.2696C472.08 62.4896 459.7 74.4796 443 74.4796C426.3 74.4796 413.77 62.4296 413.77 46.2696ZM464.24 46.2696C464.24 34.0496 455.14 25.0696 443 25.0696C430.86 25.0696 421.61 34.0496 421.61 46.2696C421.61 58.4896 430.71 67.4696 443 67.4696C455.29 67.4696 464.24 58.4896 464.24 46.2696Z" fill="#0F1854"/>
<path d="M531.27 18.6797V73.8597H524.84L491.92 32.6997V73.8597H484.08V18.6797H490.51L523.43 59.8397V18.6797H531.27Z" fill="#0F1854"/>
<path d="M568.75 54.7797V73.8597H560.99V54.6297L539.21 18.6797H547.6L565.15 47.7597L582.78 18.6797H590.54L568.74 54.7697L568.75 54.7797Z" fill="#0F1854"/>
<path d="M64.33 39.3601C73.3 39.3201 81.43 44.6301 86.32 52.4901C88.42 55.8701 89.97 59.6101 90.9 63.4801C91.93 67.8801 91.48 72.4801 92.49 76.8801C94.47 85.3901 101.44 91.7301 110.33 91.7301C120.44 91.7301 128.62 83.4901 128.62 73.3301C128.62 63.1701 120.66 56.0501 111.09 54.9501C102.96 54.0201 98.32 51.9801 93.83 48.3301C85.48 41.5701 82.59 32.6301 82.59 20.5701C82.59 10.2801 74.79 0.630088 64.13 0.760088C53.47 0.880088 46.08 10.2801 46.08 20.5501C46.08 32.6001 43.19 41.5401 34.84 48.3101C30.34 51.9601 25.7 54.0101 17.58 54.9301C8.00999 56.0501 0.0499878 63.3101 0.0499878 73.3301C0.0499878 83.3501 8.23998 91.7301 18.34 91.7301C27.23 91.7301 34.2 85.3801 36.18 76.8801C37.19 72.4801 36.74 67.8801 37.77 63.4801C40.7 51.0301 50.87 39.4001 64.34 39.3301V39.3501L64.33 39.3601Z" fill="#0F1854"/>
</svg>
