<svg xmlns="http://www.w3.org/2000/svg" xmlns:xlink="http://www.w3.org/1999/xlink" viewBox="0 0 1920 1080"><defs><style>.cls-1{fill:#0f1854;}.cls-2{opacity:0.15;}.cls-3{fill:#fff;}.cls-4{fill:#0de5b2;}.cls-5{fill:#fb4d3d;}.cls-6{fill:#2b45ed;}.cls-7{fill:#aeb8fe;}.cls-8{fill:url(#linear-gradient);}.cls-9{fill:url(#linear-gradient-2);}.cls-10{fill:url(#linear-gradient-3);}.cls-11{fill:#dbdbdb;}.cls-12{fill:#a5a6a9;}</style><linearGradient id="linear-gradient" x1="426.615" y1="921" x2="426.615" y2="659.306" gradientTransform="translate(-363.538 1216.768) rotate(-90)" gradientUnits="userSpaceOnUse"><stop offset="0" stop-color="#cce0f4" stop-opacity="0"/><stop offset="0.048" stop-color="#cee1f4" stop-opacity="0.037"/><stop offset="0.128" stop-color="#d3e4f6" stop-opacity="0.137"/><stop offset="0.231" stop-color="#dbe9f7" stop-opacity="0.3"/><stop offset="0.351" stop-color="#e7f0fa" stop-opacity="0.526"/><stop offset="0.486" stop-color="#f5f9fd" stop-opacity="0.811"/><stop offset="0.568" stop-color="#fff"/></linearGradient><linearGradient id="linear-gradient-2" x1="274.068" y1="921" x2="274.068" y2="659.306" gradientTransform="translate(-516.085 1064.221) rotate(-90)" xlink:href="#linear-gradient"/><linearGradient id="linear-gradient-3" x1="350.342" y1="921" x2="350.342" y2="659.306" gradientTransform="translate(-439.812 1140.495) rotate(-90)" xlink:href="#linear-gradient"/></defs><title>01- X Data harmonization examples that move businessess and organizations forward</title><g id="_01:_X_Data_harmonization_examples_that_move_businessess_and_organizations_forward" data-name="01: X Data harmonization examples that move businessess and organizations forward"><rect class="cls-1" width="1920" height="1080"/><g class="cls-2"><path class="cls-3" d="M1218.213,462.42l90.432-13.688A366.22,366.22,0,0,0,1252.4,301.655l-76.461,50.222A275.263,275.263,0,0,1,1218.213,462.42Z"/><path class="cls-3" d="M974.943,778.9a275.849,275.849,0,0,1-202.1-58.082l-56.763,71.712a367.014,367.014,0,0,0,268.9,77.279q9.43-1.041,18.7-2.541L989,776.994Q982.032,778.121,974.943,778.9Z"/><path class="cls-3" d="M1207.221,591.262l86.8,28.9a365.726,365.726,0,0,0,10.558-38.542l-89.383-19.5A274.963,274.963,0,0,1,1207.221,591.262Z"/><path class="cls-3" d="M1117.288,720.115l57.075,71.479A370.155,370.155,0,0,0,1273.556,669.3l-81.715-41.1A278.213,278.213,0,0,1,1117.288,720.115Z"/><path class="cls-3" d="M1221.151,514.63a275.237,275.237,0,0,1-3.769,36.174l90.12,15.733a366.142,366.142,0,0,0,5.046-48.224Z"/><path class="cls-3" d="M1221.345,503.116l91.467-.155q-.036-10.106-.626-20.308l-91.311,5.262Q1221.322,495.55,1221.345,503.116Z"/><path class="cls-3" d="M1160.869,331.139l71.48-57.076c-72.419-90.518-186.064-145.007-308.941-137.822l5.261,91.31A276.585,276.585,0,0,1,1160.869,331.139Z"/><path class="cls-3" d="M687.292,605.9l-85.037,33.732A365.48,365.48,0,0,0,623.2,683.7l79.833-44.678A274.574,274.574,0,0,1,687.292,605.9Z"/><path class="cls-3" d="M1000.416,774.9l18.449,89.585a365.954,365.954,0,0,0,105.586-39.261l-44.677-79.833A275.025,275.025,0,0,1,1000.416,774.9Z"/><path class="cls-3" d="M669.522,534.188A276.078,276.078,0,0,1,740.6,316.828L673.609,254.56A368.8,368.8,0,0,0,596.87,625.151l86.374-30.135A277.627,277.627,0,0,1,669.522,534.188Z"/><path class="cls-3" d="M737.75,687.718,669.39,748.49A370.162,370.162,0,0,0,704.162,782.7l59.723-69.27A278.171,278.171,0,0,1,737.75,687.718Z"/><path class="cls-3" d="M1089.782,739.5l47.985,77.885q4.546-2.805,9-5.734l-50.222-76.461Q1093.2,737.392,1089.782,739.5Z"/><path class="cls-3" d="M708.929,649.027l-77.885,47.986a367.689,367.689,0,0,0,28.319,39.723l70.851-57.852A276.324,276.324,0,0,1,708.929,649.027Z"/><path class="cls-3" d="M903.174,230.214l-13.688-90.432A368.383,368.383,0,0,0,822.4,156.42l30.614,86.206A276.9,276.9,0,0,1,903.174,230.214Z"/><path class="cls-3" d="M829.625,252.032l-38.461-83.007a366.994,366.994,0,0,0-93.259,61.441l60.948,68.2A275.84,275.84,0,0,1,829.625,252.032Z"/></g><path class="cls-4" d="M806.346,676.059a10.434,10.434,0,1,1-10.434-10.434A10.435,10.435,0,0,1,806.346,676.059Z"/><path class="cls-4" d="M920.517,686.494a10.435,10.435,0,1,1-10.434-10.435A10.434,10.434,0,0,1,920.517,686.494Z"/><path class="cls-4" d="M1028.292,649.484a10.435,10.435,0,1,1-10.435-10.434A10.435,10.435,0,0,1,1028.292,649.484Z"/><rect class="cls-5" x="772.841" y="663.494" width="22.21" height="22.21" transform="translate(655.867 -351.681) rotate(42.174)"/><rect class="cls-5" x="856.943" y="648.301" width="22.21" height="22.21" transform="translate(998.851 -422.82) rotate(59.67)"/><rect class="cls-5" x="858.327" y="677.058" width="22.21" height="22.21" transform="translate(1024.374 -409.778) rotate(59.671)"/><rect class="cls-5" x="870.133" y="623.23" width="22.21" height="22.21" transform="translate(983.766 -446.614) rotate(59.671)"/><rect class="cls-5" x="936.009" y="657.186" width="22.21" height="22.21" transform="translate(1140.162 1811.257) rotate(-134.794)"/><rect class="cls-5" x="947.114" y="623.229" width="22.21" height="22.21" transform="translate(1183.188 1761.257) rotate(-134.794)"/><rect class="cls-5" x="953.413" y="688.569" width="22.21" height="22.21" transform="translate(1147.542 1877.104) rotate(-134.793)"/><rect class="cls-5" x="906.096" y="640.909" width="22.21" height="22.21" transform="translate(1100.723 1762.284) rotate(-134.794)"/><rect class="cls-5" x="1090.626" y="609.059" width="22.21" height="22.21" transform="translate(1453.737 -594.129) rotate(76.791)"/><rect class="cls-5" x="990.938" y="609.059" width="22.21" height="22.21" transform="translate(350.381 1602.015) rotate(-88.181)"/><rect class="cls-5" x="1088.161" y="683.604" width="22.21" height="22.21" transform="translate(751.003 -558.175) rotate(42.174)"/><rect class="cls-5" x="1062.642" y="633.108" width="22.21" height="22.21" transform="matrix(0.505, 0.863, -0.863, 0.505, 1087.582, -607.886)"/><rect class="cls-5" x="1030.489" y="633.108" width="22.21" height="22.21" transform="translate(1641.83 -423.329) rotate(87.611)"/><path class="cls-4" d="M791.666,651.843a10.434,10.434,0,1,1-10.434-10.434A10.434,10.434,0,0,1,791.666,651.843Z"/><path class="cls-4" d="M870.529,619.554a10.435,10.435,0,1,1-10.435-10.434A10.435,10.435,0,0,1,870.529,619.554Z"/><path class="cls-4" d="M925.24,636.6a10.434,10.434,0,1,1-10.434-10.434A10.433,10.433,0,0,1,925.24,636.6Z"/><path class="cls-4" d="M904.372,659.915a10.434,10.434,0,1,1-10.434-10.434A10.433,10.433,0,0,1,904.372,659.915Z"/><path class="cls-4" d="M971.1,631.214a10.434,10.434,0,1,1-10.434-10.434A10.434,10.434,0,0,1,971.1,631.214Z"/><path class="cls-4" d="M1065.293,657.063a10.434,10.434,0,1,1-10.434-10.434A10.435,10.435,0,0,1,1065.293,657.063Z"/><path class="cls-4" d="M969.847,672.711a10.434,10.434,0,1,1-10.434-10.434A10.435,10.435,0,0,1,969.847,672.711Z"/><path class="cls-4" d="M1101.006,686.494a10.435,10.435,0,1,1-10.434-10.435A10.434,10.434,0,0,1,1101.006,686.494Z"/><path class="cls-4" d="M1062.439,690.619A10.435,10.435,0,1,1,1052,680.185,10.435,10.435,0,0,1,1062.439,690.619Z"/><polygon class="cls-6" points="975.988 640.202 954.9 650.183 971.321 663.061 975.988 640.202"/><polygon class="cls-6" points="973.65 675.496 994.288 686.378 994.738 665.515 973.65 675.496"/><polygon class="cls-6" points="853.054 635.234 872.524 622.379 854.451 611.945 853.054 635.234"/><polygon class="cls-6" points="812.38 641.003 791.291 650.985 807.712 663.863 812.38 641.003"/><polygon class="cls-6" points="813.406 686.579 834.044 697.461 834.494 676.597 813.406 686.579"/><polygon class="cls-6" points="884.664 689.641 904.134 676.786 886.062 666.351 884.664 689.641"/><polygon class="cls-6" points="856.66 686.074 861.327 663.214 841.173 668.624 856.66 686.074"/><polygon class="cls-6" points="918.457 644.288 904.825 663.222 925.425 666.554 918.457 644.288"/><polygon class="cls-6" points="1030.396 664.831 1049.866 651.976 1031.794 641.542 1030.396 664.831"/><polygon class="cls-6" points="1064.189 619.478 1050.557 638.412 1071.157 641.745 1064.189 619.478"/><polygon class="cls-6" points="1021.244 453.694 1041.883 464.575 1042.333 443.712 1021.244 453.694"/><polygon class="cls-6" points="824.54 428.421 845.178 439.303 845.629 418.44 824.54 428.421"/><polygon class="cls-6" points="591.705 431.317 578.073 450.251 598.673 453.584 591.705 431.317"/><polygon class="cls-6" points="645.285 359.775 649.952 336.915 629.797 342.325 645.285 359.775"/><polygon class="cls-6" points="601.501 523.441 596.333 500.69 580.199 513.925 601.501 523.441"/><polygon class="cls-6" points="707.055 437.455 715.379 459.251 729.486 443.873 707.055 437.455"/><polygon class="cls-6" points="1023.407 326.909 1044.046 337.791 1044.496 316.928 1023.407 326.909"/><polygon class="cls-6" points="906.417 337.487 911.085 314.627 890.93 320.037 906.417 337.487"/><polygon class="cls-6" points="1270.303 491.571 1290.942 502.453 1291.391 481.589 1270.303 491.571"/><polygon class="cls-6" points="1430.778 327.045 1417.145 345.979 1437.746 349.311 1430.778 327.045"/><polygon class="cls-6" points="1286.047 305.126 1306.685 316.007 1307.135 295.144 1286.047 305.126"/><polygon class="cls-6" points="443.101 380.778 463.74 391.659 464.19 370.796 443.101 380.778"/><polygon class="cls-6" points="493.961 260.549 480.328 279.483 500.929 282.816 493.961 260.549"/><polygon class="cls-6" points="573.655 290.225 593.126 277.37 575.053 266.936 573.655 290.225"/><path class="cls-4" d="M889.241,582.083a10.434,10.434,0,1,1-10.434-10.434A10.433,10.433,0,0,1,889.241,582.083Z"/><path class="cls-4" d="M840.359,513.918a10.434,10.434,0,1,1-10.434-10.434A10.434,10.434,0,0,1,840.359,513.918Z"/><path class="cls-4" d="M748,376.69a10.434,10.434,0,1,1-10.435-10.434A10.435,10.435,0,0,1,748,376.69Z"/><path class="cls-4" d="M954.53,524.352A10.434,10.434,0,1,1,944.1,513.918,10.434,10.434,0,0,1,954.53,524.352Z"/><path class="cls-4" d="M539.479,518a10.434,10.434,0,1,1-10.434-10.435A10.434,10.434,0,0,1,539.479,518Z"/><path class="cls-4" d="M576.48,379.488a10.435,10.435,0,1,1-4.666,14A10.436,10.436,0,0,1,576.48,379.488Z"/><path class="cls-4" d="M659.3,526.22a10.434,10.434,0,1,1-3.819-14.253A10.433,10.433,0,0,1,659.3,526.22Z"/><path class="cls-4" d="M775.835,484.888A10.434,10.434,0,1,1,765.4,474.453,10.434,10.434,0,0,1,775.835,484.888Z"/><path class="cls-4" d="M825.68,402.82a10.434,10.434,0,1,1-10.434-10.434A10.434,10.434,0,0,1,825.68,402.82Z"/><path class="cls-4" d="M695.322,551.752a10.434,10.434,0,1,1-10.434-10.433A10.435,10.435,0,0,1,695.322,551.752Z"/><path class="cls-4" d="M1395.405,307.889a10.434,10.434,0,1,1-10.434-10.435A10.434,10.434,0,0,1,1395.405,307.889Z"/><path class="cls-4" d="M1291.683,224.441a10.434,10.434,0,1,1-4.666,14A10.435,10.435,0,0,1,1291.683,224.441Z"/><path class="cls-4" d="M1355.994,239.394a10.434,10.434,0,1,1-10.434-10.434A10.433,10.433,0,0,1,1355.994,239.394Z"/><path class="cls-4" d="M1270.827,346.033a10.435,10.435,0,1,1-10.435-10.434A10.434,10.434,0,0,1,1270.827,346.033Z"/><path class="cls-4" d="M1062.305,487.342a10.434,10.434,0,1,1-10.434-10.434A10.433,10.433,0,0,1,1062.305,487.342Z"/><path class="cls-4" d="M1117.819,321.477a10.434,10.434,0,1,1-4.666,14A10.434,10.434,0,0,1,1117.819,321.477Z"/><path class="cls-4" d="M953.41,359.635a10.434,10.434,0,1,1-4.666,14A10.434,10.434,0,0,1,953.41,359.635Z"/><path class="cls-4" d="M1021.314,403.969a10.434,10.434,0,1,1-4.666,14A10.433,10.433,0,0,1,1021.314,403.969Z"/><path class="cls-4" d="M572.632,297.077a10.434,10.434,0,1,1-4.667,14A10.434,10.434,0,0,1,572.632,297.077Z"/><path class="cls-4" d="M1128.256,434.464a10.434,10.434,0,1,1-4.666,14A10.435,10.435,0,0,1,1128.256,434.464Z"/><path class="cls-4" d="M1017.818,272.266a10.435,10.435,0,1,1-4.666,14A10.435,10.435,0,0,1,1017.818,272.266Z"/><path class="cls-4" d="M1218.148,521.1a10.435,10.435,0,1,1-10.434-10.434A10.434,10.434,0,0,1,1218.148,521.1Z"/><path class="cls-4" d="M455.5,365.407a10.434,10.434,0,1,1-4.666,14A10.433,10.433,0,0,1,455.5,365.407Z"/><path class="cls-4" d="M1411.2,458.88a10.434,10.434,0,1,1-10.434-10.434A10.433,10.433,0,0,1,1411.2,458.88Z"/><path class="cls-4" d="M1478.673,276.931a10.434,10.434,0,1,1-4.667,14A10.433,10.433,0,0,1,1478.673,276.931Z"/><path class="cls-7" d="M959.109,732l.433,13.6.355,13.6q.326,13.6.554,27.2l.021,1.318-1.363.024q-28.914.51-57.827.691-14.457.139-28.913.14c-9.638.011-19.276.083-28.914.034l-28.913-.075-28.914-.224-28.913-.354-28.914-.523,1.031-1.031-.451,18.841q-.24,9.421-.58,18.841-.324-9.42-.58-18.841L726.77,786.4l-.024-1.012,1.055-.019,28.914-.523,28.913-.354,28.914-.224,28.913-.075c9.638-.049,19.276.023,28.914.034s19.275.047,28.913.14q28.914.193,57.827.691l-1.342,1.342q.219-13.6.554-27.2l.356-13.6Z"/><path class="cls-7" d="M959.109,786.4c19.276-.8,38.551-1.231,57.827-1.586,9.638-.143,19.276-.321,28.914-.385,9.637-.1,19.275-.191,28.913-.2q28.914-.136,57.827.109c9.638.1,19.276.156,28.914.331l14.456.232,14.457.311,1.216.026-.031,1.159-.5,18.841q-.3,9.421-.685,18.841-.4-9.42-.685-18.841l-.5-18.841,1.185,1.185-14.457.312-14.456.231c-9.638.176-19.276.235-28.914.331q-28.914.216-57.827.109c-9.638-.006-19.276-.1-28.913-.2-9.638-.064-19.276-.242-28.914-.386C997.66,787.634,978.385,787.2,959.109,786.4Z"/><path class="cls-7" d="M959.109,786.4a54.038,54.038,0,0,1,1.745,9.421,91.712,91.712,0,0,1,.482,9.42,90.057,90.057,0,0,1-.476,9.421,53.309,53.309,0,0,1-1.751,9.42,53.4,53.4,0,0,1-1.751-9.42,89.784,89.784,0,0,1-.475-9.421,91.429,91.429,0,0,1,.481-9.42A54.038,54.038,0,0,1,959.109,786.4Z"/><path class="cls-7" d="M978.023,827.781a48.659,48.659,0,0,0-62.736,65.046,48.7,48.7,0,0,0,89.707-37.868,48.782,48.782,0,0,0-26.971-27.178Zm0,0a51.8,51.8,0,0,1,1.672,95.313A51.817,51.817,0,1,1,939.4,827.642,51.84,51.84,0,0,1,978.023,827.781Z"/><path class="cls-7" d="M742.572,826.305a48.659,48.659,0,0,0-56.807,70.283,48.7,48.7,0,0,0,86.051-45.568,48.788,48.788,0,0,0-29.244-24.715Zm0,0a51.8,51.8,0,0,1,10,94.8,51.816,51.816,0,1,1-48.486-91.563A51.849,51.849,0,0,1,742.572,826.305Z"/><path class="cls-7" d="M1209.331,827.781a48.659,48.659,0,0,0-62.736,65.046,48.7,48.7,0,0,0,89.707-37.868,48.782,48.782,0,0,0-26.971-27.178Zm0,0A51.8,51.8,0,0,1,1211,923.094a51.817,51.817,0,1,1-40.294-95.452A51.845,51.845,0,0,1,1209.331,827.781Z"/><rect class="cls-5" x="703.404" y="849.828" width="49" height="49"/><circle class="cls-4" cx="959.109" cy="874.328" r="28.765"/><polygon class="cls-6" points="1190.417 840.699 1162.799 895.935 1218.035 895.935 1190.417 840.699"/><polygon class="cls-7" points="1128.718 750.104 790.391 750.104 762.198 700.007 1156.912 700.007 1128.718 750.104"/><path class="cls-7" d="M1176.647,700.007H742.462c-7.786,0-14.1-5.675-14.1-12.674h0c0-7,6.312-12.673,14.1-12.673h434.185c7.786,0,14.1,5.674,14.1,12.673h0C1190.745,694.332,1184.433,700.007,1176.647,700.007Z"/><rect class="cls-5" x="762.356" y="617.787" width="22.21" height="22.21"/><rect class="cls-5" x="629.136" y="367.996" width="22.21" height="22.21"/><rect class="cls-5" x="703.095" y="404.32" width="22.21" height="22.21" transform="translate(-54.231 719.026) rotate(-51.744)"/><rect class="cls-5" x="695.579" y="255.895" width="22.21" height="22.21" transform="translate(59.452 656.593) rotate(-51.743)"/><rect class="cls-5" x="730.712" y="627.524" width="22.21" height="22.21" transform="translate(-230.779 528.189) rotate(-34.247)"/><rect class="cls-5" x="619.586" y="341.461" width="22.21" height="22.21" transform="translate(-89.062 416.048) rotate(-34.246)"/><rect class="cls-5" x="650.031" y="330.361" width="22.21" height="22.21" transform="translate(-77.537 431.253) rotate(-34.246)"/><rect class="cls-5" x="588.616" y="330.361" width="22.21" height="22.21" transform="translate(-88.185 396.692) rotate(-34.246)"/><rect class="cls-5" x="698.184" y="325.472" width="22.21" height="22.21" transform="translate(-11.731 25.925) rotate(-2.077)"/><rect class="cls-5" x="665.46" y="391.588" width="22.21" height="22.21" transform="translate(-88.583 217.086) rotate(-17.126)"/><rect class="cls-5" x="722.848" y="599.438" width="22.21" height="22.21" transform="translate(-62.628 84.322) rotate(-6.307)"/><rect class="cls-5" x="852.718" y="624.58" width="22.21" height="22.21" transform="translate(1557.027 -182.699) rotate(93.917)"/><rect class="cls-5" x="785.299" y="580.152" width="22.21" height="22.21" transform="translate(1440.678 -162.901) rotate(93.917)"/><rect class="cls-5" x="806.855" y="501.353" width="22.21" height="22.21" transform="translate(555.814 -416.494) rotate(42.174)"/><rect class="cls-5" x="740.503" y="458.351" width="22.21" height="22.21" transform="translate(509.757 -383.076) rotate(42.173)"/><rect class="cls-5" x="683.229" y="438.742" width="22.21" height="22.21" transform="translate(481.774 -349.703) rotate(42.174)"/><rect class="cls-5" x="873.723" y="552.05" width="22.21" height="22.21" transform="translate(607.163 -448.263) rotate(42.174)"/><rect class="cls-5" x="884.231" y="624.58" width="22.21" height="22.21" transform="translate(991.886 -458.116) rotate(59.67)"/><rect class="cls-5" x="890.957" y="486.16" width="22.21" height="22.21" transform="translate(875.741 -532.441) rotate(59.67)"/><rect class="cls-5" x="892.341" y="514.916" width="22.21" height="22.21" transform="matrix(0.505, 0.863, -0.863, 0.505, 901.261, -519.401)"/><rect class="cls-5" x="1102.908" y="628.892" width="22.21" height="22.21" transform="matrix(0.505, 0.863, -0.863, 0.505, 1103.856, -644.727)"/><rect class="cls-5" x="833.738" y="371.625" width="22.21" height="22.21" transform="matrix(0.505, 0.863, -0.863, 0.505, 748.571, -539.752)"/><rect class="cls-5" x="844.975" y="423.056" width="22.21" height="22.21" transform="translate(798.511 -523.99) rotate(59.67)"/><rect class="cls-5" x="965.935" y="608.8" width="22.21" height="22.21" transform="matrix(0.505, 0.863, -0.863, 0.505, 1018.71, -536.448)"/><rect class="cls-5" x="904.147" y="461.088" width="22.21" height="22.21" transform="translate(860.643 -556.238) rotate(59.671)"/><rect class="cls-5" x="806.855" y="425.152" width="22.21" height="22.21" transform="matrix(0.505, 0.863, -0.863, 0.505, 781.451, -490.05)"/><rect class="cls-5" x="970.023" y="495.044" width="22.21" height="22.21" transform="translate(1313.203 1559.015) rotate(-134.794)"/><rect class="cls-5" x="981.128" y="461.088" width="22.21" height="22.21" transform="translate(1356.231 1509.014) rotate(-134.794)"/><rect class="cls-5" x="923.239" y="394.117" width="22.21" height="22.21" transform="translate(1305.069 1353.783) rotate(-134.793)"/><rect class="cls-5" x="987.426" y="526.427" width="22.21" height="22.21" transform="translate(1320.585 1624.863) rotate(-134.793)"/><rect class="cls-5" x="940.109" y="478.767" width="22.21" height="22.21" transform="translate(1273.765 1510.042) rotate(-134.794)"/><rect class="cls-5" x="896.429" y="561.124" width="22.21" height="22.21" transform="translate(1508.601 -316.468) rotate(91.84)"/><rect class="cls-5" x="780.804" y="530.109" width="22.21" height="22.21" transform="translate(1137.849 -353.413) rotate(76.791)"/><rect class="cls-5" x="773.461" y="450.616" width="22.21" height="22.21" transform="translate(1054.793 -407.593) rotate(76.791)"/><rect class="cls-5" x="617.594" y="306.038" width="22.21" height="22.21" transform="translate(584.952 -385.657) rotate(59.67)"/><rect class="cls-5" x="560.375" y="191.504" width="22.21" height="22.21" transform="matrix(0.505, 0.863, -0.863, 0.505, 457.779, -392.968)"/><rect class="cls-5" x="571.612" y="242.934" width="22.21" height="22.21" transform="translate(507.733 -377.207) rotate(59.671)"/><rect class="cls-5" x="630.784" y="280.966" width="22.21" height="22.21" transform="translate(569.852 -409.454) rotate(59.671)"/><rect class="cls-5" x="533.492" y="245.031" width="22.21" height="22.21" transform="translate(490.663 -343.266) rotate(59.67)"/><rect class="cls-5" x="500.098" y="270.494" width="22.21" height="22.21" transform="translate(668.539 -280.426) rotate(76.791)"/><rect class="cls-5" x="629.604" y="486.16" width="22.21" height="22.21" transform="matrix(0.589, -0.808, 0.808, 0.589, -138.446, 722.425)"/><rect class="cls-5" x="681.115" y="530.109" width="22.21" height="22.21" transform="translate(129.293 1215.896) rotate(-88.18)"/><rect class="cls-5" x="644.757" y="521.463" width="22.21" height="22.21" transform="translate(-132.015 837.58) rotate(-60.24)"/><rect class="cls-5" x="710.838" y="490.756" width="22.21" height="22.21" transform="translate(491.231 -346.572) rotate(39.982)"/><rect class="cls-5" x="667.543" y="481.61" width="22.21" height="22.21" transform="matrix(0.921, 0.388, -0.388, 0.921, 244.691, -224.929)"/><rect class="cls-5" x="740.503" y="408.664" width="22.21" height="22.21" transform="translate(222.085 -258.999) rotate(22.858)"/><rect class="cls-5" x="873.723" y="586.419" width="22.21" height="22.21" transform="translate(1444.951 -311.442) rotate(87.611)"/><rect class="cls-5" x="930.565" y="534.218" width="22.21" height="22.21" transform="translate(1447.253 -418.267) rotate(87.61)"/><rect class="cls-5" x="1150.691" y="418.161" width="22.21" height="22.21" transform="translate(588.977 -668.877) rotate(42.174)"/><rect class="cls-5" x="1084.34" y="375.159" width="22.21" height="22.21" transform="translate(542.929 -635.462) rotate(42.174)"/><rect class="cls-5" x="1027.066" y="355.55" width="22.21" height="22.21" transform="translate(514.924 -602.08) rotate(42.173)"/><rect class="cls-5" x="1217.559" y="468.858" width="22.21" height="22.21" transform="translate(640.34 -700.654) rotate(42.175)"/><rect class="cls-5" x="1234.793" y="402.968" width="22.21" height="22.21" transform="matrix(0.505, 0.863, -0.863, 0.505, 974.158, -870.402)"/><rect class="cls-5" x="1236.177" y="431.725" width="22.21" height="22.21" transform="translate(999.664 -857.362) rotate(59.671)"/><rect class="cls-5" x="1177.575" y="288.433" width="22.21" height="22.21" transform="matrix(0.505, 0.863, -0.863, 0.505, 846.957, -877.708)"/><rect class="cls-5" x="1188.811" y="339.864" width="22.21" height="22.21" transform="translate(896.911 -861.947) rotate(59.67)"/><rect class="cls-5" x="1247.983" y="377.896" width="22.21" height="22.21" transform="translate(959.047 -894.198) rotate(59.671)"/><rect class="cls-5" x="1150.691" y="341.96" width="22.21" height="22.21" transform="translate(879.867 -828.011) rotate(59.671)"/><rect class="cls-5" x="1267.075" y="310.925" width="22.21" height="22.21" transform="translate(1950.179 1455.991) rotate(-134.793)"/><rect class="cls-5" x="1283.946" y="395.576" width="22.21" height="22.21" transform="translate(1918.876 1612.246) rotate(-134.793)"/><rect class="cls-5" x="1240.265" y="477.932" width="22.21" height="22.21" transform="matrix(-0.032, 0.999, -0.999, -0.032, 1780.327, -745.989)"/><rect class="cls-5" x="1124.64" y="446.918" width="22.21" height="22.21" transform="translate(1322.126 -752.334) rotate(76.791)"/><rect class="cls-5" x="1117.297" y="367.424" width="22.21" height="22.21" transform="translate(1239.072 -806.515) rotate(76.791)"/><rect class="cls-5" x="1024.952" y="446.918" width="22.21" height="22.21" transform="translate(545.375 1479.017) rotate(-88.181)"/><rect class="cls-5" x="1054.674" y="407.564" width="22.21" height="22.21" transform="translate(518.163 -586.958) rotate(39.983)"/><rect class="cls-5" x="1221.058" y="255.895" width="22.21" height="22.21" transform="translate(459.6 -729.324) rotate(39.983)"/><rect class="cls-5" x="1011.38" y="398.418" width="22.21" height="22.21" transform="translate(239.365 -365.014) rotate(22.857)"/><rect class="cls-5" x="1084.34" y="325.472" width="22.21" height="22.21" transform="translate(216.766 -399.09) rotate(22.858)"/><rect class="cls-5" x="1001.728" y="307.374" width="22.21" height="22.21" transform="translate(476.032 -597.547) rotate(42.174)"/><rect class="cls-5" x="944.454" y="287.765" width="22.21" height="22.21" transform="translate(448.029 -564.165) rotate(42.173)"/><rect class="cls-5" x="1034.686" y="299.639" width="22.21" height="22.21" transform="translate(1109.364 -778.383) rotate(76.792)"/><rect class="cls-5" x="972.062" y="339.779" width="22.21" height="22.21" transform="translate(455.296 -549.721) rotate(39.983)"/><rect class="cls-5" x="928.768" y="330.634" width="22.21" height="22.21" transform="translate(206.543 -338.242) rotate(22.857)"/><rect class="cls-5" x="1001.728" y="257.687" width="22.21" height="22.21" transform="translate(183.942 -372.316) rotate(22.857)"/><rect class="cls-5" x="1274.402" y="451.026" width="22.21" height="22.21" transform="translate(1693.631 -841.528) rotate(87.61)"/><rect class="cls-5" x="1052.945" y="595.133" width="22.21" height="22.21" transform="translate(1741.552 -413.917) rotate(93.917)"/><rect class="cls-5" x="1122.175" y="521.463" width="22.21" height="22.21" transform="translate(650.934 -622.982) rotate(42.173)"/><rect class="cls-5" x="1092.568" y="586.419" width="22.21" height="22.21" transform="translate(1062.095 -656.829) rotate(59.671)"/><rect class="cls-5" x="1096.656" y="470.967" width="22.21" height="22.21" transform="translate(964.468 -717.509) rotate(59.671)"/><rect class="cls-5" x="1166.162" y="579.353" width="22.21" height="22.21" transform="translate(1092.409 -723.847) rotate(59.67)"/><rect class="cls-5" x="1170.25" y="465.597" width="22.21" height="22.21" transform="translate(1675.384 1650.917) rotate(-134.793)"/><rect class="cls-5" x="1187.653" y="496.98" width="22.21" height="22.21" transform="translate(1682.764 1716.767) rotate(-134.793)"/><rect class="cls-5" x="469.071" y="413.919" width="22.21" height="22.21" transform="translate(409.658 -212.347) rotate(42.173)"/><rect class="cls-5" x="402.719" y="370.918" width="22.21" height="22.21" transform="translate(363.611 -178.932) rotate(42.173)"/><rect class="cls-5" x="535.939" y="464.616" width="22.21" height="22.21" transform="translate(461.014 -244.117) rotate(42.174)"/><rect class="cls-5" x="553.173" y="398.726" width="22.21" height="22.21" transform="translate(633.065 -284.171) rotate(59.67)"/><rect class="cls-5" x="554.557" y="427.483" width="22.21" height="22.21" transform="translate(658.587 -271.129) rotate(59.671)"/><rect class="cls-5" x="507.191" y="335.623" width="22.21" height="22.21" transform="matrix(0.505, 0.863, -0.863, 0.505, 555.837, -275.72)"/><rect class="cls-5" x="566.363" y="373.655" width="22.21" height="22.21" transform="matrix(0.505, 0.863, -0.863, 0.505, 617.964, -307.966)"/><rect class="cls-5" x="469.071" y="337.719" width="22.21" height="22.21" transform="translate(538.784 -241.779) rotate(59.671)"/><rect class="cls-5" x="602.325" y="391.334" width="22.21" height="22.21" transform="translate(760.03 1121.302) rotate(-134.793)"/><rect class="cls-5" x="1326.461" y="329.906" width="22.21" height="22.21"/><rect class="cls-5" x="1400.42" y="366.231" width="22.21" height="22.21" transform="translate(241.233 1252.095) rotate(-51.744)"/><rect class="cls-5" x="1422.219" y="284.601" width="22.21" height="22.21" transform="translate(313.612 1238.099) rotate(-51.742)"/><rect class="cls-5" x="1316.912" y="303.372" width="22.21" height="22.21" transform="matrix(0.827, -0.563, 0.563, 0.827, 53.268, 801.859)"/><rect class="cls-5" x="1389.186" y="236.079" width="22.21" height="22.21" transform="translate(103.676 830.884) rotate(-34.247)"/><rect class="cls-5" x="1381.509" y="320.919" width="22.21" height="22.21" transform="translate(-11.117 50.684) rotate(-2.077)"/><rect class="cls-5" x="1362.785" y="353.499" width="22.21" height="22.21" transform="translate(-46.447 420.74) rotate(-17.126)"/><rect class="cls-5" x="1504.18" y="463.263" width="22.21" height="22.21" transform="translate(710.755 -894.516) rotate(42.173)"/><rect class="cls-5" x="1437.828" y="420.262" width="22.21" height="22.21" transform="translate(664.723 -861.111) rotate(42.174)"/><rect class="cls-5" x="1380.554" y="400.653" width="22.21" height="22.21" transform="translate(636.732 -827.736) rotate(42.174)"/><rect class="cls-5" x="1504.18" y="387.063" width="22.21" height="22.21" transform="translate(1093.787 -1110.793) rotate(59.671)"/><rect class="cls-5" x="1470.786" y="412.527" width="22.21" height="22.21" transform="translate(1555.689 -1115.855) rotate(76.791)"/><rect class="cls-5" x="1326.929" y="448.07" width="22.21" height="22.21" transform="translate(179.15 1270.45) rotate(-53.935)"/><rect class="cls-5" x="1408.163" y="452.667" width="22.21" height="22.21" transform="translate(629.779 -803.553) rotate(39.983)"/><rect class="cls-5" x="1364.869" y="443.521" width="22.21" height="22.21" transform="translate(284.642 -498.78) rotate(22.857)"/><rect class="cls-5" x="1437.828" y="370.575" width="22.21" height="22.21" transform="translate(262.03 -532.841) rotate(22.857)"/><rect class="cls-5" x="1299.651" y="353.245" width="22.21" height="22.21" transform="translate(1975.686 1551.237) rotate(-134.793)"/><rect class="cls-5" x="558.645" y="473.691" width="22.21" height="22.21" transform="translate(1072.586 -69.098) rotate(91.84)"/><rect class="cls-5" x="443.02" y="442.676" width="22.21" height="22.21" transform="translate(792.131 -92.02) rotate(76.791)"/><rect class="cls-5" x="435.677" y="363.183" width="22.21" height="22.21" transform="translate(709.073 -146.201) rotate(76.791)"/><rect class="cls-5" x="392.471" y="313.452" width="22.21" height="22.21" transform="matrix(0.921, 0.388, -0.388, 0.921, 157.761, -131.278)"/><rect class="cls-5" x="592.781" y="446.785" width="22.21" height="22.21" transform="translate(1036.197 -164.564) rotate(87.61)"/><rect class="cls-5" x="415.035" y="466.725" width="22.21" height="22.21" transform="translate(623.385 -131.277) rotate(59.671)"/><rect class="cls-5" x="488.629" y="461.356" width="22.21" height="22.21" transform="translate(516.538 1159.973) rotate(-134.793)"/><rect class="cls-5" x="506.033" y="492.739" width="22.21" height="22.21" transform="translate(523.932 1225.817) rotate(-134.793)"/><rect class="cls-5" x="1096.656" y="531.677" width="22.21" height="22.21" transform="translate(1685.824 -546.984) rotate(91.84)"/><rect class="cls-5" x="1041.591" y="558.322" width="22.21" height="22.21" transform="translate(1577.75 -506.09) rotate(87.611)"/><rect class="cls-5" x="1064.503" y="470.967" width="22.21" height="22.21" transform="translate(1512.427 -612.695) rotate(87.611)"/><rect class="cls-5" x="1320.804" y="264.944" width="22.21" height="22.21" transform="translate(530.137 -822.744) rotate(42.173)"/><rect class="cls-5" x="1286.436" y="201.255" width="22.21" height="22.21" transform="translate(-16.943 183.346) rotate(-8.03)"/><rect class="cls-5" x="1295.285" y="275.158" width="22.21" height="22.21" transform="translate(1634.442 -1010.264) rotate(91.84)"/><rect class="cls-5" x="1274.236" y="231.003" width="22.21" height="22.21" transform="translate(159.277 -423.247) rotate(19.91)"/><rect class="cls-5" x="776.526" y="347.409" width="22.21" height="22.21" transform="translate(1088.146 1170.048) rotate(-134.794)"/><rect class="cls-5" x="787.631" y="313.452" width="22.21" height="22.21" transform="translate(1131.163 1120.051) rotate(-134.793)"/><rect class="cls-5" x="746.613" y="331.132" width="22.21" height="22.21" transform="translate(1048.698 1121.078) rotate(-134.793)"/><rect class="cls-5" x="831.455" y="299.282" width="22.21" height="22.21" transform="translate(505.582 1142.669) rotate(-88.181)"/><rect class="cls-5" x="871.006" y="323.331" width="22.21" height="22.21" transform="translate(1179.474 -560.853) rotate(87.61)"/><path class="cls-4" d="M883.674,637.98a10.434,10.434,0,1,1-10.434-10.434A10.433,10.433,0,0,1,883.674,637.98Z"/><path class="cls-4" d="M924.256,586.119a10.434,10.434,0,1,1-10.435-10.434A10.434,10.434,0,0,1,924.256,586.119Z"/><path class="cls-4" d="M889.241,551.588a10.434,10.434,0,1,1-10.434-10.434A10.433,10.433,0,0,1,889.241,551.588Z"/><path class="cls-4" d="M815.246,553.382a10.434,10.434,0,1,1-10.434-10.434A10.435,10.435,0,0,1,815.246,553.382Z"/><path class="cls-4" d="M825.68,489.7a10.434,10.434,0,1,1-10.434-10.434A10.434,10.434,0,0,1,825.68,489.7Z"/><path class="cls-4" d="M904.542,457.412a10.434,10.434,0,1,1-10.434-10.434A10.435,10.435,0,0,1,904.542,457.412Z"/><path class="cls-4" d="M889.241,417.051a10.434,10.434,0,1,1-10.434-10.434A10.434,10.434,0,0,1,889.241,417.051Z"/><path class="cls-4" d="M794.378,363.684a10.434,10.434,0,1,1-10.434-10.434A10.435,10.435,0,0,1,794.378,363.684Z"/><path class="cls-4" d="M783.944,392.386a10.435,10.435,0,1,1-10.434-10.435A10.435,10.435,0,0,1,783.944,392.386Z"/><path class="cls-4" d="M700.655,351.032A10.434,10.434,0,1,1,690.221,340.6,10.434,10.434,0,0,1,700.655,351.032Z"/><path class="cls-4" d="M677.784,376.69a10.434,10.434,0,1,1-10.434-10.434A10.434,10.434,0,0,1,677.784,376.69Z"/><path class="cls-4" d="M959.254,474.453a10.434,10.434,0,1,1-10.434-10.434A10.435,10.435,0,0,1,959.254,474.453Z"/><path class="cls-4" d="M938.386,497.773a10.435,10.435,0,1,1-10.434-10.434A10.434,10.434,0,0,1,938.386,497.773Z"/><path class="cls-4" d="M716.19,528.433A10.434,10.434,0,1,1,705.756,518,10.434,10.434,0,0,1,716.19,528.433Z"/><path class="cls-4" d="M630.965,565.251a10.435,10.435,0,1,1-10.434-10.434A10.434,10.434,0,0,1,630.965,565.251Z"/><path class="cls-4" d="M739.866,450.322a10.434,10.434,0,1,1-4.666,14A10.434,10.434,0,0,1,739.866,450.322Z"/><path class="cls-4" d="M594.994,352.134a10.434,10.434,0,1,1-4.667,14A10.432,10.432,0,0,1,594.994,352.134Z"/><path class="cls-4" d="M594.994,407.718a10.434,10.434,0,1,1-4.667,14A10.434,10.434,0,0,1,594.994,407.718Z"/><path class="cls-4" d="M534.813,356.923a10.434,10.434,0,1,1-4.666,14A10.435,10.435,0,0,1,534.813,356.923Z"/><path class="cls-4" d="M534.813,383.053a10.434,10.434,0,1,1-4.666,14A10.435,10.435,0,0,1,534.813,383.053Z"/><path class="cls-4" d="M498.488,434.626a10.434,10.434,0,1,1-4.666,14A10.435,10.435,0,0,1,498.488,434.626Z"/><path class="cls-4" d="M605.43,465.121a10.434,10.434,0,1,1-4.666,14A10.435,10.435,0,0,1,605.43,465.121Z"/><path class="cls-4" d="M711.524,469.934a10.434,10.434,0,1,1-4.667,14A10.435,10.435,0,0,1,711.524,469.934Z"/><circle class="cls-4" cx="868.373" cy="370.979" r="10.434"/><path class="cls-4" d="M1420.519,268.424a10.434,10.434,0,1,1-10.434-10.434A10.434,10.434,0,0,1,1420.519,268.424Z"/><path class="cls-4" d="M1405.839,244.208a10.434,10.434,0,1,1-10.434-10.434A10.434,10.434,0,0,1,1405.839,244.208Z"/><path class="cls-4" d="M1296.349,282.939a10.434,10.434,0,1,1-10.434-10.434A10.434,10.434,0,0,1,1296.349,282.939Z"/><path class="cls-4" d="M1320.025,204.828a10.435,10.435,0,1,1-4.666,14A10.435,10.435,0,0,1,1320.025,204.828Z"/><path class="cls-4" d="M1275.481,306.259a10.434,10.434,0,1,1-10.434-10.434A10.433,10.433,0,0,1,1275.481,306.259Z"/><path class="cls-4" d="M555.613,474.453a10.435,10.435,0,1,1-10.435-10.434A10.435,10.435,0,0,1,555.613,474.453Z"/><path class="cls-4" d="M576.48,525.577a10.434,10.434,0,1,1-10.433-10.434A10.434,10.434,0,0,1,576.48,525.577Z"/><path class="cls-4" d="M1223.481,320.375a10.434,10.434,0,1,1-10.434-10.434A10.434,10.434,0,0,1,1223.481,320.375Z"/><path class="cls-4" d="M1200.61,346.033a10.434,10.434,0,1,1-10.434-10.434A10.433,10.433,0,0,1,1200.61,346.033Z"/><path class="cls-4" d="M1239.016,497.776a10.434,10.434,0,1,1-10.434-10.434A10.434,10.434,0,0,1,1239.016,497.776Z"/><path class="cls-4" d="M1153.79,534.594a10.434,10.434,0,1,1-10.434-10.434A10.434,10.434,0,0,1,1153.79,534.594Z"/><path class="cls-4" d="M1262.692,419.665a10.434,10.434,0,1,1-4.666,14A10.435,10.435,0,0,1,1262.692,419.665Z"/><path class="cls-4" d="M1099.307,348.832a10.434,10.434,0,1,1-4.667,14A10.433,10.433,0,0,1,1099.307,348.832Z"/><path class="cls-4" d="M1117.819,377.062a10.434,10.434,0,1,1-4.666,14A10.434,10.434,0,0,1,1117.819,377.062Z"/><path class="cls-4" d="M656.47,305.145a10.434,10.434,0,1,1-4.667,14A10.433,10.433,0,0,1,656.47,305.145Z"/><path class="cls-4" d="M934.9,386.991a10.434,10.434,0,1,1-4.666,14A10.433,10.433,0,0,1,934.9,386.991Z"/><path class="cls-4" d="M810.58,275.791a10.434,10.434,0,1,1-4.667,14A10.433,10.433,0,0,1,810.58,275.791Z"/><path class="cls-4" d="M953.41,415.22a10.434,10.434,0,1,1-4.666,14A10.434,10.434,0,0,1,953.41,415.22Z"/><path class="cls-4" d="M1057.639,326.267a10.434,10.434,0,1,1-4.666,14A10.434,10.434,0,0,1,1057.639,326.267Z"/><path class="cls-4" d="M1057.639,352.4a10.434,10.434,0,1,1-4.666,14A10.435,10.435,0,0,1,1057.639,352.4Z"/><path class="cls-4" d="M572.632,241.492a10.434,10.434,0,1,1-4.667,14A10.435,10.435,0,0,1,572.632,241.492Z"/><path class="cls-4" d="M554.119,268.847a10.434,10.434,0,1,1-4.667,14A10.434,10.434,0,0,1,554.119,268.847Z"/><path class="cls-4" d="M512.451,246.282a10.434,10.434,0,1,1-4.666,14A10.435,10.435,0,0,1,512.451,246.282Z"/><path class="cls-4" d="M512.451,272.412a10.434,10.434,0,1,1-4.666,14A10.435,10.435,0,0,1,512.451,272.412Z"/><path class="cls-4" d="M476.126,323.985a10.434,10.434,0,1,1-4.666,14A10.435,10.435,0,0,1,476.126,323.985Z"/><path class="cls-4" d="M1203.047,393.107a10.434,10.434,0,1,1-4.666,14A10.435,10.435,0,0,1,1203.047,393.107Z"/><path class="cls-4" d="M1234.35,439.278a10.434,10.434,0,1,1-4.667,14A10.435,10.435,0,0,1,1234.35,439.278Z"/><path class="cls-4" d="M1182.129,495.564a10.434,10.434,0,1,1-3.819-14.253A10.436,10.436,0,0,1,1182.129,495.564Z"/><path class="cls-4" d="M1025.98,445.752a10.434,10.434,0,1,1-10.434-10.434A10.433,10.433,0,0,1,1025.98,445.752Z"/><path class="cls-4" d="M1005.112,469.072a10.434,10.434,0,1,1-10.434-10.434A10.434,10.434,0,0,1,1005.112,469.072Z"/><path class="cls-4" d="M1078.438,443.8A10.434,10.434,0,1,1,1068,433.363,10.434,10.434,0,0,1,1078.438,443.8Z"/><path class="cls-4" d="M1146.179,268.424a10.434,10.434,0,1,1-10.434-10.434A10.433,10.433,0,0,1,1146.179,268.424Z"/><circle class="cls-4" cx="486.062" cy="448.779" r="10.434"/><path class="cls-4" d="M460.17,407.189a10.434,10.434,0,1,1-10.433-10.433A10.434,10.434,0,0,1,460.17,407.189Z"/><path class="cls-4" d="M439.3,430.509a10.434,10.434,0,1,1-10.434-10.434A10.434,10.434,0,0,1,439.3,430.509Z"/><path class="cls-4" d="M512.629,405.234A10.435,10.435,0,1,1,502.2,394.8,10.434,10.434,0,0,1,512.629,405.234Z"/><path class="cls-4" d="M1099.307,494.921a10.435,10.435,0,1,1-10.435-10.434A10.434,10.434,0,0,1,1099.307,494.921Z"/><path class="cls-4" d="M768.869,588.765a10.434,10.434,0,1,1-10.434-10.434A10.434,10.434,0,0,1,768.869,588.765Z"/><path class="cls-4" d="M1003.86,510.569a10.434,10.434,0,1,1-10.434-10.434A10.433,10.433,0,0,1,1003.86,510.569Z"/><path class="cls-4" d="M1311.886,405.723a10.434,10.434,0,1,1-10.434-10.434A10.435,10.435,0,0,1,1311.886,405.723Z"/><path class="cls-4" d="M1366.6,422.764a10.435,10.435,0,1,1-10.434-10.434A10.434,10.434,0,0,1,1366.6,422.764Z"/><path class="cls-4" d="M1345.729,446.084A10.434,10.434,0,1,1,1335.3,435.65,10.434,10.434,0,0,1,1345.729,446.084Z"/><path class="cls-4" d="M1361.874,472.663a10.434,10.434,0,1,1-10.434-10.435A10.435,10.435,0,0,1,1361.874,472.663Z"/><path class="cls-4" d="M1433.324,394.063a10.434,10.434,0,1,1-10.434-10.434A10.435,10.435,0,0,1,1433.324,394.063Z"/><path class="cls-4" d="M1412.456,417.383a10.435,10.435,0,1,1-10.434-10.435A10.435,10.435,0,0,1,1412.456,417.383Z"/><path class="cls-4" d="M982.992,575.685a10.434,10.434,0,1,1-10.434-10.434A10.433,10.433,0,0,1,982.992,575.685Z"/><path class="cls-4" d="M1064.163,604.835a10.434,10.434,0,1,1-10.434-10.434A10.433,10.433,0,0,1,1064.163,604.835Z"/><path class="cls-4" d="M1135.019,524.352a10.434,10.434,0,1,1-10.434-10.434A10.434,10.434,0,0,1,1135.019,524.352Z"/><path class="cls-4" d="M1135.019,594.4a10.434,10.434,0,1,1-10.434-10.434A10.434,10.434,0,0,1,1135.019,594.4Z"/><path class="cls-4" d="M1096.452,528.477a10.434,10.434,0,1,1-10.434-10.433A10.435,10.435,0,0,1,1096.452,528.477Z"/><path class="cls-4" d="M1471.154,341.29a10.434,10.434,0,1,1-10.434-10.434A10.435,10.435,0,0,1,1471.154,341.29Z"/><path class="cls-4" d="M1492.022,392.414a10.434,10.434,0,1,1-10.434-10.434A10.434,10.434,0,0,1,1492.022,392.414Z"/><path class="cls-4" d="M1527.735,421.844A10.434,10.434,0,1,1,1517.3,411.41,10.434,10.434,0,0,1,1527.735,421.844Z"/><path class="cls-4" d="M1489.168,425.97a10.435,10.435,0,1,1-10.434-10.434A10.434,10.434,0,0,1,1489.168,425.97Z"/><polygon class="cls-6" points="1025.52 611.879 1004.431 621.861 1020.852 634.739 1025.52 611.879"/><polygon class="cls-6" points="1023.181 647.174 1043.82 658.056 1044.27 637.192 1023.181 647.174"/><polygon class="cls-6" points="917.048 546.531 895.96 556.513 912.381 569.391 917.048 546.531"/><polygon class="cls-6" points="797.263 450.571 776.175 460.553 792.596 473.431 797.263 450.571"/><polygon class="cls-6" points="875.41 611.247 854.321 621.229 870.742 634.106 875.41 611.247"/><polygon class="cls-6" points="918.075 592.107 938.714 602.989 939.163 582.126 918.075 592.107"/><polygon class="cls-6" points="989.333 595.169 1008.804 582.314 990.731 571.88 989.333 595.169"/><polygon class="cls-6" points="961.329 591.602 965.997 568.742 945.842 574.152 961.329 591.602"/><polygon class="cls-6" points="1023.127 549.816 1009.494 568.75 1030.095 572.083 1023.127 549.816"/><polygon class="cls-6" points="807.526 386.801 826.996 373.946 808.924 363.512 807.526 386.801"/><polygon class="cls-6" points="841.319 341.448 827.687 360.382 848.287 363.715 841.319 341.448"/><polygon class="cls-6" points="1010.002 478.06 988.914 488.041 1005.334 500.919 1010.002 478.06"/><polygon class="cls-6" points="1007.664 513.354 1028.302 524.236 1028.752 503.372 1007.664 513.354"/><polygon class="cls-6" points="951.619 466.37 971.089 453.514 953.016 443.08 951.619 466.37"/><polygon class="cls-6" points="985.412 421.017 971.779 439.951 992.38 443.283 985.412 421.017"/><polygon class="cls-6" points="1023.583 418.399 1002.494 428.381 1018.915 441.259 1023.583 418.399"/><polygon class="cls-6" points="915.111 353.051 894.023 363.033 910.444 375.911 915.111 353.051"/><polygon class="cls-6" points="916.138 398.627 936.776 409.509 937.226 388.646 916.138 398.627"/><polygon class="cls-6" points="987.396 401.689 1006.866 388.834 988.794 378.4 987.396 401.689"/><polygon class="cls-6" points="959.392 398.122 964.059 375.262 943.905 380.672 959.392 398.122"/><polygon class="cls-6" points="1021.189 356.336 1007.557 375.27 1028.157 378.602 1021.189 356.336"/><polygon class="cls-6" points="887.067 473.092 906.537 460.237 888.465 449.803 887.067 473.092"/><polygon class="cls-6" points="882.399 399.863 887.067 377.004 866.912 382.414 882.399 399.863"/><polygon class="cls-6" points="928.966 419.098 915.334 438.033 935.934 441.365 928.966 419.098"/><polygon class="cls-6" points="846.393 478.861 825.305 488.843 841.725 501.721 846.393 478.861"/><polygon class="cls-6" points="847.42 524.438 868.058 535.319 868.508 514.456 847.42 524.438"/><polygon class="cls-6" points="918.678 527.499 938.148 514.644 920.075 504.21 918.678 527.499"/><polygon class="cls-6" points="890.674 523.932 895.341 501.073 875.187 506.482 890.674 523.932"/><polygon class="cls-6" points="817.364 594.364 794.1 592.597 801.992 611.915 817.364 594.364"/><polygon class="cls-6" points="774.708 639.581 751.443 637.815 759.336 657.133 774.708 639.581"/><polygon class="cls-6" points="756.231 515.457 732.966 513.691 740.859 533.009 756.231 515.457"/><polygon class="cls-6" points="767.802 540.699 780.347 560.37 791.066 542.465 767.802 540.699"/><polygon class="cls-6" points="828.201 578.633 851.482 577.102 840.944 559.09 828.201 578.633"/><polygon class="cls-6" points="805.634 561.672 821.006 544.12 800.816 538.843 805.634 561.672"/><polygon class="cls-6" points="952.471 482.146 938.839 501.08 959.439 504.413 952.471 482.146"/><polygon class="cls-6" points="1064.409 502.69 1083.88 489.834 1065.808 479.4 1064.409 502.69"/><polygon class="cls-6" points="1098.203 457.336 1084.57 476.271 1105.171 479.603 1098.203 457.336"/><polygon class="cls-6" points="1241.187 478.561 1220.099 488.543 1236.52 501.421 1241.187 478.561"/><polygon class="cls-6" points="1238.849 513.856 1259.487 524.737 1259.937 503.874 1238.849 513.856"/><polygon class="cls-6" points="1132.716 413.213 1111.628 423.195 1128.048 436.073 1132.716 413.213"/><polygon class="cls-6" points="1133.742 458.79 1154.381 469.671 1154.831 448.808 1133.742 458.79"/><polygon class="cls-6" points="1205 461.851 1224.471 448.996 1206.398 438.562 1205 461.851"/><polygon class="cls-6" points="1176.996 458.284 1181.664 435.425 1161.509 440.834 1176.996 458.284"/><polygon class="cls-6" points="1238.794 416.498 1225.161 435.432 1245.762 438.765 1238.794 416.498"/><polygon class="cls-6" points="1062.06 345.543 1040.972 355.525 1057.393 368.403 1062.06 345.543"/><polygon class="cls-6" points="1063.087 391.12 1083.725 402.001 1084.175 381.138 1063.087 391.12"/><polygon class="cls-6" points="1134.345 394.181 1153.815 381.326 1135.743 370.892 1134.345 394.181"/><polygon class="cls-6" points="1106.341 390.614 1111.008 367.755 1090.854 373.165 1106.341 390.614"/><polygon class="cls-6" points="1168.138 348.828 1154.506 367.762 1175.106 371.095 1168.138 348.828"/><polygon class="cls-6" points="620.938 391.884 599.85 401.866 616.271 414.744 620.938 391.884"/><polygon class="cls-6" points="557.912 476.67 577.382 463.815 559.31 453.381 557.912 476.67"/><polygon class="cls-6" points="671.66 382.374 650.571 392.356 666.992 405.234 671.66 382.374"/><polygon class="cls-6" points="601.004 314.704 579.916 324.686 596.337 337.563 601.004 314.704"/><polygon class="cls-6" points="602.031 360.28 622.669 371.162 623.119 350.298 602.031 360.28"/><polygon class="cls-6" points="673.289 363.342 692.759 350.486 674.687 340.052 673.289 363.342"/><polygon class="cls-6" points="707.082 317.989 693.45 336.923 714.05 340.255 707.082 317.989"/><polygon class="cls-6" points="567.555 513.5 552.454 531.286 572.723 536.252 567.555 513.5"/><polygon class="cls-6" points="688.83 431.735 683.662 408.983 667.528 422.218 688.83 431.735"/><polygon class="cls-6" points="644.117 422.847 629.016 440.633 649.285 445.599 644.117 422.847"/><polygon class="cls-6" points="625.665 491.743 633.989 513.539 648.097 498.161 625.665 491.743"/><polygon class="cls-6" points="783.533 408.539 762.445 418.52 778.865 431.398 783.533 408.539"/><polygon class="cls-6" points="635.224 465.18 656.526 474.697 655.619 453.849 635.224 465.18"/><polygon class="cls-6" points="662.605 534.573 647.08 517.156 639.357 536.543 662.605 534.573"/><polygon class="cls-6" points="770.219 377.447 765.051 354.695 748.917 367.93 770.219 377.447"/><polygon class="cls-6" points="725.506 368.559 710.405 386.345 730.674 391.311 725.506 368.559"/><polygon class="cls-6" points="716.613 410.893 737.916 420.409 737.008 399.561 716.613 410.893"/><polygon class="cls-6" points="743.995 480.285 728.47 462.868 720.746 482.255 743.995 480.285"/><polygon class="cls-6" points="813.007 264.126 791.918 274.107 808.339 286.985 813.007 264.126"/><polygon class="cls-6" points="1025.746 291.615 1004.657 301.596 1021.078 314.474 1025.746 291.615"/><polygon class="cls-6" points="967.362 279.924 986.833 267.069 968.76 256.635 967.362 279.924"/><polygon class="cls-6" points="1036.988 267.249 1057.627 278.13 1058.076 257.267 1036.988 267.249"/><polygon class="cls-6" points="902.811 286.647 922.281 273.792 904.209 263.358 902.811 286.647"/><polygon class="cls-6" points="862.137 292.416 841.049 302.398 857.469 315.276 862.137 292.416"/><polygon class="cls-6" points="863.163 337.992 883.802 348.874 884.252 328.01 863.163 337.992"/><polygon class="cls-6" points="934.422 341.054 953.892 328.199 935.819 317.764 934.422 341.054"/><polygon class="cls-6" points="771.974 329.012 748.71 327.246 756.603 346.564 771.974 329.012"/><polygon class="cls-6" points="968.215 295.701 954.582 314.635 975.183 317.967 968.215 295.701"/><polygon class="cls-6" points="1080.153 316.244 1099.623 303.389 1081.551 292.955 1080.153 316.244"/><polygon class="cls-6" points="1113.946 270.891 1100.314 289.825 1120.914 293.158 1113.946 270.891"/><polygon class="cls-6" points="1256.931 292.116 1235.842 302.098 1252.263 314.976 1256.931 292.116"/><polygon class="cls-6" points="1254.592 327.411 1275.231 338.292 1275.681 317.429 1254.592 327.411"/><polygon class="cls-6" points="1149.486 272.344 1170.124 283.226 1170.574 262.362 1149.486 272.344"/><polygon class="cls-6" points="1286.222 396.616 1265.134 406.597 1281.555 419.475 1286.222 396.616"/><polygon class="cls-6" points="1283.884 431.91 1304.522 442.792 1304.972 421.929 1283.884 431.91"/><polygon class="cls-6" points="1283.829 334.553 1270.196 353.487 1290.797 356.819 1283.829 334.553"/><polygon class="cls-6" points="1327.049 480.906 1346.519 468.051 1328.447 457.616 1327.049 480.906"/><polygon class="cls-6" points="1360.843 435.553 1347.21 454.487 1367.81 457.819 1360.843 435.553"/><polygon class="cls-6" points="1395.356 391.43 1374.267 401.412 1390.688 414.289 1395.356 391.43"/><polygon class="cls-6" points="1396.382 437.006 1417.02 447.888 1417.47 427.024 1396.382 437.006"/><polygon class="cls-6" points="1324.7 323.76 1303.612 333.742 1320.033 346.62 1324.7 323.76"/><polygon class="cls-6" points="1325.726 369.336 1346.365 380.218 1346.815 359.354 1325.726 369.336"/><polygon class="cls-6" points="1396.984 372.398 1416.455 359.542 1398.383 349.108 1396.984 372.398"/><polygon class="cls-6" points="1368.98 368.831 1373.648 345.971 1353.493 351.381 1368.98 368.831"/><polygon class="cls-6" points="1288.385 269.831 1267.297 279.813 1283.717 292.691 1288.385 269.831"/><polygon class="cls-6" points="1299.628 245.465 1320.266 256.347 1320.716 235.483 1299.628 245.465"/><polygon class="cls-6" points="1342.793 294.461 1362.263 281.606 1344.191 271.172 1342.793 294.461"/><polygon class="cls-6" points="1376.586 249.108 1362.954 268.042 1383.554 271.374 1376.586 249.108"/><polygon class="cls-6" points="1412.126 250.561 1432.764 261.442 1433.214 240.579 1412.126 250.561"/><polygon class="cls-6" points="444.424 492.348 463.894 479.492 445.822 469.058 444.424 492.348"/><polygon class="cls-6" points="478.217 446.994 464.585 465.928 485.185 469.261 478.217 446.994"/><polygon class="cls-6" points="512.73 402.871 491.642 412.853 508.063 425.731 512.73 402.871"/><polygon class="cls-6" points="513.757 448.448 534.395 459.329 534.845 438.466 513.757 448.448"/><polygon class="cls-6" points="442.075 335.201 420.986 345.183 437.407 358.061 442.075 335.201"/><polygon class="cls-6" points="514.359 383.839 533.83 370.984 515.757 360.55 514.359 383.839"/><polygon class="cls-6" points="486.355 380.272 491.023 357.413 470.868 362.822 486.355 380.272"/><polygon class="cls-6" points="548.153 338.486 534.52 357.42 555.121 360.753 548.153 338.486"/><polygon class="cls-6" points="417.002 256.907 437.641 267.788 438.091 246.925 417.002 256.907"/><polygon class="cls-6" points="460.167 305.902 479.638 293.047 461.566 282.613 460.167 305.902"/><polygon class="cls-6" points="529.5 262.002 550.139 272.884 550.589 252.02 529.5 262.002"/><polygon class="cls-6" points="1220.744 275.406 1240.214 262.551 1222.142 252.116 1220.744 275.406"/><polygon class="cls-6" points="1192.74 271.839 1197.408 248.979 1177.253 254.389 1192.74 271.839"/><polygon class="cls-6" points="617.245 336.996 612.077 314.244 595.943 327.479 617.245 336.996"/><polygon class="cls-6" points="583.299 327.055 568.198 344.84 588.467 349.807 583.299 327.055"/><polygon class="cls-6" points="641.409 305.298 649.733 327.094 663.84 311.716 641.409 305.298"/><polygon class="cls-6" points="650.968 278.735 672.27 288.252 671.363 267.403 650.968 278.735"/><polygon class="cls-6" points="678.348 348.128 662.824 330.711 655.101 350.098 678.348 348.128"/><polygon class="cls-6" points="722.799 251.01 731.123 272.806 745.23 257.428 722.799 251.01"/><polygon class="cls-6" points="759.738 293.839 744.213 276.423 736.49 295.81 759.738 293.839"/><rect class="cls-8" x="295.768" y="767.125" width="261.694" height="46.057" rx="6.752" ry="6.752" transform="translate(1216.768 363.538) rotate(90)"/><polygon class="cls-6" points="439.639 678.88 432.73 675.426 432.73 682.334 439.639 678.88"/><polygon class="cls-6" points="439.639 688.092 432.73 684.637 432.73 691.546 439.639 688.092"/><polygon class="cls-6" points="439.639 697.303 432.73 693.849 432.73 700.757 439.639 697.303"/><polygon class="cls-6" points="439.639 706.514 432.73 703.06 432.73 709.968 439.639 706.514"/><polygon class="cls-6" points="439.639 715.725 432.73 712.271 432.73 719.18 439.639 715.725"/><polygon class="cls-6" points="439.639 724.937 432.73 721.482 432.73 728.391 439.639 724.937"/><polygon class="cls-6" points="439.639 734.148 432.73 730.694 432.73 737.602 439.639 734.148"/><polygon class="cls-6" points="439.639 743.359 432.73 739.905 432.73 746.814 439.639 743.359"/><polygon class="cls-6" points="439.639 752.571 432.73 749.116 432.73 756.025 439.639 752.571"/><polygon class="cls-6" points="430.427 678.88 423.519 675.426 423.519 682.334 430.427 678.88"/><polygon class="cls-6" points="430.427 688.092 423.519 684.637 423.519 691.546 430.427 688.092"/><polygon class="cls-6" points="430.427 697.303 423.519 693.849 423.519 700.757 430.427 697.303"/><polygon class="cls-6" points="430.427 706.514 423.519 703.06 423.519 709.968 430.427 706.514"/><polygon class="cls-6" points="430.427 715.725 423.519 712.271 423.519 719.18 430.427 715.725"/><polygon class="cls-6" points="430.427 724.937 423.519 721.482 423.519 728.391 430.427 724.937"/><polygon class="cls-6" points="430.427 734.148 423.519 730.694 423.519 737.602 430.427 734.148"/><polygon class="cls-6" points="430.427 743.359 423.519 739.905 423.519 746.814 430.427 743.359"/><polygon class="cls-6" points="430.427 752.571 423.519 749.116 423.519 756.025 430.427 752.571"/><polygon class="cls-6" points="421.216 678.88 414.308 675.426 414.308 682.334 421.216 678.88"/><polygon class="cls-6" points="421.216 688.092 414.308 684.637 414.308 691.546 421.216 688.092"/><rect class="cls-9" x="143.221" y="767.125" width="261.694" height="46.057" rx="6.752" ry="6.752" transform="translate(1064.221 516.085) rotate(90)"/><rect class="cls-5" x="279.825" y="675.426" width="6.909" height="6.908" transform="translate(962.159 395.601) rotate(90)"/><rect class="cls-5" x="279.825" y="684.637" width="6.908" height="6.908" transform="translate(971.371 404.812) rotate(90)"/><rect class="cls-5" x="279.825" y="693.849" width="6.908" height="6.908" transform="translate(980.582 414.024) rotate(90)"/><rect class="cls-5" x="279.825" y="703.06" width="6.908" height="6.908" transform="translate(989.793 423.235) rotate(90)"/><rect class="cls-5" x="279.825" y="712.271" width="6.908" height="6.908" transform="translate(999.005 432.446) rotate(90)"/><rect class="cls-5" x="279.825" y="721.483" width="6.909" height="6.908" transform="translate(1008.216 441.658) rotate(90)"/><rect class="cls-5" x="279.825" y="730.694" width="6.908" height="6.908" transform="translate(1017.427 450.869) rotate(90)"/><rect class="cls-5" x="279.825" y="739.905" width="6.908" height="6.908" transform="translate(1026.639 460.08) rotate(90)"/><rect class="cls-5" x="279.825" y="749.116" width="6.908" height="6.908" transform="translate(1035.85 469.291) rotate(90)"/><rect class="cls-5" x="270.614" y="675.426" width="6.909" height="6.908" transform="translate(952.948 404.812) rotate(90)"/><rect class="cls-5" x="270.614" y="684.637" width="6.908" height="6.908" transform="translate(962.16 414.023) rotate(90)"/><rect class="cls-5" x="270.614" y="693.849" width="6.908" height="6.908" transform="translate(971.371 423.235) rotate(90)"/><rect class="cls-5" x="270.614" y="703.06" width="6.908" height="6.908" transform="translate(980.582 432.446) rotate(90)"/><rect class="cls-5" x="270.614" y="712.271" width="6.908" height="6.908" transform="translate(989.794 441.657) rotate(90)"/><rect class="cls-5" x="270.614" y="721.483" width="6.909" height="6.908" transform="translate(999.005 450.869) rotate(90)"/><rect class="cls-5" x="270.614" y="730.694" width="6.908" height="6.908" transform="translate(1008.216 460.08) rotate(90)"/><rect class="cls-5" x="270.614" y="739.905" width="6.908" height="6.908" transform="translate(1017.427 469.291) rotate(90)"/><rect class="cls-5" x="270.614" y="749.116" width="6.908" height="6.908" transform="translate(1026.639 478.503) rotate(90)"/><rect class="cls-5" x="261.402" y="675.426" width="6.909" height="6.908" transform="translate(943.737 414.024) rotate(90)"/><rect class="cls-5" x="261.402" y="684.637" width="6.908" height="6.908" transform="translate(952.948 423.235) rotate(90)"/><rect class="cls-5" x="261.402" y="693.849" width="6.908" height="6.908" transform="translate(962.16 432.446) rotate(90)"/><rect class="cls-5" x="261.402" y="703.06" width="6.908" height="6.908" transform="translate(971.371 441.657) rotate(90)"/><rect class="cls-5" x="261.402" y="712.271" width="6.908" height="6.908" transform="translate(980.582 450.869) rotate(90)"/><rect class="cls-10" x="219.495" y="767.125" width="261.694" height="46.057" rx="6.752" ry="6.752" transform="translate(1140.495 439.812) rotate(90)"/><path class="cls-4" d="M360.7,682.334a3.454,3.454,0,1,1,3.455-3.454A3.454,3.454,0,0,1,360.7,682.334Z"/><path class="cls-4" d="M360.7,691.546a3.455,3.455,0,1,1,3.455-3.454A3.455,3.455,0,0,1,360.7,691.546Z"/><path class="cls-4" d="M360.7,700.757a3.454,3.454,0,1,1,3.455-3.454A3.454,3.454,0,0,1,360.7,700.757Z"/><path class="cls-4" d="M360.7,709.968a3.454,3.454,0,1,1,3.455-3.454A3.454,3.454,0,0,1,360.7,709.968Z"/><path class="cls-4" d="M360.7,719.18a3.455,3.455,0,1,1,3.455-3.455A3.455,3.455,0,0,1,360.7,719.18Z"/><path class="cls-4" d="M360.7,728.391a3.455,3.455,0,1,1,3.455-3.454A3.454,3.454,0,0,1,360.7,728.391Z"/><path class="cls-4" d="M360.7,737.6a3.454,3.454,0,1,1,3.455-3.454A3.454,3.454,0,0,1,360.7,737.6Z"/><path class="cls-4" d="M360.7,746.814a3.455,3.455,0,1,1,3.455-3.455A3.455,3.455,0,0,1,360.7,746.814Z"/><path class="cls-4" d="M360.7,756.025a3.455,3.455,0,1,1,3.455-3.454A3.454,3.454,0,0,1,360.7,756.025Z"/><path class="cls-4" d="M350.342,682.334a3.454,3.454,0,1,1,3.454-3.454A3.454,3.454,0,0,1,350.342,682.334Z"/><path class="cls-4" d="M350.342,691.546a3.455,3.455,0,1,1,3.454-3.454A3.455,3.455,0,0,1,350.342,691.546Z"/><path class="cls-4" d="M350.342,700.757A3.454,3.454,0,1,1,353.8,697.3,3.454,3.454,0,0,1,350.342,700.757Z"/><path class="cls-4" d="M350.342,709.968a3.454,3.454,0,1,1,3.454-3.454A3.454,3.454,0,0,1,350.342,709.968Z"/><path class="cls-4" d="M350.342,719.18a3.455,3.455,0,1,1,3.454-3.455A3.455,3.455,0,0,1,350.342,719.18Z"/><path class="cls-4" d="M350.342,728.391a3.455,3.455,0,1,1,3.454-3.454A3.454,3.454,0,0,1,350.342,728.391Z"/><path class="cls-4" d="M350.342,737.6a3.454,3.454,0,1,1,3.454-3.454A3.454,3.454,0,0,1,350.342,737.6Z"/><path class="cls-4" d="M350.342,746.814a3.455,3.455,0,1,1,3.454-3.455A3.455,3.455,0,0,1,350.342,746.814Z"/><path class="cls-4" d="M350.342,756.025a3.455,3.455,0,1,1,3.454-3.454A3.454,3.454,0,0,1,350.342,756.025Z"/><path class="cls-4" d="M339.979,682.334a3.454,3.454,0,1,1,3.454-3.454A3.453,3.453,0,0,1,339.979,682.334Z"/><path class="cls-4" d="M339.979,691.546a3.455,3.455,0,1,1,3.454-3.454A3.454,3.454,0,0,1,339.979,691.546Z"/><path class="cls-4" d="M339.979,700.757a3.454,3.454,0,1,1,3.454-3.454A3.453,3.453,0,0,1,339.979,700.757Z"/><path class="cls-4" d="M339.979,709.968a3.454,3.454,0,1,1,3.454-3.454A3.453,3.453,0,0,1,339.979,709.968Z"/><path class="cls-4" d="M339.979,719.18a3.455,3.455,0,1,1,3.454-3.455A3.454,3.454,0,0,1,339.979,719.18Z"/><path class="cls-4" d="M339.979,728.391a3.455,3.455,0,1,1,3.454-3.454A3.453,3.453,0,0,1,339.979,728.391Z"/><path class="cls-4" d="M339.979,737.6a3.454,3.454,0,1,1,3.454-3.454A3.453,3.453,0,0,1,339.979,737.6Z"/><polygon class="cls-6" points="1581.121 712.925 1603.48 724.74 1625.839 712.925 1603.48 701.109 1581.121 712.925"/><polygon class="cls-11" points="1625.839 712.925 1625.839 737.104 1603.48 748.919 1603.48 724.74 1625.839 712.925"/><polygon class="cls-12" points="1581.19 712.925 1581.19 737.104 1603.55 748.919 1603.55 724.74 1581.19 712.925"/><polygon class="cls-6" points="1451.6 843.48 1473.959 855.296 1496.318 843.48 1473.959 831.665 1451.6 843.48"/><polygon class="cls-11" points="1496.318 843.48 1496.318 867.659 1473.959 879.475 1473.959 855.296 1496.318 843.48"/><polygon class="cls-12" points="1451.67 843.48 1451.67 867.659 1474.029 879.475 1474.029 855.296 1451.67 843.48"/><polygon class="cls-6" points="1619.591 825.347 1641.95 837.162 1664.309 825.347 1641.95 813.532 1619.591 825.347"/><polygon class="cls-11" points="1664.309 825.347 1664.309 849.526 1641.95 861.341 1641.95 837.162 1664.309 825.347"/><polygon class="cls-12" points="1619.66 825.347 1619.66 849.526 1642.02 861.341 1642.02 837.162 1619.66 825.347"/><rect class="cls-3" x="1588.626" y="867.794" width="20.208" height="20.206"/><rect class="cls-3" x="1604.555" y="659.917" width="20.208" height="20.206"/><rect class="cls-3" x="1546.37" y="684.69" width="20.208" height="20.206"/><rect class="cls-3" x="1455.118" y="774.916" width="20.208" height="20.206"/><rect class="cls-3" x="1674.413" y="867.794" width="20.209" height="20.206"/><rect class="cls-3" x="1678.792" y="781.454" width="20.208" height="20.206"/><polygon class="cls-4" points="1519.017 774.401 1556.73 794.33 1594.443 774.401 1556.73 754.473 1519.017 774.401"/><polygon class="cls-11" points="1594.443 774.401 1594.443 815.184 1556.73 835.112 1556.73 794.33 1594.443 774.401"/><polygon class="cls-12" points="1519.134 774.401 1519.134 815.184 1556.848 835.112 1556.848 794.33 1519.134 774.401"/></g><g id="logo_left" data-name="logo left"><polygon class="cls-3" points="310.992 96.015 310.992 119.259 307.674 119.259 307.674 108.895 294.331 108.895 294.331 119.259 291.012 119.259 291.012 96.015 294.331 96.015 294.331 106.012 307.674 106.012 307.674 96.015 310.992 96.015"/><path class="cls-3" d="M331.6,110.792l-5.013-11.387-5.012,11.387Zm1.161,2.656H320.414l-2.558,5.811h-3.414l10.522-23.244h3.283L338.8,119.259h-3.484l-2.559-5.811Z"/><path class="cls-3" d="M357.693,104.115c0-3.32-2.227-5.216-6.471-5.216h-5.641v10.459h5.641C355.466,109.358,357.693,107.436,357.693,104.115Zm.1,15.144-5.012-7.139c-.463.035-.961.07-1.459.07h-5.737v7.069h-3.318V96.015h9.055c6.043,0,9.693,3.058,9.693,8.1a7.344,7.344,0,0,1-5.108,7.341l5.51,7.8h-3.624Z"/><polygon class="cls-3" points="387.925 119.259 387.89 102.324 379.498 116.437 377.97 116.437 369.578 102.42 369.578 119.259 366.39 119.259 366.39 96.015 369.115 96.015 378.808 112.356 388.361 96.015 391.086 96.015 391.121 119.259 387.933 119.259 387.925 119.259"/><path class="cls-3" d="M417.562,107.637a9.025,9.025,0,1,0-8.994,8.931A8.724,8.724,0,0,0,417.562,107.637Zm-21.368,0c0-6.807,5.24-11.884,12.374-11.884s12.313,5.051,12.313,11.884-5.24,11.884-12.313,11.884S396.194,114.444,396.194,107.637Z"/><polygon class="cls-3" points="445.943 96.015 445.943 119.259 443.218 119.259 429.281 101.922 429.281 119.259 425.963 119.259 425.963 96.015 428.688 96.015 442.625 113.352 442.625 96.015 445.943 96.015"/><polygon class="cls-3" points="461.809 111.22 461.809 119.259 458.526 119.259 458.526 111.159 449.305 96.015 452.859 96.015 460.29 108.266 467.756 96.015 471.04 96.015 461.809 111.22"/><path class="cls-3" d="M248.259,104.787a11.135,11.135,0,0,1,9.308,5.532,15.647,15.647,0,0,1,1.939,4.631c.437,1.853.244,3.793.672,5.645a7.72,7.72,0,0,0,15.3-1.494c0-4.282-3.371-7.279-7.423-7.742a12.8,12.8,0,0,1-7.309-2.788c-3.537-2.849-4.759-6.615-4.759-11.692,0-4.334-3.3-8.4-7.816-8.345s-7.641,4.011-7.641,8.336c0,5.077-1.222,8.844-4.759,11.692a12.739,12.739,0,0,1-7.309,2.788c-4.052.463-7.422,3.521-7.422,7.742a7.719,7.719,0,0,0,15.3,1.494c.428-1.852.236-3.792.672-5.645,1.24-5.243,5.545-10.145,11.248-10.171Z"/></g></svg>