<svg xmlns="http://www.w3.org/2000/svg" viewBox="0 0 1920 1080"><defs><style>.cls-1{fill:#0f1854;}.cls-2{fill:#fb4d3d;}.cls-3{fill:#2b45ed;}.cls-4{fill:#f0f5ff;}.cls-5{fill:#fff;}.cls-6{fill:#aeb8fe;}.cls-7{fill:#f3f7ff;}.cls-8{fill:#e3e9f9;}</style></defs><title>02- What is data harmonization - and why it matters in 2024</title><g id="_02:_What_is_data_harmonization_-_and_why_it_matters_in_2024" data-name="02: What is data harmonization - and why it matters in 2024"><rect class="cls-1" width="1920" height="1080"/><polygon class="cls-2" points="1229.473 177.823 1228.066 211.22 1203.203 197.981 1229.473 177.823"/><ellipse class="cls-3" cx="1169.76" cy="313.469" rx="75.585" ry="75.701"/><path class="cls-3" d="M1258.65,358.76c1.089-2.055,2.2-4.095,3.152-6.253,21.845-49.44-.937-107.048-50.884-128.67s-108.146.926-129.992,50.366c-.953,2.158-1.714,4.349-2.5,6.535l-21.659-9.376c.813-2.171,1.677-4.334,2.625-6.481,27-61.113,99.2-89.087,160.943-62.358s90,98.193,63,159.306c-.949,2.147-1.966,4.243-3.024,6.307Z"/><path class="cls-3" d="M1258.65,358.76c1.089-2.055,2.2-4.095,3.152-6.253,21.845-49.44-.937-107.048-50.884-128.67s-108.146.926-129.992,50.366c-.953,2.158-1.714,4.349-2.5,6.535l-21.659-9.376c.813-2.171,1.677-4.334,2.625-6.481,27-61.113,99.2-89.087,160.943-62.358s90,98.193,63,159.306c-.949,2.147-1.966,4.243-3.024,6.307Z"/><path class="cls-2" d="M1059.393,264.881c27-61.113,99.2-89.087,160.943-62.359a121.259,121.259,0,0,1,48.078,37.381,193.146,193.146,0,0,0-17.564,15.54,98.041,98.041,0,0,0-39.932-31.607c-49.947-21.623-108.146.927-129.992,50.367-.953,2.158-1.714,4.349-2.5,6.535l-21.659-9.377C1057.581,269.191,1058.444,267.028,1059.393,264.881Z"/><path class="cls-4" d="M1059.393,264.881c17.333-39.225,53.29-64.765,93.145-70.983,2.728,7.51,5.855,14.879,9.006,22.243a98.59,98.59,0,0,0-80.618,58.062c-.953,2.158-1.714,4.349-2.5,6.535l-21.659-9.377C1057.581,269.191,1058.444,267.028,1059.393,264.881Z"/><polygon class="cls-3" points="1313.872 286.827 1285.961 305.035 1282.155 277.408 1313.872 286.827"/><polygon class="cls-4" points="1076.386 203.146 1105.278 219.787 1081.975 235.452 1076.386 203.146"/><rect class="cls-5" x="1329.217" y="723.171" width="355.896" height="1.571"/><path class="cls-2" d="M1395.135,777.705a3.315,3.315,0,0,1-3.316-3.316V665.164a3.316,3.316,0,0,1,6.631,0V774.389A3.315,3.315,0,0,1,1395.135,777.705Z"/><path class="cls-2" d="M1379.439,759.573a3.314,3.314,0,0,1-3.315-3.316V681.57a3.316,3.316,0,0,1,6.631,0v74.687A3.315,3.315,0,0,1,1379.439,759.573Z"/><path class="cls-2" d="M1409.931,762.163a3.315,3.315,0,0,1-3.315-3.315V683.3a3.316,3.316,0,0,1,6.631,0v75.552A3.314,3.314,0,0,1,1409.931,762.163Z"/><path class="cls-2" d="M1361.055,747.052a3.315,3.315,0,0,1-3.316-3.315v-47.92a3.316,3.316,0,1,1,6.631,0v47.92A3.314,3.314,0,0,1,1361.055,747.052Z"/><path class="cls-2" d="M1425.627,751.8a3.315,3.315,0,0,1-3.316-3.315V691.931a3.316,3.316,0,0,1,6.632,0v56.556A3.315,3.315,0,0,1,1425.627,751.8Z"/><path class="cls-3" d="M1477.194,779a3.314,3.314,0,0,1-3.315-3.315V666.459a3.316,3.316,0,0,1,6.631,0V775.685A3.314,3.314,0,0,1,1477.194,779Z"/><path class="cls-3" d="M1461.5,760.868a3.315,3.315,0,0,1-3.315-3.315V682.866a3.316,3.316,0,1,1,6.631,0v74.687A3.315,3.315,0,0,1,1461.5,760.868Z"/><path class="cls-3" d="M1491.993,763.458a3.315,3.315,0,0,1-3.316-3.315V684.591a3.316,3.316,0,0,1,6.631,0v75.552A3.314,3.314,0,0,1,1491.993,763.458Z"/><path class="cls-3" d="M1443.115,748.347a3.315,3.315,0,0,1-3.316-3.315v-47.92a3.316,3.316,0,1,1,6.631,0v47.92A3.315,3.315,0,0,1,1443.115,748.347Z"/><path class="cls-3" d="M1507.687,753.1a3.314,3.314,0,0,1-3.316-3.315V693.226a3.316,3.316,0,0,1,6.631,0v56.556A3.313,3.313,0,0,1,1507.687,753.1Z"/><path class="cls-3" d="M1631.9,779a3.315,3.315,0,0,1-3.316-3.315V666.459a3.316,3.316,0,0,1,6.631,0V775.685A3.314,3.314,0,0,1,1631.9,779Z"/><path class="cls-3" d="M1616.2,760.868a3.314,3.314,0,0,1-3.315-3.315V682.866a3.316,3.316,0,1,1,6.631,0v74.687A3.315,3.315,0,0,1,1616.2,760.868Z"/><path class="cls-3" d="M1646.7,763.458a3.315,3.315,0,0,1-3.316-3.315V684.591a3.316,3.316,0,0,1,6.631,0v75.552A3.314,3.314,0,0,1,1646.7,763.458Z"/><path class="cls-3" d="M1597.82,748.347a3.315,3.315,0,0,1-3.316-3.315v-47.92a3.316,3.316,0,0,1,6.632,0v47.92A3.315,3.315,0,0,1,1597.82,748.347Z"/><path class="cls-3" d="M1662.392,753.1a3.314,3.314,0,0,1-3.316-3.315V693.226a3.316,3.316,0,0,1,6.632,0v56.556A3.314,3.314,0,0,1,1662.392,753.1Z"/><path class="cls-2" d="M1556.565,779a3.315,3.315,0,0,1-3.316-3.315V666.459a3.316,3.316,0,0,1,6.632,0V775.685A3.315,3.315,0,0,1,1556.565,779Z"/><path class="cls-2" d="M1540.87,760.868a3.315,3.315,0,0,1-3.316-3.315V682.866a3.316,3.316,0,1,1,6.631,0v74.687A3.314,3.314,0,0,1,1540.87,760.868Z"/><path class="cls-2" d="M1571.362,763.458a3.315,3.315,0,0,1-3.316-3.315V684.591a3.316,3.316,0,0,1,6.632,0v75.552A3.315,3.315,0,0,1,1571.362,763.458Z"/><path class="cls-2" d="M1522.485,748.347a3.314,3.314,0,0,1-3.315-3.315v-47.92a3.316,3.316,0,1,1,6.631,0v47.92A3.315,3.315,0,0,1,1522.485,748.347Z"/><path class="cls-2" d="M1587.057,753.1a3.313,3.313,0,0,1-3.315-3.315V693.226a3.316,3.316,0,0,1,6.631,0v56.556A3.314,3.314,0,0,1,1587.057,753.1Z"/><path class="cls-3" d="M1335.27,732.512h0a8.611,8.611,0,0,1-8.744-8.418h0a8.611,8.611,0,0,1,8.744-8.418h0a8.611,8.611,0,0,1,8.745,8.418h0A8.611,8.611,0,0,1,1335.27,732.512Z"/><path class="cls-3" d="M1691.09,733.16h0a8.611,8.611,0,0,1-8.744-8.419h0a8.611,8.611,0,0,1,8.744-8.418h0a8.61,8.61,0,0,1,8.744,8.418h0A8.611,8.611,0,0,1,1691.09,733.16Z"/><path class="cls-3" d="M1121.4,856.874c1.373-5.494-.408-77.39.6-84.536-7.932,23.353-32.251,46.144-54.009,57.015-36.1,18.038-70.25-38.2-113.591-32.9-21.952,2.683-49.118,18.9-69.9,25.468-39.848,12.6-69.026,15.155-106.98-3.5-26.634-13.091-43.665-40.393-88.913-36.88v75.331Z"/><rect class="cls-5" x="689.41" y="857.687" width="430.08" height="6.998"/><path class="cls-2" d="M1049.6,835.116c-13.893,0-24.64-7.445-35.068-14.667-2.1-1.455-4.211-2.919-6.354-4.325C988.8,803.4,974.034,797.105,951.532,800.3c-16.835,2.386-32.922,8.914-48.479,15.228-17.127,6.95-34.838,14.136-54,16.119-37.7,3.893-63.084-6.5-89.6-23.3l-3.146-2c-19.834-12.641-47-29.955-69.009-20.513a2.785,2.785,0,1,1-2.195-5.119c24.71-10.606,53.315,7.624,74.2,20.934l3.132,1.994c26.267,16.647,49.832,26.211,86.046,22.463,18.377-1.9,35.716-8.936,52.483-15.739,15.868-6.439,32.277-13.1,49.792-15.581,24.238-3.427,39.962,3.212,60.481,16.688,2.183,1.433,4.329,2.919,6.469,4.4,11.118,7.7,21.616,14.977,35.56,13.478,36.851-3.957,62.622-47.735,71.09-62.119a2.785,2.785,0,0,1,4.8,2.823c-8.82,14.985-35.66,60.578-75.3,64.835A39.625,39.625,0,0,1,1049.6,835.116Z"/><path class="cls-3" d="M746.579,866.9h0a1.359,1.359,0,0,1-1.355-1.355V777.759a1.359,1.359,0,0,1,1.355-1.355h0a1.359,1.359,0,0,1,1.355,1.355v87.785A1.359,1.359,0,0,1,746.579,866.9Z"/><path class="cls-3" d="M824.069,866.9h0a1.359,1.359,0,0,1-1.355-1.355V777.759a1.359,1.359,0,0,1,1.355-1.355h0a1.359,1.359,0,0,1,1.355,1.355v87.785A1.359,1.359,0,0,1,824.069,866.9Z"/><path class="cls-3" d="M900.746,866.628h0a1.358,1.358,0,0,1-1.354-1.355V777.488a1.358,1.358,0,0,1,1.354-1.355h0a1.359,1.359,0,0,1,1.355,1.355v87.785A1.359,1.359,0,0,1,900.746,866.628Z"/><path class="cls-3" d="M974.985,864.461h0a1.359,1.359,0,0,1-1.355-1.355V775.32a1.359,1.359,0,0,1,1.355-1.355h0a1.359,1.359,0,0,1,1.355,1.355v87.786A1.359,1.359,0,0,1,974.985,864.461Z"/><path class="cls-3" d="M1058.978,865.544h0a1.358,1.358,0,0,1-1.355-1.354V776.4a1.359,1.359,0,0,1,1.355-1.355h0a1.358,1.358,0,0,1,1.354,1.355V864.19A1.358,1.358,0,0,1,1058.978,865.544Z"/><path class="cls-3" d="M746.308,873.944h0a5.978,5.978,0,0,1-5.96-5.961h0a5.978,5.978,0,0,1,5.96-5.961h0a5.979,5.979,0,0,1,5.961,5.961h0A5.979,5.979,0,0,1,746.308,873.944Z"/><path class="cls-3" d="M823.8,871.776h0a5.978,5.978,0,0,1-5.961-5.96h0a5.979,5.979,0,0,1,5.961-5.961h0a5.978,5.978,0,0,1,5.961,5.961h0A5.978,5.978,0,0,1,823.8,871.776Z"/><path class="cls-3" d="M899.662,872.86h0a5.978,5.978,0,0,1-5.96-5.961h0a5.978,5.978,0,0,1,5.96-5.96h0a5.978,5.978,0,0,1,5.961,5.96h0A5.979,5.979,0,0,1,899.662,872.86Z"/><path class="cls-3" d="M974.443,870.15h0a5.978,5.978,0,0,1-5.961-5.96h0a5.979,5.979,0,0,1,5.961-5.961h0a5.978,5.978,0,0,1,5.961,5.961h0A5.978,5.978,0,0,1,974.443,870.15Z"/><path class="cls-3" d="M1058.978,871.234h0a5.978,5.978,0,0,1-5.961-5.961h0a5.978,5.978,0,0,1,5.961-5.96h0a5.978,5.978,0,0,1,5.96,5.96h0A5.978,5.978,0,0,1,1058.978,871.234Z"/><rect class="cls-3" x="246" y="444.757" width="19.142" height="197.945"/><rect class="cls-2" x="246" y="516.427" width="19.142" height="126.275"/><rect class="cls-3" x="276.453" y="444.757" width="19.142" height="197.945"/><rect class="cls-2" x="276.453" y="566.482" width="19.142" height="76.22"/><rect class="cls-3" x="305.166" y="444.757" width="19.142" height="197.945"/><rect class="cls-2" x="305.166" y="484.574" width="19.142" height="158.128"/><rect class="cls-2" x="333.879" y="444.757" width="19.142" height="197.945"/><rect class="cls-3" x="333.879" y="523.253" width="19.142" height="119.449"/><rect class="cls-3" x="247.74" y="657.027" width="13.922" height="13.478"/><rect class="cls-2" x="271.233" y="657.027" width="13.921" height="13.478"/><path class="cls-2" d="M1121.683,561.188a198.757,198.757,0,0,1-4.156,40.524A196.314,196.314,0,0,1,1106.8,636.76a198.8,198.8,0,0,1-56.84,77.172v.029a197.031,197.031,0,0,1-126.037,45.466c-100.088,0-182.821-74.533-195.936-171.223a194.8,194.8,0,0,1-1.853-27.016c0-5.532.224-11.008.7-16.428a194.937,194.937,0,0,1,6.038-35.048,197.308,197.308,0,0,1,187.763-146.7v0h.056c.348,0,.692-.026,1.04-.03.73,0,1.46-.027,2.19-.027,3.932,0,7.863.112,11.739.365,1.938.084,3.847.224,5.757.421q3.243.252,6.487.674c2.612.309,5.167.674,7.723,1.095,1.067.141,2.134.337,3.173.506,1.32.252,2.64.5,3.932.758.9.169,1.825.365,2.724.562,1.039.224,2.078.449,3.117.7,1.18.252,2.331.533,3.483.842,1.291.309,2.583.646,3.847,1.011,1.825.478,3.623,1.011,5.392,1.545,1.32.393,2.612.786,3.9,1.235,2.584.843,5.168,1.713,7.667,2.668,1.208.45,2.387.9,3.567,1.376,1.348.534,2.7,1.068,4.044,1.657,2.5,1.039,4.942,2.134,7.357,3.286,1.18.534,2.36,1.095,3.511,1.685.281.141.562.253.842.421,1.1.534,2.163,1.1,3.258,1.657,1.685.871,3.37,1.8,5.027,2.752.927.506,1.854,1.039,2.78,1.573,1.123.646,2.219,1.292,3.314,1.994,1.123.674,2.218,1.348,3.286,2.05,1.6,1.011,3.2,2.05,4.746,3.117,1.264.842,2.555,1.741,3.791,2.64,1.292.9,2.584,1.853,3.847,2.808,1.264.927,2.528,1.91,3.763,2.893,1.1.87,2.191,1.741,3.258,2.612,1.376,1.123,2.724,2.274,4.072,3.454,1.208,1.039,2.387,2.078,3.539,3.145,1.179,1.067,2.33,2.163,3.482,3.257s2.275,2.191,3.4,3.315,2.219,2.246,3.314,3.4a3.317,3.317,0,0,1,.309.308c2.078,2.191,4.1,4.438,6.094,6.74a191.25,191.25,0,0,1,11.8,15.081c1.713,2.387,3.341,4.8,4.942,7.274.141.224.281.449.422.674.814,1.291,1.628,2.583,2.415,3.9q1.263,2.022,2.443,4.128,2.106,3.665,4.044,7.414c.533,1.039,1.067,2.079,1.573,3.118.533,1.067,1.067,2.162,1.572,3.229.478.983.955,1.994,1.4,3,.506,1.095.983,2.218,1.461,3.342.14.281.252.561.365.842.168.366.337.759.5,1.152.225.561.478,1.151.7,1.713.45,1.1.871,2.19,1.292,3.314.365.926.73,1.853,1.095,2.808.169.477.337.983.506,1.46.365.983.7,1.994,1.039,2.977.983,2.865,1.909,5.729,2.724,8.65.309,1.011.59,1.994.871,3,.533,2,1.067,3.988,1.544,6.01.253.983.478,1.994.7,2.977.2.955.422,1.91.618,2.865.281,1.348.534,2.7.787,4.044.224,1.235.449,2.443.645,3.679.225,1.348.45,2.7.646,4.043.141.983.281,1.938.393,2.921.169,1.123.309,2.275.422,3.426.168,1.348.308,2.724.421,4.072.169,1.882.337,3.792.449,5.7.084,1.348.169,2.724.225,4.1v.029C1121.627,555.319,1121.683,558.24,1121.683,561.188Z"/><path class="cls-6" d="M1122.666,562.255a192.492,192.492,0,0,1-4.072,39.457,188.575,188.575,0,0,1-10.868,35.048,199.877,199.877,0,0,1-57.739,77.228l-.028-.027v-.029c-6.15-7.385-12.3-14.771-18.366-22.185q-7.5-9.057-14.856-18.142-48.106-59.27-94.107-120.055c-.309-.365-.589-.759-.87-1.123,0-.029-.028-.029-.028-.057l-1.1-1.432V363.006c.365,0,.731.028,1.1.028,82.339,2.134,152.659,50.746,183.8,119.606.14.281.252.561.365.842.168.366.337.759.5,1.152.225.561.478,1.151.7,1.713l.012.031A192.342,192.342,0,0,1,1122.666,562.255Z"/><path class="cls-7" d="M1121.493,552.428c-4.576-105.413-91.275-189.469-197.573-189.469-.731,0-1.457.02-2.185.028V552.428Z"/><path class="cls-3" d="M940.311,462.882a2.775,2.775,0,0,1-1.972-.819L822.514,345.971a2.785,2.785,0,0,1,3.944-3.933L942.283,458.13a2.785,2.785,0,0,1-1.972,4.752Z"/><path class="cls-3" d="M870.378,352.767H748a17.555,17.555,0,0,1-17.483-17.523h0A17.555,17.555,0,0,1,748,317.72h122.38a17.555,17.555,0,0,1,17.483,17.524h0A17.555,17.555,0,0,1,870.378,352.767Z"/><path class="cls-3" d="M755.705,614.876a2.774,2.774,0,0,1-1.972-.818L637.909,497.967a2.785,2.785,0,0,1,3.945-3.933l115.823,116.09a2.785,2.785,0,0,1-1.972,4.752Z"/><path class="cls-3" d="M1027.724,698.684a2.786,2.786,0,0,1-2.035-4.687l65.562-70.092a2.785,2.785,0,1,1,4.069,3.8L1029.759,697.8A2.776,2.776,0,0,1,1027.724,698.684Z"/><path class="cls-3" d="M701.071,504.762H578.69a17.555,17.555,0,0,1-17.482-17.524h0a17.554,17.554,0,0,1,17.482-17.522H701.071a17.554,17.554,0,0,1,17.483,17.522h0A17.555,17.555,0,0,1,701.071,504.762Z"/><path class="cls-3" d="M1189.442,636.758H1067.061a17.554,17.554,0,0,1-17.482-17.523h0a17.554,17.554,0,0,1,17.482-17.523h122.381a17.554,17.554,0,0,1,17.483,17.523h0A17.554,17.554,0,0,1,1189.442,636.758Z"/><rect class="cls-2" x="1257.475" y="626.94" width="22.467" height="235.898"/><rect class="cls-3" x="1214.414" y="679.216" width="21.128" height="183.622"/><rect class="cls-5" x="1175.09" y="720.851" width="21.94" height="142.939"/><rect class="cls-3" x="424.476" y="604.87" width="229.824" height="6.737"/><polygon class="cls-6" points="473.797 604.919 473.797 735.327 474.633 735.327 541.509 785.484 609.221 735.327 609.221 604.919 473.797 604.919"/><path class="cls-3" d="M433.881,596.093a12.122,12.122,0,1,1-16.558,4.437A12.122,12.122,0,0,1,433.881,596.093Z"/><path class="cls-3" d="M666.274,597.765a12.121,12.121,0,1,1-16.558,4.437A12.121,12.121,0,0,1,666.274,597.765Z"/><polygon class="cls-3" points="536.23 721.357 502.35 687.476 512.278 677.548 536.435 701.704 577.342 662.468 587.061 672.604 536.23 721.357"/><rect class="cls-5" x="467.028" y="274.243" width="156.695" height="95.961" transform="translate(1090.751 644.446) rotate(-180)"/><path class="cls-3" d="M461,268.218H629.747V376.227H461ZM617.7,280.266H473.052v83.913H617.7Z"/><rect class="cls-3" x="509.542" y="392.068" width="70.452" height="14.576" transform="translate(1089.537 798.712) rotate(-180)"/><path class="cls-2" d="M504.761,326.767a32.94,32.94,0,0,0-33.409-33.408,33.7,33.7,0,0,0-20.236,6.608A48.408,48.408,0,0,0,361.912,326Z"/><path class="cls-2" d="M602.835,350.665a17.063,17.063,0,0,1,17.306-17.306,17.461,17.461,0,0,1,10.483,3.423,25.076,25.076,0,0,1,46.21,13.486Z"/><path class="cls-2" d="M728.508,690.782A17.064,17.064,0,0,0,711.2,673.476a17.465,17.465,0,0,0-10.483,3.423,25.077,25.077,0,0,0-46.21,13.486Z"/><path class="cls-5" d="M1238.5,592.076h53.285s.084-16.7,0-16.662c-1.191.575,11.092-8.394,13.75-15.944l.039-.112c2.95-8.466,2.88-18.361,2.96-27.192.121-13.328.257-26.7.22-40.025V467.55c0-2.8-2.721-5.1-6.045-5.1s-6.045,2.294-6.045,5.1v24.591H1291.5V454.222c0-2.81-2.726-5.108-6.057-5.108s-6.056,2.3-6.056,5.108v37.919H1273.6V444c0-3-2.907-5.45-6.461-5.45S1260.68,441,1260.68,444v48.141h-8.033V428.427c0-3.2-3.105-5.82-6.9-5.82h-.249c-3.794,0-6.9,2.619-6.9,5.82v63.714h-.1V525.89a11.811,11.811,0,0,1-7.326-5V499.408c0-2.47-2.37-4.488-5.285-4.535l.043-.041c11.1,2.117,14.608-22.532,7.4-26.366-3.713,3.167-5.572,10.218-9.8,14.367-5.213,5.119-7.048,9.165-7.661,14.792a3.9,3.9,0,0,0-.437,1.783v25.776l-.151.1c.034.758.091,1.49.151,2.219v.558a3.786,3.786,0,0,0,.155,1.033c2.695,24.792,19.53,31.962,22.913,33.156v9.986"/><path class="cls-6" d="M1567.307,439.3a69.46,69.46,0,0,0-26.379-51.079,55.307,55.307,0,0,0-5.907-4.22,67.7,67.7,0,0,0-17.86-8.09,69.28,69.28,0,0,0-16.03-2.644,2.871,2.871,0,0,0-2.305-.042,68.421,68.421,0,0,0-10.965.587l-.242.03a67.3,67.3,0,0,0-21.4,6.768,62.781,62.781,0,0,0-6.338,3.58,69.845,69.845,0,0,0-31.962,55.143c-.048,1.195-.1,2.386-.1,3.576s.048,2.386.1,3.6a69.386,69.386,0,0,0,19.775,45.148,60.637,60.637,0,0,0,5.206,4.821,69.534,69.534,0,0,0,29.851,14.636l.308.055a66.3,66.3,0,0,0,7.793,1.18,26.794,26.794,0,0,0,9.067,1.635,27.323,27.323,0,0,0,11.676-2.736,69.824,69.824,0,0,0,10.32-2.881l.667-.274,0,0a67.94,67.94,0,0,0,19.948-11.817,49.682,49.682,0,0,0,5.23-4.889,69.339,69.339,0,0,0,19.547-44.9c.048-1.19.1-2.381.1-3.576S1567.355,440.524,1567.307,439.3Zm-6.024.277c.006.151.006.3.012.454h-19.056c-.609-15.74-4.409-30.05-10.379-41.235l.011-.009a45.661,45.661,0,0,0,5.212-5.911c.021.017.046.03.067.048A63.447,63.447,0,0,1,1561.283,439.573Zm-88.974,44.394h0a71.863,71.863,0,0,1,24.59-4.32V506.64c-.484,0-.961-.042-1.444-.056C1486.155,504.524,1477.955,496.165,1472.309,483.967Zm55.953-91.167-.013.011a50.778,50.778,0,0,0-8.291-9.631,62.23,62.23,0,0,1,11.567,5.754A34.474,34.474,0,0,1,1528.262,392.8Zm-25.328-10.761c7.709,1.146,14.714,6.629,20.245,15.062a38.035,38.035,0,0,1-20.245,7.082Zm-6.033,0v22a38.045,38.045,0,0,1-19.612-7.9l-.019-.017C1482.7,388.22,1489.483,383.141,1496.9,382.039Zm-23.151,20.048a45.287,45.287,0,0,0,23.151,8.844v29.1h-32.464C1465.02,425.435,1468.443,412.236,1473.75,402.087Zm23.151,44.791V472.8a77.858,77.858,0,0,0-27.129,4.862,98.708,98.708,0,0,1-5.393-30.779Zm6.033,59.513V479.916a69.232,69.232,0,0,1,23.7,5.822c-5.159,10.334-12.2,17.663-20.184,20.286C1505.283,506.185,1504.109,506.293,1502.934,506.391Zm29.641-17.57a53.861,53.861,0,0,1,5.1,3.593,62.5,62.5,0,0,1-12.779,8.142A62.063,62.063,0,0,0,1532.575,488.821Zm-3.168-9.284,0,0a75.77,75.77,0,0,0-26.47-6.466V446.878h32.521A97.754,97.754,0,0,1,1529.407,479.537Zm-26.473-39.51V411.036a44.615,44.615,0,0,0,23.649-7.983c5.023,10.015,8.249,22.842,8.814,36.974Zm-20.131-59.16a46.62,46.62,0,0,0-10.39,10.711l-.011-.012a36.612,36.612,0,0,1-3.961-5.3c.16-.081.312-.188.472-.267A62.894,62.894,0,0,1,1482.8,380.867Zm-20.276,8.839a41.4,41.4,0,0,0,6.084,7.8c.016.017.034.032.05.049-6.359,11.357-10.434,26.142-11.066,42.474h-23.664c0-.14,0-.285.011-.424A63.769,63.769,0,0,1,1462.527,389.706ZM1434,446.878h23.53a103.264,103.264,0,0,0,6.082,33.448c-.024.012-.051.02-.074.032a58.117,58.117,0,0,0-11.369,7.242c-.054-.056-.105-.1-.16-.157A63.343,63.343,0,0,1,1434,446.878Zm23.3,45.363a56.01,56.01,0,0,1,8.888-5.671l.02-.009a60.876,60.876,0,0,0,11.268,16.808A63.92,63.92,0,0,1,1457.3,492.241Zm86.072-5c-.194.212-.429.425-.633.637a56.258,56.258,0,0,0-7.385-5.232,102.2,102.2,0,0,0,6.945-35.772h18.918A63.371,63.371,0,0,1,1543.374,487.245Z"/><path class="cls-8" d="M1146.68,328.551c-.573-.553-.374-1.7.487-2.456a35.482,35.482,0,0,1,47.948.525c.847.791,1.021,1.931.44,2.474-.958.9-1.9,1.8-2.853,2.706a1.681,1.681,0,0,1-2.252-.2,28.67,28.67,0,0,0-38.729-.442,1.674,1.674,0,0,1-2.255.155C1148.539,330.4,1147.607,329.475,1146.68,328.551Z"/><path class="cls-8" d="M1137.231,318.06c-.576-.559-.122-1.948,1.057-3.011a48.8,48.8,0,0,1,65.951.742c1.16,1.085,1.578,2.479,1,3.021-.955.908-1.9,1.8-2.85,2.706-.592.548-1.826.166-2.814-.758a41.978,41.978,0,0,0-56.733-.625c-1.01.9-2.252,1.239-2.827.686C1139.085,319.9,1138.155,318.973,1137.231,318.06Z"/><path class="cls-8" d="M1125.428,307.535c-.576-.553.183-2.263,1.771-3.68a65.4,65.4,0,0,1,88.376.985c1.555,1.461,2.277,3.182,1.694,3.724-.952.908-1.9,1.8-2.848,2.7-.584.547-2.122-.155-3.505-1.45a58.6,58.6,0,0,0-79.168-.885c-1.406,1.267-2.958,1.931-3.531,1.377Q1126.815,308.921,1125.428,307.535Z"/><rect class="cls-2" x="1165.364" y="416.486" width="19.67" height="50.579"/><polygon class="cls-2" points="1199.042 456.549 1175.199 480.392 1151.356 456.549 1199.042 456.549"/><rect class="cls-3" x="1340.032" y="585.973" width="19.67" height="50.579" transform="translate(2699.735 1222.524) rotate(180)"/><polygon class="cls-3" points="1326.024 596.489 1349.867 572.646 1373.711 596.489 1326.024 596.489"/><path class="cls-3" d="M1049.959,713.932v.029a197.554,197.554,0,0,1-42.405,26.9L921.732,552.427l.9,1.123,109.356,137.776Z"/><path class="cls-3" d="M1027.724,698.684a2.786,2.786,0,0,1-2.035-4.687l65.562-70.092a2.785,2.785,0,1,1,4.069,3.8L1029.759,697.8A2.776,2.776,0,0,1,1027.724,698.684Z"/><path class="cls-3" d="M1189.442,636.758H1067.061a17.554,17.554,0,0,1-17.482-17.523h0a17.554,17.554,0,0,1,17.482-17.523h122.381a17.554,17.554,0,0,1,17.483,17.523h0A17.554,17.554,0,0,1,1189.442,636.758Z"/><path class="cls-2" d="M1368.421,454.551a23.651,23.651,0,0,1,23.988-23.988,24.2,24.2,0,0,1,14.529,4.745A34.757,34.757,0,0,1,1470.987,454Z"/><path class="cls-2" d="M1504.681,532.073c0-21.836,17.012-38,38-38a38.328,38.328,0,0,1,23.015,7.516A55.055,55.055,0,0,1,1667.148,531.2Z"/></g><g id="logo_left" data-name="logo left"><polygon class="cls-5" points="310.992 96.015 310.992 119.259 307.674 119.259 307.674 108.895 294.331 108.895 294.331 119.259 291.012 119.259 291.012 96.015 294.331 96.015 294.331 106.012 307.674 106.012 307.674 96.015 310.992 96.015"/><path class="cls-5" d="M331.6,110.792l-5.013-11.387-5.012,11.387Zm1.161,2.656H320.414l-2.558,5.811h-3.414l10.522-23.244h3.283L338.8,119.259h-3.484l-2.559-5.811Z"/><path class="cls-5" d="M357.693,104.115c0-3.32-2.227-5.216-6.471-5.216h-5.641v10.459h5.641C355.466,109.358,357.693,107.436,357.693,104.115Zm.1,15.144-5.012-7.139c-.463.035-.961.07-1.459.07h-5.737v7.069h-3.318V96.015h9.055c6.043,0,9.693,3.058,9.693,8.1a7.344,7.344,0,0,1-5.108,7.341l5.51,7.8h-3.624Z"/><polygon class="cls-5" points="387.925 119.259 387.89 102.324 379.498 116.437 377.97 116.437 369.578 102.42 369.578 119.259 366.39 119.259 366.39 96.015 369.115 96.015 378.808 112.356 388.361 96.015 391.086 96.015 391.121 119.259 387.933 119.259 387.925 119.259"/><path class="cls-5" d="M417.562,107.637a9.025,9.025,0,1,0-8.994,8.931A8.724,8.724,0,0,0,417.562,107.637Zm-21.368,0c0-6.807,5.24-11.884,12.374-11.884s12.313,5.051,12.313,11.884-5.24,11.884-12.313,11.884S396.194,114.444,396.194,107.637Z"/><polygon class="cls-5" points="445.943 96.015 445.943 119.259 443.218 119.259 429.281 101.922 429.281 119.259 425.963 119.259 425.963 96.015 428.688 96.015 442.625 113.352 442.625 96.015 445.943 96.015"/><polygon class="cls-5" points="461.809 111.22 461.809 119.259 458.526 119.259 458.526 111.159 449.305 96.015 452.859 96.015 460.29 108.266 467.756 96.015 471.04 96.015 461.809 111.22"/><path class="cls-5" d="M248.259,104.787a11.135,11.135,0,0,1,9.308,5.532,15.647,15.647,0,0,1,1.939,4.631c.437,1.853.244,3.793.672,5.645a7.72,7.72,0,0,0,15.3-1.494c0-4.282-3.371-7.279-7.423-7.742a12.8,12.8,0,0,1-7.309-2.788c-3.537-2.849-4.759-6.615-4.759-11.692,0-4.334-3.3-8.4-7.816-8.345s-7.641,4.011-7.641,8.336c0,5.077-1.222,8.844-4.759,11.692a12.739,12.739,0,0,1-7.309,2.788c-4.052.463-7.422,3.521-7.422,7.742a7.719,7.719,0,0,0,15.3,1.494c.428-1.852.236-3.792.672-5.645,1.24-5.243,5.545-10.145,11.248-10.171Z"/></g></svg>