<svg xmlns="http://www.w3.org/2000/svg" xmlns:xlink="http://www.w3.org/1999/xlink" viewBox="0 0 1920 1080"><defs><style>.cls-1{isolation:isolate;}.cls-2{fill:#0f1854;}.cls-3{fill:#aeb8fe;}.cls-4{mix-blend-mode:screen;fill:url(#linear-gradient);}.cls-5{fill:url(#linear-gradient-2);}.cls-6{fill:url(#linear-gradient-3);}.cls-7{fill:url(#linear-gradient-4);}.cls-8{fill:url(#linear-gradient-5);}.cls-9{fill:url(#linear-gradient-6);}.cls-10{fill:url(#linear-gradient-7);}.cls-11{fill:url(#linear-gradient-8);}.cls-12{fill:url(#linear-gradient-9);}.cls-13{fill:url(#linear-gradient-10);}.cls-14,.cls-21{fill:#fff;}.cls-15{fill:url(#linear-gradient-11);}.cls-16{fill:url(#linear-gradient-12);}.cls-17{fill:#fb4d3d;}.cls-18{fill:url(#linear-gradient-13);}.cls-19{fill:url(#linear-gradient-14);}.cls-20{fill:url(#linear-gradient-15);}.cls-21{opacity:0.39;mix-blend-mode:soft-light;}.cls-22{fill:url(#linear-gradient-16);}.cls-23{fill:url(#linear-gradient-17);}.cls-24{fill:url(#linear-gradient-18);}.cls-25{fill:url(#linear-gradient-19);}.cls-26{fill:url(#linear-gradient-20);}.cls-27{fill:url(#linear-gradient-21);}.cls-28{mix-blend-mode:multiply;}.cls-29{fill:#594e82;}.cls-30{fill:url(#linear-gradient-22);}.cls-31{fill:url(#linear-gradient-23);}.cls-32{fill:url(#linear-gradient-24);}.cls-33{fill:url(#linear-gradient-25);}.cls-34{fill:url(#linear-gradient-26);}.cls-35{fill:url(#linear-gradient-27);}.cls-36{fill:url(#linear-gradient-28);}.cls-37{fill:url(#linear-gradient-29);}.cls-38{fill:url(#linear-gradient-30);}.cls-39{fill:url(#linear-gradient-31);}.cls-40{fill:url(#linear-gradient-32);}.cls-41{fill:url(#linear-gradient-33);}.cls-42{fill:url(#linear-gradient-34);}.cls-43{fill:url(#linear-gradient-35);}.cls-44{fill:url(#linear-gradient-36);}.cls-45{fill:url(#linear-gradient-37);}.cls-46{fill:url(#linear-gradient-38);}.cls-47{fill:url(#linear-gradient-39);}.cls-48{fill:url(#linear-gradient-40);}.cls-49{fill:url(#linear-gradient-41);}.cls-50{fill:url(#linear-gradient-42);}.cls-51{fill:url(#linear-gradient-43);}.cls-52{fill:url(#linear-gradient-44);}.cls-53{fill:url(#linear-gradient-45);}.cls-54{fill:url(#linear-gradient-46);}.cls-55{fill:url(#linear-gradient-47);}.cls-56{fill:url(#linear-gradient-48);}</style><linearGradient id="linear-gradient" x1="513.936" y1="623.685" x2="362.251" y2="385.556" gradientUnits="userSpaceOnUse"><stop offset="0.133"/><stop offset="0.402" stop-color="#020102"/><stop offset="0.525" stop-color="#0a0608"/><stop offset="0.618" stop-color="#160f13"/><stop offset="0.697" stop-color="#281b22"/><stop offset="0.766" stop-color="#402a36"/><stop offset="0.828" stop-color="#5d3d4f"/><stop offset="0.885" stop-color="#80546c"/><stop offset="0.939" stop-color="#a86f8e"/><stop offset="0.987" stop-color="#d48cb3"/><stop offset="1" stop-color="#e194be"/></linearGradient><linearGradient id="linear-gradient-2" x1="444.313" y1="316.321" x2="444.403" y2="316.321" gradientTransform="translate(-5.199 17.323) rotate(0.298)" gradientUnits="userSpaceOnUse"><stop offset="0" stop-color="#2b45ed"/><stop offset="0.788" stop-color="#696abd"/><stop offset="1" stop-color="#7a75b0"/></linearGradient><linearGradient id="linear-gradient-3" x1="431.746" y1="314.267" x2="432.118" y2="314.267" xlink:href="#linear-gradient-2"/><linearGradient id="linear-gradient-4" x1="475.013" y1="294.334" x2="541.929" y2="294.334" xlink:href="#linear-gradient-2"/><linearGradient id="linear-gradient-5" x1="490.161" y1="298.638" x2="492.153" y2="298.638" xlink:href="#linear-gradient-2"/><linearGradient id="linear-gradient-6" x1="494.374" y1="298.817" x2="497.652" y2="298.817" xlink:href="#linear-gradient-2"/><linearGradient id="linear-gradient-7" x1="492.414" y1="298.48" x2="494.183" y2="298.48" xlink:href="#linear-gradient-2"/><linearGradient id="linear-gradient-8" x1="436.331" y1="314.062" x2="436.687" y2="314.062" xlink:href="#linear-gradient-2"/><linearGradient id="linear-gradient-9" x1="373.777" y1="393.884" x2="374.702" y2="393.884" xlink:href="#linear-gradient-2"/><linearGradient id="linear-gradient-10" x1="285.453" y1="413.331" x2="373.324" y2="413.331" xlink:href="#linear-gradient-2"/><linearGradient id="linear-gradient-11" x1="419.901" y1="302.111" x2="499.152" y2="302.111" xlink:href="#linear-gradient-2"/><linearGradient id="linear-gradient-12" x1="336.133" y1="340.43" x2="442.712" y2="340.43" xlink:href="#linear-gradient-2"/><linearGradient id="linear-gradient-13" x1="1309.771" y1="635.393" x2="1382.293" y2="635.393" gradientTransform="matrix(1, 0, 0, 1, 0, 0)" xlink:href="#linear-gradient-2"/><linearGradient id="linear-gradient-14" x1="1423.745" y1="765.301" x2="1472.675" y2="765.301" gradientTransform="matrix(1, 0, 0, 1, 0, 0)" xlink:href="#linear-gradient-2"/><linearGradient id="linear-gradient-15" x1="1361.577" y1="546.697" x2="1494.668" y2="546.697" gradientTransform="matrix(1, 0, 0, 1, 0, 0)" xlink:href="#linear-gradient-2"/><linearGradient id="linear-gradient-16" x1="1527.255" y1="519.808" x2="1628" y2="519.808" gradientTransform="matrix(1, 0, 0, 1, 0, 0)" xlink:href="#linear-gradient-2"/><linearGradient id="linear-gradient-17" x1="1461.958" y1="384.597" x2="1618.078" y2="384.597" gradientTransform="matrix(1, 0, 0, 1, 0, 0)" xlink:href="#linear-gradient-2"/><linearGradient id="linear-gradient-18" x1="1265.363" y1="367.405" x2="1392.936" y2="367.405" gradientTransform="matrix(1, 0, 0, 1, 0, 0)" xlink:href="#linear-gradient-2"/><linearGradient id="linear-gradient-19" x1="446.312" y1="503.517" x2="534.371" y2="503.517" gradientUnits="userSpaceOnUse"><stop offset="0" stop-color="#817db5"/><stop offset="1" stop-color="#aeb8fe"/></linearGradient><linearGradient id="linear-gradient-20" x1="441.113" y1="601.056" x2="448.876" y2="462.884" gradientUnits="userSpaceOnUse"><stop offset="0" stop-color="#2b45ed"/><stop offset="0.26" stop-color="#3b4fe1"/><stop offset="0.764" stop-color="#6468c1"/><stop offset="1" stop-color="#7a75b0"/></linearGradient><linearGradient id="linear-gradient-21" x1="443.518" y1="430.536" x2="534.371" y2="430.536" gradientUnits="userSpaceOnUse"><stop offset="0" stop-color="#aeb8fe"/><stop offset="1" stop-color="#817db5"/></linearGradient><linearGradient id="linear-gradient-22" x1="465.656" y1="516.78" x2="553.713" y2="516.78" xlink:href="#linear-gradient-19"/><linearGradient id="linear-gradient-23" x1="460.458" y1="614.318" x2="468.22" y2="476.146" xlink:href="#linear-gradient-20"/><linearGradient id="linear-gradient-24" x1="462.862" y1="443.798" x2="553.713" y2="443.798" xlink:href="#linear-gradient-21"/><linearGradient id="linear-gradient-25" x1="485.002" y1="530.042" x2="573.059" y2="530.042" xlink:href="#linear-gradient-19"/><linearGradient id="linear-gradient-26" x1="479.802" y1="627.581" x2="487.565" y2="489.41" xlink:href="#linear-gradient-20"/><linearGradient id="linear-gradient-27" x1="482.206" y1="457.061" x2="573.059" y2="457.061" xlink:href="#linear-gradient-21"/><linearGradient id="linear-gradient-28" x1="504.345" y1="543.304" x2="592.402" y2="543.304" xlink:href="#linear-gradient-19"/><linearGradient id="linear-gradient-29" x1="499.146" y1="640.843" x2="506.908" y2="502.672" xlink:href="#linear-gradient-20"/><linearGradient id="linear-gradient-30" x1="501.549" y1="470.323" x2="592.402" y2="470.323" xlink:href="#linear-gradient-21"/><linearGradient id="linear-gradient-31" x1="523.688" y1="556.567" x2="611.747" y2="556.567" xlink:href="#linear-gradient-19"/><linearGradient id="linear-gradient-32" x1="518.49" y1="654.106" x2="526.252" y2="515.934" xlink:href="#linear-gradient-20"/><linearGradient id="linear-gradient-33" x1="520.894" y1="483.585" x2="611.747" y2="483.585" xlink:href="#linear-gradient-21"/><linearGradient id="linear-gradient-34" x1="543.031" y1="569.83" x2="631.09" y2="569.83" xlink:href="#linear-gradient-19"/><linearGradient id="linear-gradient-35" x1="537.833" y1="667.369" x2="545.596" y2="529.196" xlink:href="#linear-gradient-20"/><linearGradient id="linear-gradient-36" x1="540.238" y1="496.848" x2="631.09" y2="496.848" xlink:href="#linear-gradient-21"/><linearGradient id="linear-gradient-37" x1="562.377" y1="583.092" x2="650.434" y2="583.092" xlink:href="#linear-gradient-19"/><linearGradient id="linear-gradient-38" x1="557.177" y1="680.631" x2="564.94" y2="542.46" xlink:href="#linear-gradient-20"/><linearGradient id="linear-gradient-39" x1="559.581" y1="510.11" x2="650.434" y2="510.11" xlink:href="#linear-gradient-21"/><linearGradient id="linear-gradient-40" x1="581.721" y1="596.354" x2="669.778" y2="596.354" xlink:href="#linear-gradient-19"/><linearGradient id="linear-gradient-41" x1="576.521" y1="693.893" x2="584.284" y2="555.722" xlink:href="#linear-gradient-20"/><linearGradient id="linear-gradient-42" x1="578.924" y1="523.372" x2="669.778" y2="523.372" xlink:href="#linear-gradient-21"/><linearGradient id="linear-gradient-43" x1="601.064" y1="609.617" x2="689.122" y2="609.617" xlink:href="#linear-gradient-19"/><linearGradient id="linear-gradient-44" x1="595.865" y1="707.156" x2="603.627" y2="568.984" xlink:href="#linear-gradient-20"/><linearGradient id="linear-gradient-45" x1="598.268" y1="536.635" x2="689.122" y2="536.635" xlink:href="#linear-gradient-21"/><linearGradient id="linear-gradient-46" x1="620.408" y1="622.879" x2="708.464" y2="622.879" xlink:href="#linear-gradient-19"/><linearGradient id="linear-gradient-47" x1="615.209" y1="720.418" x2="622.971" y2="582.246" xlink:href="#linear-gradient-20"/><linearGradient id="linear-gradient-48" x1="617.612" y1="549.898" x2="708.464" y2="549.898" xlink:href="#linear-gradient-21"/></defs><title>03- Data standartisation vs harmonisation - the right things at the right times</title><g class="cls-1"><g id="_03:_Data_standartisation_vs_harmonisation_-_the_right_things_at_the_right_times" data-name="03: Data standartisation vs harmonisation - the right things at the right times"><rect class="cls-2" width="1920" height="1080"/><circle class="cls-3" cx="960" cy="540" r="116.976" transform="translate(213.883 1350.252) rotate(-76.717)"/><rect class="cls-3" x="954" y="206" width="12" height="184"/><rect class="cls-3" x="954" y="690" width="12" height="184"/><path class="cls-2" d="M932.88,568l-24.8-56h6.4l23.2,52.72h-3.52L957.52,512h6l-24.8,56Z"/><path class="cls-2" d="M991.039,568.48a35.315,35.315,0,0,1-11.96-2.041,22.853,22.853,0,0,1-8.84-5.239l2.321-4.56a23.6,23.6,0,0,0,7.96,4.84,28.549,28.549,0,0,0,10.519,1.959,23.6,23.6,0,0,0,8.6-1.319,10.431,10.431,0,0,0,4.88-3.56,8.484,8.484,0,0,0,1.559-4.961,7.4,7.4,0,0,0-1.88-5.279,12.963,12.963,0,0,0-4.92-3.16,54.5,54.5,0,0,0-6.719-2.04q-3.682-.88-7.361-1.88a31.1,31.1,0,0,1-6.76-2.68,14.013,14.013,0,0,1-4.96-4.44,12.631,12.631,0,0,1-1.879-7.24,14.005,14.005,0,0,1,2.2-7.64,15.363,15.363,0,0,1,6.76-5.6,27.8,27.8,0,0,1,11.679-2.12,34.063,34.063,0,0,1,9.361,1.32,26.967,26.967,0,0,1,8,3.64l-2,4.72a26.476,26.476,0,0,0-7.64-3.52,29.155,29.155,0,0,0-7.8-1.12,21.869,21.869,0,0,0-8.319,1.36A10.539,10.539,0,0,0,979,521.56a8.931,8.931,0,0,0-1.56,5.16,7.392,7.392,0,0,0,1.88,5.28,12.549,12.549,0,0,0,4.96,3.12,62.036,62.036,0,0,0,6.76,2q3.679.88,7.32,1.92a34.372,34.372,0,0,1,6.72,2.68,13.807,13.807,0,0,1,4.96,4.36,12.283,12.283,0,0,1,1.881,7.12,13.712,13.712,0,0,1-2.24,7.56,15.616,15.616,0,0,1-6.84,5.6A28.307,28.307,0,0,1,991.039,568.48Z"/><polygon class="cls-4" points="342.986 450.501 342.986 645.467 513.184 526.166 513.184 332.348 342.986 450.501"/><path class="cls-5" d="M437.469,335.932c.024.017.049.029.074.045h.016c-.016-.008-.035-.016-.05-.025S437.492,335.943,437.469,335.932Z"/><path class="cls-6" d="M425.285,333.81l-.372.051Z"/><path class="cls-7" d="M530.151,315.681,492.8,289.88c-3.344-2.964-8.36-3.506-14.68,1.3-3.158,2.4-6.776,6.974-9.773,11.365,8.746,6.286,16.624,12.08,24.051,17.122l-.01,0a11.3,11.3,0,0,0-1.288-.55c6.416,2.339,9.718,9.908,9.662,20.625,0,.389-.018.78-.029,1.17,3.383-8.425,9.141-17.242,15.846-21.893.6-.421,1.2-.792,1.787-1.131.038-.022.079-.049.118-.071.562-.319,1.111-.593,1.651-.841.063-.025.124-.059.186-.087.523-.229,1.038-.424,1.543-.591.072-.022.143-.048.213-.067a12.944,12.944,0,0,1,1.459-.369c.071-.015.14-.028.211-.038a10.782,10.782,0,0,1,1.384-.16l.191-.008a9.913,9.913,0,0,1,1.321.044c.05.008.1.017.154.023a8.286,8.286,0,0,1,1.26.248.892.892,0,0,1,.1.031,7.933,7.933,0,0,1,1.212.463.111.111,0,0,1,.029.014,9.016,9.016,0,0,1,3.944,3.911l.009.012a12.718,12.718,0,0,1,.655,1.412c0,.011.01.022.013.033a14.822,14.822,0,0,1,.513,1.567c0,.013.007.028.012.041a17.1,17.1,0,0,1,.366,1.72.233.233,0,0,1,0,.036c.1.6.173,1.231.218,1.88v0C535.033,321.651,533.2,317.613,530.151,315.681Z"/><path class="cls-8" d="M483.409,318.635l.078-.017c.656-.112,1.292-.178,1.915-.224A18.958,18.958,0,0,0,483.409,318.635Z"/><path class="cls-9" d="M490.9,319.045a12.722,12.722,0,0,0-3.274-.653A12.807,12.807,0,0,1,490.9,319.045Z"/><path class="cls-10" d="M485.663,318.378a15.814,15.814,0,0,1,1.769,0A15.813,15.813,0,0,0,485.663,318.378Z"/><path class="cls-11" d="M429.855,333.666c-.12-.006-.236-.017-.356-.023C429.619,333.649,429.735,333.66,429.855,333.666Z"/><path class="cls-12" d="M367.439,413.542c0-.039.011-.078.014-.118l-.921-.661Q367,413.127,367.439,413.542Z"/><path class="cls-13" d="M316.47,468.6c.081-15.19,12.535-42.275,28.6-53.419,8.58-5.952,15.98-6.352,21.01-2.742L329.027,385.7s-1.66-1.359-2.276-1.723c-.558-.33-2.37-1.054-2.37-1.054-4.746-1.555-10.855-.353-17.721,4.41-16.067,11.148-28.522,38.23-28.6,53.42-.041,7.654,2.989,14.34,7.966,17.81h0l.067.051c.022.011.041.027.061.039l34.335,23.774A23.757,23.757,0,0,1,316.47,468.6Z"/><path class="cls-14" d="M535.193,328.92c.064-11.826-7.913-17.325-18.617-9.9-6.705,4.651-12.463,13.468-15.846,21.893.011-.39.028-.781.029-1.17.1-18.93-10.257-28.076-29.8-15.848-9.438,5.9-17.2,17.534-22.727,29.056-3.75-18.883-19.457-26-39.628-12.013-21.673,15.037-38.8,50.075-41.164,72.607-5-4.757-12.984-4.875-22.369,1.636-16.065,11.144-28.519,38.229-28.6,53.419-.07,13.7,9.687,24.313,22.868,18.889L517.809,363.668l.467-.324C528.176,355.514,535.133,340.966,535.193,328.92Z"/><path class="cls-15" d="M462.308,298.225c-5-3.545-12.161-7.574-15.274-7.579-4.241,0-9.167,1.692-14.52,5.4-7.44,5.162-14.148,13.529-19.368,22.674,10.267,7.387,22.727,16.4,22.727,16.4-.024,0-.044-.011-.068-.016a17.647,17.647,0,0,1,1.653.821c.017.011.034.016.051.025l.051.025h0c.076.045.147.1.222.14a17.833,17.833,0,0,1,2.981,2.222c.1.089.2.184.3.279a18.312,18.312,0,0,1,1.3,1.362s.007.007.012.008c.417.487.813,1.008,1.195,1.544.087.124.174.246.259.375.369.539.726,1.094,1.058,1.68l.013.022c.334.592.644,1.218.941,1.854.072.156.141.313.213.469.283.645.557,1.3.8,1.994l.009.017c.247.694.469,1.417.676,2.154.05.185.1.366.152.548.2.751.383,1.513.539,2.3,5.531-11.522,13.289-23.152,22.727-29.056a4.793,4.793,0,0,1,.508-.3c9-5.5,16.014-6.427,20.919-3.923l.01,0C483.3,313.486,473.538,306.193,462.308,298.225Z"/><path class="cls-16" d="M408.6,340.935a41.852,41.852,0,0,1,14.056-6.65s5.426-1.429,13.214.837c0,0-32.1-23.22-35.713-25.666-7.262-4.9-17.7-4.749-29.8,3.64-21.671,15.036-38.975,50.072-41.338,72.607l38.44,27.621C369.913,390.784,387,355.921,408.6,340.935Z"/><path class="cls-14" d="M397.908,350.282c-16.414,17.351-28.513,44.6-30.469,63.26-5-4.757-12.984-4.875-22.369,1.636-16.065,11.144-28.519,38.229-28.6,53.419-.07,13.7,9.687,24.313,22.868,18.889L466.55,399.229Z"/><path class="cls-17" d="M527.086,516.292q25.838,16.885,51.908,34.347,26.034,17.473,52.129,35.288l26.058,17.889c8.659,6.036,17.342,12.023,25.949,18.155,8.639,6.066,17.186,12.29,25.751,18.441L734.512,658.9l.044.032a1.52,1.52,0,0,1,.343,2.121,1.55,1.55,0,0,1-.38.37l-14.408,9.758-14.345,9.85c-4.789,3.272-9.52,6.627-14.283,9.936s-9.508,6.644-14.234,10q-14.221,10.026-28.333,20.206l-28.17,20.436a1.608,1.608,0,0,1-1.837.036l-.045-.03-26.115-17.5L566.72,706.486l-13-8.826-12.965-8.885-25.93-17.77-25.927-17.773-25.831-17.911-25.739-18.044q-12.877-9.011-25.684-18.123l-.044-.031a2.823,2.823,0,0,1-.667-3.935,2.9,2.9,0,0,1,.695-.686q14.483-10.023,28.994-19.928,14.485-9.94,28.98-19.673l28.847-19.464Zm0,.6-28.272,20.971-28.067,20.651q-13.986,10.3-27.934,20.442-13.947,10.167-27.921,20.186l-.016-4.651q13,8.831,25.952,17.737l25.9,17.817L492.531,648l25.708,18.088,25.706,18.091L556.8,693.22l12.812,9.1,25.607,18.234,25.521,18.359-1.882,0L647.6,719.305q14.328-9.873,28.584-19.848,7.139-4.971,14.223-10.021c4.723-3.366,9.478-6.687,14.175-10.09L718.7,669.169l14.05-10.268.007,2.522-26-17.409c-8.648-5.813-17.313-11.553-25.886-17.451-8.606-5.832-17.135-11.809-25.688-17.737l-25.579-18q-25.564-18.076-51.144-36.5Q552.856,535.846,527.088,516.892Z"/><path class="cls-17" d="M538.446,573.835,720.527,699.167a1.169,1.169,0,0,1,.3,1.626,1.157,1.157,0,0,1-.283.288l-.011.008L620.8,771.8a1.591,1.591,0,0,1-1.814.019l-.019-.013-22.818-15.544-22.765-15.621c-15.133-10.476-30.33-20.859-45.41-31.412l-45.3-31.576-45.166-31.764-.019-.014a1.674,1.674,0,0,1-.407-2.333,1.721,1.721,0,0,1,.416-.414l25.31-17.545L488.117,608.2l25.225-17.261Zm0,.4-24.886,18.129L488.8,610.336l-24.68,17.855-24.679,17.688-.01-2.76,45.538,31.229,45.408,31.417c15.154,10.445,30.191,21.06,45.292,31.581l22.588,15.876,22.534,15.953-1.833,0,100.227-70.009.006,1.922Z"/><path class="cls-17" d="M548.388,622.5l40.163,26.985,20.167,13.562,20.188,13.7,40.452,27.5,20.262,13.788,20.2,13.93a2.368,2.368,0,0,1,.032,3.874l-.021.014-88.035,62.352a2.694,2.694,0,0,1-3.091.009l-79.866-55.829c-13.3-9.314-26.647-18.574-39.876-28L459.2,686.227l-.026-.019a1.692,1.692,0,0,1-.4-2.357,1.75,1.75,0,0,1,.419-.414l22.384-15.452,22.383-15.26Zm0,.3L460.287,685v-.333L620.413,795.754h-.343l88.252-62.042v.4Z"/><path class="cls-14" d="M1517.316,655.049a3.064,3.064,0,0,0,4.6,3.954,3.064,3.064,0,0,1,4.963,3.119,3.064,3.064,0,0,0,5.557,2.424h0a3.064,3.064,0,0,1,5.662,1.517,3.064,3.064,0,0,0,6.024.679,3.064,3.064,0,0,1,5.857-.219,3.064,3.064,0,0,0,5.957-1.128,3.063,3.063,0,0,1,5.532-1.935,3.064,3.064,0,0,0,5.36-2.833h0a3.064,3.064,0,0,1,4.716-3.481,3.064,3.064,0,0,0,4.287-4.287,3.064,3.064,0,0,1,3.481-4.716h0a3.063,3.063,0,0,0,2.832-5.359,3.064,3.064,0,0,1,1.936-5.533,3.064,3.064,0,0,0,1.128-5.957,3.064,3.064,0,0,1,.219-5.857,3.064,3.064,0,0,0-.679-6.024,3.064,3.064,0,0,1-1.517-5.662,3.064,3.064,0,0,0-2.425-5.557h0a3.064,3.064,0,0,1-3.118-4.963h0a3.064,3.064,0,0,0-3.954-4.6h0a3.064,3.064,0,0,1-4.443-3.823,3.064,3.064,0,0,0-5.133-3.226,3.064,3.064,0,0,1-5.373-2.344h0a3.064,3.064,0,0,0-5.855-1.569h0a3.064,3.064,0,0,1-5.825-.656,3.064,3.064,0,0,0-6.058.226h0a3.064,3.064,0,0,1-5.76,1.09,3.064,3.064,0,0,0-5.722,2,3.064,3.064,0,0,1-5.182,2.739h0a3.064,3.064,0,0,0-4.878,3.6,3.064,3.064,0,0,1-4.144,4.145,3.064,3.064,0,0,0-3.6,4.878h0a3.064,3.064,0,0,1-2.739,5.182h0a3.064,3.064,0,0,0-2,5.722h0a3.064,3.064,0,0,1-1.089,5.76h0a3.064,3.064,0,0,0-.227,6.058,3.064,3.064,0,0,1,.656,5.824,3.064,3.064,0,0,0,1.569,5.856,3.064,3.064,0,0,1,2.344,5.373,3.064,3.064,0,0,0,3.226,5.133h0A3.064,3.064,0,0,1,1517.316,655.049Zm9.867-46.545a26.2,26.2,0,1,1,0,37.057A26.2,26.2,0,0,1,1527.183,608.5Z"/><path class="cls-14" d="M1539.007,633.737a9.482,9.482,0,1,1,13.41,0A9.484,9.484,0,0,1,1539.007,633.737Z"/><path class="cls-14" d="M1463.2,704.426a2.4,2.4,0,0,0,3.114,3.588h0a2.4,2.4,0,0,1,3.493,2.983h0a2.4,2.4,0,0,0,4.033,2.511,2.4,2.4,0,0,1,4.217,1.82,2.4,2.4,0,0,0,4.594,1.211h0a2.4,2.4,0,0,1,4.566.5h0a2.4,2.4,0,0,0,4.747-.2h0a2.4,2.4,0,0,1,4.51-.872,2.4,2.4,0,0,0,4.477-1.586,2.4,2.4,0,0,1,4.053-2.163h0a2.4,2.4,0,0,0,3.811-2.836h0a2.4,2.4,0,0,1,3.235-3.261h0a2.4,2.4,0,0,0,2.805-3.834,2.4,2.4,0,0,1,2.13-4.069h0a2.4,2.4,0,0,0,1.551-4.49,2.4,2.4,0,0,1,.836-4.517,2.4,2.4,0,0,0,.159-4.748h0A2.4,2.4,0,0,1,1519,679.9h0a2.4,2.4,0,0,0-1.247-4.583h0a2.4,2.4,0,0,1-1.854-4.2h0a2.4,2.4,0,0,0-2.544-4.012h0a2.4,2.4,0,0,1-3.01-3.47h0a2.4,2.4,0,0,0-3.613-3.084,2.4,2.4,0,0,1-3.9-2.428,2.4,2.4,0,0,0-4.362-1.883h0a2.4,2.4,0,0,1-4.441-1.171,2.4,2.4,0,0,0-4.723-.513,2.4,2.4,0,0,1-4.589.19h0a2.4,2.4,0,0,0-4.665.9,2.4,2.4,0,0,1-4.329,1.535h0a2.4,2.4,0,0,0-4.191,2.236,2.4,2.4,0,0,1-3.685,2.742h0a2.4,2.4,0,0,0-3.346,3.373h0a2.4,2.4,0,0,1-2.713,3.707,2.4,2.4,0,0,0-2.2,4.209h0a2.4,2.4,0,0,1-1.5,4.341h0a2.4,2.4,0,0,0-.864,4.671,2.4,2.4,0,0,1-.153,4.591h0a2.4,2.4,0,0,0,.55,4.719,2.4,2.4,0,0,1,1.207,4.432h0a2.4,2.4,0,0,0,1.917,4.347A2.4,2.4,0,0,1,1463.2,704.426Zm15-28.72a15.02,15.02,0,1,1,0,21.241A15.02,15.02,0,0,1,1478.2,675.706Z"/><path class="cls-14" d="M1484.623,690.522a5.933,5.933,0,1,1,8.391,0A5.934,5.934,0,0,1,1484.623,690.522Z"/><path class="cls-14" d="M1478.057,624.058h0a2.457,2.457,0,0,0,2.953-2.777h0a2.457,2.457,0,0,1,4.263-2.011h0a2.457,2.457,0,0,0,4.021-.511h0a2.456,2.456,0,0,1,4.63.88h0a2.457,2.457,0,0,0,3.554,1.95h0a2.457,2.457,0,0,1,3.23,3.432h0a2.457,2.457,0,0,0,1.729,3.667h0a2.456,2.456,0,0,1,.594,4.675h0a2.457,2.457,0,0,0-.756,3.983h0a2.457,2.457,0,0,1-2.267,4.132h0a2.457,2.457,0,0,0-2.953,2.777h0a2.457,2.457,0,0,1-4.263,2.011h0a2.457,2.457,0,0,0-4.021.511h0a2.457,2.457,0,0,1-4.631-.879h0a2.456,2.456,0,0,0-3.553-1.95h0a2.457,2.457,0,0,1-3.23-3.433h0a2.457,2.457,0,0,0-1.729-3.667h0a2.456,2.456,0,0,1-.594-4.675h0a2.457,2.457,0,0,0,.756-3.982h0A2.457,2.457,0,0,1,1478.057,624.058Z"/><circle class="cls-14" cx="1489.032" cy="632.768" r="8.51"/><circle class="cls-14" cx="1489.032" cy="632.768" r="3.759"/><path class="cls-3" d="M1432.751,696.606a28.745,28.745,0,1,0-48.995-22.281,36.585,36.585,0,0,1-10.89,23.23l-.069.069,18.288,18.288.3-.3a37.889,37.889,0,0,1,23.606-10.7A28.6,28.6,0,0,0,1432.751,696.606Z"/><path class="cls-3" d="M1356.3,721.994h9.065a0,0,0,0,1,0,0v10.982a.781.781,0,0,1-.781.781h-7.5a.782.782,0,0,1-.782-.782V721.994A0,0,0,0,1,1356.3,721.994Z" transform="translate(913.265 -749.065) rotate(45)"/><path class="cls-3" d="M1358.734,702.512H1384.6a0,0,0,0,1,0,0v28.17a.891.891,0,0,1-.891.891h-24.08a.891.891,0,0,1-.891-.891v-28.17A0,0,0,0,1,1358.734,702.512Z" transform="translate(908.777 -759.897) rotate(45)"/><path class="cls-3" d="M1378.251,729.249l-18.5-18.5a2.356,2.356,0,0,1,0-3.33h0a2.356,2.356,0,0,1,3.33,0l18.5,18.5a2.356,2.356,0,0,1,0,3.33h0A2.354,2.354,0,0,1,1378.251,729.249Z"/><path class="cls-3" d="M1381.581,729.249h0a2.354,2.354,0,0,1-3.33,0l-18.5-18.5a2.356,2.356,0,0,1,0-3.33h0Z"/><path class="cls-3" d="M1374.9,732.6l-18.5-18.5a2.354,2.354,0,0,1,0-3.33h0a2.356,2.356,0,0,1,3.33,0l18.5,18.5a2.355,2.355,0,0,1,0,3.331h0A2.356,2.356,0,0,1,1374.9,732.6Z"/><path class="cls-3" d="M1378.228,732.6h0a2.356,2.356,0,0,1-3.33,0l-18.5-18.5a2.354,2.354,0,0,1,0-3.33h0Z"/><path class="cls-3" d="M1400.049,790.225l-31.276-31.275-25-25-10.582,10.583,2.519,2.519,53.756,53.756a7.482,7.482,0,0,0,10.583,0h0A7.484,7.484,0,0,0,1400.049,790.225Z"/><polygon class="cls-3" points="1332.857 726.027 1326.578 732.306 1326.578 732.306 1325.268 733.617 1334.687 743.036 1341.746 735.977 1342.277 735.447 1332.857 726.027"/><path class="cls-3" d="M1400.049,790.225l-8.9,1-52.2-52.445-5.752,5.752,2.519,2.519,53.756,53.756a7.482,7.482,0,0,0,10.583,0h0A7.484,7.484,0,0,0,1400.049,790.225Z"/><polygon class="cls-3" points="1329.395 729.24 1326.578 732.306 1326.578 732.306 1325.268 733.617 1334.687 743.036 1338.943 738.781 1338.157 738.042 1329.395 729.24"/><path class="cls-17" d="M1331.217,687.537a31.424,31.424,0,1,1-44.44,0A31.423,31.423,0,0,1,1331.217,687.537Z"/><circle class="cls-3" cx="1308.997" cy="709.757" r="25.107"/><path class="cls-3" d="M1326.751,727.511A25.108,25.108,0,1,1,1291.244,692Z"/><path class="cls-3" d="M1306.816,698.157a9.378,9.378,0,1,1-11,0A9.383,9.383,0,0,1,1306.816,698.157Z"/><path class="cls-3" d="M1400.049,790.225l-4.535-4.534-7.22,7.22-3.363,3.363,4.535,4.534a7.482,7.482,0,0,0,10.583,0h0a7.5,7.5,0,0,0,0-10.583Z"/><path class="cls-3" d="M1390.565,790.64l-2.271,2.271-3.363,3.363,4.535,4.534a7.482,7.482,0,0,0,10.583,0h0Z"/><path class="cls-18" d="M1345.989,635.393l-17.056-32.1a36.348,36.348,0,1,1-19.162,35.161Z"/><path class="cls-3" d="M1345.989,635.393l-17.056-32.1a36.348,36.348,0,1,1,26.054,67.314Z"/><path class="cls-3" d="M1345.989,635.393l-17.056-32.1a36.35,36.35,0,0,1,34.53.226Z"/><path class="cls-3" d="M1334.853,630.263l-36.347.044a36.344,36.344,0,0,1,16.365-30.406Z"/><path class="cls-3" d="M1444.664,750.517l-20.919,20.919a29.583,29.583,0,0,1,11.4-48.93Z"/><path class="cls-19" d="M1444.664,750.517l28.011,9.518a29.584,29.584,0,0,1-48.93,11.4Z"/><path class="cls-3" d="M1450.713,744.468l-6.69-21.768a22.772,22.772,0,0,1,28.374,28.725Z"/><path class="cls-3" d="M1309.632,495.827h-18.847V449.909a19.8,19.8,0,1,0-39.6,0v45.918h-18.847V449.909a38.649,38.649,0,1,1,77.3,0Z"/><path class="cls-3" d="M1270.983,411.259a38.693,38.693,0,0,1,38.649,38.65v45.918h-18.847V449.909a19.824,19.824,0,0,0-19.8-19.8Z"/><rect class="cls-3" x="1212.977" y="487.526" width="116.012" height="89.202"/><rect class="cls-3" x="1301.33" y="487.526" width="27.659" height="89.202"/><polygon class="cls-17" points="1269.749 554.241 1245.102 554.241 1250.91 529.595 1263.942 529.595 1269.749 554.241"/><path class="cls-17" d="M1269.749,520.8a12.324,12.324,0,1,1-12.323-12.324A12.324,12.324,0,0,1,1269.749,520.8Z"/><path class="cls-3" d="M1455.451,619.267h0a40.448,40.448,0,0,1-54.658,0h0a135.277,135.277,0,0,1-41.038-72.141l-10.212-49.012,78.579-34.616,78.579,34.616-10.212,49.012A135.284,135.284,0,0,1,1455.451,619.267Z"/><path class="cls-20" d="M1451.266,608.154h0a34.256,34.256,0,0,1-46.288,0h0a114.563,114.563,0,0,1-34.754-61.094l-8.647-41.506,66.545-29.315,66.546,29.315-8.649,41.506A114.561,114.561,0,0,1,1451.266,608.154Z"/><path class="cls-3" d="M1428.122,476.239V617.155a34.168,34.168,0,0,0,23.144-9h0a114.561,114.561,0,0,0,34.753-61.094l8.649-41.506Z"/><path class="cls-21" d="M1276.472,647.955l-27.5,45.06a4.524,4.524,0,0,1-7.725,0l-27.51-45.072c-11.183-18.322-5.655-42.608,12.856-53.476a36.912,36.912,0,0,1,18.517-5.235,36.5,36.5,0,0,1,15.6,3.63C1281.277,602.647,1288.337,628.515,1276.472,647.955Z"/><circle class="cls-3" cx="1245.102" cy="627.56" r="15.608"/><rect class="cls-3" x="1527.255" y="501.369" width="100.745" height="72.101"/><polygon class="cls-22" points="1577.628 538.246 1527.255 501.369 1628 501.369 1577.628 538.246"/><polygon class="cls-3" points="1577.628 464.492 1628 501.369 1527.255 501.369 1577.628 464.492"/><polygon class="cls-17" points="1577.037 455.047 1558.032 471.043 1571.633 471.043 1571.633 512.321 1582.441 512.321 1582.441 471.043 1596.043 471.043 1577.037 455.047"/><path class="cls-3" d="M1557.294,396.182a25.415,25.415,0,0,0-25.415-25.415c-.132,0-.259.018-.39.02a39.432,39.432,0,0,0-78.181.068c-.573-.032-1.14-.088-1.721-.088a31.2,31.2,0,0,0-31.2,31.2h136.222A25.442,25.442,0,0,0,1557.294,396.182Z"/><path class="cls-23" d="M1618.078,415.285a28.98,28.98,0,0,0-28.981-28.98c-.149,0-.3.019-.445.022a44.965,44.965,0,0,0-89.151.077c-.653-.036-1.3-.1-1.963-.1a35.579,35.579,0,0,0-35.58,35.58h155.336A29,29,0,0,0,1618.078,415.285Z"/><polygon class="cls-3" points="1558.981 450.522 1577.986 434.527 1564.385 434.527 1564.385 393.248 1553.577 393.248 1553.577 434.527 1539.976 434.527 1558.981 450.522"/><polygon class="cls-3" points="1526.365 393.248 1507.36 409.244 1520.962 409.244 1520.962 450.522 1531.77 450.522 1531.77 409.244 1545.371 409.244 1526.365 393.248"/><polygon class="cls-3" points="1404.903 401.97 1296.246 401.97 1296.246 316.623 1361.576 316.623 1373.789 298.434 1404.903 298.434 1404.903 401.97"/><polygon class="cls-3" points="1392.936 401.97 1284.28 401.97 1284.28 316.623 1349.609 316.623 1361.823 298.434 1392.936 298.434 1392.936 401.97"/><polygon class="cls-3" points="1382.293 390.39 1292.6 390.39 1292.6 325.039 1382.293 325.418 1382.293 390.39"/><polygon class="cls-24" points="1392.936 401.97 1284.28 401.97 1265.363 332.84 1374.019 333.241 1392.936 401.97"/><polygon class="cls-14" points="1464.613 438.475 1447.464 448.543 1442.388 441.396 1442.388 434.875 1447.801 428.405 1464.613 438.475"/><polygon class="cls-14" points="1464.613 438.475 1447.464 448.543 1442.388 441.396 1442.388 438.439 1464.613 438.475"/><polygon class="cls-14" points="1447.801 448.543 1349.936 448.543 1349.936 428.405 1447.801 428.405 1444.652 434.06 1444.652 442.889 1447.801 448.543"/><polygon class="cls-14" points="1444.652 442.889 1349.936 442.889 1349.936 434.06 1444.652 434.06 1447.801 438.475 1444.652 442.889"/><rect class="cls-14" x="1343.272" y="428.405" width="10.961" height="20.138"/><rect class="cls-14" x="1343.272" y="438.475" width="10.961" height="10.069"/><path class="cls-14" d="M1329.048,432.768h17.035a1.551,1.551,0,0,1,1.551,1.551v9.861a0,0,0,0,1,0,0H1327.5a0,0,0,0,1,0,0v-9.861A1.551,1.551,0,0,1,1329.048,432.768Z" transform="translate(899.091 1776.039) rotate(-90)"/><path class="cls-14" d="M1334.082,437.8h8.517a0,0,0,0,1,0,0v11.413a0,0,0,0,1,0,0h-10.068a0,0,0,0,1,0,0v-9.861A1.551,1.551,0,0,1,1334.082,437.8Z" transform="translate(894.057 1781.074) rotate(-90)"/><path class="cls-14" d="M1456.468,443.256l8.145-4.781-8.1-4.853a9.392,9.392,0,0,0-.043,9.634Z"/><path class="cls-14" d="M1456.468,443.256l8.145-4.781h-9.453A9.4,9.4,0,0,0,1456.468,443.256Z"/><line class="cls-14" x1="1343.272" y1="448.543" x2="1343.272" y2="428.405"/><path class="cls-17" d="M554.473,662.551l36.974,25.106c12.352,8.365,24.739,16.743,37.109,25.239l37.171,25.427,18.609,12.738L702.9,763.894a1.579,1.579,0,0,1,.019,2.584l-.012.008-81.181,57.395a1.8,1.8,0,0,1-2.061.007L546.019,772.5c-12.271-8.571-24.566-17.106-36.786-25.751l-36.71-25.86-.013-.008a1.13,1.13,0,0,1-.273-1.574,1.164,1.164,0,0,1,.279-.277l20.545-14.265,20.551-14.116Zm0,.2-81.225,57.314v-.222l147.561,102.4h-.229l81.326-57.19v.269Z"/><polygon class="cls-25" points="446.312 606.037 534.371 544.277 534.371 400.997 446.312 462.757 446.312 606.037"/><polygon class="cls-26" points="446.312 606.037 443.518 604.029 443.518 460.747 446.312 462.757 446.312 606.037"/><polygon class="cls-27" points="531.555 398.309 534.371 400.997 446.322 462.762 443.518 460.747 531.555 398.309"/><g class="cls-28"><polygon class="cls-29" points="452.854 474.493 529.224 420.939 529.224 416.313 452.854 469.874 452.854 474.493"/><polygon class="cls-29" points="452.854 487.629 529.224 434.07 529.224 429.447 452.854 483.004 452.854 487.629"/><polygon class="cls-29" points="452.854 500.762 529.224 447.202 529.224 442.578 452.854 496.134 452.854 500.762"/><polygon class="cls-29" points="452.854 513.89 529.224 460.336 529.224 455.713 452.854 509.271 452.854 513.89"/><polygon class="cls-29" points="452.854 527.023 529.224 473.466 529.224 468.845 452.854 522.401 452.854 527.023"/><polygon class="cls-29" points="452.854 540.156 529.224 486.597 529.224 481.976 452.854 535.532 452.854 540.156"/><polygon class="cls-29" points="452.854 553.291 529.224 499.734 529.224 495.112 452.854 548.667 452.854 553.291"/><polygon class="cls-29" points="452.854 566.421 529.224 512.867 529.224 508.245 452.854 561.799 452.854 566.421"/><polygon class="cls-29" points="452.854 579.555 529.224 525.997 529.224 521.377 452.854 574.932 452.854 579.555"/><polygon class="cls-29" points="452.854 592.688 529.224 539.129 529.224 534.509 452.854 588.064 452.854 592.688"/></g><polygon class="cls-30" points="465.656 619.299 553.713 557.539 553.713 414.26 465.656 476.019 465.656 619.299"/><polygon class="cls-31" points="465.656 619.299 462.862 617.291 462.862 474.009 465.656 476.019 465.656 619.299"/><polygon class="cls-32" points="550.898 411.572 553.713 414.26 465.665 476.024 462.862 474.009 550.898 411.572"/><g class="cls-28"><polygon class="cls-29" points="472.197 487.756 548.57 434.201 548.57 429.575 472.197 483.136 472.197 487.756"/><polygon class="cls-29" points="472.197 500.891 548.57 447.332 548.57 442.709 472.197 496.266 472.197 500.891"/><polygon class="cls-29" points="472.197 514.023 548.57 460.464 548.57 455.84 472.197 509.395 472.197 514.023"/><polygon class="cls-29" points="472.197 527.152 548.57 473.598 548.57 468.975 472.197 522.533 472.197 527.152"/><polygon class="cls-29" points="472.197 540.285 548.57 486.729 548.57 482.108 472.197 535.663 472.197 540.285"/><polygon class="cls-29" points="472.197 553.418 548.57 499.859 548.57 495.238 472.197 548.794 472.197 553.418"/><polygon class="cls-29" points="472.197 566.555 548.57 512.996 548.57 508.376 472.197 561.931 472.197 566.555"/><polygon class="cls-29" points="472.197 579.683 548.57 526.129 548.57 521.506 472.197 575.063 472.197 579.683"/><polygon class="cls-29" points="472.197 592.817 548.57 539.259 548.57 534.639 472.197 588.194 472.197 592.817"/><polygon class="cls-29" points="472.197 605.95 548.57 552.391 548.57 547.77 472.197 601.326 472.197 605.95"/></g><polygon class="cls-33" points="485.002 632.562 573.059 570.803 573.059 427.522 485.002 489.281 485.002 632.562"/><polygon class="cls-34" points="485.002 632.562 482.206 630.554 482.206 487.272 485.002 489.281 485.002 632.562"/><polygon class="cls-35" points="570.243 424.834 573.059 427.522 485.01 489.287 482.206 487.272 570.243 424.834"/><g class="cls-28"><polygon class="cls-29" points="491.54 501.018 567.913 447.465 567.913 442.839 491.54 496.398 491.54 501.018"/><polygon class="cls-29" points="491.54 514.153 567.913 460.594 567.913 455.972 491.54 509.528 491.54 514.153"/><polygon class="cls-29" points="491.54 527.285 567.913 473.726 567.913 469.102 491.54 522.66 491.54 527.285"/><polygon class="cls-29" points="491.54 540.414 567.913 486.86 567.913 482.24 491.54 535.795 491.54 540.414"/><polygon class="cls-29" points="491.54 553.546 567.913 499.991 567.913 495.37 491.54 548.926 491.54 553.546"/><polygon class="cls-29" points="491.54 566.682 567.913 513.123 567.913 508.5 491.54 562.058 491.54 566.682"/><polygon class="cls-29" points="491.54 579.817 567.913 526.258 567.913 521.638 491.54 575.193 491.54 579.817"/><polygon class="cls-29" points="491.54 592.945 567.913 539.391 567.913 534.771 491.54 588.325 491.54 592.945"/><polygon class="cls-29" points="491.54 606.078 567.913 552.523 567.913 547.901 491.54 601.458 491.54 606.078"/><polygon class="cls-29" points="491.54 619.213 567.913 565.653 567.913 561.032 491.54 614.588 491.54 619.213"/></g><polygon class="cls-36" points="504.345 645.824 592.402 584.065 592.402 440.784 504.345 502.545 504.345 645.824"/><polygon class="cls-37" points="504.345 645.824 501.549 643.816 501.549 500.534 504.345 502.545 504.345 645.824"/><polygon class="cls-38" points="589.587 438.096 592.402 440.784 504.353 502.549 501.549 500.534 589.587 438.096"/><g class="cls-28"><polygon class="cls-29" points="510.885 514.28 587.257 460.727 587.257 456.101 510.885 509.662 510.885 514.28"/><polygon class="cls-29" points="510.885 527.417 587.257 473.857 587.257 469.234 510.885 522.79 510.885 527.417"/><polygon class="cls-29" points="510.885 540.547 587.257 486.99 587.257 482.364 510.885 535.922 510.885 540.547"/><polygon class="cls-29" points="510.885 553.677 587.257 500.121 587.257 495.501 510.885 549.057 510.885 553.677"/><polygon class="cls-29" points="510.885 566.808 587.257 513.253 587.257 508.633 510.885 562.188 510.885 566.808"/><polygon class="cls-29" points="510.885 579.944 587.257 526.385 587.257 521.764 510.885 575.32 510.885 579.944"/><polygon class="cls-29" points="510.885 593.079 587.257 539.52 587.257 534.9 510.885 588.455 510.885 593.079"/><polygon class="cls-29" points="510.885 606.207 587.257 552.654 587.257 548.033 510.885 601.587 510.885 606.207"/><polygon class="cls-29" points="510.885 619.34 587.257 565.785 587.257 561.165 510.885 614.72 510.885 619.34"/><polygon class="cls-29" points="510.885 632.475 587.257 578.916 587.257 574.296 510.885 627.852 510.885 632.475"/></g><polygon class="cls-39" points="523.688 659.087 611.747 597.326 611.747 454.048 523.688 515.807 523.688 659.087"/><polygon class="cls-40" points="523.688 659.087 520.894 657.078 520.894 513.796 523.688 515.807 523.688 659.087"/><polygon class="cls-41" points="608.93 451.358 611.747 454.048 523.697 515.812 520.894 513.796 608.93 451.358"/><g class="cls-28"><polygon class="cls-29" points="530.229 527.542 606.6 473.989 606.6 469.363 530.229 522.924 530.229 527.542"/><polygon class="cls-29" points="530.229 540.679 606.6 487.12 606.6 482.497 530.229 536.052 530.229 540.679"/><polygon class="cls-29" points="530.229 553.809 606.6 500.252 606.6 495.628 530.229 549.183 530.229 553.809"/><polygon class="cls-29" points="530.229 566.939 606.6 513.385 606.6 508.763 530.229 562.318 530.229 566.939"/><polygon class="cls-29" points="530.229 580.073 606.6 526.515 606.6 521.895 530.229 575.45 530.229 580.073"/><polygon class="cls-29" points="530.229 593.205 606.6 539.646 606.6 535.026 530.229 588.582 530.229 593.205"/><polygon class="cls-29" points="530.229 606.341 606.6 552.783 606.6 548.162 530.229 601.718 530.229 606.341"/><polygon class="cls-29" points="530.229 619.471 606.6 565.916 606.6 561.294 530.229 614.848 530.229 619.471"/><polygon class="cls-29" points="530.229 632.604 606.6 579.047 606.6 574.426 530.229 627.982 530.229 632.604"/><polygon class="cls-29" points="530.229 645.737 606.6 592.179 606.6 587.557 530.229 641.114 530.229 645.737"/></g><polygon class="cls-42" points="543.031 672.35 631.09 610.591 631.09 467.31 543.031 529.069 543.031 672.35"/><polygon class="cls-43" points="543.031 672.35 540.238 670.341 540.238 527.058 543.031 529.069 543.031 672.35"/><polygon class="cls-44" points="628.275 464.622 631.09 467.31 543.042 529.075 540.238 527.058 628.275 464.622"/><g class="cls-28"><polygon class="cls-29" points="549.573 540.806 625.944 487.252 625.944 482.625 549.573 536.186 549.573 540.806"/><polygon class="cls-29" points="549.573 553.941 625.944 500.382 625.944 495.759 549.573 549.316 549.573 553.941"/><polygon class="cls-29" points="549.573 567.073 625.944 513.514 625.944 508.89 549.573 562.446 549.573 567.073"/><polygon class="cls-29" points="549.573 580.202 625.944 526.647 625.944 522.027 549.573 575.582 549.573 580.202"/><polygon class="cls-29" points="549.573 593.334 625.944 539.779 625.944 535.157 549.573 588.714 549.573 593.334"/><polygon class="cls-29" points="549.573 606.467 625.944 552.908 625.944 548.288 549.573 601.844 549.573 606.467"/><polygon class="cls-29" points="549.573 619.604 625.944 566.045 625.944 561.425 549.573 614.98 549.573 619.604"/><polygon class="cls-29" points="549.573 632.733 625.944 579.179 625.944 574.557 549.573 628.113 549.573 632.733"/><polygon class="cls-29" points="549.573 645.866 625.944 592.31 625.944 587.689 549.573 641.246 549.573 645.866"/><polygon class="cls-29" points="549.573 658.999 625.944 605.44 625.944 600.819 549.573 654.376 549.573 658.999"/></g><polygon class="cls-45" points="562.377 685.612 650.434 623.853 650.434 480.572 562.377 542.331 562.377 685.612"/><polygon class="cls-46" points="562.377 685.612 559.581 683.602 559.581 540.322 562.377 542.331 562.377 685.612"/><polygon class="cls-47" points="647.617 477.884 650.434 480.572 562.385 542.337 559.581 540.322 647.617 477.884"/><g class="cls-28"><polygon class="cls-29" points="568.916 554.068 645.289 500.514 645.289 495.889 568.916 549.449 568.916 554.068"/><polygon class="cls-29" points="568.916 567.203 645.289 513.645 645.289 509.02 568.916 562.578 568.916 567.203"/><polygon class="cls-29" points="568.916 580.335 645.289 526.776 645.289 522.152 568.916 575.709 568.916 580.335"/><polygon class="cls-29" points="568.916 593.463 645.289 539.908 645.289 535.288 568.916 588.844 568.916 593.463"/><polygon class="cls-29" points="568.916 606.596 645.289 553.041 645.289 548.421 568.916 601.976 568.916 606.596"/><polygon class="cls-29" points="568.916 619.729 645.289 566.172 645.289 561.55 568.916 615.107 568.916 619.729"/><polygon class="cls-29" points="568.916 632.866 645.289 579.307 645.289 574.687 568.916 628.242 568.916 632.866"/><polygon class="cls-29" points="568.916 645.995 645.289 592.441 645.289 587.82 568.916 641.375 568.916 645.995"/><polygon class="cls-29" points="568.916 659.127 645.289 605.572 645.289 600.952 568.916 654.507 568.916 659.127"/><polygon class="cls-29" points="568.916 672.261 645.289 618.704 645.289 614.082 568.916 667.64 568.916 672.261"/></g><polygon class="cls-48" points="581.721 698.873 669.778 637.114 669.778 493.834 581.721 555.595 581.721 698.873"/><polygon class="cls-49" points="581.721 698.873 578.924 696.866 578.924 553.584 581.721 555.595 581.721 698.873"/><polygon class="cls-50" points="666.963 491.146 669.778 493.834 581.729 555.598 578.924 553.584 666.963 491.146"/><g class="cls-28"><polygon class="cls-29" points="588.26 567.33 664.632 513.776 664.632 509.151 588.26 562.711 588.26 567.33"/><polygon class="cls-29" points="588.26 580.465 664.632 526.907 664.632 522.285 588.26 575.84 588.26 580.465"/><polygon class="cls-29" points="588.26 593.597 664.632 540.04 664.632 535.415 588.26 588.971 588.26 593.597"/><polygon class="cls-29" points="588.26 606.727 664.632 553.17 664.632 548.55 588.26 602.106 588.26 606.727"/><polygon class="cls-29" points="588.26 619.858 664.632 566.303 664.632 561.683 588.26 615.238 588.26 619.858"/><polygon class="cls-29" points="588.26 632.993 664.632 579.434 664.632 574.814 588.26 628.369 588.26 632.993"/><polygon class="cls-29" points="588.26 646.128 664.632 592.571 664.632 587.949 588.26 641.504 588.26 646.128"/><polygon class="cls-29" points="588.26 659.258 664.632 605.703 664.632 601.082 588.26 654.636 588.26 659.258"/><polygon class="cls-29" points="588.26 672.389 664.632 618.834 664.632 614.214 588.26 667.769 588.26 672.389"/><polygon class="cls-29" points="588.26 685.525 664.632 631.967 664.632 627.346 588.26 680.902 588.26 685.525"/></g><polygon class="cls-51" points="601.064 712.137 689.122 650.376 689.122 507.096 601.064 568.856 601.064 712.137"/><polygon class="cls-52" points="601.064 712.137 598.268 710.129 598.268 566.846 601.064 568.856 601.064 712.137"/><polygon class="cls-53" points="686.306 504.408 689.122 507.096 601.072 568.862 598.268 566.846 686.306 504.408"/><g class="cls-28"><polygon class="cls-29" points="607.602 580.593 683.976 527.038 683.976 522.412 607.602 575.973 607.602 580.593"/><polygon class="cls-29" points="607.602 593.728 683.976 540.169 683.976 535.547 607.602 589.102 607.602 593.728"/><polygon class="cls-29" points="607.602 606.858 683.976 553.302 683.976 548.677 607.602 602.233 607.602 606.858"/><polygon class="cls-29" points="607.602 619.989 683.976 566.435 683.976 561.812 607.602 615.37 607.602 619.989"/><polygon class="cls-29" points="607.602 633.122 683.976 579.566 683.976 574.945 607.602 628.5 607.602 633.122"/><polygon class="cls-29" points="607.602 646.255 683.976 592.696 683.976 588.076 607.602 641.631 607.602 646.255"/><polygon class="cls-29" points="607.602 659.39 683.976 605.833 683.976 601.21 607.602 654.768 607.602 659.39"/><polygon class="cls-29" points="607.602 672.52 683.976 618.966 683.976 614.344 607.602 667.898 607.602 672.52"/><polygon class="cls-29" points="607.602 685.654 683.976 632.096 683.976 627.476 607.602 681.031 607.602 685.654"/><polygon class="cls-29" points="607.602 698.787 683.976 645.228 683.976 640.607 607.602 694.164 607.602 698.787"/></g><polygon class="cls-54" points="620.408 725.399 708.464 663.64 708.464 520.36 620.408 582.119 620.408 725.399"/><polygon class="cls-55" points="620.408 725.399 617.612 723.39 617.612 580.108 620.408 582.119 620.408 725.399"/><polygon class="cls-56" points="705.649 517.672 708.464 520.36 620.417 582.124 617.612 580.108 705.649 517.672"/><g class="cls-28"><polygon class="cls-29" points="626.948 593.855 703.319 540.302 703.319 535.676 626.948 589.237 626.948 593.855"/><polygon class="cls-29" points="626.948 606.99 703.319 553.432 703.319 548.808 626.948 602.365 626.948 606.99"/><polygon class="cls-29" points="626.948 620.12 703.319 566.564 703.319 561.939 626.948 615.495 626.948 620.12"/><polygon class="cls-29" points="626.948 633.25 703.319 579.697 703.319 575.076 626.948 628.632 626.948 633.25"/><polygon class="cls-29" points="626.948 646.384 703.319 592.828 703.319 588.208 626.948 641.763 626.948 646.384"/><polygon class="cls-29" points="626.948 659.517 703.319 605.96 703.319 601.337 626.948 654.895 626.948 659.517"/><polygon class="cls-29" points="626.948 672.652 703.319 619.095 703.319 614.472 626.948 668.03 626.948 672.652"/><polygon class="cls-29" points="626.948 685.782 703.319 632.229 703.319 627.608 626.948 681.16 626.948 685.782"/><polygon class="cls-29" points="626.948 698.916 703.319 645.36 703.319 640.738 626.948 694.295 626.948 698.916"/><polygon class="cls-29" points="626.948 712.049 703.319 658.491 703.319 653.87 626.948 707.425 626.948 712.049"/></g></g><g id="logo_left" data-name="logo left"><polygon class="cls-14" points="310.992 96.015 310.992 119.259 307.674 119.259 307.674 108.895 294.331 108.895 294.331 119.259 291.012 119.259 291.012 96.015 294.331 96.015 294.331 106.012 307.674 106.012 307.674 96.015 310.992 96.015"/><path class="cls-14" d="M331.6,110.792l-5.013-11.387-5.012,11.387Zm1.161,2.656H320.414l-2.558,5.811h-3.414l10.522-23.244h3.283L338.8,119.259h-3.484l-2.559-5.811Z"/><path class="cls-14" d="M357.693,104.115c0-3.32-2.227-5.216-6.471-5.216h-5.641v10.459h5.641C355.466,109.358,357.693,107.436,357.693,104.115Zm.1,15.144-5.012-7.139c-.463.035-.961.07-1.459.07h-5.737v7.069h-3.318V96.015h9.055c6.043,0,9.693,3.058,9.693,8.1a7.344,7.344,0,0,1-5.108,7.341l5.51,7.8h-3.624Z"/><polygon class="cls-14" points="387.925 119.259 387.89 102.324 379.498 116.437 377.97 116.437 369.578 102.42 369.578 119.259 366.39 119.259 366.39 96.015 369.115 96.015 378.808 112.356 388.361 96.015 391.086 96.015 391.121 119.259 387.933 119.259 387.925 119.259"/><path class="cls-14" d="M417.562,107.637a9.025,9.025,0,1,0-8.994,8.931A8.724,8.724,0,0,0,417.562,107.637Zm-21.368,0c0-6.807,5.24-11.884,12.374-11.884s12.313,5.051,12.313,11.884-5.24,11.884-12.313,11.884S396.194,114.444,396.194,107.637Z"/><polygon class="cls-14" points="445.943 96.015 445.943 119.259 443.218 119.259 429.281 101.922 429.281 119.259 425.963 119.259 425.963 96.015 428.688 96.015 442.625 113.352 442.625 96.015 445.943 96.015"/><polygon class="cls-14" points="461.809 111.22 461.809 119.259 458.526 119.259 458.526 111.159 449.305 96.015 452.859 96.015 460.29 108.266 467.756 96.015 471.04 96.015 461.809 111.22"/><path class="cls-14" d="M248.259,104.787a11.135,11.135,0,0,1,9.308,5.532,15.647,15.647,0,0,1,1.939,4.631c.437,1.853.244,3.793.672,5.645a7.72,7.72,0,0,0,15.3-1.494c0-4.282-3.371-7.279-7.423-7.742a12.8,12.8,0,0,1-7.309-2.788c-3.537-2.849-4.759-6.615-4.759-11.692,0-4.334-3.3-8.4-7.816-8.345s-7.641,4.011-7.641,8.336c0,5.077-1.222,8.844-4.759,11.692a12.739,12.739,0,0,1-7.309,2.788c-4.052.463-7.422,3.521-7.422,7.742a7.719,7.719,0,0,0,15.3,1.494c.428-1.852.236-3.792.672-5.645,1.24-5.243,5.545-10.145,11.248-10.171Z"/></g></g></svg>