<svg xmlns="http://www.w3.org/2000/svg" viewBox="0 0 1920 1080"><defs><style>.cls-1{isolation:isolate;}.cls-10,.cls-2{fill:#0f1854;}.cls-3{fill:#2b45ed;}.cls-16,.cls-4{fill:#000e33;}.cls-15,.cls-18,.cls-20,.cls-4,.cls-5,.cls-6,.cls-8{stroke:#000e33;}.cls-11,.cls-13,.cls-14,.cls-15,.cls-17,.cls-18,.cls-19,.cls-20,.cls-4,.cls-5,.cls-6,.cls-8{stroke-linecap:round;stroke-linejoin:round;}.cls-11,.cls-13,.cls-4,.cls-5,.cls-6,.cls-8{stroke-width:3.123px;}.cls-5,.cls-9{fill:#fff;}.cls-6{fill:#aeb8fe;}.cls-7{fill:#0de5b2;}.cls-11,.cls-13,.cls-14,.cls-15,.cls-17,.cls-18,.cls-19,.cls-20,.cls-8{fill:none;}.cls-10,.cls-11{stroke:#fff;}.cls-10{stroke-miterlimit:10;}.cls-12{opacity:0.45;mix-blend-mode:multiply;}.cls-13,.cls-14,.cls-17,.cls-19{stroke:#0f1854;}.cls-14,.cls-15{stroke-width:2.749px;}.cls-16{font-size:74.941px;font-family:D-DIN-Bold, D DIN-Bold;font-weight:700;}.cls-17,.cls-18{stroke-width:2.858px;}.cls-19,.cls-20{stroke-width:2.59px;}</style></defs><title>06- Data harmonisation tools and frameworks in 2024</title><g class="cls-1"><g id="_06:_Data_harmonisation_tools_and_frameworks_in_2024" data-name="06: Data harmonisation tools and frameworks in 2024"><rect class="cls-2" width="1920" height="1080"/><path class="cls-3" d="M531.505,916c256.261,124.1,684.025,32.81,843.138-93.255,206.779-163.83,256.654-548.305,42.276-678.142C1294.853,70.678,1097.529,87.923,939.1,302.758c-147.091,199.455-254,102.818-419.929,161.279C309.179,538.02,312.505,809.945,531.505,916Z"/><rect class="cls-3" x="619.025" y="287.285" width="773.636" height="530.304" rx="12" ry="12"/><rect class="cls-4" x="591.551" y="264.387" width="773.636" height="530.305" rx="27.605" ry="27.605"/><rect class="cls-5" x="575.309" y="264.387" width="773.636" height="530.305" rx="22.499" ry="22.499"/><path class="cls-6" d="M600.29,794.691h723.675a24.98,24.98,0,0,0,24.981-24.98V744.25H575.309v25.461A24.981,24.981,0,0,0,600.29,794.691Z"/><path class="cls-6" d="M1323.965,264.387H600.29a24.981,24.981,0,0,0-24.981,24.98h773.637A24.98,24.98,0,0,0,1323.965,264.387Z"/><rect class="cls-7" x="626.861" y="331.001" width="279.724" height="190.005"/><rect class="cls-7" x="626.861" y="514.2" width="279.724" height="6.806"/><rect class="cls-8" x="640.049" y="344.189" width="12.833" height="12.833"/><line class="cls-8" x1="678.549" y1="357.022" x2="665.716" y2="357.022"/><polyline class="cls-8" points="674.361 467.165 712.01 394.247 748.797 449.685 792.211 405.937 820.093 438.595 864.288 459.753"/><path class="cls-5" d="M678.962,467.165a4.6,4.6,0,1,0-4.6,4.6A4.6,4.6,0,0,0,678.962,467.165Z"/><path class="cls-5" d="M796.812,405.937a4.6,4.6,0,1,0-4.6,4.6A4.6,4.6,0,0,0,796.812,405.937Z"/><circle class="cls-5" cx="748.797" cy="449.685" r="4.601"/><path class="cls-5" d="M824.694,438.6a4.6,4.6,0,1,0-4.6,4.6A4.6,4.6,0,0,0,824.694,438.6Z"/><path class="cls-5" d="M716.611,394.247a4.6,4.6,0,1,0-4.6,4.6A4.6,4.6,0,0,0,716.611,394.247Z"/><path class="cls-5" d="M868.89,459.753a4.6,4.6,0,1,0-4.6,4.6A4.6,4.6,0,0,0,868.89,459.753Z"/><line class="cls-8" x1="674.361" y1="490.33" x2="864.288" y2="490.33"/><rect class="cls-7" x="626.861" y="538.071" width="279.724" height="164.544"/><rect class="cls-7" x="626.861" y="695.81" width="279.724" height="6.806"/><rect class="cls-8" x="640.049" y="551.259" width="12.833" height="12.833"/><line class="cls-8" x1="678.549" y1="564.093" x2="665.716" y2="564.093"/><rect class="cls-2" x="652.882" y="581.28" width="239.675" height="9.203"/><rect class="cls-9" x="652.882" y="603.069" width="239.675" height="9.202"/><rect class="cls-9" x="652.882" y="624.858" width="148.525" height="9.202"/><rect class="cls-2" x="652.882" y="646.647" width="107.453" height="9.202"/><rect class="cls-2" x="771.829" y="646.647" width="60.364" height="9.202"/><rect class="cls-9" x="652.882" y="668.435" width="65.368" height="9.203"/><rect class="cls-7" x="936.141" y="331.001" width="361.253" height="47.043"/><rect class="cls-7" x="936.141" y="378.044" width="361.253" height="6.806"/><rect class="cls-2" x="962.162" y="355.441" width="128.321" height="9.202"/><rect class="cls-9" x="1098.318" y="355.441" width="53.861" height="9.202"/><rect class="cls-7" x="936.141" y="394.393" width="361.253" height="47.043"/><rect class="cls-7" x="936.141" y="441.437" width="361.253" height="6.806"/><line class="cls-8" x1="949.329" y1="407.581" x2="962.162" y2="407.581"/><line class="cls-8" x1="974.995" y1="407.581" x2="987.829" y2="407.581"/><rect class="cls-8" x="949.329" y="402.606" width="12.833" height="4.976"/><rect class="cls-2" x="962.162" y="418.833" width="58.664" height="9.202"/><rect class="cls-2" x="1092.565" y="418.833" width="171.293" height="9.202"/><rect class="cls-9" x="1030.583" y="418.833" width="53.861" height="9.202"/><rect class="cls-7" x="936.141" y="457.786" width="361.253" height="47.043"/><rect class="cls-7" x="936.141" y="504.829" width="361.253" height="6.806"/><line class="cls-8" x1="949.329" y1="470.974" x2="962.162" y2="470.974"/><line class="cls-8" x1="974.995" y1="470.974" x2="987.829" y2="470.974"/><rect class="cls-8" x="949.329" y="465.998" width="12.833" height="4.976"/><rect class="cls-2" x="962.162" y="482.226" width="128.321" height="9.202"/><rect class="cls-7" x="936.141" y="521.179" width="361.253" height="47.043"/><rect class="cls-7" x="936.141" y="568.222" width="361.253" height="6.806"/><line class="cls-8" x1="949.329" y1="534.366" x2="962.162" y2="534.366"/><line class="cls-8" x1="974.995" y1="534.366" x2="987.829" y2="534.366"/><rect class="cls-8" x="949.329" y="529.391" width="12.833" height="4.976"/><rect class="cls-2" x="962.162" y="545.618" width="89.89" height="9.202"/><rect class="cls-9" x="1062.461" y="545.618" width="151.323" height="9.202"/><rect class="cls-9" x="1225.153" y="545.618" width="24.912" height="9.202"/><rect class="cls-7" x="936.141" y="595.134" width="361.253" height="107.482"/><rect class="cls-7" x="936.141" y="695.81" width="361.253" height="6.806"/><rect class="cls-8" x="949.329" y="608.322" width="12.833" height="12.833"/><line class="cls-8" x1="987.829" y1="621.156" x2="974.995" y2="621.156"/><rect class="cls-10" x="1004.643" y="622.935" width="51.881" height="51.881"/><line class="cls-11" x1="1017.734" y1="661.725" x2="1043.433" y2="636.025"/><line class="cls-11" x1="1043.433" y1="661.725" x2="1017.734" y2="636.025"/><rect class="cls-10" x="1075.449" y="622.935" width="51.881" height="51.881"/><line class="cls-11" x1="1088.54" y1="661.725" x2="1114.24" y2="636.025"/><rect class="cls-10" x="1146.256" y="622.935" width="51.881" height="51.881"/><rect class="cls-11" x="1161.744" y="637.235" width="23.281" height="23.281"/><rect class="cls-2" x="1217.062" y="622.935" width="51.881" height="51.881"/><line class="cls-8" x1="1231.362" y1="637.235" x2="1231.362" y2="637.235"/><line class="cls-8" x1="1254.643" y1="637.235" x2="1254.643" y2="637.235"/><line class="cls-8" x1="1231.362" y1="660.516" x2="1231.362" y2="660.516"/><line class="cls-8" x1="1254.643" y1="660.516" x2="1254.643" y2="660.516"/><g class="cls-12"><rect class="cls-2" x="1195.514" y="560.431" width="330.591" height="330.591" rx="7.2" ry="7.2"/><rect class="cls-13" x="1195.514" y="560.431" width="330.591" height="330.591" rx="7.2" ry="7.2"/></g><rect class="cls-9" x="1180.942" y="545.859" width="330.591" height="330.591" rx="7.2" ry="7.2"/><rect class="cls-8" x="1180.942" y="545.859" width="330.591" height="330.591" rx="7.2" ry="7.2"/><line class="cls-8" x1="1200.371" y1="575.657" x2="1212.202" y2="563.826"/><line class="cls-8" x1="1200.371" y1="563.826" x2="1212.202" y2="575.657"/><path class="cls-2" d="M1245.351,656.726a25.131,25.131,0,0,0-25.131,25.131v6.083h50.262v-6.083A25.131,25.131,0,0,0,1245.351,656.726Z"/><path class="cls-2" d="M1259.614,637.454a14.263,14.263,0,1,0-14.263,14.263A14.263,14.263,0,0,0,1259.614,637.454Z"/><rect class="cls-8" x="1212.202" y="599.747" width="66.298" height="88.193"/><rect class="cls-2" x="1294.936" y="656.166" width="72.917" height="12.833" transform="translate(2662.789 1325.165) rotate(180)"/><rect class="cls-2" x="1294.936" y="675.107" width="37.196" height="12.833" transform="translate(2627.068 1363.047) rotate(180)"/><path class="cls-8" d="M1480.274,680.112a7.829,7.829,0,1,0-7.829,7.828A7.829,7.829,0,0,0,1480.274,680.112Z"/><rect class="cls-7" x="1212.202" y="708.477" width="268.072" height="52.705"/><rect class="cls-2" x="1226.401" y="720.419" width="239.675" height="9.203"/><rect class="cls-9" x="1226.401" y="742.208" width="90.599" height="9.203"/><rect class="cls-7" x="1212.202" y="781.72" width="268.072" height="52.706"/><rect class="cls-2" x="1226.401" y="793.662" width="109.667" height="9.202"/><rect class="cls-9" x="1344.176" y="793.662" width="121.899" height="9.202"/><rect class="cls-9" x="1276.383" y="815.451" width="87.558" height="9.202"/><rect class="cls-9" x="1226.401" y="815.451" width="41.874" height="9.202"/><path class="cls-8" d="M1192.9,720.557c-31.849,0-30.143-26.731-65.4-26.731h0a17.181,17.181,0,0,1-17.181-17.181V669.8"/><path class="cls-4" d="M1204.733,720.557h0a5.916,5.916,0,0,0-5.916-5.916h0a5.916,5.916,0,0,0-5.916,5.916h0a5.916,5.916,0,0,0,5.916,5.915h0A5.916,5.916,0,0,0,1204.733,720.557Z"/><path class="cls-4" d="M1116.231,663.881h0a5.916,5.916,0,0,0-5.916-5.915h0a5.916,5.916,0,0,0-5.916,5.915h0a5.916,5.916,0,0,0,5.916,5.916h0A5.916,5.916,0,0,0,1116.231,663.881Z"/><g class="cls-12"><rect class="cls-2" x="1448.553" y="273.754" width="203.277" height="203.277" rx="7.2" ry="7.2"/><rect class="cls-14" x="1448.553" y="273.754" width="203.277" height="203.277" rx="7.2" ry="7.2"/></g><rect class="cls-9" x="1435.723" y="260.923" width="203.277" height="203.277" rx="7.2" ry="7.2"/><rect class="cls-15" x="1435.723" y="260.923" width="203.277" height="203.277" rx="7.2" ry="7.2"/><line class="cls-15" x1="1452.829" y1="287.161" x2="1463.247" y2="276.743"/><line class="cls-15" x1="1452.829" y1="276.743" x2="1463.247" y2="287.161"/><text></text><path class="cls-8" d="M1274.917,343.686C1354.5,324.5,1390.5,359.5,1451.5,339.5"/><path class="cls-4" d="M1463.154,339.417h0a5.916,5.916,0,0,0-5.916-5.916h0a5.916,5.916,0,0,0-5.916,5.916h0a5.916,5.916,0,0,0,5.916,5.916h0A5.916,5.916,0,0,0,1463.154,339.417Z"/><path class="cls-4" d="M1274.917,343.686h0a5.916,5.916,0,0,0-5.916-5.915h0a5.916,5.916,0,0,0-5.916,5.915h0A5.916,5.916,0,0,0,1269,349.6h0A5.916,5.916,0,0,0,1274.917,343.686Z"/><path class="cls-4" d="M1463.154,376.079h0a5.916,5.916,0,0,0-5.916-5.916h0a5.916,5.916,0,0,0-5.916,5.916h0a5.916,5.916,0,0,0,5.916,5.916h0A5.916,5.916,0,0,0,1463.154,376.079Z"/><path class="cls-4" d="M1274.917,407.079h0a5.916,5.916,0,0,0-5.916-5.916h0a5.916,5.916,0,0,0-5.916,5.916h0A5.916,5.916,0,0,0,1269,413h0A5.916,5.916,0,0,0,1274.917,407.079Z"/><line class="cls-8" x1="1274.917" y1="407.079" x2="1451.5" y2="376.5"/><path class="cls-8" d="M1274.917,470.472C1354.5,473.5,1379.5,409.5,1457.5,412.5"/><path class="cls-4" d="M1463.154,412.741h0a5.916,5.916,0,0,1-5.916,5.916h0a5.916,5.916,0,0,1-5.916-5.916h0a5.916,5.916,0,0,1,5.916-5.916h0A5.916,5.916,0,0,1,1463.154,412.741Z"/><path class="cls-4" d="M1274.917,470.472h0a5.916,5.916,0,0,1-5.916,5.915h0a5.916,5.916,0,0,1-5.916-5.915h0a5.916,5.916,0,0,1,5.916-5.916h0A5.916,5.916,0,0,1,1274.917,470.472Z"/><g class="cls-12"><rect class="cls-2" x="689.517" y="776.728" width="262.27" height="142.151" rx="7.2" ry="7.2"/><rect class="cls-13" x="689.517" y="776.728" width="262.27" height="142.151" rx="7.2" ry="7.2"/></g><rect class="cls-9" x="674.945" y="762.156" width="262.27" height="142.151" rx="7.2" ry="7.2"/><rect class="cls-8" x="674.945" y="762.156" width="262.27" height="142.151" rx="7.2" ry="7.2"/><line class="cls-8" x1="694.373" y1="791.954" x2="706.205" y2="780.122"/><line class="cls-8" x1="694.373" y1="780.122" x2="706.205" y2="791.954"/><text></text><path class="cls-8" d="M806.786,769.952c0-31.85-26.731-30.143-26.731-65.4h0a17.181,17.181,0,0,0-17.181-17.181h-6.847"/><rect class="cls-4" x="800.87" y="769.952" width="11.832" height="11.832" rx="2.842" ry="2.842"/><path class="cls-4" d="M750.111,693.281h0a5.916,5.916,0,0,1-5.916-5.915h0a5.916,5.916,0,0,1,5.916-5.916h0a5.916,5.916,0,0,1,5.916,5.916h0A5.916,5.916,0,0,1,750.111,693.281Z"/><g class="cls-12"><rect class="cls-2" x="994.651" y="846.506" width="152.89" height="96.67" rx="7.2" ry="7.2"/><rect class="cls-13" x="994.651" y="846.506" width="152.89" height="96.67" rx="7.2" ry="7.2"/></g><rect class="cls-9" x="980.079" y="831.934" width="152.89" height="96.67" rx="7.2" ry="7.2"/><rect class="cls-8" x="980.079" y="831.934" width="152.89" height="96.67" rx="7.2" ry="7.2"/><line class="cls-8" x1="999.507" y1="861.732" x2="1011.339" y2="849.901"/><line class="cls-8" x1="999.507" y1="849.901" x2="1011.339" y2="861.732"/><path class="cls-4" d="M1036.022,900.754a5.545,5.545,0,1,0-5.544,5.545A5.544,5.544,0,0,0,1036.022,900.754Z"/><path class="cls-4" d="M1093.979,859.784a5.545,5.545,0,1,0-5.545,5.544A5.544,5.544,0,0,0,1093.979,859.784Z"/><path class="cls-8" d="M1030.478,900.754s48.275,12.764,57.956-40.97"/><path class="cls-8" d="M922.563,859.41c35.262,0,33.556,26.731,65.4,26.731"/><path class="cls-4" d="M999.8,886.141h0a5.916,5.916,0,0,0-5.916-5.916h0a5.916,5.916,0,0,0-5.916,5.916h0a5.916,5.916,0,0,0,5.916,5.916h0A5.916,5.916,0,0,0,999.8,886.141Z"/><path class="cls-4" d="M922.563,859.41h0a5.916,5.916,0,0,0-5.916-5.916h0a5.916,5.916,0,0,0-5.916,5.916h0a5.916,5.916,0,0,0,5.916,5.916h0A5.916,5.916,0,0,0,922.563,859.41Z"/><g class="cls-12"><path class="cls-2" d="M344.328,568.525H473.9a7.662,7.662,0,0,1,7.662,7.662V793.479a7.663,7.663,0,0,1-7.663,7.663H344.328a7.662,7.662,0,0,1-7.662-7.662V576.187A7.662,7.662,0,0,1,344.328,568.525Z"/><path class="cls-13" d="M344.328,568.525H473.9a7.662,7.662,0,0,1,7.662,7.662V793.479a7.663,7.663,0,0,1-7.663,7.663H344.328a7.662,7.662,0,0,1-7.662-7.662V576.187A7.662,7.662,0,0,1,344.328,568.525Z"/></g><path class="cls-9" d="M329.757,553.953H459.333A7.662,7.662,0,0,1,467,561.615V778.907a7.663,7.663,0,0,1-7.663,7.663H329.757a7.662,7.662,0,0,1-7.662-7.662V561.615A7.662,7.662,0,0,1,329.757,553.953Z"/><path class="cls-8" d="M329.757,553.953H459.333A7.662,7.662,0,0,1,467,561.615V778.907a7.663,7.663,0,0,1-7.663,7.663H329.757a7.662,7.662,0,0,1-7.662-7.662V561.615A7.662,7.662,0,0,1,329.757,553.953Z"/><line class="cls-8" x1="341.522" y1="583.751" x2="353.354" y2="571.92"/><line class="cls-8" x1="341.522" y1="571.92" x2="353.354" y2="583.751"/><path class="cls-2" d="M443.082,641.084a1.568,1.568,0,0,0-.515-1.088,1.509,1.509,0,0,0-1.134-.4c-29.99,1.772-45.373-25.032-45.526-25.3a1.626,1.626,0,0,0-2.724,0c-.152.27-15.561,27.06-45.526,25.3a1.534,1.534,0,0,0-1.134.4,1.563,1.563,0,0,0-.514,1.088c-.034.715-2.762,71.661,48.3,79.608a1.609,1.609,0,0,0,.48,0C445.843,712.745,443.115,641.8,443.082,641.084Z"/><path class="cls-8" d="M652.546,605.663C565.5,583.5,492.5,659.5,424.5,593.5"/><path class="cls-4" d="M418.309,593.394h0a5.916,5.916,0,0,1,5.916-5.916h0a5.916,5.916,0,0,1,5.916,5.916h0a5.916,5.916,0,0,1-5.916,5.916h0A5.916,5.916,0,0,1,418.309,593.394Z"/><path class="cls-4" d="M652.546,605.663h0a5.916,5.916,0,0,1,5.916-5.916h0a5.916,5.916,0,0,1,5.916,5.916h0a5.916,5.916,0,0,1-5.916,5.916h0A5.916,5.916,0,0,1,652.546,605.663Z"/><g class="cls-12"><rect class="cls-2" x="472.666" y="334.188" width="144.901" height="197.703" rx="7.2" ry="7.2"/><rect class="cls-13" x="472.666" y="334.188" width="144.901" height="197.703" rx="7.2" ry="7.2"/></g><rect class="cls-9" x="458.094" y="319.616" width="144.901" height="197.703" rx="7.2" ry="7.2"/><rect class="cls-8" x="458.094" y="319.616" width="144.901" height="197.703" rx="7.2" ry="7.2"/><line class="cls-8" x1="477.522" y1="349.414" x2="489.354" y2="337.583"/><line class="cls-8" x1="477.522" y1="337.583" x2="489.354" y2="349.414"/><text class="cls-16" transform="translate(473.03 442.854)">&lt;/&gt;</text><path class="cls-8" d="M652.546,394.813c-35.262,0-33.555-26.731-65.405-26.731"/><path class="cls-4" d="M575.309,368.082h0A5.916,5.916,0,0,0,581.225,374h0a5.916,5.916,0,0,0,5.916-5.916h0a5.916,5.916,0,0,0-5.916-5.916h0A5.916,5.916,0,0,0,575.309,368.082Z"/><path class="cls-4" d="M652.546,394.813h0a5.916,5.916,0,0,0,5.916,5.915h0a5.916,5.916,0,0,0,5.916-5.915h0a5.916,5.916,0,0,0-5.916-5.916h0A5.916,5.916,0,0,0,652.546,394.813Z"/><g class="cls-12"><rect class="cls-2" x="700.245" y="269.081" width="152.89" height="96.67" rx="7.2" ry="7.2"/><rect class="cls-13" x="700.245" y="269.081" width="152.89" height="96.67" rx="7.2" ry="7.2"/></g><rect class="cls-9" x="685.673" y="254.509" width="152.89" height="96.67" rx="7.2" ry="7.2"/><rect class="cls-8" x="685.673" y="254.509" width="152.89" height="96.67" rx="7.2" ry="7.2"/><line class="cls-8" x1="705.101" y1="284.307" x2="716.933" y2="272.475"/><line class="cls-8" x1="705.101" y1="272.475" x2="716.933" y2="284.307"/><g class="cls-12"><rect class="cls-2" x="887.83" y="245.592" width="309.81" height="39.437" rx="7.2" ry="7.2"/><rect class="cls-17" x="887.83" y="245.592" width="309.81" height="39.437" rx="7.2" ry="7.2"/></g><rect class="cls-9" x="877.19" y="234.952" width="309.81" height="39.437" rx="7.2" ry="7.2"/><rect class="cls-18" x="877.19" y="234.952" width="309.81" height="39.437" rx="7.2" ry="7.2"/><path class="cls-7" d="M1164.118,248.232H958.692a6.439,6.439,0,0,0-6.439,6.439h0a6.439,6.439,0,0,0,6.439,6.439h205.426a6.439,6.439,0,0,0,6.439-6.439h0A6.439,6.439,0,0,0,1164.118,248.232Z"/><path class="cls-2" d="M1124.036,248.232H958.692a6.439,6.439,0,1,0,0,12.878h165.344Z"/><rect class="cls-18" x="923.512" y="249.368" width="10.828" height="10.828"/><g class="cls-12"><rect class="cls-2" x="888.816" y="182.921" width="338.517" height="43.091" rx="7.2" ry="7.2"/><rect class="cls-13" x="888.816" y="182.921" width="338.517" height="43.091" rx="7.2" ry="7.2"/></g><rect class="cls-9" x="877.19" y="171.296" width="338.517" height="43.091" rx="7.2" ry="7.2"/><rect class="cls-8" x="877.19" y="171.296" width="338.517" height="43.091" rx="7.2" ry="7.2"/><path class="cls-7" d="M1190.705,185.806H966.244a7.036,7.036,0,0,0-7.036,7.035h0a7.036,7.036,0,0,0,7.036,7.036h224.461a7.036,7.036,0,0,0,7.036-7.036h0A7.036,7.036,0,0,0,1190.705,185.806Z"/><path class="cls-2" d="M1016.74,185.806h-50.5a7.036,7.036,0,1,0,0,14.071h50.5Z"/><rect class="cls-8" x="927.804" y="187.047" width="11.832" height="11.832"/><g class="cls-12"><rect class="cls-2" x="886.834" y="308.29" width="280.81" height="35.745" rx="7.2" ry="7.2"/><rect class="cls-19" x="886.834" y="308.29" width="280.81" height="35.745" rx="7.2" ry="7.2"/></g><rect class="cls-9" x="877.19" y="298.646" width="280.81" height="35.745" rx="7.2" ry="7.2"/><rect class="cls-20" x="877.19" y="298.646" width="280.81" height="35.745" rx="7.2" ry="7.2"/><path class="cls-7" d="M1137.26,310.682h-186.2a5.836,5.836,0,0,0-5.836,5.837h0a5.836,5.836,0,0,0,5.836,5.836h186.2a5.836,5.836,0,0,0,5.836-5.836h0A5.836,5.836,0,0,0,1137.26,310.682Z"/><path class="cls-2" d="M1130.167,310.682h-179.1a5.837,5.837,0,0,0,0,11.673h179.1Z"/><rect class="cls-20" x="919.176" y="311.712" width="9.815" height="9.815"/><path class="cls-8" d="M897.5,193.5c-48,2-39.692,78.276-71.542,78.276"/><path class="cls-4" d="M814.127,271.776h0a5.915,5.915,0,0,1,5.915-5.916h0a5.915,5.915,0,0,1,5.916,5.916h0a5.915,5.915,0,0,1-5.916,5.915h0A5.915,5.915,0,0,1,814.127,271.776Z"/><path class="cls-4" d="M891.363,193.045h0a5.916,5.916,0,0,1,5.916-5.916h0a5.916,5.916,0,0,1,5.916,5.916h0a5.916,5.916,0,0,1-5.916,5.916h0A5.916,5.916,0,0,1,891.363,193.045Z"/><path class="cls-4" d="M814.127,304.274h0a5.916,5.916,0,0,1,5.915-5.916h0a5.916,5.916,0,0,1,5.916,5.916h0a5.916,5.916,0,0,1-5.916,5.916h0A5.916,5.916,0,0,1,814.127,304.274Z"/><path class="cls-4" d="M891.363,254.274h0a5.916,5.916,0,0,1,5.916-5.916h0a5.916,5.916,0,0,1,5.916,5.916h0a5.916,5.916,0,0,1-5.916,5.916h0A5.916,5.916,0,0,1,891.363,254.274Z"/><line class="cls-8" x1="897.5" y1="254.5" x2="820.5" y2="304.5"/><path class="cls-8" d="M897.5,315.5c-42-9-39.692,19.19-71.542,19.19"/><path class="cls-4" d="M814.127,334.69h0a5.915,5.915,0,0,0,5.915,5.916h0a5.915,5.915,0,0,0,5.916-5.916h0a5.915,5.915,0,0,0-5.916-5.915h0A5.915,5.915,0,0,0,814.127,334.69Z"/><path class="cls-4" d="M891.363,315.421h0a5.916,5.916,0,0,0,5.916,5.916h0a5.916,5.916,0,0,0,5.916-5.916h0a5.916,5.916,0,0,0-5.916-5.916h0A5.916,5.916,0,0,0,891.363,315.421Z"/></g><g id="logo_left" data-name="logo left"><polygon class="cls-9" points="310.992 96.015 310.992 119.259 307.674 119.259 307.674 108.895 294.331 108.895 294.331 119.259 291.012 119.259 291.012 96.015 294.331 96.015 294.331 106.012 307.674 106.012 307.674 96.015 310.992 96.015"/><path class="cls-9" d="M331.6,110.792l-5.013-11.387-5.012,11.387Zm1.161,2.656H320.414l-2.558,5.811h-3.414l10.522-23.244h3.283L338.8,119.259h-3.484l-2.559-5.811Z"/><path class="cls-9" d="M357.693,104.115c0-3.32-2.227-5.216-6.471-5.216h-5.641v10.459h5.641C355.466,109.358,357.693,107.436,357.693,104.115Zm.1,15.144-5.012-7.139c-.463.035-.961.07-1.459.07h-5.737v7.069h-3.318V96.015h9.055c6.043,0,9.693,3.058,9.693,8.1a7.344,7.344,0,0,1-5.108,7.341l5.51,7.8h-3.624Z"/><polygon class="cls-9" points="387.925 119.259 387.89 102.324 379.498 116.437 377.97 116.437 369.578 102.42 369.578 119.259 366.39 119.259 366.39 96.015 369.115 96.015 378.808 112.356 388.361 96.015 391.086 96.015 391.121 119.259 387.933 119.259 387.925 119.259"/><path class="cls-9" d="M417.562,107.637a9.025,9.025,0,1,0-8.994,8.931A8.724,8.724,0,0,0,417.562,107.637Zm-21.368,0c0-6.807,5.24-11.884,12.374-11.884s12.313,5.051,12.313,11.884-5.24,11.884-12.313,11.884S396.194,114.444,396.194,107.637Z"/><polygon class="cls-9" points="445.943 96.015 445.943 119.259 443.218 119.259 429.281 101.922 429.281 119.259 425.963 119.259 425.963 96.015 428.688 96.015 442.625 113.352 442.625 96.015 445.943 96.015"/><polygon class="cls-9" points="461.809 111.22 461.809 119.259 458.526 119.259 458.526 111.159 449.305 96.015 452.859 96.015 460.29 108.266 467.756 96.015 471.04 96.015 461.809 111.22"/><path class="cls-9" d="M248.259,104.787a11.135,11.135,0,0,1,9.308,5.532,15.647,15.647,0,0,1,1.939,4.631c.437,1.853.244,3.793.672,5.645a7.72,7.72,0,0,0,15.3-1.494c0-4.282-3.371-7.279-7.423-7.742a12.8,12.8,0,0,1-7.309-2.788c-3.537-2.849-4.759-6.615-4.759-11.692,0-4.334-3.3-8.4-7.816-8.345s-7.641,4.011-7.641,8.336c0,5.077-1.222,8.844-4.759,11.692a12.739,12.739,0,0,1-7.309,2.788c-4.052.463-7.422,3.521-7.422,7.742a7.719,7.719,0,0,0,15.3,1.494c.428-1.852.236-3.792.672-5.645,1.24-5.243,5.545-10.145,11.248-10.171Z"/></g></g></svg>