<svg xmlns="http://www.w3.org/2000/svg" viewBox="0 0 1920 1080"><defs><style>.cls-1{fill:#0f1854;}.cls-2{opacity:0.4;}.cls-3{fill:#fff;}.cls-4{opacity:0.2;}.cls-5{fill:#aeb8fe;}.cls-6{fill:#2b45ed;}.cls-7{fill:#fb4d3d;}.cls-8{fill:#d4ecff;}.cls-9{fill:#db3a33;}.cls-10{fill:#00af54;}.cls-11{fill:#0de5b2;}</style></defs><title>07- Survey data harmonisation - the steps and expected results</title><g id="_07:_Survey_data_harmonisation_-_the_steps_and_expected_results" data-name="07: Survey data harmonisation - the steps and expected results"><rect class="cls-1" width="1920" height="1080"/><g class="cls-2"><path class="cls-3" d="M1413.369,524.845l-54.341-31.374,54.339-31.373,54.341,31.375Zm-50.493-31.374,50.493,29.152,50.491-29.15-50.493-29.153Z"/><path class="cls-3" d="M1308.537,524.843,1254.2,493.471l54.34-31.374,54.341,31.374Zm-50.493-31.372,50.493,29.15,50.491-29.15-50.493-29.152Z"/><path class="cls-3" d="M1360.954,555.107l-54.341-31.375,54.339-31.372,54.341,31.374Zm-50.493-31.375,50.493,29.153,50.491-29.151-50.493-29.152Z"/><path class="cls-3" d="M1413.371,585.37,1359.03,554l54.339-31.373L1467.71,554ZM1362.878,554l50.493,29.152L1463.862,554l-50.493-29.152Z"/><path class="cls-3" d="M1203.7,524.843l-54.341-31.374L1203.7,462.1l54.342,31.374Zm-50.493-31.374,50.493,29.152,50.491-29.15L1203.7,464.319Z"/><path class="cls-3" d="M1256.121,555.107l-54.341-31.375,54.34-31.372,54.341,31.372Zm-50.493-31.375,50.493,29.153,50.492-29.153-50.493-29.15Z"/><path class="cls-3" d="M1308.538,585.37,1254.2,554l54.34-31.375L1362.878,554ZM1258.045,554l50.493,29.152L1359.03,554l-50.493-29.153Z"/><path class="cls-3" d="M1360.955,615.631l-54.341-31.372,54.34-31.374,54.341,31.374Zm-50.493-31.372,50.493,29.15,50.491-29.15-50.492-29.152Z"/><path class="cls-3" d="M1413.372,645.9l-54.341-31.375,54.34-31.372,54.341,31.374Zm-50.493-31.375,50.493,29.153,50.492-29.151-50.493-29.152Z"/><path class="cls-3" d="M1098.872,524.842l-54.341-31.374L1098.87,462.1l54.341,31.374Zm-50.493-31.374,50.493,29.152,50.491-29.151-50.493-29.152Z"/><path class="cls-3" d="M1151.289,555.105l-54.341-31.374,54.339-31.373,54.341,31.374ZM1100.8,523.731l50.493,29.152,50.491-29.151-50.493-29.152Z"/><path class="cls-3" d="M1203.706,585.368l-54.341-31.374,54.339-31.373L1258.045,554Zm-50.493-31.374,50.493,29.152L1254.2,554,1203.7,524.843Z"/><path class="cls-3" d="M1256.123,615.631l-54.341-31.374,54.339-31.372,54.341,31.374Zm-50.493-31.374,50.493,29.152,50.491-29.15-50.493-29.152Z"/><path class="cls-3" d="M1308.54,645.9,1254.2,614.52l54.339-31.372,54.341,31.372Zm-50.493-31.375,50.493,29.153,50.491-29.153-50.493-29.15Z"/><path class="cls-3" d="M1360.957,676.158l-54.341-31.374,54.339-31.375,54.341,31.375Zm-50.493-31.374,50.493,29.152,50.491-29.152-50.493-29.153Z"/><path class="cls-3" d="M1413.374,706.419l-54.341-31.372,54.339-31.374,54.341,31.374Zm-50.493-31.372,50.493,29.15,50.491-29.15L1413.372,645.9Z"/><path class="cls-3" d="M994.039,524.842,939.7,493.468l54.34-31.373,54.341,31.373Zm-50.493-31.374,50.493,29.152,50.492-29.152-50.493-29.151Z"/><path class="cls-3" d="M1046.456,555.105l-54.341-31.374,54.34-31.374,54.341,31.374Zm-50.493-31.374,50.493,29.152,50.492-29.152-50.493-29.152Z"/><path class="cls-3" d="M1098.873,585.366l-54.341-31.372,54.34-31.374,54.341,31.374Zm-50.493-31.372,50.493,29.15,50.492-29.15-50.493-29.152Z"/><path class="cls-3" d="M1151.29,615.63l-54.341-31.375,54.34-31.372,54.341,31.374ZM1100.8,584.255l50.493,29.153,50.492-29.151-50.493-29.152Z"/><path class="cls-3" d="M1203.707,645.893l-54.341-31.374,54.34-31.373,54.341,31.374Zm-50.493-31.374,50.493,29.152L1254.2,614.52l-50.493-29.152Z"/><path class="cls-3" d="M1256.124,676.156l-54.341-31.374,54.34-31.373,54.341,31.375Zm-50.493-31.374,50.493,29.152,50.492-29.15-50.493-29.153Z"/><path class="cls-3" d="M1308.541,706.419,1254.2,675.045l54.34-31.372,54.341,31.374Zm-50.493-31.374,50.493,29.152,50.492-29.15L1308.54,645.9Z"/><path class="cls-3" d="M1360.959,736.683l-54.342-31.375,54.34-31.372,54.341,31.372Zm-50.493-31.375,50.493,29.152,50.491-29.152-50.493-29.15Z"/><path class="cls-3" d="M1413.376,766.946l-54.342-31.375,54.34-31.374,54.341,31.374Zm-50.493-31.375,50.493,29.153,50.491-29.153-50.493-29.152Z"/><path class="cls-3" d="M889.207,524.84l-54.341-31.374,54.339-31.373,54.341,31.375Zm-50.493-31.374,50.493,29.152,50.491-29.15-50.493-29.153Z"/><path class="cls-3" d="M941.624,555.1l-54.341-31.374,54.339-31.372,54.341,31.374Zm-50.493-31.374,50.493,29.152,50.491-29.15-50.493-29.152Z"/><path class="cls-3" d="M994.041,585.366,939.7,553.992l54.339-31.372,54.341,31.374Zm-50.493-31.374,50.493,29.152,50.491-29.15-50.493-29.152Z"/><path class="cls-3" d="M1046.458,615.63l-54.341-31.375,54.339-31.372,54.341,31.372Zm-50.493-31.375,50.493,29.153,50.491-29.153-50.493-29.15Z"/><path class="cls-3" d="M1098.875,645.893l-54.341-31.374,54.339-31.375,54.341,31.375Zm-50.493-31.374,50.493,29.152,50.491-29.152-50.493-29.153Z"/><path class="cls-3" d="M1151.292,676.154l-54.341-31.372,54.339-31.374,54.341,31.374ZM1100.8,644.782l50.493,29.15,50.491-29.15L1151.29,615.63Z"/><path class="cls-3" d="M1203.709,706.418l-54.341-31.375,54.339-31.372,54.341,31.374Zm-50.493-31.375,50.493,29.153,50.491-29.151-50.493-29.152Z"/><path class="cls-3" d="M1256.126,736.681l-54.341-31.374,54.339-31.373,54.342,31.374Zm-50.493-31.374,50.493,29.152,50.491-29.151-50.493-29.152Z"/><path class="cls-3" d="M1308.543,766.944,1254.2,735.57l54.339-31.373,54.342,31.374ZM1258.05,735.57l50.493,29.152,50.491-29.151-50.493-29.152Z"/><path class="cls-3" d="M1360.96,797.207l-54.341-31.374,54.34-31.373,54.341,31.375Zm-50.493-31.374,50.493,29.152,50.492-29.15-50.493-29.152Z"/><path class="cls-3" d="M1413.376,827.47l-54.34-31.374,54.34-31.372,54.341,31.372ZM1362.884,796.1l50.492,29.152,50.493-29.152-50.493-29.15Z"/><path class="cls-3" d="M889.209,585.365l-54.342-31.373,54.34-31.374,54.341,31.374Zm-50.493-31.373,50.493,29.151L939.7,553.992,889.207,524.84Z"/><path class="cls-3" d="M941.625,615.628l-54.341-31.374,54.34-31.373,54.341,31.374Zm-50.492-31.374,50.492,29.152,50.492-29.151L941.624,555.1Z"/><path class="cls-3" d="M994.043,645.891,939.7,614.517l54.34-31.373,54.341,31.375ZM943.55,614.517l50.493,29.152,50.491-29.15-50.493-29.153Z"/><path class="cls-3" d="M1046.46,676.154,992.118,644.78l54.34-31.372,54.341,31.374ZM995.967,644.78l50.493,29.152,50.491-29.15-50.493-29.152Z"/><path class="cls-3" d="M1098.877,706.418l-54.341-31.375,54.339-31.372,54.341,31.372Zm-50.493-31.375,50.493,29.153,50.491-29.153-50.493-29.15Z"/><path class="cls-3" d="M1151.294,736.681l-54.341-31.374,54.339-31.375,54.341,31.375ZM1100.8,705.307l50.493,29.152,50.491-29.152-50.493-29.153Z"/><path class="cls-3" d="M1203.711,766.942,1149.37,735.57l54.339-31.374,54.341,31.374Zm-50.493-31.372,50.493,29.15,50.491-29.15-50.493-29.152Z"/><path class="cls-3" d="M1256.128,797.206l-54.341-31.375,54.339-31.372,54.341,31.374Zm-50.493-31.375,50.493,29.153,50.491-29.151-50.493-29.152Z"/><path class="cls-3" d="M1308.545,827.469,1254.2,796.1l54.339-31.373,54.341,31.374ZM1258.052,796.1l50.493,29.152,50.491-29.151-50.493-29.152Z"/><path class="cls-3" d="M1360.96,857.732l-54.339-31.374,54.339-31.373,54.34,31.374Zm-50.491-31.374,50.491,29.152,50.492-29.151-50.492-29.152Z"/><path class="cls-3" d="M1413.377,888l-54.341-31.374,54.34-31.373,54.341,31.375Zm-50.493-31.374,50.493,29.152,50.492-29.15-50.493-29.153Z"/><path class="cls-3" d="M889.21,645.891l-54.341-31.374,54.34-31.374,54.341,31.374Zm-50.493-31.374,50.493,29.152L939.7,614.517l-50.492-29.152Z"/><path class="cls-3" d="M941.627,676.153,887.286,644.78l54.339-31.374,54.342,31.374ZM891.134,644.78l50.493,29.151,50.491-29.151-50.493-29.152Z"/><path class="cls-3" d="M994.044,706.416,939.7,675.042l54.34-31.373,54.341,31.374Zm-50.493-31.374,50.493,29.152,50.492-29.151-50.493-29.152Z"/><path class="cls-3" d="M1046.461,736.679,992.12,705.305l54.34-31.373,54.341,31.375Zm-50.493-31.374,50.493,29.152,50.492-29.15-50.493-29.153Z"/><path class="cls-3" d="M1098.878,766.942l-54.341-31.374,54.34-31.372,54.341,31.374Zm-50.493-31.374,50.493,29.152,50.492-29.15-50.493-29.152Z"/><path class="cls-3" d="M1151.3,797.206l-54.341-31.375,54.34-31.372,54.341,31.372ZM1100.8,765.831l50.493,29.153,50.492-29.153-50.493-29.15Z"/><path class="cls-3" d="M1203.712,827.469,1149.371,796.1l54.34-31.375,54.341,31.375ZM1153.219,796.1l50.493,29.152L1254.2,796.1l-50.493-29.153Z"/><path class="cls-3" d="M1256.128,857.73l-54.34-31.372,54.34-31.374,54.341,31.374Zm-50.492-31.372,50.492,29.15,50.493-29.15-50.493-29.152Z"/><path class="cls-3" d="M1308.545,887.993,1254.2,856.619l54.341-31.372,54.339,31.374Zm-50.493-31.374,50.493,29.153,50.491-29.151-50.491-29.152Z"/><path class="cls-3" d="M889.212,706.416l-54.341-31.374,54.339-31.373,54.341,31.373Zm-50.493-31.374,50.493,29.152L939.7,675.042,889.21,645.891Z"/><path class="cls-3" d="M941.629,736.679l-54.341-31.374,54.339-31.374,54.341,31.374Zm-50.493-31.374,50.493,29.152,50.491-29.152-50.493-29.152Z"/><path class="cls-3" d="M994.046,766.941l-54.341-31.373,54.339-31.374,54.341,31.374Zm-50.493-31.373,50.493,29.151,50.491-29.151-50.493-29.152Z"/><path class="cls-3" d="M1046.463,797.2,992.122,765.83l54.339-31.373,54.341,31.374ZM995.97,765.83l50.493,29.152,50.491-29.151-50.493-29.152Z"/><path class="cls-3" d="M1098.88,827.467l-54.341-31.374,54.339-31.373,54.341,31.375Zm-50.493-31.374,50.493,29.152,50.491-29.15-50.493-29.153Z"/><path class="cls-3" d="M1151.3,857.73l-54.341-31.374,54.339-31.372,54.341,31.374ZM1100.8,826.356l50.493,29.152,50.491-29.15L1151.3,797.206Z"/><path class="cls-3" d="M1203.712,887.993l-54.339-31.374,54.339-31.372,54.34,31.372Zm-50.491-31.374,50.491,29.153,50.492-29.153-50.492-29.15Z"/><path class="cls-3" d="M889.213,766.941l-54.341-31.374,54.34-31.373,54.341,31.374ZM838.72,735.567l50.493,29.152,50.492-29.151-50.493-29.152Z"/><path class="cls-3" d="M941.631,797.2,887.289,765.83l54.34-31.373L995.97,765.83ZM891.138,765.83l50.493,29.152,50.491-29.152-50.493-29.151Z"/><path class="cls-3" d="M994.048,827.467l-54.342-31.374,54.34-31.374,54.341,31.374Zm-50.493-31.374,50.493,29.152,50.491-29.152-50.493-29.152Z"/><path class="cls-3" d="M1046.465,857.729l-54.341-31.373,54.339-31.374,54.341,31.374Zm-50.493-31.373,50.493,29.151,50.491-29.151L1046.463,797.2Z"/><path class="cls-3" d="M1098.88,887.992l-54.34-31.374,54.34-31.373,54.341,31.374Zm-50.491-31.374,50.491,29.152,50.493-29.151-50.493-29.152Z"/><path class="cls-3" d="M889.215,827.465l-54.341-31.374,54.339-31.372,54.342,31.374Zm-50.493-31.374,50.493,29.153,50.491-29.151-50.493-29.152Z"/><path class="cls-3" d="M941.632,857.729l-54.341-31.374,54.34-31.373,54.341,31.374Zm-50.493-31.374,50.493,29.152,50.492-29.151L941.631,797.2Z"/><path class="cls-3" d="M994.049,887.992l-54.341-31.374,54.34-31.373,54.341,31.373Zm-50.493-31.374,50.493,29.152,50.491-29.152-50.492-29.151Z"/><path class="cls-3" d="M889.217,887.99l-54.341-31.374,54.339-31.372,54.341,31.374Zm-50.493-31.374,50.493,29.152,50.491-29.15-50.493-29.153Z"/></g><g class="cls-4"><path class="cls-3" d="M753.413,348.36l-33.161-19.146,33.16-19.144,33.161,19.145ZM722.6,329.214,753.413,347l30.812-17.789-30.813-17.789Z"/><path class="cls-3" d="M689.44,348.359l-33.161-19.145,33.16-19.145L722.6,329.214Zm-30.812-19.145L689.44,347l30.812-17.789-30.813-17.79Z"/><path class="cls-3" d="M721.427,366.827l-33.161-19.146,33.16-19.145,33.161,19.146Zm-30.813-19.146,30.813,17.79,30.812-17.789-30.813-17.79Z"/><path class="cls-3" d="M753.414,385.3l-33.161-19.146L753.413,347l33.161,19.146ZM722.6,366.149l30.813,17.79,30.812-17.789-30.813-17.79Z"/><path class="cls-3" d="M625.467,348.359l-33.161-19.146,33.16-19.144,33.162,19.145Zm-30.812-19.146L625.467,347l30.812-17.789-30.813-17.79Z"/><path class="cls-3" d="M657.454,366.827l-33.161-19.146,33.16-19.145,33.161,19.145Zm-30.812-19.146,30.812,17.79,30.812-17.79-30.813-17.789Z"/><path class="cls-3" d="M689.441,385.3,656.28,366.149,689.44,347,722.6,366.149Zm-30.812-19.146,30.812,17.79,30.812-17.79-30.813-17.79Z"/><path class="cls-3" d="M721.428,403.761l-33.161-19.144,33.16-19.146,33.161,19.146Zm-30.813-19.144,30.813,17.788,30.812-17.788-30.813-17.79Z"/><path class="cls-3" d="M753.415,422.229l-33.161-19.146,33.16-19.144,33.161,19.145ZM722.6,403.083l30.813,17.79,30.812-17.789L753.414,385.3Z"/><path class="cls-3" d="M561.5,348.358l-33.161-19.146,33.16-19.144,33.161,19.145Zm-30.813-19.146L561.5,347l30.811-17.789-30.812-17.79Z"/><path class="cls-3" d="M593.482,366.826,560.321,347.68l33.16-19.145,33.161,19.146ZM562.669,347.68l30.813,17.79,30.811-17.789-30.812-17.79Z"/><path class="cls-3" d="M625.468,385.294l-33.161-19.146L625.467,347l33.162,19.146Zm-30.812-19.146,30.812,17.79,30.812-17.789-30.813-17.79Z"/><path class="cls-3" d="M657.455,403.761l-33.161-19.145,33.16-19.145,33.161,19.146Zm-30.812-19.145,30.812,17.789,30.812-17.788-30.813-17.79Z"/><path class="cls-3" d="M689.442,422.229l-33.161-19.146,33.16-19.144L722.6,403.083Zm-30.813-19.146,30.813,17.79,30.812-17.79L689.441,385.3Z"/><path class="cls-3" d="M721.429,440.7l-33.161-19.146,33.16-19.146,33.161,19.146Zm-30.813-19.146,30.813,17.79,30.812-17.79-30.813-17.79Z"/><path class="cls-3" d="M753.416,459.164l-33.161-19.145,33.16-19.146,33.161,19.146ZM722.6,440.019l30.813,17.789,30.812-17.789-30.813-17.79Z"/><path class="cls-3" d="M497.522,348.358l-33.161-19.146,33.16-19.144,33.161,19.144Zm-30.813-19.146L497.522,347l30.812-17.79-30.813-17.789Z"/><path class="cls-3" d="M529.509,366.826,496.348,347.68l33.16-19.146,33.161,19.146ZM498.7,347.68l30.813,17.79,30.812-17.79-30.813-17.79Z"/><path class="cls-3" d="M561.5,385.293l-33.161-19.145L561.5,347l33.161,19.146Zm-30.813-19.145L561.5,383.937l30.811-17.789L561.5,348.358Z"/><path class="cls-3" d="M593.483,403.76l-33.161-19.145,33.16-19.145,33.161,19.146ZM562.67,384.615,593.483,402.4l30.811-17.788-30.812-17.79Z"/><path class="cls-3" d="M625.469,422.228l-33.161-19.146,33.16-19.144,33.161,19.145Zm-30.812-19.146,30.812,17.79,30.812-17.789-30.813-17.789Z"/><path class="cls-3" d="M657.456,440.7,624.295,421.55l33.16-19.145,33.161,19.146ZM626.644,421.55l30.812,17.79,30.812-17.789-30.813-17.79Z"/><path class="cls-3" d="M689.443,459.164l-33.161-19.146,33.16-19.145L722.6,440.019Zm-30.812-19.146,30.812,17.79,30.812-17.789-30.813-17.79Z"/><path class="cls-3" d="M721.43,477.631l-33.161-19.145,33.16-19.145,33.161,19.145Zm-30.813-19.145,30.813,17.79,30.812-17.79L721.429,440.7Z"/><path class="cls-3" d="M753.417,496.1l-33.161-19.145,33.16-19.146,33.161,19.146ZM722.6,476.954l30.813,17.789,30.812-17.789-30.813-17.79Z"/><path class="cls-3" d="M433.549,348.357l-33.161-19.146,33.16-19.144,33.161,19.145Zm-30.813-19.146L433.549,347l30.812-17.789-30.813-17.789Z"/><path class="cls-3" d="M465.536,366.825l-33.161-19.146,33.16-19.145L498.7,347.68Zm-30.813-19.146,30.813,17.79,30.812-17.789-30.813-17.79Z"/><path class="cls-3" d="M497.523,385.293l-33.161-19.146L497.522,347l33.161,19.146ZM466.71,366.147l30.813,17.79,30.812-17.789-30.813-17.79Z"/><path class="cls-3" d="M529.51,403.76l-33.161-19.145,33.16-19.145,33.161,19.145ZM498.7,384.615,529.51,402.4l30.812-17.789-30.813-17.789Z"/><path class="cls-3" d="M561.5,422.228l-33.161-19.146,33.16-19.145,33.161,19.145Zm-30.813-19.146,30.813,17.79,30.811-17.79L561.5,385.293Z"/><path class="cls-3" d="M593.484,440.7,560.323,421.55l33.16-19.146,33.161,19.146ZM562.671,421.55l30.813,17.789,30.811-17.789-30.812-17.79Z"/><path class="cls-3" d="M625.47,459.163l-33.161-19.146,33.16-19.145,33.162,19.146Zm-30.812-19.146,30.812,17.79,30.812-17.789-30.813-17.79Z"/><path class="cls-3" d="M657.457,477.63,624.3,458.485l33.16-19.145,33.161,19.146Zm-30.812-19.145,30.812,17.789,30.812-17.788L657.456,440.7Z"/><path class="cls-3" d="M689.444,496.1l-33.161-19.146,33.16-19.144L722.6,476.954Zm-30.812-19.146,30.812,17.79,30.812-17.788-30.813-17.79Z"/><path class="cls-3" d="M721.431,514.566,688.27,495.42l33.16-19.144,33.161,19.145ZM690.618,495.42l30.813,17.79,30.812-17.789-30.813-17.79Z"/><path class="cls-3" d="M753.417,533.034l-33.16-19.146,33.16-19.145,33.161,19.145Zm-30.812-19.146,30.812,17.79,30.813-17.79L753.417,496.1Z"/><path class="cls-3" d="M433.55,385.292l-33.161-19.145L433.549,347l33.161,19.146Zm-30.813-19.145,30.813,17.789,30.812-17.789-30.813-17.79Z"/><path class="cls-3" d="M465.537,403.759l-33.161-19.145,33.16-19.145L498.7,384.615Zm-30.813-19.145L465.537,402.4l30.812-17.788-30.813-17.79Z"/><path class="cls-3" d="M497.524,422.227l-33.161-19.146,33.16-19.144,33.161,19.145Zm-30.813-19.146,30.813,17.79,30.812-17.789-30.813-17.789Z"/><path class="cls-3" d="M529.511,440.7,496.35,421.549,529.51,402.4l33.161,19.146ZM498.7,421.549l30.813,17.79,30.812-17.789L529.51,403.76Z"/><path class="cls-3" d="M561.5,459.163l-33.161-19.146,33.16-19.145,33.161,19.145Zm-30.813-19.146,30.813,17.79,30.811-17.79L561.5,422.228Z"/><path class="cls-3" d="M593.485,477.63l-33.161-19.145,33.16-19.146,33.161,19.146Zm-30.813-19.145,30.813,17.789L624.3,458.485,593.484,440.7Z"/><path class="cls-3" d="M625.472,496.1,592.31,476.952l33.16-19.145,33.162,19.145Zm-30.813-19.145,30.813,17.789,30.811-17.789L625.47,459.163Z"/><path class="cls-3" d="M657.458,514.565,624.3,495.419l33.16-19.145,33.161,19.146Zm-30.812-19.146,30.812,17.79L688.27,495.42l-30.813-17.79Z"/><path class="cls-3" d="M689.445,533.033l-33.161-19.146,33.16-19.145,33.161,19.146Zm-30.812-19.146,30.812,17.79,30.812-17.789L689.444,496.1Z"/><path class="cls-3" d="M721.431,551.5l-33.16-19.146,33.16-19.145,33.16,19.146Zm-30.812-19.146,30.812,17.79,30.812-17.789-30.812-17.79Z"/><path class="cls-3" d="M753.418,569.968l-33.161-19.145,33.16-19.145,33.161,19.146Zm-30.813-19.145,30.813,17.789,30.812-17.788-30.813-17.79Z"/><path class="cls-3" d="M433.551,422.227,400.39,403.081l33.16-19.145,33.161,19.145Zm-30.813-19.146,30.813,17.79,30.812-17.79L433.55,385.292Z"/><path class="cls-3" d="M465.538,440.694l-33.161-19.145,33.16-19.146L498.7,421.549Zm-30.813-19.145,30.813,17.789,30.812-17.789-30.813-17.79Z"/><path class="cls-3" d="M497.525,459.162l-33.161-19.146,33.16-19.145,33.161,19.146Zm-30.813-19.146,30.813,17.79,30.812-17.789-30.813-17.79Z"/><path class="cls-3" d="M529.512,477.629l-33.161-19.145,33.16-19.145,33.161,19.146ZM498.7,458.484l30.813,17.79,30.812-17.789L529.511,440.7Z"/><path class="cls-3" d="M561.5,496.1l-33.161-19.146,33.16-19.144,33.161,19.145Zm-30.813-19.146,30.813,17.79,30.811-17.789L561.5,459.163Z"/><path class="cls-3" d="M593.486,514.565l-33.161-19.146,33.16-19.145,33.161,19.145Zm-30.813-19.146,30.813,17.79,30.811-17.79L593.485,477.63Z"/><path class="cls-3" d="M625.473,533.033l-33.162-19.146,33.161-19.146,33.161,19.146ZM594.66,513.887l30.813,17.79,30.811-17.79L625.472,496.1Z"/><path class="cls-3" d="M657.458,551.5,624.3,532.355l33.16-19.146,33.161,19.146Zm-30.811-19.145,30.811,17.789,30.813-17.789-30.813-17.79Z"/><path class="cls-3" d="M689.445,569.967l-33.161-19.145,33.161-19.145,33.16,19.146Zm-30.812-19.145,30.812,17.789,30.812-17.788-30.812-17.79Z"/><path class="cls-3" d="M433.552,459.162l-33.161-19.146,33.16-19.145,33.161,19.145Zm-30.813-19.146,30.813,17.79,30.812-17.79-30.813-17.789Z"/><path class="cls-3" d="M465.539,477.629l-33.161-19.145,33.16-19.146L498.7,458.484Zm-30.813-19.145,30.813,17.79,30.812-17.79-30.813-17.79Z"/><path class="cls-3" d="M497.526,496.1l-33.161-19.145,33.16-19.145,33.161,19.145Zm-30.813-19.145,30.813,17.789,30.812-17.789-30.813-17.789Z"/><path class="cls-3" d="M529.513,514.564l-33.161-19.146,33.16-19.144,33.161,19.145ZM498.7,495.418l30.813,17.79,30.812-17.789-30.813-17.79Z"/><path class="cls-3" d="M561.5,533.032l-33.161-19.146,33.16-19.145,33.161,19.146Zm-30.813-19.146,30.813,17.79,30.811-17.789L561.5,496.1Z"/><path class="cls-3" d="M593.487,551.5l-33.161-19.146,33.16-19.145,33.161,19.146Zm-30.813-19.146,30.813,17.79L624.3,532.355l-30.812-17.79Z"/><path class="cls-3" d="M625.473,569.967l-33.161-19.145,33.161-19.145,33.16,19.145Zm-30.812-19.145,30.812,17.789,30.811-17.789-30.811-17.789Z"/><path class="cls-3" d="M433.553,496.1l-33.161-19.145,33.16-19.145,33.161,19.145ZM402.74,476.951l30.813,17.789,30.812-17.789-30.813-17.789Z"/><path class="cls-3" d="M465.54,514.564l-33.161-19.146,33.16-19.144L498.7,495.418Zm-30.813-19.146,30.813,17.79,30.812-17.79-30.813-17.789Z"/><path class="cls-3" d="M497.527,533.032l-33.161-19.146,33.16-19.146,33.161,19.146Zm-30.813-19.146,30.813,17.79,30.812-17.79L497.526,496.1Z"/><path class="cls-3" d="M529.514,551.5l-33.161-19.145,33.16-19.146,33.161,19.146ZM498.7,532.354l30.813,17.789,30.812-17.789-30.813-17.79Z"/><path class="cls-3" d="M561.5,569.966l-33.16-19.145,33.16-19.145,33.161,19.146Zm-30.812-19.145L561.5,568.61l30.812-17.788L561.5,533.032Z"/><path class="cls-3" d="M433.554,533.031l-33.161-19.146,33.16-19.145,33.161,19.146Zm-30.813-19.146,30.813,17.79,30.812-17.789L433.553,496.1Z"/><path class="cls-3" d="M465.541,551.5,432.38,532.353l33.16-19.145L498.7,532.354Zm-30.813-19.146,30.813,17.79,30.812-17.789-30.813-17.79Z"/><path class="cls-3" d="M497.528,569.966l-33.161-19.145,33.16-19.145,33.161,19.145Zm-30.813-19.145,30.813,17.789,30.812-17.789-30.813-17.789Z"/><path class="cls-3" d="M433.555,569.965,400.394,550.82l33.16-19.145,33.161,19.146ZM402.742,550.82l30.813,17.789,30.812-17.788-30.813-17.79Z"/></g><path class="cls-3" d="M658.624,824.784a25.687,25.687,0,0,0-6.566,5.642c-.308-12.945-9.6-18.117-21.036-11.513a38.292,38.292,0,0,0-10.11,8.822c-5.092-8.9-15.642-10.967-27.867-3.909-17.193,9.926-31.13,34.066-31.13,53.917a37.078,37.078,0,0,0,.312,4.641c-2.452-.635-5.458-.123-8.717,1.759-8.226,4.749-14.895,16.3-14.895,25.8s6.669,13.348,14.895,8.6l105.114-60.688c7.908-4.566,14.32-15.67,14.32-24.8S666.532,820.218,658.624,824.784Z"/><path class="cls-3" d="M1512.928,495.23a41.555,41.555,0,0,0-10.251,8.667c-.091-19.43-14.2-26.924-31.966-16.668a61.821,61.821,0,0,0-15.788,13.547c-7.558-13.216-23.7-16.008-42.684-5.047-26.7,15.413-48.815,52.075-49.4,81.887a54.316,54.316,0,0,0,.342,6.959c-3.747-.881-8.378-.023-13.439,2.9-12.774,7.375-23.357,24.917-23.637,39.181s9.847,19.848,22.621,12.473l163.227-94.239c12.281-7.09,22.455-23.955,22.724-37.668S1525.209,488.14,1512.928,495.23Z"/><path class="cls-5" d="M1248.116,546.438,1030.6,420.478c-11.816-6.844-32.566-5.853-46.348,2.212l-460.4,269.444c-13.782,8.066-15.376,20.152-3.561,27L737.806,845.091c11.815,6.843,32.566,5.852,46.348-2.213l460.4-269.444C1258.338,565.368,1259.932,553.282,1248.116,546.438Z"/><path class="cls-6" d="M725.388,768.25,491.753,632.955c-7.675-4.446-11.252-10.439-11-16.673l-.052.017.094-33.9,12.994,15.22c.842-.556,1.69-1.111,2.613-1.642L974.348,320.919c18.974-10.92,47.657-12.069,64.063-2.566l230.353,133.395c4.661-5.105,14.438-15.884,14.438-15.884l-.111,33.161,0,0c.345,7.476-4.976,15.439-15.69,21.6L789.451,765.684C770.476,776.6,741.794,777.752,725.388,768.25Z"/><path class="cls-6" d="M974.348,320.919c18.974-10.92,47.657-12.069,64.063-2.566l230.353,133.394c4.661-5.1,14.438-15.883,14.438-15.883l-.111,33.161,0,0c.345,7.476-4.976,15.439-15.69,21.6L789.451,765.683c-9.9,5.7-22.434,8.707-34.5,8.961l.455-327.727Z"/><path class="cls-3" d="M1272.144,419.563l-233.635-135.3c-16.406-9.5-45.088-8.354-64.063,2.566L496.5,561.892c-18.975,10.92-21.057,27.475-4.651,36.978L725.486,734.165c16.406,9.5,45.088,8.354,64.063-2.566l477.944-275.057C1286.468,445.622,1288.55,429.066,1272.144,419.563Z"/><path class="cls-3" d="M725.308,737.784,491.673,602.489c-8.461-4.9-11.965-11.678-10.811-18.59.415,5.614,4.015,10.932,10.989,14.971L725.486,734.165c16.406,9.5,45.088,8.354,64.063-2.566l477.944-275.057c9.19-5.289,14.378-11.9,15.462-18.389.561,7.592-4.731,15.729-15.64,22.007L789.371,735.217C770.4,746.137,741.714,747.286,725.308,737.784Z"/><path class="cls-1" d="M1254.148,424.9l-224.5-130c-12.2-7.063-33.514-6.209-47.617,1.908L510.88,567.95c-14.1,8.117-15.652,20.423-3.457,27.486l224.5,130c12.2,7.063,33.514,6.209,47.617-1.907l471.156-271.15C1264.8,444.264,1266.343,431.958,1254.148,424.9Z"/><polygon class="cls-3" points="788.47 657.918 630.053 566.456 640.165 560.618 798.581 652.08 788.47 657.918"/><polygon class="cls-3" points="678.246 631.253 598.034 584.943 608.145 579.105 688.358 625.416 678.246 631.253"/><polygon class="cls-7" points="717.173 653.727 691.157 638.708 701.269 632.87 727.284 647.89 717.173 653.727"/><polygon class="cls-3" points="756.45 676.405 730.435 661.384 740.546 655.547 766.562 670.567 756.45 676.405"/><polygon class="cls-3" points="679.144 613.285 614.044 575.699 624.155 569.862 689.255 607.447 679.144 613.285"/><polygon class="cls-3" points="758.61 659.165 693.51 621.579 703.621 615.741 768.721 653.327 758.61 659.165"/><path class="cls-7" d="M710.414,578.821a13.037,13.037,0,0,1-11.8,0c-3.258-1.881-3.258-4.93,0-6.811a13.043,13.043,0,0,1,11.8,0C713.671,573.891,713.672,576.941,710.414,578.821Z"/><path class="cls-3" d="M728.041,589a13.037,13.037,0,0,1-11.8,0c-3.258-1.881-3.258-4.93,0-6.811a13.043,13.043,0,0,1,11.8,0C731.3,584.068,731.3,587.118,728.041,589Z"/><path class="cls-3" d="M745.668,599.175a13.037,13.037,0,0,1-11.8,0c-3.258-1.881-3.258-4.93,0-6.811a13.034,13.034,0,0,1,11.8,0C748.925,594.245,748.925,597.294,745.668,599.175Z"/><path class="cls-7" d="M763.294,609.352a13.034,13.034,0,0,1-11.8,0c-3.258-1.881-3.258-4.93,0-6.811a13.037,13.037,0,0,1,11.8,0C766.552,604.422,766.552,607.471,763.294,609.352Z"/><path class="cls-3" d="M780.921,619.529a13.037,13.037,0,0,1-11.8,0c-3.257-1.881-3.257-4.931,0-6.811a13.037,13.037,0,0,1,11.8,0C784.179,614.6,784.179,617.648,780.921,619.529Z"/><polygon class="cls-7" points="1135.225 425.897 1108.552 410.497 1118.919 404.512 1145.592 419.912 1135.225 425.897"/><polygon class="cls-3" points="1172.366 447.34 1145.693 431.941 1156.06 425.955 1182.733 441.355 1172.366 447.34"/><polygon class="cls-3" points="1129.279 441.418 1092.138 419.974 1102.505 413.989 1139.646 435.432 1129.279 441.418"/><polygon class="cls-8" points="1155.952 456.817 1139.654 447.408 1150.021 441.422 1166.319 450.832 1155.952 456.817"/><polygon class="cls-6" points="923.713 421.981 904.044 410.625 910.096 407.131 929.765 418.487 923.713 421.981"/><polygon class="cls-6" points="987.259 446.44 914.635 404.51 920.686 401.016 993.311 442.946 987.259 446.44"/><polygon class="cls-6" points="1023.571 467.405 996.337 451.682 1002.389 448.187 1029.623 463.911 1023.571 467.405"/><polygon class="cls-6" points="970.616 449.061 931.278 426.349 937.33 422.855 976.668 445.567 970.616 449.061"/><path class="cls-3" d="M1052.319,500.794,1026.26,485.75l26.059-15.044,26.059,15.044Zm-16.305-15.044,16.305,9.414,16.305-9.414-16.305-9.414Z"/><polygon class="cls-6" points="888.915 442.072 869.246 430.716 875.298 427.222 894.967 438.578 888.915 442.072"/><polygon class="cls-6" points="911.61 441.198 881.35 423.728 887.401 420.234 917.661 437.704 911.61 441.198"/><polygon class="cls-6" points="961.539 470.025 920.688 446.44 926.74 442.946 967.591 466.531 961.539 470.025"/><polygon class="cls-6" points="963.052 484.875 896.48 446.44 902.532 442.945 969.104 481.381 963.052 484.875"/><path class="cls-3" d="M1017.521,520.883l-26.059-15.044,26.059-15.044,26.058,15.044Zm-16.306-15.044,16.306,9.414,16.305-9.414-16.305-9.414Z"/><polygon class="cls-6" points="882.864 477.012 835.96 449.933 842.012 446.439 888.916 473.519 882.864 477.012"/><polygon class="cls-6" points="869.246 456.921 846.551 443.819 852.603 440.324 875.298 453.427 869.246 456.921"/><polygon class="cls-6" points="914.637 483.128 878.324 462.163 884.376 458.669 920.688 479.633 914.637 483.128"/><polygon class="cls-6" points="946.41 501.472 922.202 487.495 928.254 484.001 952.462 497.978 946.41 501.472"/><polygon class="cls-6" points="929.767 504.092 890.429 481.38 896.481 477.886 935.819 500.598 929.767 504.092"/><path class="cls-3" d="M982.722,540.975l-26.059-15.044,26.059-15.044,26.059,15.044Zm-16.3-15.044,16.3,9.414,16.306-9.414-16.306-9.414Z"/><polygon class="cls-6" points="820.831 481.38 801.162 470.024 807.214 466.53 826.883 477.886 820.831 481.38"/><polygon class="cls-6" points="864.708 494.483 811.753 463.909 817.805 460.415 870.76 490.989 864.708 494.483"/><polygon class="cls-6" points="905.56 518.068 872.273 498.851 878.325 495.356 911.611 514.574 905.56 518.068"/><path class="cls-3" d="M947.924,561.067,921.865,546.02l26.059-15.044,26.059,15.047ZM931.618,546.02l16.306,9.417,16.305-9.414-16.305-9.417Z"/><polygon class="cls-6" points="786.033 501.47 766.364 490.114 772.416 486.62 792.085 497.976 786.033 501.47"/><polygon class="cls-6" points="820.832 509.332 776.955 484 783.007 480.506 826.884 505.838 820.832 509.332"/><polygon class="cls-6" points="866.222 535.538 831.423 515.447 837.475 511.953 872.274 532.044 866.222 535.538"/><polygon class="cls-6" points="810.241 515.447 792.085 504.964 798.137 501.47 816.293 511.953 810.241 515.447"/><path class="cls-3" d="M913.125,581.156l-26.059-15.044,26.059-15.044,26.059,15.044Zm-16.3-15.044,16.3,9.414,16.306-9.414L913.125,556.7Z"/><polygon class="cls-6" points="751.235 521.561 731.566 510.205 737.618 506.711 757.287 518.067 751.235 521.561"/><polygon class="cls-6" points="789.06 531.17 742.157 504.09 748.209 500.596 795.112 527.676 789.06 531.17"/><polygon class="cls-6" points="811.755 544.273 798.138 536.411 804.19 532.917 817.807 540.779 811.755 544.273"/><polygon class="cls-6" points="832.937 556.503 819.32 548.641 825.372 545.147 838.989 553.009 832.937 556.503"/><polygon class="cls-6" points="775.443 535.538 758.8 525.929 764.852 522.435 781.495 532.044 775.443 535.538"/><path class="cls-3" d="M879.84,600.373l-26.059-15.044,26.059-15.044L905.9,585.329Zm-16.305-15.044,16.305,9.414,16.306-9.414-16.306-9.414Z"/><path class="cls-7" d="M885.2,588.117h18.439c2.667,0,4.829-1.248,4.829-2.787s-2.162-2.788-4.829-2.788H885.2V571.9c0-1.539-2.162-2.788-4.829-2.788s-4.829,1.249-4.828,2.788v10.646H857.1c-2.667,0-4.828,1.248-4.828,2.787s2.162,2.788,4.828,2.788h18.439v10.646c0,1.539,2.162,2.788,4.829,2.788s4.829-1.248,4.829-2.788Z"/><path class="cls-7" d="M955.126,547.935h18.439c2.666,0,4.828-1.248,4.829-2.788s-2.162-2.787-4.83-2.787H955.126V531.714c0-1.54-2.161-2.788-4.828-2.788s-4.829,1.248-4.829,2.788V542.36H927.03c-2.667,0-4.829,1.248-4.828,2.788s2.161,2.788,4.828,2.788h18.438v10.646c0,1.539,2.162,2.787,4.829,2.787s4.828-1.248,4.829-2.787Z"/><path class="cls-7" d="M990.284,527.468h18.438c2.667,0,4.829-1.248,4.829-2.788s-2.162-2.787-4.829-2.787H990.284V511.247c0-1.54-2.162-2.788-4.828-2.788s-4.829,1.248-4.829,2.788v10.646H962.188c-2.667,0-4.829,1.248-4.829,2.788s2.162,2.788,4.829,2.788h18.438v10.646c0,1.539,2.162,2.787,4.829,2.787s4.828-1.248,4.828-2.787Z"/><path class="cls-5" d="M1089.992,265.732l-35.932.56a38.214,38.214,0,0,0-11.349-9.542c-19.76-11.409-50.832-12.29-72.359-2.661L944.72,238.067l-28.6-3.547c1.625-1.063,3.293-2.111,5.053-3.128,45.691-26.379,119.769-26.38,165.459,0a86.9,86.9,0,0,1,20.559,16.016Z"/><polygon class="cls-5" points="916.122 182.339 916.122 234.52 949 234.007 949 181.826 916.122 182.339"/><polygon class="cls-5" points="970.352 201.908 970.352 254.089 949 234.007 949 181.826 970.352 201.908"/><path class="cls-5" d="M1054.06,214.111v52.181l-47.27-38.52-36.438,26.317V201.908l33.552-16.277s46.189,14.139,48.59,14.739S1054.06,214.111,1054.06,214.111Z"/><polygon class="cls-5" points="1089.992 213.551 1089.992 265.732 1054.06 266.292 1054.06 214.111 1089.992 213.551"/><polygon class="cls-5" points="1107.193 195.226 1107.193 247.407 1089.992 265.732 1089.992 213.551 1107.193 195.226"/><path class="cls-6" d="M1089.992,213.551l-35.932.56a38.231,38.231,0,0,0-11.349-9.543c-19.76-11.408-50.832-12.289-72.359-2.66L949,181.826l-32.878.513c1.625-1.063,3.293-2.112,5.053-3.128,45.691-26.379,119.769-26.38,165.459,0a86.9,86.9,0,0,1,20.559,16.016Z"/><path class="cls-9" d="M959.529,208.326v47.968l-31.1-7.451s1.825-28.069,2.488-28.819S959.529,208.326,959.529,208.326Z"/><path class="cls-9" d="M983.068,256.294v52.181l-3.361,3.58-21.928-12.642s3.4-39.833,3.8-40.634S983.068,256.294,983.068,256.294Z"/><path class="cls-9" d="M940.725,242.823l18.8,17.684c-15.665,12.393-13.812,29.866,5.566,41.054a66.84,66.84,0,0,0,17.973,6.914l-19.436,20.707,17.221,16.2c-21.867-2.524-42.729-8.672-59.68-18.458-39.278-22.677-44.756-57.458-16.5-83.535Z"/><polygon class="cls-9" points="980.853 293.197 980.853 345.378 938.212 328.912 886.927 279.983 887.118 224.574 941.376 267.581 980.853 293.197"/><path class="cls-7" d="M940.725,190.642l18.8,17.684c-15.665,12.393-13.812,29.866,5.566,41.054a66.84,66.84,0,0,0,17.973,6.914L963.632,277l17.221,16.2c-21.867-2.524-42.729-8.672-59.68-18.458-39.278-22.677-44.756-57.458-16.5-83.535Z"/><path class="cls-10" d="M980.992,328.911l17.131-18.251c15.9.967,32.4-2.063,44.587-9.1,12.59-7.268,17.774-17.19,15.573-26.648l40.8-.635,15.686-16.712c13.722,23.548,4.36,50.593-28.133,69.353-23.876,13.785-55.5,20.351-86.78,19.73Z"/><polygon class="cls-10" points="999.851 294.467 999.851 346.648 1120.871 279.583 1120.871 227.376 1103.201 234.52 999.851 294.467"/><polygon class="cls-10" points="980.992 276.73 980.992 328.911 999.851 346.648 999.851 294.467 980.992 276.73"/><path class="cls-11" d="M980.992,276.73l17.131-18.251c15.9.967,32.4-2.063,44.587-9.1,12.59-7.268,17.774-17.19,15.573-26.648l40.8-.636,15.686-16.711c13.722,23.548,4.36,50.593-28.133,69.353-23.876,13.785-55.5,20.351-86.78,19.73Z"/><polygon class="cls-5" points="1233.913 366.808 1196.803 345.382 1233.912 323.957 1271.023 345.383 1233.913 366.808"/><polygon class="cls-9" points="1271.023 294.405 1233.913 315.83 1233.913 272.981 1271.023 251.556 1271.023 294.405"/><polygon class="cls-7" points="1233.913 272.981 1196.804 251.556 1233.912 230.131 1271.022 251.557 1233.913 272.981"/><polygon class="cls-7" points="1233.913 315.83 1196.804 294.405 1196.804 251.556 1233.913 272.981 1233.913 315.83"/><polygon class="cls-5" points="1178.733 908.612 1140.098 886.307 1178.732 864.002 1217.367 886.307 1178.733 908.612"/><polygon class="cls-9" points="1217.367 834.212 1178.733 856.518 1178.733 811.908 1217.367 789.603 1217.367 834.212"/><polygon class="cls-7" points="1178.733 811.908 1140.099 789.603 1178.732 767.298 1217.366 789.604 1178.733 811.908"/><polygon class="cls-7" points="1178.733 856.518 1140.099 834.212 1140.099 789.603 1178.733 811.908 1178.733 856.518"/><ellipse class="cls-5" cx="463.611" cy="821.857" rx="62.983" ry="36.363"/><path class="cls-9" d="M541.9,748.753V726.772h-4.15c-3.728-6.417-9.933-12.459-18.783-17.568-30.575-17.653-80.147-17.653-110.722,0-8.85,5.109-15.056,11.151-18.782,17.568h-4.144v21.863h0c-.052,11.608,7.583,23.225,22.923,32.082,30.575,17.654,80.147,17.654,110.722,0C534.262,771.892,541.905,760.322,541.9,748.753Z"/><ellipse class="cls-7" cx="463.611" cy="726.771" rx="78.293" ry="45.202"/><path class="cls-3" d="M518.973,758.734c-30.575,17.653-80.147,17.653-110.722,0-14.654-8.46-22.2-19.441-22.813-30.526-.661,12.044,6.89,24.211,22.813,33.4,30.575,17.654,80.147,17.654,110.722,0,15.922-9.191,23.473-21.356,22.812-33.4C541.177,739.293,533.626,750.274,518.973,758.734Z"/><path class="cls-3" d="M425.875,741.737a3.521,3.521,0,0,1-2.063-2.884l.079-29.451c0-2.245,3.165-4.065,7.056-4.062s7.036,1.826,7.035,4.076l-.066,24.421,70.875-8.679c3.81-.467,7.549.939,8.356,3.136s-1.625,4.357-5.43,4.824l-79.4,9.722a11.173,11.173,0,0,1-5.9-.821C426.228,741.93,426.047,741.836,425.875,741.737Z"/><path class="cls-5" d="M1277.023,661.38c-7.359-4.249-19.289-4.249-26.648,0L906.664,859.9c-7.359,4.249-7.358,11.137,0,15.386s19.29,4.248,26.648,0l343.711-198.518C1284.382,672.516,1284.381,665.628,1277.023,661.38Z"/><path class="cls-3" d="M785.918,308.748a24.5,24.5,0,0,0-3.926,2.875c-.543-17.663-13.3-24.688-29-15.623-12.788,7.383-23.621,23.189-27.5,38.682-3.159-.425-6.866.395-10.848,2.695-11.447,6.608-20.726,22.68-20.726,35.9s9.279,18.573,20.726,11.965l71.28-41.154c8.451-4.879,15.3-16.745,15.3-26.5S794.369,303.868,785.918,308.748Z"/></g><g id="logo_left" data-name="logo left"><polygon class="cls-3" points="310.992 96.015 310.992 119.259 307.674 119.259 307.674 108.895 294.331 108.895 294.331 119.259 291.012 119.259 291.012 96.015 294.331 96.015 294.331 106.012 307.674 106.012 307.674 96.015 310.992 96.015"/><path class="cls-3" d="M331.6,110.792l-5.013-11.387-5.012,11.387Zm1.161,2.656H320.414l-2.558,5.811h-3.414l10.522-23.244h3.283L338.8,119.259h-3.484l-2.559-5.811Z"/><path class="cls-3" d="M357.693,104.115c0-3.32-2.227-5.216-6.471-5.216h-5.641v10.459h5.641C355.466,109.358,357.693,107.436,357.693,104.115Zm.1,15.144-5.012-7.139c-.463.035-.961.07-1.459.07h-5.737v7.069h-3.318V96.015h9.055c6.043,0,9.693,3.058,9.693,8.1a7.344,7.344,0,0,1-5.108,7.341l5.51,7.8h-3.624Z"/><polygon class="cls-3" points="387.925 119.259 387.89 102.324 379.498 116.437 377.97 116.437 369.578 102.42 369.578 119.259 366.39 119.259 366.39 96.015 369.115 96.015 378.808 112.356 388.361 96.015 391.086 96.015 391.121 119.259 387.933 119.259 387.925 119.259"/><path class="cls-3" d="M417.562,107.637a9.025,9.025,0,1,0-8.994,8.931A8.724,8.724,0,0,0,417.562,107.637Zm-21.368,0c0-6.807,5.24-11.884,12.374-11.884s12.313,5.051,12.313,11.884-5.24,11.884-12.313,11.884S396.194,114.444,396.194,107.637Z"/><polygon class="cls-3" points="445.943 96.015 445.943 119.259 443.218 119.259 429.281 101.922 429.281 119.259 425.963 119.259 425.963 96.015 428.688 96.015 442.625 113.352 442.625 96.015 445.943 96.015"/><polygon class="cls-3" points="461.809 111.22 461.809 119.259 458.526 119.259 458.526 111.159 449.305 96.015 452.859 96.015 460.29 108.266 467.756 96.015 471.04 96.015 461.809 111.22"/><path class="cls-3" d="M248.259,104.787a11.135,11.135,0,0,1,9.308,5.532,15.647,15.647,0,0,1,1.939,4.631c.437,1.853.244,3.793.672,5.645a7.72,7.72,0,0,0,15.3-1.494c0-4.282-3.371-7.279-7.423-7.742a12.8,12.8,0,0,1-7.309-2.788c-3.537-2.849-4.759-6.615-4.759-11.692,0-4.334-3.3-8.4-7.816-8.345s-7.641,4.011-7.641,8.336c0,5.077-1.222,8.844-4.759,11.692a12.739,12.739,0,0,1-7.309,2.788c-4.052.463-7.422,3.521-7.422,7.742a7.719,7.719,0,0,0,15.3,1.494c.428-1.852.236-3.792.672-5.645,1.24-5.243,5.545-10.145,11.248-10.171Z"/></g></svg>