<svg xmlns="http://www.w3.org/2000/svg" xmlns:xlink="http://www.w3.org/1999/xlink" viewBox="0 0 1920 1080"><defs><style>.cls-1{fill:#0f1854;}.cls-2{fill:#424277;}.cls-3{fill:#cbc7bc;}.cls-4{fill:#d2daff;}.cls-5{fill:#aeb8fe;}.cls-6{fill:#118241;}.cls-7{fill:#29ce74;}.cls-8{fill:#00af54;}.cls-9{fill:#e53d35;}.cls-10{fill:#ff8680;}.cls-11{fill:#fb4d3d;}.cls-12{fill:#fff;}.cls-13{fill:#2b45ed;}.cls-14{fill:url(#_ÂÁ_Ï_ÌÌ_È_ËÂÌÚ_70);}.cls-15{fill:#f8f6ee;}.cls-16,.cls-19{fill:#f0ebe1;}.cls-17{fill:#e6e1d7;}.cls-18{fill:#dfdad0;}.cls-19{opacity:0.5;}.cls-20{fill:#0de5b2;}.cls-21{fill:#9b6396;}.cls-22{fill:#b271af;}.cls-23{fill:#c17cb9;}.cls-24{fill:#e8a3d7;}.cls-25{fill:url(#_ÂÁ_Ï_ÌÌ_È_ËÂÌÚ_7);}.cls-26{fill:#5d5dbf;}.cls-27{fill:#d9d4c9;}.cls-28{fill:url(#_ÂÁ_Ï_ÌÌ_È_ËÂÌÚ_118);}.cls-29{fill:#181019;}.cls-30{fill:#b2aca5;}.cls-31{fill:url(#_ÂÁ_Ï_ÌÌ_È_ËÂÌÚ_77);}.cls-32{fill:url(#_ÂÁ_Ï_ÌÌ_È_ËÂÌÚ_77-2);}.cls-33{fill:url(#_ÂÁ_Ï_ÌÌ_È_ËÂÌÚ_77-3);}.cls-34{fill:url(#_ÂÁ_Ï_ÌÌ_È_ËÂÌÚ_77-4);}.cls-35{fill:url(#_ÂÁ_Ï_ÌÌ_È_ËÂÌÚ_77-5);}.cls-36{fill:#363672;}.cls-37{fill:#292960;}.cls-38{fill:#fff2e3;}.cls-39{fill:#ffc6a2;}.cls-40{fill:#fff8ef;}.cls-41{isolation:isolate;}.cls-42{fill:#eee8de;}.cls-43{fill:#5454ac;}.cls-44{fill:#ffad82;}.cls-45{fill:#d5cbbd;}.cls-46{fill:#fcbe9f;}.cls-47{fill:#44448b;}.cls-48{fill:#fabc9d;}.cls-49{fill:#fbbd9e;}.cls-50{fill:#f1a782;}.cls-51{fill:#e3ddda;}</style><linearGradient id="_ÂÁ_Ï_ÌÌ_È_ËÂÌÚ_70" x1="978.684" y1="828.657" x2="953.887" y2="828.657" gradientUnits="userSpaceOnUse"><stop offset="0" stop-color="#e6e1d7"/><stop offset="1" stop-color="#bfbab1"/></linearGradient><linearGradient id="_ÂÁ_Ï_ÌÌ_È_ËÂÌÚ_7" x1="1098.498" y1="282.046" x2="1085.825" y2="303.995" gradientTransform="matrix(0.45, -0.779, -0.779, -0.45, 876.159, 1408.285)" gradientUnits="userSpaceOnUse"><stop offset="0" stop-color="#e6e1d7"/><stop offset="1" stop-color="#d6d1c6"/></linearGradient><radialGradient id="_ÂÁ_Ï_ÌÌ_È_ËÂÌÚ_118" cx="1146.28" cy="232.92" r="256.787" gradientUnits="userSpaceOnUse"><stop offset="0" stop-color="#f8f6ee"/><stop offset="1" stop-color="#d6d1c6"/></radialGradient><linearGradient id="_ÂÁ_Ï_ÌÌ_È_ËÂÌÚ_77" x1="614.711" y1="845.881" x2="673.674" y2="845.881" gradientUnits="userSpaceOnUse"><stop offset="0" stop-color="#bfbab1"/><stop offset="1" stop-color="#e6e1d7"/></linearGradient><linearGradient id="_ÂÁ_Ï_ÌÌ_È_ËÂÌÚ_77-2" x1="614.69" y1="838.612" x2="673.653" y2="838.612" xlink:href="#_ÂÁ_Ï_ÌÌ_È_ËÂÌÚ_77"/><linearGradient id="_ÂÁ_Ï_ÌÌ_È_ËÂÌÚ_77-3" x1="614.67" y1="831.335" x2="673.632" y2="831.335" xlink:href="#_ÂÁ_Ï_ÌÌ_È_ËÂÌÚ_77"/><linearGradient id="_ÂÁ_Ï_ÌÌ_È_ËÂÌÚ_77-4" x1="614.649" y1="824.059" x2="673.612" y2="824.059" xlink:href="#_ÂÁ_Ï_ÌÌ_È_ËÂÌÚ_77"/><linearGradient id="_ÂÁ_Ï_ÌÌ_È_ËÂÌÚ_77-5" x1="606.305" y1="806.685" x2="681.835" y2="806.685" xlink:href="#_ÂÁ_Ï_ÌÌ_È_ËÂÌÚ_77"/></defs><title>08- Questionnaire data analysis the smart way</title><g id="_08:_Questionnaire_data_analysis_the_smart_way" data-name="08: Questionnaire data analysis the smart way"><rect class="cls-1" width="1920" height="1080"/><path class="cls-2" d="M1249.64,764.932c-29.377,0-75.634-.162-88.634-15.827-22.713-27.37,82.371-35.607,104.47-23.4,4.569,2.524,4.986,12.382,3.026,13.366a34.915,34.915,0,0,1-4.887.356C1257.4,739.665,1249.64,764.932,1249.64,764.932Z"/><polygon id="Cube_face_-_left" data-name="Cube face - left" class="cls-3" points="1302.165 457.8 1272.476 440.659 1272.476 579.713 1302.165 596.854 1302.165 457.8"/><polygon id="Cube_face_-_right" data-name="Cube face - right" class="cls-4" points="1336.524 577.017 1302.165 596.854 1302.165 457.8 1336.524 437.963 1336.524 577.017"/><polygon id="Cube_face_-_right-2" data-name="Cube face - right" class="cls-4" points="1306.835 420.822 1272.476 440.659 1272.476 403.716 1306.835 383.879 1306.835 420.822"/><polygon id="Cube_face_-_top" data-name="Cube face - top" class="cls-5" points="1302.165 457.8 1272.476 440.659 1306.835 420.822 1336.524 437.963 1302.165 457.8"/><g id="Axonometric_Cube" data-name="Axonometric Cube"><polygon id="Cube_face_-_left-2" data-name="Cube face - left" class="cls-6" points="1266.025 447.831 1236.336 430.691 1236.336 600.579 1266.025 617.72 1266.025 447.831"/><polygon id="Cube_face_-_right-3" data-name="Cube face - right" class="cls-7" points="1300.383 597.883 1266.025 617.72 1266.025 447.831 1300.383 427.994 1300.383 597.883"/><polygon id="Cube_face_-_right-4" data-name="Cube face - right" class="cls-7" points="1270.695 410.854 1236.336 430.691 1236.336 393.748 1270.695 373.911 1270.695 410.854"/><polygon id="Cube_face_-_top-2" data-name="Cube face - top" class="cls-8" points="1266.025 447.831 1236.336 430.691 1270.695 410.854 1300.383 427.994 1266.025 447.831"/></g><polygon id="Cube_face_-_left-3" data-name="Cube face - left" class="cls-9" points="1229.884 557.277 1200.195 540.136 1200.195 621.445 1229.884 638.585 1229.884 557.277"/><polygon id="Cube_face_-_right-5" data-name="Cube face - right" class="cls-10" points="1264.243 618.748 1229.884 638.585 1229.884 557.277 1264.243 537.44 1264.243 618.748"/><polygon id="Cube_face_-_right-6" data-name="Cube face - right" class="cls-10" points="1234.554 520.299 1200.195 540.136 1200.195 503.193 1234.554 483.356 1234.554 520.299"/><polygon id="Cube_face_-_top-3" data-name="Cube face - top" class="cls-11" points="1229.884 557.277 1200.195 540.136 1234.554 520.299 1264.243 537.44 1229.884 557.277"/><polygon id="Cube_face_-_right-7" data-name="Cube face - right" class="cls-5" points="1336.524 577.017 1302.165 596.854 1394.626 650.236 1428.984 630.399 1336.524 577.017"/><polygon id="Cube_face_-_right-8" data-name="Cube face - right" class="cls-8" points="1300.383 597.883 1266.025 617.72 1383.163 685.35 1417.522 665.513 1300.383 597.883"/><polygon id="Cube_face_-_right-9" data-name="Cube face - right" class="cls-11" points="1264.243 618.748 1229.884 638.585 1294.659 675.984 1329.018 656.146 1264.243 618.748"/><path class="cls-12" d="M989.03,259.35a9.594,9.594,0,0,0-6.05,1.313L624.485,468.848c-6.045,3.491-9.093,12.5-6.8,20.173l87.235,291.746c1.528,5.112,5.058,8.3,9.039,8.807l3.494.485L992.524,259.835Z"/><path class="cls-13" d="M1088.826,560.413l-87.235-291.746c-2.295-7.674-9.072-11.009-15.118-7.519L627.98,469.334c-6.046,3.49-9.094,12.5-6.8,20.172l87.235,291.746c2.282,7.633,9.026,10.987,15.072,7.5l358.494-208.186C1088.028,577.073,1091.108,568.046,1088.826,560.413Z"/><path class="cls-14" d="M722.757,790.609l-.024,8.291c-.006,2.272,1.487,4.546,4.485,6.276L955.582,937.023c5.974,3.449,15.65,3.43,21.585-.019l352.416-204.8c2.948-1.714,4.424-3.955,4.43-6.2l.024-8.291Z"/><path class="cls-15" d="M1329.536,711.428,1101.172,579.581c-5.974-3.448-15.618-3.448-21.553,0L727.2,784.384c-5.934,3.449-5.935,9.053.039,12.5L955.606,928.732c5.974,3.449,15.649,3.431,21.584-.018l352.416-204.8C1335.541,720.463,1335.51,714.877,1329.536,711.428Z"/><polygon class="cls-16" points="1199.757 795.259 1108.489 847.953 1105.905 853.877 1112.327 854.248 1203.303 801.723 1207.772 794.725 1199.757 795.259"/><path class="cls-17" d="M1072.215,603.988l-4.148-2.4a6.746,6.746,0,0,0-3.333-.831,6.048,6.048,0,0,0-2.975.717L763.9,774.314a2.758,2.758,0,0,0-1.518,2.336,3.036,3.036,0,0,0,1.725,2.537l4.148,2.395a6.81,6.81,0,0,0,3.341.824,6.026,6.026,0,0,0,2.967-.711l297.855-172.838a2.715,2.715,0,0,0,1.5-2.329A3.024,3.024,0,0,0,1072.215,603.988Zm-.322,3.953L774.035,780.776a5.812,5.812,0,0,1-5.243-.112l-4.146-2.394c-1.526-.881-1.6-2.231-.212-3.037L1062.292,602.4a5.761,5.761,0,0,1,5.243.112l4.146,2.394C1073.174,605.767,1073.279,607.135,1071.893,607.941Z"/><path class="cls-18" d="M1067.477,623.868l12.954,7.479a5.812,5.812,0,0,0,5.243.113l14.289-8.3a1.682,1.682,0,0,0,.977-1.4l.009-2.86a1.684,1.684,0,0,1-.978,1.4l-14.289,8.3a5.815,5.815,0,0,1-5.243-.112l-12.954-7.479a2.015,2.015,0,0,1-1.2-1.63l-.008,2.861A2.013,2.013,0,0,0,1067.477,623.868Z"/><path class="cls-18" d="M1044.383,637.289l12.953,7.479a5.812,5.812,0,0,0,5.243.113l14.289-8.3a1.694,1.694,0,0,0,.991-1.4l.008-2.86a1.692,1.692,0,0,1-.991,1.4l-14.288,8.3a5.817,5.817,0,0,1-5.244-.112l-12.953-7.479a2.014,2.014,0,0,1-1.2-1.63l-.008,2.86A2.014,2.014,0,0,0,1044.383,637.289Z"/><path class="cls-18" d="M1089.007,632.505l-.008,2.861a1.974,1.974,0,0,0,1.172,1.6l12.986,7.5a5.746,5.746,0,0,0,5.211.094l14.288-8.3a1.7,1.7,0,0,0,.993-1.413l.008-2.86a1.7,1.7,0,0,1-.993,1.413l-14.288,8.3a5.746,5.746,0,0,1-5.211-.093l-12.986-7.5A1.975,1.975,0,0,1,1089.007,632.505Z"/><path class="cls-18" d="M1100.567,648.267l.008-2.861a1.71,1.71,0,0,1-1.005,1.413l-14.289,8.3a5.741,5.741,0,0,1-5.21-.093l-12.987-7.5a1.973,1.973,0,0,1-1.171-1.6l-.009,2.861a1.976,1.976,0,0,0,1.172,1.6l12.987,7.5a5.744,5.744,0,0,0,5.21.094l14.289-8.3A1.711,1.711,0,0,0,1100.567,648.267Z"/><path class="cls-18" d="M1107.665,664.944l-12.986-7.5a1.977,1.977,0,0,1-1.172-1.605l-.008,2.86a1.975,1.975,0,0,0,1.172,1.605l12.986,7.5a5.815,5.815,0,0,0,5.243.112l32.19-18.707a1.686,1.686,0,0,0,.978-1.4l.008-2.86a1.684,1.684,0,0,1-.978,1.4l-32.19,18.707A5.812,5.812,0,0,1,1107.665,664.944Z"/><path class="cls-18" d="M1021.32,650.691l12.954,7.479a5.812,5.812,0,0,0,5.243.113l14.289-8.3a1.686,1.686,0,0,0,.978-1.4l.008-2.86a1.686,1.686,0,0,1-.978,1.4l-14.289,8.3a5.812,5.812,0,0,1-5.243-.112l-12.954-7.479a2.015,2.015,0,0,1-1.2-1.63l-.008,2.861A2.014,2.014,0,0,0,1021.32,650.691Z"/><path class="cls-18" d="M1057.008,668.431l-12.986-7.5a1.974,1.974,0,0,1-1.172-1.605l-.008,2.861a1.977,1.977,0,0,0,1.172,1.605l12.986,7.5a5.743,5.743,0,0,0,5.211.094l14.289-8.3a1.705,1.705,0,0,0,.993-1.413l.008-2.86a1.707,1.707,0,0,1-.993,1.413l-14.289,8.3A5.746,5.746,0,0,1,1057.008,668.431Z"/><path class="cls-18" d="M1084.645,684.337l19.449-11.3a1.682,1.682,0,0,0,.978-1.4l.008-2.86a1.682,1.682,0,0,1-.977,1.4l-19.45,11.3a5.815,5.815,0,0,1-5.243-.112l-12.987-7.5a1.975,1.975,0,0,1-1.171-1.605l-.008,2.86a1.975,1.975,0,0,0,1.171,1.605l12.987,7.5A5.815,5.815,0,0,0,1084.645,684.337Z"/><path class="cls-18" d="M1108.132,690.362l-11.59-6.692a2.5,2.5,0,0,1-1.492-2.023l-.008,2.86a2.5,2.5,0,0,0,1.491,2.023l11.591,6.692a7.115,7.115,0,0,0,6.473.15l53.22-30.929a2.11,2.11,0,0,0,1.226-1.752l.008-2.861a2.11,2.11,0,0,1-1.226,1.753l-53.22,30.929A7.118,7.118,0,0,1,1108.132,690.362Z"/><path class="cls-18" d="M1190.908,672.8l-14.289,8.3a5.815,5.815,0,0,1-5.243-.112l-12.987-7.5a1.975,1.975,0,0,1-1.171-1.605l-.008,2.86a1.973,1.973,0,0,0,1.171,1.605l12.987,7.5a5.812,5.812,0,0,0,5.243.113l14.288-8.3a1.684,1.684,0,0,0,.978-1.4l.008-2.86A1.682,1.682,0,0,1,1190.908,672.8Z"/><path class="cls-18" d="M1137.5,688.187l-2.176-1.256a2.012,2.012,0,0,1-1.2-1.629l-.008,2.86a2.015,2.015,0,0,0,1.2,1.63l2.175,1.255a5.814,5.814,0,0,0,5.244.113l14.289-8.3a1.693,1.693,0,0,0,.99-1.4l.008-2.86a1.692,1.692,0,0,1-.99,1.4l-14.289,8.3A5.815,5.815,0,0,1,1137.5,688.187Z"/><path class="cls-18" d="M1167.813,686.219l-14.289,8.3a5.815,5.815,0,0,1-5.243-.113l-2.207-1.274a1.975,1.975,0,0,1-1.172-1.605l-.008,2.86a1.975,1.975,0,0,0,1.172,1.605l2.207,1.274a5.812,5.812,0,0,0,5.243.113l14.289-8.3a1.689,1.689,0,0,0,.99-1.4l.009-2.86A1.692,1.692,0,0,1,1167.813,686.219Z"/><path class="cls-18" d="M1144.751,699.621l-14.289,8.3a5.815,5.815,0,0,1-5.243-.112l-12.954-7.479a2.016,2.016,0,0,1-1.2-1.63l-.008,2.86a2.013,2.013,0,0,0,1.2,1.63l12.954,7.479a5.815,5.815,0,0,0,5.243.112l14.289-8.3a1.685,1.685,0,0,0,.978-1.4l.008-2.86A1.686,1.686,0,0,1,1144.751,699.621Z"/><path class="cls-18" d="M990.839,668.255l12.954,7.479a5.815,5.815,0,0,0,5.243.112l21.739-12.634a1.682,1.682,0,0,0,.978-1.4l.008-2.86a1.684,1.684,0,0,1-.978,1.4l-21.739,12.634a5.815,5.815,0,0,1-5.243-.112L990.847,665.4a2.016,2.016,0,0,1-1.2-1.63l-.008,2.86A2.014,2.014,0,0,0,990.839,668.255Z"/><path class="cls-18" d="M1034.43,681.552l-12.954-7.479a2.013,2.013,0,0,1-1.189-1.633l-.008,2.86a2.012,2.012,0,0,0,1.189,1.634l12.954,7.478a5.812,5.812,0,0,0,5.243.113l14.289-8.3a1.686,1.686,0,0,0,.978-1.4l.008-2.86a1.686,1.686,0,0,1-.978,1.4l-14.289,8.3A5.815,5.815,0,0,1,1034.43,681.552Z"/><path class="cls-18" d="M967.777,681.657l12.953,7.479a5.812,5.812,0,0,0,5.243.113l14.289-8.3a1.684,1.684,0,0,0,.978-1.4l.008-2.861a1.684,1.684,0,0,1-.978,1.4l-14.288,8.3a5.815,5.815,0,0,1-5.243-.112L967.785,678.8a2.014,2.014,0,0,1-1.2-1.63l-.008,2.86A2.013,2.013,0,0,0,967.777,681.657Z"/><path class="cls-18" d="M1011.336,694.973l-12.954-7.479a2.01,2.01,0,0,1-1.189-1.633l-.008,2.86a2.01,2.01,0,0,0,1.189,1.634l12.954,7.478a5.812,5.812,0,0,0,5.243.113l14.288-8.3a1.684,1.684,0,0,0,.978-1.4l.008-2.86a1.682,1.682,0,0,1-.977,1.4l-14.289,8.3A5.815,5.815,0,0,1,1011.336,694.973Z"/><path class="cls-18" d="M1054.293,701.976l21.74-12.634a1.686,1.686,0,0,0,.978-1.4l.008-2.861a1.686,1.686,0,0,1-.978,1.4l-21.74,12.634a5.815,5.815,0,0,1-5.243-.113l-12.986-7.5a1.974,1.974,0,0,1-1.172-1.605l-.008,2.861a1.975,1.975,0,0,0,1.172,1.605l12.986,7.5A5.815,5.815,0,0,0,1054.293,701.976Z"/><path class="cls-18" d="M1084.922,710.654l21.16-12.3a1.682,1.682,0,0,0,.977-1.4l.008-2.86a1.684,1.684,0,0,1-.977,1.4l-21.16,12.3a5.812,5.812,0,0,1-5.243-.113l-12.954-7.478a2.016,2.016,0,0,1-1.2-1.63l-.008,2.86a2.015,2.015,0,0,0,1.2,1.63l12.954,7.479A5.815,5.815,0,0,0,1084.922,710.654Z"/><path class="cls-18" d="M944.682,695.078l12.954,7.479a5.812,5.812,0,0,0,5.243.113l14.321-8.323a1.651,1.651,0,0,0,.963-1.376l.008-2.861a1.653,1.653,0,0,1-.963,1.377l-14.321,8.322a5.815,5.815,0,0,1-5.243-.112l-12.954-7.479a2.013,2.013,0,0,1-1.2-1.63l-.008,2.86A2.012,2.012,0,0,0,944.682,695.078Z"/><path class="cls-18" d="M988.273,708.376,975.32,700.9a2.014,2.014,0,0,1-1.19-1.634l-.008,2.861a2.014,2.014,0,0,0,1.189,1.633l12.954,7.479a5.812,5.812,0,0,0,5.243.112l14.289-8.3a1.685,1.685,0,0,0,.978-1.4l.008-2.86a1.684,1.684,0,0,1-.978,1.4l-14.289,8.3A5.815,5.815,0,0,1,988.273,708.376Z"/><path class="cls-18" d="M1031.231,715.378l14.289-8.3a1.687,1.687,0,0,0,.977-1.4l.009-2.86a1.686,1.686,0,0,1-.978,1.4l-14.289,8.3a5.815,5.815,0,0,1-5.243-.113l-12.987-7.5a1.975,1.975,0,0,1-1.171-1.605l-.008,2.86a1.975,1.975,0,0,0,1.171,1.605l12.987,7.5A5.812,5.812,0,0,0,1031.231,715.378Z"/><path class="cls-18" d="M1061.828,724.075l14.289-8.3a1.685,1.685,0,0,0,.978-1.4l.008-2.86a1.686,1.686,0,0,1-.978,1.4l-14.289,8.3a5.815,5.815,0,0,1-5.243-.112l-12.954-7.479a2.013,2.013,0,0,1-1.2-1.63l-.009,2.86a2.016,2.016,0,0,0,1.2,1.63l12.954,7.479A5.812,5.812,0,0,0,1061.828,724.075Z"/><path class="cls-18" d="M921.62,708.481l12.954,7.479a5.815,5.815,0,0,0,5.243.112l14.288-8.3a1.684,1.684,0,0,0,.978-1.4l.008-2.86a1.682,1.682,0,0,1-.978,1.4l-14.288,8.3a5.815,5.815,0,0,1-5.243-.113l-12.954-7.478a2.015,2.015,0,0,1-1.2-1.631l-.009,2.861A2.014,2.014,0,0,0,921.62,708.481Z"/><path class="cls-18" d="M965.179,721.8l-12.954-7.479a2.012,2.012,0,0,1-1.189-1.634l-.008,2.861a2.012,2.012,0,0,0,1.189,1.633l12.954,7.479a5.815,5.815,0,0,0,5.243.112l14.289-8.3a1.681,1.681,0,0,0,.977-1.4l.009-2.86a1.686,1.686,0,0,1-.978,1.4l-14.289,8.3A5.815,5.815,0,0,1,965.179,721.8Z"/><path class="cls-18" d="M1008.137,728.8l14.32-8.322a1.654,1.654,0,0,0,.964-1.377l.008-2.86a1.653,1.653,0,0,1-.963,1.376l-14.322,8.323a5.81,5.81,0,0,1-5.242-.113l-12.987-7.5a1.973,1.973,0,0,1-1.171-1.6l-.009,2.86a1.977,1.977,0,0,0,1.172,1.605l12.986,7.5A5.817,5.817,0,0,0,1008.137,728.8Z"/><path class="cls-18" d="M1038.766,737.477l14.289-8.3a1.684,1.684,0,0,0,.977-1.4l.008-2.861a1.685,1.685,0,0,1-.977,1.4l-14.289,8.3a5.815,5.815,0,0,1-5.243-.112l-12.954-7.479a2.016,2.016,0,0,1-1.2-1.63l-.008,2.86a2.016,2.016,0,0,0,1.2,1.63l12.954,7.479A5.815,5.815,0,0,0,1038.766,737.477Z"/><path class="cls-18" d="M898.526,721.9l12.953,7.479a5.815,5.815,0,0,0,5.243.112l14.321-8.322a1.685,1.685,0,0,0,.978-1.4l.008-2.861a1.684,1.684,0,0,1-.978,1.4l-14.32,8.323a5.814,5.814,0,0,1-5.244-.113l-12.953-7.479a2.013,2.013,0,0,1-1.2-1.63l-.008,2.861A2.014,2.014,0,0,0,898.526,721.9Z"/><path class="cls-18" d="M942.117,735.2l-12.954-7.479a2.012,2.012,0,0,1-1.189-1.634l-.008,2.861a2.011,2.011,0,0,0,1.189,1.633l12.954,7.479a5.815,5.815,0,0,0,5.243.113l14.289-8.3a1.682,1.682,0,0,0,.977-1.4l.008-2.861a1.682,1.682,0,0,1-.977,1.4l-14.289,8.3A5.815,5.815,0,0,1,942.117,735.2Z"/><path class="cls-18" d="M985.074,742.2l14.289-8.3a1.686,1.686,0,0,0,.978-1.4l.008-2.86a1.686,1.686,0,0,1-.978,1.4l-14.289,8.3a5.815,5.815,0,0,1-5.243-.112l-12.986-7.5a1.977,1.977,0,0,1-1.172-1.605l-.008,2.86a1.974,1.974,0,0,0,1.172,1.605l12.986,7.5A5.812,5.812,0,0,0,985.074,742.2Z"/><path class="cls-18" d="M1015.671,750.9l14.289-8.3a1.686,1.686,0,0,0,.978-1.4l.008-2.861a1.688,1.688,0,0,1-.978,1.4l-14.289,8.3a5.815,5.815,0,0,1-5.243-.112l-12.954-7.479a2.015,2.015,0,0,1-1.2-1.63l-.008,2.861a2.015,2.015,0,0,0,1.2,1.629l12.954,7.479A5.815,5.815,0,0,0,1015.671,750.9Z"/><path class="cls-18" d="M875.463,735.3l12.954,7.479a5.815,5.815,0,0,0,5.243.112l14.289-8.3a1.687,1.687,0,0,0,.978-1.4l.008-2.86a1.686,1.686,0,0,1-.978,1.4l-14.289,8.3a5.815,5.815,0,0,1-5.243-.112l-12.954-7.479a2.015,2.015,0,0,1-1.2-1.63l-.008,2.86A2.013,2.013,0,0,0,875.463,735.3Z"/><path class="cls-18" d="M919.022,748.62l-12.954-7.479a2.011,2.011,0,0,1-1.188-1.634l-.009,2.861A2.014,2.014,0,0,0,906.06,744l12.954,7.479a5.815,5.815,0,0,0,5.243.113l14.289-8.3a1.686,1.686,0,0,0,.978-1.4l.008-2.861a1.682,1.682,0,0,1-.978,1.4l-14.289,8.3A5.815,5.815,0,0,1,919.022,748.62Z"/><path class="cls-18" d="M961.98,755.623,976.3,747.3a1.682,1.682,0,0,0,.977-1.4l.009-2.86a1.686,1.686,0,0,1-.978,1.4l-14.321,8.322a5.815,5.815,0,0,1-5.243-.112l-12.987-7.5a1.973,1.973,0,0,1-1.171-1.605l-.008,2.861a1.972,1.972,0,0,0,1.171,1.6l12.987,7.5A5.818,5.818,0,0,0,961.98,755.623Z"/><path class="cls-18" d="M992.609,764.3,1006.9,756a1.686,1.686,0,0,0,.978-1.4l.008-2.86a1.686,1.686,0,0,1-.978,1.4l-14.289,8.3a5.812,5.812,0,0,1-5.243-.113l-12.954-7.479a2.015,2.015,0,0,1-1.2-1.629l-.008,2.86a2.016,2.016,0,0,0,1.2,1.63l12.954,7.479A5.815,5.815,0,0,0,992.609,764.3Z"/><path class="cls-18" d="M852.369,748.725l12.954,7.479a5.813,5.813,0,0,0,5.242.112l14.322-8.322a1.686,1.686,0,0,0,.978-1.4l.008-2.861a1.688,1.688,0,0,1-.978,1.4l-14.321,8.322a5.815,5.815,0,0,1-5.243-.112l-12.954-7.479a2.016,2.016,0,0,1-1.2-1.63l-.008,2.86A2.016,2.016,0,0,0,852.369,748.725Z"/><path class="cls-18" d="M895.96,762.022l-12.954-7.479a2.013,2.013,0,0,1-1.189-1.633l-.008,2.86A2.012,2.012,0,0,0,883,757.4l12.954,7.48A5.815,5.815,0,0,0,901.2,765l14.289-8.3a1.686,1.686,0,0,0,.978-1.4l.008-2.86a1.686,1.686,0,0,1-.978,1.4l-14.289,8.3A5.815,5.815,0,0,1,895.96,762.022Z"/><path class="cls-18" d="M938.918,769.025l14.288-8.3a1.684,1.684,0,0,0,.978-1.4l.008-2.86a1.684,1.684,0,0,1-.978,1.4l-14.288,8.3a5.812,5.812,0,0,1-5.243-.112l-12.987-7.5a1.971,1.971,0,0,1-1.171-1.605l-.009,2.861a1.977,1.977,0,0,0,1.172,1.605l12.986,7.5A5.814,5.814,0,0,0,938.918,769.025Z"/><path class="cls-18" d="M969.515,777.722l14.288-8.3a1.684,1.684,0,0,0,.978-1.4l.008-2.86a1.684,1.684,0,0,1-.978,1.4l-14.288,8.3a5.814,5.814,0,0,1-5.244-.113l-12.953-7.479a2.016,2.016,0,0,1-1.2-1.63l-.008,2.861a2.014,2.014,0,0,0,1.2,1.63l12.954,7.479A5.815,5.815,0,0,0,969.515,777.722Z"/><path class="cls-18" d="M1121.072,712.63l-21.74,12.634a5.812,5.812,0,0,1-5.243-.113l-12.986-7.5a1.974,1.974,0,0,1-1.172-1.6l-.008,2.86a1.975,1.975,0,0,0,1.171,1.605l12.987,7.5a5.815,5.815,0,0,0,5.243.112l21.74-12.634a1.682,1.682,0,0,0,.977-1.4l.009-2.86A1.686,1.686,0,0,1,1121.072,712.63Z"/><path class="cls-18" d="M1091.044,730.306,984.216,792.425a5.815,5.815,0,0,1-5.243-.112l-12.986-7.5a1.977,1.977,0,0,1-1.172-1.605l-.008,2.86a1.974,1.974,0,0,0,1.172,1.6l12.986,7.5a5.812,5.812,0,0,0,5.243.112l106.828-62.119a1.7,1.7,0,0,0,.993-1.413l.008-2.86A1.707,1.707,0,0,1,1091.044,730.306Z"/><path class="cls-18" d="M829.307,762.127l12.954,7.479a5.81,5.81,0,0,0,5.242.113l14.289-8.3a1.684,1.684,0,0,0,.978-1.4l.008-2.861a1.686,1.686,0,0,1-.978,1.4l-14.289,8.3a5.813,5.813,0,0,1-5.242-.112l-12.954-7.479a2.014,2.014,0,0,1-1.2-1.63l-.008,2.86A2.014,2.014,0,0,0,829.307,762.127Z"/><path class="cls-18" d="M872.866,775.443l-12.954-7.479a2.011,2.011,0,0,1-1.189-1.633l-.008,2.86a2.01,2.01,0,0,0,1.189,1.633l12.954,7.479a5.812,5.812,0,0,0,5.243.113l14.288-8.3a1.684,1.684,0,0,0,.978-1.4l.008-2.86a1.682,1.682,0,0,1-.977,1.4l-14.289,8.3A5.815,5.815,0,0,1,872.866,775.443Z"/><path class="cls-18" d="M915.823,782.446l14.321-8.323a1.686,1.686,0,0,0,.978-1.4l.008-2.86a1.684,1.684,0,0,1-.978,1.4l-14.321,8.322a5.815,5.815,0,0,1-5.243-.112l-12.986-7.5a1.976,1.976,0,0,1-1.172-1.605l-.008,2.861a1.975,1.975,0,0,0,1.172,1.605l12.986,7.5A5.812,5.812,0,0,0,915.823,782.446Z"/><path class="cls-18" d="M946.453,791.124l14.288-8.3a1.686,1.686,0,0,0,.978-1.4l.008-2.86a1.684,1.684,0,0,1-.978,1.4l-14.288,8.3a5.817,5.817,0,0,1-5.244-.113l-12.953-7.478a2.016,2.016,0,0,1-1.2-1.63l-.008,2.86a2.015,2.015,0,0,0,1.2,1.63l12.954,7.479A5.817,5.817,0,0,0,946.453,791.124Z"/><path class="cls-18" d="M806.244,775.53l12.954,7.478a5.747,5.747,0,0,0,5.211.132l14.321-8.323a1.686,1.686,0,0,0,.978-1.4l.008-2.86a1.684,1.684,0,0,1-.978,1.4l-14.321,8.322a5.745,5.745,0,0,1-5.21-.131l-12.954-7.479a2.038,2.038,0,0,1-1.219-1.638l-.008,2.861A2.041,2.041,0,0,0,806.244,775.53Z"/><path class="cls-18" d="M849.8,788.845l-12.954-7.478a2.012,2.012,0,0,1-1.189-1.634l-.009,2.86a2.014,2.014,0,0,0,1.19,1.634l12.954,7.479a5.813,5.813,0,0,0,5.242.112l14.289-8.3a1.686,1.686,0,0,0,.978-1.4l.008-2.86a1.684,1.684,0,0,1-.978,1.4l-14.288,8.3A5.812,5.812,0,0,1,849.8,788.845Z"/><path class="cls-18" d="M892.769,792.988a5.812,5.812,0,0,1-5.243-.113l-12.986-7.5a1.975,1.975,0,0,1-1.172-1.605l-.008,2.86a1.975,1.975,0,0,0,1.171,1.605l12.987,7.5a5.815,5.815,0,0,0,5.243.112l14.289-8.3a1.686,1.686,0,0,0,.978-1.4l.008-2.86a1.686,1.686,0,0,1-.978,1.4Z"/><path class="cls-18" d="M923.358,804.545l14.289-8.3a1.687,1.687,0,0,0,.978-1.4l.008-2.861a1.686,1.686,0,0,1-.978,1.4l-14.289,8.3a5.812,5.812,0,0,1-5.243-.113l-12.954-7.479a2.014,2.014,0,0,1-1.2-1.629l-.009,2.86a2.016,2.016,0,0,0,1.2,1.63l12.954,7.479A5.815,5.815,0,0,0,923.358,804.545Z"/><path class="cls-18" d="M975.312,797.336l-14.321,8.323a5.812,5.812,0,0,1-5.243-.113l-12.954-7.479a2.018,2.018,0,0,1-1.2-1.63l-.008,2.861a2.015,2.015,0,0,0,1.2,1.629l12.954,7.48a5.815,5.815,0,0,0,5.243.112L975.3,800.2a1.686,1.686,0,0,0,.978-1.4l.008-2.86A1.684,1.684,0,0,1,975.312,797.336Z"/><path class="cls-18" d="M816.613,786.835l.008-2.86a1.682,1.682,0,0,1-.977,1.4l-14.289,8.3a5.815,5.815,0,0,1-5.243-.113l-12.954-7.479a2.015,2.015,0,0,1-1.2-1.63l-.008,2.861a2.016,2.016,0,0,0,1.2,1.63L796.1,796.43a5.815,5.815,0,0,0,5.243.112l14.288-8.3A1.682,1.682,0,0,0,816.613,786.835Z"/><path class="cls-18" d="M847.21,795.532l.009-2.86a1.686,1.686,0,0,1-.978,1.4L824.534,806.69a5.814,5.814,0,0,1-5.244-.113L806.336,799.1a2.011,2.011,0,0,1-1.188-1.634l-.009,2.861a2.014,2.014,0,0,0,1.189,1.633l12.954,7.479a5.817,5.817,0,0,0,5.244.113l21.707-12.616A1.682,1.682,0,0,0,847.21,795.532Z"/><path class="cls-18" d="M851.5,801.659l12.922,7.5a5.813,5.813,0,0,0,5.242.112l14.322-8.322a1.684,1.684,0,0,0,.977-1.4l.008-2.861a1.682,1.682,0,0,1-.977,1.4l-14.322,8.323a5.81,5.81,0,0,1-5.242-.113l-12.922-7.5a2.039,2.039,0,0,1-1.218-1.638l-.008,2.86A2.036,2.036,0,0,0,851.5,801.659Z"/><path class="cls-18" d="M882.1,810.356l12.954,7.479a5.815,5.815,0,0,0,5.243.113l14.289-8.3a1.683,1.683,0,0,0,.977-1.4l.009-2.86a1.685,1.685,0,0,1-.978,1.4l-14.289,8.3a5.815,5.815,0,0,1-5.243-.113L882.107,807.5a2.016,2.016,0,0,1-1.2-1.63l-.008,2.86A2.016,2.016,0,0,0,882.1,810.356Z"/><path class="cls-18" d="M952.218,810.757l-14.289,8.3a5.815,5.815,0,0,1-5.243-.113l-12.954-7.479a2.015,2.015,0,0,1-1.2-1.629l-.008,2.86a2.016,2.016,0,0,0,1.2,1.63l12.954,7.479a5.815,5.815,0,0,0,5.243.112l14.289-8.3a1.682,1.682,0,0,0,.977-1.4l.009-2.86A1.686,1.686,0,0,1,952.218,810.757Z"/><path class="cls-18" d="M861.871,812.965l.008-2.861a1.686,1.686,0,0,1-.978,1.4l-14.289,8.3a5.815,5.815,0,0,1-5.243-.112l-12.954-7.479a2.015,2.015,0,0,1-1.2-1.63l-.008,2.86a2.015,2.015,0,0,0,1.2,1.63l12.954,7.479a5.815,5.815,0,0,0,5.243.113l14.289-8.3A1.686,1.686,0,0,0,861.871,812.965Z"/><path class="cls-18" d="M892.468,821.662l.008-2.861a1.682,1.682,0,0,1-.978,1.4l-21.707,12.615a5.812,5.812,0,0,1-5.243-.112l-12.954-7.479a2.016,2.016,0,0,1-1.2-1.63l-.008,2.86a2.019,2.019,0,0,0,1.2,1.631l12.954,7.478a5.812,5.812,0,0,0,5.243.113l21.707-12.615A1.684,1.684,0,0,0,892.468,821.662Z"/><path class="cls-18" d="M929.156,824.159l-14.322,8.323a5.81,5.81,0,0,1-5.242-.113l-12.954-7.479a2.015,2.015,0,0,1-1.2-1.629l-.008,2.86a2.015,2.015,0,0,0,1.2,1.63l12.954,7.479a5.815,5.815,0,0,0,5.243.112l14.321-8.322a1.685,1.685,0,0,0,.978-1.4l.008-2.86A1.681,1.681,0,0,1,929.156,824.159Z"/><path class="cls-18" d="M906.061,837.58l-14.289,8.3a5.815,5.815,0,0,1-5.243-.112l-12.954-7.479a2.015,2.015,0,0,1-1.2-1.63l-.008,2.86a2.013,2.013,0,0,0,1.2,1.63l12.954,7.479a5.815,5.815,0,0,0,5.243.112l14.289-8.3a1.687,1.687,0,0,0,.978-1.4l.008-2.86A1.684,1.684,0,0,1,906.061,837.58Z"/><path class="cls-15" d="M1067.485,621.008l12.954,7.479a5.815,5.815,0,0,0,5.243.112l14.289-8.3c1.387-.8,1.282-2.174-.211-3.036l-12.954-7.479a5.757,5.757,0,0,0-5.243-.112l-14.289,8.3C1065.887,618.777,1065.959,620.127,1067.485,621.008Z"/><path class="cls-15" d="M1044.391,634.429l12.953,7.479a5.817,5.817,0,0,0,5.244.112l14.288-8.3c1.42-.825,1.282-2.175-.211-3.037l-12.954-7.479a5.7,5.7,0,0,0-5.243-.112l-14.289,8.3C1042.792,632.2,1042.865,633.548,1044.391,634.429Z"/><path class="cls-15" d="M1090.179,634.11l12.986,7.5a5.746,5.746,0,0,0,5.211.093l14.288-8.3c1.387-.806,1.315-2.156-.178-3.018l-12.987-7.5a5.815,5.815,0,0,0-5.243-.112L1090,631.092C1088.613,631.9,1088.685,633.248,1090.179,634.11Z"/><path class="cls-15" d="M1099.391,643.8l-12.986-7.5a5.755,5.755,0,0,0-5.243-.112l-14.257,8.322c-1.387.806-1.314,2.156.179,3.018l12.987,7.5a5.741,5.741,0,0,0,5.21.093l14.289-8.3C1100.989,645.994,1100.885,644.663,1099.391,643.8Z"/><path class="cls-15" d="M1094.679,657.447l12.986,7.5a5.812,5.812,0,0,0,5.243.113l32.19-18.707c1.388-.806,1.282-2.174-.211-3.037l-12.986-7.5a5.743,5.743,0,0,0-5.211-.094l-32.19,18.707C1093.113,655.235,1093.185,656.584,1094.679,657.447Z"/><path class="cls-15" d="M1021.328,647.831l12.954,7.479a5.812,5.812,0,0,0,5.243.112l14.289-8.3c1.387-.806,1.282-2.175-.211-3.037l-12.954-7.479a5.757,5.757,0,0,0-5.243-.112l-14.289,8.3C1019.73,645.6,1019.8,646.95,1021.328,647.831Z"/><path class="cls-15" d="M1058.1,649.593l-14.257,8.323c-1.387.806-1.314,2.155.179,3.017l12.986,7.5a5.746,5.746,0,0,0,5.211.094l14.289-8.3c1.387-.806,1.314-2.155-.179-3.018l-12.986-7.5A5.815,5.815,0,0,0,1058.1,649.593Z"/><path class="cls-15" d="M1084.653,681.477l19.45-11.3c1.387-.806,1.282-2.174-.212-3.037l-12.986-7.5a5.746,5.746,0,0,0-5.211-.094l-19.449,11.3c-1.387.806-1.315,2.155.178,3.018l12.987,7.5A5.815,5.815,0,0,0,1084.653,681.477Z"/><path class="cls-15" d="M1096.542,683.67l11.59,6.692a7.118,7.118,0,0,0,6.473.15l53.22-30.929c1.709-.993,1.635-2.68-.248-3.767l-12.662-7.311a4.91,4.91,0,0,0-4.369-.093l-54.285,31.509C1094.552,680.915,1094.658,682.583,1096.542,683.67Z"/><path class="cls-15" d="M1190.7,669.761l-12.987-7.5a5.741,5.741,0,0,0-5.21-.094l-14.289,8.3c-1.387.806-1.315,2.155.178,3.018l12.987,7.5a5.815,5.815,0,0,0,5.243.112l14.289-8.3C1192.3,671.992,1192.19,670.623,1190.7,669.761Z"/><path class="cls-15" d="M1149.405,675.591l-14.289,8.3c-1.387.806-1.315,2.155.211,3.036l2.176,1.256a5.815,5.815,0,0,0,5.243.113l14.289-8.3c1.419-.825,1.282-2.175-.212-3.037l-2.175-1.256A5.7,5.7,0,0,0,1149.405,675.591Z"/><path class="cls-15" d="M1167.6,683.182l-2.208-1.274a5.682,5.682,0,0,0-5.21-.094l-14.289,8.3c-1.387.806-1.315,2.155.179,3.018l2.207,1.274a5.815,5.815,0,0,0,5.243.113l14.289-8.3C1169.232,685.394,1169.1,684.044,1167.6,683.182Z"/><path class="cls-15" d="M1144.54,696.585l-12.954-7.479a5.758,5.758,0,0,0-5.243-.113l-14.289,8.3c-1.387.806-1.315,2.156.211,3.037l12.954,7.479a5.815,5.815,0,0,0,5.243.112l14.289-8.3C1146.138,698.815,1146.033,697.447,1144.54,696.585Z"/><path class="cls-15" d="M990.847,665.4l12.954,7.479a5.815,5.815,0,0,0,5.243.112l21.739-12.634c1.387-.806,1.283-2.174-.211-3.036l-12.954-7.479a5.757,5.757,0,0,0-5.243-.112l-21.739,12.633C989.248,663.164,989.321,664.514,990.847,665.4Z"/><path class="cls-15" d="M1035.554,662.733l-14.289,8.3c-1.387.806-1.282,2.174.211,3.036l12.954,7.479a5.815,5.815,0,0,0,5.243.113l14.289-8.3c1.387-.806,1.282-2.175-.211-3.037l-12.954-7.479A5.815,5.815,0,0,0,1035.554,662.733Z"/><path class="cls-15" d="M967.785,678.8l12.954,7.479a5.815,5.815,0,0,0,5.243.112l14.288-8.3c1.387-.807,1.283-2.174-.211-3.037l-12.954-7.479a5.757,5.757,0,0,0-5.243-.112l-14.289,8.3C966.186,676.566,966.259,677.916,967.785,678.8Z"/><path class="cls-15" d="M1012.459,676.154l-14.289,8.3c-1.387.806-1.282,2.174.212,3.036l12.954,7.479a5.815,5.815,0,0,0,5.243.113l14.289-8.3c1.386-.806,1.282-2.175-.212-3.037l-12.954-7.479A5.815,5.815,0,0,0,1012.459,676.154Z"/><path class="cls-15" d="M1054.3,699.116l21.74-12.634c1.387-.806,1.282-2.175-.211-3.037l-12.986-7.5a5.746,5.746,0,0,0-5.211-.093l-21.74,12.634c-1.387.806-1.315,2.155.179,3.017l12.986,7.5A5.815,5.815,0,0,0,1054.3,699.116Z"/><path class="cls-15" d="M1084.93,707.794l21.16-12.3c1.387-.806,1.282-2.175-.212-3.037l-12.954-7.479a5.757,5.757,0,0,0-5.243-.112l-21.159,12.3c-1.387.806-1.314,2.156.211,3.037l12.954,7.478A5.812,5.812,0,0,0,1084.93,707.794Z"/><path class="cls-15" d="M944.69,692.218l12.954,7.479a5.815,5.815,0,0,0,5.243.112l14.321-8.322c1.387-.806,1.25-2.156-.243-3.018l-12.954-7.479a5.694,5.694,0,0,0-5.211-.131l-14.321,8.322C943.092,689.987,943.164,691.337,944.69,692.218Z"/><path class="cls-15" d="M989.4,689.556l-14.289,8.3c-1.387.806-1.282,2.174.212,3.037l12.953,7.479a5.815,5.815,0,0,0,5.243.112l14.289-8.3c1.387-.806,1.282-2.174-.211-3.037l-12.954-7.478A5.812,5.812,0,0,0,989.4,689.556Z"/><path class="cls-15" d="M1031.239,712.518l14.289-8.3c1.387-.806,1.282-2.175-.211-3.037l-12.987-7.5a5.743,5.743,0,0,0-5.211-.094l-14.288,8.3c-1.387.806-1.315,2.155.178,3.018l12.987,7.5A5.815,5.815,0,0,0,1031.239,712.518Z"/><path class="cls-15" d="M1061.836,721.215l14.289-8.3c1.387-.806,1.282-2.174-.211-3.036L1062.96,702.4a5.758,5.758,0,0,0-5.243-.113l-14.289,8.3c-1.387.806-1.315,2.156.211,3.037l12.954,7.479A5.815,5.815,0,0,0,1061.836,721.215Z"/><path class="cls-15" d="M921.628,705.621l12.954,7.478a5.815,5.815,0,0,0,5.243.113l14.288-8.3c1.388-.806,1.283-2.174-.21-3.037l-12.954-7.479a5.761,5.761,0,0,0-5.243-.112l-14.29,8.3C920.03,703.39,920.1,704.739,921.628,705.621Z"/><path class="cls-15" d="M966.3,702.977l-14.289,8.3c-1.387.806-1.283,2.175.211,3.037l12.954,7.479a5.815,5.815,0,0,0,5.243.112l14.289-8.3c1.387-.806,1.282-2.174-.211-3.036l-12.954-7.479A5.815,5.815,0,0,0,966.3,702.977Z"/><path class="cls-15" d="M1008.144,725.939l14.322-8.323c1.387-.806,1.249-2.156-.244-3.018l-12.986-7.5a5.679,5.679,0,0,0-5.179-.113l-14.321,8.323c-1.387.806-1.314,2.155.179,3.018l12.987,7.5A5.81,5.81,0,0,0,1008.144,725.939Z"/><path class="cls-15" d="M1038.774,734.617l14.289-8.3c1.387-.806,1.282-2.175-.212-3.037L1039.9,715.8a5.76,5.76,0,0,0-5.244-.112l-14.288,8.3c-1.387.806-1.315,2.156.211,3.037l12.954,7.479A5.815,5.815,0,0,0,1038.774,734.617Z"/><path class="cls-15" d="M898.534,719.041l12.953,7.479a5.814,5.814,0,0,0,5.244.113l14.32-8.323c1.388-.806,1.283-2.174-.211-3.036L917.887,707.8a5.76,5.76,0,0,0-5.244-.113l-14.321,8.323C896.935,716.811,897.008,718.16,898.534,719.041Z"/><path class="cls-15" d="M943.241,716.379l-14.29,8.3c-1.386.806-1.282,2.175.212,3.037l12.954,7.479a5.815,5.815,0,0,0,5.243.112l14.289-8.3c1.387-.806,1.282-2.174-.212-3.036l-12.953-7.479A5.815,5.815,0,0,0,943.241,716.379Z"/><path class="cls-15" d="M985.082,739.341l14.289-8.3c1.387-.806,1.282-2.174-.211-3.036l-12.987-7.5a5.744,5.744,0,0,0-5.21-.094l-14.289,8.3c-1.387.806-1.315,2.156.179,3.018l12.986,7.5A5.815,5.815,0,0,0,985.082,739.341Z"/><path class="cls-15" d="M1015.679,748.038l14.289-8.3c1.387-.806,1.282-2.175-.211-3.037l-12.954-7.479a5.757,5.757,0,0,0-5.243-.112l-14.289,8.3c-1.387.806-1.314,2.156.211,3.037l12.954,7.479A5.815,5.815,0,0,0,1015.679,748.038Z"/><path class="cls-15" d="M875.471,732.444l12.954,7.479a5.815,5.815,0,0,0,5.243.112l14.289-8.3c1.387-.806,1.282-2.174-.211-3.036l-12.954-7.479a5.758,5.758,0,0,0-5.243-.113l-14.289,8.3C873.873,730.213,873.945,731.563,875.471,732.444Z"/><path class="cls-15" d="M920.146,729.8l-14.289,8.3c-1.387.806-1.282,2.175.211,3.037l12.954,7.479a5.815,5.815,0,0,0,5.243.112l14.289-8.3c1.387-.806,1.283-2.174-.211-3.036l-12.954-7.479A5.815,5.815,0,0,0,920.146,729.8Z"/><path class="cls-15" d="M961.988,752.762l14.321-8.322c1.387-.806,1.282-2.175-.211-3.037l-12.987-7.5a5.744,5.744,0,0,0-5.21-.093l-14.322,8.322c-1.386.806-1.314,2.156.179,3.018l12.987,7.5A5.815,5.815,0,0,0,961.988,752.762Z"/><path class="cls-15" d="M992.617,761.441l14.289-8.3c1.387-.806,1.282-2.175-.211-3.037l-12.954-7.479a5.757,5.757,0,0,0-5.243-.112l-14.289,8.3c-1.387.806-1.315,2.155.211,3.036l12.954,7.479A5.812,5.812,0,0,0,992.617,761.441Z"/><path class="cls-15" d="M852.377,745.865l12.954,7.479a5.815,5.815,0,0,0,5.243.112l14.321-8.322c1.387-.806,1.282-2.175-.211-3.037l-12.954-7.479a5.761,5.761,0,0,0-5.243-.113l-14.322,8.323C850.778,743.634,850.851,744.984,852.377,745.865Z"/><path class="cls-15" d="M897.084,743.2l-14.289,8.3c-1.387.806-1.282,2.174.211,3.036l12.954,7.479a5.815,5.815,0,0,0,5.243.113l14.289-8.3c1.387-.806,1.282-2.174-.211-3.037l-12.954-7.479A5.815,5.815,0,0,0,897.084,743.2Z"/><path class="cls-15" d="M938.926,766.164l14.288-8.3c1.387-.806,1.283-2.175-.211-3.037l-12.986-7.5a5.746,5.746,0,0,0-5.211-.093l-14.289,8.3c-1.387.806-1.314,2.156.179,3.018l12.987,7.5A5.812,5.812,0,0,0,938.926,766.164Z"/><path class="cls-15" d="M969.523,774.862l14.288-8.3c1.387-.806,1.283-2.175-.211-3.037l-12.953-7.479a5.76,5.76,0,0,0-5.244-.112l-14.289,8.3c-1.386.806-1.314,2.155.212,3.036l12.953,7.479A5.814,5.814,0,0,0,969.523,774.862Z"/><path class="cls-15" d="M1120.86,709.593l-12.986-7.5a5.741,5.741,0,0,0-5.21-.094l-21.74,12.634c-1.387.806-1.315,2.155.179,3.017l12.986,7.5a5.812,5.812,0,0,0,5.243.113l21.74-12.634C1122.459,711.824,1122.354,710.456,1120.86,709.593Z"/><path class="cls-15" d="M1090.865,727.288l-12.986-7.5a5.746,5.746,0,0,0-5.211-.093l-106.86,62.1c-1.387.806-1.315,2.156.179,3.018l12.986,7.5a5.815,5.815,0,0,0,5.243.112l106.828-62.119C1092.431,729.5,1092.358,728.15,1090.865,727.288Z"/><path class="cls-15" d="M829.315,759.267l12.954,7.479a5.813,5.813,0,0,0,5.242.112l14.289-8.3c1.387-.806,1.282-2.175-.211-3.037l-12.954-7.479a5.758,5.758,0,0,0-5.243-.113l-14.289,8.3C827.716,757.036,827.789,758.386,829.315,759.267Z"/><path class="cls-15" d="M873.989,756.624l-14.289,8.3c-1.387.806-1.282,2.174.212,3.036l12.954,7.479a5.815,5.815,0,0,0,5.243.113l14.289-8.3c1.387-.806,1.282-2.174-.212-3.037l-12.954-7.479A5.815,5.815,0,0,0,873.989,756.624Z"/><path class="cls-15" d="M915.831,779.585l14.321-8.322c1.387-.806,1.282-2.174-.211-3.037l-12.986-7.5a5.746,5.746,0,0,0-5.211-.094l-14.321,8.322c-1.387.807-1.315,2.156.179,3.018l12.986,7.5A5.815,5.815,0,0,0,915.831,779.585Z"/><path class="cls-15" d="M946.461,788.264l14.288-8.3c1.387-.806,1.283-2.174-.211-3.037l-12.954-7.478a5.755,5.755,0,0,0-5.243-.113l-14.289,8.3c-1.387.806-1.314,2.156.212,3.037l12.953,7.478A5.817,5.817,0,0,0,946.461,788.264Z"/><path class="cls-15" d="M806.253,772.669l12.954,7.479a5.745,5.745,0,0,0,5.21.131l14.321-8.322c1.387-.806,1.282-2.174-.211-3.036l-12.954-7.48a5.757,5.757,0,0,0-5.243-.112l-14.321,8.322C804.622,770.457,804.726,771.788,806.253,772.669Z"/><path class="cls-15" d="M850.927,770.026l-14.289,8.3c-1.387.806-1.282,2.174.212,3.037l12.954,7.478a5.812,5.812,0,0,0,5.243.113l14.288-8.3c1.387-.806,1.282-2.174-.211-3.037l-12.954-7.479A5.815,5.815,0,0,0,850.927,770.026Z"/><path class="cls-15" d="M893.86,774.15a5.744,5.744,0,0,0-5.21-.094l-14.289,8.3c-1.387.806-1.315,2.155.179,3.018l12.986,7.5a5.812,5.812,0,0,0,5.243.113l14.289-8.3c1.387-.806,1.282-2.174-.211-3.037Z"/><path class="cls-15" d="M923.366,801.685l14.289-8.3c1.387-.806,1.282-2.174-.211-3.037l-12.954-7.478a5.758,5.758,0,0,0-5.243-.113l-14.289,8.3c-1.387.806-1.315,2.156.211,3.036l12.954,7.479A5.812,5.812,0,0,0,923.366,801.685Z"/><path class="cls-15" d="M975.1,794.3l-12.954-7.478a5.758,5.758,0,0,0-5.243-.113l-14.321,8.323c-1.387.806-1.315,2.155.211,3.036l12.954,7.479a5.812,5.812,0,0,0,5.243.113l14.321-8.323C976.7,796.53,976.594,795.162,975.1,794.3Z"/><path class="cls-15" d="M815.432,782.341l-12.953-7.479a5.758,5.758,0,0,0-5.243-.112l-14.289,8.3c-1.387.806-1.315,2.155.211,3.036l12.954,7.479a5.815,5.815,0,0,0,5.243.113l14.289-8.3C817.03,784.572,816.926,783.2,815.432,782.341Z"/><path class="cls-15" d="M846.03,791.038l-12.954-7.478a5.812,5.812,0,0,0-5.243-.113l-21.708,12.615c-1.387.806-1.282,2.175.211,3.037l12.954,7.478a5.814,5.814,0,0,0,5.244.113l21.707-12.615C847.628,793.269,847.523,791.9,846.03,791.038Z"/><path class="cls-15" d="M851.51,798.8l12.922,7.5a5.81,5.81,0,0,0,5.242.113L884,798.086c1.387-.806,1.282-2.174-.212-3.036l-12.986-7.5a5.746,5.746,0,0,0-5.211-.094l-14.321,8.323C849.879,796.587,849.984,797.918,851.51,798.8Z"/><path class="cls-15" d="M882.107,807.5l12.954,7.479a5.815,5.815,0,0,0,5.243.113l14.289-8.3c1.387-.806,1.282-2.174-.212-3.036l-12.953-7.479a5.76,5.76,0,0,0-5.244-.112l-14.288,8.3C880.509,805.265,880.581,806.615,882.107,807.5Z"/><path class="cls-15" d="M952.006,807.721l-12.954-7.479a5.756,5.756,0,0,0-5.242-.113l-14.289,8.3c-1.387.806-1.315,2.155.211,3.036l12.954,7.479a5.815,5.815,0,0,0,5.243.113l14.289-8.3C953.605,809.951,953.5,808.583,952.006,807.721Z"/><path class="cls-15" d="M860.69,808.471l-12.954-7.479a5.758,5.758,0,0,0-5.243-.113l-14.289,8.3c-1.387.806-1.315,2.156.211,3.037l12.954,7.479a5.815,5.815,0,0,0,5.243.112l14.289-8.3C862.288,810.7,862.183,809.333,860.69,808.471Z"/><path class="cls-15" d="M891.287,817.168l-12.954-7.479a5.757,5.757,0,0,0-5.243-.112l-21.707,12.614c-1.387.807-1.315,2.156.211,3.037l12.954,7.479a5.812,5.812,0,0,0,5.243.112L891.5,820.2C892.885,819.4,892.78,818.03,891.287,817.168Z"/><path class="cls-15" d="M928.944,821.123l-12.954-7.479a5.756,5.756,0,0,0-5.242-.113l-14.322,8.323c-1.387.806-1.314,2.156.212,3.036l12.954,7.479a5.81,5.81,0,0,0,5.242.113l14.322-8.323C930.542,823.353,930.438,821.985,928.944,821.123Z"/><path class="cls-15" d="M905.85,834.544,892.9,827.065a5.757,5.757,0,0,0-5.243-.112l-14.289,8.3c-1.387.806-1.315,2.156.211,3.037l12.954,7.479a5.815,5.815,0,0,0,5.243.112l14.289-8.3C907.448,836.774,907.343,835.406,905.85,834.544Z"/><path class="cls-19" d="M1205.885,778.714,1084.22,848.959a8.522,8.522,0,0,1-7.71,0L998.469,803.9c-2.129-1.229-2.129-3.222,0-4.451l121.666-70.244a8.514,8.514,0,0,1,7.709,0l78.041,45.057C1208.014,775.492,1208.014,777.485,1205.885,778.714Z"/><path class="cls-16" d="M998.469,799.989l121.666-70.245a8.52,8.52,0,0,1,7.709,0l78.041,45.058a2.77,2.77,0,0,1,1.506,1.956,2.485,2.485,0,0,0-1.506-2.5l-78.041-45.058a8.52,8.52,0,0,0-7.709,0L998.469,799.45a2.486,2.486,0,0,0-1.506,2.5A2.772,2.772,0,0,1,998.469,799.989Z"/><polygon class="cls-12" points="771.233 774.761 771.233 716.249 1070.544 543.442 1070.544 542.935 771.233 715.743 771.233 656.714 1070.544 483.907 1070.544 483.401 771.233 656.208 771.233 597.18 1070.544 424.372 1070.544 423.866 771.233 596.673 771.233 537.645 1070.544 364.837 1070.544 364.331 771.233 537.139 771.233 478.11 1070.544 305.303 1070.544 304.796 771.233 477.604 771.233 418.576 1070.544 245.768 1070.544 245.262 771.233 418.069 771.233 416.751 769.351 417.837 769.351 477.506 769.351 479.389 769.351 537.176 769.351 539.058 769.351 596.842 769.351 598.724 769.351 656.512 769.351 658.393 769.351 716.181 769.351 718.062 769.351 777.728 830.038 742.691 1010.925 638.255 1070.591 603.807 1070.591 601.926 771.233 774.761"/><polygon class="cls-11" points="832.401 728.83 810.764 741.322 810.764 532.983 832.401 520.49 832.401 728.83"/><polygon class="cls-11" points="810.769 741.319 789.131 753.812 789.131 609.732 810.769 597.24 810.769 741.319"/><polygon class="cls-11" points="854.038 716.338 832.401 728.83 832.401 397.846 854.038 385.353 854.038 716.338"/><polygon class="cls-8" points="875.676 703.845 854.038 716.338 854.038 461.008 875.676 448.516 875.676 703.845"/><polygon class="cls-8" points="897.313 691.353 875.676 703.845 875.676 551.443 897.313 538.95 897.313 691.353"/><polygon class="cls-8" points="918.951 678.861 897.313 691.353 897.313 502.472 918.951 489.979 918.951 678.861"/><polygon class="cls-20" points="940.588 666.368 918.951 678.861 918.951 581.175 940.588 568.682 940.588 666.368"/><polygon class="cls-20" points="962.225 653.876 940.588 666.368 940.588 394.542 962.225 382.05 962.225 653.876"/><polygon class="cls-20" points="983.863 641.384 962.225 653.876 962.225 442.416 983.863 429.924 983.863 641.384"/><polygon class="cls-5" points="1005.5 628.891 983.863 641.384 983.863 389.174 1005.5 376.681 1005.5 628.891"/><polygon class="cls-5" points="1027.137 616.399 1005.5 628.891 1005.5 440.01 1027.137 427.518 1027.137 616.399"/><polygon class="cls-5" points="1048.775 603.907 1027.137 616.399 1027.137 474.835 1048.775 462.343 1048.775 603.907"/><polygon class="cls-21" points="1117.748 442.501 1118.056 562.106 1130.547 569.364 1130.239 449.759 1117.748 442.501"/><polygon class="cls-22" points="1130.239 449.759 1130.547 569.364 1148.27 569.364 1147.962 449.76 1130.239 449.759"/><polygon class="cls-23" points="1147.962 449.76 1148.27 569.364 1160.842 562.106 1160.535 442.501 1147.962 449.76"/><polygon class="cls-24" points="1160.535 442.501 1160.533 432.201 1148.101 424.976 1130.379 424.976 1117.806 432.235 1117.748 442.501 1130.239 449.759 1147.962 449.76 1160.535 442.501"/><g id="Axonometric_Cylinder" data-name="Axonometric Cylinder"><path id="Cylinder_face" data-name="Cylinder face" class="cls-15" d="M1131.187,413.95c-4.454-2.572-4.454-6.741,0-9.312s11.675-2.572,16.129,0,4.454,6.74,0,9.312S1135.64,416.521,1131.187,413.95Z"/><path id="Cylinder_body" data-name="Cylinder body" class="cls-25" d="M1150.656,409.233v25.279c.027,1.7-1.087,3.415-3.34,4.717-4.454,2.571-11.676,2.571-16.129,0-2.2-1.271-3.314-2.931-3.34-4.6V409.354c.026,1.665,1.139,3.325,3.34,4.6,4.453,2.571,11.675,2.571,16.129,0C1149.569,412.649,1150.683,410.938,1150.656,409.233Z"/></g><path class="cls-15" d="M1208.858,227.3l-19.985-11.463c13.834,7.935,22.414,25.017,22.414,49.3,0,48.271-33.889,106.969-75.558,130.869-20.691,11.868-39.466,12.95-53.123,5.116l19.985,11.463c13.657,7.834,32.432,6.752,53.123-5.116,41.669-23.9,75.558-82.6,75.558-130.869,0-24.28-8.58-41.362-22.414-49.3Z"/><path class="cls-26" d="M1143.755,400.557c41.669-23.9,75.558-82.6,75.558-130.87,0-22.271-7.231-38.468-19.1-47.122,15.757,7.013,25.727,24.79,25.727,50.947,0,48.271-33.889,106.969-75.558,130.869-22.425,12.863-42.589,13.037-56.437,2.941C1107.251,413.247,1124.683,411.5,1143.755,400.557Z"/><path class="cls-5" d="M1143.755,225.512c-41.654,23.892-75.543,82.59-75.543,130.844,0,48.271,33.889,68.092,75.543,44.2s75.558-82.6,75.558-130.869C1219.313,221.434,1185.424,201.612,1143.755,225.512Z"/><path class="cls-15" d="M1211.2,223.219l-19.985-11.463c-14.262-8.18-33.871-7.052-55.481,5.343-43.483,24.94-78.871,86.234-78.871,136.607,0,25.359,8.963,43.2,23.41,51.484l19.985,11.463c-14.447-8.286-23.41-26.125-23.41-51.484,0-50.373,35.388-111.667,78.871-136.607,21.61-12.4,41.219-13.523,55.481-5.343Z"/><path class="cls-27" d="M1155.714,411.316c-43.483,24.94-78.871,4.242-78.871-46.147,0-50.373,35.388-111.667,78.871-136.607,16.731-9.6,32.262-12.44,45.041-9.438,20.444,4.8,33.844,24.562,33.844,55.559C1234.6,325.073,1199.211,386.367,1155.714,411.316ZM1080.17,363.26c0,48.271,33.89,68.092,75.544,44.2,41.669-23.9,75.558-82.6,75.558-130.869,0-48.254-33.889-68.076-75.558-44.175-41.654,23.891-75.544,82.589-75.544,130.843Z"/><path class="cls-28" d="M1076.843,365.169c1.192-82.892,73.776-157.84,123.912-146.045C1151.65,210.672,1082.7,282.65,1076.843,365.169Z"/><path class="cls-12" d="M585.289,839.207a2.6,2.6,0,0,0,1.515.3l19.36-1.46a1.931,1.931,0,0,0,1.5-.7.782.782,0,0,0-.221-1.121l-3.765-3.011c22.724-9.4,52.457-10.077,76.628-1.291a4.727,4.727,0,0,0,4.624-.7c.794-.817.542-1.839-.53-2.489a3.776,3.776,0,0,0-.663-.314c-26.554-9.659-59.222-8.863-84.168,1.526l-3.981-3.194a1.8,1.8,0,0,0-.18-.125,2.61,2.61,0,0,0-1.536-.318,2.008,2.008,0,0,0-1.5.678l-7.525,10.95a.769.769,0,0,0,.241,1.134A1.51,1.51,0,0,0,585.289,839.207Z"/><path class="cls-12" d="M590.465,889.833a2.343,2.343,0,0,0-.457-.208,2.906,2.906,0,0,0-1.885.052l-5.41,2.124c-13.677-13.673-14.113-31.062-.284-45.023.8-.82.556-1.855-.507-2.5a3.652,3.652,0,0,0-.643-.3,4.722,4.722,0,0,0-4.624.678c-15.151,15.317-14.663,34.4.414,49.364l-5.323,2.1c-.577.222-.9.6-.852,1.017a.984.984,0,0,0,.535.743,2.132,2.132,0,0,0,.477.209l17.405,5.435a2.84,2.84,0,0,0,1.863-.065c.578-.221.9-.6.852-1.017L591,890.589A.941.941,0,0,0,590.465,889.833Z"/><path class="cls-12" d="M702.121,899.288a2.538,2.538,0,0,0-1.535-.318l-19.381,1.395a2.007,2.007,0,0,0-1.5.678.808.808,0,0,0,.22,1.147l3.938,3.194c-22.276,9.151-51.473,10-75.362,1.695-.923-.326-1.889-.678-2.813-1.03a4.818,4.818,0,0,0-4.645.613c-.853.834-.633,1.9.464,2.568l.579.273c1.031.391,2.061.782,3.113,1.135,26.23,9.124,58.3,8.146,82.73-1.982l3.745,3.05a1.546,1.546,0,0,0,.167.116,2.74,2.74,0,0,0,1.549.327,1.972,1.972,0,0,0,1.517-.691l7.633-10.91a.784.784,0,0,0-.242-1.134A1.612,1.612,0,0,0,702.121,899.288Z"/><path class="cls-12" d="M707.285,841.628l4.809-2.02c.556-.235.875-.613.83-1.03a1.132,1.132,0,0,0-.559-.725,2.244,2.244,0,0,0-.538-.227l-17.66-5.1a2.841,2.841,0,0,0-1.863.091c-.556.235-.854.625-.788,1.03l1.606,11.836a.989.989,0,0,0,.524.708,2.134,2.134,0,0,0,.553.23,3,3,0,0,0,1.885-.078l5.664-2.386c16.077,13.518,18.251,31.467,4.748,46.38-.724.808-.44,1.812.592,2.438a3.817,3.817,0,0,0,.751.351,4.676,4.676,0,0,0,4.581-.808C727.158,876.028,724.825,856.423,707.285,841.628Z"/><g id="_16" data-name="16"><path class="cls-29" d="M634.886,856.347a7.742,7.742,0,0,0,3.909,6.453c5.554,3.463,14.568.521,14.712-6.508Z"/><path class="cls-30" d="M618.156,839c.063,3.418,1.256,12.019,10.932,18.051,15.534,9.684,40.748,1.456,41.149-18.2Z"/><path class="cls-15" d="M665.459,824.075c-11.271-6.783-29.931-6.972-41.678-.421s-12.134,17.359-.864,24.143,29.931,6.972,41.679.421S676.73,830.859,665.459,824.075Z"/><path class="cls-30" d="M617.27,836.014l-.012-4.371c.011,3.873,2.5,7.746,7.494,10.752,10.292,6.194,27.332,6.367,38.059.385,5.521-3.078,8.294-7.187,8.283-11.294l.012,4.371c.012,4.108-2.761,8.216-8.282,11.3-10.728,5.982-27.768,5.809-38.06-.385-5-3.007-7.483-6.879-7.494-10.753Z"/><path class="cls-15" d="M665.438,816.811c-11.27-6.783-29.93-6.972-41.678-.421s-12.134,17.359-.863,24.142,29.93,6.972,41.678.422S676.709,823.594,665.438,816.811Z"/><path class="cls-30" d="M617.249,828.75l-.012-4.38c.011,3.874,2.5,7.746,7.494,10.753,10.292,6.194,27.332,6.366,38.06.385,5.521-3.079,8.294-7.188,8.282-11.3l.012,4.38c.012,4.108-2.761,8.216-8.282,11.3-10.727,5.981-27.767,5.809-38.06-.385-5-3.007-7.482-6.879-7.494-10.753Z"/><path class="cls-15" d="M665.417,809.53c-11.27-6.783-29.93-6.972-41.678-.422s-12.134,17.36-.863,24.143,29.931,6.972,41.678.422S676.688,816.313,665.417,809.53Z"/><path class="cls-30" d="M617.229,821.469l-.013-4.38c.011,3.874,2.5,7.746,7.494,10.752,10.293,6.195,27.332,6.367,38.06.385,5.521-3.078,8.294-7.187,8.282-11.294l.013,4.38c.011,4.108-2.762,8.216-8.283,11.295-10.727,5.982-27.767,5.809-38.059-.385-5-3.007-7.483-6.879-7.494-10.753Z"/><path class="cls-15" d="M665.4,802.258c11.271,6.783,10.884,17.592-.863,24.142s-30.408,6.362-41.678-.421-10.885-17.593.863-24.143S654.126,795.474,665.4,802.258Z"/><path class="cls-30" d="M617.208,814.2l-.012-4.389c.011,3.874,2.5,7.746,7.494,10.753,10.292,6.194,27.332,6.366,38.059.385,5.521-3.079,8.294-7.188,8.283-11.3l.012,4.389c.012,4.107-2.761,8.215-8.282,11.294-10.728,5.982-27.768,5.809-38.06-.385-5-3.006-7.483-6.879-7.494-10.752Z"/><path class="cls-31" d="M614.719,838.923l-.008-2.9c.012,4.242,2.736,8.482,8.206,11.775,11.271,6.783,29.931,6.972,41.678.421,6.046-3.371,9.083-7.87,9.07-12.368l.008,2.9c.013,4.5-3.023,9-9.069,12.368-11.748,6.551-30.408,6.362-41.678-.422-5.471-3.292-8.2-7.532-8.207-11.774Z"/><path class="cls-32" d="M614.7,831.65l-.008-2.892c.012,4.242,2.737,8.482,8.207,11.774,11.27,6.784,29.93,6.972,41.678.422,6.046-3.371,9.082-7.87,9.07-12.368l.008,2.892c.013,4.5-3.024,9-9.07,12.368-11.748,6.551-30.408,6.362-41.678-.421-5.47-3.293-8.195-7.533-8.207-11.775Z"/><path class="cls-33" d="M614.678,824.377l-.008-2.9c.012,4.242,2.736,8.482,8.206,11.774,11.271,6.784,29.931,6.973,41.678.422,6.046-3.371,9.083-7.87,9.07-12.368l.008,2.9c.013,4.5-3.024,9-9.07,12.369-11.747,6.55-30.407,6.362-41.678-.422-5.47-3.292-8.194-7.533-8.206-11.775Z"/><path class="cls-34" d="M614.657,817.1l-.008-2.893c.012,4.242,2.736,8.483,8.207,11.775,11.27,6.783,29.93,6.972,41.678.421,6.046-3.371,9.082-7.87,9.069-12.368l.009,2.893c.012,4.5-3.024,9-9.07,12.368-11.748,6.55-30.408,6.361-41.678-.422-5.471-3.292-8.2-7.533-8.207-11.774Z"/><path class="cls-35" d="M681.8,787.685l-75.493.221.037,13.04c0,.363.02.725.052,1.088.47,6.806,4.464,12.584,11.9,17.182,10.578,6.539,27.459,8.344,41.05,4.389,7.692-2.238,20.353-7.812,22.253-20.447a12.9,12.9,0,0,0,.235-2.432Z"/><ellipse class="cls-15" cx="644.052" cy="787.796" rx="37.746" ry="21.864" transform="translate(-2.233 1.831) rotate(-0.163)"/><path class="cls-5" d="M710.3,698.151c-2.385-20.252-13.047-36.639-31.693-48.706a66.352,66.352,0,0,0-27.83-9.246c-32.553-3.251-57.46,17.1-66.826,37.384-12.136,26.285-7.618,52.554,13.43,78.076.018.022.307.393.324.415,6.468,8.17,10.226,18.54,11.155,30.841a14.144,14.144,0,0,0,3.516,8.229,25.03,25.03,0,0,0,6.345,5.263c13.573,8.169,36.044,8.4,50.191.508a25.925,25.925,0,0,0,7.431-5.946,14.226,14.226,0,0,0,3.48-8.366c.885-12.366,4.621-22.785,11.105-30.972l.259-.321C701.718,742.372,713.362,724.2,710.3,698.151Z"/></g><polygon class="cls-15" points="407.79 634.912 384.08 648.602 384.08 658.803 407.79 645.114 407.79 634.912"/><polygon class="cls-15" points="452.354 609.184 421.501 626.996 421.501 637.198 452.354 619.385 452.354 609.184"/><polygon class="cls-15" points="550.813 562.539 550.813 552.338 466.065 601.267 466.065 611.469 550.813 562.539"/><polygon class="cls-15" points="434.071 647.438 384.08 676.3 384.08 686.501 434.071 657.639 434.071 647.438"/><polygon class="cls-15" points="447.783 649.723 478.635 631.91 478.635 621.709 447.783 639.522 447.783 649.723"/><polygon class="cls-15" points="518.541 608.87 518.541 598.669 492.346 613.793 492.346 623.994 518.541 608.87"/><polygon class="cls-15" points="532.253 600.954 549.774 590.838 549.774 580.637 532.253 590.752 532.253 600.954"/><polygon class="cls-15" points="407.79 690.309 384.08 703.999 384.08 714.2 407.79 700.511 407.79 690.309"/><polygon class="cls-15" points="421.501 692.594 452.354 674.782 452.354 664.582 421.501 682.393 421.501 692.594"/><polygon class="cls-15" points="466.065 666.866 532.253 628.652 532.253 618.451 466.065 656.664 466.065 666.866"/><polygon class="cls-15" points="434.071 702.835 384.08 731.697 384.08 741.898 434.071 713.036 434.071 702.835"/><polygon class="cls-15" points="478.635 677.106 447.783 694.918 447.783 705.12 478.635 687.307 478.635 677.106"/><polygon class="cls-15" points="492.346 669.19 492.346 679.391 518.541 664.267 518.541 654.065 492.346 669.19"/><polygon class="cls-15" points="407.79 745.707 384.08 759.395 384.08 769.597 407.79 755.907 407.79 745.707"/><polygon class="cls-15" points="421.501 747.991 452.354 730.179 452.354 719.978 421.501 737.79 421.501 747.991"/><polygon class="cls-15" points="526.5 687.37 526.5 677.169 466.065 712.061 466.065 722.262 526.5 687.37"/><polygon class="cls-12" points="700.643 560.352 694.639 563.819 694.639 566.402 700.643 562.935 700.643 560.352"/><polygon class="cls-12" points="711.927 553.837 704.115 558.348 704.115 560.931 711.927 556.42 711.927 553.837"/><polygon class="cls-12" points="736.86 542.026 736.86 539.443 715.4 551.832 715.4 554.416 736.86 542.026"/><polygon class="cls-12" points="707.298 563.524 694.639 570.833 694.639 573.416 707.298 566.107 707.298 563.524"/><polygon class="cls-12" points="710.77 564.102 718.582 559.592 718.582 557.009 710.77 561.519 710.77 564.102"/><polygon class="cls-12" points="728.688 553.757 728.688 551.174 722.055 555.004 722.055 557.587 728.688 553.757"/><polygon class="cls-12" points="732.16 551.753 736.597 549.192 736.597 546.608 732.16 549.17 732.16 551.753"/><polygon class="cls-12" points="700.643 574.38 694.639 577.846 694.639 580.43 700.643 576.963 700.643 574.38"/><polygon class="cls-12" points="704.115 574.959 711.927 570.448 711.927 567.865 704.115 572.376 704.115 574.959"/><polygon class="cls-12" points="715.4 568.444 732.16 558.767 732.16 556.184 715.4 565.86 715.4 568.444"/><polygon class="cls-12" points="707.298 577.552 694.639 584.861 694.639 587.444 707.298 580.135 707.298 577.552"/><polygon class="cls-12" points="718.582 571.037 710.77 575.547 710.77 578.13 718.582 573.62 718.582 571.037"/><polygon class="cls-12" points="722.055 569.032 722.055 571.615 728.688 567.785 728.688 565.202 722.055 569.032"/><polygon class="cls-12" points="700.643 588.408 694.639 591.874 694.639 594.458 700.643 590.991 700.643 588.408"/><polygon class="cls-12" points="704.115 588.987 711.927 584.476 711.927 581.893 704.115 586.404 704.115 588.987"/><polygon class="cls-12" points="730.703 573.636 730.703 571.053 715.4 579.888 715.4 582.471 730.703 573.636"/><polygon class="cls-15" points="1383.181 393.78 1362.265 405.856 1362.265 414.856 1383.181 402.779 1383.181 393.78"/><polygon class="cls-15" points="1422.495 371.083 1395.278 386.797 1395.278 395.796 1422.495 380.083 1422.495 371.083"/><polygon class="cls-15" points="1508.438 330.463 1508.438 321.464 1434.591 364.099 1434.591 373.098 1508.438 330.463"/><polygon class="cls-15" points="1535.92 305.597 1520.535 314.48 1520.535 323.479 1535.92 314.596 1535.92 305.597"/><polygon class="cls-15" points="1406.366 404.83 1362.265 430.292 1362.265 439.291 1406.366 413.83 1406.366 404.83"/><polygon class="cls-15" points="1418.462 406.845 1445.68 391.132 1445.68 382.132 1418.462 397.846 1418.462 406.845"/><polygon class="cls-15" points="1480.885 370.805 1480.885 361.806 1457.776 375.148 1457.776 384.148 1480.885 370.805"/><polygon class="cls-15" points="1492.982 363.822 1522.719 346.653 1522.719 337.654 1492.982 354.823 1492.982 363.822"/><polygon class="cls-15" points="1383.181 442.651 1362.265 454.727 1362.265 463.726 1383.181 451.65 1383.181 442.651"/><polygon class="cls-15" points="1395.278 444.666 1422.495 428.952 1422.495 419.953 1395.278 435.667 1395.278 444.666"/><polygon class="cls-15" points="1434.591 421.969 1508.438 379.333 1508.438 370.334 1434.591 412.97 1434.591 421.969"/><polygon class="cls-15" points="1406.366 453.701 1362.265 479.162 1362.265 488.162 1406.366 462.7 1406.366 453.701"/><polygon class="cls-15" points="1445.68 431.003 1418.462 446.717 1418.462 455.716 1445.68 440.003 1445.68 431.003"/><polygon class="cls-15" points="1457.776 424.019 1457.776 433.018 1480.885 419.676 1480.885 410.677 1457.776 424.019"/><polygon class="cls-15" points="1522.719 386.524 1492.982 403.693 1492.982 412.692 1522.719 395.524 1522.719 386.524"/><polygon class="cls-15" points="1383.181 491.522 1362.265 503.598 1362.265 512.597 1383.181 500.521 1383.181 491.522"/><polygon class="cls-15" points="1395.278 493.537 1422.495 477.823 1422.495 468.824 1395.278 484.537 1395.278 493.537"/><polygon class="cls-15" points="1508.438 428.204 1508.438 419.204 1434.591 461.84 1434.591 470.839 1508.438 428.204"/><polygon class="cls-11" points="704.485 465.627 694.73 471.259 694.73 461.504 704.485 455.872 704.485 465.627"/><polygon class="cls-8" points="704.485 486.911 694.73 492.543 694.73 482.788 704.485 477.155 704.485 486.911"/><polygon class="cls-20" points="704.485 508.195 694.73 513.827 694.73 504.071 704.485 498.439 704.485 508.195"/><polygon class="cls-5" points="704.485 529.478 694.73 535.111 694.73 525.355 704.485 519.723 704.485 529.478"/><path class="cls-12" d="M715.547,452.266l-6,3.466v-2.583l6-3.466Zm11.284-9.1-7.812,4.511v2.583l7.812-4.51Zm24.67-11.659v-2.583l-21.2,12.238v2.583Zm-29.3,21.346-12.659,7.309v2.583l12.659-7.308Zm3.472.579,7.812-4.511v-2.583l-7.812,4.511Zm17.918-10.345v-2.583l-6.633,3.829v2.584Z"/><path class="cls-12" d="M715.547,494.96l-6,3.466v-2.583l6-3.467Zm11.284-9.1-7.812,4.511v2.583l7.812-4.51Zm10.711-3.6v-2.583l-7.238,4.179v2.583ZM722.2,495.548l-12.659,7.309v2.583l12.659-7.309Zm3.472.579,11-6.353v-2.583l-11,6.352Z"/><path class="cls-12" d="M715.547,516.032l-6,3.466v-2.583l6-3.466Zm11.284-9.1-7.812,4.511v2.583l7.812-4.51Zm16.808-7.12v-2.584l-13.335,7.7v2.583ZM722.2,516.62l-12.659,7.309v2.583L722.2,519.2Zm3.472.579,11-6.353v-2.583l-11,6.353Z"/><path class="cls-12" d="M715.547,473.227l-6,3.466V474.11l6-3.466Zm11.284-9.1-7.812,4.51v2.583l7.812-4.51Zm10.336-3.384v-2.584l-6.863,3.963v2.583ZM722.2,473.816l-12.659,7.308v2.583L722.2,476.4Zm3.472.578,7.812-4.51V467.3l-7.812,4.511Z"/><path class="cls-12" d="M776.916,344.858a17.953,17.953,0,0,1-9.078-2.263c-5.579-3.222-8.652-9.655-8.652-18.114,0-19.073,15.5-43.536,34.542-54.533,10.135-5.853,19.8-6.987,26.5-3.113,5.58,3.221,8.652,9.653,8.652,18.113,0,19.073-15.5,43.535-34.542,54.533C788.17,343.043,782.175,344.858,776.916,344.858Zm34.23-79.067c-5.037,0-10.82,1.762-16.8,5.217-18.71,10.8-33.931,34.79-33.931,53.473,0,8,2.856,14.06,8.04,17.053,6.32,3.647,15.532,2.512,25.278-3.113,18.71-10.8,33.931-34.79,33.931-53.473,0-8-2.856-14.06-8.04-17.053A16.755,16.755,0,0,0,811.146,265.791Z"/><path class="cls-12" d="M893.861,181.332c-.423-.6-1.324-.584-2.269-.083l-2.039,1.079a11.6,11.6,0,0,0-2.431,1.818,7.435,7.435,0,0,1-3.347,1.933,7.508,7.508,0,0,0-2.432.989l-2.022,1.264a6.148,6.148,0,0,0-2.412,3.061,6.847,6.847,0,0,0-.4,2.2v7c0,1.179.955,1.583,2.134.9l13.61-7.859a4.425,4.425,0,0,0,2.135-3.366v-7A3.323,3.323,0,0,0,893.861,181.332Z"/><path class="cls-12" d="M885.448,182.951c3.643-2.1,6.6-6.762,6.6-10.406s-2.954-4.891-6.6-2.788-6.6,6.762-6.6,10.406S881.805,185.054,885.448,182.951Z"/><path class="cls-12" d="M874.612,210.208a11.574,11.574,0,0,1-5.856-1.462c-3.6-2.081-5.59-6.221-5.59-11.66,0-12.143,9.858-27.714,21.976-34.71,6.487-3.746,12.682-4.465,17-1.971,3.6,2.081,5.588,6.221,5.588,11.66,0,12.143-9.858,27.714-21.976,34.71A22.816,22.816,0,0,1,874.612,210.208Zm21.666-50.044a21.648,21.648,0,0,0-10.524,3.271c-11.779,6.8-21.363,21.9-21.363,33.651,0,4.982,1.768,8.747,4.977,10.6,3.928,2.268,9.676,1.548,15.774-1.971,11.78-6.8,21.364-21.9,21.364-33.65,0-4.982-1.767-8.747-4.976-10.6A10.384,10.384,0,0,0,896.278,160.164Z"/><path class="cls-12" d="M657.814,378.8c-.423-.6-1.324-.584-2.269-.084l-2.039,1.08a11.567,11.567,0,0,0-2.431,1.818,7.433,7.433,0,0,1-3.347,1.932,7.534,7.534,0,0,0-2.432.99l-2.022,1.264a6.154,6.154,0,0,0-2.412,3.061,6.848,6.848,0,0,0-.4,2.2v7c0,1.179.956,1.583,2.135.9l13.61-7.858a4.426,4.426,0,0,0,2.135-3.366v-7A3.318,3.318,0,0,0,657.814,378.8Z"/><path class="cls-12" d="M649.4,380.42c3.643-2.1,6.6-6.762,6.6-10.405s-2.954-4.891-6.6-2.788-6.6,6.762-6.6,10.405S645.758,382.524,649.4,380.42Z"/><path class="cls-12" d="M638.564,407.677a11.586,11.586,0,0,1-5.856-1.461c-3.6-2.081-5.588-6.222-5.588-11.66,0-12.144,9.858-27.714,21.975-34.71,6.487-3.748,12.678-4.468,17-1.97,3.6,2.079,5.589,6.22,5.589,11.658,0,12.144-9.858,27.715-21.976,34.711A22.828,22.828,0,0,1,638.564,407.677Zm21.666-50.043a21.642,21.642,0,0,0-10.523,3.272c-11.779,6.8-21.363,21.9-21.363,33.65,0,4.982,1.768,8.747,4.977,10.6,3.927,2.268,9.675,1.549,15.774-1.969,11.78-6.8,21.363-21.9,21.363-33.652,0-4.982-1.767-8.745-4.976-10.6A10.389,10.389,0,0,0,660.23,357.634Z"/><path class="cls-12" d="M598.721,228.95c-.423-.6-1.324-.584-2.269-.083l-2.039,1.079a11.637,11.637,0,0,0-2.431,1.818,7.433,7.433,0,0,1-3.348,1.933,7.493,7.493,0,0,0-2.431.99l-2.022,1.263a6.15,6.15,0,0,0-2.413,3.061,6.879,6.879,0,0,0-.4,2.2v7c0,1.179.956,1.583,2.135.9l13.61-7.857a4.428,4.428,0,0,0,2.135-3.367v-7A3.318,3.318,0,0,0,598.721,228.95Z"/><path class="cls-12" d="M590.308,230.569c3.643-2.1,6.6-6.763,6.6-10.406s-2.954-4.891-6.6-2.788-6.6,6.762-6.6,10.406S586.664,232.672,590.308,230.569Z"/><path class="cls-12" d="M579.472,257.827a11.561,11.561,0,0,1-5.856-1.463c-3.605-2.081-5.59-6.221-5.59-11.66,0-12.142,9.858-27.714,21.975-34.71,6.487-3.745,12.68-4.466,17-1.971,3.6,2.081,5.588,6.222,5.588,11.66,0,12.143-9.859,27.715-21.976,34.71A22.821,22.821,0,0,1,579.472,257.827Zm21.665-50.045a21.639,21.639,0,0,0-10.523,3.272c-11.78,6.8-21.363,21.9-21.363,33.65,0,4.982,1.767,8.747,4.977,10.6,3.926,2.266,9.677,1.547,15.773-1.971,11.781-6.8,21.364-21.9,21.364-33.651,0-4.982-1.767-8.746-4.975-10.6A10.4,10.4,0,0,0,601.137,207.782Z"/><path class="cls-12" d="M978.534,199.046c-.248-.351-.774-.341-1.326-.048l-1.192.631a6.749,6.749,0,0,0-1.421,1.062,4.342,4.342,0,0,1-1.957,1.13,4.406,4.406,0,0,0-1.421.578l-1.181.739a3.6,3.6,0,0,0-1.411,1.789,4.025,4.025,0,0,0-.234,1.284V210.3c0,.689.559.925,1.248.528l7.955-4.593a2.587,2.587,0,0,0,1.247-1.968v-4.094A1.943,1.943,0,0,0,978.534,199.046Z"/><path class="cls-12" d="M973.616,199.993a8,8,0,0,0,3.856-6.082c0-2.13-1.726-2.859-3.856-1.63a8,8,0,0,0-3.855,6.082C969.761,200.492,971.487,201.222,973.616,199.993Z"/><path class="cls-12" d="M967.281,216.178a7.029,7.029,0,0,1-3.548-.887c-2.188-1.264-3.394-3.764-3.394-7.037,0-7.178,5.819-16.378,12.972-20.508,3.872-2.236,7.587-2.652,10.19-1.152,2.188,1.264,3.394,3.763,3.394,7.036,0,7.179-5.819,16.379-12.972,20.508A13.6,13.6,0,0,1,967.281,216.178Zm12.663-29.251a12.4,12.4,0,0,0-6.021,1.879c-6.815,3.936-12.359,12.659-12.359,19.448,0,2.818.987,4.94,2.781,5.976,2.215,1.28,5.486.858,8.966-1.151,6.815-3.936,12.359-12.66,12.359-19.449,0-2.817-.988-4.94-2.782-5.976A5.832,5.832,0,0,0,979.944,186.927Z"/><path class="cls-12" d="M688.15,245.271c-.248-.351-.774-.341-1.327-.048l-1.191.631a6.749,6.749,0,0,0-1.421,1.062,4.342,4.342,0,0,1-1.957,1.13,4.406,4.406,0,0,0-1.421.578l-1.182.739a3.6,3.6,0,0,0-1.41,1.789,4.023,4.023,0,0,0-.233,1.284v4.093c0,.689.558.925,1.247.528l7.955-4.593a2.589,2.589,0,0,0,1.248-1.968V246.4A1.943,1.943,0,0,0,688.15,245.271Z"/><path class="cls-12" d="M683.233,246.218a8,8,0,0,0,3.855-6.082c0-2.129-1.726-2.859-3.855-1.63a8,8,0,0,0-3.856,6.082C679.377,246.717,681.1,247.447,683.233,246.218Z"/><path class="cls-12" d="M676.9,262.4a7.028,7.028,0,0,1-3.549-.887c-2.189-1.264-3.394-3.763-3.394-7.037,0-7.177,5.819-16.377,12.971-20.508,3.875-2.236,7.587-2.653,10.19-1.152,2.189,1.264,3.394,3.763,3.394,7.036,0,7.179-5.819,16.379-12.971,20.508A13.585,13.585,0,0,1,676.9,262.4Zm12.662-29.251a12.4,12.4,0,0,0-6.021,1.879c-6.816,3.937-12.36,12.661-12.36,19.448,0,2.818.988,4.941,2.782,5.976,2.215,1.276,5.481.858,8.965-1.151,6.816-3.936,12.36-12.66,12.36-19.449,0-2.817-.988-4.94-2.782-5.976A5.832,5.832,0,0,0,689.56,233.152Z"/><path class="cls-12" d="M754.191,157.834c-.423-.6-1.324-.584-2.269-.084l-2.039,1.081a11.6,11.6,0,0,0-2.431,1.817,7.43,7.43,0,0,1-3.347,1.933,7.508,7.508,0,0,0-2.432.989l-2.021,1.264a6.15,6.15,0,0,0-2.413,3.061,6.851,6.851,0,0,0-.4,2.2v7c0,1.178.955,1.582,2.134.9l13.611-7.858a4.429,4.429,0,0,0,2.134-3.367v-7A3.323,3.323,0,0,0,754.191,157.834Z"/><path class="cls-12" d="M745.778,159.453c3.643-2.1,6.6-6.762,6.6-10.406s-2.954-4.891-6.6-2.788-6.6,6.762-6.6,10.406S742.135,161.556,745.778,159.453Z"/><path class="cls-12" d="M734.942,186.711a11.568,11.568,0,0,1-5.857-1.463c-3.6-2.081-5.589-6.221-5.589-11.659,0-12.143,9.859-27.715,21.977-34.711,6.485-3.748,12.679-4.465,17-1.97,3.6,2.08,5.589,6.22,5.589,11.659,0,12.143-9.857,27.715-21.975,34.71A22.822,22.822,0,0,1,734.942,186.711Zm21.666-50.045a21.639,21.639,0,0,0-10.523,3.272c-11.781,6.8-21.364,21.9-21.364,33.651,0,4.981,1.767,8.746,4.976,10.6,3.93,2.267,9.679,1.549,15.776-1.969,11.779-6.8,21.363-21.9,21.363-33.651,0-4.982-1.768-8.746-4.978-10.6A10.394,10.394,0,0,0,756.608,136.666Z"/><path class="cls-12" d="M814.485,306.506l-2.864-24.525c-.048-.409-.417-.526-.856-.273l-9.221,5.324V282.4c0-.787-.641-1.057-1.428-.6l-11.867,6.852a2.963,2.963,0,0,0-1.426,2.25v4.631l-9.071,5.237a1.834,1.834,0,0,0-.856,1.261l-2.864,27.832c-.056.541.343.756.855.46l38.743-22.368A1.726,1.726,0,0,0,814.485,306.506Zm-26.518-16.265a.589.589,0,0,1,.282-.446l11.867-6.851c.156-.09.283-.036.283.119v4.631l-12.432,7.177Z"/><path class="cls-12" d="M671.071,370.146a.612.612,0,0,1-.3-1.148l88.852-49.048a.612.612,0,0,1,.591,1.071L671.366,370.07A.6.6,0,0,1,671.071,370.146Z"/><path class="cls-12" d="M794.035,375.812a.612.612,0,0,1-.613-.612V338.951a.613.613,0,0,1,1.225,0V375.2A.611.611,0,0,1,794.035,375.812Z"/><path class="cls-12" d="M828.271,285.56a.612.612,0,0,1-.306-1.142l132.68-76.6a.612.612,0,0,1,.613,1.059l-132.681,76.6A.609.609,0,0,1,828.271,285.56Z"/><path class="cls-12" d="M794.035,271.09a.612.612,0,0,1-.613-.612v-59.1L746.1,184.057a.612.612,0,1,1,.613-1.059l47.628,27.5a.612.612,0,0,1,.306.53v59.453A.612.612,0,0,1,794.035,271.09Z"/><path class="cls-12" d="M822.193,269.23a.612.612,0,0,1-.307-1.142l61.12-35.287V207.436a.612.612,0,1,1,1.224,0v25.719a.612.612,0,0,1-.306.53L822.5,269.148A.611.611,0,0,1,822.193,269.23Z"/><path class="cls-12" d="M715.105,326.938a.608.608,0,0,1-.306-.082L590.211,254.924a.612.612,0,1,1,.612-1.059l124.282,71.754,54.175-31.278a.612.612,0,0,1,.612,1.06l-54.481,31.455A.611.611,0,0,1,715.105,326.938Z"/><path class="cls-12" d="M780.018,282.188a.614.614,0,0,1-.307-.083l-78.267-45.188-5.235,3.023a.612.612,0,1,1-.612-1.06l5.541-3.2a.609.609,0,0,1,.612,0l78.574,45.366a.612.612,0,0,1-.306,1.142Z"/><path class="cls-36" d="M1202.065,726.253a78.661,78.661,0,0,1,10.842-5.158c2.649,2.839,4.632,5.492,7.241,8.378-12.966,6.96-18.864,9.555-22,5C1196.31,730.767,1198.67,728.338,1202.065,726.253Z"/><path class="cls-37" d="M1203.952,726.916a69.549,69.549,0,0,1,10.14-4.344c2.038,2.136,4.1,4.254,6.08,6.447.857.948,1.689,1.915,2.527,2.878-3.811,2.074-7.665,2.238-10.539,3.416-7.343,3.011-11.025,2.69-13.789-.184C1196.079,732.746,1200.42,728.717,1203.952,726.916Z"/><path class="cls-38" d="M1244.125,692.742c.455-.283,6.7,3.091,9.437,7.778,3.921,6.713,3.969,14.2,3.446,14.942-.765,1.091-24.752,5.912-35.629,8.223l-18.243-15.241C1207.071,704.777,1238.021,696.541,1244.125,692.742Z"/><path class="cls-37" d="M1206.461,707.242a64.635,64.635,0,0,1,28.2,13.3,227.494,227.494,0,0,0,22.348,16.689s-5.9,11.739-8.137,11.3c-21.5-12.928-51.14-21.541-49.494-33.56C1200.4,707.5,1205.612,707.069,1206.461,707.242Z"/><path class="cls-37" d="M1260.158,746.568a89.91,89.91,0,0,1-5.87,14.763c-1.373,2.777-4.056,5.172-7.73,2.754-5.512-3.63-2.683-10.218,5.417-22.535C1254.669,743.276,1257.426,744.9,1260.158,746.568Z"/><path class="cls-36" d="M1262.8,746.621c-2.146,4.616-5.513,10.1-7.456,14.032a8.5,8.5,0,0,1-3.922,4.18,3.59,3.59,0,0,1-4.948-1.938c-1.109-3.626,1.846-10.014,8.052-19.541C1257.152,744.96,1260.2,744.966,1262.8,746.621Z"/><path class="cls-37" d="M1278.668,730.848c.973,18.233-6.427,20.934-9.495,21.485-7.581,1.36-19.113-8.445-27.109-15.544-7.563-6.714-10.139-10.847-13.589-13.831,6.994.311,22.627,2.275,24.915,2.484,0,0-1.81-24.878,1.639-26.761a5.867,5.867,0,0,1,2.889-.481,91.573,91.573,0,0,1,10.026.65c2.152.258,9.759.507,9.759.507-.237,1.727.055,7.821.1,8.9C1277.985,712.2,1278.338,724.646,1278.668,730.848Z"/><path class="cls-39" d="M1236.213,671.239c.455-3.752,1.3-13.593,1.3-13.593s1.091-2.7,2.5-1.8c3.921,2.517,7.889,4.869,12.275,5.956-2.066,6.247-4.156,12.012-5.279,15.049-.611,1.655-11.874,22.128-12.254,24.015l-7.386-3.372C1228.3,696.823,1236.129,671.933,1236.213,671.239Z"/><path class="cls-40" d="M1254.058,667.092c-1.268,4.473-18.866.105-19.5-3.634.092-7.679,7.179-36.38,17.3-34.241C1251.861,629.217,1264.993,629.707,1254.058,667.092Z"/><path class="cls-40" d="M1282.885,647.481c6.657,8.269-1.444,20.888-3.525,28.111-2.283,7.923-1.414,13.577-1.112,22.592.447,13.327-43.621,5.676-35.705-9.025a27.177,27.177,0,0,0,2.5-5.6c1.054-3.835-2.234-17.254-4.666-32.778a20.822,20.822,0,0,1-.225-4.084,23.887,23.887,0,0,1,.546-4.809c.581-2.44,4.87-8.223,7.224-9.088C1255.878,629.878,1280.285,644.252,1282.885,647.481Z"/><g class="cls-41"><path class="cls-42" d="M1265.6,720.254l0,.9a.5.5,0,0,1-.3.416l-22.788,13.157a1.582,1.582,0,0,1-1.434,0l-32.24-18.736a.5.5,0,0,1-.293-.411l0-.9Z"/><path class="cls-40" d="M1208.841,714.262l22.788-13.157a1.576,1.576,0,0,1,1.431,0l32.24,18.737a.438.438,0,0,1,0,.829l-22.788,13.157a1.582,1.582,0,0,1-1.434,0l-32.241-18.736A.439.439,0,0,1,1208.841,714.262Z"/></g><path class="cls-42" d="M1234.1,712.713l10.634,6.14a.957.957,0,0,0,.866,0l7.048-4.07a.264.264,0,0,0,0-.5l-10.634-6.14a.957.957,0,0,0-.866,0l-7.048,4.07A.264.264,0,0,0,1234.1,712.713Z"/><path class="cls-43" d="M1249.749,725.368l1.2-.7a.561.561,0,0,1,.505,0l1.433.828a.153.153,0,0,1,0,.291l-1.205.7a.555.555,0,0,1-.5,0l-1.433-.827A.154.154,0,0,1,1249.749,725.368Zm-2.314-1.046,1.433.828a.553.553,0,0,0,.5,0l1.206-.7a.154.154,0,0,0,0-.291l-1.434-.828a.559.559,0,0,0-.5,0l-1.205.7A.153.153,0,0,0,1247.435,724.322Zm-2.315-1.336,1.434.828a.559.559,0,0,0,.5,0l1.206-.7a.154.154,0,0,0,0-.291L1246.83,722a.559.559,0,0,0-.5,0l-1.206.7A.154.154,0,0,0,1245.12,722.986Zm-2.314-1.336,1.433.828a.559.559,0,0,0,.5,0l1.206-.7a.154.154,0,0,0,0-.291l-1.433-.827a.555.555,0,0,0-.505,0l-1.2.7A.153.153,0,0,0,1242.806,721.65Zm-2.315-1.336,1.434.827a.553.553,0,0,0,.5,0l1.206-.7a.154.154,0,0,0,0-.291l-1.434-.828a.559.559,0,0,0-.5,0l-1.206.7A.154.154,0,0,0,1240.491,720.314Zm-2.314-1.337,1.433.828a.555.555,0,0,0,.505,0l1.2-.7a.153.153,0,0,0,0-.291l-1.433-.828a.561.561,0,0,0-.5,0l-1.205.7A.154.154,0,0,0,1238.177,718.977Zm-2.315-1.336,1.434.828a.559.559,0,0,0,.5,0l1.206-.7a.154.154,0,0,0,0-.291l-1.434-.828a.559.559,0,0,0-.5,0l-1.206.7A.154.154,0,0,0,1235.862,717.641Zm-2.314-1.336,1.434.828a.559.559,0,0,0,.5,0l1.2-.7a.153.153,0,0,0,0-.291l-1.433-.828a.553.553,0,0,0-.5,0l-1.206.7A.154.154,0,0,0,1233.548,716.305Zm-2.314-1.336,1.433.828a.559.559,0,0,0,.5,0l1.206-.7a.154.154,0,0,0,0-.291l-1.434-.828a.559.559,0,0,0-.5,0l-1.205.7A.153.153,0,0,0,1231.234,714.969Zm-3.061-1.767,2.18,1.258a.553.553,0,0,0,.5,0l1.206-.7a.154.154,0,0,0,0-.291l-2.18-1.259a.559.559,0,0,0-.5,0l-1.206.7A.154.154,0,0,0,1228.173,713.2Zm-8.693,2.31,1.434.828a.559.559,0,0,0,.5,0l1.206-.7a.154.154,0,0,0,0-.292l-1.434-.827a.553.553,0,0,0-.5,0l-1.206.7A.154.154,0,0,0,1219.48,715.512Zm-2.314-1.336,1.433.827a.555.555,0,0,0,.505,0l1.2-.7a.154.154,0,0,0,0-.291l-1.433-.827a.555.555,0,0,0-.5,0l-1.205.7A.153.153,0,0,0,1217.166,714.176Zm-2.315-1.336,1.434.827a.553.553,0,0,0,.5,0l1.206-.7a.154.154,0,0,0,0-.291l-1.434-.828a.559.559,0,0,0-.5,0l-1.206.7A.154.154,0,0,0,1214.851,712.84Zm2.513,3.894,1.434.827a.553.553,0,0,0,.5,0l1.206-.7a.154.154,0,0,0,0-.291l-1.434-.828a.559.559,0,0,0-.5,0l-1.206.7A.154.154,0,0,0,1217.364,716.734Zm-2.314-1.337,1.434.828a.559.559,0,0,0,.5,0l1.2-.7a.153.153,0,0,0,0-.291l-1.433-.828a.561.561,0,0,0-.5,0l-1.205.7A.154.154,0,0,0,1215.05,715.4Zm-2.315-1.336,1.434.828a.559.559,0,0,0,.5,0l1.206-.7a.154.154,0,0,0,0-.291l-1.434-.828a.553.553,0,0,0-.5,0l-1.206.7A.154.154,0,0,0,1212.735,714.061Zm34.112,12.376,2.18,1.258a.559.559,0,0,0,.5,0l1.206-.7a.154.154,0,0,0,0-.291l-2.18-1.259a.559.559,0,0,0-.5,0l-1.206.7A.154.154,0,0,0,1246.847,726.437Zm-2.314-1.337,1.433.828a.561.561,0,0,0,.505,0l1.2-.7a.153.153,0,0,0,0-.291l-1.433-.828a.555.555,0,0,0-.5,0l-1.205.7A.153.153,0,0,0,1244.533,725.1Zm-2.315-1.336,1.434.828a.559.559,0,0,0,.5,0l1.206-.7a.154.154,0,0,0,0-.292l-1.434-.827a.553.553,0,0,0-.5,0l-1.206.7A.154.154,0,0,0,1242.218,723.764Zm-2.314-1.336,1.434.827a.553.553,0,0,0,.5,0l1.2-.7a.153.153,0,0,0,0-.291l-1.433-.827a.553.553,0,0,0-.5,0l-1.206.7A.154.154,0,0,0,1239.9,722.428Zm-2.315-1.336,1.434.827a.553.553,0,0,0,.5,0l1.206-.7a.154.154,0,0,0,0-.291l-1.434-.828a.559.559,0,0,0-.5,0l-1.206.7A.154.154,0,0,0,1237.589,721.092Zm-2.314-1.337,1.434.828a.559.559,0,0,0,.5,0l1.2-.7a.153.153,0,0,0,0-.291l-1.433-.828a.559.559,0,0,0-.5,0l-1.206.7A.154.154,0,0,0,1235.275,719.755Zm-2.314-1.336,1.433.828a.561.561,0,0,0,.5,0l1.205-.7a.154.154,0,0,0,0-.292l-1.433-.827a.555.555,0,0,0-.505,0l-1.2.7A.153.153,0,0,0,1232.961,718.419Zm-2.315-1.336,1.434.827a.553.553,0,0,0,.5,0l1.206-.7a.154.154,0,0,0,0-.291l-1.434-.827a.553.553,0,0,0-.5,0l-1.206.7A.154.154,0,0,0,1230.646,717.083Zm-2.314-1.336,1.433.827a.555.555,0,0,0,.5,0l1.2-.7a.153.153,0,0,0,0-.291l-1.433-.828a.561.561,0,0,0-.5,0l-1.2.7A.154.154,0,0,0,1228.332,715.747Zm-2.314-1.337,1.433.828a.561.561,0,0,0,.5,0l1.205-.7a.154.154,0,0,0,0-.291l-1.433-.828a.561.561,0,0,0-.505,0l-1.2.7A.153.153,0,0,0,1226.018,714.41Zm19.525,13.677,1.434.828a.559.559,0,0,0,.5,0l1.206-.7a.154.154,0,0,0,0-.292l-1.434-.827a.553.553,0,0,0-.5,0l-1.206.7A.154.154,0,0,0,1245.543,728.087Zm-2.314-1.336,1.433.827a.555.555,0,0,0,.5,0l1.205-.7a.154.154,0,0,0,0-.291l-1.433-.828a.561.561,0,0,0-.505,0l-1.2.7A.154.154,0,0,0,1243.229,726.751Zm-2.315-1.337,1.434.828a.559.559,0,0,0,.5,0l1.206-.7a.154.154,0,0,0,0-.291l-1.434-.828a.559.559,0,0,0-.5,0l-1.206.7A.154.154,0,0,0,1240.914,725.414Zm-2.314-1.336,1.433.828a.561.561,0,0,0,.505,0l1.2-.7a.153.153,0,0,0,0-.291l-1.433-.828a.555.555,0,0,0-.5,0l-1.205.7A.154.154,0,0,0,1238.6,724.078Zm2.746,6.432,1.434.828a.559.559,0,0,0,.5,0l1.206-.7a.154.154,0,0,0,0-.291l-1.434-.828a.553.553,0,0,0-.5,0l-1.206.7A.154.154,0,0,0,1241.346,730.51Zm-2.314-1.336,1.433.828a.561.561,0,0,0,.505,0l1.2-.7a.153.153,0,0,0,0-.291l-1.433-.828a.561.561,0,0,0-.5,0l-1.205.7A.153.153,0,0,0,1239.032,729.174Zm-2.315-1.337,1.434.828a.553.553,0,0,0,.5,0l1.206-.7a.154.154,0,0,0,0-.291l-1.434-.828a.559.559,0,0,0-.5,0l-1.206.7A.154.154,0,0,0,1236.717,727.837ZM1234.4,726.5l1.434.828a.559.559,0,0,0,.5,0l1.205-.7a.153.153,0,0,0,0-.291l-1.433-.828a.559.559,0,0,0-.5,0l-1.206.7A.154.154,0,0,0,1234.4,726.5Zm-14.619-8.44,2.18,1.259a.559.559,0,0,0,.5,0l1.206-.7a.154.154,0,0,0,0-.292l-2.18-1.258a.553.553,0,0,0-.5,0l-1.206.7A.154.154,0,0,0,1219.784,718.061Zm16.5,4.681,1.433.828a.561.561,0,0,0,.5,0l1.205-.7a.154.154,0,0,0,0-.292l-1.433-.827a.555.555,0,0,0-.505,0l-1.2.7A.153.153,0,0,0,1236.286,722.742Zm-2.315-1.336,1.434.827a.553.553,0,0,0,.5,0l1.206-.7a.154.154,0,0,0,0-.291l-1.434-.828a.559.559,0,0,0-.5,0l-1.206.7A.154.154,0,0,0,1233.971,721.406Zm-2.314-1.337,1.433.828a.561.561,0,0,0,.505,0l1.2-.7a.153.153,0,0,0,0-.291l-1.433-.828a.561.561,0,0,0-.5,0l-1.205.7A.154.154,0,0,0,1231.657,720.069Zm-2.315-1.336,1.434.828a.559.559,0,0,0,.5,0l1.206-.7a.154.154,0,0,0,0-.291l-1.434-.828a.553.553,0,0,0-.5,0l-1.206.7A.154.154,0,0,0,1229.342,718.733Zm-2.314-1.336,1.434.828a.559.559,0,0,0,.5,0l1.206-.7a.154.154,0,0,0,0-.292l-1.434-.827a.553.553,0,0,0-.5,0l-1.206.7A.154.154,0,0,0,1227.028,717.4Zm-3.061-1.767,2.18,1.258a.553.553,0,0,0,.5,0l1.206-.7a.154.154,0,0,0,0-.291l-2.18-1.258a.553.553,0,0,0-.5,0l-1.206.7A.154.154,0,0,0,1223.967,715.63Zm18.675,13.235,2.179,1.258a.555.555,0,0,0,.505,0l1.2-.7a.154.154,0,0,0,0-.291l-2.179-1.259a.561.561,0,0,0-.505,0l-1.2.7A.154.154,0,0,0,1242.642,728.865Zm-2.315-1.337,1.434.828a.553.553,0,0,0,.5,0l1.206-.7a.154.154,0,0,0,0-.291l-1.434-.828a.559.559,0,0,0-.5,0l-1.206.7A.154.154,0,0,0,1240.327,727.528Zm-2.314-1.336,1.433.828a.561.561,0,0,0,.505,0l1.2-.7a.154.154,0,0,0,0-.291l-1.433-.828a.561.561,0,0,0-.5,0l-1.205.7A.154.154,0,0,0,1238.013,726.192Zm-2.315-1.336,1.434.828a.559.559,0,0,0,.5,0l1.206-.7a.154.154,0,0,0,0-.292l-1.434-.827a.553.553,0,0,0-.5,0l-1.206.7A.154.154,0,0,0,1235.7,724.856Zm-2.314-1.336,1.434.827a.553.553,0,0,0,.5,0l1.205-.7a.153.153,0,0,0,0-.291l-1.433-.828a.559.559,0,0,0-.5,0l-1.206.7A.154.154,0,0,0,1233.384,723.52Zm-2.314-1.337,1.433.828a.553.553,0,0,0,.5,0l1.206-.7a.154.154,0,0,0,0-.291l-1.434-.828a.559.559,0,0,0-.5,0l-1.205.7A.153.153,0,0,0,1231.07,722.183Zm-2.315-1.336,1.434.828a.559.559,0,0,0,.5,0l1.206-.7a.154.154,0,0,0,0-.291l-1.434-.828a.559.559,0,0,0-.5,0l-1.206.7A.154.154,0,0,0,1228.755,720.847Zm-2.314-1.336,1.433.828a.559.559,0,0,0,.5,0l1.206-.7a.154.154,0,0,0,0-.292l-1.433-.827a.555.555,0,0,0-.505,0l-1.2.7A.153.153,0,0,0,1226.441,719.511Zm-2.315-1.336,1.434.827a.553.553,0,0,0,.5,0l1.206-.7a.154.154,0,0,0,0-.291l-1.434-.828a.559.559,0,0,0-.5,0l-1.206.7A.154.154,0,0,0,1224.126,718.175Zm-2.314-1.337,1.433.828a.555.555,0,0,0,.505,0l1.2-.7a.153.153,0,0,0,0-.291l-1.433-.828a.559.559,0,0,0-.5,0l-1.206.7A.154.154,0,0,0,1221.812,716.838Zm4-4.984,1.434.828a.553.553,0,0,0,.5,0l1.206-.7a.154.154,0,0,0,0-.291l-1.434-.828a.559.559,0,0,0-.5,0l-1.206.7A.154.154,0,0,0,1225.815,711.854Zm-2.314-1.336,1.434.828a.559.559,0,0,0,.5,0l1.2-.7a.153.153,0,0,0,0-.291l-1.433-.828a.561.561,0,0,0-.505,0l-1.2.7A.154.154,0,0,0,1223.5,710.518Zm-2.314-1.336,1.433.828a.559.559,0,0,0,.5,0l1.206-.7a.154.154,0,0,0,0-.292l-1.434-.827a.553.553,0,0,0-.5,0l-1.205.7A.153.153,0,0,0,1221.187,709.182Zm-2.111,1.219,1.433.827a.561.561,0,0,0,.5,0l1.205-.7a.153.153,0,0,0,0-.291l-1.433-.828a.561.561,0,0,0-.505,0l-1.2.7A.154.154,0,0,0,1219.076,710.4Z"/><path class="cls-44" d="M1251.491,651.168a5.131,5.131,0,0,0,3.3,2.4,9.941,9.941,0,0,0,7.547-.928,10.657,10.657,0,0,0,5.229-10.309,2.282,2.282,0,0,0-.649-1.374c-1.681-1.692-3.658-4.56-4.835-10.348a2.437,2.437,0,0,0-3.908-1.448c-4.9,3.85-8.717,11.351-8.676,14.591A19.224,19.224,0,0,0,1251.491,651.168Z"/><path class="cls-39" d="M1233.59,721.2a28.892,28.892,0,0,1,1.97-5.8c-.8.009-1.445-.313-.853-1.219a18.763,18.763,0,0,1,4.382-5.224,11.059,11.059,0,0,1,1.847-1.074,4.262,4.262,0,0,1,1.734-.35,11.651,11.651,0,0,0,3.027-.213c6.416-4.751,17.741-15.567,21.073-18.467a2.37,2.37,0,0,0,.824-1.805c-.009-3.769-.28-7.7-.436-11.629a2.246,2.246,0,0,1,3.227-2.087c4.191,2.012,8.408,3.852,12.884,4.391-1.284,6.454-2.651,12.431-3.392,15.583a8.259,8.259,0,0,1-2.653,4.42c-5.464,4.656-19.383,10.915-26.6,15.016-2.531,1.642-6.249,10.308-8.133,11.647-1.523,1.082-5.172.155-7.415-.574A2.213,2.213,0,0,1,1233.59,721.2Z"/><path class="cls-40" d="M1285.4,682.882c-.709,4.594-18.71,2.418-19.8-1.214-.851-7.633,2.661-36.987,12.97-36.106C1278.568,645.562,1291.662,644.438,1285.4,682.882Z"/><path class="cls-39" d="M1222.7,702.338c2.537-2.7,4.412-4.655,4.669-4.842a6.834,6.834,0,0,1,7.386,3.372c-.26,1.291-1.028,4.616-1.4,5.88-.636,2.158-1.015,10.472-3.245,11.078-1.886.512-10.6-2.269-10.294-5.708C1219.814,712.118,1219.581,705.658,1222.7,702.338Z"/><path class="cls-42" d="M1241.215,734.728,1233.43,712.9l.234-.229,7.784,21.833c.095.267.082.453-.017.549l-.233.228C1241.3,735.181,1241.31,735,1241.215,734.728Z"/><path class="cls-40" d="M1199.523,692.4c.139-.136.444-.1.852.139l31.6,18.244a4.3,4.3,0,0,1,1.689,1.887l-.234.229a4.283,4.283,0,0,0-1.688-1.888l-31.6-18.244c-.408-.236-.713-.275-.852-.139Z"/><path class="cls-45" d="M1200.142,692.764l31.6,18.244a4.283,4.283,0,0,1,1.688,1.888l7.785,21.832c.228.641-.17.814-.869.41l-31.6-18.244a4.281,4.281,0,0,1-1.688-1.887l-7.785-21.832C1199.044,692.533,1199.443,692.36,1200.142,692.764Z"/><path class="cls-39" d="M1243.855,622.115a11.454,11.454,0,0,1,10.2-6.083c1.257-.059,3.317,1.04,4.5,1.467,4.4,1.589,5.218,8.882,5.4,13.011.226,5.21.017,10.879-3.38,14.94-6.571,7.856-14.062,8.819-14.935,3.828-.078-.446-.111-1-.517-1.2a3,3,0,0,0-.473-.127c-.731-.219-.938-1.147-.947-1.91a12.49,12.49,0,0,1,.142-2.017,5.73,5.73,0,0,0,.126-1.552c-.142-1.142-1.08-1.991-1.691-2.965-1.458-2.325-1.294-5.992-1.079-8.62A20.581,20.581,0,0,1,1243.855,622.115Z"/><path class="cls-37" d="M1242.938,619.614c4.662-5.149,11.317-5.618,15.865-2.879,11.63,2.75,11.51,16.2,4.544,24.918.726-2.305-2.336-3.576-2.772-2.843-1.263,2.123-1.517,3.783-2.767,3.876-1.014.075-.345-1.857-3.265-3.081-.51-.214-9.069-.25-12.977-3.565a2.258,2.258,0,0,1-.654-.97C1240.238,633.185,1237.236,625.913,1242.938,619.614Z"/><path class="cls-39" d="M1261.434,637.514c1.958-2.245,5.453.627-.1,6.879-.562.632-1.292,1.265-2.021.822C1257.716,644.247,1260.29,638.826,1261.434,637.514Z"/><g id="_16-2" data-name="16"><path class="cls-46" d="M1159.156,782.7c-3.291,1.423-12.04,6.386-13.43,6.061a68.619,68.619,0,0,1-14.4-5.91c-1.236-.793-2.629-5.9-2.914-8.568-.415-3.886-2.639-2.728-3.876-6.781a4.127,4.127,0,0,0-.559-1.381,1.04,1.04,0,0,0-1.317-.348c-.76.506-.356,2.884.01,3.675.4.861,1.14,1.509,1.536,2.369.691,1.5-.213,2.16-1.891.468-2.132-2.151-7.88-7.862-8.391-5.538-.351,1.6,6.583,6.122,5.628,7.236-.653.694-7.625-5.423-8.788-5.654a1.018,1.018,0,0,0-1.1.423c-.386.717.325,1.328,1.014,1.749,1.45.886,7.785,5.851,7.222,6.423-.53.537-7.216-5.079-8.8-4.8a.713.713,0,0,0-.647.859c.425,1.413,5.695,4.457,6.89,5.415.668.537,1.7,1.06,1.321,1.705-.629.832-5.945-3.6-6.782-2.452-.714,1.876,2.834,2.929,13,9.114,5.731,3.488,22.5,14.2,26.261,14.2s12.968-4.435,12.968-4.435c1.456-1.353,4.487-4.141,5.207-6.012C1168.592,787.213,1165.506,779.954,1159.156,782.7Z"/><path class="cls-15" d="M1140.263,931.731c.009-.059.006-.114.019-.174a4.427,4.427,0,0,1,0-1.78l-8.786.9c-14.675.91-21.963.348-22.127,5.52-1.765,10.151,20.013,8.78,30.3,7.428C1145.186,942.9,1140.614,934.1,1140.263,931.731Z"/><path class="cls-15" d="M1171.123,916.637l-6.277-4.71c-1.1-1.529-.915-1.966-2.37-3.16-2.324-1.907-9.576-1.138-9.652,2.616a6.293,6.293,0,0,0,.6,4.272c1.253,2.225,7.1,10.393,8.461,12.486,3.537,5.433,11.249,4.167,11.112.422C1172.914,926.23,1173.533,926.978,1171.123,916.637Z"/><path class="cls-37" d="M1173.474,893.031a48.714,48.714,0,0,0-.948-6.784c-6.255-31.532-.771-45.267-6-53.713l-41.739,8.586c-3.406,26.564,1.605,26.946,1.369,42.332-.088,5.711.488,11.735.267,17.443-.55,14.254,3.046,21.067,2.079,30,.206,4.1,12.643,4.773,12.558.778-.216-10.191,4.3-23.15,2.424-32.554a60.343,60.343,0,0,1-.932-8.622c-.131-2.753.932-11.768,6.329-29.536,0,0,6.241,19.011,6.393,24.451.037,1.333.087,2.626.145,3.833a45.413,45.413,0,0,0,2.719,13.2c1.209,3.369,2.41,7.993,2.5,16.43.058,5.186,11.807,4.864,11.625,1.04C1171.815,907.455,1173.964,901.943,1173.474,893.031Z"/><path class="cls-13" d="M1166.9,763.981c3.839,0,3.949,2.619,4.437,4.493,5.856,22.483-11.046,30.5-2.3,68.572,4.515,19.516-47.816,21.925-44.627,5.387,2.226-14.145,8.19-33.25,6.245-48.818-.445-3.557-2.417-8.047-.9-11.522C1131.045,779.13,1165.352,763.983,1166.9,763.981Z"/><path class="cls-46" d="M1091.652,775.706c-.848-.333-2.392,2.5-2.778,3.325.289-1.6,1.6-4.728.276-5.121-1.953-.577-3.461,5.387-4.094,7.386a53.335,53.335,0,0,0-1.694,7.377,10.529,10.529,0,0,0-.268,1.756c.053,1.233.68,3.747,3.408,6.869,4.451,5.093,16.5,16.763,18.572,16.864a9.617,9.617,0,0,0,3.644-.787c4.358-1.556,22.785-9.32,24.659-11.459,2.219-2.534-5.614-19.291-7.035-17.962-5.381,5.033-21.227,17.189-21.227,17.189s-12.991-7.645-12.781-8.028c.9-1.647,3.484-8.594,2.635-9.108-.656-.4-1.219.538-1.481,1.006a7.053,7.053,0,0,1,.661-3.684c.883-1.914-.66-2.482-1.615-1.346-.23.275-.987,1.051-.973.52C1091.628,778.029,1093.15,776.3,1091.652,775.706Z"/><path class="cls-13" d="M1135.262,780.649c-.6-.674-3.217-.382-3.973.106-3.353,2.162-15.217,10.108-19.487,13.477-3.483,2.748,4.413,16.893,9.855,15.149,2-.639,14.984-6.439,16.04-7.822C1140.192,798.29,1138.643,784.462,1135.262,780.649Z"/><g class="cls-41"><path class="cls-15" d="M1093.3,793.619l-11.605-13.735a1.648,1.648,0,0,1-.156-2.044l4.435-5.067a.907.907,0,0,1,.293-.225l-.966.464a.925.925,0,0,0-.294.225l-4.434,5.067a1.65,1.65,0,0,0,.156,2.045l11.605,13.735a1.25,1.25,0,0,0,1.458.445l.967-.465A1.25,1.25,0,0,1,1093.3,793.619Z"/><path class="cls-47" d="M1099.322,786.736,1087.717,773a1.139,1.139,0,0,0-1.745-.228l-4.435,5.067a1.648,1.648,0,0,0,.156,2.044l11.605,13.735a1.148,1.148,0,0,0,1.755.218l4.435-5.067A1.635,1.635,0,0,0,1099.322,786.736Z"/></g><path class="cls-46" d="M1089.911,780.838a3.133,3.133,0,0,0,.218-1.331.972.972,0,0,0-.872-.887,1.414,1.414,0,0,0-.931.587l-2.394,2.628a10.875,10.875,0,0,0-1.745,2.3c-.581,1.137-.911,4.2-1.035,5.593a1.128,1.128,0,0,0,.576,1.1c1.164.65,3.577,1.848,4.464,2.255,1.2.55,2.181.7,1.78-.848a25.5,25.5,0,0,1-.785-3.831A19.384,19.384,0,0,1,1089.911,780.838Z"/><path class="cls-13" d="M1153.812,793.2c-1.075,5.07,15.753,8.605,17.04,2.878.918-4.083,5.134-21.15,4.379-25.074-1.994-10.357-11.1-8.195-14.93-2.283C1156.351,774.825,1154.005,792.293,1153.812,793.2Z"/><path class="cls-48" d="M1140.548,741.948a13.034,13.034,0,0,0-3.773,10.024,2.6,2.6,0,0,1-.093,1.239c-.246.557-.862.829-1.387,1.138s-1.055.837-.93,1.433c.094.453.529.743.769,1.138a2.872,2.872,0,0,1,.309,1.234,34.506,34.506,0,0,1,.233,5.326,4.691,4.691,0,0,0,.073,1.673c.457,1.483,2.268,1.94,3.741,2.43a1.869,1.869,0,0,1,1.475,1.494,13.461,13.461,0,0,1,.686,6.215c-.313,4.3,17.926.7,15.593-4.915-.3-.72-.751-3.223-.278-4.043,1.439-2.5,6.192-4.161,6.485-12.336C1164.077,736.534,1147.322,735.237,1140.548,741.948Z"/><path class="cls-37" d="M1143.069,757.666c-.52,2.161,3.5,2.484,3.921.959a2.468,2.468,0,0,1,4.5-.331c1.263,1.984.582,4.238-1.531,6.747a2.054,2.054,0,0,0,.751,3.213c4.194,1.667,13.425-6.407,15.02-16.132,1.173-7.821-.866-12.319-6.609-15.408a24.6,24.6,0,0,0-9.671-2.349c-9.126-.013-13.615,5.851-12.823,12.551a2.989,2.989,0,0,0,1.862,2.431C1141.124,750.38,1144.427,752.035,1143.069,757.666Z"/></g><path class="cls-37" d="M1201.98,456.745c3.835,10.525,14.563,10.491,16.819,17.076.2.578.4,1.272.973,1.473,1.63.567,8.072-7.649,6.528-13.68-.493-1.927-1.361-2.762-2.223-4.554-1.871-3.893-8.462-14.271-15.02-13.046A9.706,9.706,0,0,0,1201.98,456.745Z"/><path class="cls-15" d="M1273.638,606.984a45.4,45.4,0,0,1-2.842-10.119c-.206-1.711-.065-4.234-.069-6.336,0-.909-6.482.219-6.482.219a6.358,6.358,0,0,1-.422,2.859,4.254,4.254,0,0,0-2.493,2.447,6.389,6.389,0,0,0,.128,4.242,39.229,39.229,0,0,0,1.791,3.938,24.528,24.528,0,0,1,1.362,3.685,47.913,47.913,0,0,0,1.4,4.974c.972,2.418,5.237,4.131,7.829,3.839,1.854-.209,4.3-1.032,3.974-3.35C1277.4,610.422,1275.022,609.634,1273.638,606.984Z"/><path class="cls-37" d="M1275.512,553.034a17.359,17.359,0,0,0-.263-7.209c-3.2-10.723-19.3-26.287-26.533-32.559a9.909,9.909,0,0,1-2.973-4.085l-1.912-5.331c-26.093,4.973-16.125,20.828-2.818,31.559,14.611,11.784,20.145,18.154,20.145,18.154a35.067,35.067,0,0,0-1.717,22.7c.724,2.767,1.808,5.426,2.382,8.227.7,3.432,1.525,7.646,1.621,9.031.17,2.453,7.377,3.243,7.358.531C1270.8,594.047,1273.061,571.714,1275.512,553.034Z"/><path class="cls-15" d="M1303.2,576.5a45.367,45.367,0,0,1-7.065-7.783c-.949-1.439-1.95-3.758-2.892-5.637-.408-.813-5.7,3.092-5.7,3.092a6.352,6.352,0,0,1,.9,2.746,4.255,4.255,0,0,0-1.136,3.3,6.384,6.384,0,0,0,2.009,3.738,39.224,39.224,0,0,0,3.362,2.723,24.528,24.528,0,0,1,2.866,2.688,47.6,47.6,0,0,0,3.477,3.823c1.95,1.729,6.531,1.355,8.719-.064,1.565-1.015,3.386-2.844,2.059-4.773C1308.1,577.9,1305.619,578.255,1303.2,576.5Z"/><path class="cls-37" d="M1281.331,527.822a8.289,8.289,0,0,0-3.942-2.313c-1.173-.24-27.777.709-36.279-1.12l-18.3-10.014c-3.525-.661-6.9-1.8-7.738,5.708a23.05,23.05,0,0,0,8.366,20.879,26.752,26.752,0,0,0,16.454,5.563c4.368-.038,29.51-4.41,31.759-3.921s4.112,9.485,15.373,26.091c1.808,2.666,9.376.16,8.178-3.332C1288.548,550.466,1284.683,531.039,1281.331,527.822Z"/><path class="cls-49" d="M1270.154,513.971c.878-1.54.874-3.449,1.065-5.187.183-1.664-.34-3.043-1.964-3.45-1.159-.292-2.568-.84-5.723-3.561-6.616-5.707-17.043-15.647-17.043-15.647-1.663-8.477.454-15.129-2.387-23.287-.913-2.62-3.975-4.506-6.906-2.753l.382,7.63c2.337,7.47.989,16.872,2.444,25.812.48,2.946,14.571,9.936,19.2,12.245,4.144,2.069,4.819,3.281,9.053,7.134A5.094,5.094,0,0,0,1270.154,513.971Z"/><path class="cls-15" d="M1210.887,474.6a6.748,6.748,0,0,0-1.7,7.171c1.343,3.557,9.045,12.234,10.805,20,.555,2.449.631,4.189-3.829,11.274-6.717,10.667,34.113,9.851,30.07-3.295-4.759-15.469,4.056-18.9,4.043-23.981-.009-3.766-3.81-5.124-5.139-8.225-2.092-4.883.787-12.206-2.757-16.408C1237.045,454.806,1211.559,473.977,1210.887,474.6Z"/><path class="cls-50" d="M1235.154,466.306a17.565,17.565,0,0,1-2.182-8.683l-13.5-1.063a15.589,15.589,0,0,1,1.308,11.162C1219.475,473.683,1238.405,472.533,1235.154,466.306Z"/><g class="cls-41"><path class="cls-12" d="M1242.281,527.178l8.187-13.157a3.241,3.241,0,0,1,.68-.708,3.613,3.613,0,0,1,.448-.312l21.966-12.682c.268-.149.426-.182.475-.122l.31.369c-.05-.059-.207-.027-.444.105l-22,12.7a3.842,3.842,0,0,0-.448.312,3.3,3.3,0,0,0-.681.708l-8.187,13.158c-.077.125-.1.21-.06.251l-.31-.37C1242.186,527.389,1242.2,527.3,1242.281,527.178Z"/><path class="cls-51" d="M1273.872,500.689l-21.966,12.682a3.8,3.8,0,0,0-1.129,1.019l-8.187,13.158c-.195.314-.008.373.415.129L1264.971,515a3.8,3.8,0,0,0,1.129-1.02l8.186-13.158C1274.482,500.5,1274.3,500.445,1273.872,500.689Z"/></g><path class="cls-49" d="M1255.726,518.536c.928-3.1-5.5,1.281-7.62,1.533-1.37.163-1.363-.645-.653-1.2l2.333-3.749c-.085.035-.175.075-.268.118-1.185.543-1.983.453-4.2,1.508-1.99.948-3.326,3.129-5.181,3.313a2.25,2.25,0,0,1-1.382-.416c-5-4.613-17.387-14.9-17.387-14.9s-1.631-20.111-2.921-24.225c-3.137-10.011-11.26-5.209-10.91,1.313.11,2.062,3.451,19.307,5.246,26.109,1.562,5.92,14.636,10,24.941,17.632,4.1,3.036,7.134,2.982,8.187,2.772a27.374,27.374,0,0,0,7.162-2.781c1.737-.958,2.312-2.065,2.049-2.314,1.21-1.176,1.1-2.584.383-2.349C1257.074,519.554,1256.927,518.345,1255.726,518.536Z"/><path class="cls-48" d="M1263.372,513.338a2.141,2.141,0,0,1,.4-1.681,6.641,6.641,0,0,1,2.928-2.009,14.888,14.888,0,0,0,3.569-2.374l1.006-1.561c.858.976.7,1.922.473,3.5-.291,1.987-.776,4.718-1.915,5.836-1.5,1.476-4.106,2.964-4.77,1.733a1.533,1.533,0,0,1-.906.335c-.674-.029-.86-.943-.653-1.024a.761.761,0,0,1-1.023-.682A2.5,2.5,0,0,1,1263.372,513.338Z"/><path class="cls-46" d="M1231.59,464.387c2.5-.31,7.413-1.1,8.053-3.517.451-1.7-1.625-3.96-1.044-5.624.275-.788.528-.97-.391-1.821a9.209,9.209,0,0,1-2.622-3.59c-1.016-2.44-.452-4.336-6.225-8.5-1.528-1.1-2.172-1.463-9.017-.1a4.1,4.1,0,0,0-3.155,2.065c-1.93,2.548-2.223,3.447-1.92,6.856a20.106,20.106,0,0,0,.946,5.269c.807,2.172,1.757,4.36,3.826,5.581C1222.448,462.424,1228.412,464.781,1231.59,464.387Z"/><path class="cls-37" d="M1226.3,461.614c-1.4-1.586-6.954-.5-7.015-.245-.111.471,2.9,2.358,4.354,2.769-1.6.984-16.592-2.564-15.291-15.615.884-8.864,9.205-12.44,15.656-11.372a9.917,9.917,0,0,1,7.374,5.759c-.645-.569-.652.637-1.064,1.564a43.862,43.862,0,0,0-2.691,8.84C1227.358,454.647,1227.231,460.234,1226.3,461.614Z"/><path class="cls-46" d="M1223.5,460.136c2.309.39,4.027,1.616,3.837,2.738s-2.215,1.714-4.524,1.323-4.027-1.616-3.837-2.738S1221.193,459.745,1223.5,460.136Z"/><polygon class="cls-11" points="823.233 366.611 768.95 397.951 768.95 371.366 823.233 340.026 823.233 366.611"/><polygon class="cls-8" points="893.318 326.146 839.036 357.487 839.036 330.902 893.318 299.562 893.318 326.146"/><polygon class="cls-20" points="963.405 285.682 909.122 317.022 909.122 290.438 963.405 259.098 963.405 285.682"/><polygon class="cls-5" points="1033.49 245.218 979.208 276.558 979.208 249.974 1033.49 218.634 1033.49 245.218"/></g><g id="logo_left" data-name="logo left"><polygon class="cls-12" points="310.992 96.015 310.992 119.259 307.674 119.259 307.674 108.895 294.331 108.895 294.331 119.259 291.012 119.259 291.012 96.015 294.331 96.015 294.331 106.012 307.674 106.012 307.674 96.015 310.992 96.015"/><path class="cls-12" d="M331.6,110.792l-5.013-11.387-5.012,11.387Zm1.161,2.656H320.414l-2.558,5.811h-3.414l10.522-23.244h3.283L338.8,119.259h-3.484l-2.559-5.811Z"/><path class="cls-12" d="M357.693,104.115c0-3.32-2.227-5.216-6.471-5.216h-5.641v10.459h5.641C355.466,109.358,357.693,107.436,357.693,104.115Zm.1,15.144-5.012-7.139c-.463.035-.961.07-1.459.07h-5.737v7.069h-3.318V96.015h9.055c6.043,0,9.693,3.058,9.693,8.1a7.344,7.344,0,0,1-5.108,7.341l5.51,7.8h-3.624Z"/><polygon class="cls-12" points="387.925 119.259 387.89 102.324 379.498 116.437 377.97 116.437 369.578 102.42 369.578 119.259 366.39 119.259 366.39 96.015 369.115 96.015 378.808 112.356 388.361 96.015 391.086 96.015 391.121 119.259 387.933 119.259 387.925 119.259"/><path class="cls-12" d="M417.562,107.637a9.025,9.025,0,1,0-8.994,8.931A8.724,8.724,0,0,0,417.562,107.637Zm-21.368,0c0-6.807,5.24-11.884,12.374-11.884s12.313,5.051,12.313,11.884-5.24,11.884-12.313,11.884S396.194,114.444,396.194,107.637Z"/><polygon class="cls-12" points="445.943 96.015 445.943 119.259 443.218 119.259 429.281 101.922 429.281 119.259 425.963 119.259 425.963 96.015 428.688 96.015 442.625 113.352 442.625 96.015 445.943 96.015"/><polygon class="cls-12" points="461.809 111.22 461.809 119.259 458.526 119.259 458.526 111.159 449.305 96.015 452.859 96.015 460.29 108.266 467.756 96.015 471.04 96.015 461.809 111.22"/><path class="cls-12" d="M248.259,104.787a11.135,11.135,0,0,1,9.308,5.532,15.647,15.647,0,0,1,1.939,4.631c.437,1.853.244,3.793.672,5.645a7.72,7.72,0,0,0,15.3-1.494c0-4.282-3.371-7.279-7.423-7.742a12.8,12.8,0,0,1-7.309-2.788c-3.537-2.849-4.759-6.615-4.759-11.692,0-4.334-3.3-8.4-7.816-8.345s-7.641,4.011-7.641,8.336c0,5.077-1.222,8.844-4.759,11.692a12.739,12.739,0,0,1-7.309,2.788c-4.052.463-7.422,3.521-7.422,7.742a7.719,7.719,0,0,0,15.3,1.494c.428-1.852.236-3.792.672-5.645,1.24-5.243,5.545-10.145,11.248-10.171Z"/></g></svg>