<svg xmlns="http://www.w3.org/2000/svg" xmlns:xlink="http://www.w3.org/1999/xlink" viewBox="0 0 1920 1080"><defs><style>.cls-1{fill:#0f1854;}.cls-2{fill:#0f054c;}.cls-16,.cls-17,.cls-24,.cls-26,.cls-3,.cls-37,.cls-4,.cls-5,.cls-6,.cls-7,.cls-8,.cls-9{opacity:0.5;}.cls-3{fill:url(#_ÂÁ_Ï_ÌÌ_È_ËÂÌÚ_254);}.cls-4{fill:url(#_ÂÁ_Ï_ÌÌ_È_ËÂÌÚ_254-2);}.cls-5{fill:url(#_ÂÁ_Ï_ÌÌ_È_ËÂÌÚ_254-3);}.cls-6{fill:url(#_ÂÁ_Ï_ÌÌ_È_ËÂÌÚ_254-4);}.cls-10,.cls-18,.cls-7{fill:#42e8e0;}.cls-8{fill:url(#_ÂÁ_Ï_ÌÌ_È_ËÂÌÚ_254-5);}.cls-9{fill:url(#_ÂÁ_Ï_ÌÌ_È_ËÂÌÚ_254-6);}.cls-10,.cls-27,.cls-50{opacity:0.8;}.cls-11,.cls-32{opacity:0.11;}.cls-12{fill:url(#_ÂÁ_Ï_ÌÌ_È_ËÂÌÚ_209);}.cls-13{fill:url(#_ÂÁ_Ï_ÌÌ_È_ËÂÌÚ_209-2);}.cls-14{fill:url(#_ÂÁ_Ï_ÌÌ_È_ËÂÌÚ_209-3);}.cls-15{fill:url(#_ÂÁ_Ï_ÌÌ_È_ËÂÌÚ_209-4);}.cls-16{fill:url(#_ÂÁ_Ï_ÌÌ_È_ËÂÌÚ_209-5);}.cls-19{fill:url(#_ÂÁ_Ï_ÌÌ_È_ËÂÌÚ_209-7);}.cls-20{fill:url(#_ÂÁ_Ï_ÌÌ_È_ËÂÌÚ_209-8);}.cls-21{fill:url(#_ÂÁ_Ï_ÌÌ_È_ËÂÌÚ_209-9);}.cls-22{fill:url(#_ÂÁ_Ï_ÌÌ_È_ËÂÌÚ_209-10);}.cls-23{fill:url(#_ÂÁ_Ï_ÌÌ_È_ËÂÌÚ_209-11);}.cls-24{fill:url(#_ÂÁ_Ï_ÌÌ_È_ËÂÌÚ_209-12);}.cls-25{fill:url(#_ÂÁ_Ï_ÌÌ_È_ËÂÌÚ_209-14);}.cls-26{fill:#0de5b2;}.cls-27{fill:#aeb8fe;}.cls-28{fill:url(#_ÂÁ_Ï_ÌÌ_È_ËÂÌÚ_209-15);}.cls-29{fill:url(#_ÂÁ_Ï_ÌÌ_È_ËÂÌÚ_209-16);}.cls-30{fill:url(#_ÂÁ_Ï_ÌÌ_È_ËÂÌÚ_209-17);}.cls-31{fill:url(#_ÂÁ_Ï_ÌÌ_È_ËÂÌÚ_209-18);}.cls-32{fill:url(#_ÂÁ_Ï_ÌÌ_È_ËÂÌÚ_209-19);}.cls-33{fill:url(#_ÂÁ_Ï_ÌÌ_È_ËÂÌÚ_209-20);}.cls-34{fill:url(#_ÂÁ_Ï_ÌÌ_È_ËÂÌÚ_209-21);}.cls-35{fill:url(#_ÂÁ_Ï_ÌÌ_È_ËÂÌÚ_209-22);}.cls-36{fill:url(#_ÂÁ_Ï_ÌÌ_È_ËÂÌÚ_209-23);}.cls-37{fill:url(#_ÂÁ_Ï_ÌÌ_È_ËÂÌÚ_209-24);}.cls-38{fill:url(#linear-gradient);}.cls-39{fill:url(#_ÂÁ_Ï_ÌÌ_È_ËÂÌÚ_209-25);}.cls-40{fill:#160a5b;}.cls-41{fill:#24126a;}.cls-42{fill:#453c9e;}.cls-43{fill:#f0f6ff;}.cls-44{fill:#fcd1c5;}.cls-45{fill:#4846a5;}.cls-46{fill:#aa8383;}.cls-47{fill:#c4ccd6;}.cls-48{fill:#e2b1a6;}.cls-49{fill:#936d6d;}.cls-50,.cls-51{fill:#fff;}</style><linearGradient id="_ÂÁ_Ï_ÌÌ_È_ËÂÌÚ_254" x1="817.468" y1="477.705" x2="1102.532" y2="477.705" gradientUnits="userSpaceOnUse"><stop offset="0" stop-color="#42e8e0"/><stop offset="0.151" stop-color="#43e3e0"/><stop offset="0.328" stop-color="#45d5df"/><stop offset="0.52" stop-color="#49bddd"/><stop offset="0.721" stop-color="#4e9cdb"/><stop offset="0.927" stop-color="#5472d8"/><stop offset="1" stop-color="#5761d7"/></linearGradient><linearGradient id="_ÂÁ_Ï_ÌÌ_È_ËÂÌÚ_254-2" x1="959.998" y1="426.184" x2="1102.532" y2="426.184" xlink:href="#_ÂÁ_Ï_ÌÌ_È_ËÂÌÚ_254"/><linearGradient id="_ÂÁ_Ï_ÌÌ_È_ËÂÌÚ_254-3" x1="817.468" y1="426.183" x2="960.002" y2="426.183" xlink:href="#_ÂÁ_Ï_ÌÌ_È_ËÂÌÚ_254"/><linearGradient id="_ÂÁ_Ï_ÌÌ_È_ËÂÌÚ_254-4" x1="817.468" y1="456.954" x2="1102.532" y2="456.954" xlink:href="#_ÂÁ_Ï_ÌÌ_È_ËÂÌÚ_254"/><linearGradient id="_ÂÁ_Ï_ÌÌ_È_ËÂÌÚ_254-5" x1="960.002" y1="508.475" x2="1102.532" y2="508.475" xlink:href="#_ÂÁ_Ï_ÌÌ_È_ËÂÌÚ_254"/><linearGradient id="_ÂÁ_Ï_ÌÌ_È_ËÂÌÚ_254-6" x1="817.468" y1="508.474" x2="960.002" y2="508.474" xlink:href="#_ÂÁ_Ï_ÌÌ_È_ËÂÌÚ_254"/><linearGradient id="_ÂÁ_Ï_ÌÌ_È_ËÂÌÚ_209" x1="516.321" y1="715.689" x2="831.076" y2="715.689" gradientUnits="userSpaceOnUse"><stop offset="0" stop-color="#5761d7"/><stop offset="0.073" stop-color="#5472d8"/><stop offset="0.279" stop-color="#4e9cdb"/><stop offset="0.48" stop-color="#49bddd"/><stop offset="0.672" stop-color="#45d5df"/><stop offset="0.849" stop-color="#43e3e0"/><stop offset="1" stop-color="#42e8e0"/></linearGradient><linearGradient id="_ÂÁ_Ï_ÌÌ_È_ËÂÌÚ_209-2" x1="516.321" y1="691.476" x2="831.076" y2="691.476" xlink:href="#_ÂÁ_Ï_ÌÌ_È_ËÂÌÚ_209"/><linearGradient id="_ÂÁ_Ï_ÌÌ_È_ËÂÌÚ_209-3" x1="516.321" y1="667.263" x2="831.076" y2="667.263" xlink:href="#_ÂÁ_Ï_ÌÌ_È_ËÂÌÚ_209"/><linearGradient id="_ÂÁ_Ï_ÌÌ_È_ËÂÌÚ_209-4" x1="516.321" y1="643.05" x2="831.076" y2="643.05" xlink:href="#_ÂÁ_Ï_ÌÌ_È_ËÂÌÚ_209"/><linearGradient id="_ÂÁ_Ï_ÌÌ_È_ËÂÌÚ_209-5" x1="516.321" y1="667.391" x2="831.076" y2="667.391" xlink:href="#_ÂÁ_Ï_ÌÌ_È_ËÂÌÚ_209"/><linearGradient id="_ÂÁ_Ï_ÌÌ_È_ËÂÌÚ_209-7" x1="516.323" y1="686.69" x2="831.074" y2="686.69" xlink:href="#_ÂÁ_Ï_ÌÌ_È_ËÂÌÚ_209"/><linearGradient id="_ÂÁ_Ï_ÌÌ_È_ËÂÌÚ_209-8" x1="1088.924" y1="715.689" x2="1403.679" y2="715.689" xlink:href="#_ÂÁ_Ï_ÌÌ_È_ËÂÌÚ_209"/><linearGradient id="_ÂÁ_Ï_ÌÌ_È_ËÂÌÚ_209-9" x1="1088.924" y1="691.476" x2="1403.679" y2="691.476" xlink:href="#_ÂÁ_Ï_ÌÌ_È_ËÂÌÚ_209"/><linearGradient id="_ÂÁ_Ï_ÌÌ_È_ËÂÌÚ_209-10" x1="1088.924" y1="667.263" x2="1403.679" y2="667.263" xlink:href="#_ÂÁ_Ï_ÌÌ_È_ËÂÌÚ_209"/><linearGradient id="_ÂÁ_Ï_ÌÌ_È_ËÂÌÚ_209-11" x1="1088.924" y1="643.05" x2="1403.679" y2="643.05" xlink:href="#_ÂÁ_Ï_ÌÌ_È_ËÂÌÚ_209"/><linearGradient id="_ÂÁ_Ï_ÌÌ_È_ËÂÌÚ_209-12" x1="1088.924" y1="667.391" x2="1403.679" y2="667.391" xlink:href="#_ÂÁ_Ï_ÌÌ_È_ËÂÌÚ_209"/><linearGradient id="_ÂÁ_Ï_ÌÌ_È_ËÂÌÚ_209-14" x1="1088.926" y1="686.69" x2="1403.677" y2="686.69" xlink:href="#_ÂÁ_Ï_ÌÌ_È_ËÂÌÚ_209"/><linearGradient id="_ÂÁ_Ï_ÌÌ_È_ËÂÌÚ_209-15" x1="732.319" y1="888.548" x2="1028.241" y2="888.548" gradientTransform="matrix(-1, 0, 0, 1, 1839.674, 0)" xlink:href="#_ÂÁ_Ï_ÌÌ_È_ËÂÌÚ_209"/><linearGradient id="_ÂÁ_Ï_ÌÌ_È_ËÂÌÚ_209-16" x1="732.319" y1="865.784" x2="1028.241" y2="865.784" gradientTransform="matrix(-1, 0, 0, 1, 1839.674, 0)" xlink:href="#_ÂÁ_Ï_ÌÌ_È_ËÂÌÚ_209"/><linearGradient id="_ÂÁ_Ï_ÌÌ_È_ËÂÌÚ_209-17" x1="732.319" y1="843.02" x2="1028.241" y2="843.02" gradientTransform="matrix(-1, 0, 0, 1, 1839.674, 0)" xlink:href="#_ÂÁ_Ï_ÌÌ_È_ËÂÌÚ_209"/><linearGradient id="_ÂÁ_Ï_ÌÌ_È_ËÂÌÚ_209-18" x1="732.319" y1="820.256" x2="1028.241" y2="820.256" gradientTransform="matrix(-1, 0, 0, 1, 1839.674, 0)" xlink:href="#_ÂÁ_Ï_ÌÌ_È_ËÂÌÚ_209"/><linearGradient id="_ÂÁ_Ï_ÌÌ_È_ËÂÌÚ_209-19" x1="732.319" y1="854.402" x2="1028.241" y2="854.402" gradientTransform="matrix(-1, 0, 0, 1, 1839.674, 0)" xlink:href="#_ÂÁ_Ï_ÌÌ_È_ËÂÌÚ_209"/><linearGradient id="_ÂÁ_Ï_ÌÌ_È_ËÂÌÚ_209-20" x1="700.869" y1="781.617" x2="1059.691" y2="781.617" gradientTransform="matrix(-1, 0, 0, 1, 1839.674, 0)" xlink:href="#_ÂÁ_Ï_ÌÌ_È_ËÂÌÚ_209"/><linearGradient id="_ÂÁ_Ï_ÌÌ_È_ËÂÌÚ_209-21" x1="700.869" y1="754.014" x2="1059.691" y2="754.014" gradientTransform="matrix(-1, 0, 0, 1, 1839.674, 0)" xlink:href="#_ÂÁ_Ï_ÌÌ_È_ËÂÌÚ_209"/><linearGradient id="_ÂÁ_Ï_ÌÌ_È_ËÂÌÚ_209-22" x1="700.869" y1="726.411" x2="1059.691" y2="726.411" gradientTransform="matrix(-1, 0, 0, 1, 1839.674, 0)" xlink:href="#_ÂÁ_Ï_ÌÌ_È_ËÂÌÚ_209"/><linearGradient id="_ÂÁ_Ï_ÌÌ_È_ËÂÌÚ_209-23" x1="700.869" y1="698.809" x2="1059.691" y2="698.809" gradientTransform="matrix(-1, 0, 0, 1, 1839.674, 0)" xlink:href="#_ÂÁ_Ï_ÌÌ_È_ËÂÌÚ_209"/><linearGradient id="_ÂÁ_Ï_ÌÌ_È_ËÂÌÚ_209-24" x1="700.869" y1="740.213" x2="1059.691" y2="740.213" gradientTransform="matrix(-1, 0, 0, 1, 1839.674, 0)" xlink:href="#_ÂÁ_Ï_ÌÌ_È_ËÂÌÚ_209"/><linearGradient id="linear-gradient" x1="700.869" y1="698.809" x2="1059.691" y2="698.809" gradientTransform="matrix(-1, 0, 0, 1, 1839.674, 0)" gradientUnits="userSpaceOnUse"><stop offset="0" stop-color="#5761d7"/><stop offset="0.061" stop-color="#4f6fd3"/><stop offset="0.27" stop-color="#3899c7"/><stop offset="0.473" stop-color="#25babe"/><stop offset="0.667" stop-color="#18d2b7"/><stop offset="0.847" stop-color="#10e0b3"/><stop offset="1" stop-color="#0de5b2"/></linearGradient><linearGradient id="_ÂÁ_Ï_ÌÌ_È_ËÂÌÚ_209-25" x1="700.871" y1="748.558" x2="1059.689" y2="748.558" gradientTransform="matrix(-1, 0, 0, 1, 1839.674, 0)" xlink:href="#_ÂÁ_Ï_ÌÌ_È_ËÂÌÚ_209"/></defs><title>09- Master data harmonisation for business uses</title><g id="_09:_Master_data_harmonisation_for_business_uses" data-name="09: Master data harmonisation for business uses"><rect class="cls-1" width="1920" height="1080"/><polygon class="cls-2" points="960.002 559.993 817.471 477.702 959.998 395.414 1102.529 477.705 960.002 559.993"/><polygon class="cls-3" points="960.002 559.996 817.468 477.704 959.998 395.414 1102.532 477.706 960.002 559.996"/><polygon class="cls-4" points="959.998 374.663 1102.532 456.955 1102.532 477.705 959.998 395.413 959.998 374.663"/><polygon class="cls-5" points="960.002 395.413 817.468 477.703 817.468 456.953 959.998 374.663 960.002 395.413"/><polygon class="cls-6" points="960.002 539.245 817.468 456.953 959.998 374.663 1102.532 456.955 960.002 539.245"/><polygon class="cls-7" points="960.001 489.836 903.047 456.953 959.999 424.072 1016.953 456.954 960.001 489.836"/><polygon class="cls-7" points="959.999 427.098 1014.333 458.467 1016.953 456.954 959.999 424.072 903.047 456.954 905.668 458.467 959.999 427.098"/><polygon class="cls-8" points="960.002 539.245 960.002 559.995 1102.532 477.705 1102.532 456.955 960.002 539.245"/><polygon class="cls-9" points="817.468 456.953 817.468 477.703 960.002 559.995 960.002 539.245 817.468 456.953"/><polygon class="cls-10" points="960.002 536.98 819.43 455.82 817.468 456.953 960.002 539.245 1102.532 456.955 1100.571 455.823 960.002 536.98"/><g class="cls-11"><path class="cls-12" d="M685.865,629.714a24.135,24.135,0,0,0-24.116-.012L518.018,712.493a3.394,3.394,0,0,0,0,5.879l144.928,83.674a21.28,21.28,0,0,0,21.282,0l145.151-83.6a3.393,3.393,0,0,0,0-5.878Z"/></g><g class="cls-11"><path class="cls-13" d="M685.865,605.5a24.135,24.135,0,0,0-24.116-.012L518.018,688.28a3.394,3.394,0,0,0,0,5.879l144.928,83.674a21.28,21.28,0,0,0,21.282,0l145.151-83.6a3.393,3.393,0,0,0,0-5.878Z"/></g><g class="cls-11"><path class="cls-14" d="M685.865,581.288a24.135,24.135,0,0,0-24.116-.012L518.018,664.067a3.394,3.394,0,0,0,0,5.879L662.946,753.62a21.28,21.28,0,0,0,21.282,0l145.151-83.6a3.393,3.393,0,0,0,0-5.878Z"/></g><g class="cls-11"><path class="cls-15" d="M685.865,557.075a24.137,24.137,0,0,0-24.116-.013L518.018,639.854a3.394,3.394,0,0,0,0,5.879l144.928,83.674a21.28,21.28,0,0,0,21.282,0l145.151-83.6a3.393,3.393,0,0,0,0-5.878Z"/></g><path class="cls-16" d="M829.379,639.933,685.865,557.075a24.137,24.137,0,0,0-24.116-.013L518.018,639.854a3.362,3.362,0,0,0-1.7,2.939v48.682a3.363,3.363,0,0,0,1.7,2.94l144.928,83.674a21.28,21.28,0,0,0,21.282,0l145.151-83.6a3.363,3.363,0,0,0,1.7-2.94V642.872h0A3.36,3.36,0,0,0,829.379,639.933Z"/><g class="cls-11"><path class="cls-15" d="M685.865,557.075a24.137,24.137,0,0,0-24.116-.013L518.018,639.854a3.394,3.394,0,0,0,0,5.879l144.928,83.674a21.28,21.28,0,0,0,21.282,0l145.151-83.6a3.393,3.393,0,0,0,0-5.878Z"/></g><g class="cls-17"><path class="cls-18" d="M678.858,604.535a10.231,10.231,0,0,0-10.223,0l-64.4,37.094a1.514,1.514,0,0,0,0,2.623L668.9,681.58a9.5,9.5,0,0,0,9.5,0l64.763-37.3a1.515,1.515,0,0,0,0-2.623Z"/></g><path class="cls-18" d="M604.238,643.95l64.4-37.094a10.231,10.231,0,0,1,10.223,0l64.3,37.124c.065.038.09.1.146.149a1.49,1.49,0,0,0-.146-2.475l-64.3-37.124a10.231,10.231,0,0,0-10.223,0l-64.4,37.094a1.489,1.489,0,0,0-.147,2.474C604.148,644.054,604.172,643.988,604.238,643.95Z"/><path class="cls-19" d="M829.379,642.467l-145.151,83.6a21.285,21.285,0,0,1-21.282,0L518.018,642.388a3.361,3.361,0,0,1-1.259-1.267,3.4,3.4,0,0,0,1.259,4.612l144.928,83.674a21.28,21.28,0,0,0,21.282,0l145.151-83.6a3.394,3.394,0,0,0,1.259-4.611A3.361,3.361,0,0,1,829.379,642.467Z"/><g class="cls-11"><path class="cls-20" d="M1258.468,629.714a24.137,24.137,0,0,0-24.117-.012l-143.73,82.791a3.394,3.394,0,0,0,0,5.879l144.928,83.674a21.28,21.28,0,0,0,21.282,0l145.151-83.6a3.393,3.393,0,0,0,0-5.878Z"/></g><g class="cls-11"><path class="cls-21" d="M1258.468,605.5a24.137,24.137,0,0,0-24.117-.012l-143.73,82.791a3.394,3.394,0,0,0,0,5.879l144.928,83.674a21.28,21.28,0,0,0,21.282,0l145.151-83.6a3.393,3.393,0,0,0,0-5.878Z"/></g><g class="cls-11"><path class="cls-22" d="M1258.468,581.288a24.137,24.137,0,0,0-24.117-.012l-143.73,82.791a3.394,3.394,0,0,0,0,5.879l144.928,83.674a21.28,21.28,0,0,0,21.282,0l145.151-83.6a3.393,3.393,0,0,0,0-5.878Z"/></g><g class="cls-11"><path class="cls-23" d="M1258.468,557.075a24.139,24.139,0,0,0-24.117-.013l-143.73,82.792a3.394,3.394,0,0,0,0,5.879l144.928,83.674a21.28,21.28,0,0,0,21.282,0l145.151-83.6a3.393,3.393,0,0,0,0-5.878Z"/></g><path class="cls-24" d="M1401.982,639.933l-143.514-82.858a24.139,24.139,0,0,0-24.117-.013l-143.73,82.792a3.362,3.362,0,0,0-1.7,2.939v48.682a3.363,3.363,0,0,0,1.7,2.94l144.928,83.674a21.28,21.28,0,0,0,21.282,0l145.151-83.6a3.365,3.365,0,0,0,1.7-2.94V642.872h0A3.362,3.362,0,0,0,1401.982,639.933Z"/><g class="cls-11"><path class="cls-23" d="M1258.468,557.075a24.139,24.139,0,0,0-24.117-.013l-143.73,82.792a3.394,3.394,0,0,0,0,5.879l144.928,83.674a21.28,21.28,0,0,0,21.282,0l145.151-83.6a3.393,3.393,0,0,0,0-5.878Z"/></g><g class="cls-17"><path class="cls-18" d="M1251.461,604.535a10.231,10.231,0,0,0-10.223,0l-64.4,37.094a1.515,1.515,0,0,0,0,2.623L1241.5,681.58a9.5,9.5,0,0,0,9.5,0l64.763-37.3a1.514,1.514,0,0,0,0-2.623Z"/></g><path class="cls-18" d="M1176.84,643.95l64.4-37.094a10.231,10.231,0,0,1,10.223,0l64.3,37.124c.066.038.09.1.147.149a1.49,1.49,0,0,0-.147-2.475l-64.3-37.124a10.231,10.231,0,0,0-10.223,0l-64.4,37.094a1.489,1.489,0,0,0-.146,2.474C1176.751,644.054,1176.775,643.988,1176.84,643.95Z"/><path class="cls-25" d="M1401.982,642.467l-145.151,83.6a21.285,21.285,0,0,1-21.282,0l-144.928-83.675a3.354,3.354,0,0,1-1.259-1.267,3.4,3.4,0,0,0,1.259,4.612l144.928,83.674a21.28,21.28,0,0,0,21.282,0l145.151-83.6a3.4,3.4,0,0,0,1.259-4.611A3.361,3.361,0,0,1,1401.982,642.467Z"/><path class="cls-26" d="M1364.7,439.949v-86.09c-2-29.338-13.6-57.305-33.1-82.871v86.089c19.491,25.566,31.1,53.533,33.1,82.872Zm-43.057-94.965V258.9a246.279,246.279,0,0,0-22.792-22.457v86.09a246.145,246.145,0,0,1,22.792,22.456Zm-36.895-33.93V224.965A332.917,332.917,0,0,0,1255.7,205.2V291.29a332.917,332.917,0,0,1,29.05,19.764Zm-48.553-5.412V168.676c79.31,42.075,128.813,102.249,128.813,168.823V474.465c0-66.574-49.5-126.748-128.813-168.823Z"/><path class="cls-26" d="M1091.156,239.888V215.154q-9.078-1.738-18.346-3.233v24.733q9.267,1.494,18.346,3.234Zm-33-30.159V187.84q-9.408-1.3-18.986-2.34v21.89q9.576,1.041,18.986,2.339Zm64.761,12.386V192.273q-8.712-2.158-17.635-4.085V218.03q8.922,1.926,17.635,4.085Zm-98.9-16.2V161.857q-9.692-.834-19.535-1.4v44.058q9.841.565,19.535,1.4Zm-70.879-2.482V159.375q-9.963.151-19.807.579v44.057q9.842-.426,19.807-.578Zm-35.21,1.417V149.439q-9.736.639-19.332,1.544v55.411q9.592-.9,19.332-1.544Zm70.985-1.058V140.409q-8.895-.314-17.9-.405l-2.13-.018V203.37q1.065.006,2.13.018,9,.09,17.9.4ZM883.6,207.975V128.686q-9.481,1.107-18.8,2.47v79.289q9.317-1.36,18.8-2.47ZM824.424,121.9a673.571,673.571,0,0,1,146.594-14.286c68.834.69,133.314,11.288,189.379,29.383V273.966c-56.065-18.1-120.545-28.694-189.379-29.383a673.571,673.571,0,0,0-146.594,14.286V121.9Z"/><path class="cls-26" d="M591.391,307.684V280.108a166.489,166.489,0,0,0-19.464,36.743v81.675a166.489,166.489,0,0,1,19.464-36.743V334.207q3.561-5.125,7.533-10.126v14.872A223.063,223.063,0,0,1,615.4,320.475V305.6c25.837-26,60.248-48.808,100.985-67.177V211.9q-10.874,4.9-21.133,10.22-5.13,2.659-10.1,5.418c-26.16,14.522-48.894,31.074-67.421,49.225q-1.178,1.152-2.331,2.314V264.208a223.225,223.225,0,0,0-16.475,18.478v14.872q-3.97,5-7.533,10.126Zm-24.8-.863c15.576-66.839,81.055-124.4,173.935-160.229V283.559c-92.88,35.825-158.359,93.389-173.935,160.229V306.821Z"/><path class="cls-27" d="M615.4,279.08q1.155-1.161,2.331-2.314v26.523a295.885,295.885,0,0,1,48.234-37.819q9.252-5.891,19.187-11.406V227.541q4.968-2.758,10.1-5.418v26.523q10.254-5.313,21.133-10.22v0C675.647,256.8,641.236,279.6,615.4,305.6V279.08Zm-24.008,28.6q3.561-5.126,7.533-10.126v26.523q-3.97,5-7.533,10.126V307.684Z"/><path class="cls-27" d="M695.251,222.123q10.254-5.313,21.133-10.22v26.523q-10.874,4.9-21.133,10.22V222.123Z"/><path class="cls-27" d="M617.73,276.766a295.83,295.83,0,0,1,48.234-37.819V265.47a295.885,295.885,0,0,0-48.234,37.819V276.766Z"/><path class="cls-27" d="M665.964,238.947q9.252-5.89,19.187-11.406v26.523q-9.928,5.512-19.187,11.406V238.947Z"/><path class="cls-27" d="M571.927,316.851a166.489,166.489,0,0,1,19.464-36.743v27.576a166.489,166.489,0,0,0-19.464,36.743V370.95a166.489,166.489,0,0,1,19.464-36.743v27.576a166.489,166.489,0,0,0-19.464,36.743V316.851Z"/><path class="cls-27" d="M571.927,344.427a166.489,166.489,0,0,1,19.464-36.743v26.523a166.489,166.489,0,0,0-19.464,36.743V344.427Z"/><path class="cls-27" d="M598.924,324.081A223.225,223.225,0,0,1,615.4,305.6v14.872a223.063,223.063,0,0,0-16.475,18.478V324.081Zm0-41.4A223.225,223.225,0,0,1,615.4,264.208V279.08a223.063,223.063,0,0,0-16.475,18.478V282.686Z"/><path class="cls-27" d="M598.924,297.558A223.063,223.063,0,0,1,615.4,279.08V305.6a223.225,223.225,0,0,0-16.475,18.478V297.558Z"/><path class="cls-27" d="M1331.606,270.988c19.491,25.566,31.1,53.533,33.1,82.871v86.09c-2-29.339-13.6-57.306-33.1-82.872V270.988Z"/><path class="cls-27" d="M1298.852,236.438a246.279,246.279,0,0,1,22.792,22.457v86.089a246.145,246.145,0,0,0-22.792-22.456v-86.09Z"/><path class="cls-27" d="M1255.7,205.2a332.917,332.917,0,0,1,29.05,19.764v86.089a332.917,332.917,0,0,0-29.05-19.764V205.2Z"/><path class="cls-27" d="M1105.281,188.188q8.922,1.926,17.635,4.085v29.842q-8.712-2.159-17.635-4.085V188.188Z"/><path class="cls-27" d="M1072.81,211.921q9.267,1.493,18.346,3.233v24.734q-9.078-1.738-18.346-3.234V211.921Z"/><path class="cls-27" d="M1039.169,185.5q9.576,1.041,18.986,2.34v21.889q-9.408-1.3-18.986-2.339V185.5Z"/><path class="cls-27" d="M1004.483,160.456q9.841.566,19.535,1.4v44.058q-9.692-.834-19.535-1.4V160.456Z"/><path class="cls-27" d="M968.888,139.986l2.13.018q9,.09,17.9.405v63.383q-8.895-.314-17.9-.4-1.067-.012-2.13-.018V139.986Z"/><path class="cls-27" d="M933.332,159.954q9.842-.428,19.807-.579v44.058q-9.963.151-19.807.578V159.954Z"/><path class="cls-27" d="M898.6,150.983q9.592-.9,19.332-1.544V204.85q-9.736.639-19.332,1.544V150.983Z"/><path class="cls-27" d="M864.8,131.156q9.317-1.362,18.8-2.47v79.289q-9.481,1.109-18.8,2.47V131.156Z"/><g class="cls-11"><path class="cls-28" d="M947.956,807.718a22.693,22.693,0,0,1,22.673-.012l135.131,77.838a3.191,3.191,0,0,1,0,5.527L969.5,969.739a20.008,20.008,0,0,1-20.008,0L813.028,891.145a3.191,3.191,0,0,1,0-5.527Z"/></g><g class="cls-11"><path class="cls-29" d="M947.956,784.954a22.693,22.693,0,0,1,22.673-.012L1105.76,862.78a3.191,3.191,0,0,1,0,5.527L969.5,946.975a20.008,20.008,0,0,1-20.008,0L813.028,868.381a3.191,3.191,0,0,1,0-5.527Z"/></g><g class="cls-11"><path class="cls-30" d="M947.956,762.189a22.693,22.693,0,0,1,22.673-.011l135.131,77.838a3.191,3.191,0,0,1,0,5.527L969.5,924.21a20.008,20.008,0,0,1-20.008,0L813.028,845.616a3.19,3.19,0,0,1,0-5.526Z"/></g><g class="cls-11"><path class="cls-31" d="M947.956,739.425a22.691,22.691,0,0,1,22.673-.011l135.131,77.837a3.191,3.191,0,0,1,0,5.527L969.5,901.446a20.008,20.008,0,0,1-20.008,0L813.028,822.852a3.191,3.191,0,0,1,0-5.527Z"/></g><path class="cls-32" d="M813.028,817.325l134.928-77.9a22.691,22.691,0,0,1,22.673-.011l135.131,77.837a3.162,3.162,0,0,1,1.6,2.764v68.293a3.162,3.162,0,0,1-1.6,2.763L969.5,969.739a20.008,20.008,0,0,1-20.008,0L813.028,891.145a3.162,3.162,0,0,1-1.6-2.764V820.089h0A3.162,3.162,0,0,1,813.028,817.325Z"/><g class="cls-11"><path class="cls-33" d="M945.525,683.606a27.514,27.514,0,0,1,27.492-.014l163.854,94.383a3.869,3.869,0,0,1,0,6.7L971.652,880.065a24.262,24.262,0,0,1-24.262,0l-165.473-95.3a3.87,3.87,0,0,1,0-6.7Z"/></g><g class="cls-11"><path class="cls-34" d="M945.525,656a27.514,27.514,0,0,1,27.492-.014l163.854,94.383a3.869,3.869,0,0,1,0,6.7L971.652,852.462a24.262,24.262,0,0,1-24.262,0l-165.473-95.3a3.87,3.87,0,0,1,0-6.7Z"/></g><g class="cls-11"><path class="cls-35" d="M945.525,628.4a27.514,27.514,0,0,1,27.492-.014l163.854,94.383a3.869,3.869,0,0,1,0,6.7L971.652,824.859a24.262,24.262,0,0,1-24.262,0l-165.473-95.3a3.87,3.87,0,0,1,0-6.7Z"/></g><g class="cls-11"><path class="cls-36" d="M945.525,600.8a27.514,27.514,0,0,1,27.492-.014l163.854,94.383a3.869,3.869,0,0,1,0,6.7L971.652,797.256a24.262,24.262,0,0,1-24.262,0l-165.473-95.3a3.87,3.87,0,0,1,0-6.7Z"/></g><path class="cls-37" d="M781.917,695.255,945.525,600.8a27.514,27.514,0,0,1,27.492-.014l163.854,94.382a3.835,3.835,0,0,1,1.934,3.352v82.808a3.835,3.835,0,0,1-1.934,3.351L971.652,880.065a24.262,24.262,0,0,1-24.262,0l-165.473-95.3a3.835,3.835,0,0,1-1.934-3.351V698.606h0A3.835,3.835,0,0,1,781.917,695.255Z"/><g class="cls-11"><path class="cls-38" d="M945.525,600.8a27.514,27.514,0,0,1,27.492-.014l163.854,94.383a3.869,3.869,0,0,1,0,6.7L971.652,797.256a24.262,24.262,0,0,1-24.262,0l-165.473-95.3a3.87,3.87,0,0,1,0-6.7Z"/></g><path class="cls-39" d="M781.917,698.144l165.473,95.3a24.262,24.262,0,0,0,24.262,0l165.219-95.389a3.845,3.845,0,0,0,1.435-1.445,3.871,3.871,0,0,1-1.435,5.257L971.652,797.256a24.262,24.262,0,0,1-24.262,0l-165.473-95.3a3.871,3.871,0,0,1-1.435-5.257A3.835,3.835,0,0,0,781.917,698.144Z"/><path class="cls-40" d="M993.73,654.647s2.193,2.286,4.468,4.98,8.673,6.443,11.36,8.112,15,11,17.574,20.191-6.225,10.407-15.226,8.81-17.408-9.9-19.858-12.9-10.968-9.8-22.012-15.52-4.368-13.4-4.368-13.4Z"/><path class="cls-40" d="M911.727,681.946a34.157,34.157,0,0,0-2.336,9.448c-.516,5.316-1.261,16.837-1.537,20.208a28.516,28.516,0,0,0,5.547,19.515c5.932,7.9,9,11.016,16.881,7.91s7.706-16.34,6.31-23.146a188.622,188.622,0,0,1-2.547-23.633,4.735,4.735,0,0,0-.452-2.62Z"/><path class="cls-41" d="M1020.937,498.515s-1.662,60.686-15.805,92.9a234.254,234.254,0,0,0-11.467,62.118s2.338,5.809-.979,10.534-24.08,9.048-27.51-6.469-2.113-44.555,1.659-56.664-1.343-45.482-1.343-45.482-5.675,3.625-13.115,27.6-12.913,33.123-15.472,39.746-4.912,47.258-3.291,67.1c0,0-16.814,2.388-21.675-5.65s-6.487-49.618-5.254-62.875,6.775-55.724,6.013-68.865-3.5-23.813-.493-36.938,91.729-42.284,91.729-42.284Z"/><path class="cls-40" d="M912.7,552.509c-.761-13.141-3.5-23.813-.493-36.938,1.13-4.933,14.374-12.133,30.464-19.2,27.153-2.478,61.59-5.356,63.962-5,2.145.327,7.759,2.459,12.41,4.325l1.9,2.812s-.1,3.691-.465,9.717c-6.333,1.895-18.518-.062-18.518-.062-1.715,4.259-12.3,19.392-25.456,25.924s-51.669,4.291-53.879,6.774-2.639,35.706-2.394,39.93-3.629,30.819-7.21,54.336c-3.523,23.138,1.841,51.256,2.015,52.159a9.5,9.5,0,0,1-3.091-3.044c-4.861-8.037-6.487-49.618-5.254-62.875S913.46,565.65,912.7,552.509Z"/><path class="cls-42" d="M991.239,300.024s19.684,4.49,26.307,6.044a3.408,3.408,0,0,1,2.4,2.08c1.911,4.84,6.706,19.876,3.094,41.832-4.44,26.981-3.034,45.147-3.034,45.147l9.1,47.387s11.446,45.131,10.458,46.366-26.357,20.541-34.284,17.822-5.323-7.206-5.323-7.206-6.423,32.707-34.852,32.394-51.656-.223-56.482-11.716,1.32-59.8,6.333-78.929,16.929-57.255,16.929-57.255L890.249,337.9l35.586-27.178s8.5-15.8,12-17.805,5.319-.309,5.319-.309Z"/><path class="cls-42" d="M1004.8,496.284c-.025,1.641.932,4.085,6.043,5.838,5.519,1.893,19.046-6.329,27.915-12.518-4.429,3.681-26.219,19.585-33.471,17.1a12.965,12.965,0,0,1-3.567-1.781A58.326,58.326,0,0,0,1004.8,496.284Z"/><path class="cls-42" d="M908.836,516.34c5.093,12.128,29.6,12.032,59.606,12.364a32.069,32.069,0,0,0,18.651-5.377,30.318,30.318,0,0,1-21.985,8.563c-28.43-.314-51.656-.223-56.482-11.716-1.584-3.773-1.981-11.524-1.629-20.9C906.93,506.891,907.454,513.051,908.836,516.34Z"/><path class="cls-43" d="M938.6,292.523s-7.269,8.8,3.191,20.669c6.438,7.308,17.515,23.067,26.954,39.433,5.9,10.221,11.345,15.671,14.434,24.454,0,0,.432-10.434.846-26.545.391-15.2.6-31-.084-34.983C982.541,307.356,946.637,288.538,938.6,292.523Z"/><path class="cls-44" d="M965.792,318.982s3.724,2.315,5.008,2.123,5.408-4.2,5.408-4.2,10.319-.186,11.446-4.607,1.869-8.879,2.914-11.177,5.5-13.327,5.53-17.8-.134-12.471,1.8-16.7,4.538-46.589-36.361-45.394-28.195,43.662-28.195,43.662-2.987,1.273-1.179,6.74,2.214,6.033,3.136,8.746,1.377,4.452,3.977,6.656l.678,5.037A20.221,20.221,0,0,0,943.1,307.23C948.179,314.705,965.792,318.982,965.792,318.982Z"/><path class="cls-41" d="M1018.669,306.558s4.361.648,18.511,36.245c7.9,19.862,20.082,40.432,22.665,55.194s1.143,30.543-1.776,31.653c-2.809,1.07-53.65,20.094-69.56,26.1a1.5,1.5,0,0,1-2-1.145l-4.388-24.553,31.551-12.189s6.01-7.343,11.658-10.1c0,0-6.326-11.656-5.923-14.838s-.563-36.109,3.133-49.509S1018.669,306.558,1018.669,306.558Z"/><path class="cls-44" d="M1000.192,400.631a63.16,63.16,0,0,1,5.419-3.335c1.074-.416,6.885-2.4,7.994-2.9.823-.368,4.208-.086,5.9.085a1.838,1.838,0,0,1,1.444.96c1.344,2.49,5.082,9.737,4.662,12.5,0,0-10.5,6.636-11.677,9.6l-1.677.36S1005.224,402.812,1000.192,400.631Z"/><path class="cls-41" d="M914.959,441.245c1.206-4.6,2.813-10.308,4.557-16.314l63.9,27.389s-19.125,23.519-52.647,22.009A44.021,44.021,0,0,1,910,467.768,254.6,254.6,0,0,1,914.959,441.245Z"/><path class="cls-41" d="M890.249,337.9s16.851,2.319,30.464,23.9,23.536,46.55,23.536,46.55l.469,2.808a11.363,11.363,0,0,0,15.839,8.511c14.375-6.419,35.665-16.124,39.635-19.037A36.642,36.642,0,0,1,1016.4,424.3c2.77,13.26,2.066,13.3,2.066,13.3s-56.739,26.481-78.651,26.222-49.713-72.306-52.774-87.2S880.6,342.11,890.249,337.9Z"/><path class="cls-45" d="M890.249,337.9s16.851,2.319,30.464,23.9,23.536,46.55,23.536,46.55l.469,2.808a11.363,11.363,0,0,0,15.839,8.511c14.375-6.419,35.665-16.124,39.635-19.037A36.642,36.642,0,0,1,1016.4,424.3c2.77,13.26,2.066,13.3,2.066,13.3s-56.739,26.481-78.651,26.222-49.713-72.306-52.774-87.2S880.6,342.11,890.249,337.9Z"/><path class="cls-42" d="M952.41,423.024s-7.157,6.693-10.274,3.028-2.2-4.072-2.2-4.072-6.439-.058-7.223-4.094-3.955-1.9-4.138-6.4,5.212-3.574,5.212-3.574Z"/><path class="cls-44" d="M961.059,419.444s-1.969-1.831-4.507-3.98-6.644-11.034-7.337-11.818-9.255-7.351-13.382-7.465-1.064,4.506-.113,5.157,4.98,2.655,4.98,2.655,4.146,3.482,4.617,3.992-11.526-.825-13.43.345-1.462,4.234-.118,5.069a4.691,4.691,0,0,0,2.371.8,4.173,4.173,0,0,0,2.249,5.285c3.6,1.675,4.429.744,4.429.744s.31,6.237,6.253,5Z"/><path class="cls-46" d="M998.819,244.96s5.341,17-8.713,12.16-26.767-12.928-31.18-9.847c-3.36,2.346-3.205,9.538-2.94,12.837a4.895,4.895,0,0,1-.844,3.17l-4.165,6.055a4.644,4.644,0,0,0-.807,2.307l-.3,4.212a2.113,2.113,0,0,1-1.986,1.961l-.959.056a2.113,2.113,0,0,1-2.2-1.745l-1.083-6.188s-3.308-8.323-10.3-5.054c0,0-4.676-6.282-3.122-19.714s7.572-27.4,33.931-29.633S998.819,244.96,998.819,244.96Z"/><path class="cls-47" d="M958.536,333.942l3.943-3.06s3.648,3.031,5.071,6.245,0,13.431,0,13.431l1.2,2.067,1.479-2.7,1.25-12.081s-1.342-8.928-1.472-9.156-7.607.8-7.607.8A15.459,15.459,0,0,0,958.536,333.942Z"/><path class="cls-47" d="M977.5,321.919s4.215.28,6.112,1.857c0,0-4.422.217-5.124.3S977.5,321.919,977.5,321.919Z"/><path class="cls-41" d="M969.47,322.869,962.4,329.48s6.209,2.857,7.944,8.408c0,0,7.7,1.437,8.4-1.351s-.019-9.809.9-12.923S969.47,322.869,969.47,322.869Z"/><path class="cls-41" d="M978.455,336.378s1.314,5.79,2.75,8.179,2.908,5.068,2.908,5.068l-.175,33.937s-12.483-25.728-15.191-30.937c0,0,.415-12.393,1.594-14.737S978.455,336.378,978.455,336.378Z"/><path class="cls-48" d="M944.938,286.227c8.2,23.658,31.27,30.679,31.27,30.679s-4.124,4.007-5.408,4.2-5.008-2.123-5.008-2.123-17.613-4.277-22.7-11.752a20.221,20.221,0,0,1-3.142-15.167l-.678-5.037C942.935,288.227,944.938,286.227,944.938,286.227Z"/><path class="cls-41" d="M926.177,313.921s3.238,11.165,3.655,11.586,8.135-.471,8.135-.471l-3.749,7.1s38.832,41.643,46.88,64.043c0,0-18.374-28.392-50.714-62.3l4.577-6.927-7.938,1.549Z"/><path class="cls-41" d="M989.963,304.062l2.059,2.352-2.42,2.26,7.18,6.49s2.195,45.55-6.573,75.726c0,0,11.9-27.679,9.2-76.967l-7.77-5.27,2.543-2.5Z"/><path class="cls-40" d="M965.492,555.452a2.719,2.719,0,0,0-.268.211l10.059-10.707c-4.643,6.548.706,36.532,1.261,43.4s-5.373,21.042-7.591,37.653c-2.214,16.585,2.325,40.266,2.339,40.336a12.8,12.8,0,0,1-6.116-8.743c-3.431-15.518-2.113-44.555,1.659-56.664S965.492,555.452,965.492,555.452Z"/><path class="cls-45" d="M939.813,463.82c-21.912-.261-49.713-72.306-52.774-87.2-.51-2.484-1.025-5.1-1.491-7.758.079.216,5.756,15.772,11.232,29.562,5.514,13.887,34.8,55.981,49.759,58.724,13.5,2.473,62.037-20.187,71.438-24.66.85,5.058.487,5.107.487,5.107S961.725,464.079,939.813,463.82Z"/><path class="cls-49" d="M946.928,277.871a2.113,2.113,0,0,1-2.2-1.745l-1.083-6.188s-3.308-8.323-10.3-5.054c0,0-4.41-5.967-3.218-18.661,7.772,11.669,25.019,17.057,25.019,17.057l-4.165,6.055a4.644,4.644,0,0,0-.807,2.307l-.3,4.212a2.113,2.113,0,0,1-1.986,1.961Z"/><path class="cls-26" d="M690.36,622.339V599.2q6.954,3.728,14.215,7.265V629.6q-7.259-3.537-14.215-7.265Zm-45.577-28.917V550.775q5.778,4.353,11.9,8.542v42.647q-6.125-4.188-11.9-8.542Zm21.724,15.009v-50.3q6.389,4.053,13.106,7.931v50.3q-6.716-3.876-13.106-7.931ZM608.225,560.4V504.589q4.435,4.879,9.262,9.62v55.809q-4.824-4.74-9.262-9.62Zm17.086,16.986V516.922q5.127,4.63,10.626,9.11v60.461q-5.5-4.478-10.626-9.109ZM581.756,523.9V458.346q2.949,5.325,6.333,10.537v65.55q-3.383-5.211-6.333-10.536Zm11.9,18.638V457.261q3.714,5.117,7.84,10.106v85.274q-4.125-4.989-7.84-10.106Zm-21-37.98V408.246q2.147,5.511,4.748,10.921v96.309q-2.6-5.409-4.748-10.921Zm161.162,21.372c-91.633-36.917-154.942-95.234-168.2-162.046V500.847c13.258,66.813,76.567,125.13,168.2,162.047V525.927Z"/><path class="cls-26" d="M1002.5,678.074v-30.9q23.648-1.291,46.46-4.127v30.9q-22.785,2.82-46.46,4.126Zm-74.1.141V621.909q14.169.715,28.617.864,9.87.1,19.634-.074v56.306q-9.762.173-19.634.074-14.442-.144-28.617-.864Zm-71.418-7.388V584.738q22.4,3.549,45.816,5.619v86.089q-23.388-2.055-45.816-5.619Zm216.383-.367V579.54q22.239-3.61,43.391-8.622v90.921q-21.125,5-43.391,8.621ZM1153.3,540.387c-58.375,17.963-125.336,27.864-196.279,27.154a667.365,667.365,0,0,1-140.1-15.931V688.576a667.363,667.363,0,0,0,140.1,15.932c70.943.71,137.9-9.191,196.279-27.155V540.387Z"/><path class="cls-26" d="M1251.7,579.561V553.038C1315.614,515.3,1357.222,464.977,1364.023,409V435.52c-6.8,55.98-48.409,106.3-112.327,144.041Zm113.251-101V341.593c-2.039,66.993-53.819,126.795-134.8,168.027V646.587c80.977-41.232,132.757-101.034,134.8-168.028Z"/><path class="cls-50" d="M1364.023,409c-6.8,55.98-48.409,106.3-112.327,144.041v26.523c63.918-37.74,105.526-88.061,112.327-144.041V409Z"/><path class="cls-50" d="M902.8,590.357q-23.388-2.055-45.816-5.619v86.089q22.4,3.549,45.816,5.619V590.357Z"/><path class="cls-50" d="M1048.962,643.05q-22.785,2.82-46.46,4.127v30.9q23.648-1.291,46.46-4.126v-30.9Z"/><path class="cls-50" d="M1116.76,570.918q-21.125,5-43.391,8.622v90.92q22.239-3.609,43.391-8.621V570.918Z"/><path class="cls-50" d="M976.655,622.7q-9.762.173-19.634.074-14.442-.144-28.617-.864v56.306q14.169.717,28.617.864,9.87.1,19.634-.074V622.7Z"/><path class="cls-50" d="M577.4,419.167q-2.6-5.409-4.748-10.921v96.309q2.147,5.511,4.748,10.921V419.167Z"/><path class="cls-50" d="M588.089,468.883q-3.383-5.211-6.333-10.537V523.9q2.949,5.325,6.333,10.536v-65.55Z"/><path class="cls-50" d="M601.5,467.367q-4.125-4.989-7.84-10.106v85.274q3.714,5.117,7.84,10.106V467.367Z"/><path class="cls-50" d="M617.487,514.209q-4.824-4.74-9.262-9.62V560.4q4.435,4.879,9.262,9.62V514.209Z"/><path class="cls-50" d="M635.937,526.032q-5.5-4.479-10.626-9.11v60.462q5.127,4.63,10.626,9.109V526.032Z"/><path class="cls-50" d="M656.688,559.317q-6.125-4.188-11.9-8.542v42.647q5.778,4.353,11.9,8.542V559.317Z"/><path class="cls-50" d="M679.613,566.061q-6.716-3.876-13.106-7.931v50.3q6.389,4.054,13.106,7.931v-50.3Z"/><path class="cls-50" d="M704.575,606.461q-7.259-3.537-14.215-7.265v23.143q6.954,3.727,14.215,7.265V606.461Z"/></g><g id="logo_left" data-name="logo left"><polygon class="cls-51" points="310.992 96.015 310.992 119.259 307.674 119.259 307.674 108.895 294.331 108.895 294.331 119.259 291.012 119.259 291.012 96.015 294.331 96.015 294.331 106.012 307.674 106.012 307.674 96.015 310.992 96.015"/><path class="cls-51" d="M331.6,110.792l-5.013-11.387-5.012,11.387Zm1.161,2.656H320.414l-2.558,5.811h-3.414l10.522-23.244h3.283L338.8,119.259h-3.484l-2.559-5.811Z"/><path class="cls-51" d="M357.693,104.115c0-3.32-2.227-5.216-6.471-5.216h-5.641v10.459h5.641C355.466,109.358,357.693,107.436,357.693,104.115Zm.1,15.144-5.012-7.139c-.463.035-.961.07-1.459.07h-5.737v7.069h-3.318V96.015h9.055c6.043,0,9.693,3.058,9.693,8.1a7.344,7.344,0,0,1-5.108,7.341l5.51,7.8h-3.624Z"/><polygon class="cls-51" points="387.925 119.259 387.89 102.324 379.498 116.437 377.97 116.437 369.578 102.42 369.578 119.259 366.39 119.259 366.39 96.015 369.115 96.015 378.808 112.356 388.361 96.015 391.086 96.015 391.121 119.259 387.933 119.259 387.925 119.259"/><path class="cls-51" d="M417.562,107.637a9.025,9.025,0,1,0-8.994,8.931A8.724,8.724,0,0,0,417.562,107.637Zm-21.368,0c0-6.807,5.24-11.884,12.374-11.884s12.313,5.051,12.313,11.884-5.24,11.884-12.313,11.884S396.194,114.444,396.194,107.637Z"/><polygon class="cls-51" points="445.943 96.015 445.943 119.259 443.218 119.259 429.281 101.922 429.281 119.259 425.963 119.259 425.963 96.015 428.688 96.015 442.625 113.352 442.625 96.015 445.943 96.015"/><polygon class="cls-51" points="461.809 111.22 461.809 119.259 458.526 119.259 458.526 111.159 449.305 96.015 452.859 96.015 460.29 108.266 467.756 96.015 471.04 96.015 461.809 111.22"/><path class="cls-51" d="M248.259,104.787a11.135,11.135,0,0,1,9.308,5.532,15.647,15.647,0,0,1,1.939,4.631c.437,1.853.244,3.793.672,5.645a7.72,7.72,0,0,0,15.3-1.494c0-4.282-3.371-7.279-7.423-7.742a12.8,12.8,0,0,1-7.309-2.788c-3.537-2.849-4.759-6.615-4.759-11.692,0-4.334-3.3-8.4-7.816-8.345s-7.641,4.011-7.641,8.336c0,5.077-1.222,8.844-4.759,11.692a12.739,12.739,0,0,1-7.309,2.788c-4.052.463-7.422,3.521-7.422,7.742a7.719,7.719,0,0,0,15.3,1.494c.428-1.852.236-3.792.672-5.645,1.24-5.243,5.545-10.145,11.248-10.171Z"/></g></svg>