<svg xmlns="http://www.w3.org/2000/svg" viewBox="0 0 1920 1080"><defs><style>.cls-1{fill:#0f1854;}.cls-2{fill:#f5f5f5;}.cls-3{opacity:0.15;}.cls-4{fill:#e7e7e7;}.cls-26,.cls-5{fill:#2b45ed;}.cls-6{fill:#2b454e;}.cls-7{fill:#ececec;}.cls-8{fill:#6b6b6b;}.cls-9{fill:#e1e1e1;}.cls-10,.cls-15,.cls-20,.cls-26{opacity:0.2;}.cls-11{fill:#fafafa;}.cls-12{fill:#375a64;}.cls-13{fill:#fb4d3d;}.cls-14{opacity:0.25;}.cls-15,.cls-16,.cls-17,.cls-27{fill:#fff;}.cls-16{opacity:0.3;}.cls-17{opacity:0.45;}.cls-18{fill:#ffaaa8;}.cls-19,.cls-20{fill:#aeb8fe;}.cls-21{fill:#1a2e35;}.cls-22{fill:#f0f0f0;}.cls-23{opacity:0.18;}.cls-24{fill:#ff9090;}.cls-25{fill:#0de5b2;}</style></defs><title>10- How to harmonize questionnaires - X practical steps-01</title><g id="_10:_How_to_harmonize_questionnaires_-_X_practical_steps" data-name="10: How to harmonize questionnaires - X practical steps"><rect class="cls-1" width="1920" height="1080"/><g id="Device"><g id="Monitor"><g id="_Group_" data-name="&lt;Group&gt;"><g id="_Group_2" data-name="&lt;Group&gt;"><path id="_Path_" data-name="&lt;Path&gt;" class="cls-2" d="M892.9,828.816l87.088-50.354c8.975-5.183,13.464-11.975,13.466-18.767s.038-12.114.038-12.114L936.139,715.6c-4.787-2.765-8.667-9.488-8.667-15.017V622.916l-152.11,87.9,0,77.669c0,5.528,3.88,12.251,8.668,15.014l43.855,25.322C845.835,839.181,874.945,839.181,892.9,828.816Z"/></g><path id="_Path_2" data-name="&lt;Path&gt;" class="cls-3" d="M811.879,807.493v12.061L784,803.489c-4.756-2.754-8.659-9.46-8.659-15.016V710.817L804.322,694.1c.6,7.359,1.25,14.966,1.85,22.373l-20.319,11.762v54.184c0,5.555,3.854,12.262,8.66,15.014Z"/><path id="_Path_3" data-name="&lt;Path&gt;" class="cls-4" d="M785.849,782.437c0,5.528,3.881,12.251,8.669,15.015l33.352,19.255c17.954,10.366,47.065,10.369,65.021.007l87.13-50.35c17.957-10.36,17.959-27.164,0-37.53l-33.393-19.282c-4.788-2.765-8.669-9.486-8.669-15.015V640.344L785.849,728.239Z"/><path id="_Path_4" data-name="&lt;Path&gt;" class="cls-3" d="M964.289,719.76v-.014l-17.657-10.194c-4.789-2.765-8.669-9.487-8.669-15.015V640.344L785.849,728.239v54.2c0,5.528,3.881,12.251,8.669,15.015L811.87,807.47Z"/></g><path id="_Path_5" data-name="&lt;Path&gt;" class="cls-5" d="M635.041,843.658c5.037,2.908,13.475,2.752,18.845-.348l449.066-259.263c5.371-3.1,9.721-10.639,9.721-16.84V158.079c0-6.2-4.084-13.586-9.121-16.494s-13.478-2.756-18.847.344L635.646,401.194c-5.37,3.1-9.72,10.643-9.72,16.844l-.006,409.127C625.92,833.366,630,840.751,635.041,843.658Z"/><path id="_Path_6" data-name="&lt;Path&gt;" class="cls-6" d="M653.889,843.3l449.063-259.262c5.372-3.1,9.724-10.641,9.724-16.841V158.066c0-6.2-4.352-8.714-9.724-5.614L653.9,411.716c-5.37,3.1-9.724,10.641-9.724,16.842l-.007,409.127C644.165,843.885,648.519,846.4,653.889,843.3Z"/><path class="cls-7" d="M644.166,804.606v33.079c0,6.2,4.354,8.713,9.724,5.613l449.063-259.262c5.372-3.1,9.724-10.641,9.724-16.841V534.111Z"/><path id="_Path_7" data-name="&lt;Path&gt;" class="cls-8" d="M657.015,773.834l0-340.941A13.219,13.219,0,0,1,663,422.536L1093.83,173.793c3.3-1.906,5.98-.361,5.98,3.453l.017,340.948a13.213,13.213,0,0,1-5.979,10.357L662.994,777.286C659.692,779.193,657.015,777.647,657.015,773.834Z"/><path class="cls-5" d="M628.79,408.429l18.235,10.509a20.635,20.635,0,0,0-2.875,9.611V792.3l.015,45.389c0,5.658,3.829,8.82,9.721,5.625-5.887,3.423-14.264,3-18.845.348-5.031-2.919-9.125-9.076-9.125-15.317V418.04A20.134,20.134,0,0,1,628.79,408.429Z"/></g></g><g id="Test"><path class="cls-9" d="M658.432,388.037,695.219,366.8a44.274,44.274,0,0,0-10.884-8.381h0a17.221,17.221,0,0,0-25.9,14.872Z"/><path class="cls-10" d="M658.432,388.037,695.219,366.8a44.274,44.274,0,0,0-10.884-8.381h0a17.221,17.221,0,0,0-25.9,14.872Z"/><path class="cls-9" d="M658.432,388.037s0-3.733,0-18.265c0-6.688,2.456-11.375,6.5-13.681h0c4.746-2.7,11.68-2.132,19.4,2.327l1.35.78C700,367.459,711.6,387.551,711.6,404.074V725.706l-7.588-4.384.108-317.248c0-13.876-10.153-31.46-22.17-38.4l-1.35-.78c-5.863-3.383-10.021-3.408-11.962-2.305-2.372,1.351-2.727,5.08-2.727,7.181l0,13.948Z"/><path class="cls-11" d="M1027.486,161.859l-1.35-.779c-7.761-4.481-14.725-5.036-19.473-2.287l-341.731,197.3c4.746-2.7,11.68-2.132,19.4,2.327l1.35.78C700,367.459,711.6,387.551,711.6,404.074V725.706l341.8-197.339V206.736C1053.4,190.212,1041.8,170.12,1027.486,161.859Z"/><path class="cls-9" d="M1013.35,158.99c3.55,0,7.648,1.282,11.851,3.709l1.35.78c13.772,7.95,24.976,27.355,24.976,43.257V527.288L713.466,722.467V404.074c0-17.092-12.043-37.95-26.846-46.495l-1.35-.78a30.856,30.856,0,0,0-10.89-4L1007.6,160.411a11.326,11.326,0,0,1,5.75-1.421m0-1.87a13.2,13.2,0,0,0-6.687,1.673l-341.731,197.3a13.233,13.233,0,0,1,6.617-1.633c3.773,0,8.136,1.275,12.786,3.96l1.35.78C700,367.459,711.6,387.551,711.6,404.074V725.706l341.8-197.339V206.736c0-16.524-11.6-36.616-25.911-44.877l-1.35-.779c-4.649-2.685-9.013-3.96-12.786-3.96Z"/><path class="cls-9" d="M758.84,488.866a.936.936,0,0,1-.935-.935V461.619a.937.937,0,0,1,.469-.81l22.785-13.156a.935.935,0,0,1,1.4.81v26.312a.937.937,0,0,1-.468.81l-22.786,13.156A.937.937,0,0,1,758.84,488.866Zm.935-26.707v24.153l20.916-12.076V450.082Z"/><path class="cls-12" d="M796.16,443.915c.179-.1.316-.109.4-.013a1.234,1.234,0,0,1,.237.524l4.123,13.994a.708.708,0,0,1,.015.172,1.343,1.343,0,0,1-.132.57.864.864,0,0,1-.321.392l-1.211.7q-.336.195-.471.052a.731.731,0,0,1-.185-.321l-.724-2.458-5.317,3.07-.725,3.3a2.805,2.805,0,0,1-.184.533,1.1,1.1,0,0,1-.472.493l-1.212.7a.243.243,0,0,1-.319-.023.547.547,0,0,1-.136-.414,1.036,1.036,0,0,1,.018-.192l4.123-18.755a3.691,3.691,0,0,1,.236-.8.957.957,0,0,1,.4-.454Zm.926,10.839-1.851-6.317-1.85,8.454Z"/><path class="cls-5" d="M827.2,449.4a.936.936,0,0,1-.935-.935V422.151a.937.937,0,0,1,.469-.81l22.786-13.156a.935.935,0,0,1,1.4.81v26.312a.937.937,0,0,1-.468.81l-22.786,13.156A.937.937,0,0,1,827.2,449.4Zm.935-26.708v24.153l20.916-12.076V410.614Z"/><path class="cls-12" d="M859.439,425.517a.244.244,0,0,1-.319-.022.556.556,0,0,1-.135-.416V408.341a1.316,1.316,0,0,1,.135-.568.844.844,0,0,1,.319-.392l4.965-2.867a3.074,3.074,0,0,1,1.8-.536,1.762,1.762,0,0,1,1.161.6,3.113,3.113,0,0,1,.631,1.294,6.461,6.461,0,0,1,.194,1.558,7.725,7.725,0,0,1-.135,1.464,8.536,8.536,0,0,1-.328,1.226,9.644,9.644,0,0,1-.388.937,5.192,5.192,0,0,1-.31.567,2.333,2.333,0,0,1,.957.988,4.606,4.606,0,0,1,.439,2.275,10.066,10.066,0,0,1-.235,2.092,11.082,11.082,0,0,1-.691,2.147,8.77,8.77,0,0,1-1.136,1.912,5.394,5.394,0,0,1-1.574,1.388Zm6.48-16.644c0-.657-.136-1.075-.4-1.256s-.7-.1-1.28.233l-2.977,1.719v3.991l2.977-1.719a3.268,3.268,0,0,0,1.28-1.245A3.533,3.533,0,0,0,865.919,408.873Zm-4.662,12.356,3.113-1.8a3.315,3.315,0,0,0,1.355-1.39,4.054,4.054,0,0,0,.428-1.841,1.669,1.669,0,0,0-.447-1.35c-.3-.242-.741-.193-1.336.151l-3.113,1.8Z"/><path class="cls-5" d="M837.149,438.21a1.721,1.721,0,0,1-1.118-.413l-4.891-4.173A1.723,1.723,0,0,1,833.376,431l3.119,2.662,6.855-15.825a1.723,1.723,0,1,1,3.161,1.37l-7.781,17.962a1.727,1.727,0,0,1-1.581,1.038Z"/><path class="cls-9" d="M895.562,409.929a.936.936,0,0,1-.935-.935V382.683a.935.935,0,0,1,.469-.81l22.786-13.156a.935.935,0,0,1,1.4.81v26.312a.938.938,0,0,1-.468.81L896.029,409.8A.937.937,0,0,1,895.562,409.929Zm.936-26.707v24.153L917.413,395.3V371.146Z"/><path class="cls-12" d="M934.583,376.381a1.493,1.493,0,0,1,.175-.606.888.888,0,0,1,.314-.35l1.362-.787a.27.27,0,0,1,.327,0,.5.5,0,0,1,.127.433,12.392,12.392,0,0,1-.346,2.323,11.141,11.141,0,0,1-.9,2.438,11.263,11.263,0,0,1-1.532,2.283,8.537,8.537,0,0,1-2.236,1.837,4.079,4.079,0,0,1-2.054.653,2.174,2.174,0,0,1-1.515-.6,3.849,3.849,0,0,1-.969-1.709,10.538,10.538,0,0,1-.411-2.638q-.036-.963-.035-2.157t.035-2.2a17.2,17.2,0,0,1,.411-3.114,13.486,13.486,0,0,1,.969-2.825,10.7,10.7,0,0,1,1.515-2.352,7.8,7.8,0,0,1,2.054-1.716,4.588,4.588,0,0,1,2.236-.748,2.358,2.358,0,0,1,1.532.515,2.968,2.968,0,0,1,.9,1.41,7.3,7.3,0,0,1,.346,1.914,1.106,1.106,0,0,1-.127.577.9.9,0,0,1-.327.384l-1.362.786a.313.313,0,0,1-.321.017c-.1-.054-.163-.186-.185-.4a2.652,2.652,0,0,0-.235-.874,1.412,1.412,0,0,0-.506-.589,1.288,1.288,0,0,0-.806-.169,2.791,2.791,0,0,0-1.144.415,4.155,4.155,0,0,0-1.146.972,5.965,5.965,0,0,0-.816,1.3,7.18,7.18,0,0,0-.506,1.535A9.963,9.963,0,0,0,929.2,374q-.033,1-.032,2.195c0,.8.01,1.516.032,2.158a6.1,6.1,0,0,0,.211,1.42,2.131,2.131,0,0,0,.506.94,1.2,1.2,0,0,0,.816.357,2.116,2.116,0,0,0,1.146-.349,4.906,4.906,0,0,0,1.144-.907,6.108,6.108,0,0,0,.815-1.106,5.879,5.879,0,0,0,.513-1.176A5.682,5.682,0,0,0,934.583,376.381Z"/><path class="cls-9" d="M963.923,370.461a.936.936,0,0,1-.935-.935V343.215a.936.936,0,0,1,.469-.81l22.786-13.156a.935.935,0,0,1,1.4.81V356.37a.937.937,0,0,1-.468.81L964.39,370.336A.937.937,0,0,1,963.923,370.461Zm.936-26.707v24.153l20.915-12.076V331.678Z"/><path class="cls-12" d="M1000.32,326.046a4.772,4.772,0,0,1,2.161-.745,2.068,2.068,0,0,1,1.532.556,3.7,3.7,0,0,1,.941,1.71,11.635,11.635,0,0,1,.4,2.724q.065,1.879,0,3.836a18.465,18.465,0,0,1-.4,3.181,12.916,12.916,0,0,1-.933,2.794,9.881,9.881,0,0,1-1.5,2.306,8.35,8.35,0,0,1-2.113,1.726l-4.242,2.449a.245.245,0,0,1-.319-.023.555.555,0,0,1-.135-.415V329.407a1.321,1.321,0,0,1,.135-.569.849.849,0,0,1,.319-.392Zm2.758,5.557a5.913,5.913,0,0,0-.211-1.42,2.061,2.061,0,0,0-.521-.942,1.182,1.182,0,0,0-.868-.328,2.62,2.62,0,0,0-1.243.42l-2.254,1.3v11.659l2.339-1.35a4.536,4.536,0,0,0,1.194-.988,5.786,5.786,0,0,0,.842-1.3,7.077,7.077,0,0,0,.511-1.539,9.64,9.64,0,0,0,.211-1.676Q1003.146,333.482,1003.078,331.6Z"/><polygon class="cls-9" points="1025.349 474.402 739.644 639.356 739.644 648.126 1025.349 483.172 1025.349 474.402"/><polygon class="cls-9" points="739.644 542.879 739.644 551.649 1025.349 386.695 1025.349 377.925 739.644 542.879"/><polygon class="cls-9" points="739.644 560.42 739.644 569.191 1025.349 404.237 1025.349 395.466 739.644 560.42"/><polygon class="cls-9" points="739.644 525.337 739.644 534.108 1025.349 369.154 1025.349 360.383 739.644 525.337"/><polygon class="cls-9" points="739.644 446.401 739.644 455.171 1025.349 290.217 1025.349 281.447 739.644 446.401"/><polygon class="cls-9" points="739.644 411.318 739.644 420.088 1025.349 255.134 1025.349 246.364 739.644 411.318"/><polygon class="cls-9" points="739.644 428.859 739.644 437.63 1025.349 272.676 1025.349 263.905 739.644 428.859"/><path class="cls-9" d="M758.84,602.885a.923.923,0,0,1-.466-.125.939.939,0,0,1-.469-.81V575.639a.937.937,0,0,1,.469-.81l22.785-13.157a.935.935,0,0,1,1.4.81v26.311a.938.938,0,0,1-.468.81L759.307,602.76A.927.927,0,0,1,758.84,602.885Zm.935-26.707V600.33l20.916-12.076V564.1Z"/><path class="cls-12" d="M796.16,557.931c.179-.1.316-.108.4-.011a1.234,1.234,0,0,1,.237.523l4.123,14a.69.69,0,0,1,.015.171,1.347,1.347,0,0,1-.132.571.853.853,0,0,1-.321.392l-1.211.7c-.224.131-.381.148-.471.053a.742.742,0,0,1-.185-.321l-.724-2.459-5.317,3.071-.725,3.294a2.812,2.812,0,0,1-.184.534,1.1,1.1,0,0,1-.472.493l-1.212.7a.245.245,0,0,1-.319-.023.547.547,0,0,1-.136-.414,1.011,1.011,0,0,1,.018-.192l4.123-18.756a3.709,3.709,0,0,1,.236-.8.95.95,0,0,1,.4-.453Zm.926,10.841-1.851-6.316-1.85,8.453Z"/><path class="cls-9" d="M827.2,563.417a.923.923,0,0,1-.466-.125.939.939,0,0,1-.469-.81V536.17a.937.937,0,0,1,.469-.81L849.521,522.2a.935.935,0,0,1,1.4.81v26.312a.937.937,0,0,1-.468.81l-22.786,13.156A.927.927,0,0,1,827.2,563.417Zm.935-26.707v24.152l20.916-12.075V524.633Z"/><path class="cls-12" d="M859.439,539.536a.244.244,0,0,1-.319-.023.555.555,0,0,1-.135-.415V522.359a1.32,1.32,0,0,1,.135-.568.849.849,0,0,1,.319-.392l4.965-2.867a3.072,3.072,0,0,1,1.8-.535,1.754,1.754,0,0,1,1.161.6,3.1,3.1,0,0,1,.631,1.293,6.475,6.475,0,0,1,.194,1.559,7.732,7.732,0,0,1-.135,1.464,8.521,8.521,0,0,1-.328,1.225,9.644,9.644,0,0,1-.388.937,5.1,5.1,0,0,1-.31.567,2.336,2.336,0,0,1,.957.989,4.6,4.6,0,0,1,.439,2.274,10.066,10.066,0,0,1-.235,2.092,11.091,11.091,0,0,1-.691,2.148,8.794,8.794,0,0,1-1.136,1.912,5.423,5.423,0,0,1-1.574,1.388Zm6.48-16.645c0-.657-.136-1.075-.4-1.256s-.7-.1-1.28.234l-2.977,1.719v3.99l2.977-1.719a3.268,3.268,0,0,0,1.28-1.245A3.533,3.533,0,0,0,865.919,522.891Zm-4.662,12.356,3.113-1.8a3.317,3.317,0,0,0,1.355-1.391,4.054,4.054,0,0,0,.428-1.841,1.665,1.665,0,0,0-.447-1.349q-.444-.365-1.336.15l-3.113,1.8Z"/><path class="cls-9" d="M895.562,523.949a.936.936,0,0,1-.935-.935V496.7a.935.935,0,0,1,.469-.81l22.786-13.157a.935.935,0,0,1,1.4.81v26.313a.937.937,0,0,1-.468.81l-22.786,13.156A.937.937,0,0,1,895.562,523.949Zm.936-26.707V521.4l20.915-12.077V485.165Z"/><path class="cls-12" d="M934.583,490.4a1.493,1.493,0,0,1,.175-.606.885.885,0,0,1,.314-.349l1.362-.787a.272.272,0,0,1,.327,0,.5.5,0,0,1,.127.434,12.382,12.382,0,0,1-.346,2.322,11.258,11.258,0,0,1-2.431,4.721,8.537,8.537,0,0,1-2.236,1.837,4.079,4.079,0,0,1-2.054.653,2.174,2.174,0,0,1-1.515-.6,3.851,3.851,0,0,1-.969-1.708,10.547,10.547,0,0,1-.411-2.639q-.036-.963-.035-2.156t.035-2.2a17.193,17.193,0,0,1,.411-3.114,13.447,13.447,0,0,1,.969-2.825,10.687,10.687,0,0,1,1.515-2.353,7.815,7.815,0,0,1,2.054-1.715,4.6,4.6,0,0,1,2.236-.749,2.369,2.369,0,0,1,1.532.515,2.971,2.971,0,0,1,.9,1.411,7.293,7.293,0,0,1,.346,1.914,1.1,1.1,0,0,1-.127.576.9.9,0,0,1-.327.384l-1.362.787a.313.313,0,0,1-.321.016c-.1-.054-.163-.185-.185-.4a2.652,2.652,0,0,0-.235-.874,1.409,1.409,0,0,0-.506-.588,1.275,1.275,0,0,0-.806-.169,2.773,2.773,0,0,0-1.144.414,4.172,4.172,0,0,0-1.146.972,5.965,5.965,0,0,0-.816,1.3,7.189,7.189,0,0,0-.506,1.536,9.95,9.95,0,0,0-.211,1.65q-.033,1-.032,2.194t.032,2.158a6.1,6.1,0,0,0,.211,1.421,2.133,2.133,0,0,0,.506.939,1.2,1.2,0,0,0,.816.358,2.124,2.124,0,0,0,1.146-.349,4.932,4.932,0,0,0,1.144-.907,6.143,6.143,0,0,0,.815-1.106,5.912,5.912,0,0,0,.513-1.177A5.654,5.654,0,0,0,934.583,490.4Z"/><path class="cls-5" d="M963.923,484.481a.936.936,0,0,1-.935-.936V457.234a.937.937,0,0,1,.469-.81l22.786-13.157a.935.935,0,0,1,1.4.81V470.39a.937.937,0,0,1-.468.81L964.39,484.356A.947.947,0,0,1,963.923,484.481Zm.936-26.708v24.153l20.915-12.076V445.7Z"/><path class="cls-12" d="M1000.32,440.064a4.769,4.769,0,0,1,2.161-.744,2.072,2.072,0,0,1,1.532.555,3.7,3.7,0,0,1,.941,1.71,11.652,11.652,0,0,1,.4,2.725q.065,1.879,0,3.835a18.465,18.465,0,0,1-.4,3.182,12.916,12.916,0,0,1-.933,2.794,9.9,9.9,0,0,1-1.5,2.306,8.325,8.325,0,0,1-2.113,1.725l-4.242,2.449a.244.244,0,0,1-.319-.022.556.556,0,0,1-.135-.416V443.425a1.313,1.313,0,0,1,.135-.568.844.844,0,0,1,.319-.392Zm2.758,5.558a5.914,5.914,0,0,0-.211-1.421,2.052,2.052,0,0,0-.521-.941,1.182,1.182,0,0,0-.868-.329,2.62,2.62,0,0,0-1.243.42l-2.254,1.3v11.66l2.339-1.35a4.559,4.559,0,0,0,1.194-.989,5.786,5.786,0,0,0,.842-1.3,7.077,7.077,0,0,0,.511-1.539,9.616,9.616,0,0,0,.211-1.676Q1003.146,447.5,1003.078,445.622Z"/><path class="cls-5" d="M973.871,473.292a1.718,1.718,0,0,1-1.118-.413l-4.891-4.173a1.723,1.723,0,1,1,2.237-2.62l3.118,2.661,6.855-15.825a1.723,1.723,0,1,1,3.161,1.37l-7.781,17.962a1.726,1.726,0,0,1-1.192.994A1.765,1.765,0,0,1,973.871,473.292Z"/><path class="cls-9" d="M738.709,679.8l0-19.7L1026.284,494.08v19.7Zm1.868-18.624,0,15.384L1024.414,512.7V497.318Z"/><path class="cls-9" d="M1012.012,183.908,719.2,352.965q2.148,3.132,4.026,6.449l293.185-169.271A34.23,34.23,0,0,0,1012.012,183.908Z"/></g><g id="Window"><path id="_Path_8" data-name="&lt;Path&gt;" class="cls-4" d="M1231.381,179.482l-10.073-5.859L1023.8,287.688V430.153c0,3.418,1.2,5.82,3.133,6.946h0l.014.008h0l10.07,5.858h0c1.944,1.124,4.631.963,7.6-.751l176.025-101.663c5.933-3.426,10.742-11.756,10.742-18.606Z"/><g id="_Group_3" data-name="&lt;Group&gt;"><path class="cls-11" d="M1039.817,442.441a8.631,8.631,0,0,0,4.18-1.3l176.024-101.663c5.581-3.223,10.121-11.089,10.121-17.532l-.005-140.315L1035.115,294.263v141.75C1035.115,440.039,1036.871,442.441,1039.817,442.441Z"/><path class="cls-9" d="M1228.9,183.78l0,138.166c0,5.947-4.352,13.483-9.5,16.457L1043.376,440.067a7.406,7.406,0,0,1-3.557,1.135c-3.127,0-3.464-3.629-3.464-5.189V294.98L1228.9,183.78m2.481-4.3L1033.874,293.548V436.013c0,4.86,2.42,7.669,5.945,7.669a9.742,9.742,0,0,0,4.8-1.467l176.024-101.663c5.933-3.426,10.742-11.756,10.742-18.606l0-142.464Z"/></g><g id="_Group_4" data-name="&lt;Group&gt;"><path id="_Path_9" data-name="&lt;Path&gt;" class="cls-13" d="M1218.263,157.108c-1.948-1.2-4.675-1.064-7.7.681L1034.544,259.45c-5.933,3.425-10.742,11.756-10.742,18.606v9.632l10.072,5.86,197.507-114.066v-9.631c0-3.4-1.189-5.8-3.112-6.924C1226.462,161.868,1220.009,158.179,1218.263,157.108Z"/><path id="_Path_10" data-name="&lt;Path&gt;" class="cls-14" d="M1218.263,157.108c-1.948-1.2-4.675-1.064-7.7.681L1034.544,259.45c-5.933,3.425-10.742,11.756-10.742,18.606v9.632l10.072,5.86,197.507-114.066v-9.631c0-3.4-1.189-5.8-3.112-6.924C1226.462,161.868,1220.009,158.179,1218.263,157.108Z"/><path id="_Path_11" data-name="&lt;Path&gt;" class="cls-13" d="M1033.874,283.916c0-6.85,4.81-15.181,10.743-18.606l176.021-101.661c5.933-3.425,10.743-.649,10.743,6.2v9.631L1033.874,293.548Z"/><path id="_Path_12" data-name="&lt;Path&gt;" class="cls-13" d="M1228.376,162.989c-1.96-1.216-4.688-1.091-7.74.67L1044.623,265.3a21.92,21.92,0,0,0-7.592,8.014l-10.1-5.83a22.06,22.06,0,0,1,7.616-8.038l176.014-101.671c3.027-1.736,5.755-1.86,7.691-.67,1.761,1.067,8.211,4.764,10.022,5.8C1228.3,162.939,1228.352,162.965,1228.376,162.989Z"/><path id="_Path_13" data-name="&lt;Path&gt;" class="cls-15" d="M1228.376,162.989c-1.96-1.216-4.688-1.091-7.74.67L1044.623,265.3a21.92,21.92,0,0,0-7.592,8.014l-10.1-5.83a22.06,22.06,0,0,1,7.616-8.038l176.014-101.671c3.027-1.736,5.755-1.86,7.691-.67,1.761,1.067,8.211,4.764,10.022,5.8C1228.3,162.939,1228.352,162.965,1228.376,162.989Z"/><g id="_Group_5" data-name="&lt;Group&gt;"><g id="_Group_6" data-name="&lt;Group&gt;"><path id="_Path_14" data-name="&lt;Path&gt;" class="cls-11" d="M1193.871,186.538a8.29,8.29,0,0,0-3.751,6.5c0,2.392,1.679,3.362,3.751,2.166a8.29,8.29,0,0,0,3.751-6.5C1197.622,186.312,1195.942,185.342,1193.871,186.538Z"/><path class="cls-11" d="M1207,178.979a8.29,8.29,0,0,0-3.75,6.5c0,2.392,1.679,3.362,3.75,2.166a8.293,8.293,0,0,0,3.751-6.5C1210.748,178.752,1209.068,177.782,1207,178.979Z"/><path id="_Path_15" data-name="&lt;Path&gt;" class="cls-11" d="M1220.123,171.419a8.292,8.292,0,0,0-3.75,6.5c0,2.392,1.679,3.362,3.75,2.166a8.29,8.29,0,0,0,3.751-6.5C1223.874,171.193,1222.2,170.223,1220.123,171.419Z"/></g></g></g><path class="cls-9" d="M1051.636,331.04a.935.935,0,0,1-.935-.936V303.793a.937.937,0,0,1,.468-.81l22.786-13.156a.936.936,0,0,1,1.4.81v26.312a.935.935,0,0,1-.469.81L1052.1,330.915A.937.937,0,0,1,1051.636,331.04Zm.935-26.707v24.152l20.916-12.076V292.256Z"/><path class="cls-12" d="M1088.956,286.087c.179-.1.315-.109.405-.013a1.236,1.236,0,0,1,.235.524l4.123,13.994a.652.652,0,0,1,.017.172,1.318,1.318,0,0,1-.135.57.843.843,0,0,1-.319.392l-1.211.7q-.336.195-.472.052a.737.737,0,0,1-.183-.321l-.724-2.458-5.32,3.07-.724,3.3a2.727,2.727,0,0,1-.183.533,1.1,1.1,0,0,1-.472.493l-1.213.7a.241.241,0,0,1-.318-.023.548.548,0,0,1-.136-.415,1.036,1.036,0,0,1,.017-.191l4.125-18.755a3.828,3.828,0,0,1,.233-.8.982.982,0,0,1,.4-.454Zm.927,10.839-1.851-6.317-1.852,8.454Z"/><path class="cls-5" d="M1051.636,374.883a.935.935,0,0,1-.935-.935V347.636a.937.937,0,0,1,.468-.81l22.786-13.155a.936.936,0,0,1,1.4.81v26.311a.935.935,0,0,1-.469.81L1052.1,374.758A.937.937,0,0,1,1051.636,374.883Zm.935-26.707v24.153l20.916-12.076V336.1Z"/><path class="cls-12" d="M1083.875,351a.247.247,0,0,1-.321-.022.559.559,0,0,1-.134-.415V333.824a1.333,1.333,0,0,1,.134-.568.87.87,0,0,1,.321-.392L1088.84,330a3.07,3.07,0,0,1,1.8-.535,1.751,1.751,0,0,1,1.161.6,3.088,3.088,0,0,1,.629,1.293,6.369,6.369,0,0,1,.194,1.558,7.664,7.664,0,0,1-.134,1.465,8.4,8.4,0,0,1-.327,1.225,9.644,9.644,0,0,1-.388.937,4.873,4.873,0,0,1-.312.567,2.34,2.34,0,0,1,.96.989,4.6,4.6,0,0,1,.438,2.274,10.075,10.075,0,0,1-.237,2.092,11.02,11.02,0,0,1-.69,2.148,8.83,8.83,0,0,1-1.135,1.912,5.458,5.458,0,0,1-1.573,1.388Zm6.479-16.644q0-.986-.4-1.256t-1.281.234l-2.977,1.719v3.99l2.977-1.719a3.284,3.284,0,0,0,1.281-1.245A3.543,3.543,0,0,0,1090.354,334.356Zm-4.661,12.356,3.113-1.8a3.32,3.32,0,0,0,1.354-1.391,4.042,4.042,0,0,0,.429-1.841,1.672,1.672,0,0,0-.446-1.349q-.446-.364-1.337.15l-3.113,1.8Z"/><path class="cls-9" d="M1051.636,418.736a.935.935,0,0,1-.935-.935V391.489a.937.937,0,0,1,.468-.81l22.786-13.156a.936.936,0,0,1,1.4.81v26.312a.934.934,0,0,1-.469.81L1052.1,418.611A.937.937,0,0,1,1051.636,418.736Zm.935-26.708v24.154l20.916-12.076V379.952Z"/><path class="cls-12" d="M1090.656,385.187a1.494,1.494,0,0,1,.178-.606.884.884,0,0,1,.311-.35l1.363-.787a.272.272,0,0,1,.328,0,.5.5,0,0,1,.125.433,12.282,12.282,0,0,1-.343,2.323,11.327,11.327,0,0,1-2.434,4.721,8.524,8.524,0,0,1-2.236,1.837,4.073,4.073,0,0,1-2.053.653,2.175,2.175,0,0,1-1.514-.6,3.829,3.829,0,0,1-.968-1.709,10.533,10.533,0,0,1-.413-2.638q-.033-.963-.034-2.157t.034-2.2a17.206,17.206,0,0,1,.413-3.114,13.371,13.371,0,0,1,.968-2.825,10.641,10.641,0,0,1,1.514-2.352,7.812,7.812,0,0,1,2.053-1.716,4.6,4.6,0,0,1,2.236-.748,2.356,2.356,0,0,1,1.532.515,2.987,2.987,0,0,1,.9,1.41,7.258,7.258,0,0,1,.343,1.914,1.1,1.1,0,0,1-.125.577.878.878,0,0,1-.328.383l-1.363.787a.313.313,0,0,1-.321.017c-.1-.054-.162-.186-.183-.4a2.628,2.628,0,0,0-.237-.874,1.379,1.379,0,0,0-.506-.589,1.282,1.282,0,0,0-.806-.169,2.811,2.811,0,0,0-1.144.415,4.144,4.144,0,0,0-1.144.972,6.011,6.011,0,0,0-.818,1.3,7.35,7.35,0,0,0-.505,1.535,10.068,10.068,0,0,0-.21,1.65q-.033,1-.033,2.195c0,.8.011,1.516.033,2.158a6.152,6.152,0,0,0,.21,1.42,2.167,2.167,0,0,0,.505.94,1.21,1.21,0,0,0,.818.357,2.107,2.107,0,0,0,1.144-.349,4.824,4.824,0,0,0,1.144-.907,6.021,6.021,0,0,0,.816-1.106,5.92,5.92,0,0,0,.513-1.177A5.508,5.508,0,0,0,1090.656,385.187Z"/><path class="cls-9" d="M1106.424,274.911l103.1-59.525c.894-.516,1.619-.228,1.619.644a3.329,3.329,0,0,1-1.619,2.514l-103.1,59.523c-.894.517-1.619.229-1.618-.643A3.33,3.33,0,0,1,1106.424,274.911Z"/><path class="cls-9" d="M1106.424,283.682l103.1-59.525c.894-.516,1.619-.228,1.619.644a3.327,3.327,0,0,1-1.619,2.513l-103.1,59.524c-.894.516-1.619.228-1.618-.643A3.327,3.327,0,0,1,1106.424,283.682Z"/><path class="cls-9" d="M1106.424,292.452l103.1-59.525c.894-.516,1.619-.228,1.619.644a3.325,3.325,0,0,1-1.619,2.513l-103.1,59.524c-.894.516-1.619.228-1.618-.643A3.328,3.328,0,0,1,1106.424,292.452Z"/><path class="cls-9" d="M1106.424,318.765l103.1-59.525c.894-.516,1.619-.228,1.619.644a3.325,3.325,0,0,1-1.619,2.513l-103.1,59.524c-.894.516-1.619.228-1.618-.643A3.327,3.327,0,0,1,1106.424,318.765Z"/><path class="cls-9" d="M1106.424,327.535l103.1-59.524c.894-.517,1.619-.229,1.619.643a3.329,3.329,0,0,1-1.619,2.514l-103.1,59.523c-.894.517-1.619.229-1.618-.643A3.33,3.33,0,0,1,1106.424,327.535Z"/><path class="cls-9" d="M1106.424,336.306l103.1-59.525c.894-.516,1.619-.228,1.619.644a3.327,3.327,0,0,1-1.619,2.513l-103.1,59.524c-.894.516-1.619.228-1.618-.643A3.327,3.327,0,0,1,1106.424,336.306Z"/><path class="cls-9" d="M1106.424,362.619l103.1-59.525c.894-.516,1.619-.228,1.619.644a3.327,3.327,0,0,1-1.619,2.513l-103.1,59.524c-.894.516-1.619.228-1.618-.643A3.327,3.327,0,0,1,1106.424,362.619Z"/><path class="cls-9" d="M1106.424,371.389l103.1-59.525c.894-.516,1.619-.228,1.619.644a3.325,3.325,0,0,1-1.619,2.513l-103.1,59.524c-.894.516-1.619.228-1.618-.643A3.328,3.328,0,0,1,1106.424,371.389Z"/><path class="cls-9" d="M1106.424,380.16l103.1-59.525c.894-.517,1.619-.228,1.619.643a3.327,3.327,0,0,1-1.619,2.514l-103.1,59.523c-.894.517-1.619.229-1.618-.643A3.327,3.327,0,0,1,1106.424,380.16Z"/><path class="cls-5" d="M1061.584,363.137a1.724,1.724,0,0,1-1.119-.413l-4.891-4.174a1.723,1.723,0,1,1,2.237-2.62l3.118,2.661,6.855-15.824a1.723,1.723,0,1,1,3.162,1.37l-7.782,17.962a1.727,1.727,0,0,1-1.58,1.038Z"/></g><g id="Window-2" data-name="Window"><path id="_Path_16" data-name="&lt;Path&gt;" class="cls-4" d="M1231.381,389.035l-10.073-5.86L1023.8,497.24V624.947c0,3.419,1.2,5.821,3.133,6.946h0l.014.008h0l10.07,5.858h0c1.944,1.124,4.631.963,7.6-.751l176.025-101.663c5.933-3.426,10.742-11.756,10.742-18.606Z"/><g id="_Group_7" data-name="&lt;Group&gt;"><path class="cls-11" d="M1039.817,637.235a8.64,8.64,0,0,0,4.18-1.3l176.024-101.664c5.581-3.223,10.121-11.089,10.121-17.532l-.005-125.556L1035.115,503.815V630.807C1035.115,634.833,1036.871,637.235,1039.817,637.235Z"/><path class="cls-9" d="M1228.9,393.333l0,123.407c0,5.947-4.352,13.484-9.5,16.457L1043.376,634.861a7.406,7.406,0,0,1-3.557,1.135c-3.127,0-3.464-3.629-3.464-5.189V504.532l192.545-111.2m2.481-4.3L1033.874,503.1V630.807c0,4.86,2.42,7.669,5.945,7.669a9.742,9.742,0,0,0,4.8-1.467l176.024-101.663c5.933-3.426,10.742-11.756,10.742-18.606l0-127.7Z"/></g><g id="_Group_8" data-name="&lt;Group&gt;"><path id="_Path_17" data-name="&lt;Path&gt;" class="cls-13" d="M1218.263,366.66c-1.948-1.2-4.675-1.063-7.7.681L1034.544,469c-5.933,3.425-10.742,11.756-10.742,18.606v9.631l10.072,5.861,197.507-114.066V379.4c0-3.4-1.189-5.8-3.112-6.924C1226.462,371.421,1220.009,367.732,1218.263,366.66Z"/><path id="_Path_18" data-name="&lt;Path&gt;" class="cls-14" d="M1218.263,366.66c-1.948-1.2-4.675-1.063-7.7.681L1034.544,469c-5.933,3.425-10.742,11.756-10.742,18.606v9.631l10.072,5.861,197.507-114.066V379.4c0-3.4-1.189-5.8-3.112-6.924C1226.462,371.421,1220.009,367.732,1218.263,366.66Z"/><path id="_Path_19" data-name="&lt;Path&gt;" class="cls-13" d="M1033.874,493.469c0-6.851,4.81-15.181,10.743-18.606L1220.638,373.2c5.933-3.425,10.743-.648,10.743,6.2v9.632L1033.874,503.1Z"/><path id="_Path_20" data-name="&lt;Path&gt;" class="cls-13" d="M1228.376,372.541c-1.96-1.215-4.688-1.091-7.74.671L1044.623,474.857a21.909,21.909,0,0,0-7.592,8.013l-10.1-5.83A22.049,22.049,0,0,1,1034.55,469l176.014-101.671c3.027-1.736,5.755-1.86,7.691-.67,1.761,1.067,8.211,4.763,10.022,5.805C1228.3,372.492,1228.352,372.517,1228.376,372.541Z"/><path id="_Path_21" data-name="&lt;Path&gt;" class="cls-15" d="M1228.376,372.541c-1.96-1.215-4.688-1.091-7.74.671L1044.623,474.857a21.909,21.909,0,0,0-7.592,8.013l-10.1-5.83A22.049,22.049,0,0,1,1034.55,469l176.014-101.671c3.027-1.736,5.755-1.86,7.691-.67,1.761,1.067,8.211,4.763,10.022,5.805C1228.3,372.492,1228.352,372.517,1228.376,372.541Z"/><g id="_Group_9" data-name="&lt;Group&gt;"><g id="_Group_10" data-name="&lt;Group&gt;"><path id="_Path_22" data-name="&lt;Path&gt;" class="cls-11" d="M1193.871,396.091a8.29,8.29,0,0,0-3.751,6.5c0,2.392,1.679,3.362,3.751,2.166a8.293,8.293,0,0,0,3.751-6.5C1197.622,395.865,1195.942,394.9,1193.871,396.091Z"/><path class="cls-11" d="M1207,388.531a8.292,8.292,0,0,0-3.75,6.5c0,2.392,1.679,3.362,3.75,2.166a8.29,8.29,0,0,0,3.751-6.5C1210.748,388.305,1209.068,387.335,1207,388.531Z"/><path id="_Path_23" data-name="&lt;Path&gt;" class="cls-11" d="M1220.123,380.971a8.292,8.292,0,0,0-3.75,6.5c0,2.393,1.679,3.362,3.75,2.167a8.29,8.29,0,0,0,3.751-6.5C1223.874,380.745,1222.2,379.775,1220.123,380.971Z"/></g></g></g><path class="cls-9" d="M1055.158,510.56l135.36-78.151c1.174-.677,2.126-.3,2.126.846a4.369,4.369,0,0,1-2.126,3.3L1055.156,514.7c-1.175.678-2.126.3-2.125-.845A4.366,4.366,0,0,1,1055.158,510.56Z"/><path class="cls-9" d="M1055.158,522.075l135.36-78.151c1.174-.678,2.126-.3,2.126.845a4.367,4.367,0,0,1-2.126,3.3l-135.362,78.149c-1.175.678-2.126.3-2.125-.844A4.366,4.366,0,0,1,1055.158,522.075Z"/><path class="cls-9" d="M1055.158,533.59l135.36-78.151c1.174-.678,2.126-.3,2.126.845a4.367,4.367,0,0,1-2.126,3.3l-135.362,78.149c-1.175.678-2.126.3-2.125-.844A4.366,4.366,0,0,1,1055.158,533.59Z"/><path class="cls-9" d="M1050.7,620.562l0-63.554,168.972-97.558V523Zm1.872-62.476,0,59.236,165.234-95.4V462.689Z"/></g><g id="Button"><g id="Button-2" data-name="Button"><path id="_Path_24" data-name="&lt;Path&gt;" class="cls-13" d="M534.7,472.359l61.062-35.3c2.4-1.386,4.347-.263,4.347,2.51v70.949a9.608,9.608,0,0,1-4.347,7.53l-61.062,35.3c-2.4,1.387-4.347.263-4.347-2.51V479.889A9.608,9.608,0,0,1,534.7,472.359Z"/><path id="_Path_25" data-name="&lt;Path&gt;" class="cls-16" d="M534.7,472.359l61.062-35.3c2.4-1.386,4.347-.263,4.347,2.51v70.949a9.608,9.608,0,0,1-4.347,7.53l-61.062,35.3c-2.4,1.387-4.347.263-4.347-2.51V479.889A9.608,9.608,0,0,1,534.7,472.359Z"/><path id="_Path_26" data-name="&lt;Path&gt;" class="cls-13" d="M531.634,475.607l-11.083-6.422a8.881,8.881,0,0,0-1.281,4.293v70.955a3.082,3.082,0,0,0,1.245,2.791c.8.482,10.291,5.906,11.033,6.388a3.137,3.137,0,0,1-1.184-2.771V479.886A8.9,8.9,0,0,1,531.634,475.607Z"/><path id="_Path_27" data-name="&lt;Path&gt;" class="cls-13" d="M598.664,436.66c-1.547-.944-10.171-5.886-10.874-6.308a3.074,3.074,0,0,0-3.112.281l-61.051,35.315a8.868,8.868,0,0,0-3.076,3.237l11.083,6.422a8.908,8.908,0,0,1,3.067-3.251l61.071-35.294A3.2,3.2,0,0,1,598.664,436.66Z"/><path id="_Path_28" data-name="&lt;Path&gt;" class="cls-17" d="M598.664,436.66c-1.547-.944-10.171-5.886-10.874-6.308a3.074,3.074,0,0,0-3.112.281l-61.051,35.315a8.868,8.868,0,0,0-3.076,3.237l11.083,6.422a8.908,8.908,0,0,1,3.067-3.251l61.071-35.294A3.2,3.2,0,0,1,598.664,436.66Z"/></g><path class="cls-11" d="M568.116,468.888c.483-.279.847-.289,1.09-.034a3.378,3.378,0,0,1,.635,1.416l11.122,37.752a1.874,1.874,0,0,1,.046.463,3.57,3.57,0,0,1-.362,1.536,2.293,2.293,0,0,1-.864,1.059l-3.268,1.886c-.607.35-1.03.4-1.273.141a2.046,2.046,0,0,1-.5-.866l-1.953-6.631-14.345,8.282-1.954,8.886a7.1,7.1,0,0,1-.5,1.442,2.942,2.942,0,0,1-1.271,1.327l-3.27,1.888a.653.653,0,0,1-.862-.062,1.494,1.494,0,0,1-.362-1.117,2.665,2.665,0,0,1,.044-.515l11.123-50.6a10.425,10.425,0,0,1,.634-2.149,2.623,2.623,0,0,1,1.092-1.225Zm2.5,29.243-4.994-17.037-4.993,22.8Z"/></g><g id="Button-3" data-name="Button"><g id="Button-4" data-name="Button"><path id="_Path_29" data-name="&lt;Path&gt;" class="cls-13" d="M534.7,591.618l61.062-35.3c2.4-1.386,4.347-.262,4.347,2.51v70.95a9.609,9.609,0,0,1-4.347,7.53l-61.062,35.3c-2.4,1.386-4.347.262-4.347-2.51V599.148A9.608,9.608,0,0,1,534.7,591.618Z"/><path id="_Path_30" data-name="&lt;Path&gt;" class="cls-16" d="M534.7,591.618l61.062-35.3c2.4-1.386,4.347-.262,4.347,2.51v70.95a9.609,9.609,0,0,1-4.347,7.53l-61.062,35.3c-2.4,1.386-4.347.262-4.347-2.51V599.148A9.608,9.608,0,0,1,534.7,591.618Z"/><path id="_Path_31" data-name="&lt;Path&gt;" class="cls-13" d="M531.634,594.866l-11.083-6.421a8.88,8.88,0,0,0-1.281,4.292v70.956a3.08,3.08,0,0,0,1.245,2.79c.8.482,10.291,5.906,11.033,6.388a3.137,3.137,0,0,1-1.184-2.771V599.145A8.9,8.9,0,0,1,531.634,594.866Z"/><path id="_Path_32" data-name="&lt;Path&gt;" class="cls-13" d="M598.664,555.919c-1.547-.944-10.171-5.886-10.874-6.307a3.072,3.072,0,0,0-3.112.281l-61.051,35.314a8.871,8.871,0,0,0-3.076,3.238l11.083,6.421a8.908,8.908,0,0,1,3.067-3.251l61.071-35.294A3.2,3.2,0,0,1,598.664,555.919Z"/><path id="_Path_33" data-name="&lt;Path&gt;" class="cls-17" d="M598.664,555.919c-1.547-.944-10.171-5.886-10.874-6.307a3.072,3.072,0,0,0-3.112.281l-61.051,35.314a8.871,8.871,0,0,0-3.076,3.238l11.083,6.421a8.908,8.908,0,0,1,3.067-3.251l61.071-35.294A3.2,3.2,0,0,1,598.664,555.919Z"/></g><path class="cls-11" d="M554.224,645.6a.653.653,0,0,1-.862-.06,1.489,1.489,0,0,1-.362-1.12v-45.15a3.543,3.543,0,0,1,.362-1.537,2.306,2.306,0,0,1,.862-1.06l13.394-7.732a8.249,8.249,0,0,1,4.858-1.44,4.715,4.715,0,0,1,3.132,1.616,8.385,8.385,0,0,1,1.7,3.49,17.523,17.523,0,0,1,.523,4.207,20.455,20.455,0,0,1-.364,3.95,22.858,22.858,0,0,1-.887,3.307,25.34,25.34,0,0,1-1.043,2.524,12.912,12.912,0,0,1-.84,1.534,6.306,6.306,0,0,1,2.589,2.665,12.449,12.449,0,0,1,1.179,6.133,27.213,27.213,0,0,1-.634,5.643,30.166,30.166,0,0,1-1.863,5.793,23.837,23.837,0,0,1-3.065,5.159,14.674,14.674,0,0,1-4.244,3.744Zm17.479-44.9q0-2.657-1.09-3.389t-3.449.627l-8.037,4.64v10.764l8.037-4.64a8.8,8.8,0,0,0,3.449-3.354A9.536,9.536,0,0,0,571.7,600.705Zm-12.576,33.331,8.4-4.849a8.936,8.936,0,0,0,3.655-3.753,10.906,10.906,0,0,0,1.157-4.965q0-2.659-1.2-3.639t-3.61.4l-8.4,4.849Z"/></g><g id="Button-5" data-name="Button"><g id="Button-6" data-name="Button"><path id="_Path_34" data-name="&lt;Path&gt;" class="cls-13" d="M534.7,710.877l61.062-35.3c2.4-1.386,4.347-.262,4.347,2.51v70.95a9.608,9.608,0,0,1-4.347,7.53l-61.062,35.3c-2.4,1.386-4.347.262-4.347-2.51V718.407A9.611,9.611,0,0,1,534.7,710.877Z"/><path id="_Path_35" data-name="&lt;Path&gt;" class="cls-16" d="M534.7,710.877l61.062-35.3c2.4-1.386,4.347-.262,4.347,2.51v70.95a9.608,9.608,0,0,1-4.347,7.53l-61.062,35.3c-2.4,1.386-4.347.262-4.347-2.51V718.407A9.611,9.611,0,0,1,534.7,710.877Z"/><path id="_Path_36" data-name="&lt;Path&gt;" class="cls-13" d="M531.634,714.125,520.551,707.7A8.881,8.881,0,0,0,519.27,712v70.955a3.083,3.083,0,0,0,1.245,2.791c.8.482,10.291,5.906,11.033,6.388a3.138,3.138,0,0,1-1.184-2.771V718.4A8.9,8.9,0,0,1,531.634,714.125Z"/><path id="_Path_37" data-name="&lt;Path&gt;" class="cls-13" d="M598.664,675.178c-1.547-.943-10.171-5.886-10.874-6.307a3.072,3.072,0,0,0-3.112.281l-61.051,35.315a8.86,8.86,0,0,0-3.076,3.237l11.083,6.421a8.908,8.908,0,0,1,3.067-3.251l61.071-35.294A3.2,3.2,0,0,1,598.664,675.178Z"/><path id="_Path_38" data-name="&lt;Path&gt;" class="cls-17" d="M598.664,675.178c-1.547-.943-10.171-5.886-10.874-6.307a3.072,3.072,0,0,0-3.112.281l-61.051,35.315a8.86,8.86,0,0,0-3.076,3.237l11.083,6.421a8.908,8.908,0,0,1,3.067-3.251l61.071-35.294A3.2,3.2,0,0,1,598.664,675.178Z"/></g><path class="cls-11" d="M572.566,739.266a4,4,0,0,1,.477-1.639,2.422,2.422,0,0,1,.838-.939l3.677-2.122a.739.739,0,0,1,.887.011,1.33,1.33,0,0,1,.34,1.168,33.985,33.985,0,0,1-.93,6.268,30.549,30.549,0,0,1-6.56,12.733,23.039,23.039,0,0,1-6.039,4.954,11.027,11.027,0,0,1-5.539,1.765,5.9,5.9,0,0,1-4.084-1.625,10.371,10.371,0,0,1-2.611-4.609,28.607,28.607,0,0,1-1.112-7.115q-.093-2.6-.092-5.819t.092-5.924a46.645,46.645,0,0,1,1.112-8.4,36.322,36.322,0,0,1,2.611-7.625,28.864,28.864,0,0,1,4.084-6.34,21.1,21.1,0,0,1,5.539-4.633,12.459,12.459,0,0,1,6.039-2.019,6.327,6.327,0,0,1,4.13,1.392,8.042,8.042,0,0,1,2.43,3.8,19.951,19.951,0,0,1,.93,5.161,2.983,2.983,0,0,1-.34,1.56,2.433,2.433,0,0,1-.887,1.034l-3.677,2.124a.824.824,0,0,1-.86.041c-.274-.144-.44-.5-.5-1.073a7.129,7.129,0,0,0-.637-2.359,3.778,3.778,0,0,0-1.36-1.59,3.51,3.51,0,0,0-2.18-.454,7.537,7.537,0,0,0-3.088,1.118,11.3,11.3,0,0,0-3.087,2.62,16.375,16.375,0,0,0-2.2,3.51,19.548,19.548,0,0,0-1.362,4.141,26.553,26.553,0,0,0-.568,4.452q-.09,2.709-.09,5.922t.09,5.82a16.349,16.349,0,0,0,.568,3.83,5.8,5.8,0,0,0,1.362,2.534,3.277,3.277,0,0,0,2.2.965,5.691,5.691,0,0,0,3.087-.944,13.074,13.074,0,0,0,3.088-2.445,16.108,16.108,0,0,0,2.2-2.985,15.852,15.852,0,0,0,1.383-3.175A15.369,15.369,0,0,0,572.566,739.266Z"/></g><g id="Button-7" data-name="Button"><g id="Button-8" data-name="Button"><path id="_Path_39" data-name="&lt;Path&gt;" class="cls-13" d="M534.7,830.137l61.062-35.3c2.4-1.386,4.347-.263,4.347,2.51V868.3a9.608,9.608,0,0,1-4.347,7.53L534.7,911.134c-2.4,1.386-4.347.262-4.347-2.51V837.666A9.608,9.608,0,0,1,534.7,830.137Z"/><path id="_Path_40" data-name="&lt;Path&gt;" class="cls-16" d="M534.7,830.137l61.062-35.3c2.4-1.386,4.347-.263,4.347,2.51V868.3a9.608,9.608,0,0,1-4.347,7.53L534.7,911.134c-2.4,1.386-4.347.262-4.347-2.51V837.666A9.608,9.608,0,0,1,534.7,830.137Z"/><path id="_Path_41" data-name="&lt;Path&gt;" class="cls-13" d="M531.634,833.385l-11.083-6.422a8.881,8.881,0,0,0-1.281,4.293v70.955A3.083,3.083,0,0,0,520.515,905c.8.482,10.291,5.906,11.033,6.388a3.138,3.138,0,0,1-1.184-2.771V837.664A8.892,8.892,0,0,1,531.634,833.385Z"/><path id="_Path_42" data-name="&lt;Path&gt;" class="cls-13" d="M598.664,794.438c-1.547-.944-10.171-5.886-10.874-6.308a3.074,3.074,0,0,0-3.112.281l-61.051,35.315a8.868,8.868,0,0,0-3.076,3.237l11.083,6.422a8.9,8.9,0,0,1,3.067-3.251l61.071-35.295A3.2,3.2,0,0,1,598.664,794.438Z"/><path id="_Path_43" data-name="&lt;Path&gt;" class="cls-17" d="M598.664,794.438c-1.547-.944-10.171-5.886-10.874-6.308a3.074,3.074,0,0,0-3.112.281l-61.051,35.315a8.868,8.868,0,0,0-3.076,3.237l11.083,6.422a8.9,8.9,0,0,1,3.067-3.251l61.071-35.295A3.2,3.2,0,0,1,598.664,794.438Z"/></g><path class="cls-11" d="M565.029,829.976a12.791,12.791,0,0,1,5.834-2,5.561,5.561,0,0,1,4.131,1.493,10.038,10.038,0,0,1,2.542,4.614,31.5,31.5,0,0,1,1.068,7.35q.181,5.07,0,10.344a49.971,49.971,0,0,1-1.068,8.586,34.885,34.885,0,0,1-2.52,7.535,26.5,26.5,0,0,1-4.063,6.226,22.434,22.434,0,0,1-5.7,4.652l-11.441,6.605a.656.656,0,0,1-.862-.061,1.489,1.489,0,0,1-.362-1.119V839.045a3.56,3.56,0,0,1,.362-1.538,2.3,2.3,0,0,1,.862-1.058Zm7.445,14.991a16.188,16.188,0,0,0-.567-3.83,5.658,5.658,0,0,0-1.406-2.544,3.226,3.226,0,0,0-2.34-.886,7.133,7.133,0,0,0-3.358,1.134l-6.085,3.513v31.454l6.311-3.644a12.248,12.248,0,0,0,3.223-2.665,15.539,15.539,0,0,0,2.272-3.511,19.022,19.022,0,0,0,1.383-4.155,26.453,26.453,0,0,0,.567-4.522Q572.656,850.037,572.474,844.967Z"/></g><g id="Character"><g id="Arm"><path id="Arm-2" data-name="Arm" class="cls-18" d="M1350.741,454.009c10.315,1.193,14.771,3.617,21.867,17.394s17.815,64.253,20.908,74.746,4,14.315,1.949,25.765c-2.132,11.929-10.251,32.937-13.79,44.486-1.637,5.343-2.818,10.558-4.09,16.05-1.325,5.725-4.087,10.882-6.187,16.376a15.773,15.773,0,0,1-5.037,6.521c-1.408,1.094-3.232,1.126-4.568,2.155-1.382,1.064-1.74,2.89-3.559,3.691-2.025.892-4.265.16-6.043,1.094-1.859.977-3.459,2.449-5.508,3.226-1.847.7-3.2.948-4.649,2.394-1.187,1.185-2.415,3.9-4.442,3.6-2.272-.338-2.531-2.564-2.557-4.479-.044-3.376,1.99-7.541,4.129-10.1,2.478-2.966,4.234-6.471,7.051-9.142,2.551-2.419,4.145-6.1,5.339-9.417.834-2.321.761-5.352-2.351-4.122-3.667,1.449-7.628,4.685-11.893,3.737-2.95-.656-3-3.008-1.169-4.883a86.932,86.932,0,0,0,8.317-9.9c2.583-3.561,4.761-7.366,7.438-10.844a52.842,52.842,0,0,1,4.669-5.134c4.57-4.536,4.717-11.023,5.5-17.016,1.1-8.368,1.973-16.767,2.79-25.166.11-1.124.834-3.542.44-4.636l-17.726-49.249Z"/><path class="cls-19" d="M1350.02,453.1c7.105-.351,17.5,3.221,22.376,11.684s14.194,46.538,17.455,59.586,6.173,24.513,6.173,24.513-11.064,9.149-33.425,7.635L1345.362,511.4Z"/><path class="cls-20" d="M1350.02,453.1c7.105-.351,17.5,3.221,22.376,11.684s14.194,46.538,17.455,59.586,6.173,24.513,6.173,24.513-11.064,9.149-33.425,7.635L1345.362,511.4Z"/><path class="cls-19" d="M1362.117,555.258c1.562.638,24.262-.481,33.006-9.928l-.84-3.323s3.219-.372,4,4.128.621,4.716,1.553,7.946,1.775,6.792-.932,9.947-10.869,4.93-20.652,4.308-13.819-4.3-15.217-5.567a3.189,3.189,0,0,1-.913-3.043S1359.879,556.55,1362.117,555.258Z"/><g class="cls-10"><path class="cls-19" d="M1399.246,551.841c-.105-.468-.19-.906-.268-1.369-.315.3-.6.628-.927.914a31.9,31.9,0,0,1-6.77,4.513,32.3,32.3,0,0,1-17.058,3.454c-.071-.007-.129.175-.054.194,5.776,1.46,12.421.025,17.675-2.578a31.394,31.394,0,0,0,6.55-4.388C1398.666,552.346,1398.954,552.1,1399.246,551.841Z"/><path class="cls-19" d="M1388.631,564.033c.255-.042.3-.666,0-.629a49.16,49.16,0,0,1-15.779-.676,40.837,40.837,0,0,1-6.872-2,26.312,26.312,0,0,1-3.077-1.437c-.5-.279-.995-.628-1.493-.964a7.428,7.428,0,0,0,.711,1.4,2.578,2.578,0,0,0-.056.329,27.029,27.029,0,0,0,3.306,1.583,40.432,40.432,0,0,0,7.593,2.265A43.2,43.2,0,0,0,1388.631,564.033Z"/></g></g><g id="Bottom"><path id="_Path_44" data-name="&lt;Path&gt;" class="cls-21" d="M1302.81,849.4c.049,4.747-.172,9.04,2.123,14.06,3.292,7.205,9.149,10.115,12.672,12.757a56.288,56.288,0,0,1,10.529,10.66c2.657,3.558,5.676,7.646,11.022,11.5,3.338,2.407,11.216,4.038,18.423,2.426,5.859-1.311,8.474-3.842,7.613-10.532-.84-6.536-26.881-9.866-26.881-9.866Z"/><path id="_Path_45" data-name="&lt;Path&gt;" class="cls-6" d="M1362.014,869.083c1.8.5,1.4,4.217,1.785,8.239.327,3.375,2.321,8.306.871,15.879-1.148,2.249-3.859,3.7-8.078,4.417-6.016,1.029-15.381-1.583-19.538-5.938-5.185-5.435-8.8-10.3-16.091-16.85-6.326-5.678-12.521-7.228-16.194-19.381-2.362-7.812-1.362-11.226,3.79-13.988,7.084-3.8,16.582-2.24,25.493,6.517C1337.748,851.61,1360.219,868.581,1362.014,869.083Z"/><path id="_Path_46" data-name="&lt;Path&gt;" class="cls-11" d="M1308.97,864.31s2-15.435,21.737-19.268l.964.777s-4.869-6.088-12.662-6.6-12.181,1.309-15.256,6.1S1305.272,861.746,1308.97,864.31Z"/><path id="_Path_47" data-name="&lt;Path&gt;" class="cls-22" d="M1334.052,847.978c-.316-.059-.659-.151-1.012-.252-10.546,1.876-14.139,9.578-15.009,11.887-.789,2.256,2.391,3.67,4.04,1.823,3.383-8.548,11.673-11.119,15-11.824A8.484,8.484,0,0,0,1334.052,847.978Z"/><path id="_Path_48" data-name="&lt;Path&gt;" class="cls-22" d="M1339.151,851.3a18.918,18.918,0,0,0-13.886,11.7c-.788,2.255,2.392,3.67,4.041,1.821,2.681-6.777,8.46-9.8,12.4-11.113C1340.831,852.843,1339.97,852.025,1339.151,851.3Z"/><g id="_Group_11" data-name="&lt;Group&gt;"><path id="_Path_49" data-name="&lt;Path&gt;" class="cls-18" d="M1362.7,846.783l-.855,25.652c-1.007,3.667-20.139,6.212-24.771-2.522-.423-.747-2.7-13.432-2.7-13.432Z"/></g><g id="_Group_12" data-name="&lt;Group&gt;"><path class="cls-21" d="M1202.054,920.614c-.781,2.19-.9,6.683-.2,8.163.777,1.64,5.681,7.041,15.664,9s23.722-.053,29.621-.358,24.472,1.906,30.369,2.7c9.264,1.254,16.4-.775,19.855-4.136,1.354-1.318,1.46-3.234,1.392-4.883a24.216,24.216,0,0,0-.983-6.6Z"/><g id="_Group_13" data-name="&lt;Group&gt;"><g id="_Group_14" data-name="&lt;Group&gt;"><path id="_Path_50" data-name="&lt;Path&gt;" class="cls-6" d="M1296.238,914.8c.183.771.351,1.545.5,2.325.732,3.852,1.37,8.12.859,12.032-1.195,2.931-4.481,4.544-7.122,5.383-6.972,2.214-12.295,1.858-20.024.394a141.635,141.635,0,0,0-23.5-1.443c-6.088.413-14.463,1.579-20.551,1.02-5.2-.478-10.309-1.022-15.122-3.083-4.066-1.741-8.21-3.968-9.2-8.149-1.2-8.8,2.5-12.7,6.68-15.142,4.416-2.585,10.1-2.272,16.434-2.7,5.744-.384,9.924-.392,15.026-.781,3.457-.262,9.778-.767,13.126-1.824,3.84-1.212,3.738-5.641,5.382-5.685,1.067-.029,29.584-.81,32.026-.609,2.818.235,3.679,8.969,4.027,10.868.274,1.486.324,3.079.722,4.517C1295.759,912.88,1296.01,913.836,1296.238,914.8Z"/></g></g><path class="cls-11" d="M1217.523,933.336c-.8-6.346-1.851-20.089,9.825-28.029l1.485-.077s-6.8-2.487-16.148,0-13.491,10.042-11.164,18.016C1201.521,923.246,1203.6,930.981,1217.523,933.336Z"/><path class="cls-22" d="M1251.607,903.3c-3.78,3.343-5.085,10.959-5.085,10.959-.492,2.851-5.665,3.275-5.167.53a29.81,29.81,0,0,1,4.473-10.615A8.821,8.821,0,0,1,1251.607,903.3Z"/><path class="cls-22" d="M1241.019,904.6a18.416,18.416,0,0,0-5.3,10.384c-.529,2.734-4.834,2.69-4.53.046,0,0,.5-6.746,4.535-9.906A5.737,5.737,0,0,1,1241.019,904.6Z"/><path id="_Path_51" data-name="&lt;Path&gt;" class="cls-18" d="M1294.331,835.55s-3.154,58.778-3.048,62.489-4.166,9.332-15.522,9.154c-7.978-.125-12.787-1.648-16.88-6.449l-2.2-48.653Z"/></g><g id="_Group_15" data-name="&lt;Group&gt;"><path id="_Path_52" data-name="&lt;Path&gt;" class="cls-8" d="M1365.734,766.544c0-20.606-4.8-34.759-4.8-34.759s1.892-45.484,2.734-80.357c8.322-31.937,5.746-53.681-6.991-75.91,0,0-96.977,20.02-103.173,21.331a10.54,10.54,0,0,0-2.075,1.358c-6.47,48.8-3.654,137.027-2.008,154.289,1.647,17.3.4,26.322,2.672,66.579,1.57,27.894,5.6,68.956,5.6,68.956,12.709,6.545,34.529.863,34.529.863s11.654-89.911,10.44-109.881c-1.483-24.386-2.991-30.569-2.991-30.569s7.562-47.1,9.019-59.855c0,0,3.639,37.931,8.008,73.688,3.426,28.044,18.331,100.327,18.331,100.327a33.145,33.145,0,0,0,27.156-.521S1365.734,786.333,1365.734,766.544Z"/></g><path id="_Path_53" data-name="&lt;Path&gt;" class="cls-23" d="M1308.7,688.589l5.248-44.121s17.305-5.593,29.429-20.4c0,0-1.5,17.087-23.8,26.2l-5.813,36.182-.577,45.337Z"/></g><g id="Top"><g id="_Group_16" data-name="&lt;Group&gt;"><g id="_Group_17" data-name="&lt;Group&gt;"><path id="_Path_54" data-name="&lt;Path&gt;" class="cls-24" d="M1275.3,390.814c-2.69,1.207-10.552,14.255-10.552,15.747,0,2.058,7.954,5.124,7.954,5.124A196.243,196.243,0,0,0,1275.3,390.814Z"/><path id="_Path_55" data-name="&lt;Path&gt;" class="cls-18" d="M1285.509,369.044c-6.01,2.18-10.142,4.447-11.608,16.916-.391,3.327,1.376,8.017-.207,12.3-6.779,18.339.008,34.835,3.342,38.64,2.252,2.567,15.073,4.818,22.027,3.567,8.7-1.567,27.9-8.156,37.936-20.587,11.8-14.626,16.185-35.368,5.465-44.866C1327.381,361.643,1291.925,366.717,1285.509,369.044Z"/><path class="cls-18" d="M1328.477,426.606l3.371,23.337h0c5.205,1.115,5.7,7.278,3.112,11.947l1.206,6.56-35.59,6.534-4.42-34.22Z"/><path class="cls-24" d="M1277.678,437.444c2.849,1.949,9.36,3.731,18.478,3.32l-.694-4.3a73.276,73.276,0,0,1-8.425,1.348A33.273,33.273,0,0,1,1277.678,437.444Z"/></g><path id="_Path_56" data-name="&lt;Path&gt;" class="cls-6" d="M1273.645,360.315c-5.206,6.969-5.647,17.07,2.093,21.161-2.071,8.737,3.726,16.052,10.624,14.718.431,4.229,1.688,7.778,5.646,9.535,2.424,1.076,3.263.043,4.34-1.845,1.532-2.685,3.527-6.839,9.471-5.445,6.816,1.6,7.66,12.163,3,18.595a10.163,10.163,0,0,1-8.273,4.507,6.346,6.346,0,0,1-4.491-2.658,21.747,21.747,0,0,0,10.766,18.45,88.632,88.632,0,0,0,22.809-1.448c6.274-5.679,10.381-9.016,15.5-14.488,15.356-16.41,14.408-38.55,5.166-43.582,2.607-14.814-12.607-26.512-28.467-29.636C1299.488,343.779,1282.709,348.182,1273.645,360.315Z"/><path class="cls-21" d="M1331.532,383.825c-.391,6.535,3.371,14.4,11.206,17.025-4.582,5.544-2.525,16.767,2.39,20.547,15.356-16.41,14.408-38.55,5.166-43.582a19.465,19.465,0,0,0-.279-8.3,21.872,21.872,0,0,0-6.535-.625C1333.807,369.379,1331.922,377.291,1331.532,383.825Z"/></g><g id="_Group_18" data-name="&lt;Group&gt;"><path id="_Path_57" data-name="&lt;Path&gt;" class="cls-19" d="M1256.257,556.223a101.126,101.126,0,0,0,.594-24.686c-9.965-9.809-12.056-23.235-6.472-36.421,7.066-16.684,13.826-31.8,20.929-35,11.555-3.305,26.55-6.174,26.55-6.174a42.77,42.77,0,0,0,18.463,1.51c16.685-2.087,15.63-3.728,15.527-5.513,0,0,11.45,1.918,17.264,2.956,3.644.649,11.823,3.928,14.919,19,6.7,32.629-5.168,48.756-6.165,67.842-.539,5.76,5.723,44.478,7.868,55.177,1.562,10.231-9.385,17.531-30.877,22.482s-43.6,1.982-64.485-16.061c-16.3,16.3-20.591,7.98-20.591,7.98S1255.017,566.183,1256.257,556.223Z"/></g><ellipse class="cls-25" cx="1342.502" cy="377.385" rx="15.29" ry="13.091" transform="translate(171.499 1134.672) rotate(-48.592)"/><path class="cls-6" d="M1332.9,380.583a18.292,18.292,0,0,0,13.481,18.471c-5.385,6.515-4.115,18.439,4.508,25.2-5.271,5.271-5.53,16.572,2.51,24.092-5.858,6.39-1.646,18.053,3.6,22.136-4.846,4.506-1.559,10.2-.3,13.613a5.852,5.852,0,0,1-1.252,6.412s4.633.584,8.4-4.91c2.715-3.96,5.3-9.732.46-14.814,5.232-6.6,7.011-15.545,1.426-22.547,10.6-11.525,6.636-24.933,1.264-25.972,6.893-7.772,7.352-22.655-1.264-27.8,9.232-18.651-1.927-32.754-18.407-29.258C1337.852,367.21,1333.292,374.049,1332.9,380.583Z"/><path class="cls-5" d="M1285.544,456.542s14.036,9.023,34.625,5.312c20.955-3.776,19.006-11.007,19.006-11.007a42.326,42.326,0,0,1-5.6-7.21c-1.95-3.469-3.214-4.014-3.214-4.014l.29,2.373s-2.459,4.02-14.326,5.239-19.393-.491-19.393-.491C1294.828,446.744,1292.217,452.689,1285.544,456.542Z"/><path class="cls-26" d="M1285.544,456.542s14.036,9.023,34.625,5.312c20.955-3.776,19.006-11.007,19.006-11.007a42.326,42.326,0,0,1-5.6-7.21c-1.95-3.469-3.214-4.014-3.214-4.014l.29,2.373s-2.459,4.02-14.326,5.239-19.393-.491-19.393-.491C1294.828,446.744,1292.217,452.689,1285.544,456.542Z"/></g><g id="Arm-3" data-name="Arm"><path class="cls-18" d="M1231.594,479.576c1.041-5.974,2.842-10.491,4.563-10.659,3.257-.319,9.026-2.906,12.166-12.2.471-1.393,2.885-3.645,3.785-4.6,4.482-4.759,5.877-6.376,5.273-8.261a24.247,24.247,0,0,0-3.627-6.558,3.914,3.914,0,0,0-2.524-1.337s-.119-.033,4.127-3.846c1.492-1.34,2.516-2.324,3.457-3.114,1.827-1.535,5.108-2.307,7.149-4.363,3.218-3.239.861-6.063-.879-5.512-1.3.41-7.591,1.933-9.056,2.787-6.277,3.658-11.749,6.7-14.746,8.275-3.514,1.847-8.145,3.965-10.022,5.086-1.107.661-14.106,16.373-14.925,18.483s-17.235,40.249-19.709,47.888c-4.043,12.484-5.956,32.987-1.78,37.164l30.547-20.513S1230.573,485.179,1231.594,479.576Z"/><path class="cls-24" d="M1257.214,450.847c.705,1.318-.154,3.152-1.539,4.543-1.2,1.21-4.1,3.157-5.37,3.223a3.239,3.239,0,0,1-2.964-1.677Z"/><path class="cls-18" d="M1257.381,443.855c2.492,3.5,2.165,5.395-1.888,9.422s-6.154,5.418-9.179,2.952a36.877,36.877,0,0,0,5.794-4.113c1.566-1.641,5.124-5.007,5.263-6.234A8.214,8.214,0,0,0,1257.381,443.855Z"/><path class="cls-24" d="M1230.853,464.785a11.571,11.571,0,0,0,6.769-4.145,15.782,15.782,0,0,0,2.253-3.3,20.642,20.642,0,0,1,2.07-3.627,15.432,15.432,0,0,1,2.89-3.095,10.854,10.854,0,0,1,1.81-1.189,19.778,19.778,0,0,0,1.716-1.009,24.735,24.735,0,0,0,3.169-2.435,8.359,8.359,0,0,0,2.275-2.971,1.5,1.5,0,0,0-.084-1.4,2.54,2.54,0,0,0-1.214-1.071,5.906,5.906,0,0,0-3.629,0,29.06,29.06,0,0,0-7.264,3.411,52.476,52.476,0,0,1-15.707,4.926,72.17,72.17,0,0,0,7.813-2.456,45.68,45.68,0,0,0,7.388-3.363,26.511,26.511,0,0,1,7.462-3.7,7.078,7.078,0,0,1,4.438,0,3.868,3.868,0,0,1,1.838,1.566,2.8,2.8,0,0,1,.223,2.536,9.478,9.478,0,0,1-2.68,3.476,25.884,25.884,0,0,1-3.371,2.513c-.591.371-1.2.728-1.837,1.044a9.685,9.685,0,0,0-1.63,1.038,17.069,17.069,0,0,0-2.79,2.8,19.761,19.761,0,0,0-2.142,3.4,15.921,15.921,0,0,1-2.521,3.35C1236.138,463.011,1233.643,464.672,1230.853,464.785Z"/><path class="cls-24" d="M1231.79,440.366a9.133,9.133,0,0,1,2.6,1.87,8.856,8.856,0,0,1,1.035,1.286,7.171,7.171,0,0,1,.793,1.532l-1.229.29a6.175,6.175,0,0,0-.4-1.375,7.924,7.924,0,0,0-.694-1.34A8.793,8.793,0,0,0,1231.79,440.366Z"/><path class="cls-24" d="M1242.154,454.3a5.624,5.624,0,0,0,4.3,1.329c1.486-.247,2.619-1.355,3.758-2.449s2.256-2.221,3.322-3.387a26.492,26.492,0,0,0,2.948-3.571,1.272,1.272,0,0,0,.261-.786,5.26,5.26,0,0,0-.118-1.043,14.011,14.011,0,0,0-.68-2.17,20.731,20.731,0,0,0-2.189-4.082,3.763,3.763,0,0,0-1.485-1.48,3.145,3.145,0,0,0-2.09.022,12.482,12.482,0,0,0-4.048,2.356,11.322,11.322,0,0,1,3.826-2.977,3.84,3.84,0,0,1,2.6-.2,4.592,4.592,0,0,1,2.025,1.657,18.286,18.286,0,0,1,2.539,4.218,13.789,13.789,0,0,1,.788,2.381,6.5,6.5,0,0,1,.163,1.33,2.648,2.648,0,0,1-.436,1.461,25.6,25.6,0,0,1-3.186,3.763c-1.145,1.136-2.3,2.256-3.553,3.276-1.21.989-2.588,2.184-4.361,2.331A5.642,5.642,0,0,1,1242.154,454.3Z"/><path class="cls-24" d="M1240.455,443.542a10.74,10.74,0,0,1,1.409-3.15,11.053,11.053,0,0,1,2.152-2.537,10.719,10.719,0,0,0-1.552,2.841,9.754,9.754,0,0,0-.678,3.037Z"/><path class="cls-18" d="M1272.34,461.152c-7.233,2.748-10.867,3.015-24.165,15.23s-41.071,31.753-46.43,40.965c-5.907,10.153-9.718,15.942-6.9,21.461,3.332,6.522,16.664,5.223,30.52-1.43,10.709-5.141,43.69-28.772,50.286-34.693S1291.232,461.152,1272.34,461.152Z"/><path class="cls-19" d="M1219.6,498.716c-4.1-1.612-12.158,4.292-17.055,9.081-5.805,5.679-10.506,13.809-12.188,19.863S1192.5,539.6,1192.5,539.6s.794,2.625,5.077,5c4.709,2.609,8.083.732,8.083.732s6.79,3.13,11.071-2.957Z"/><path class="cls-20" d="M1208.062,546c-.121-.111-.247-.217-.365-.334a15.949,15.949,0,0,1-1.684-1.976,19.567,19.567,0,0,1-2.441-4.619c-1.66-4.436-1.853-9.026-2.076-13.7-.008-.173-.179-.071-.193.048a31.108,31.108,0,0,0,1.106,13.831,21.546,21.546,0,0,0,2.618,5.192c.231.334.521.626.775.945A10.462,10.462,0,0,0,1208.062,546Z"/><path class="cls-20" d="M1200.375,515.62c.04-.075.01-.322-.112-.2-3.64,3.724-6.145,9.36-7.553,14.313a43.194,43.194,0,0,0-1.393,7.525,16.648,16.648,0,0,0,1.186,2.34s.02.057.056.146a45.941,45.941,0,0,1,1.744-10.53C1195.608,524.293,1197.99,520.067,1200.375,515.62Z"/><path class="cls-19" d="M1273.158,459.6c-6.955.517-16.056,2.964-20.52,9.871s-39.407,34.306-39.407,34.306a36.859,36.859,0,0,0-8.409,23.88c.337,14.294,9.392,15.426,9.392,15.426s8.853-1.847,22.728-10.718,40.736-28.251,40.736-28.251a50.356,50.356,0,0,0,7.864-26.066C1285.71,462.916,1273.158,459.6,1273.158,459.6Z"/><path class="cls-20" d="M1273.158,459.6c-6.955.517-16.056,2.964-20.52,9.871s-39.407,34.306-39.407,34.306a36.859,36.859,0,0,0-8.409,23.88c.337,14.294,9.392,15.426,9.392,15.426s8.853-1.847,22.728-10.718,40.736-28.251,40.736-28.251a50.356,50.356,0,0,0,7.864-26.066C1285.71,462.916,1273.158,459.6,1273.158,459.6Z"/></g></g><g id="Speech_Bubble" data-name="Speech Bubble"><g id="Speech_Bubble-2" data-name="Speech Bubble"><path class="cls-13" d="M1342.336,302.3c-1.758,14.361-8.639,22.551-17.39,26.74l-8.377-4.843a21.369,21.369,0,0,0,4.113-9.406,28.571,28.571,0,0,0,.206-9.779l13.071-7.555C1333.416,302,1342.336,302.3,1342.336,302.3Z"/><path class="cls-10" d="M1342.336,302.3c-1.758,14.361-8.639,22.551-17.39,26.74l-8.377-4.843a21.369,21.369,0,0,0,4.113-9.406,28.571,28.571,0,0,0,.206-9.779l13.071-7.555C1333.416,302,1342.336,302.3,1342.336,302.3Z"/><path class="cls-13" d="M1362.231,212.789v73.394a8.685,8.685,0,0,1-3.926,6.806l-15.969,9.312c-1.758,14.361-8.639,22.551-17.39,26.74,4.805-6,5.048-14.81,4.319-19.185l-8.583,4.936-11.406,6.564a8.679,8.679,0,0,1-7.853,0l-3.217-1.852a8.717,8.717,0,0,1-3.908-6.806V239.305a8.688,8.688,0,0,1,3.927-6.807l49.029-28.347a8.673,8.673,0,0,1,7.853,0l3.2,1.832A8.716,8.716,0,0,1,1362.231,212.789Z"/><path id="_Path_58" data-name="&lt;Path&gt;" class="cls-10" d="M1294.29,312.7a8.68,8.68,0,0,0,3.926,6.8l3.2,1.846a8.776,8.776,0,0,0,7.183.316c-1.848.7-3.255-.343-3.255-2.583v-73.4a8.034,8.034,0,0,1,1.15-3.871l-11.051-6.38a8.023,8.023,0,0,0-1.15,3.87Z"/><path id="_Path_59" data-name="&lt;Path&gt;" class="cls-16" d="M1362.1,211.673c-.458-1.667-1.978-2.2-3.792-1.154l-49.045,28.369a7.777,7.777,0,0,0-2.767,2.931l-11.047-6.376a7.923,7.923,0,0,1,2.766-2.931l49.028-28.369a8.735,8.735,0,0,1,7.859,0l3.206,1.851A8.664,8.664,0,0,1,1362.1,211.673Z"/></g><path class="cls-11" d="M1332.482,235.682a14.566,14.566,0,0,1,5.858-2.055,7.8,7.8,0,0,1,4.78.916,8.039,8.039,0,0,1,3.188,3.715,15.288,15.288,0,0,1,1.169,6.383,23.935,23.935,0,0,1-.669,5.773,35.951,35.951,0,0,1-1.687,5.165,47.327,47.327,0,0,1-2.255,4.674q-1.219,2.207-2.362,4.318t-2.049,4.222a17.319,17.319,0,0,0-1.254,4.183,8.753,8.753,0,0,1-.53,1.931,2.352,2.352,0,0,1-.97,1.242l-6.775,3.911a.808.808,0,0,1-1.06-.069,1.868,1.868,0,0,1-.44-1.371,20.073,20.073,0,0,1,.747-5.478,38.28,38.28,0,0,1,1.862-5.135c.742-1.652,1.549-3.246,2.417-4.77s1.676-2.981,2.417-4.349a36.835,36.835,0,0,0,1.862-3.939,9.725,9.725,0,0,0,.747-3.594c0-1.652-.409-2.719-1.223-3.189s-2.073-.214-3.773.769a9.777,9.777,0,0,0-3.586,3.227,14.794,14.794,0,0,0-1.579,3.432c-.337,1.109-.621,2.113-.862,3.023a3.056,3.056,0,0,1-1.416,1.968l-6.78,3.914a.7.7,0,0,1-.862-.015,1.475,1.475,0,0,1-.362-1.16,28.969,28.969,0,0,1,1.115-6.928,41.633,41.633,0,0,1,3.026-7.817,38.986,38.986,0,0,1,4.809-7.349A23.745,23.745,0,0,1,1332.482,235.682Zm4.834,55.615a4.3,4.3,0,0,1-.452,1.881,2.775,2.775,0,0,1-1.055,1.3l-7,4.04a.8.8,0,0,1-1.055-.078,1.818,1.818,0,0,1-.44-1.365v-8.636a4.4,4.4,0,0,1,.44-1.884,2.888,2.888,0,0,1,1.055-1.29l7-4.041a.807.807,0,0,1,1.055.073,1.812,1.812,0,0,1,.452,1.368Z"/></g></g><g id="logo_left" data-name="logo left"><polygon class="cls-27" points="310.992 96.015 310.992 119.259 307.674 119.259 307.674 108.895 294.331 108.895 294.331 119.259 291.012 119.259 291.012 96.015 294.331 96.015 294.331 106.012 307.674 106.012 307.674 96.015 310.992 96.015"/><path class="cls-27" d="M331.6,110.792l-5.013-11.387-5.012,11.387Zm1.161,2.656H320.414l-2.558,5.811h-3.414l10.522-23.244h3.283L338.8,119.259h-3.484l-2.559-5.811Z"/><path class="cls-27" d="M357.693,104.115c0-3.32-2.227-5.216-6.471-5.216h-5.641v10.459h5.641C355.466,109.358,357.693,107.436,357.693,104.115Zm.1,15.144-5.012-7.139c-.463.035-.961.07-1.459.07h-5.737v7.069h-3.318V96.015h9.055c6.043,0,9.693,3.058,9.693,8.1a7.344,7.344,0,0,1-5.108,7.341l5.51,7.8h-3.624Z"/><polygon class="cls-27" points="387.925 119.259 387.89 102.324 379.498 116.437 377.97 116.437 369.578 102.42 369.578 119.259 366.39 119.259 366.39 96.015 369.115 96.015 378.808 112.356 388.361 96.015 391.086 96.015 391.121 119.259 387.933 119.259 387.925 119.259"/><path class="cls-27" d="M417.562,107.637a9.025,9.025,0,1,0-8.994,8.931A8.724,8.724,0,0,0,417.562,107.637Zm-21.368,0c0-6.807,5.24-11.884,12.374-11.884s12.313,5.051,12.313,11.884-5.24,11.884-12.313,11.884S396.194,114.444,396.194,107.637Z"/><polygon class="cls-27" points="445.943 96.015 445.943 119.259 443.218 119.259 429.281 101.922 429.281 119.259 425.963 119.259 425.963 96.015 428.688 96.015 442.625 113.352 442.625 96.015 445.943 96.015"/><polygon class="cls-27" points="461.809 111.22 461.809 119.259 458.526 119.259 458.526 111.159 449.305 96.015 452.859 96.015 460.29 108.266 467.756 96.015 471.04 96.015 461.809 111.22"/><path class="cls-27" d="M248.259,104.787a11.135,11.135,0,0,1,9.308,5.532,15.647,15.647,0,0,1,1.939,4.631c.437,1.853.244,3.793.672,5.645a7.72,7.72,0,0,0,15.3-1.494c0-4.282-3.371-7.279-7.423-7.742a12.8,12.8,0,0,1-7.309-2.788c-3.537-2.849-4.759-6.615-4.759-11.692,0-4.334-3.3-8.4-7.816-8.345s-7.641,4.011-7.641,8.336c0,5.077-1.222,8.844-4.759,11.692a12.739,12.739,0,0,1-7.309,2.788c-4.052.463-7.422,3.521-7.422,7.742a7.719,7.719,0,0,0,15.3,1.494c.428-1.852.236-3.792.672-5.645,1.24-5.243,5.545-10.145,11.248-10.171Z"/></g></svg>