<svg xmlns="http://www.w3.org/2000/svg" xmlns:xlink="http://www.w3.org/1999/xlink" viewBox="0 0 1920 1080"><defs><style>.cls-1{fill:#0f1854;}.cls-2{fill:#aeb8fe;}.cls-15,.cls-3{fill:#fff;}.cls-4{fill:url(#linear-gradient);}.cls-5{fill:url(#linear-gradient-2);}.cls-6{fill:#fb4d3d;}.cls-7{fill:#ff6f59;}.cls-8{fill:#ffad5b;}.cls-9{fill:#2b45ed;}.cls-10{fill:#6f5be0;}.cls-11{fill:#b487fe;}.cls-12{fill:#00af54;}.cls-13{fill:#0de5b2;}.cls-14{fill:#7af4d4;}.cls-15{opacity:0.73;}.cls-16{fill:#f5f5f5;}.cls-17{fill:#d6d6d6;}.cls-18{fill:#3f65a1;}.cls-19{fill:#5c544d;}.cls-20{fill:#3f446e;}.cls-21{fill:#33373b;}.cls-22{fill:#3c4145;}.cls-23{fill:#eea886;}.cls-24{fill:#446291;}.cls-25{fill:#3f444f;}.cls-26{fill:#3a3f47;}.cls-27{fill:#fab46c;}.cls-28{fill:#d4985b;}.cls-29{fill:#c2c2c2;opacity:0.3;}.cls-30{fill:#da9b5e;}.cls-31{fill:#eb4747;}.cls-32{fill:#323657;}.cls-33{fill:#ad5717;}.cls-34{fill:#262942;}.cls-35{fill:#b53737;}</style><linearGradient id="linear-gradient" x1="647.31" y1="334.232" x2="1183.29" y2="334.232" gradientUnits="userSpaceOnUse"><stop offset="0" stop-color="#ffc05c"/><stop offset="1" stop-color="#fb4d3d"/></linearGradient><linearGradient id="linear-gradient-2" x1="647.31" y1="319.728" x2="1183.574" y2="319.728" gradientUnits="userSpaceOnUse"><stop offset="0" stop-color="#0de5b2"/><stop offset="0.995" stop-color="#2b45ed"/></linearGradient></defs><title>11- Finding matching and common items in questionnaires and surveys</title><g id="_11:_Finding_matching_and_common_items_in_questionnaires_and_surveys" data-name="11: Finding matching and common items in questionnaires and surveys"><rect class="cls-1" width="1920" height="1080"/><rect class="cls-2" x="610.275" y="159.153" width="725.211" height="653.852" rx="14.05" ry="14.05"/><rect class="cls-3" x="646.368" y="239.116" width="1.884" height="197.717"/><rect class="cls-3" x="779.86" y="239.116" width="1.884" height="197.717"/><rect class="cls-3" x="914.358" y="239.116" width="1.884" height="197.717"/><rect class="cls-3" x="1048.355" y="239.116" width="1.884" height="197.717"/><rect class="cls-3" x="1182.349" y="239.116" width="1.884" height="197.717"/><rect class="cls-3" x="646.368" y="448.546" width="21.318" height="6.872"/><rect class="cls-3" x="646.368" y="214.753" width="32.094" height="5.153"/><rect class="cls-3" x="646.368" y="224.279" width="45.526" height="5.153"/><rect class="cls-3" x="779.86" y="214.753" width="37.68" height="5.153"/><rect class="cls-3" x="779.86" y="224.279" width="24.093" height="5.153"/><rect class="cls-3" x="914.358" y="214.753" width="23.349" height="5.153"/><rect class="cls-3" x="914.358" y="224.279" width="27.214" height="5.153"/><rect class="cls-3" x="1048.355" y="214.753" width="34.01" height="5.153"/><rect class="cls-3" x="1048.355" y="224.279" width="27.214" height="5.153"/><rect class="cls-3" x="1182.349" y="214.753" width="20.315" height="5.153"/><rect class="cls-3" x="1182.349" y="224.279" width="16.256" height="5.153"/><rect class="cls-3" x="781.304" y="448.546" width="21.319" height="6.872"/><rect class="cls-3" x="914.358" y="448.546" width="21.319" height="6.872"/><rect class="cls-3" x="1048.355" y="448.546" width="21.318" height="6.872"/><rect class="cls-3" x="1182.349" y="448.546" width="21.318" height="6.872"/><path class="cls-4" d="M1136.856,378.088c-41.8,0-78.126-18.068-116-36.9-46.759-23.253-95.109-47.295-159.53-40.712-41.135,4.2-66.956,20.957-89.737,35.737-20.626,13.383-40.128,25.152-66.539,26.157-42.684,1.624-57.492-16.581-57.739-17.692V332.994h0c.053.2,9.371,20.635,57.693,20.392,23.8-.119,41.361-11.515,61.7-24.71,23.634-15.333,50.421-32.712,93.713-37.136,67-6.849,116.539,17.783,164.442,41.6,50.125,24.925,97.957,48.3,158.436,28.021v9.6C1166.05,376.55,1152.263,378.086,1136.856,378.088Z"/><path class="cls-5" d="M885.987,375.849c-30.849,0-55.316-20.746-79.27-41.056-18.163-15.4-37.007-31.143-58.758-38.909-66.384-23.7-100.346,19.577-100.649,19.958V302.677c.358-.45,6.416-8.317,23.942-15.827,15.957-6.838,42.729-12.293,79.657.55,23.395,8.139,42.825,24.611,61.616,40.543,38.117,32.316,71.035,60.225,128.2,16.509,43.3-33.11,84.117-64.662,124.279-76.19,39.28-11.275,80.232-3.021,118.566,35.313l-.284,11.955c-81.426-81.786-150.76-29.969-237.1,36.057C923.314,369.076,903.608,375.847,885.987,375.849Z"/><path class="cls-3" d="M766.558,547.391a60.924,60.924,0,1,0-114.731,41.033q.692,1.935,1.5,3.8a60.926,60.926,0,0,0,113.231-44.832Zm-41.984,63.527a45.628,45.628,0,0,1-57.264-24.782c-.4-.929-.78-1.881-1.127-2.848a45.677,45.677,0,1,1,58.391,27.63Z"/><path class="cls-6" d="M665.589,554.292l-14.556-4.544a61.012,61.012,0,0,1,56.339-42.754l.454,15.243a45.745,45.745,0,0,0-42.237,32.055Z"/><path class="cls-7" d="M667.31,586.136l-13.983,6.087q-.806-1.861-1.5-3.8a60.649,60.649,0,0,1-.794-38.676l14.556,4.544a45.48,45.48,0,0,0,.594,29C666.53,584.255,666.906,585.207,667.31,586.136Z"/><path class="cls-8" d="M662.772,607.388a60.654,60.654,0,0,1-9.445-15.165l13.983-6.087a45.372,45.372,0,0,0,7.078,11.371Z"/><path class="cls-3" d="M934.152,590.337a60.923,60.923,0,1,0-113.289-44.858q-.758,1.909-1.378,3.844a60.925,60.925,0,0,0,114.667,41.014Zm-73.46,20.039a45.625,45.625,0,0,1-26.685-56.4q.465-1.449,1.032-2.885a45.678,45.678,0,1,1,25.653,59.287Z"/><path class="cls-9" d="M853.722,528.91l-7.94-13.02a61.007,61.007,0,0,1,70.544,5.041l-9.714,11.754a45.747,45.747,0,0,0-52.89-3.775Z"/><path class="cls-10" d="M834.007,553.974l-14.522-4.651q.621-1.931,1.378-3.844a60.655,60.655,0,0,1,24.919-29.589l7.94,13.02a45.474,45.474,0,0,0-18.683,22.179Q834.472,552.526,834.007,553.974Z"/><path class="cls-11" d="M816.576,566.948a60.6,60.6,0,0,1,2.909-17.625l14.522,4.651a45.409,45.409,0,0,0-2.183,13.215Z"/><path class="cls-3" d="M1055.134,507.7a60.924,60.924,0,1,0-18.626,120.415c1.353.21,2.708.375,4.055.492A60.925,60.925,0,0,0,1055.134,507.7Zm35.829,67.191a45.619,45.619,0,0,1-49.083,38.523c-1.01-.087-2.027-.209-3.041-.367a45.677,45.677,0,1,1,52.124-38.156Z"/><path class="cls-12" d="M1013.067,599.747l-10.935,10.629a61.011,61.011,0,0,1-10.725-69.906l13.617,6.867a45.744,45.744,0,0,0,8.043,52.41Z"/><path class="cls-13" d="M1041.88,613.415l-1.317,15.193c-1.347-.117-2.7-.282-4.055-.492a60.664,60.664,0,0,1-34.376-17.74l10.935-10.629a45.453,45.453,0,0,0,25.772,13.3C1039.853,613.206,1040.87,613.328,1041.88,613.415Z"/><path class="cls-14" d="M1058.4,627.537a60.583,60.583,0,0,1-17.833,1.071l1.317-15.193a45.375,45.375,0,0,0,13.369-.8Z"/><rect class="cls-3" x="648.252" y="657.795" width="121.882" height="9.398"/><rect class="cls-3" x="648.252" y="677.771" width="91.208" height="9.398"/><rect class="cls-3" x="816.568" y="657.795" width="67.206" height="9.398"/><rect class="cls-3" x="816.568" y="677.771" width="99.758" height="9.398"/><rect class="cls-3" x="995.942" y="657.795" width="74.693" height="9.398"/><rect class="cls-3" x="995.942" y="677.771" width="86.518" height="9.398"/><path class="cls-15" d="M1172.251,198.461h177.7a9.986,9.986,0,0,1,9.986,9.986V763.711a9.986,9.986,0,0,1-9.986,9.986h-177.7a9.985,9.985,0,0,1-9.985-9.985V208.446A9.985,9.985,0,0,1,1172.251,198.461Z"/><rect class="cls-3" x="648.252" y="722.674" width="387.822" height="9.096"/><rect class="cls-3" x="648.252" y="743.898" width="419.049" height="9.094"/><rect class="cls-3" x="648.252" y="765.12" width="271.904" height="9.096"/><path class="cls-16" d="M1315.353,293.364a54.25,54.25,0,1,1-54.25-54.248A54.255,54.255,0,0,1,1315.353,293.364Z"/><path class="cls-6" d="M1273.58,278.935a12.369,12.369,0,1,1-12.37-12.369A12.369,12.369,0,0,1,1273.58,278.935Z"/><path class="cls-6" d="M1283.522,319.256v23.522a54.4,54.4,0,0,1-44.841,0V319.256a22.421,22.421,0,0,1,44.841,0Z"/><rect class="cls-17" x="1215.33" y="369.771" width="91.546" height="5.902"/><rect class="cls-17" x="1225.531" y="359.261" width="71.146" height="5.901"/><rect class="cls-17" x="1237.15" y="542.774" width="47.905" height="5.901"/><rect class="cls-17" x="1225.531" y="532.265" width="71.146" height="5.901"/><rect class="cls-17" x="1228.158" y="716.773" width="65.89" height="5.901"/><rect class="cls-17" x="1219.062" y="706.264" width="84.081" height="5.901"/><path class="cls-16" d="M1315.353,465.683a54.25,54.25,0,1,1-54.25-54.248A54.257,54.257,0,0,1,1315.353,465.683Z"/><path class="cls-9" d="M1273.58,451.254a12.369,12.369,0,1,1-12.37-12.369A12.369,12.369,0,0,1,1273.58,451.254Z"/><path class="cls-9" d="M1283.522,491.575V515.1a54.411,54.411,0,0,1-44.841,0V491.575a22.421,22.421,0,0,1,44.841,0Z"/><path class="cls-16" d="M1315.353,638a54.25,54.25,0,1,1-54.25-54.248A54.257,54.257,0,0,1,1315.353,638Z"/><path class="cls-12" d="M1273.58,623.574a12.369,12.369,0,1,1-12.37-12.37A12.369,12.369,0,0,1,1273.58,623.574Z"/><path class="cls-12" d="M1283.522,663.9v23.521a54.411,54.411,0,0,1-44.841,0V663.9a22.421,22.421,0,1,1,44.841,0Z"/><path class="cls-3" d="M1240.919,749.856h40.587a3.549,3.549,0,0,1,3.549,3.549V793.99a3.55,3.55,0,0,1-3.55,3.55H1240.92a3.551,3.551,0,0,1-3.551-3.551V753.406A3.55,3.55,0,0,1,1240.919,749.856Z"/><polygon class="cls-17" points="1261.314 784.069 1248.327 771.08 1251.757 767.65 1261.314 777.208 1270.665 767.855 1274.095 771.287 1261.314 784.069"/><path class="cls-3" d="M1240.919,174.618H1281.5a3.551,3.551,0,0,1,3.551,3.551v40.586a3.55,3.55,0,0,1-3.55,3.55h-40.587a3.549,3.549,0,0,1-3.549-3.549V178.167A3.55,3.55,0,0,1,1240.919,174.618Z" transform="translate(2522.424 396.922) rotate(180)"/><polygon class="cls-17" points="1270.665 204.509 1261.109 194.951 1251.757 204.303 1248.327 200.873 1261.109 188.091 1274.095 201.079 1270.665 204.509"/><rect class="cls-18" x="367.651" y="668.29" width="240.788" height="40.935" transform="translate(1191.306 1155.661) rotate(158.902)"/><path class="cls-19" d="M411.64,888.714s-1.229,9.013-1.383,10.366-13.676-.8-13.676-.8l-1.1-10.729S409.949,887.442,411.64,888.714Z"/><path class="cls-20" d="M410.4,897.934s4.284,5.43,8.426,7.8,10.658,3.307,13.109,5.757c1.766,1.767,6.44,9.384-10.77,9.23s-25.506,1.075-27.35-1.844,2.667-21.549,2.667-21.549S400.561,898.873,410.4,897.934Z"/><path class="cls-19" d="M508.525,888.714s-1.229,9.013-1.383,10.366-13.676-.8-13.676-.8l-1.093-10.729S506.836,887.442,508.525,888.714Z"/><path class="cls-20" d="M507.286,897.934s4.284,5.43,8.429,7.8,19.392,4.313,21.842,6.763c1.769,1.769,4.711,8.889-19.5,8.224-17.2-.475-25.508,1.075-27.352-1.844s2.668-21.549,2.668-21.549S497.211,898.978,507.286,897.934Z"/><path class="cls-21" d="M416.444,656.039s-7.2,22.364-6.25,41.637-3.72,40.363-5.631,60.5c-2.128,22.445-10.834,75.58-11.151,87.587s1.351,50.343,1.351,50.343l17.431.422s14.64-92.895,18.433-102.375,22.593-77.05,23.224-84.635S416.444,656.039,416.444,656.039Z"/><path class="cls-22" d="M489.721,660.019s9.575,52.824,10.839,64.62,2.105,57.084,2.738,64.456,4.213,96.475,7.583,107.429H491.446s-19.955-64.776-19.955-95.423-13.216-66.626-21.747-86.846-28.056-20.7-33.3-58.216C416.444,656.039,482.62,648.12,489.721,660.019Z"/><path class="cls-23" d="M454.78,483.872s17.835-3.65,23.592,10.392.984,39.6-8,41.428-21.485-1.826-24.575-10.532-5.2-20.926-3.791-28.648S450.005,485.418,454.78,483.872Z"/><path class="cls-23" d="M552.643,673.6s5.388,5.785,7.177,6.416,5.406-2.317,18.316-2.767c1.134-.039,3.081,1.055,2.553,2.532s-5.14,7.468-7.564,8-15.055,2.42-20.482,0-8.9-9.585-8.9-9.585Z"/><rect class="cls-24" x="599.938" y="627.568" width="12.862" height="31.073" transform="translate(1403.635 1024.724) rotate(158.895)"/><path class="cls-25" d="M599.806,610.659A148.992,148.992,0,1,0,716.3,435.085,148.992,148.992,0,0,0,599.806,610.659Zm23.98-4.852a124.526,124.526,0,1,1,241.455,10.759l0,0a124.542,124.542,0,0,1-241.453-10.761Z"/><path class="cls-23" d="M468.446,535.992s-1.414,4.439-.606,6.861-22.188-1.124-22.188-1.124a153.294,153.294,0,0,0-1.878-23.334C441.851,507.542,468.446,535.992,468.446,535.992Z"/><path class="cls-26" d="M443.774,518.4s1.176,2.866,7.811,2.866,15.888-7.375,18.738-7.9,3.128-2.107,3.128-2.107l1.3,2.738,2.844.633s-1.41-8.118,3.035-10.644-.191-25.588-22.1-21.585c0,0-16.64,1.895-17.484,11.06S440.914,513.32,443.774,518.4Z"/><path class="cls-27" d="M467.84,542.853a81.129,81.129,0,0,1,24.1,12.049s14.664,6.836,16.223,22.742c.83,8.44,8.267,40.62,9.952,44.411s36.3,51.539,37,52.8-8.917,7.934-10.041,7.372-39.74-42.2-41.566-46.272c0,0-11.917-24.119-12.2-29.034,0,0-.3,14.009-.864,17.942s5.128,54.319,4.846,56.425-38.457,9.655-56.291,7.69a94.423,94.423,0,0,1-30.6-8.682s8.321-34.229,7.2-40.83-3.229-44.375-3.229-44.375l-12.218,17.834,19.52,29.351-4.635,19.1s-33.844-43.39-34.965-48.165.7-9.41,2.527-13.341,12.216-22.328,15.025-26.541,10.674-17.273,22.75-21.346,25.277-10.252,25.277-10.252Z"/><path class="cls-28" d="M469.806,543.7s-.073-4.335-2.037-4.751-21.683-2.311-24.1-1.361v5.047S448.32,545.494,469.806,543.7Z"/><path class="cls-23" d="M473.54,507.889c-.126-1.578-3.313-6.531-5.524-2.109s.526,11.27,2.686,11.059S473.854,511.894,473.54,507.889Z"/><path class="cls-29" d="M645.44,507.455s154.424-51.671,219.8,109.113l0,0a124.54,124.54,0,0,0-219.8-109.111Z"/><path class="cls-30" d="M413.454,657.2s3.473-16.441,1.661-21.772l-2.935-4.414S413.888,640.349,413.454,657.2Z"/><path class="cls-23" d="M1538.347,691.294s-.873,4.745-3.534,5.445c-2.264.6-4.76,3-5.53,3.738-1.029.99-5.319,2.846-4.086,4.157s7.22-2.72,8.644-3.315-.616,6-.04,7.5,11.687,4.258,12.564-.428-1.282-10.272-.964-11.065a29.084,29.084,0,0,0,.772-3.386Z"/><path class="cls-23" d="M1533.748,707.672s-1.73,14.529-1.035,15.593,1.488,1.11,1.706-.241,2.077-13.987,2.077-13.987.842,17.537,1.221,18.535c.222.584,1.751.765,1.935.053s.343-18.141.343-18.141.816,16.372,1.381,17.11a1.128,1.128,0,0,0,1.963-.756c.023-1.217.125-16.456.125-16.456s1.343,11.877,2.19,12.222c.518.209,1.832.43,1.389-2.625s-.729-10.369-.729-10.369Z"/><path class="cls-23" d="M1459.952,920.18h-3.284s1.094-12.4-1.946-12.522-10.573,10.088-15.074,11.67-27.593,2.915-27.716-1.339,8.873-5.957,11.669-7.17,16.413-14.468,18.843-16.048,6.581-12.568,6.581-12.568l12.894-.574s.729,10.272,1.51,15.708a48.145,48.145,0,0,1,.532,5.094C1464.083,907.05,1459.952,920.18,1459.952,920.18Z"/><path class="cls-23" d="M1517,917.726h-2.736V906.184c-2.279.192-9.94,7.44-12.311,9.54s-5.62,2-15.606,2.639-10.925-5.343-9.345-7.378,6.687-2.925,9.345-4.2,13.145-13.1,15.943-15.895,4.5-10.81,4.5-10.81l11.67,1.018a71.442,71.442,0,0,0,1.255,13.477v0a.384.384,0,0,1,.011.046c.113.524.238,1.039.375,1.538C1521.83,902.561,1517,917.726,1517,917.726Z"/><path class="cls-23" d="M1490.179,533.219s5.7,12.019,2.656,21.845c0,0,17.525-2.389,18.047-4.438s-2.2-20.476-.17-26.127S1490.179,533.219,1490.179,533.219Z"/><path class="cls-31" d="M1489.283,549.819s-10.143,4.353-14.772,5.7-14.136,6.586-12.1,23.6,6.044,31.606,7.643,38.864,2.285,25.979,1.207,35.174a135.747,135.747,0,0,0,54.285-3.931s-6.323-15.1-6.48-19.106,14.663-38.2,15.086-43.461,2.229-28.452-6.007-32.951-14.59-3.367-18.089-5.392S1494.032,547.839,1489.283,549.819Z"/><path class="cls-31" d="M1551.584,639.425c.594,7.2-3.324,56.888-3.324,56.888l-14.088,1.623s1-49.076,1.79-60.4c.233-3.339-.54-8.447-1.742-13.987v0c-.762-3.519-1.7-7.213-2.668-10.738-2.665-9.735-5.538-18.192-5.538-18.192s-15.776-41.039,4.017-39.379a47.729,47.729,0,0,1,10.469,20.029c3.114,12.445,6.677,31.091,6.814,38.521S1551.148,634.131,1551.584,639.425Z"/><path class="cls-32" d="M1473.847,656.118s-4.411,10.431-4.8,13.063-14.216,37.061-15.179,47.137c-.972,10.185-3.893,37.365-4.93,41.255s2.336,21.279,2.854,25.17.26,67.466-4.411,98.863c0,0,10.9,4.672,19.2,0,0,0,13.752-49.043,12.974-77.324s-4.366-40.219.022-51.638,30.077-45.667,32.673-49.3,18.85-23.707,3.456-45.456S1473.847,656.118,1473.847,656.118Z"/><path class="cls-32" d="M1529.416,748.5c-1.408,9.364.072,21.662,3.013,55.9s-5.147,75.686-5.147,75.686c-10.162,3.481-21.865,0-21.865,0,.269-2.406,0-83.443,0-90.666s-2.074-15.417-2.607-23.705c-.365-5.647-2.993-16.064-5.95-26.695-.886-3.185-1.8-6.386-2.692-9.487v0c-.5-1.736-.991-3.446-1.468-5.1-4.164-14.441-9.764-70.211-9.764-70.211s31.039-25,46.151-1.462,7.353,40.651,6.82,43.592S1530.824,739.138,1529.416,748.5Z"/><path class="cls-31" d="M1469.268,610.684s2.757,44.31-5.492,69.245c0,0,32.777,5.464,74.593-8.626,0,0-11.5-29.784-11.105-34.44s12.5-58.891,6.69-71.023S1471.33,570.927,1469.268,610.684Z"/><path class="cls-23" d="M1509.01,484.282c-6.889-2.964-25.8-7.1-32.783,21.1s3.627,29.6,14.63,29.708,29.535-17.756,31.276-23.517S1528.667,492.739,1509.01,484.282Z"/><path class="cls-33" d="M1477.788,500.023s7.245,10.5,15.416,13.826c0,0,5.41,12.163,16.427,16.145,0,0,26.181-20.812,7.527-39.98S1478.466,491.174,1477.788,500.023Z"/><path class="cls-34" d="M1516.546,698.2c-.241.536-15.706,34.862-19.686,40.816-.886-3.185-1.8-6.386-2.692-9.487v0S1516.029,698.956,1516.546,698.2Z"/><path class="cls-35" d="M1534.913,588.36s1.093,21.812-.693,35.188c-.762-3.519-1.7-7.213-2.668-10.738C1531.628,612.309,1534.627,591.8,1534.913,588.36Z"/><path class="cls-33" d="M1503.991,482.267s29.8.274,17.728,43.6c-7.786,27.953,7.285,54.443,5.5,59.464s-17.35,10.211-25.845.089c-8.639-10.293,6.377-43.67-.977-59.03s-23.393-25.7-23.393-25.7S1482.307,478.605,1503.991,482.267Z"/><path class="cls-31" d="M1466.625,571.418s-6.7,23.936-8.119,28.957c-1.839,6.53,7.449,16.143,15.012,12.368S1466.625,571.418,1466.625,571.418Z"/><path class="cls-20" d="M1517,917.726h-2.736V906.184c-2.279.192-9.94,7.44-12.311,9.54s-5.62,2-15.606,2.639-10.925-5.343-9.345-7.378,6.687-2.925,9.345-4.2c10.681.572,23.716-14.445,29.972-14.414,3.323.016,3.292,1.858,3.394,2.2v0a.384.384,0,0,1,.011.046c.113.524.238,1.039.375,1.538C1521.83,902.561,1517,917.726,1517,917.726Z"/><path class="cls-20" d="M1459.952,920.18h-3.284s1.094-12.4-1.946-12.522-10.573,10.088-15.074,11.67-27.593,2.915-27.716-1.339,8.873-5.957,11.669-7.17c9.527-.023,25.019-10.508,29.825-12.634a17.337,17.337,0,0,1,10-.848,48.145,48.145,0,0,1,.532,5.094C1464.083,907.05,1459.952,920.18,1459.952,920.18Z"/><path class="cls-23" d="M1493.757,510.632c.925-1.319,5.479-2.761,6.414,1.659s-7.106,9.968-8.8,9.177S1490.247,515.636,1493.757,510.632Z"/><path class="cls-18" d="M1461.347,727.03h-22.224a4.1,4.1,0,0,1-4.092-4.093V708.924a4.1,4.1,0,0,1,4.092-4.094h22.224a4.1,4.1,0,0,1,4.093,4.094v14.013A4.1,4.1,0,0,1,1461.347,727.03Zm-22.224-19.455a1.349,1.349,0,0,0-1.346,1.349v14.013a1.349,1.349,0,0,0,1.346,1.347h22.224a1.349,1.349,0,0,0,1.346-1.347V708.924a1.349,1.349,0,0,0-1.346-1.349Z"/><rect class="cls-18" x="1408.546" y="721.016" width="83.377" height="59.735"/><path class="cls-23" d="M1456.964,718.509a8.622,8.622,0,0,0,1.433-2.356s.275-1.661.541-2.829a8.228,8.228,0,0,1,.245-.895,15.794,15.794,0,0,0,1.441-4.838c.187-2.233-1.491-12.083-1.491-12.083l-5.581-.605-5.145-1.313s-8.042,11.143-8.456,13.206a5.487,5.487,0,0,0-.086.594c-.181,1.779.431,3.181.443,4.128.006.347.3,3.794,1.15,4.382a3.377,3.377,0,0,0,3.239.544s2.379,1.5,4.257,1.267a5.02,5.02,0,0,0,4.4.5S1455.705,719.446,1456.964,718.509Z"/><path class="cls-31" d="M1477.159,556.271s-21.318.6-16.922,20.431c3.865,17.431,4.185,34.629,3.257,37.73s-1.442,18.61-4.8,27.3c-2.963,7.674-13.211,52.451-13.211,52.451l14.837,3.866s14.1-48.664,16.355-54.569,14.757-58.585,14.313-64.252S1491.345,557.2,1477.159,556.271Z"/><path class="cls-33" d="M1521.794,493.767s7.1,13.1.442,37.523c-2.318,8.491,19.638,45.828,3.1,56.39S1496.318,508.137,1521.794,493.767Z"/></g><g id="logo_left" data-name="logo left"><polygon class="cls-3" points="310.992 96.015 310.992 119.259 307.674 119.259 307.674 108.895 294.331 108.895 294.331 119.259 291.012 119.259 291.012 96.015 294.331 96.015 294.331 106.012 307.674 106.012 307.674 96.015 310.992 96.015"/><path class="cls-3" d="M331.6,110.792l-5.013-11.387-5.012,11.387Zm1.161,2.656H320.414l-2.558,5.811h-3.414l10.522-23.244h3.283L338.8,119.259h-3.484l-2.559-5.811Z"/><path class="cls-3" d="M357.693,104.115c0-3.32-2.227-5.216-6.471-5.216h-5.641v10.459h5.641C355.466,109.358,357.693,107.436,357.693,104.115Zm.1,15.144-5.012-7.139c-.463.035-.961.07-1.459.07h-5.737v7.069h-3.318V96.015h9.055c6.043,0,9.693,3.058,9.693,8.1a7.344,7.344,0,0,1-5.108,7.341l5.51,7.8h-3.624Z"/><polygon class="cls-3" points="387.925 119.259 387.89 102.324 379.498 116.437 377.97 116.437 369.578 102.42 369.578 119.259 366.39 119.259 366.39 96.015 369.115 96.015 378.808 112.356 388.361 96.015 391.086 96.015 391.121 119.259 387.933 119.259 387.925 119.259"/><path class="cls-3" d="M417.562,107.637a9.025,9.025,0,1,0-8.994,8.931A8.724,8.724,0,0,0,417.562,107.637Zm-21.368,0c0-6.807,5.24-11.884,12.374-11.884s12.313,5.051,12.313,11.884-5.24,11.884-12.313,11.884S396.194,114.444,396.194,107.637Z"/><polygon class="cls-3" points="445.943 96.015 445.943 119.259 443.218 119.259 429.281 101.922 429.281 119.259 425.963 119.259 425.963 96.015 428.688 96.015 442.625 113.352 442.625 96.015 445.943 96.015"/><polygon class="cls-3" points="461.809 111.22 461.809 119.259 458.526 119.259 458.526 111.159 449.305 96.015 452.859 96.015 460.29 108.266 467.756 96.015 471.04 96.015 461.809 111.22"/><path class="cls-3" d="M248.259,104.787a11.135,11.135,0,0,1,9.308,5.532,15.647,15.647,0,0,1,1.939,4.631c.437,1.853.244,3.793.672,5.645a7.72,7.72,0,0,0,15.3-1.494c0-4.282-3.371-7.279-7.423-7.742a12.8,12.8,0,0,1-7.309-2.788c-3.537-2.849-4.759-6.615-4.759-11.692,0-4.334-3.3-8.4-7.816-8.345s-7.641,4.011-7.641,8.336c0,5.077-1.222,8.844-4.759,11.692a12.739,12.739,0,0,1-7.309,2.788c-4.052.463-7.422,3.521-7.422,7.742a7.719,7.719,0,0,0,15.3,1.494c.428-1.852.236-3.792.672-5.645,1.24-5.243,5.545-10.145,11.248-10.171Z"/></g></svg>