<svg xmlns="http://www.w3.org/2000/svg" viewBox="0 0 1920 1080"><defs><style>.cls-1{fill:#0f1854;}.cls-2{fill:#2b45ed;}.cls-3{fill:#ececec;}.cls-4{fill:#00af54;}.cls-5{fill:#0de5b2;}.cls-6{fill:#aeb8fe;}.cls-16,.cls-19,.cls-22,.cls-24,.cls-25,.cls-7{fill:#fff;}.cls-8{fill:#2b454e;}.cls-20,.cls-9{fill:#fafafa;}.cls-10{fill:#e1e1e1;}.cls-11{fill:#f0f0f0;}.cls-12{opacity:0.4;}.cls-13{opacity:0.15;}.cls-14{fill:#f5f5f5;}.cls-15{fill:#375a64;}.cls-16{opacity:0.8;}.cls-17,.cls-22{opacity:0.3;}.cls-18{opacity:0.5;}.cls-19{opacity:0.6;}.cls-20{stroke:#e1e1e1;stroke-miterlimit:10;stroke-width:1.85px;}.cls-21{fill:#fb4d3d;}.cls-23{opacity:0.1;}.cls-24{opacity:0.88;}.cls-25{opacity:0.75;}.cls-26{opacity:0.55;}.cls-27{fill:#af3c37;}.cls-28{fill:#f48882;}.cls-29{fill:#ffcfa4;}.cls-30{fill:#1a2e35;}</style></defs><title>12- Combining multiple survey sorces - the best practices list</title><g id="_12:_Combining_multiple_survey_sorces_-_the_best_practices_list" data-name="12: Combining multiple survey sorces - the best practices list"><rect class="cls-1" width="1920" height="1080"/><ellipse id="Floor" class="cls-2" cx="960" cy="698.985" rx="445.294" ry="257.091"/><path id="Cloud" class="cls-3" d="M1281.14,301.18l-16.542,9.551a19.967,19.967,0,0,0,.139-2.19v-4.793c0-8.528-5.987-11.985-13.373-7.721a25.886,25.886,0,0,0-7.97,7.665c-1.21-10.724-9.624-14.718-19.842-8.819-11.05,6.38-20.008,21.895-20.008,34.654V336.7a18.888,18.888,0,0,0,1.694,8.306l-13.74,7.933a16.4,16.4,0,0,0-7.418,12.848c0,4.731,3.321,6.648,7.418,4.283l89.642-51.755a16.4,16.4,0,0,0,7.419-12.849C1288.559,300.732,1285.237,298.814,1281.14,301.18Z"/><path id="Cloud-2" data-name="Cloud" class="cls-3" d="M1383.807,322.815l-12.484,7.208a15.018,15.018,0,0,0,.105-1.652v-3.617c0-6.437-4.519-9.045-10.093-5.827a19.525,19.525,0,0,0-6.015,5.784c-.913-8.093-7.263-11.108-14.975-6.655-8.339,4.815-15.1,16.523-15.1,26.153v5.411a14.259,14.259,0,0,0,1.278,6.268l-10.37,5.987a12.376,12.376,0,0,0-5.6,9.7c0,3.57,2.506,5.017,5.6,3.232l67.654-39.06a12.374,12.374,0,0,0,5.6-9.7C1389.406,322.477,1386.9,321.03,1383.807,322.815Z"/><g id="Monitor"><g id="_Group_" data-name="&lt;Group&gt;"><g id="_Group_2" data-name="&lt;Group&gt;"><path id="_Path_" data-name="&lt;Path&gt;" class="cls-4" d="M886.931,714.584l62.886-36.36c6.481-3.742,9.722-8.647,9.723-13.551s.027-8.748.027-8.748L894.32,619.134a13.836,13.836,0,0,1-6.259-10.843V530.759L778.223,594.23l0,77.531a13.838,13.838,0,0,0,6.26,10.843l55.5,31.981C852.946,722.07,873.966,722.069,886.931,714.584Z"/></g><path id="_Path_2" data-name="&lt;Path&gt;" class="cls-4" d="M804.592,685.49v8.71l-20.131-11.6a13.849,13.849,0,0,1-6.253-10.843V594.232l20.926-12.071c.434,5.313.9,10.806,1.337,16.155L785.8,606.81v60.573a13.752,13.752,0,0,0,6.253,10.842Z"/><path id="_Path_3" data-name="&lt;Path&gt;" class="cls-5" d="M785.8,667.4a13.84,13.84,0,0,0,6.26,10.843l47.918,27.6c12.965,7.485,33.986,7.487,46.952,0l62.917-36.357c12.966-7.482,12.968-19.616,0-27.1L901.9,614.767a13.837,13.837,0,0,1-6.26-10.842V543.344L785.8,606.813Z"/><path id="_Path_4" data-name="&lt;Path&gt;" class="cls-4" d="M914.647,622.137v-.009l-12.75-7.361a13.835,13.835,0,0,1-6.26-10.842V543.344L785.8,606.813V667.4a13.84,13.84,0,0,0,6.26,10.843l12.53,7.234Z"/><path id="_Path_5" data-name="&lt;Path&gt;" class="cls-4" d="M959.554,655.931v8.747c0,4.915-3.252,9.794-9.722,13.553l-62.895,36.34c-6.216,3.614-14.276,5.421-22.408,5.565v-8.71c8.132-.108,16.192-1.988,22.408-5.566l62.895-36.376C956.3,665.762,959.554,660.847,959.554,655.931Z"/></g><path id="_Path_6" data-name="&lt;Path&gt;" class="cls-5" d="M609.434,742.7c4.054,2.341,10.844,2.215,15.165-.28l424.783-245.243a17.289,17.289,0,0,0,7.822-13.551V138.873c0-4.99-3.286-10.932-7.34-13.273s-10.843-2.214-15.165.281L609.924,371.124a17.3,17.3,0,0,0-7.825,13.553l0,344.747C602.094,734.414,605.38,740.357,609.434,742.7Z"/><path id="_Path_7" data-name="&lt;Path&gt;" class="cls-6" d="M624.6,742.408l424.78-245.242a17.3,17.3,0,0,0,7.825-13.553V138.864c0-4.99-3.5-7.013-7.825-4.518L624.607,379.589a17.3,17.3,0,0,0-7.825,13.553l0,344.748C616.777,742.88,620.28,744.9,624.6,742.408Z"/><path id="_Path_8" data-name="&lt;Path&gt;" class="cls-7" d="M624.6,742.408l424.78-245.242a17.3,17.3,0,0,0,7.825-13.553V138.864c0-4.99-3.5-7.013-7.825-4.518L624.607,379.589a17.3,17.3,0,0,0-7.825,13.553l0,344.748C616.777,742.88,620.28,744.9,624.6,742.408Z"/><path id="_Path_9" data-name="&lt;Path&gt;" class="cls-5" d="M623.45,751.34c-4.337,1.915-10.336,1.843-14.023-.289-4.048-2.349-7.336-8.277-7.336-13.3v-31.29l14.673,8.494v31.289C616.764,750.8,619.655,752.858,623.45,751.34Z"/><path id="_Path_10" data-name="&lt;Path&gt;" class="cls-8" d="M616.764,714.955l.013,31.277c0,4.989,3.5,7.012,7.825,4.517l424.78-245.241a17.3,17.3,0,0,0,7.825-13.553V460.61Z"/><path id="_Path_11" data-name="&lt;Path&gt;" class="cls-5" d="M616.777,714.889v31.343c0,4.989,3.5,7.012,7.825,4.517l424.78-245.241a17.3,17.3,0,0,0,7.825-13.553V460.61Z"/><path id="_Path_12" data-name="&lt;Path&gt;" class="cls-2" d="M631.454,675.7l0-277.685a10.376,10.376,0,0,1,4.7-8.132l401.67-231.9c2.593-1.5,4.7-.284,4.7,2.71l.013,277.692a10.372,10.372,0,0,1-4.695,8.132l-401.686,231.9C633.556,679.908,631.454,678.694,631.454,675.7Z"/><path id="_Path_13" data-name="&lt;Path&gt;" class="cls-5" d="M619.077,385.4a16.627,16.627,0,0,0-2.313,7.734v321.82l-14.673-8.494V384.678a16.2,16.2,0,0,1,2.312-7.734Z"/></g><g id="Window"><g id="Window-2" data-name="Window"><g id="_Group_3" data-name="&lt;Group&gt;"><path class="cls-6" d="M1116.357,137.232a3.854,3.854,0,0,0-3.992.314l-423.354,244.5a12.122,12.122,0,0,0-5.483,9.5v285.42a5.34,5.34,0,0,0,2.311,4.765c.9.481,5.607,3.223,7,3.974a3.146,3.146,0,0,0,3.177-.183l423.345-244.594a12.1,12.1,0,0,0,5.488-9.489V144.686c0-1.8-.653-3.053-1.7-3.6C1122.17,140.569,1117.367,137.838,1116.357,137.232Z"/></g><g id="_Group_4" data-name="&lt;Group&gt;"><g id="_Group_5" data-name="&lt;Group&gt;"><path class="cls-9" d="M694.21,685.127c-1.517,0-2.752-1.879-2.752-4.188V395.521a11.285,11.285,0,0,1,5.021-8.7l423.354-244.5a4.12,4.12,0,0,1,1.986-.624c1.321,0,2.11,1.117,2.11,2.989V431.439a11.261,11.261,0,0,1-5.024,8.687l-423.346,244.6A2.736,2.736,0,0,1,694.21,685.127Z"/><path class="cls-10" d="M1121.82,142.622h0c1.03,0,1.183,1.293,1.183,2.064V431.439a10.221,10.221,0,0,1-4.563,7.886L695.1,683.918a1.833,1.833,0,0,1-.889.284c-.973,0-1.826-1.525-1.826-3.262V395.521a10.245,10.245,0,0,1,4.558-7.9l423.353-244.5a3.125,3.125,0,0,1,1.525-.5m0-1.851a4.974,4.974,0,0,0-2.449.749l-423.354,244.5a12.122,12.122,0,0,0-5.483,9.5V680.94c0,2.765,1.536,5.112,3.677,5.112a3.627,3.627,0,0,0,1.811-.53l423.345-244.594a12.1,12.1,0,0,0,5.488-9.489V144.686c0-2.481-1.235-3.915-3.035-3.915Z"/></g><path id="_Path_14" data-name="&lt;Path&gt;" class="cls-11" d="M685.831,681.728c.593.315,4.857,2.748,6.725,3.812-1.259-.9-1.925-2.441-2.017-4.605V413.457l-7.019-4.107V676.969C683.52,679.09,684.434,680.987,685.831,681.728Z"/></g><g id="_Group_6" data-name="&lt;Group&gt;"><path id="_Path_15" data-name="&lt;Path&gt;" class="cls-6" d="M1124.85,144.644c-.021-3.464-2.464-4.865-5.479-3.124l-423.355,244.5a12.122,12.122,0,0,0-5.483,9.5l.006,17.936L1124.85,162.641Z"/><g id="_Group_7" data-name="&lt;Group&gt;" class="cls-12"><path class="cls-7" d="M1119.369,141.518l-423.346,244.5a11.256,11.256,0,0,0-3.863,4.07l-6.968-4.036a10.937,10.937,0,0,1,3.812-4l423.363-244.5a3.853,3.853,0,0,1,3.983-.328c.984.6,5.536,3.19,6.692,3.811A3.963,3.963,0,0,0,1119.369,141.518Z"/></g><path id="_Path_16" data-name="&lt;Path&gt;" class="cls-13" d="M683.52,409.368V391.54a11.321,11.321,0,0,1,1.672-5.484l6.985,4.018a11.08,11.08,0,0,0-1.638,5.45v17.933Z"/></g><g id="_Group_8" data-name="&lt;Group&gt;"><polygon id="_Path_17" data-name="&lt;Path&gt;" class="cls-3" points="690.539 413.457 690.533 445.755 1124.85 194.992 1124.85 162.641 690.539 413.457"/><g id="_Group_9" data-name="&lt;Group&gt;"><polygon id="_Path_18" data-name="&lt;Path&gt;" class="cls-10" points="708.623 411.057 736.711 394.919 736.711 411.018 708.613 427.241 708.623 411.057"/><g id="_Group_10" data-name="&lt;Group&gt;"><polygon id="_Path_19" data-name="&lt;Path&gt;" class="cls-10" points="743.647 390.835 743.649 397.199 757.659 389.109 757.659 382.746 743.647 390.835"/><polygon id="_Path_20" data-name="&lt;Path&gt;" class="cls-10" points="743.647 400.661 743.649 407.025 757.659 398.935 757.659 392.572 743.647 400.661"/><polygon id="_Path_21" data-name="&lt;Path&gt;" class="cls-10" points="764.662 378.699 764.664 385.063 778.675 376.973 778.675 370.61 764.662 378.699"/><polygon id="_Path_22" data-name="&lt;Path&gt;" class="cls-10" points="764.662 388.525 764.664 394.889 778.675 386.799 778.675 380.436 764.662 388.525"/><polygon id="_Path_23" data-name="&lt;Path&gt;" class="cls-10" points="785.677 366.563 785.68 372.927 799.69 364.837 799.69 358.474 785.677 366.563"/><polygon id="_Path_24" data-name="&lt;Path&gt;" class="cls-10" points="785.677 376.389 785.68 382.753 799.69 374.663 799.69 368.3 785.677 376.389"/></g><g id="_Group_11" data-name="&lt;Group&gt;"><polygon id="_Path_25" data-name="&lt;Path&gt;" class="cls-10" points="848.718 330.171 848.721 336.535 862.731 328.445 862.731 322.082 848.718 330.171"/><polygon id="_Path_26" data-name="&lt;Path&gt;" class="cls-10" points="848.718 339.998 848.721 346.362 862.731 338.272 862.731 331.909 848.718 339.998"/><polygon id="_Path_27" data-name="&lt;Path&gt;" class="cls-10" points="869.734 318.035 869.736 324.399 883.747 316.309 883.747 309.946 869.734 318.035"/><polygon id="_Path_28" data-name="&lt;Path&gt;" class="cls-10" points="869.734 327.862 869.736 334.226 883.747 326.136 883.747 319.773 869.734 327.862"/><polygon id="_Path_29" data-name="&lt;Path&gt;" class="cls-10" points="890.749 305.899 890.752 312.263 904.762 304.173 904.762 297.81 890.749 305.899"/><polygon id="_Path_30" data-name="&lt;Path&gt;" class="cls-10" points="890.749 315.726 890.752 322.09 904.762 314 904.762 307.637 890.749 315.726"/></g><polygon id="_Path_31" data-name="&lt;Path&gt;" class="cls-10" points="806.689 354.436 841.716 334.213 841.716 350.391 806.695 370.61 806.689 354.436"/><polygon id="_Path_32" data-name="&lt;Path&gt;" class="cls-10" points="911.776 293.769 939.864 277.631 939.864 293.73 911.766 309.953 911.776 293.769"/><g id="_Group_12" data-name="&lt;Group&gt;"><polygon id="_Path_33" data-name="&lt;Path&gt;" class="cls-10" points="946.8 273.547 946.802 279.911 960.813 271.821 960.813 265.458 946.8 273.547"/><polygon id="_Path_34" data-name="&lt;Path&gt;" class="cls-10" points="946.8 283.373 946.802 289.737 960.813 281.648 960.813 275.284 946.8 283.373"/><polygon id="_Path_35" data-name="&lt;Path&gt;" class="cls-10" points="967.815 261.411 967.818 267.775 981.828 259.685 981.828 253.322 967.815 261.411"/><polygon id="_Path_36" data-name="&lt;Path&gt;" class="cls-10" points="967.815 271.237 967.818 277.602 981.828 269.511 981.828 263.148 967.815 271.237"/><polygon id="_Path_37" data-name="&lt;Path&gt;" class="cls-10" points="988.831 249.275 988.833 255.639 1002.843 247.549 1002.843 241.186 988.831 249.275"/><polygon id="_Path_38" data-name="&lt;Path&gt;" class="cls-10" points="988.831 259.101 988.833 265.466 1002.843 257.376 1002.843 251.012 988.831 259.101"/></g><g id="_Group_13" data-name="&lt;Group&gt;"><polygon id="_Path_39" data-name="&lt;Path&gt;" class="cls-10" points="1051.875 212.876 1051.877 219.24 1065.888 211.15 1065.888 204.787 1051.875 212.876"/><polygon id="_Path_40" data-name="&lt;Path&gt;" class="cls-10" points="1051.875 222.703 1051.877 229.067 1065.888 220.977 1065.888 214.614 1051.875 222.703"/><polygon id="_Path_41" data-name="&lt;Path&gt;" class="cls-10" points="1072.89 200.74 1072.892 207.105 1086.903 199.014 1086.903 192.651 1072.89 200.74"/><polygon id="_Path_42" data-name="&lt;Path&gt;" class="cls-10" points="1072.89 210.567 1072.892 216.931 1086.903 208.841 1086.903 202.478 1072.89 210.567"/><polygon id="_Path_43" data-name="&lt;Path&gt;" class="cls-10" points="1093.906 188.605 1093.908 194.969 1107.919 186.879 1107.919 180.516 1093.906 188.605"/><polygon id="_Path_44" data-name="&lt;Path&gt;" class="cls-10" points="1093.906 198.431 1093.908 204.795 1107.919 196.705 1107.919 190.342 1093.906 198.431"/></g><polygon id="_Path_45" data-name="&lt;Path&gt;" class="cls-10" points="1009.847 237.148 1044.874 216.925 1044.874 233.103 1009.854 253.322 1009.847 237.148"/></g><polygon id="_Path_46" data-name="&lt;Path&gt;" class="cls-10" points="690.539 413.457 683.52 409.35 683.519 441.715 690.533 445.755 690.539 413.457"/></g><g id="_Group_14" data-name="&lt;Group&gt;"><path id="_Path_47" data-name="&lt;Path&gt;" class="cls-14" d="M1012.771,214.628v1.19c0,1.905,1.337,2.677,2.986,1.725l85.094-49.129a6.606,6.606,0,0,0,2.988-5.174v-1.192c0-1.9-1.336-2.677-2.986-1.724l-85.093,49.13A6.6,6.6,0,0,0,1012.771,214.628Z"/><path id="_Path_48" data-name="&lt;Path&gt;" class="cls-15" d="M1103.838,163.24v-1.192c0-1.905-1.336-2.677-2.986-1.724l-11.024,6.365h0l0,8.089h0l11.024-6.364A6.606,6.606,0,0,0,1103.838,163.24Z"/></g></g><g id="Spreadsheets"><polygon id="_Path_49" data-name="&lt;Path&gt;" class="cls-11" points="697.539 449.783 1117.854 207.154 1117.854 223.291 732.554 445.756 732.547 656.066 697.539 676.277 697.539 449.783"/><polygon id="_Path_50" data-name="&lt;Path&gt;" class="cls-6" points="732.554 445.756 767.55 425.55 767.55 441.688 732.554 461.926 732.554 445.756"/><polygon id="_Path_51" data-name="&lt;Path&gt;" class="cls-6" points="732.554 575.16 767.55 554.955 767.55 571.092 732.554 591.331 732.554 575.16"/><g id="_Group_15" data-name="&lt;Group&gt;"><polygon id="_Path_52" data-name="&lt;Path&gt;" class="cls-6" points="732.554 591.338 767.55 571.132 767.55 587.27 732.554 607.509 732.554 591.338"/><polygon id="_Path_53" data-name="&lt;Path&gt;" class="cls-16" points="732.554 591.338 767.55 571.132 767.55 587.27 732.554 607.509 732.554 591.338"/></g><g id="_Group_16" data-name="&lt;Group&gt;"><polygon id="_Path_54" data-name="&lt;Path&gt;" class="cls-6" points="942.688 453.827 977.684 433.621 977.684 449.759 942.688 469.998 942.688 453.827"/><polygon id="_Path_55" data-name="&lt;Path&gt;" class="cls-17" points="942.688 453.827 977.684 433.621 977.684 449.759 942.688 469.998 942.688 453.827"/></g><g id="_Group_17" data-name="&lt;Group&gt;"><polygon id="_Path_56" data-name="&lt;Path&gt;" class="cls-6" points="942.688 470.005 977.684 449.8 977.684 465.938 942.688 486.177 942.688 470.005"/><polygon id="_Path_57" data-name="&lt;Path&gt;" class="cls-12" points="942.688 470.005 977.684 449.8 977.684 465.938 942.688 486.177 942.688 470.005"/></g><g id="_Group_18" data-name="&lt;Group&gt;"><polygon id="_Path_58" data-name="&lt;Path&gt;" class="cls-6" points="942.688 486.185 977.684 465.979 977.684 482.117 942.688 502.356 942.688 486.185"/><polygon id="_Path_59" data-name="&lt;Path&gt;" class="cls-18" points="942.688 486.185 977.684 465.979 977.684 482.117 942.688 502.356 942.688 486.185"/></g><g id="_Group_19" data-name="&lt;Group&gt;"><polygon id="_Path_60" data-name="&lt;Path&gt;" class="cls-6" points="942.688 502.364 977.684 482.159 977.684 498.296 942.688 518.535 942.688 502.364"/><polygon id="_Path_61" data-name="&lt;Path&gt;" class="cls-17" points="942.688 502.364 977.684 482.159 977.684 498.296 942.688 518.535 942.688 502.364"/></g><polygon id="_Path_62" data-name="&lt;Path&gt;" class="cls-6" points="907.692 344.627 942.688 324.422 942.688 405.31 907.692 425.549 907.692 344.627"/><polygon id="_Path_63" data-name="&lt;Path&gt;" class="cls-6" points="907.692 441.699 942.688 421.494 942.688 534.737 907.692 554.976 907.692 441.699"/><g id="_Group_20" data-name="&lt;Group&gt;"><polygon id="_Path_64" data-name="&lt;Path&gt;" class="cls-6" points="767.55 522.584 802.547 502.379 802.547 518.516 767.55 538.755 767.55 522.584"/><polygon id="_Path_65" data-name="&lt;Path&gt;" class="cls-17" points="767.55 522.584 802.547 502.379 802.547 518.516 767.55 538.755 767.55 522.584"/></g><g id="_Group_21" data-name="&lt;Group&gt;"><polygon id="_Path_66" data-name="&lt;Path&gt;" class="cls-6" points="837.641 401.249 872.638 381.044 872.638 397.181 837.641 417.42 837.641 401.249"/><polygon id="_Path_67" data-name="&lt;Path&gt;" class="cls-19" points="837.641 401.249 872.638 381.044 872.638 397.181 837.641 417.42 837.641 401.249"/></g><g id="_Group_22" data-name="&lt;Group&gt;"><polygon id="_Path_68" data-name="&lt;Path&gt;" class="cls-6" points="1012.78 397.205 1047.776 377 1047.776 393.137 1012.78 413.376 1012.78 397.205"/><polygon id="_Path_69" data-name="&lt;Path&gt;" class="cls-16" points="1012.78 397.205 1047.776 377 1047.776 393.137 1012.78 413.376 1012.78 397.205"/></g><polygon id="_Path_70" data-name="&lt;Path&gt;" class="cls-6" points="1012.78 429.573 1047.776 409.368 1047.776 425.505 1012.78 445.744 1012.78 429.573"/><path id="_Compound_Path_" data-name="&lt;Compound Path&gt;" class="cls-10" d="M697.109,449.051l-.431.249,0,228.483,421.6-243.418.431-.249,0-228.481Zm419.877-32.058L1083.7,436.212v-14.19l33.289-19.219ZM698.4,466.469l33.3-19.224v14.19l-33.3,19.224Zm208.434-23.247v14.19l-33.3,19.228V462.449Zm-33.3,17.237V446.267l33.3-19.228v14.192Zm35.028-18.233L941.863,423V437.19l-33.3,19.227Zm0-1.991V426.044l33.3-19.227v14.191Zm0-16.182V409.861l33.3-19.227v14.192Zm0-16.183V393.679l33.3-19.226v14.19Zm-1.724,1-33.3,19.228V413.9l33.3-19.228Zm0,1.991v14.191l-33.3,19.228V430.084Zm-35.028,34.415-33.3,19.227V450.307l33.3-19.227Zm0,1.991v14.191l-33.3,19.228V466.489Zm0,16.182v14.191l-33.3,19.227V482.672Zm0,16.182v14.191l-33.3,19.227V498.853Zm1.724-1,33.3-19.228V473.6l-33.3,19.228Zm33.3-3.046v14.192l-33.3,19.228V494.813Zm1.724-1,33.3-19.227v14.191l-33.3,19.227Zm0-1.991V458.408l33.3-19.227v14.191Zm35.027-34.414,33.3-19.227v14.191l-33.3,19.227Zm0-1.991V422l33.3-19.227v14.19Zm0-16.182V405.821l33.3-19.227v14.192Zm0-16.182V389.639l33.3-19.227V384.6Zm0-16.182V373.457l33.3-19.227v14.191Zm0-16.182V357.275l33.3-19.227v14.191Zm-1.725,1-33.3,19.228V377.5l33.3-19.226Zm-35.026,20.223-33.3,19.228V397.721l33.3-19.228Zm-35.028,20.224-33.3,19.227V417.944l33.3-19.227Zm0,1.991v14.19l-33.3,19.227V434.125Zm-35.027,34.413-33.3,19.228V454.349l33.3-19.228Zm0,1.99V465.5l-33.3,19.228V470.53Zm0,16.183v14.192l-33.3,19.228V486.713Zm0,16.183v14.191l-33.3,19.227V502.9Zm0,16.181v14.192l-33.3,19.228V519.077Zm0,16.183v14.191l-33.3,19.227V535.259Zm1.725-1,33.3-19.227V510l-33.3,19.227Zm33.3-3.045v14.192l-33.3,19.226V531.218Zm1.724-1,33.3-19.227v14.191l-33.3,19.228Zm35.028-20.223,33.3-19.227v14.191l-33.3,19.227Zm35.027-20.223,33.3-19.226v14.191l-33.3,19.227Zm0-1.991V454.367l33.3-19.226v14.191Zm35.026-34.413,33.3-19.228v14.191l-33.3,19.228Zm0-1.991V417.963l33.3-19.228v14.191Zm0-16.182V401.781l33.3-19.228v14.191Zm0-16.182V385.6l33.3-19.228v14.191Zm0-16.182V369.416l33.3-19.228V364.38Zm0-16.183V353.234l33.3-19.228V348.2Zm0-16.182V337.052l33.3-19.227v14.19Zm0-16.182v-14.19l33.3-19.228v14.19Zm-1.724,1-33.3,19.227v-14.19l33.3-19.227Zm-35.027,20.223-33.3,19.227v-14.19l33.3-19.227ZM906.837,376.5l-33.3,19.227v-14.19l33.3-19.228Zm-35.028,20.223-33.3,19.227v-14.19l33.3-19.227Zm-35.027,20.222-33.3,19.228v-14.19l33.3-19.228Zm0,1.992v14.192l-33.3,19.227V438.167Zm-35.028,34.415-33.3,19.227V458.389l33.3-19.226Zm0,1.99v14.191l-33.3,19.227V474.571Zm0,16.182v14.192l-33.3,19.227V490.753Zm0,16.183V501.9l-33.3,19.227V506.935Zm0,16.182v14.191l-33.3,19.227V523.118Zm0,16.182v14.192l-33.3,19.227V539.3Zm0,16.182v14.191l-33.3,19.227V555.482Zm0,16.181v14.193l-33.3,19.226V571.663Zm1.725-1,33.3-19.228v14.192l-33.3,19.228Zm33.3-3.045v14.192l-33.3,19.228V567.624Zm1.725-1,33.3-19.227v14.192l-33.3,19.227Zm35.026-20.222,33.3-19.228v14.191l-33.3,19.228Zm35.028-20.224,33.3-19.227v14.192l-33.3,19.227Zm35.027-20.222,33.3-19.227V481.7l-33.3,19.227Zm35.026-20.223,33.3-19.228v14.191l-33.3,19.228Zm0-1.991V450.327l33.3-19.228V445.29Zm35.028-34.414,33.3-19.227v14.191l-33.3,19.227Zm0-1.992V413.921l33.3-19.226v14.191Zm0-16.182V397.739l33.3-19.227V392.7Zm0-16.182V381.557l33.3-19.226v14.19Zm0-16.182V365.375l33.3-19.226v14.19Zm0-16.182V349.193l33.3-19.227v14.191Zm0-16.183v-14.19l33.3-19.227v14.19Zm0-16.181V316.829l33.3-19.227v14.191Zm0-16.183v-14.19l33.3-19.227v14.191Zm0-16.182v-14.19l33.3-19.227v14.191Zm-1.724,1-33.3,19.228v-14.19l33.3-19.228ZM976.89,319.875l-33.3,19.226v-14.19l33.3-19.227ZM941.863,340.1l-33.3,19.227v-14.19l33.3-19.227Zm-35.026,20.222-33.3,19.228v-14.19l33.3-19.228Zm-35.028,20.224-33.3,19.227V385.58l33.3-19.227Zm-35.027,20.223-33.3,19.227V405.8l33.3-19.228Zm-35.028,20.223-33.3,19.227v-14.19l33.3-19.227Zm0,1.992v14.19l-33.3,19.227v-14.19Zm-35.026,34.412-33.3,19.228v-14.19l33.3-19.228Zm0,1.992v14.192l-33.3,19.228V478.613Zm0,16.182v14.191l-33.3,19.228V494.8Zm0,16.181v14.193l-33.3,19.228V510.976Zm0,16.183v14.192l-33.3,19.228V527.159Zm0,16.183V538.3l-33.3,19.228V543.342Zm0,16.181v14.192l-33.3,19.228V559.522Zm0,16.182v14.192l-33.3,19.227V575.705Zm0,16.182v14.192l-33.3,19.228V591.887Zm0,16.183v14.192l-33.3,19.228V608.069Zm1.724-1,33.3-19.227v14.192l-33.3,19.227Zm33.3-3.044v14.19l-33.3,19.227V604.028Zm1.725-1,33.3-19.228v14.191L803.479,598Zm35.028-20.223,33.3-19.227v14.19l-33.3,19.227Zm35.026-20.223,33.3-19.228v14.191l-33.3,19.228Zm35.028-20.224,33.3-19.226V518.1l-33.3,19.227Zm35.027-20.222,33.3-19.227v14.191l-33.3,19.227Zm35.026-20.222,33.3-19.228v14.19l-33.3,19.228Zm35.028-20.224,33.3-19.227v14.19l-33.3,19.227Zm0-1.991V446.286l33.3-19.227V441.25Zm35.027-34.414,33.3-19.227v14.19l-33.3,19.228Zm0-1.991V409.881l33.3-19.227v14.19Zm0-16.182V393.7l33.3-19.228v14.191Zm0-16.183v-14.19l33.3-19.228V372.48Zm0-16.182v-14.19l33.3-19.228V356.3Zm0-16.181V345.153l33.3-19.228v14.191Zm0-16.182V328.97l33.3-19.228v14.192Zm0-16.183V312.788l33.3-19.227v14.19Zm0-16.182V296.606l33.3-19.227v14.19Zm0-16.182v-14.19l33.3-19.228v14.19Zm0-16.182v-14.19l33.3-19.228v14.19Zm0-16.182V248.068l33.3-19.228v14.183Zm-1.725,1-33.3,19.227V268.291l33.3-19.228Zm-35.026,20.222-33.3,19.228V288.514l33.3-19.228ZM976.89,303.693l-33.3,19.226V308.737l33.3-19.227Zm-35.027,20.222-33.3,19.227V328.96l33.3-19.228Zm-35.026,20.223-33.3,19.227V349.183l33.3-19.228Zm-35.028,20.223-33.3,19.227V369.406l33.3-19.227Zm-35.027,20.223-33.3,19.228V389.63l33.3-19.228Zm-35.028,20.223-33.3,19.227V409.852l33.3-19.227ZM766.728,425.03l-33.3,19.227V430.076l33.3-19.228Zm0,1.991v14.191l-33.3,19.227v-14.19ZM698.4,482.651l33.3-19.224v14.19l-33.3,19.224Zm0,16.182,33.3-19.224V493.8l-33.3,19.225Zm0,16.182,33.3-19.224v14.191l-33.3,19.224Zm0,16.181,33.3-19.224v14.192l-33.3,19.225Zm0,16.183,33.3-19.225v14.193l-33.3,19.225Zm0,16.183,33.3-19.225v14.191l-33.3,19.225Zm0,16.181,33.3-19.225v14.193l-33.3,19.225Zm0,16.183L731.7,576.7v14.191l-33.3,19.225Zm0,16.181,33.3-19.225v14.193L698.4,626.3Zm0,16.183,33.3-19.225v14.192l-33.3,19.226Zm0,16.183,33.3-19.225v14.191l-33.3,19.225Zm35.024-20.221,33.3-19.228v14.191l-33.3,19.228Zm33.3-3.047v14.141l-33.3,19.228V640.433Zm1.724-1,33.3-19.227v14.14l-33.3,19.227Zm35.027-20.223,33.3-19.227V594.9l-33.3,19.228Zm35.028-20.223,33.3-19.227v14.139l-33.3,19.227Zm35.026-20.223,33.3-19.227v14.138l-33.3,19.228Zm35.028-20.223,33.3-19.227v14.138l-33.3,19.227ZM943.588,519.1l33.3-19.226v14.137l-33.3,19.227Zm35.026-20.222,33.3-19.228v14.137l-33.3,19.228Zm35.028-20.223,33.3-19.227v14.136l-33.3,19.227Zm35.027-20.223,33.3-19.228v14.136l-33.3,19.229Zm0-1.991V442.245l33.3-19.227v14.19Zm68.317-55.625L1083.7,420.03V405.84l33.289-19.219Zm0-16.182-33.289,19.22V389.658l33.289-19.219Zm0-16.182-33.289,19.22V373.475l33.29-19.219Zm0-16.183-33.29,19.22V357.293l33.29-19.219Zm0-16.182L1083.7,355.3v-14.19l33.29-19.22Zm0-16.182-33.29,19.22V324.93l33.29-19.221Zm0-16.182-33.29,19.22V308.747l33.291-19.22Zm0-16.183-33.291,19.22v-14.19l33.291-19.221Zm0-16.182-33.291,19.22v-14.19l33.291-19.221Zm0-16.182-33.291,19.22V260.2l33.291-19.22Zm0-16.182-33.291,19.22v-14.19l33.292-19.221Zm0-16.182-33.292,19.22V227.844l33.292-19.221ZM731.7,431.072v14.181l-33.3,19.224V450.3ZM698.4,660.654l33.3-19.225v14.14L698.4,674.8ZM1083.7,452.34V438.2l33.289-19.219V433.12Z"/><g id="_Group_23" data-name="&lt;Group&gt;"><polygon id="_Path_71" data-name="&lt;Path&gt;" class="cls-20" points="977.684 304.165 1117.854 223.302 1117.854 304.213 977.684 385.054 977.684 304.165"/><g id="_Group_24" data-name="&lt;Group&gt;"><polygon class="cls-21" points="986.18 365.382 983.363 364.351 1002.929 310.919 1024.416 323.768 1045.514 302.276 1066.021 315.795 1086.951 264.257 1109.411 275.778 1108.042 278.447 1088.498 268.422 1067.423 320.313 1045.924 306.141 1024.902 327.554 1004.499 315.354 986.18 365.382"/><path class="cls-21" d="M1002.766,317.372a2.556,2.556,0,0,1-1.29-.339,2.951,2.951,0,0,1-1.373-2.675,6.159,6.159,0,0,1,2.861-4.967,2.764,2.764,0,0,1,4.361,2.523,6.167,6.167,0,0,1-2.858,4.965A3.4,3.4,0,0,1,1002.766,317.372Zm1.55-5.287a3.378,3.378,0,0,0-1.205,2.1A3.383,3.383,0,0,0,1004.316,312.085Z"/><path class="cls-21" d="M1023.769,329.9a2.573,2.573,0,0,1-1.291-.339,2.954,2.954,0,0,1-1.373-2.675,6.162,6.162,0,0,1,2.862-4.968h0a2.765,2.765,0,0,1,4.361,2.523,6.17,6.17,0,0,1-2.858,4.966A3.4,3.4,0,0,1,1023.769,329.9Zm1.55-5.287a3.371,3.371,0,0,0-1.2,2.1A3.371,3.371,0,0,0,1025.319,324.609Z"/><path class="cls-21" d="M1044.771,308.451a2.561,2.561,0,0,1-1.291-.34,2.951,2.951,0,0,1-1.373-2.674,6.161,6.161,0,0,1,2.862-4.968,2.765,2.765,0,0,1,4.361,2.523,6.17,6.17,0,0,1-2.858,4.966A3.4,3.4,0,0,1,1044.771,308.451Zm1.55-5.287a3.371,3.371,0,0,0-1.2,2.1A3.378,3.378,0,0,0,1046.321,303.164Z"/><path class="cls-21" d="M1065.773,322.282a2.566,2.566,0,0,1-1.291-.34,2.952,2.952,0,0,1-1.372-2.674,6.159,6.159,0,0,1,2.862-4.968,2.765,2.765,0,0,1,4.361,2.523,6.174,6.174,0,0,1-2.858,4.966A3.4,3.4,0,0,1,1065.773,322.282Zm1.551-5.287a3.367,3.367,0,0,0-1.205,2.1A3.367,3.367,0,0,0,1067.324,317Z"/><path class="cls-21" d="M1086.775,270.574a2.559,2.559,0,0,1-1.29-.339,2.952,2.952,0,0,1-1.372-2.674,6.155,6.155,0,0,1,2.863-4.968,2.763,2.763,0,0,1,4.359,2.523,6.174,6.174,0,0,1-2.857,4.966A3.416,3.416,0,0,1,1086.775,270.574Zm-.008-3Zm1.559-2.286a3.358,3.358,0,0,0-1.2,2.1A3.381,3.381,0,0,0,1088.326,265.289Z"/><path class="cls-21" d="M1107.778,281.348a2.566,2.566,0,0,1-1.291-.34,2.953,2.953,0,0,1-1.372-2.675,6.159,6.159,0,0,1,2.862-4.967,2.765,2.765,0,0,1,4.361,2.523,6.171,6.171,0,0,1-2.859,4.965A3.39,3.39,0,0,1,1107.778,281.348Zm1.551-5.287a3.364,3.364,0,0,0-1.2,2.1A3.378,3.378,0,0,0,1109.329,276.061Z"/></g></g></g></g><g id="Charts"><g id="_Group_25" data-name="&lt;Group&gt;"><polygon id="_Path_72" data-name="&lt;Path&gt;" class="cls-6" points="1127.131 586.728 1089.861 608.245 1127.135 629.767 1164.406 608.247 1127.131 586.728"/><polygon id="_Path_73" data-name="&lt;Path&gt;" class="cls-22" points="1127.131 586.728 1089.861 608.245 1127.135 629.767 1164.406 608.247 1127.131 586.728"/><polygon id="_Path_74" data-name="&lt;Path&gt;" class="cls-6" points="1164.411 608.199 1164.409 656.675 1127.137 678.195 1127.134 629.77 1164.411 608.199"/><polygon id="_Path_75" data-name="&lt;Path&gt;" class="cls-6" points="1127.134 629.77 1127.137 678.195 1089.864 656.673 1089.861 608.204 1127.134 629.77"/><polygon id="_Path_76" data-name="&lt;Path&gt;" class="cls-23" points="1127.134 629.77 1127.137 678.195 1089.864 656.673 1089.861 608.204 1127.134 629.77"/></g><g id="_Group_26" data-name="&lt;Group&gt;"><polygon id="_Path_77" data-name="&lt;Path&gt;" class="cls-6" points="1078.095 594.909 1040.825 616.427 1078.098 637.949 1115.37 616.429 1078.095 594.909"/><polygon id="_Path_78" data-name="&lt;Path&gt;" class="cls-24" points="1078.095 594.909 1040.825 616.427 1078.098 637.949 1115.37 616.429 1078.095 594.909"/><polygon id="_Path_79" data-name="&lt;Path&gt;" class="cls-6" points="1115.375 616.38 1115.372 684.986 1078.101 706.506 1078.098 637.951 1115.375 616.38"/><polygon id="_Path_80" data-name="&lt;Path&gt;" class="cls-25" points="1115.375 616.38 1115.372 684.986 1078.101 706.506 1078.098 637.951 1115.375 616.38"/><polygon id="_Path_81" data-name="&lt;Path&gt;" class="cls-6" points="1078.098 637.951 1078.101 706.506 1040.828 684.984 1040.825 616.385 1078.098 637.951"/><polygon id="_Path_82" data-name="&lt;Path&gt;" class="cls-19" points="1078.098 637.951 1078.101 706.506 1040.828 684.984 1040.825 616.385 1078.098 637.951"/></g><g id="_Group_27" data-name="&lt;Group&gt;"><polygon id="_Path_83" data-name="&lt;Path&gt;" class="cls-6" points="1029.06 667.586 991.79 689.103 1029.063 710.625 1066.334 689.105 1029.06 667.586"/><polygon id="_Path_84" data-name="&lt;Path&gt;" class="cls-17" points="1029.06 667.586 991.79 689.103 1029.063 710.625 1066.334 689.105 1029.06 667.586"/><polygon id="_Path_85" data-name="&lt;Path&gt;" class="cls-6" points="1066.339 689.057 1066.337 713.297 1029.066 734.817 1029.062 710.628 1066.339 689.057"/><polygon id="_Path_86" data-name="&lt;Path&gt;" class="cls-12" points="1066.339 689.057 1066.337 713.297 1029.066 734.817 1029.062 710.628 1066.339 689.057"/><polygon id="_Path_87" data-name="&lt;Path&gt;" class="cls-6" points="1029.062 710.628 1029.066 734.817 991.792 713.295 991.789 689.062 1029.062 710.628"/><polygon id="_Path_88" data-name="&lt;Path&gt;" class="cls-26" points="1029.062 710.628 1029.066 734.817 991.792 713.295 991.789 689.062 1029.062 710.628"/></g></g><g id="Charts-2" data-name="Charts"><g id="_Group_28" data-name="&lt;Group&gt;"><path id="_Path_89" data-name="&lt;Path&gt;" class="cls-27" d="M826.037,818.129v14.107L812.1,794.365v-14.09l.017.017Z"/><polygon id="_Path_90" data-name="&lt;Path&gt;" class="cls-28" points="826.044 818.137 826.044 832.237 883.52 812.299 883.52 798.199 826.044 818.137"/><path id="_Path_91" data-name="&lt;Path&gt;" class="cls-21" d="M812.1,780.27l13.941,37.867L883.52,798.2C867.741,784.429,840.308,777.543,812.1,780.27Z"/><path id="_Path_92" data-name="&lt;Path&gt;" class="cls-6" d="M752.054,820.75a3.654,3.654,0,0,0-.017.431v-.431Z"/><path id="_Path_93" data-name="&lt;Path&gt;" class="cls-6" d="M820.312,835.926l-8.537,40.148c-34.836-3.4-60.014-21.022-59.721-41.165l-.017.034V821.181c0,19.988,25.109,37.423,59.738,40.8l5.863-27.593Z"/><path id="_Path_94" data-name="&lt;Path&gt;" class="cls-12" d="M820.312,835.926l-8.537,40.148c-34.836-3.4-60.014-21.022-59.721-41.165l-.017.034V821.181c0,19.988,25.109,37.423,59.738,40.8l5.863-27.593Z"/><g id="_Group_29" data-name="&lt;Group&gt;"><path id="_Path_95" data-name="&lt;Path&gt;" class="cls-6" d="M818.316,862.448v14.1a111.236,111.236,0,0,0,42.416-5.8c16.429-5.7,28.027-14.751,32.665-25.485a25.406,25.406,0,0,0,2.158-9.845c.014-1.337,0-14.57,0-14.57s-3.979-.312-8.643-5.287l-10.762,3.733-49.295,17.1Z"/><path id="_Path_96" data-name="&lt;Path&gt;" class="cls-19" d="M818.316,862.448v14.1a111.236,111.236,0,0,0,42.416-5.8c16.429-5.7,28.027-14.751,32.665-25.485a25.406,25.406,0,0,0,2.158-9.845c.014-1.337,0-14.57,0-14.57s-3.979-.312-8.643-5.287l-10.762,3.733-49.295,17.1Z"/><polygon id="_Path_97" data-name="&lt;Path&gt;" class="cls-6" points="775.422 804.631 818.243 829.354 818.243 815.254 775.422 790.531 775.422 804.631"/><polygon id="_Path_98" data-name="&lt;Path&gt;" class="cls-23" points="775.422 804.631 818.243 829.354 818.243 815.254 775.422 790.531 775.422 804.631"/></g><g id="_Group_30" data-name="&lt;Group&gt;"><path id="_Path_99" data-name="&lt;Path&gt;" class="cls-6" d="M752.571,816.1c-4.687,22.037,21.662,42.22,59.2,45.886l8.539-40.151-49.547-28.606C760.424,799.7,754.461,807.2,752.571,816.1Z"/><path id="_Path_100" data-name="&lt;Path&gt;" class="cls-17" d="M752.571,816.1c-4.687,22.037,21.662,42.22,59.2,45.886l8.539-40.151-49.547-28.606C760.424,799.7,754.461,807.2,752.571,816.1Z"/><path id="_Path_101" data-name="&lt;Path&gt;" class="cls-6" d="M818.565,861.274l-.249,1.174a111.217,111.217,0,0,0,42.416-5.8c16.429-5.7,28.027-14.75,32.665-25.484,4.368-10.118,2.059-20.591-6.484-29.7l-10.762,3.733-49.295,17.1Z"/><path id="_Path_102" data-name="&lt;Path&gt;" class="cls-25" d="M818.565,861.274l-.249,1.174a111.217,111.217,0,0,0,42.416-5.8c16.429-5.7,28.027-14.75,32.665-25.484,4.368-10.118,2.059-20.591-6.484-29.7l-10.762,3.733-49.295,17.1Z"/><path id="_Path_103" data-name="&lt;Path&gt;" class="cls-6" d="M775.422,790.531l42.821,24.723-12.59-34.2C793.74,782.779,784.419,785.7,775.422,790.531Z"/></g><polygon id="_Path_104" data-name="&lt;Path&gt;" class="cls-6" points="820.314 835.931 820.314 821.83 811.775 861.981 811.775 876.081 820.314 835.931"/><polygon id="_Path_105" data-name="&lt;Path&gt;" class="cls-26" points="820.314 835.931 820.314 821.83 811.775 861.981 811.775 876.081 820.314 835.931"/></g><g id="_Group_31" data-name="&lt;Group&gt;"><g id="_Group_32" data-name="&lt;Group&gt;"><polygon id="_Path_106" data-name="&lt;Path&gt;" class="cls-6" points="874.94 759.116 865.612 764.501 874.941 769.888 884.27 764.502 874.94 759.116"/><polygon id="_Path_107" data-name="&lt;Path&gt;" class="cls-17" points="874.94 759.116 865.612 764.501 874.941 769.888 884.27 764.502 874.94 759.116"/><polygon id="_Path_108" data-name="&lt;Path&gt;" class="cls-6" points="884.271 764.49 884.27 769.895 874.942 775.281 874.941 769.889 884.271 764.49"/><polygon id="_Path_109" data-name="&lt;Path&gt;" class="cls-12" points="884.271 764.49 884.27 769.895 874.942 775.281 874.941 769.889 884.271 764.49"/><polygon id="_Path_110" data-name="&lt;Path&gt;" class="cls-6" points="874.941 769.889 874.942 775.281 865.612 769.894 865.612 764.491 874.941 769.889"/><polygon id="_Path_111" data-name="&lt;Path&gt;" class="cls-26" points="874.941 769.889 874.942 775.281 865.612 769.894 865.612 764.491 874.941 769.889"/></g><path id="_Path_112" data-name="&lt;Path&gt;" class="cls-10" d="M889.183,754.937l34.563-19.955a8.006,8.006,0,0,1,7.237-.134c1.934,1.117,1.831,2.988-.232,4.178l-34.563,19.955a8,8,0,0,1-7.236.134C887.017,758,887.121,756.127,889.183,754.937Z"/></g><g id="_Group_33" data-name="&lt;Group&gt;"><g id="_Group_34" data-name="&lt;Group&gt;"><polygon id="_Path_113" data-name="&lt;Path&gt;" class="cls-6" points="895.956 771.249 886.628 776.635 895.957 782.022 905.286 776.635 895.956 771.249"/><polygon id="_Path_114" data-name="&lt;Path&gt;" class="cls-24" points="895.956 771.249 886.628 776.635 895.957 782.022 905.286 776.635 895.956 771.249"/><polygon id="_Path_115" data-name="&lt;Path&gt;" class="cls-6" points="905.287 776.623 905.287 782.029 895.958 787.415 895.957 782.022 905.287 776.623"/><polygon id="_Path_116" data-name="&lt;Path&gt;" class="cls-25" points="905.287 776.623 905.287 782.029 895.958 787.415 895.957 782.022 905.287 776.623"/><polygon id="_Path_117" data-name="&lt;Path&gt;" class="cls-6" points="895.957 782.022 895.958 787.415 886.628 782.028 886.628 776.625 895.957 782.022"/><polygon id="_Path_118" data-name="&lt;Path&gt;" class="cls-19" points="895.957 782.022 895.958 787.415 886.628 782.028 886.628 776.625 895.957 782.022"/></g><path id="_Path_119" data-name="&lt;Path&gt;" class="cls-10" d="M910.2,767.071l34.564-19.955a8,8,0,0,1,7.236-.134c1.935,1.117,1.831,2.988-.231,4.178l-34.563,19.955a8.006,8.006,0,0,1-7.237.134C908.034,770.132,908.137,768.261,910.2,767.071Z"/></g><g id="_Group_35" data-name="&lt;Group&gt;"><g id="_Group_36" data-name="&lt;Group&gt;"><polygon id="_Path_120" data-name="&lt;Path&gt;" class="cls-6" points="916.972 783.383 907.644 788.769 916.973 794.155 926.302 788.769 916.972 783.383"/><polygon id="_Path_121" data-name="&lt;Path&gt;" class="cls-22" points="916.972 783.383 907.644 788.769 916.973 794.155 926.302 788.769 916.972 783.383"/><polygon id="_Path_122" data-name="&lt;Path&gt;" class="cls-6" points="926.303 788.757 926.303 794.162 916.974 799.549 916.973 794.156 926.303 788.757"/><polygon id="_Path_123" data-name="&lt;Path&gt;" class="cls-6" points="916.973 794.156 916.974 799.549 907.645 794.162 907.644 788.758 916.973 794.156"/><polygon id="_Path_124" data-name="&lt;Path&gt;" class="cls-23" points="916.973 794.156 916.974 799.549 907.645 794.162 907.644 788.758 916.973 794.156"/></g><path id="_Path_125" data-name="&lt;Path&gt;" class="cls-10" d="M931.216,779.205l34.563-19.955a8.006,8.006,0,0,1,7.237-.134c1.934,1.117,1.831,2.988-.231,4.178l-34.564,19.955a8,8,0,0,1-7.236.134C929.05,782.266,929.154,780.4,931.216,779.205Z"/></g><g id="_Group_37" data-name="&lt;Group&gt;"><g id="_Group_38" data-name="&lt;Group&gt;"><polygon id="_Path_126" data-name="&lt;Path&gt;" class="cls-21" points="937.989 795.517 928.66 800.902 937.989 806.289 947.318 800.903 937.989 795.517"/><polygon id="_Path_127" data-name="&lt;Path&gt;" class="cls-28" points="947.32 800.891 947.319 806.296 937.99 811.682 937.989 806.29 947.32 800.891"/><polygon id="_Path_128" data-name="&lt;Path&gt;" class="cls-27" points="937.989 806.29 937.99 811.682 928.661 806.296 928.66 800.892 937.989 806.29"/></g><path id="_Path_129" data-name="&lt;Path&gt;" class="cls-10" d="M952.233,791.339,986.8,771.384a8,8,0,0,1,7.236-.134c1.935,1.117,1.831,2.988-.231,4.178l-34.563,19.955a8.006,8.006,0,0,1-7.237.134C950.067,794.4,950.17,792.529,952.233,791.339Z"/></g></g><g id="Character"><g id="_Group_39" data-name="&lt;Group&gt;"><g id="_Group_40" data-name="&lt;Group&gt;"><path id="_Path_130" data-name="&lt;Path&gt;" class="cls-29" d="M1230.505,503.323c12.827-.071,18.912,3.606,23.529,15.889s16.868,40.426,17.106,48.795c.247,8.68-27.7,34.987-26.7,34.535.308-.139-8.515-15.944-8.515-15.944l15.715-19.262-9.009-26.152Z"/></g><g id="_Group_41" data-name="&lt;Group&gt;"><g id="_Group_42" data-name="&lt;Group&gt;"><path id="_Path_131" data-name="&lt;Path&gt;" class="cls-30" d="M1246.379,790.832c.785.75.934,1.477.909,4.211s1.131,5.792-.275,8.345c-1.05,1.908-6.408,3.222-9.131,1.808-2.267-1.176-4.526-3.794-6.283-5.648a44.708,44.708,0,0,0-5.5-5.319c-2.308-1.72-4.993-2.865-7.4-4.442a14.776,14.776,0,0,1-6.708-11.083,7.257,7.257,0,0,1,.859-4.22c.986-1.5,3.06-1.864,4.83-1.58,2.609.418,11.447,5.357,13.491,6.77C1233.732,781.445,1245.569,790.059,1246.379,790.832Z"/></g><path id="_Path_132" data-name="&lt;Path&gt;" class="cls-29" d="M1233.385,779.5c-.084,1.966-8.363-2.632-11.755-2.183a.306.306,0,0,0-.1.045c-3.147,1.515-.535,5.932,2.4,8.193s12.5,9.292,12.5,9.292L1238.4,783.5Z"/><g id="_Group_43" data-name="&lt;Group&gt;"><path id="_Path_133" data-name="&lt;Path&gt;" class="cls-30" d="M1197.5,811.467c1.535,0,2.218,5.022,2.5,8.9.219,3,1.354,7.887.294,10.089s-5.1,3.579-11.338,3.451c-4.04-.083-10.371,2.578-14.712,4.928-4.485,2.427-9.315,2.372-14.017,1.758-5.541-.723-11.248-4.016-12.115-6.325s.3-3.4,13.45-8.8c.12-.049,13.871-6.046,20.29-12.947Z"/></g><path id="_Path_134" data-name="&lt;Path&gt;" class="cls-29" d="M1161.559,825.467c-1.821.748-3.391,1.407-4.778,2-.356,1.243.12,3.212,5.93,4.181,8.857,1.477,34.879-18.111,34.879-18.111s-3.729,1.027-4.429-1.106l-11.312.085C1175.43,819.421,1161.679,825.418,1161.559,825.467Z"/><g id="_Group_44" data-name="&lt;Group&gt;"><path id="_Path_135" data-name="&lt;Path&gt;" class="cls-29" d="M1251.645,726.469c0-15.823-2.543-25.667-2.543-25.667s1.544-33.042,1.721-53.815c.352-41.074-.434-47.105-9.52-64.828,0,0-53.049-6.208-55.284,19.645-2.784,32.2-6.021,86.074-5.936,101.408.064,11.418,1.356,23.792,1.987,49.68.4,16.579,2.152,40.008-.221,59.628,3,5.026,11.118,4.938,15.741,1.021,1.332-19.21,10.866-55.993,12.344-68.828,1.53-13.288-1.132-27.732-1.132-27.732s7.028-54.841,8.262-63.187c0,0,3.191,15.369,3.077,26.787-.036,3.64,1.26,15.856,3.344,36.4,1.27,12.512,10.124,61.4,12.04,77.112,4.441,4.29,10.179,1.332,10.438-.534C1247.448,774.381,1251.645,738.436,1251.645,726.469Z"/></g><path id="_Path_136" data-name="&lt;Path&gt;" class="cls-13" d="M1217.064,653.794l4.689-26.632s10.873-.87,20.883-10.963c0,0-2.81,10.65-16.6,14.274l-5.486,24.1-.928,21.968Z"/></g><g id="_Group_45" data-name="&lt;Group&gt;"><g id="_Group_46" data-name="&lt;Group&gt;"><polygon id="_Path_137" data-name="&lt;Path&gt;" class="cls-29" points="1203.754 494.385 1205.966 518.525 1227.17 517.24 1225.544 490.471 1203.754 494.385"/></g></g><g id="_Group_47" data-name="&lt;Group&gt;"><g id="_Group_48" data-name="&lt;Group&gt;"><path id="_Path_138" data-name="&lt;Path&gt;" class="cls-6" d="M1246.317,588.643a97.87,97.87,0,0,0-9.169-18.334c9.064-29.192,11.965-39.024,10.205-51.506-1.12-7.942-7.359-15.878-15.092-15.465,0,0-4.178.008-5.936,0-.347,5.536-15.722,5.8-21.555,2l-5.368.143c-3.8,1.345-16.72,20.27-18.143,32.834-1.157,10.21,6.839,19.055,6.839,19.055.309,4.057-.759,12.943-.759,12.943s.039,24.7,0,36.984c0,0,3,9.47,34.113,6.507,27.677-2.635,28.355-12.093,28.355-12.093A58.626,58.626,0,0,0,1246.317,588.643Z"/></g></g><g id="_Group_49" data-name="&lt;Group&gt;"><g id="_Group_50" data-name="&lt;Group&gt;"><path id="_Path_139" data-name="&lt;Path&gt;" class="cls-6" d="M1246.317,588.643a97.87,97.87,0,0,0-9.169-18.334c9.064-29.192,11.965-39.024,10.205-51.506-1.12-7.942-7.359-15.878-15.092-15.465,0,0-4.178.008-5.936,0-.347,5.536-15.722,5.8-21.555,2l-5.368.143c-3.8,1.345-16.72,20.27-18.143,32.834-1.157,10.21,6.839,19.055,6.839,19.055.309,4.057-.759,12.943-.759,12.943s.039,24.7,0,36.984c0,0,3,9.47,34.113,6.507,27.677-2.635,28.355-12.093,28.355-12.093A58.626,58.626,0,0,0,1246.317,588.643Z"/></g></g><g id="_Group_51" data-name="&lt;Group&gt;"><path id="_Path_140" data-name="&lt;Path&gt;" class="cls-30" d="M1206.97,437.914s-10.008-1.754-17.051,6.177c-10.851,12.221,1.047,21.212,1.047,21.212l16-27.389"/><g id="_Group_52" data-name="&lt;Group&gt;"><path id="_Path_141" data-name="&lt;Path&gt;" class="cls-29" d="M1188.1,467.861s-4.714,7.085-4.1,7.837,3.593,1.56,3.593,1.56Z"/></g><g id="_Group_53" data-name="&lt;Group&gt;"><path id="_Path_142" data-name="&lt;Path&gt;" class="cls-29" d="M1202.5,445.41c-4.57,2.346-12.468,6.682-14.542,23.488-2.127,17.252,1.7,23.259,4.045,25.528,1.585,1.53,9.778,2.106,14.055.79,5.353-1.646,16.955-7.341,22.412-16.234,6.417-10.462,7.775-24.426.413-29.921C1218.526,441.326,1206.372,443.424,1202.5,445.41Z"/></g><path id="_Path_143" data-name="&lt;Path&gt;" class="cls-30" d="M1200.218,465.257c-9.557-4.867-7.122-17.558-7.122-17.558s13.662-19.514,38.854-6.893c8.716,4.367,13.947,14.285,13.733,25.9h0a27.344,27.344,0,0,1-27.344,27.344h0a15.941,15.941,0,0,1-15.941-15.941v-1.055l.807.26a8.1,8.1,0,0,0,7.441-1.989c4.193-3.612,4.7-10.7-.613-12.487-5.277-1.777-8.083,4.359-8.083,4.359l-.007-.007-2.055,5.642a4.015,4.015,0,0,1-2.4-5.146A3.94,3.94,0,0,1,1200.218,465.257Z"/></g><g id="_Group_54" data-name="&lt;Group&gt;"><path id="_Path_144" data-name="&lt;Path&gt;" class="cls-6" d="M1140,470l-40.673,20.711a3.1,3.1,0,0,0-1.525,3.775l19.774,57.286a1.12,1.12,0,0,0,1.576.628l40.805-21.267a1.12,1.12,0,0,0,.552-1.324l-18.265-59.02C1142.1,470.32,1141.438,469.777,1140,470Z"/><path id="_Path_145" data-name="&lt;Path&gt;" class="cls-14" d="M1139.426,471.317l-38.541,19.718A2.428,2.428,0,0,0,1099.7,494l19.368,55.337a2.427,2.427,0,0,0,3.426,1.344l36.376-19.246a2.427,2.427,0,0,0,1.184-2.861l-17.2-55.81A2.428,2.428,0,0,0,1139.426,471.317Z"/></g><g id="_Group_55" data-name="&lt;Group&gt;"><g id="_Group_56" data-name="&lt;Group&gt;"><path id="_Path_146" data-name="&lt;Path&gt;" class="cls-29" d="M1199.4,505.477c-7.162-.119-11.492.517-21.269,15.023s-27.9,41.219-30.023,44.68c-2.957,4.814-3.624,12.2-1.215,16.708,2.248,4.209,6.2,5.67,17.463-6.3,8.341-8.864,25.869-32.4,25.869-32.4S1203.865,517.76,1199.4,505.477Z"/></g></g><path id="_Path_147" data-name="&lt;Path&gt;" class="cls-29" d="M1151.333,584.936c-5.9,1.823-27.561-23.958-33.584-31.71a89.183,89.183,0,0,0-16.913-17.161c-8.344-6.381-6.955-15.949-3.123-24.676,1.328-3.022,5.622-.97,5.622-.97l1.456,4.2,2.521,7.265c1.762,1.69,2.771,2.248,2.9,1.756.24-.928-1.235-4.838-1.13-8.885.127-4.868,3.483-1.611,4.473.113a60.55,60.55,0,0,1,3.466,8.105c1.629,4.387.852,8.787,2.874,11.793s31.439,27.44,31.439,27.44Z"/></g><path id="_Path_148" data-name="&lt;Path&gt;" class="cls-6" d="M1237.148,570.309s-20.753,12.258-49.809,0a429.029,429.029,0,0,0-5.27,46.049c-1.033,19.644-3.314,61.82-3.314,61.82s8.583,10,39.185,7.974c29.413-1.949,34.607-9.616,34.607-9.616s.067-37.881.222-54.441C1252.967,600.917,1250,589.344,1237.148,570.309Z"/><path id="_Path_149" data-name="&lt;Path&gt;" class="cls-18" d="M1237.148,570.309s-20.753,12.258-49.809,0a429.029,429.029,0,0,0-5.27,46.049c-1.033,19.644-3.314,61.82-3.314,61.82s8.583,10,39.185,7.974c29.413-1.949,34.607-9.616,34.607-9.616s.067-37.881.222-54.441C1252.967,600.917,1250,589.344,1237.148,570.309Z"/><path id="_Path_150" data-name="&lt;Path&gt;" class="cls-30" d="M1246.792,458.566l4.853-4.446a4.24,4.24,0,0,0-7.184,4.108c-.6-.054-1.209-.092-1.825-.092v39.016a20.265,20.265,0,0,0,20.266,20.266V478.4A20.27,20.27,0,0,0,1246.792,458.566Z"/></g></g><g id="logo_left" data-name="logo left"><polygon class="cls-7" points="310.992 96.015 310.992 119.259 307.674 119.259 307.674 108.895 294.331 108.895 294.331 119.259 291.012 119.259 291.012 96.015 294.331 96.015 294.331 106.012 307.674 106.012 307.674 96.015 310.992 96.015"/><path class="cls-7" d="M331.6,110.792l-5.013-11.387-5.012,11.387Zm1.161,2.656H320.414l-2.558,5.811h-3.414l10.522-23.244h3.283L338.8,119.259h-3.484l-2.559-5.811Z"/><path class="cls-7" d="M357.693,104.115c0-3.32-2.227-5.216-6.471-5.216h-5.641v10.459h5.641C355.466,109.358,357.693,107.436,357.693,104.115Zm.1,15.144-5.012-7.139c-.463.035-.961.07-1.459.07h-5.737v7.069h-3.318V96.015h9.055c6.043,0,9.693,3.058,9.693,8.1a7.344,7.344,0,0,1-5.108,7.341l5.51,7.8h-3.624Z"/><polygon class="cls-7" points="387.925 119.259 387.89 102.324 379.498 116.437 377.97 116.437 369.578 102.42 369.578 119.259 366.39 119.259 366.39 96.015 369.115 96.015 378.808 112.356 388.361 96.015 391.086 96.015 391.121 119.259 387.933 119.259 387.925 119.259"/><path class="cls-7" d="M417.562,107.637a9.025,9.025,0,1,0-8.994,8.931A8.724,8.724,0,0,0,417.562,107.637Zm-21.368,0c0-6.807,5.24-11.884,12.374-11.884s12.313,5.051,12.313,11.884-5.24,11.884-12.313,11.884S396.194,114.444,396.194,107.637Z"/><polygon class="cls-7" points="445.943 96.015 445.943 119.259 443.218 119.259 429.281 101.922 429.281 119.259 425.963 119.259 425.963 96.015 428.688 96.015 442.625 113.352 442.625 96.015 445.943 96.015"/><polygon class="cls-7" points="461.809 111.22 461.809 119.259 458.526 119.259 458.526 111.159 449.305 96.015 452.859 96.015 460.29 108.266 467.756 96.015 471.04 96.015 461.809 111.22"/><path class="cls-7" d="M248.259,104.787a11.135,11.135,0,0,1,9.308,5.532,15.647,15.647,0,0,1,1.939,4.631c.437,1.853.244,3.793.672,5.645a7.72,7.72,0,0,0,15.3-1.494c0-4.282-3.371-7.279-7.423-7.742a12.8,12.8,0,0,1-7.309-2.788c-3.537-2.849-4.759-6.615-4.759-11.692,0-4.334-3.3-8.4-7.816-8.345s-7.641,4.011-7.641,8.336c0,5.077-1.222,8.844-4.759,11.692a12.739,12.739,0,0,1-7.309,2.788c-4.052.463-7.422,3.521-7.422,7.742a7.719,7.719,0,0,0,15.3,1.494c.428-1.852.236-3.792.672-5.645,1.24-5.243,5.545-10.145,11.248-10.171Z"/></g></svg>