<svg xmlns="http://www.w3.org/2000/svg" viewBox="0 0 1920 1080"><defs><style>.cls-1{isolation:isolate;}.cls-2{fill:#0f1854;}.cls-3{fill:#2b45ed;}.cls-4{fill:#aeb8fe;}.cls-5{fill:#e6e6ff;}.cls-6{fill:#fff;}.cls-7{fill:#fb4d3d;}.cls-8{fill:#0de5b2;}.cls-9{fill:#d9d9ff;opacity:0.4;mix-blend-mode:multiply;}.cls-10{fill:#e59b72;}.cls-11{fill:#242645;}.cls-12{fill:#2f3470;}.cls-13{fill:#555;}.cls-14{fill:#d17360;}.cls-15{fill:#80301a;}.cls-16{fill:#ff9783;}.cls-17{fill:#b65f42;}.cls-18{fill:#7768ff;}.cls-19{fill:#4333d6;}.cls-20{fill:#f9c5f9;}.cls-21{fill:#e9dbd2;}</style></defs><title>13- How to extract and process data from questionnaires</title><g class="cls-1"><g id="_13:_How_to_extract_and_process_data_from_questionnaires" data-name="13: How to extract and process data from questionnaires"><rect class="cls-2" width="1920" height="1080"/><path class="cls-3" d="M1393.139,750.15a3002.567,3002.567,0,0,0-888.6,0,12.984,12.984,0,0,1-14.925-12.829V199.8a12.984,12.984,0,0,1,14.925-12.83,3002.5,3002.5,0,0,0,888.6,0,12.985,12.985,0,0,1,14.925,12.83V737.321A12.984,12.984,0,0,1,1393.139,750.15Z"/><path class="cls-4" d="M1383.513,746.814a2892.8,2892.8,0,0,0-884.733,0V199.945a2892.8,2892.8,0,0,0,884.733,0Z"/><path class="cls-5" d="M498.78,199.945V746.814q35.166-5.428,70.387-9.956l137.121-512.49Q602.366,215.893,498.78,199.945Z"/><path class="cls-6" d="M755.986,288.006a80.356,80.356,0,1,0,80.355,80.356A80.356,80.356,0,0,0,755.986,288.006Zm0,129.012a48.656,48.656,0,1,1,48.655-48.656A48.655,48.655,0,0,1,755.986,417.018Z"/><path class="cls-2" d="M755.986,417.018a48.646,48.646,0,0,1-48.619-47.182h-31.7a80.332,80.332,0,0,0,160.637,0H804.6A48.646,48.646,0,0,1,755.986,417.018Z"/><path class="cls-3" d="M795.168,298.211,781.3,326.8a48.626,48.626,0,0,1,23.345,41.56c0,.494-.023.983-.037,1.474h31.7c.009-.492.037-.98.037-1.474A80.315,80.315,0,0,0,795.168,298.211Z"/><path class="cls-6" d="M946.185,288.006a80.356,80.356,0,1,0,80.356,80.356A80.356,80.356,0,0,0,946.185,288.006Zm0,129.012a48.656,48.656,0,1,1,48.656-48.656A48.656,48.656,0,0,1,946.185,417.018Z"/><path class="cls-6" d="M946.185,319.706a48.489,48.489,0,0,1,36.061,16.037l23.425-21.358a80.268,80.268,0,0,0-102.724-13.74l19.626,25.217A48.356,48.356,0,0,1,946.185,319.706Z"/><path class="cls-3" d="M1026.466,365.413a80.052,80.052,0,0,0-20.795-51.028l-23.425,21.358a48.449,48.449,0,0,1,12.5,29.67Z"/><path class="cls-2" d="M922.573,325.862l-19.626-25.217A80.3,80.3,0,0,0,865.9,365.413c-.035.98-.074,1.96-.074,2.949a80.056,80.056,0,0,0,21.111,54.277l23.424-21.357a48.474,48.474,0,0,1-12.836-32.92c0-.991.039-1.973.1-2.949A48.618,48.618,0,0,1,922.573,325.862Z"/><path class="cls-7" d="M1026.541,368.362c0-.989-.04-1.969-.075-2.949H994.744c.058.976.1,1.958.1,2.949A48.476,48.476,0,0,1,981.6,401.7l19.607,25.19A80.114,80.114,0,0,0,1026.541,368.362Z"/><path class="cls-6" d="M1136.385,288.006a80.356,80.356,0,1,0,80.356,80.356A80.357,80.357,0,0,0,1136.385,288.006Zm0,129.012a48.656,48.656,0,1,1,48.655-48.656A48.656,48.656,0,0,1,1136.385,417.018Z"/><path class="cls-8" d="M1185.04,368.362a48.617,48.617,0,0,1-23.082,41.391l22.1,23.288a80.346,80.346,0,0,0,6.3-124.211l-22.877,22.111A48.552,48.552,0,0,1,1185.04,368.362Z"/><rect class="cls-2" x="652.767" y="596.352" width="90.067" height="13.268"/><rect class="cls-6" x="652.767" y="625.661" width="46.421" height="5.401"/><rect class="cls-6" x="706.756" y="625.661" width="29.641" height="5.401"/><polygon class="cls-6" points="719.623 640.064 719.623 643.664 716.596 643.664 716.596 640.064 668.661 640.064 668.661 645.464 740.058 645.464 740.058 640.064 719.623 640.064"/><rect class="cls-6" x="652.767" y="640.064" width="12.11" height="5.401"/><rect class="cls-6" x="742.833" y="640.064" width="11.353" height="5.401"/><rect class="cls-6" x="652.767" y="654.466" width="93.867" height="5.401"/><rect class="cls-6" x="652.767" y="668.868" width="68.37" height="5.401"/><rect class="cls-6" x="725.678" y="668.868" width="28.509" height="5.401"/><rect class="cls-8" x="1115.677" y="596.352" width="90.066" height="13.268"/><rect class="cls-6" x="1115.677" y="625.661" width="46.421" height="5.401"/><rect class="cls-6" x="1169.667" y="625.661" width="29.641" height="5.401"/><polygon class="cls-6" points="1182.533 640.064 1182.533 643.664 1179.506 643.664 1179.506 640.064 1131.571 640.064 1131.571 645.464 1202.969 645.464 1202.969 640.064 1182.533 640.064"/><rect class="cls-6" x="1115.677" y="640.064" width="12.11" height="5.401"/><rect class="cls-6" x="1205.744" y="640.064" width="11.353" height="5.401"/><rect class="cls-6" x="1115.677" y="654.466" width="93.867" height="5.401"/><rect class="cls-6" x="1115.677" y="668.868" width="68.37" height="5.401"/><rect class="cls-6" x="1188.588" y="668.868" width="28.509" height="5.401"/><rect class="cls-6" x="725.984" y="474.027" width="56.406" height="13.396"/><rect class="cls-6" x="725.861" y="498.283" width="56.651" height="3.7"/><rect class="cls-6" x="725.861" y="513.739" width="56.651" height="3.7"/><rect class="cls-6" x="917.982" y="474.027" width="56.406" height="13.396"/><rect class="cls-6" x="917.861" y="498.283" width="56.648" height="3.7"/><rect class="cls-6" x="917.861" y="513.739" width="56.648" height="3.7"/><rect class="cls-6" x="1109.981" y="474.027" width="56.406" height="13.396"/><rect class="cls-6" x="1109.857" y="498.283" width="56.652" height="3.7"/><rect class="cls-6" x="1109.857" y="513.739" width="56.652" height="3.7"/><rect class="cls-3" x="869.684" y="594.789" width="153.003" height="14.299"/><rect class="cls-6" x="869.684" y="622.996" width="90.876" height="3.4"/><rect class="cls-6" x="869.684" y="635.638" width="117.376" height="3.4"/><rect class="cls-6" x="869.684" y="647.794" width="49.297" height="3.4"/><ellipse class="cls-9" cx="481.083" cy="901.891" rx="135.243" ry="19.282"/><polygon class="cls-10" points="534.153 842.026 536.656 871.744 514.616 872.085 509.606 843.529 534.153 842.026"/><path class="cls-11" d="M588.224,906.714l-80.521-.4a11.247,11.247,0,0,1-1.037-4.478c-.47-6.813,1.755-17.673,2.853-24.521.133-.8.247-1.547.337-2.223a23.5,23.5,0,0,0,.253-2.8c.028-5.594,4.974-4.611,4.974-4.611,8.109,8.031,17.394-3.907,22.763.051,0,0,2.311,1.674,8.676,7.458s17.217,9.632,26.453,13.551c11.925,5.053,15.289,10.059,15.933,13.5A6.289,6.289,0,0,1,588.224,906.714Z"/><path class="cls-12" d="M588.224,906.714l-80.521-.4a11.247,11.247,0,0,1-1.037-4.478l82.242.407A6.289,6.289,0,0,1,588.224,906.714Z"/><path class="cls-12" d="M515.918,906.356l-2.392-.012a17.67,17.67,0,0,0,4.392-12.871c-.349-7.958-5.1-13.345-8.4-16.156.133-.8.247-1.547.337-2.223,3.561,2.75,9.557,8.762,9.979,18.292A19.541,19.541,0,0,1,515.918,906.356Z"/><path class="cls-6" d="M545.133,879.938a1.327,1.327,0,0,1-.305-2.617l5.036-1.224a1.327,1.327,0,1,1,.626,2.579l-5.036,1.224A1.31,1.31,0,0,1,545.133,879.938Z"/><path class="cls-6" d="M539.594,875.569a1.327,1.327,0,0,1-.306-2.616l5.036-1.224a1.327,1.327,0,1,1,.627,2.578l-5.036,1.224A1.315,1.315,0,0,1,539.594,875.569Z"/><path class="cls-6" d="M550.149,882.886a1.327,1.327,0,0,1-.306-2.616l5.036-1.224a1.327,1.327,0,1,1,.627,2.579l-5.036,1.223A1.22,1.22,0,0,1,550.149,882.886Z"/><path class="cls-6" d="M555.165,885.722a1.327,1.327,0,0,1-.3-2.617l5.035-1.223a1.327,1.327,0,1,1,.627,2.578l-5.036,1.224A1.31,1.31,0,0,1,555.165,885.722Z"/><path class="cls-6" d="M560.637,888.349a1.327,1.327,0,0,1-.306-2.617l5.036-1.224a1.327,1.327,0,1,1,.626,2.579l-5.036,1.223A1.309,1.309,0,0,1,560.637,888.349Z"/><path class="cls-6" d="M566.573,890.6a1.327,1.327,0,0,1-.3-2.617l5.036-1.224a1.327,1.327,0,1,1,.626,2.579l-5.035,1.223A1.319,1.319,0,0,1,566.573,890.6Z"/><path class="cls-13" d="M535.9,687.054c.331,2.625.624,5.01.837,7.1.051.534.1,1.084.165,1.682,2.2,26.129.233,116.307-.444,144.5-.032.941-.043,1.814-.066,2.606-.1,3.76.3,9.414.3,9.414l-26.918,2.293s-.885-5.578-1.6-9.194c-.187-.874-.37-1.831-.582-2.865-3-15.015-9.427-47.23-14.9-75.471-7.44-38.346-5.85-61.145-5.85-61.145s1.52-9.14-4.224-31.362c-4.751-18.419-25.137-74.946-30.871-94.393-1.159-3.924,2.772-8.205,2.772-8.205s37.408-25.787,50.007-14.284c.978.9,4.318,9.457,4.928,10.724a113.256,113.256,0,0,1,5.333,14.912C522.969,610.435,532.45,660.827,535.9,687.054Z"/><path class="cls-6" d="M519.706,696.4a22.843,22.843,0,0,0,16.473-1.714,1.3,1.3,0,0,0-1.295-2.25,20.615,20.615,0,0,1-15.036,1.3,1.3,1.3,0,1,0-.765,2.481C519.291,696.285,519.5,696.345,519.706,696.4Z"/><path class="cls-6" d="M511.287,844.234h-.01a.871.871,0,0,1-.988-.736c-.1-.709-10.392-71.171-14.078-92.319-3.109-17.835-4.189-52.836-4.251-54.932-8.427-33.6-30.643-119.248-30.867-120.11a.871.871,0,1,1,1.687-.437c.224.863,22.482,86.676,30.894,120.216a.9.9,0,0,1,.025.187c.011.364,1.061,36.6,4.229,54.777,3.69,21.171,13.982,91.657,14.086,92.366A.873.873,0,0,1,511.287,844.234Z"/><polygon class="cls-10" points="426.446 847.911 425.385 872.694 400.173 873.17 401.988 849.875 426.446 847.911"/><path class="cls-11" d="M394.464,901.137c0,.2,0,.386.009.572.018.87.056,1.651.093,2.321.088,1.475.2,2.382.2,2.382H443.7a27,27,0,0,0,.055-4.7c-.321-5-1.981-12.9-8.741-18.119-9.252-7.155-5.679-5.661-7.577-8.923-.214-.362-1.88-5.9-2.057-6.284-1.59-3.387-3.056-4.987-11.824-4.987-11.63,0-12.654,5.643-13.9,8.615a55.5,55.5,0,0,0-1.935,6.908c-.293,1.237-.586,2.559-.874,3.9-.717,3.373-1.387,6.894-1.842,9.7A50.764,50.764,0,0,0,394.464,901.137Z"/><path class="cls-12" d="M394.464,901.137c0,.2,0,.386.009.572.018.87.056,1.651.093,2.321a13.66,13.66,0,0,0,5.084-6.592c3.029-8.248-1.627-18.147-1.823-18.565l-.1.046c-.293,1.237-.586,2.559-.874,3.9,1.1,3.368,2.372,9.029.609,13.821A11.391,11.391,0,0,1,394.464,901.137Z"/><path class="cls-12" d="M394.473,901.709c.065,2.786.288,4.7.288,4.7H443.7a27,27,0,0,0,.055-4.7Z"/><path class="cls-6" d="M411.945,878.652a1.418,1.418,0,0,0,.351-.044,24.207,24.207,0,0,1,11.346-.234,1.4,1.4,0,1,0,.744-2.69,26.808,26.808,0,0,0-12.79.222,1.4,1.4,0,0,0,.349,2.746Z"/><path class="cls-6" d="M411.141,873.013a1.369,1.369,0,0,0,.351-.045,24.2,24.2,0,0,1,11.347-.233,1.4,1.4,0,1,0,.743-2.69,26.826,26.826,0,0,0-12.789.221,1.4,1.4,0,0,0,.348,2.747Z"/><path class="cls-6" d="M414.038,883.074a1.42,1.42,0,0,0,.351-.045,24.435,24.435,0,0,1,11.349-.233,1.4,1.4,0,0,0,.741-2.691,26.824,26.824,0,0,0-12.79.222,1.4,1.4,0,0,0,.349,2.747Z"/><path class="cls-6" d="M416.5,888.1a1.367,1.367,0,0,0,.35-.045,24.457,24.457,0,0,1,11.35-.233,1.4,1.4,0,0,0,.741-2.69,26.8,26.8,0,0,0-12.79.221,1.4,1.4,0,0,0,.349,2.747Z"/><path class="cls-13" d="M459.379,590.317q-2.088.466-4.2.893c-17.975,3.635-36.844,5.106-50.049,2.314-6.517-1.377-10.685-8.442-13.338-16.333-.724-2.154-1.218-4.4-1.85-6.553a93.644,93.644,0,0,1-3.077-39.11L491.63,529.8s3.232,5.27,6.817,12.14a134.542,134.542,0,0,1,7.262,16.041l.008.014a37.714,37.714,0,0,1,2.16,8.532C508.649,574.343,485.537,584.493,459.379,590.317Z"/><path class="cls-13" d="M452.162,696.924c-.082,2.645-.163,5.046-.276,7.139-.033.535-.065,1.087-.1,1.687-1.882,26.154-17.83,114.932-22.876,142.676-.178.924-.324,1.784-.47,2.563-.682,3.7-1.071,5.793-1.071,5.793l-26.948-1.915s-.1-2.093-.244-5.776c-.048-.893-.081-1.866-.13-2.92-.632-15.3-1.979-48.121-3-76.871-1.395-39.035,3.715-61.311,3.715-61.311s2.921-8.794.7-31.637c-1.833-18.934-8.339-79.174-10.984-99.276-.535-4.056-.774-7.271-.774-7.271s42.211-11.062,52.87,2.258a10.682,10.682,0,0,1,1.882,3.586,113.172,113.172,0,0,1,2.953,15.558C451.286,619.227,452.827,670.479,452.162,696.924Z"/><path class="cls-6" d="M435.189,702.215a22.847,22.847,0,0,0,16.473-1.713,1.3,1.3,0,0,0-1.3-2.25,20.616,20.616,0,0,1-15.035,1.3,1.3,1.3,0,1,0-.766,2.482Q434.879,702.129,435.189,702.215Z"/><path class="cls-6" d="M428.906,848.428c-.166.922-.325,1.775-.466,2.555l-28.265-1.9c-.036-.881-.077-1.855-.122-2.915Z"/><path class="cls-6" d="M399.813,608.212a.853.853,0,0,1-.192-1.684,27.219,27.219,0,0,0,9.878-5.262c6.64-5.458,10.316-13.263,10.928-23.2a.853.853,0,1,1,1.7.105c-.8,13.032-6.758,20.5-11.612,24.465a28.364,28.364,0,0,1-10.512,5.554A.838.838,0,0,1,399.813,608.212Z"/><path class="cls-6" d="M403.44,848.375h-.009a.871.871,0,0,1-.862-.881c.008-.716.785-71.921.428-93.385-.3-18.1,4.067-52.845,4.33-54.925-3.107-34.5-11.755-122.56-11.842-123.446a.872.872,0,0,1,1.735-.17c.087.887,8.75,89.116,11.852,123.554a.917.917,0,0,1,0,.189c-.047.361-4.636,36.324-4.328,54.769.357,21.488-.42,92.717-.429,93.434A.87.87,0,0,1,403.44,848.375Z"/><path class="cls-6" d="M536.452,840.332c-.021.936-.045,1.8-.064,2.6l-28.217,2.515c-.172-.865-.364-1.821-.572-2.861Z"/><path class="cls-6" d="M451.165,590.482a.872.872,0,0,1-.219-1.679c.139-.055,9.856-3.988,12.9-14.585a.871.871,0,1,1,1.675.482,25.045,25.045,0,0,1-13.944,15.727A.871.871,0,0,1,451.165,590.482Z"/><path class="cls-3" d="M471.273,350.911s-33.681,2.387-47.055,9.853c-18.085,10.1-19.394,73.089-25.667,100.272s-19.637,75.638-10.865,97.633c4.761,11.938,97.1,13.819,117.515,6.583,10.76-3.814,3.715-77.195,13.078-107.69s19.6-50.859,18.191-64.484c-1.147-11.066-32.563-27.88-32.563-27.88Z"/><path class="cls-6" d="M393.3,549.486a1.067,1.067,0,0,1-1.067-1.045c-.517-24.8,3.565-49.894,12.479-76.716,10.085-30.346,12.748-76.255,12.774-76.716a1.067,1.067,0,1,1,2.131.12c-.026.462-2.7,46.651-12.879,77.269-8.836,26.587-12.882,51.446-12.37,76a1.068,1.068,0,0,1-1.045,1.089Z"/><path class="cls-6" d="M432.547,525.947c10.927,0,23.133-3.09,36.092-9.209a144.9,144.9,0,0,0,26.267-16.1,1.1,1.1,0,0,0-1.384-1.707,142.5,142.5,0,0,1-25.863,15.843c-13.665,6.446-33.658,12.76-51.292,6.241a1.1,1.1,0,0,0-.762,2.06A48.626,48.626,0,0,0,432.547,525.947Z"/><path class="cls-6" d="M434.753,544.7a68.085,68.085,0,0,0,27.9-6.129,61.14,61.14,0,0,0,13.82-8.372,1.1,1.1,0,1,0-1.438-1.66c-.2.169-19.929,16.918-47.784,13.506a1.1,1.1,0,1,0-.267,2.181A63.9,63.9,0,0,0,434.753,544.7Z"/><path class="cls-6" d="M483.983,380.646c9.763,0,17.585-6.328,17.943-6.622a1.1,1.1,0,0,0-1.394-1.7c-.127.1-9.028,7.261-19.076,5.962-5.746-.744-10.821-4.1-15.084-9.979a1.1,1.1,0,0,0-1.778,1.29c4.636,6.393,10.22,10.05,16.6,10.87A22.112,22.112,0,0,0,483.983,380.646Z"/><path class="cls-14" d="M521.6,322.672s2.919.619,3.027,4.454-2.557,9.889-6.274,8.652S521.6,322.672,521.6,322.672Z"/><path class="cls-15" d="M473.878,303.535s-5.992-12.88-2-18.859,6.411-2.591,6.411-2.591-2.339-7.509,3.034-9.447a6.106,6.106,0,0,1,7.741,2.757s6.692-9.4,13.728-6.257,3.192,8.546,3.192,8.546,12.421-7.077,17.923-1.709.639,9.235.639,9.235,12.232-4.8,15.532,5.445-6.774,10.8-6.774,10.8,13.008,2.747,7.775,8.44-18.784-2.568-18.784-2.568S481.221,297.367,473.878,303.535Z"/><path class="cls-16" d="M467.725,352.269c.466,5.574,7.8,13.153,12.163,15.232a26.215,26.215,0,0,0,20.3,1.175l2.279-10.6.465-2.162.881-4.105-22.231-22.325-1.282-1.288-.865-.87-.533.858-.61.99.038.477C474.294,339.553,473.086,345.655,467.725,352.269Z"/><path class="cls-14" d="M500.668,366.454c-9.824-4.647-13.578-14.9-14.931-20.438,4.225,5.189,9.776,9.157,15.421,9.791a15.061,15.061,0,0,0,1.775.1Z"/><path class="cls-16" d="M502.936,355.909a16.508,16.508,0,0,1-1.778-.1c-11.037-1.237-21.721-15.244-22.824-26.164-.014-.16-.028-.319-.038-.477-.028-.366-.051-.726-.054-1.084l-.146-.051,0,0c-6.914-2.351-12.549-11.761-9.132-17.44,1.851-3.073,4.108-3.64,6.026-3.34a39.8,39.8,0,0,1,.29-8.923c1.78-10.413,12.611-23.332,31.73-15.276s22.249,23.984,18.577,33.431c-2.095,5.388-3.881,10.932-5.029,14.7-.382,1.264-.7,2.331-.926,3.12-.286.99-.44,1.554-.44,1.554C518.629,344.63,513.562,355.907,502.936,355.909Z"/><path class="cls-6" d="M500.6,333.273s-.866,6.921,4.829,8.311,7.334-4.146,7.334-4.146Z"/><path class="cls-14" d="M503.8,343.961a3.127,3.127,0,0,1-1.562-1.379.527.527,0,0,1,.941-.473,2.139,2.139,0,0,0,2.163,1.012.527.527,0,0,1,.107,1.048A3.43,3.43,0,0,1,503.8,343.961Z"/><path class="cls-15" d="M474.986,307.252s4.522.37,6.778,3.49.923,9.871,4.551,10.882.512-12.549,2.868-14.626,9.457,1.172,10.285-8.417c.467-5.413,19.137.931,22.229,5.527s7.961,8.8,8.223,2.783-10.9-24.063-22.924-26.538-25.019-2.036-30.369,9.464S474.986,307.252,474.986,307.252Z"/><path class="cls-14" d="M483.526,328.389a5.426,5.426,0,0,1-1.939,1.091,6.912,6.912,0,0,1-3.252.166c-.017-.159-.029-.32-.039-.475-.03-.367-.049-.729-.054-1.087l-.146-.05a7.219,7.219,0,0,0,.809.146,5.581,5.581,0,0,0,1.4.012,4.081,4.081,0,0,0,2.221-.955.764.764,0,0,1,1,1.152Z"/><path class="cls-14" d="M477.847,322.587a.763.763,0,0,1-.408-.772c.669-5.373-4.659-9.518-4.713-9.559a.763.763,0,0,1,.925-1.214c.249.19,6.081,4.709,5.3,10.961a.762.762,0,0,1-.851.663A.737.737,0,0,1,477.847,322.587Z"/><path class="cls-14" d="M472.449,317.72a.763.763,0,0,1-.147-1.258,5.238,5.238,0,0,1,5.084-.749.763.763,0,0,1-.529,1.432,3.706,3.706,0,0,0-3.562.476A.763.763,0,0,1,472.449,317.72Z"/><path class="cls-11" d="M503.037,401.782l.444,1.618.422,1.468.859,2.872c.576,1.9,1.2,3.772,1.817,5.641,1.242,3.738,2.591,7.429,4.01,11.106s2.923,7.329,4.533,10.961,3.284,7.258,5.115,10.844a170.386,170.386,0,0,0,12.636,21.262,118.619,118.619,0,0,0,8.125,10.3c.734.846,1.53,1.681,2.3,2.517.4.417.81.829,1.218,1.241l.613.617.639.612c1.678,1.635,3.507,3.232,5.437,4.782a58.35,58.35,0,0,0,13.605,8.237,46.253,46.253,0,0,0,8.425,2.707l.556.124.138.03.379.073c.325.058.652.111.979.157.656.093,1.315.16,1.973.2.675.038,1.421.026,2.13-.007a19.648,19.648,0,0,0,2.139-.207c.711-.117,1.421-.265,2.121-.443q.525-.133,1.041-.289.48-.159.955-.338c.633-.238,1.258-.5,1.869-.789.148-.07.313-.146.446-.217l.393-.212q.393-.216.778-.445c.513-.305,1.021-.629,1.506-.964q.615-.449,1.209-.933l.586-.49.288-.25.141-.125.116-.111q.464-.442.911-.9l.442-.465.217-.236c.076-.082.142-.157.2-.222q.7-.825,1.348-1.689a31.25,31.25,0,0,0,3.155-5.494l.5-1.168c.157-.382.284-.729.425-1.1.289-.747.492-1.394.726-2.086a64.822,64.822,0,0,0,1.83-7.282,118.2,118.2,0,0,0,1.658-12.735,226.734,226.734,0,0,0,.534-23.619c-.071-3.859-.274-7.7-.494-11.525-.119-1.915-.272-3.827-.423-5.742-.074-.958-.17-1.916-.262-2.879l-.143-1.449-.163-1.509a14.225,14.225,0,0,0-28.321.366l-.024.33-.868,10.665c-.275,3.585-.618,7.161-.929,10.713-.688,7.091-1.441,14.136-2.491,20.753-.535,3.284-1.129,6.491-1.853,9.221a29.629,29.629,0,0,1-1.077,3.446c-.083.179-.166.415-.233.524-.033.062-.069.15-.1.193a.7.7,0,0,0-.066.1c-.047.063-.053-.054.384-.683a4.889,4.889,0,0,1,.473-.609c.019-.019.046-.051.08-.093l.1-.112.2-.218q.2-.213.423-.41l.055-.048.074-.071.152-.142c.1-.093.208-.183.315-.272.215-.177.438-.343.667-.5a10.562,10.562,0,0,1,.91-.6q.237-.14.48-.266l.532-.271a10.952,10.952,0,0,1,1.224-.527q.315-.114.633-.208c.231-.078.465-.15.7-.214a11.621,11.621,0,0,1,1.442-.293c.483-.065.959-.136,1.448-.157a13.957,13.957,0,0,1,1.435.009,10.838,10.838,0,0,1,1.283.113c.214.031.425.069.635.112l.157.034c.075.018.057.013.05.011l-.03-.011-.12-.042a11.568,11.568,0,0,1-2.1-.813,25.228,25.228,0,0,1-5.2-3.508c-.934-.8-1.887-1.663-2.835-2.645l-.357-.358-.355-.381-.714-.758c-.474-.534-.955-1.042-1.425-1.606a82.466,82.466,0,0,1-5.53-7.243q-1.337-1.951-2.624-4.011c-.861-1.364-1.715-2.767-2.553-4.182-1.67-2.847-3.276-5.791-4.817-8.807s-3.06-6.082-4.491-9.215c-.724-1.561-1.427-3.14-2.12-4.725s-1.389-3.176-2.064-4.777c-1.35-3.2-2.634-6.443-3.9-9.683-.63-1.621-1.227-3.251-1.832-4.865l-.88-2.41-.793-2.222-.213-.595a17.488,17.488,0,0,0-33.334,10.511Z"/><path class="cls-12" d="M525.019,452.517a1.067,1.067,0,0,1-1.194-1.2c.054-.392,5.428-39.363,7.809-50.342a1.067,1.067,0,1,1,2.086.453c-2.364,10.9-7.726,49.789-7.78,50.18A1.066,1.066,0,0,1,525.019,452.517Z"/><path class="cls-12" d="M589.1,427.556a28.593,28.593,0,0,0,4.025-.668,37.474,37.474,0,0,0,10.172-4.117.982.982,0,1,0-1.04-1.667c-.164.1-16.53,10.1-26.668.171a.982.982,0,1,0-1.374,1.4C578.049,426.438,583.142,428.093,589.1,427.556Z"/><path class="cls-12" d="M565.2,472.841a.983.983,0,0,0,.892-1.04c-.415-6.66,4.39-14.049,4.439-14.122a.983.983,0,0,0-1.642-1.08c-.213.323-5.214,8.017-4.758,15.324a.982.982,0,0,0,1.042.92Z"/><path class="cls-12" d="M558.372,464.972a.982.982,0,0,0,.671-.354h0a16.476,16.476,0,0,1,9.826-4.833.982.982,0,1,0-.286-1.944c-7.344,1.078-10.912,5.349-11.06,5.53a.983.983,0,0,0,.849,1.6Z"/><rect class="cls-8" x="484.43" y="368.707" width="124.255" height="170.785" transform="matrix(0.923, -0.384, 0.384, 0.923, -132.574, 245.027)"/><path class="cls-6" d="M608.458,474.652a23.677,23.677,0,1,1-30.974-12.723A23.677,23.677,0,0,1,608.458,474.652Z"/><path class="cls-6" d="M577.4,461.964a23.6,23.6,0,0,0-12.788,13.058l21.05,9.526,1.79-24.435A23.562,23.562,0,0,0,577.4,461.964Z"/><path class="cls-6" d="M600.716,464.763a23.778,23.778,0,0,0-13.262-4.65l-1.79,24.435.305.138Z"/><path class="cls-6" d="M564.614,475.022a23.667,23.667,0,0,0,7.93,27.8l13.075-17.664.045-.611Z"/><polygon class="cls-6" points="585.664 484.548 585.619 485.159 585.969 484.686 585.664 484.548"/><path class="cls-6" d="M607.7,494.523l-21.735-9.837-.35.473L584,507.31A23.667,23.667,0,0,0,607.7,494.523Z"/><path class="cls-6" d="M572.544,502.823A23.79,23.79,0,0,0,584,507.31l1.623-22.151Z"/><path class="cls-6" d="M600.716,464.763l-14.747,19.923,21.735,9.837a23.668,23.668,0,0,0-6.988-29.76Z"/><path class="cls-6" d="M601.86,477.408a16.527,16.527,0,1,1-21.62-8.88A16.527,16.527,0,0,1,601.86,477.408Z"/><path class="cls-6" d="M592.13,496.994a14.323,14.323,0,1,1,7.7-18.737A14.339,14.339,0,0,1,592.13,496.994ZM581.4,471.311a13.51,13.51,0,1,0,17.674,7.26A13.526,13.526,0,0,0,581.4,471.311Z"/><rect class="cls-6" x="524.541" y="506.494" width="7.031" height="1.618" transform="translate(-154.73 242.721) rotate(-22.67)"/><rect class="cls-6" x="526.073" y="509.824" width="10.418" height="1.618" transform="translate(-155.765 244.224) rotate(-22.67)"/><rect class="cls-6" x="537.168" y="506.293" width="5.132" height="1.618" transform="translate(-153.756 247.223) rotate(-22.671)"/><rect class="cls-6" x="542.354" y="504.513" width="3.284" height="1.618" transform="translate(-152.751 248.757) rotate(-22.674)"/><rect class="cls-6" x="527.946" y="514.854" width="4.978" height="1.618" transform="translate(-157.773 244.296) rotate(-22.671)"/><rect class="cls-6" x="533.469" y="510.917" width="12.781" height="1.618" transform="translate(-155.522 247.612) rotate(-22.67)"/><rect class="cls-6" x="543.214" y="512.972" width="5.85" height="1.618" transform="translate(-155.82 250.166) rotate(-22.668)"/><rect class="cls-6" x="529.253" y="517.056" width="14.215" height="1.618" transform="translate(-158.157 246.733) rotate(-22.67)"/><rect class="cls-6" x="531.118" y="522.047" width="8.981" height="1.618" transform="translate(-160.142 246.837) rotate(-22.67)"/><rect class="cls-6" x="540.882" y="519.04" width="3.849" height="1.618" transform="translate(-158.443 249.421) rotate(-22.674)"/><rect class="cls-6" x="545.017" y="517.651" width="2.232" height="1.618" transform="translate(-157.643 250.577) rotate(-22.672)"/><rect class="cls-6" x="514.787" y="481.062" width="24.659" height="1.513" transform="translate(-144.724 239.679) rotate(-22.61)"/><rect class="cls-6" x="516.146" y="483.824" width="29.664" height="1.513" transform="translate(-145.49 241.38) rotate(-22.61)"/><rect class="cls-6" x="528.601" y="485.368" width="18.325" height="1.513" transform="translate(-145.562 244.106) rotate(-22.61)"/><rect class="cls-6" x="518.505" y="491.589" width="8.64" height="1.513" transform="translate(-149.105 238.849) rotate(-22.61)"/><rect class="cls-6" x="519.248" y="491.271" width="29.664" height="1.513" transform="translate(-148.114 243.143) rotate(-22.61)"/><rect class="cls-6" x="520.798" y="494.995" width="29.664" height="1.513" transform="translate(-149.428 244.029) rotate(-22.61)"/><rect class="cls-6" x="501.064" y="402.996" width="1.113" height="72.522" transform="translate(-130.328 226.627) rotate(-22.611)"/><rect class="cls-6" x="520.105" y="395.066" width="1.113" height="72.522" transform="translate(-125.803 233.299) rotate(-22.608)"/><rect class="cls-6" x="539.146" y="387.136" width="1.113" height="72.522" transform="translate(-121.291 240.009) rotate(-22.608)"/><rect class="cls-6" x="558.187" y="379.206" width="1.113" height="72.522" transform="translate(-116.78 246.72) rotate(-22.608)"/><rect class="cls-6" x="503.803" y="430.704" width="6.707" height="43.708" transform="translate(-135.011 229.765) rotate(-22.61)"/><rect class="cls-6" x="525.903" y="437.111" width="6.707" height="28.72" transform="translate(-132.89 238.162) rotate(-22.609)"/><rect class="cls-6" x="542.37" y="417.131" width="6.707" height="41.318" transform="translate(-126.37 243.458) rotate(-22.61)"/><rect class="cls-6" x="558.36" y="394.065" width="6.707" height="57.07" transform="translate(-119.298 248.428) rotate(-22.61)"/><rect class="cls-6" x="499.194" y="459.282" width="104.652" height="0.927" transform="translate(-134.363 247.369) rotate(-22.61)"/><polygon class="cls-6" points="575.725 386.228 564.436 377.6 562.609 391.69 566.071 390.248 587.879 442.613 594.071 440.034 572.263 387.67 575.725 386.228"/><path class="cls-6" d="M509.139,471.555a.846.846,0,0,1-.456,1.107l-6.434,2.679a.845.845,0,0,1-1.106-.456h0a.845.845,0,0,1,.456-1.106l6.434-2.68a.847.847,0,0,1,1.106.456Z"/><path class="cls-6" d="M504.493,460.4a.846.846,0,0,1-.456,1.107l-6.434,2.679a.845.845,0,0,1-1.106-.456h0a.845.845,0,0,1,.456-1.106l6.433-2.68a.848.848,0,0,1,1.107.456Z"/><path class="cls-6" d="M499.847,449.243a.847.847,0,0,1-.456,1.107l-6.434,2.679a.846.846,0,0,1-1.107-.456h0a.846.846,0,0,1,.457-1.106l6.433-2.68a.847.847,0,0,1,1.107.456Z"/><path class="cls-6" d="M495.2,438.087a.846.846,0,0,1-.456,1.106l-6.434,2.68a.847.847,0,0,1-1.107-.456h0a.848.848,0,0,1,.456-1.107l6.434-2.679a.846.846,0,0,1,1.107.456Z"/><path class="cls-6" d="M490.555,426.931a.847.847,0,0,1-.456,1.106l-6.434,2.68a.848.848,0,0,1-1.107-.456h0a.848.848,0,0,1,.456-1.107l6.434-2.679a.846.846,0,0,1,1.107.456Z"/><path class="cls-6" d="M485.909,415.774a.848.848,0,0,1-.456,1.107l-6.434,2.679a.846.846,0,0,1-1.107-.455h0a.847.847,0,0,1,.456-1.107l6.434-2.68a.848.848,0,0,1,1.107.456Z"/><path class="cls-6" d="M481.262,404.618a.846.846,0,0,1-.455,1.107l-6.434,2.679a.846.846,0,0,1-1.107-.456h0a.845.845,0,0,1,.456-1.106l6.434-2.68a.847.847,0,0,1,1.106.456Z"/><path class="cls-16" d="M583.955,382.3s6.076-2.544,8.617,1.573-1.569,14.777-3.266,18.42-4.148-5.5-3.081-9.567-.21-6.328-.21-6.328Z"/><path class="cls-16" d="M592.952,395.519s6.482-2.885,9.024,1.232-1.569,14.777-3.266,18.42-4.148-5.5-3.081-9.567-.363-5.825-.363-5.825Z"/><path class="cls-16" d="M598.5,401.055s5.725-2.549,7.971,1.088-1.386,13.053-2.885,16.271-3.665-4.859-2.722-8.451-.321-5.145-.321-5.145Z"/><path class="cls-16" d="M587.728,389.369s6.482-2.885,9.023,1.232-1.569,14.777-3.266,18.42-4.148-5.5-3.081-9.567-.363-5.825-.363-5.825Z"/><path class="cls-3" d="M438.808,425.231c-.31.054-.725.145-1.1.221l-1.153.25-2.329.492q-2.326.512-4.668.986-4.668.977-9.308,1.872c-6.173,1.184-12.31,2.228-18.217,2.917-1.475.166-2.933.329-4.365.439s-2.837.193-4.2.247-2.677.053-3.912,0a29.665,29.665,0,0,1-3.374-.276,12.053,12.053,0,0,1-2.28-.536c-.206-.1-.377-.175-.357-.22.008-.011-.022-.016.016-.02a.187.187,0,0,1,.075,0,1.4,1.4,0,0,1,.139.034.586.586,0,0,1,.075.03l.086.043.158.083a8.8,8.8,0,0,1,1.441,1.008,9.928,9.928,0,0,1,1.605,1.746,10.611,10.611,0,0,1,1.251,2.228,10.216,10.216,0,0,1,.626,2.082,9.027,9.027,0,0,1,.17,1.5c.02.373,0,.685-.006.869-.024.4-.038.495.026.425.12-.147.466-.834.97-1.624.513-.808,1.159-1.747,1.905-2.732,1.487-1.973,3.266-4.123,5.189-6.253s3.968-4.313,6.1-6.465c2.111-2.171,4.322-4.309,6.545-6.467,4.476-4.291,9.095-8.571,13.779-12.816l7.051-6.363,6.971-6.243.192-.173A16.9,16.9,0,0,0,416.5,366.4l-1.1.821-1.03.789-2.028,1.575c-1.343,1.052-2.657,2.129-3.975,3.2s-2.625,2.153-3.917,3.255-2.584,2.2-3.861,3.327c-5.112,4.486-10.123,9.128-15,14.042a202.612,202.612,0,0,0-14.27,15.785,112.386,112.386,0,0,0-6.793,9.353c-1.1,1.725-2.2,3.571-3.271,5.636a43.369,43.369,0,0,0-3.04,7.35,30.883,30.883,0,0,0-1.116,5.2,26.009,26.009,0,0,0-.2,3.32,24.032,24.032,0,0,0,.346,3.95,22.239,22.239,0,0,0,1.266,4.453,21.124,21.124,0,0,0,5.64,7.978,22.072,22.072,0,0,0,3.417,2.467l.42.243.2.113.154.081.62.315c.408.2.845.426,1.236.588l1.2.5c.409.17.772.285,1.162.424a33.813,33.813,0,0,0,4.357,1.18,42.081,42.081,0,0,0,7.463.769,66.7,66.7,0,0,0,12.362-1,109.073,109.073,0,0,0,10.869-2.42,167.068,167.068,0,0,0,19.887-6.923q4.781-1.984,9.412-4.213,2.315-1.128,4.611-2.3c.765-.391,1.524-.8,2.287-1.211l1.149-.622,1.2-.667a10.042,10.042,0,0,0-6.6-18.667Z"/><path class="cls-16" d="M436.039,429.27c.533-1.957,3.754-3.38,5.659-5.26a31.465,31.465,0,0,1,10.044-6.408c4.5-1.484,17.97-5.125,21.4-3.2s-7.953,5.968-10.271,6.842a9.4,9.4,0,0,0-3.564,2.325s26.826-7.249,29.374-5.417-12.305,7.487-15.986,8.859c0,0,20.517-4.339,21.767-2.667,2.508,3.356-20.134,8.832-20.134,8.832s17.446-2.771,17.819.109c.395,3.05-18.3,5.97-18.3,5.97s11.637-.146,13.092,2.192-22.955,4.528-26.749,4.413-12.977,2.693-17.839,1.709C439.045,446.9,434.353,435.468,436.039,429.27Z"/><path class="cls-6" d="M379.032,433.625a.8.8,0,0,0,.723.036c5.482-2.433,14.569-.9,14.66-.889a.8.8,0,0,0,.274-1.586c-.392-.067-9.656-1.629-15.586,1a.8.8,0,0,0-.071,1.436Z"/><path class="cls-6" d="M388.777,432.191a.8.8,0,0,0,1.054-1.165c-3.647-5.155-8.145-5.118-8.335-5.114a.805.805,0,0,0,.031,1.61c.156,0,3.861.013,6.99,4.434A.8.8,0,0,0,388.777,432.191Z"/><ellipse class="cls-9" cx="1446.224" cy="901.891" rx="155.937" ry="19.282"/><path class="cls-17" d="M1529.624,827.845l5.878,20.3c-7.088,5.959-14.068,5.245-21.019,2.79l-7.126-19.489Z"/><path class="cls-18" d="M1548.281,868.172l-2.774,4.844-.924,1.619-12.632,22.079a10.346,10.346,0,0,1-9.1,5.206c-6.761-.074-17.849-.161-26.269-.04-2.01.029-2.817-1.056-2.815-2.717.016-4.635,6.381-13.779,10.579-15.739,0,0,6.953-24.449,4.545-30.138-4.116-9.716,1.931-10.211,7.82-7.244,3,1.507,3.8,3.744,6.019,3.771,3.486.043,11.188-3.508,11.188-3.508s2.812-3.768,3.727-.054a27.9,27.9,0,0,0,1.554,3.914c.376.834.805,1.746,1.265,2.706,2.111,4.4,4.878,9.727,6.49,12.8C1547.766,867.2,1548.281,868.172,1548.281,868.172Z"/><path class="cls-19" d="M1545.507,873.016l-.924,1.619c-4.792-3.439-7.1-9.059-6.706-16.457a39.33,39.33,0,0,1,1.324-8.013c.376.834.805,1.746,1.265,2.706a35.422,35.422,0,0,0-.736,5.448C1539.387,865.017,1541.327,869.943,1545.507,873.016Z"/><path class="cls-19" d="M1548.281,868.172l-16.33,28.542a10.346,10.346,0,0,1-9.1,5.206c-6.761-.074-17.849-.161-26.269-.04-2.01.029-2.817-1.056-2.815-2.717l28.933-.1a8.632,8.632,0,0,0,7.444-4.312l16.81-29.088C1547.766,867.2,1548.281,868.172,1548.281,868.172Z"/><path class="cls-6" d="M1516.55,860.945a1.6,1.6,0,0,0,1.29-1.356,1.341,1.341,0,0,0-1.529-1.3l-6.268.216a1.668,1.668,0,0,0-1.681,1.408,1.342,1.342,0,0,0,1.529,1.3l6.268-.217A1.938,1.938,0,0,0,1516.55,860.945Z"/><path class="cls-6" d="M1512.1,881.376a1.6,1.6,0,0,0,1.29-1.355,1.342,1.342,0,0,0-1.529-1.3l-6.268.216a1.668,1.668,0,0,0-1.681,1.408,1.342,1.342,0,0,0,1.53,1.3l6.268-.217A1.938,1.938,0,0,0,1512.1,881.376Z"/><path class="cls-6" d="M1513.558,875.9a1.593,1.593,0,0,0,1.29-1.355,1.342,1.342,0,0,0-1.529-1.3l-6.268.217a1.667,1.667,0,0,0-1.681,1.408,1.343,1.343,0,0,0,1.53,1.3l6.268-.217A1.86,1.86,0,0,0,1513.558,875.9Z"/><path class="cls-6" d="M1514.552,870.946a1.6,1.6,0,0,0,1.291-1.356,1.342,1.342,0,0,0-1.529-1.3l-6.268.216a1.667,1.667,0,0,0-1.681,1.408,1.342,1.342,0,0,0,1.529,1.3l6.268-.217A1.919,1.919,0,0,0,1514.552,870.946Z"/><path class="cls-6" d="M1515.547,866a1.6,1.6,0,0,0,1.29-1.355,1.342,1.342,0,0,0-1.529-1.3l-6.268.216a1.668,1.668,0,0,0-1.681,1.408,1.342,1.342,0,0,0,1.53,1.3l6.268-.216A2.013,2.013,0,0,0,1515.547,866Z"/><polygon class="cls-17" points="1397.926 841.454 1396.319 870.208 1374.631 870.405 1372.729 841.206 1397.926 841.454"/><path class="cls-18" d="M1323.5,901.953l77.386-.067a10.821,10.821,0,0,0,1.014-4.3c.478-6.547-1.618-16.992-2.646-23.578-.125-.769-.231-1.488-.314-2.137a22.494,22.494,0,0,1-.233-2.69c-.005-5.375-4.763-4.45-4.763-4.45-7.824,7.686-16.7-3.823-21.875-.041,0,0-2.228,1.6-8.368,7.133s-16.584,9.19-25.475,12.919c-11.48,4.81-14.732,9.608-15.365,12.911A6.047,6.047,0,0,0,1323.5,901.953Z"/><path class="cls-19" d="M1323.5,901.953l77.386-.067a10.821,10.821,0,0,0,1.014-4.3l-79.039.067A6.047,6.047,0,0,0,1323.5,901.953Z"/><path class="cls-19" d="M1392.993,901.893l2.3,0a16.984,16.984,0,0,1-4.17-12.388c.366-7.646,4.95-12.805,8.135-15.493-.125-.769-.231-1.488-.314-2.137-3.435,2.629-9.22,8.382-9.663,17.54A18.777,18.777,0,0,0,1392.993,901.893Z"/><path class="cls-6" d="M1365.019,876.389a1.275,1.275,0,0,0,.3-2.513l-4.835-1.2a1.275,1.275,0,1,0-.612,2.476l4.835,1.2A1.3,1.3,0,0,0,1365.019,876.389Z"/><path class="cls-6" d="M1369.467,872.212a1.275,1.275,0,0,0,.3-2.513l-4.834-1.2a1.275,1.275,0,1,0-.613,2.476l4.835,1.2A1.265,1.265,0,0,0,1369.467,872.212Z"/><path class="cls-6" d="M1360.188,879.2a1.275,1.275,0,0,0,.3-2.513l-4.836-1.2a1.275,1.275,0,1,0-.612,2.475l4.835,1.2A1.216,1.216,0,0,0,1360.188,879.2Z"/><path class="cls-6" d="M1355.356,881.909a1.276,1.276,0,0,0,.3-2.514l-4.836-1.2a1.275,1.275,0,0,0-.612,2.476l4.835,1.2A1.223,1.223,0,0,0,1355.356,881.909Z"/><path class="cls-6" d="M1350.087,884.411a1.275,1.275,0,0,0,.3-2.513l-4.835-1.2a1.275,1.275,0,0,0-.612,2.476l4.835,1.2A1.255,1.255,0,0,0,1350.087,884.411Z"/><path class="cls-6" d="M1344.373,886.547a1.276,1.276,0,0,0,.3-2.514l-4.836-1.2a1.275,1.275,0,0,0-.612,2.476l4.835,1.2A1.263,1.263,0,0,0,1344.373,886.547Z"/><path class="cls-11" d="M1429.477,566.878q1.962.493,3.944.946c16.883,3.856,34.605,5.416,47.007,2.455,6.122-1.461,10.037-8.954,12.529-17.323a32.482,32.482,0,0,0,1.737-6.95c1.518-23.259-4.211-33.125-4.211-33.125l-91.3-10.185s-3.035,5.589-6.4,12.875a152.42,152.42,0,0,0-6.82,17.013l-.008.014a44.311,44.311,0,0,0-2.029,9.05C1383.2,549.936,1404.908,560.7,1429.477,566.878Z"/><path class="cls-11" d="M1534.948,830.1c-7.721.764-14.727,1.658-22.416,2.731-2.958.423-6.1.943-9.054,1.365-.715-1.8-1.885-5.526-2.682-7.574-.211-.52-.406-1.041-.617-1.577-14.744-37.549-42.556-109.379-47.936-130.494-.13-.52-.276-1.073-.406-1.642-1.155-4.681-2.455-10.6-3.82-17.344-5.868-29-12.939-73.179-14.483-99.333a119.246,119.246,0,0,1-.13-16.791,11.2,11.2,0,0,1,1.2-4.113c8.339-16.076,54.763-12.451,54.763-12.451s.179,2.536.472,6.876c1.4,21.44,7.119,85.468,9.118,105.526,2.422,24.236,7.283,32.77,7.283,32.77s9.931,22.107,16.563,63c3.983,24.642,8.339,52.162,11.151,70.14.081.552.179,1.089.26,1.625C1534.476,824.478,1534.72,828.639,1534.948,830.1Z"/><path class="cls-6" d="M1468.4,687.569a22.847,22.847,0,0,1-16.557.438,1.3,1.3,0,0,1,.993-2.4,20.615,20.615,0,0,0,15.077-.662,1.3,1.3,0,1,1,1.081,2.361C1468.8,687.4,1468.6,687.486,1468.4,687.569Z"/><path class="cls-6" d="M1500.174,825.044c.21.533.415,1.062.617,1.579l29.326-3.343,1.731-.193,2.364-.269c-.084-.529-.168-1.071-.256-1.621l-2.138.244-2.083.239Z"/><path class="cls-6" d="M1483.9,585.856a.9.9,0,0,0,.2-1.785,28.89,28.89,0,0,1-10.476-5.582c-7.042-5.788-10.941-14.066-11.59-24.605a.9.9,0,1,0-1.8.111c.85,13.822,7.167,21.74,12.315,25.948a30.108,30.108,0,0,0,11.148,5.89A.9.9,0,0,0,1483.9,585.856Z"/><path class="cls-11" d="M1417.116,643.789c-7.493,23.049-6.794,34.558-6.794,34.558s5.884,23.618-.342,64.581c-4.681,30.737-7.509,73.585-8.647,93.026-.033.585-.065,1.154-.1,1.691-.309,5.429-.455,8.631-.455,8.631l-29.974,3.267s-.244-3.511-.65-9.558c-.033-.536-.081-1.105-.114-1.674-2.162-32.152-8.1-124.642-7.591-161.573.049-4.34.195-7.916.455-10.534.2-1.934.488-4.551.894-7.721,3.56-28.608,14.938-102.243,22.92-127.389,6.323-19.9,50.812.439,50.812.439S1424.626,620.74,1417.116,643.789Z"/><path class="cls-6" d="M1379.661,669.519a22.847,22.847,0,0,1-16.505-1.373,1.3,1.3,0,0,1,1.249-2.276,20.617,20.617,0,0,0,15.059.988,1.3,1.3,0,0,1,.817,2.465Q1379.971,669.427,1379.661,669.519Z"/><path class="cls-6" d="M1401.338,835.95c-.035.59-.067,1.153-.1,1.695l-31.087,2.339c-.037-.536-.075-1.1-.115-1.677Z"/><path class="cls-6" d="M1483.339,548.57a.92.92,0,0,1,1.009.828c.093.941,9.335,94.329,13.243,130.855.706,2.109,12.442,37.347,15.876,56.234,3.083,16.956,12.741,63.408,17.323,85.32-.587.188-1.185.343-1.781.5-4.575-21.868-14.268-68.484-17.357-85.49-3.5-19.246-15.72-55.707-15.844-56.072a1.012,1.012,0,0,1-.043-.193c-3.9-36.467-13.16-130.033-13.253-130.974A.918.918,0,0,1,1483.339,548.57Z"/><path class="cls-6" d="M1433.254,562.261a.925.925,0,0,0,.43-1.743c-.141-.074-9.917-5.37-11.872-16.9a.924.924,0,1,0-1.822.309,26.568,26.568,0,0,0,12.835,18.226A.92.92,0,0,0,1433.254,562.261Z"/><path class="cls-6" d="M1395.483,837.622a.925.925,0,0,0,.844-.862c.061-.955,6.12-95.716,8.158-117.325,1.962-20.812-1.033-50.726-1.315-53.456,6.94-21.288,26.075-105.967,26.268-106.823a.924.924,0,1,0-1.8-.407c-.193.857-19.423,85.956-26.283,106.842a.925.925,0,0,0-.041.387c.034.315,3.363,31.756,1.333,53.284-2.04,21.636-8.1,116.425-8.162,117.38a.924.924,0,0,0,.863.981A1.057,1.057,0,0,0,1395.483,837.622Z"/><path class="cls-17" d="M1336.843,416.993c.1.285.216.682.321,1.033l.322,1.1.656,2.21,1.3,4.432q1.3,4.428,2.634,8.792c1.789,5.8,3.643,11.514,5.7,16.8.51,1.32,1.046,2.605,1.586,3.847s1.086,2.438,1.652,3.552,1.128,2.155,1.687,3.049a15.971,15.971,0,0,0,1.521,2.111l.148.17.126.121.06.063.047.034c.03.022.059.049.084.071.078.038.084,0-.082-.153l-.209-.16c-.1-.069-.191-.137-.287-.2-.185-.12-.412-.269-.646-.405a11.27,11.27,0,0,0-1.57-.747,11.635,11.635,0,0,0-3.779-.761,10.984,10.984,0,0,0-3.144.353,9.227,9.227,0,0,0-1.776.646,10.843,10.843,0,0,0-1.041.591c-.038.011.1-.133.29-.37.395-.48,1-1.3,1.62-2.226a77.451,77.451,0,0,0,3.895-6.726c1.313-2.475,2.568-5.111,3.828-7.79,2.506-5.373,4.893-10.988,7.256-16.655s4.656-11.433,6.959-17.207l3.445-8.677,3.446-8.587.06-.15a14.042,14.042,0,0,1,26.661,8.61c-.217.874-.4,1.639-.617,2.445l-.628,2.376c-.419,1.581-.866,3.148-1.314,4.714q-1.359,4.695-2.847,9.349-2.973,9.315-6.485,18.531-1.752,4.617-3.689,9.217c-1.278,3.077-2.652,6.137-4.091,9.219s-3,6.159-4.7,9.289c-.85,1.566-1.762,3.135-2.739,4.729s-2.029,3.214-3.219,4.886a50.322,50.322,0,0,1-4.276,5.272,35.347,35.347,0,0,1-3.123,2.962,25.7,25.7,0,0,1-4.968,3.284,21.577,21.577,0,0,1-3.994,1.518,19.481,19.481,0,0,1-5.5.651,18.443,18.443,0,0,1-6.112-1.208,18.913,18.913,0,0,1-2.648-1.254c-.408-.233-.809-.478-1.154-.715l-.533-.37-.263-.19-.125-.093-.065-.051a29.966,29.966,0,0,1-3.622-3.346l-.714-.815-.351-.411-.319-.4-.631-.8-.571-.781a43.451,43.451,0,0,1-3.551-5.966,60.574,60.574,0,0,1-2.441-5.554c-.692-1.809-1.294-3.581-1.842-5.33s-1.012-3.485-1.451-5.2a147.843,147.843,0,0,1-3.521-20.235c-.362-3.335-.614-6.663-.781-9.991-.076-1.665-.137-3.33-.161-5-.02-.834-.012-1.674-.012-2.516l.007-1.269.024-1.335a10.276,10.276,0,0,1,19.988-3.158Z"/><path class="cls-15" d="M1356.574,468.269a.658.658,0,0,1-.657-.471c-1.481-5.031-7.579-13.627-7.64-13.714a.657.657,0,1,1,1.07-.761c.255.359,6.287,8.862,7.831,14.1a.657.657,0,0,1-.445.816A.67.67,0,0,1,1356.574,468.269Z"/><path class="cls-15" d="M1357.088,460.6a.652.652,0,0,1-.446-.151h0a15.677,15.677,0,0,0-5.565-2.475.656.656,0,0,1,.333-1.27,16.549,16.549,0,0,1,6.072,2.736.656.656,0,0,1-.394,1.16Z"/><path class="cls-20" d="M1389.335,523.445c25.139.247,62.6,8.312,102.271-8-8.921-23.138-15.735-64.351-15.85-64.953a141.152,141.152,0,0,1-1.873-14.064c-.172-1.893-.323-3.857-.453-5.873-.127-1.981-.232-4.022-.314-6.1q-.12-2.94-.174-5.971c-.027-1.287-.041-2.587-.047-3.89,0-.767-.006-1.531,0-2.3,0-.133,0-.272,0-.405,0-.589,0-1.174.016-1.762.017-1.3.04-2.6.074-3.9.08-3.072.214-6.134.412-9.141,1.215-18.665-4.132-37.325-22.831-36.974-1.361.023-2.7.059-3.994.1-8.794.3-15.968.994-17.962,1.2l-.546.056-34.081,15.353-3.244,1.458a128.313,128.313,0,0,0-11.528,6.2,39.875,39.875,0,0,0-6.35,4.727c-7.014,6.636-4.918,12.721-2.974,25.046.032.212.068.423.1.638.011.069.02.143.032.212q.477,3.149.725,6.3c.2,2.352.316,4.7.388,7.007.152,4.841.1,9.53.142,13.844.015,2.09.055,4.094.144,5.982a56.1,56.1,0,0,0,.569,6.007,20.522,20.522,0,0,0,1.559,5.48,10.42,10.42,0,0,0,.908,1.58,27.491,27.491,0,0,0,2.767,3.327,40.08,40.08,0,0,0,4.927,4.287,54.945,54.945,0,0,0,7.184,4.51c.622.324.98.489.98.489.009.036.019.076.028.115.076.3.145.615.22.948.28,1.275.584,2.8.894,4.535C1391.592,480.267,1396.782,498.754,1389.335,523.445Z"/><path class="cls-21" d="M1371.419,448.238l92.1-32.624a25.662,25.662,0,0,1-7.843-3.254l-84.4,29.9C1371.29,444.346,1371.33,446.35,1371.419,448.238Z"/><path class="cls-21" d="M1373.547,459.725l99.569-35.271q-.12-2.94-.174-5.971l-100.954,35.762A20.522,20.522,0,0,0,1373.547,459.725Z"/><path class="cls-21" d="M1377.222,464.632a40.08,40.08,0,0,0,4.927,4.287l91.734-32.5c-.172-1.893-.323-3.857-.453-5.873Z"/><path class="cls-17" d="M1372.859,389.2c1.885,8.051,1.784,21.788-2.112,32.2-.171-2.1-.41-4.207-.729-6.3-.011-.07-.019-.144-.03-.213l-.1-.638C1367.94,401.926,1365.848,395.84,1372.859,389.2Z"/><path class="cls-17" d="M1437.8,392.3c6.3,15.155,25.46,27.673,35.1,22.293,0-.9,0-1.8,0-2.7,0-.588.008-1.174.017-1.766.048-4.369.206-8.759.486-13.038,1.214-18.666-4.132-37.323-22.833-36.975-1.358.025-2.7.062-3.991.106C1437.924,365.442,1430.539,374.848,1437.8,392.3Z"/><path class="cls-21" d="M1442.956,460.738a.859.859,0,0,1-.561.655.842.842,0,0,1-.438.037c-.161-.029-15.974-2.787-30.954,6.056-7.611,4.492-14.617,6.791-20.443,7.5-.073-.335-.144-.651-.218-.949-.01-.042-.019-.08-.027-.117,0,0-.359-.165-.98-.488,5.752-.528,12.906-2.771,20.793-7.424a50.438,50.438,0,0,1,32.137-6.266A.859.859,0,0,1,1442.956,460.738Z"/><path class="cls-21" d="M1400.793,423.717c-10.27,3.637-16.441-6.64-16.5-6.744a.859.859,0,1,1,1.482-.87c.229.388,5.531,9.151,14.446,5.994,9.353-3.313,24.64-24.807,24.793-25.024a.859.859,0,0,1,1.4.992C1425.776,398.968,1410.656,420.223,1400.793,423.717Z"/><path class="cls-11" d="M1395.706,370.648s-3.165,8.435-12.4,1.023c0,0-14.416,6.776-16.9-10.491,0,0-10.972-2.858-6.064-15.44,0,0-11.677-1.4-8.969-17.191,0,0-8.53-6.743-6.736-17.3,2.129-12.528,14.151-11.035,14.151-11.035s-5.5-9.742,5.237-15.649c10.307-5.67,17.226,2.783,17.226,2.783s2.168-10.2,11.738-11.084c12.743-1.178,14.093,10.4,14.093,10.4s7.931-8.2,16.324-2.356,4.173,15.9,4.173,15.9,10.436-3.176,12.857,6.763-3.141,13.384-3.141,13.384,5.809,8.2-4.864,17.359c0,0,12.038,18.026-11.151,18.857C1405.966,357.127,1395.706,370.648,1395.706,370.648Z"/><path class="cls-17" d="M1395.355,382.217c14.1,14.1,27.355-12.895,26.541-17.775a57.32,57.32,0,0,1-8.549-21.905l-24.512,17.837.908,2.351a111.592,111.592,0,0,1,3.913,11.39C1394.174,376.04,1395.019,380.114,1395.355,382.217Z"/><path class="cls-11" d="M1393.656,374.115c13.439-7.418,18.435-24.98,18.435-24.98l-22.348,13.59A111.592,111.592,0,0,1,1393.656,374.115Z"/><path class="cls-15" d="M1376.874,341.807s-4.073-6.13-9.122-3.017-.01,21.44,10.274,17.869Z"/><path class="cls-6" d="M1379.573,370.283a9.494,9.494,0,1,1,7.944-10.824A9.506,9.506,0,0,1,1379.573,370.283Zm-2.664-17.368a8.077,8.077,0,1,0,9.208,6.758A8.085,8.085,0,0,0,1376.909,352.915Z"/><path class="cls-17" d="M1414.353,344.619c-.824,8.11-17.486,21.893-26.3,20.422-5.35-.894-10.762-4.158-15.781-13.285-.027-.048-.052-.1-.079-.145-.3-.541-.578-1.073-.848-1.606-.5-.956-.948-1.9-1.358-2.807-.095-.215-.191-.427-.281-.637-.244-.567-.47-1.12-.673-1.657q-.38-.991-.657-1.892c-2.973-9.719-6.518-20.584.758-29.149s20.765-14.03,31.178-7.436c0,0,8.033,6.033,11.639,20.269S1414.95,338.762,1414.353,344.619Z"/><path class="cls-6" d="M1391.629,344.236s2.2,6.339-2.879,8.788-7.733-2.433-7.733-2.433Z"/><path class="cls-14" d="M1390.753,354.935a3.016,3.016,0,0,0,1.194-1.61.507.507,0,0,0-.981-.256,2.054,2.054,0,0,1-1.832,1.385.507.507,0,1,0,.109,1.008A3.294,3.294,0,0,0,1390.753,354.935Z"/><path class="cls-11" d="M1392.32,306.734s8.691,14.1,13.963,15.989,7.071-6.594,7.071-6.594S1398.113,295.037,1392.32,306.734Z"/><path class="cls-11" d="M1373.348,312.265s11.991,10.372,22.244,4.532.448-13.079.448-13.079S1373.35,300.666,1373.348,312.265Z"/><path class="cls-11" d="M1376.023,310.448s-1.2,17.826-12.721,17.819-.542-20.148,6.837-21.371S1376.023,310.448,1376.023,310.448Z"/><path class="cls-17" d="M1407.9,325.943s1.6-6.619,8.086-5.792,9.771,21.522-2.181,22.619Z"/><path class="cls-11" d="M1402.677,318.726s1.8,18.516,5.4,15.8,1.984-13.71,1.984-13.71Z"/><path class="cls-6" d="M1421.075,336.748c-.219.469-.3.915-.523,1.381a8.08,8.08,0,1,1-4.868,1.709c1.541-.969,1.6-1.731,1.455-2.453a9.493,9.493,0,1,0,12.9,7.379A9.637,9.637,0,0,0,1421.075,336.748Z"/><path class="cls-11" d="M1413.023,334.557a.564.564,0,0,0,.582.543.58.58,0,0,0,.121-.016.566.566,0,0,0,.422-.566,11.527,11.527,0,0,1,.8-4.18c1.4.664,2.553,1.322,2.57,1.329a.546.546,0,0,0,.419.057.574.574,0,0,0,.349-.264.567.567,0,0,0-.211-.768c-.053-.03-1.205-.688-2.642-1.371a6.867,6.867,0,0,1,2.845-2.81.562.562,0,0,0-.518-1C1412.853,328.054,1413.014,334.293,1413.023,334.557Z"/><rect class="cls-7" x="1273.147" y="408.802" width="227.165" height="182.935" transform="translate(544.512 1710.211) rotate(-74.996)"/><rect class="cls-6" x="1373.852" y="380.017" width="5.318" height="46.59" transform="translate(630.594 1628.486) rotate(-74.996)"/><rect class="cls-6" x="1471.739" y="419.333" width="5.318" height="20.431" transform="translate(677.796 1742.479) rotate(-74.996)"/><rect class="cls-6" x="1470.783" y="429.554" width="1.751" height="20.431" transform="translate(665.892 1747.408) rotate(-74.996)"/><path class="cls-6" d="M1320.9,499.257a13.541,13.541,0,1,0,9.574,16.585A13.541,13.541,0,0,0,1320.9,499.257Zm-5.628,21a8.2,8.2,0,1,1,10.042-5.8A8.2,8.2,0,0,1,1315.269,520.256Z"/><path class="cls-6" d="M1318.791,507.113a5.408,5.408,0,1,0,3.823,6.623A5.408,5.408,0,0,0,1318.791,507.113Zm-2.633,9.826a4.765,4.765,0,1,1,5.836-3.369A4.764,4.764,0,0,1,1316.158,516.939Z"/><path class="cls-6" d="M1349.894,507.029a13.541,13.541,0,1,0,9.574,16.585A13.541,13.541,0,0,0,1349.894,507.029Zm-5.628,21a8.2,8.2,0,1,1,10.042-5.8A8.2,8.2,0,0,1,1344.266,528.028Z"/><path class="cls-6" d="M1347.788,514.885a5.408,5.408,0,1,0,3.824,6.623A5.409,5.409,0,0,0,1347.788,514.885Zm-2.633,9.826a4.765,4.765,0,1,1,5.836-3.369A4.765,4.765,0,0,1,1345.155,524.711Z"/><polygon class="cls-6" points="1297.615 550.214 1297.505 549.335 1347.118 543.109 1355.687 550.009 1372.293 535.945 1378.979 543.154 1391.063 532.964 1391.633 533.641 1378.904 544.376 1372.22 537.168 1355.702 551.157 1346.856 544.034 1297.615 550.214"/><rect class="cls-6" x="1297.083" y="556.684" width="32.498" height="8.124" transform="matrix(0.259, -0.966, 0.966, 0.259, 431.699, 1684.135)"/><rect class="cls-6" x="1311.67" y="562.529" width="27.455" height="8.124" transform="translate(434.996 1700.12) rotate(-74.996)"/><rect class="cls-6" x="1322.208" y="563.096" width="33.338" height="8.124" transform="translate(444.462 1713.58) rotate(-74.997)"/><rect class="cls-6" x="1338.352" y="570.97" width="24.093" height="8.124" transform="translate(445.396 1730.544) rotate(-74.997)"/><rect class="cls-6" x="1342.661" y="563.419" width="46.785" height="8.124" transform="translate(464.268 1740.051) rotate(-74.996)"/><rect class="cls-6" x="1353.718" y="564.663" width="51.268" height="8.124" transform="translate(472.922 1753.818) rotate(-74.996)"/><rect class="cls-6" x="1305.441" y="451.471" width="80.493" height="10.584" transform="translate(556.116 1638.323) rotate(-74.996)"/><rect class="cls-6" x="1320.293" y="455.451" width="80.493" height="10.584" transform="translate(563.278 1655.618) rotate(-74.996)"/><rect class="cls-6" x="1335.144" y="459.432" width="80.493" height="10.584" transform="translate(570.44 1672.913) rotate(-74.996)"/><rect class="cls-6" x="1349.995" y="463.413" width="80.493" height="10.584" transform="translate(577.601 1690.208) rotate(-74.996)"/><rect class="cls-6" x="1364.847" y="467.393" width="80.493" height="10.584" transform="translate(584.763 1707.504) rotate(-74.996)"/><rect class="cls-6" x="1379.698" y="471.374" width="80.493" height="10.584" transform="translate(591.925 1724.799) rotate(-74.996)"/><rect class="cls-6" x="1394.549" y="475.354" width="80.493" height="10.584" transform="translate(599.107 1742.107) rotate(-74.997)"/><rect class="cls-6" x="1409.401" y="479.334" width="80.493" height="10.584" transform="translate(606.254 1759.392) rotate(-74.996)"/><rect class="cls-6" x="1424.252" y="483.315" width="80.493" height="10.584" transform="translate(613.416 1776.687) rotate(-74.996)"/><rect class="cls-6" x="1306.422" y="458.113" width="74.621" height="1.329" transform="translate(552.725 1637.93) rotate(-74.996)"/><rect class="cls-6" x="1321.393" y="462.126" width="74.621" height="1.329" transform="translate(559.942 1655.363) rotate(-74.996)"/><rect class="cls-6" x="1336.365" y="466.139" width="74.621" height="1.329" transform="translate(567.162 1672.798) rotate(-74.996)"/><rect class="cls-6" x="1351.336" y="470.151" width="74.621" height="1.329" transform="translate(574.384 1690.235) rotate(-74.996)"/><rect class="cls-6" x="1366.308" y="474.164" width="74.621" height="1.329" transform="translate(581.604 1707.67) rotate(-74.996)"/><rect class="cls-6" x="1381.279" y="478.177" width="74.621" height="1.329" transform="translate(588.821 1725.103) rotate(-74.996)"/><rect class="cls-6" x="1396.251" y="482.189" width="74.621" height="1.329" transform="translate(596.043 1742.54) rotate(-74.996)"/><rect class="cls-6" x="1411.223" y="486.202" width="74.621" height="1.329" transform="translate(603.263 1759.975) rotate(-74.996)"/><rect class="cls-6" x="1426.194" y="490.215" width="74.621" height="1.329" transform="translate(610.483 1777.41) rotate(-74.996)"/><rect class="cls-6" x="1320.289" y="474.415" width="37.2" height="4.871" transform="translate(531.672 1646.641) rotate(-74.996)"/><rect class="cls-6" x="1335.26" y="478.427" width="37.2" height="4.871" transform="translate(538.933 1664.104) rotate(-74.998)"/><rect class="cls-6" x="1354.704" y="488.268" width="25.132" height="4.871" transform="translate(539.324 1684.321) rotate(-74.996)"/><rect class="cls-6" x="1360.362" y="480.143" width="50.264" height="4.871" transform="translate(560.678 1695.903) rotate(-74.996)"/><rect class="cls-6" x="1385.39" y="460.94" width="10.502" height="4.872" transform="translate(583.053 1686.65) rotate(-74.996)"/><rect class="cls-6" x="1372.462" y="480.413" width="58.014" height="4.871" transform="translate(572.257 1711.533) rotate(-74.996)"/><rect class="cls-6" x="1395.146" y="494.478" width="37.2" height="4.871" transform="translate(567.77 1733.815) rotate(-74.996)"/><rect class="cls-6" x="1404.456" y="491.112" width="52.478" height="4.872" transform="translate(583.594 1747.7) rotate(-74.996)"/><rect class="cls-6" x="1435.242" y="467.491" width="3.569" height="4.872" transform="translate(611.102 1736.309) rotate(-74.996)"/><rect class="cls-6" x="1421.561" y="497.905" width="46.721" height="4.871" transform="translate(587.564 1766.468) rotate(-74.996)"/><rect class="cls-6" x="1440.061" y="506.516" width="37.2" height="4.871" transform="translate(589.429 1786.12) rotate(-74.996)"/><rect class="cls-6" x="1319.52" y="484.514" width="2.883" height="9.956" transform="translate(506.18 1638.697) rotate(-74.996)"/><rect class="cls-6" x="1322.602" y="473.014" width="2.883" height="9.957" transform="translate(519.571 1633.152) rotate(-74.996)"/><rect class="cls-6" x="1325.684" y="461.515" width="2.883" height="9.957" transform="matrix(0.259, -0.966, 0.966, 0.259, 532.963, 1627.607)"/><rect class="cls-6" x="1328.766" y="450.016" width="2.883" height="9.956" transform="translate(546.354 1622.061) rotate(-74.996)"/><rect class="cls-6" x="1331.848" y="438.516" width="2.883" height="9.957" transform="translate(559.746 1616.516) rotate(-74.996)"/><rect class="cls-6" x="1334.931" y="427.017" width="2.883" height="9.956" transform="translate(573.132 1610.967) rotate(-74.996)"/><rect class="cls-6" x="1338.013" y="415.517" width="2.883" height="9.957" transform="translate(586.529 1605.425) rotate(-74.996)"/><rect class="cls-6" x="1356.38" y="409.466" width="1.133" height="10.584" transform="translate(605.033 1618.067) rotate(-74.996)"/><rect class="cls-6" x="1371.231" y="413.447" width="1.133" height="10.584" transform="translate(612.194 1635.362) rotate(-74.996)"/><rect class="cls-6" x="1386.082" y="417.427" width="1.133" height="10.584" transform="translate(619.356 1652.657) rotate(-74.996)"/><rect class="cls-6" x="1400.934" y="421.407" width="1.133" height="10.584" transform="translate(626.518 1669.952) rotate(-74.996)"/><rect class="cls-6" x="1415.785" y="425.388" width="1.133" height="10.584" transform="translate(633.68 1687.247) rotate(-74.996)"/><rect class="cls-6" x="1430.636" y="429.368" width="1.133" height="10.584" transform="translate(640.842 1704.543) rotate(-74.996)"/><rect class="cls-6" x="1445.488" y="433.349" width="1.133" height="10.584" transform="translate(648.003 1721.838) rotate(-74.996)"/><rect class="cls-6" x="1460.339" y="437.329" width="1.133" height="10.584" transform="translate(655.165 1739.133) rotate(-74.996)"/><rect class="cls-6" x="1475.19" y="441.31" width="1.133" height="10.584" transform="translate(662.333 1756.431) rotate(-74.996)"/><path class="cls-17" d="M1466.172,413.245c.251-.1.612-.23.93-.347l.994-.35,2.007-.717,4.028-1.425q4.026-1.419,7.994-2.878c5.276-1.943,10.461-3.959,15.3-6.118,1.2-.544,2.395-1.079,3.539-1.643s2.254-1.135,3.315-1.7,2.061-1.158,2.973-1.744a26.329,26.329,0,0,0,2.416-1.686,10.929,10.929,0,0,0,1.428-1.334c.1-.139.178-.247.124-.231a.3.3,0,0,0-.1.094c-.01.02-.076.083-.1.128-.018.024-.034.05-.05.076l-.139.239a9.012,9.012,0,0,0-.676,1.591,9.8,9.8,0,0,0-.43,2.265,10.3,10.3,0,0,0,.108,2.472,9.845,9.845,0,0,0,.552,2.035,8.548,8.548,0,0,0,.641,1.33,7.856,7.856,0,0,0,.478.725c.249.329.34.409.287.393-.1-.04-.644-.416-1.366-.8-.738-.4-1.647-.836-2.657-1.267-2.021-.867-4.36-1.749-6.808-2.545-2.452-.811-5.017-1.588-7.639-2.313-2.617-.753-5.3-1.43-8-2.126-5.415-1.353-10.939-2.648-16.5-3.9l-8.363-1.863-8.26-1.858-.247-.055a14.047,14.047,0,0,1,3.976-27.724l1.223.078,1.161.087,2.3.188q2.292.2,4.565.454,4.552.5,9.086,1.17c6.049.895,12.1,1.969,18.172,3.329,3.044.662,6.086,1.432,9.16,2.249,3.068.846,6.161,1.764,9.3,2.837a98.491,98.491,0,0,1,9.694,3.866c1.677.789,3.408,1.677,5.23,2.752a38.7,38.7,0,0,1,5.907,4.228,28.106,28.106,0,0,1,3.4,3.536,24.07,24.07,0,0,1,1.772,2.519,22.321,22.321,0,0,1,1.65,3.3,20.761,20.761,0,0,1,1.167,4.158,19.8,19.8,0,0,1-.6,9.115,20.7,20.7,0,0,1-1.514,3.635l-.215.4-.105.187-.083.139-.335.551c-.225.356-.461.748-.69,1.066l-.7.98c-.241.333-.47.6-.71.9a31.259,31.259,0,0,1-2.849,3.045,38.778,38.778,0,0,1-5.456,4.219,60.634,60.634,0,0,1-10.065,5.177,97.44,97.44,0,0,1-9.542,3.334,145.24,145.24,0,0,1-18.606,4.1c-3.08.485-6.16.87-9.244,1.179-1.544.149-3.088.28-4.641.383-.776.052-1.556.088-2.339.127l-1.183.055-1.249.041a10.272,10.272,0,0,1-4.271-19.753Z"/><path class="cls-17" d="M1462.137,415.857s-11.757,2.673-19.188,5.11c-5.115,1.678-9.587,2.076-10.321,4.534s10.273,1.577,11.26,1.493S1462.137,415.857,1462.137,415.857Z"/><path class="cls-17" d="M1471.973,417.3c3.762,4.465,2.893,11.141-1.443,15.051a26.736,26.736,0,0,0-5.844,6.958c-2.966,5.809-3.194,14.012-6.815,17.534s-4.683,2.446-4.356-1.908,1.875-12.336,1.875-12.336-5.116,9.831-5.443,14.184-3.56,6.592-5.577,2.354,1.367-16.242,3.2-19.314c0,0-4.721,5.249-5.359,11.13s-.743,9.231-2.154,11.168-4.8-.847-3.7-9.034,2.47-12.8,4.808-16.08a43.785,43.785,0,0,0-6.539,5.563c-3.787,3.8-3.983,10.658-7.015,11.708-3.1,1.075-2.529-6.813-.267-11.02s3.55-7.461,8.269-11.339,9.362-7.42,12.744-9.063,14.642-9.066,19.964-8.034A6.7,6.7,0,0,1,1471.973,417.3Z"/><path class="cls-11" d="M1463.245,414.927s11.092,2.949,13.178,18.162c0,0,3.238,1.486,5.052-.61,0,0-2.314-16.2-13.379-19.931C1468.1,412.548,1464.323,412.446,1463.245,414.927Z"/><path class="cls-15" d="M1473.537,392.846a.655.655,0,0,1-.758.467c-.168-.032-16.906-3.307-24.239-5.35a.657.657,0,1,1,.353-1.266c7.283,2.03,23.97,5.294,24.137,5.327a.657.657,0,0,1,.519.771A.47.47,0,0,1,1473.537,392.846Z"/><path class="cls-15" d="M1453.836,388.716a.655.655,0,0,1-.323.471l-4.52,2.589a.658.658,0,0,1-.654-1.141l4.521-2.589a.657.657,0,0,1,.976.67Z"/><path class="cls-15" d="M1512.582,394.3a.659.659,0,0,1-.558.511c-4.253.546-9.236,4.852-9.286,4.9a.657.657,0,0,1-.863-.991c.215-.188,5.337-4.612,9.981-5.209a.658.658,0,0,1,.736.568A.649.649,0,0,1,1512.582,394.3Z"/><path class="cls-15" d="M1508.99,391.271a.653.653,0,0,1-.31.425c-.1.061-2.332,1.438-2.6,5.263a.657.657,0,1,1-1.311-.093c.323-4.563,3.132-6.237,3.251-6.306a.658.658,0,0,1,.97.711Z"/><path class="cls-17" d="M1315.064,419.511s-5.648-3.657-3.692-7.808,12.555-6.4,16.328-6.939-2.224,6.143-6.008,7.4-4.44,3.3-4.44,3.3Z"/><path class="cls-17" d="M1319.987,405.248s-5.648-3.657-3.692-7.807,12.554-6.4,16.327-6.94-2.223,6.144-6.007,7.4-4.441,3.3-4.441,3.3Z"/><path class="cls-17" d="M1321.512,397.972s-4.989-3.231-3.261-6.9,11.089-5.655,14.423-6.131-1.965,5.428-5.307,6.538-3.923,2.918-3.923,2.918Z"/><path class="cls-17" d="M1317.805,412.583s-5.648-3.657-3.692-7.808,12.554-6.4,16.327-6.939-2.224,6.144-6.007,7.4-4.441,3.3-4.441,3.3Z"/></g><g id="logo_left" data-name="logo left"><polygon class="cls-6" points="310.992 96.015 310.992 119.259 307.674 119.259 307.674 108.895 294.331 108.895 294.331 119.259 291.012 119.259 291.012 96.015 294.331 96.015 294.331 106.012 307.674 106.012 307.674 96.015 310.992 96.015"/><path class="cls-6" d="M331.6,110.792l-5.013-11.387-5.012,11.387Zm1.161,2.656H320.414l-2.558,5.811h-3.414l10.522-23.244h3.283L338.8,119.259h-3.484l-2.559-5.811Z"/><path class="cls-6" d="M357.693,104.115c0-3.32-2.227-5.216-6.471-5.216h-5.641v10.459h5.641C355.466,109.358,357.693,107.436,357.693,104.115Zm.1,15.144-5.012-7.139c-.463.035-.961.07-1.459.07h-5.737v7.069h-3.318V96.015h9.055c6.043,0,9.693,3.058,9.693,8.1a7.344,7.344,0,0,1-5.108,7.341l5.51,7.8h-3.624Z"/><polygon class="cls-6" points="387.925 119.259 387.89 102.324 379.498 116.437 377.97 116.437 369.578 102.42 369.578 119.259 366.39 119.259 366.39 96.015 369.115 96.015 378.808 112.356 388.361 96.015 391.086 96.015 391.121 119.259 387.933 119.259 387.925 119.259"/><path class="cls-6" d="M417.562,107.637a9.025,9.025,0,1,0-8.994,8.931A8.724,8.724,0,0,0,417.562,107.637Zm-21.368,0c0-6.807,5.24-11.884,12.374-11.884s12.313,5.051,12.313,11.884-5.24,11.884-12.313,11.884S396.194,114.444,396.194,107.637Z"/><polygon class="cls-6" points="445.943 96.015 445.943 119.259 443.218 119.259 429.281 101.922 429.281 119.259 425.963 119.259 425.963 96.015 428.688 96.015 442.625 113.352 442.625 96.015 445.943 96.015"/><polygon class="cls-6" points="461.809 111.22 461.809 119.259 458.526 119.259 458.526 111.159 449.305 96.015 452.859 96.015 460.29 108.266 467.756 96.015 471.04 96.015 461.809 111.22"/><path class="cls-6" d="M248.259,104.787a11.135,11.135,0,0,1,9.308,5.532,15.647,15.647,0,0,1,1.939,4.631c.437,1.853.244,3.793.672,5.645a7.72,7.72,0,0,0,15.3-1.494c0-4.282-3.371-7.279-7.423-7.742a12.8,12.8,0,0,1-7.309-2.788c-3.537-2.849-4.759-6.615-4.759-11.692,0-4.334-3.3-8.4-7.816-8.345s-7.641,4.011-7.641,8.336c0,5.077-1.222,8.844-4.759,11.692a12.739,12.739,0,0,1-7.309,2.788c-4.052.463-7.422,3.521-7.422,7.742a7.719,7.719,0,0,0,15.3,1.494c.428-1.852.236-3.792.672-5.645,1.24-5.243,5.545-10.145,11.248-10.171Z"/></g></g></svg>