<svg xmlns="http://www.w3.org/2000/svg" viewBox="0 0 1920 1080"><defs><style>.cls-1{fill:#0f1854;}.cls-2{opacity:0.2;}.cls-3{fill:#fff;}.cls-4{fill:#aeb8fe;}.cls-5{fill:#2d2d2d;}.cls-6{fill:#5b5b5b;}.cls-7{fill:#ffb081;}.cls-8{fill:#0075b2;}.cls-9{fill:#843208;}.cls-10{fill:#00638b;}.cls-11{fill:#fb4d3d;}.cls-12{fill:#2b45ed;}.cls-13{fill:#a0b9b8;}.cls-14,.cls-19,.cls-20{fill:none;}.cls-14{stroke:#a0b9b8;stroke-width:6.649px;}.cls-14,.cls-20{stroke-miterlimit:10;}.cls-15{fill:#0de5b2;}.cls-16{fill:#15182c;}.cls-17{fill:#f0e7d6;}.cls-18{fill:#ffa378;}.cls-20{stroke:#15182c;stroke-width:1.108px;}</style></defs><title>14- How to tabulate questionnaires and survey result data</title><g id="_14:_How_to_tabulate_questionnaires_and_survey_result_data" data-name="14: How to tabulate questionnaires and survey result data"><rect class="cls-1" width="1920" height="1080"/><g class="cls-2"><circle class="cls-3" cx="1185.857" cy="633.803" r="192.424"/><circle class="cls-3" cx="816.196" cy="299.64" r="161.64"/></g><rect class="cls-4" x="552.348" y="543.537" width="431.724" height="38.36"/><rect class="cls-4" x="969.994" y="806.162" width="431.724" height="38.36"/><rect class="cls-3" x="650.799" y="455.934" width="11.082" height="495.732"/><rect class="cls-3" x="716.631" y="455.934" width="11.082" height="495.732"/><rect class="cls-3" x="656.34" y="523.961" width="65.832" height="11.082"/><rect class="cls-3" x="656.34" y="593.681" width="65.832" height="11.082"/><rect class="cls-3" x="656.34" y="663.399" width="65.832" height="11.082"/><rect class="cls-3" x="656.34" y="733.118" width="65.832" height="11.082"/><rect class="cls-3" x="656.34" y="802.838" width="65.832" height="11.082"/><rect class="cls-3" x="656.34" y="872.557" width="65.832" height="11.082"/><path class="cls-5" d="M535.537,927.245s7.394,14.273,12.188,16.634,9.178,14.962-4.941,9.648-19.856-11.1-19.856-11.1-3.5,2.345-6.461-.06-3.205-15.688,3.716-19.438S535.537,927.245,535.537,927.245Z"/><path class="cls-6" d="M561.9,781.438s-6.2,22.164-4.762,29.367,2.273,42.458,2.273,42.458-19.675,5.195-36.852,68.362l14.455,8.319s48.24-72.455,49.584-76.681,8.547-71.825,8.547-71.825Z"/><path class="cls-5" d="M605.514,932.065s13.268,9.075,18.609,8.886,15.165,8.837.213,10.837-22.743-.379-22.743-.379-1.97,3.721-5.72,3-10.248-12.3-5.925-18.882S605.514,932.065,605.514,932.065Z"/><path class="cls-6" d="M602.055,776.039l3.431,157.448-15.538,2.045s-21.106-66.873-10.148-79.35c0,0-22.579-32.375-22.559-52.733s1.674-26.6,1.674-26.6Z"/><rect class="cls-7" x="581.469" y="677.658" width="9.779" height="19.344"/><path class="cls-7" d="M606.931,659.277c0,14.068-8.527,25.473-15.543,25.473-7.232,0-22.451-11.4-22.451-25.473s-.864-25.474,19-25.474C608.874,633.8,606.931,645.208,606.931,659.277Z"/><path class="cls-7" d="M653.142,704.6s11.274-18.245,12.761-17.591-3.944,10.633-3.944,10.633,11-11.632,13.122-10.757,7.62,6.475,2.015,12.4-19.333,13.045-19.333,13.045Z"/><path class="cls-8" d="M654.739,700.223,625.291,725.96s-11.047-17.224-14.757-27.061c-2.747-7.282-10.369-7.111-13.82-7.57a17.452,17.452,0,0,0-5.377.113h0a4.874,4.874,0,0,1-7.875,1.771l-1.884-1.771a39.2,39.2,0,0,0-6.6.356c-6.617.9-15.023,3.2-19.766,12.127-7.078,13.32,2.033,80.035,2.033,80.035H602.8l-.125-63.179s12.548,25.364,18.422,25.364,41.545-35.42,41.545-35.42Z"/><path class="cls-9" d="M583.962,630.9s12.468-3.51,18.563,1.477a29.4,29.4,0,0,0,13.852,5.818s-18.285,10.471-31.029,8.283l-6.1,6.678,2.217,7.48s-5.264-9.142-6.926-3.324,4.709,11.177,4.709,11.177l2.217,12.168s-15.238-7-14.961-28.055S578.7,628.589,583.962,630.9Z"/><path class="cls-10" d="M581.469,759.427s-27.945-39.323-26.1-48.68,15.876-9.53,15.876-9.53l4.307,1.332,19.592,38.468,7.585,4.432.042,21.612Z"/><path class="cls-8" d="M571.242,701.217,594.6,743.128l40.412,19.017-4.277,12.479s-45.277-14.4-48.655-18.038-23.657-41.508-23.657-41.508S556.172,699.432,571.242,701.217Z"/><path class="cls-11" d="M702.458,654.332s-7.968,4.841-13.214,18.7l3.682,1.719,3.682,1.719C703.862,663.548,702.458,654.332,702.458,654.332Z"/><polygon class="cls-7" points="694.942 684.838 699.86 674.305 694.337 671.727 688.814 669.148 683.896 679.681 674.05 682.435 669.127 692.979 681.679 698.839 694.231 704.699 699.154 694.155 694.942 684.838"/><path class="cls-9" d="M555.559,913.919h33.246a0,0,0,0,1,0,0v31.409a7.5,7.5,0,0,1-7.5,7.5H563.059a7.5,7.5,0,0,1-7.5-7.5V913.919a0,0,0,0,1,0,0Z" transform="translate(448.571 -154.422) rotate(25.026)"/><rect class="cls-11" x="611.742" y="684.27" width="33.246" height="257.53" transform="translate(402.938 -189.487) rotate(25.026)"/><rect class="cls-3" x="624.724" y="684.27" width="7.281" height="257.53" transform="translate(402.938 -189.487) rotate(25.026)"/><path class="cls-7" d="M630.219,764.15s20.6-5.97,21.263-4.486-10.057,5.24-10.057,5.24,15.958-1.251,16.948.823,1.308,9.915-6.822,10.546-23.089-3.293-23.089-3.293Z"/><rect class="cls-12" x="749.504" y="352.872" width="432.196" height="599.903" rx="26.387" ry="26.387"/><rect class="cls-3" x="785.336" y="368.387" width="360.533" height="562.963" rx="20.795" ry="20.795"/><polygon class="cls-13" points="1063.678 849.159 1145.869 849.159 1104.774 890.254 1063.678 931.35 1063.678 849.159"/><rect class="cls-11" x="883.458" y="442.636" width="164.29" height="11.082"/><rect class="cls-11" x="834.374" y="849.159" width="97.244" height="11.082"/><rect class="cls-14" x="1043.638" y="504.695" width="53.193" height="53.193"/><rect class="cls-13" x="834.374" y="504.695" width="164.29" height="9.171"/><rect class="cls-13" x="834.374" y="526.706" width="164.29" height="9.171"/><rect class="cls-13" x="834.374" y="548.717" width="73.787" height="9.171"/><rect class="cls-14" x="1043.638" y="586.548" width="53.193" height="53.193"/><rect class="cls-13" x="834.374" y="586.548" width="164.29" height="9.171"/><rect class="cls-13" x="834.374" y="608.559" width="164.29" height="9.171"/><rect class="cls-13" x="834.374" y="630.57" width="73.787" height="9.171"/><rect class="cls-14" x="1043.638" y="668.402" width="53.193" height="53.193"/><rect class="cls-13" x="834.374" y="668.402" width="164.29" height="9.171"/><rect class="cls-13" x="834.374" y="690.413" width="164.29" height="9.171"/><rect class="cls-13" x="834.374" y="712.424" width="73.787" height="9.171"/><rect class="cls-14" x="1043.638" y="750.256" width="53.193" height="53.193"/><rect class="cls-13" x="834.374" y="750.256" width="164.29" height="9.171"/><rect class="cls-13" x="834.374" y="772.267" width="164.29" height="9.171"/><rect class="cls-13" x="834.374" y="794.278" width="73.787" height="9.171"/><polygon class="cls-11" points="1062.419 549.218 1032.364 529.646 1037.821 521.266 1060.899 536.294 1101.147 493.901 1108.399 500.786 1062.419 549.218"/><polygon class="cls-11" points="1062.419 630.502 1032.364 610.93 1037.821 602.551 1060.899 617.578 1101.147 575.185 1108.399 582.069 1062.419 630.502"/><path class="cls-15" d="M1405.5,588.035c0-28.766-34.954-52.086-78.071-52.086s-78.072,23.32-78.072,52.086c0,22.86,22.083,42.267,52.786,49.278L1274,666.719l55.938-26.639C1371.889,639.2,1405.5,616.241,1405.5,588.035Z"/><path class="cls-3" d="M1322.984,612.268,1302.148,598.7a5.541,5.541,0,0,1,6.047-9.287l13.106,8.534,24.365-25.665a5.541,5.541,0,0,1,8.037,7.631Z"/><path class="cls-3" d="M1322.954,436.472l-3.223-3.043a112.459,112.459,0,0,0,8.376-9.984l3.555,2.65A117.393,117.393,0,0,1,1322.954,436.472Zm16.179-21.66-3.822-2.244a127.091,127.091,0,0,0,6.013-11.6l4.034,1.837A130.827,130.827,0,0,1,1339.133,414.812Zm11.218-24.554-4.194-1.439c1.4-4.071,2.635-8.3,3.677-12.566l4.307,1.052C1353.066,381.7,1351.791,386.06,1350.351,390.258Zm6.414-26.182-4.381-.675c.659-4.282,1.147-8.666,1.45-13.029l4.422.306C1357.945,355.165,1357.443,359.672,1356.765,364.076Zm-2.56-26.812c-.023-1.81-.077-3.633-.16-5.417-.115-2.509-.332-5.068-.644-7.608l4.4-.54c.325,2.651.551,5.323.671,7.943.085,1.833.14,3.706.164,5.565Zm-113.657-23.48h-.013a34.924,34.924,0,0,1-9.565-1.331l1.215-4.263a30.5,30.5,0,0,0,8.351,1.162h.011a29.956,29.956,0,0,0,3.912-.256l.58,4.394A34.273,34.273,0,0,1,1240.548,313.784Zm110.473-2.352a111.138,111.138,0,0,0-3.893-12.44l4.146-1.57a115.964,115.964,0,0,1,4.048,12.938Zm-92.68-2.516-2.194-3.853a39.447,39.447,0,0,0,9.739-7.9l3.289,2.972A43.905,43.905,0,0,1,1258.341,308.916Zm-39.833-3.234a27.869,27.869,0,0,1-3.528-3.818,28.89,28.89,0,0,1-4.309-8.1l4.189-1.447a24.42,24.42,0,0,0,3.646,6.858,23.421,23.421,0,0,0,2.965,3.209Zm58.389-17.054-3.968-1.974a62.723,62.723,0,0,0,4.558-11.981l4.289,1.122A67.118,67.118,0,0,1,1276.9,288.628Zm64.914-1.535a108.544,108.544,0,0,0-6.68-11.176l3.66-2.5a113.04,113.04,0,0,1,6.953,11.634Zm-128.374-6.979-4.418-.371a38.071,38.071,0,0,1,3.753-13.537l3.975,1.963A33.583,33.583,0,0,0,1213.437,280.114Zm113.7-14.442a92.192,92.192,0,0,0-9.284-9.062l2.859-3.386a96.39,96.39,0,0,1,9.733,9.5Zm-48-3.579a45.381,45.381,0,0,0-1.8-12.491l4.258-1.233a49.794,49.794,0,0,1,1.972,13.71Zm-55.091-4.144-3.186-3.083a57.627,57.627,0,0,1,10.764-8.635l2.357,3.754A53.178,53.178,0,0,0,1224.046,257.949Zm83.306-8.892a73.24,73.24,0,0,0-11.559-5.674l1.588-4.139a77.6,77.6,0,0,1,12.262,6.018Zm-385.945-2L917.79,244.5a85.269,85.269,0,0,1,8.758-10.451l3.161,3.108A80.872,80.872,0,0,0,921.407,247.057Zm324.095-2.821-1.635-4.121a81.938,81.938,0,0,1,13.062-3.979l.924,4.335A77.462,77.462,0,0,0,1245.5,244.236Zm37.917-4.3a65.17,65.17,0,0,0-12.793-.975l-.082-3.728a66.947,66.947,0,0,0-5.916-7.58l3.3-2.965a69.885,69.885,0,0,1,7.477,9.9,69.616,69.616,0,0,1,8.79.979ZM939.45,228.594l-2.688-3.526a113.7,113.7,0,0,1,11.265-7.533l2.246,3.821A109.34,109.34,0,0,0,939.45,228.594Zm315.775-9.834a106.829,106.829,0,0,0-10.6-7.568l2.357-3.754a111.068,111.068,0,0,1,11.04,7.885Zm-293.359-3.452L960,211.286c3.9-1.806,8.079-3.545,12.435-5.169l1.548,4.153C969.736,211.855,965.659,213.55,961.866,215.308Zm24.594-9.247-1.3-4.24c4.045-1.237,8.389-2.451,12.908-3.61l1.1,4.294C994.72,203.647,990.441,204.843,986.46,206.061Zm246.746-1.229c-3.857-1.9-7.9-3.661-12.006-5.231l1.582-4.141c4.238,1.62,8.4,3.435,12.383,5.395Zm-221.163-5.413-.979-4.323c4.313-.975,8.706-1.912,13.056-2.786l.872,4.346C1020.677,197.522,1016.32,198.452,1012.043,199.419Zm196.72-3.94c-4.283-1.207-8.573-2.2-12.75-2.944l.779-4.363c4.32.771,8.752,1.794,13.174,3.04Zm-170.755-1.268-.766-4.366c4.375-.766,8.81-1.487,13.18-2.141l.656,4.384C1046.744,192.737,1042.347,193.452,1038.008,194.211Zm144.952-3.751c-4.308-.607-8.723-1.153-13.122-1.622l.469-4.408c4.45.474,8.916,1.026,13.272,1.64Zm-118.763-.168-.545-4.4c4.42-.548,8.886-1.043,13.273-1.473l.431,4.412C1073.008,189.257,1068.58,189.749,1064.2,190.292Zm26.353-2.578-.317-4.422c4.443-.317,8.929-.577,13.336-.771l.2,4.428C1099.4,187.142,1094.952,187.4,1090.55,187.714Zm66.114-.062c-4.352-.321-8.8-.579-13.206-.767l.188-4.428c4.457.189,8.947.449,13.344.774Zm-39.667-1.1-.072-4.432q6.684-.109,13.362-.027l-.055,4.433Q1123.62,186.44,1117,186.548Z"/><polygon class="cls-3" points="1327.462 475.453 1269.414 516.057 1304.098 438.566 1327.462 475.453"/><polygon class="cls-12" points="1278.503 424.548 1269.414 516.057 1304.098 438.566 1278.503 424.548"/><polygon class="cls-12" points="1316.033 445.103 1269.414 516.057 1341.628 459.121 1316.033 445.103"/><path class="cls-16" d="M1237.175,640.818s16-1.293,21.73,9.05,3.694,21.795,1.293,28.629-6.637,17.129,2.407,15.306c0,0-1.442,6.253-19.471,6.253s-21.907-6.253-21.907-6.253,6.095,1.5,4.248-8.288a201.191,201.191,0,0,0-6.074-22.282S1214.153,642.3,1237.175,640.818Z"/><path class="cls-7" d="M1219.445,670c0,13.145,7.967,23.8,14.523,23.8,6.757,0,20.977-10.656,20.977-23.8s.807-23.8-17.75-23.8C1217.63,646.2,1219.445,656.856,1219.445,670Z"/><polygon class="cls-7" points="1233.315 715.578 1243.134 715.578 1243.134 689.496 1234.479 689.496 1233.315 715.578"/><path class="cls-7" d="M1140.77,706.828s-12.474-12.6-13.55-11.792,5.155,7.829,5.155,7.829-11.02-7.322-12.57-6.222-4.932,6.633.684,10.359,18,6.909,18,6.909Z"/><path class="cls-8" d="M1223.42,727.469l3.742,38.168h27.788s12.364-38.75,10.5-52.72c-1.191-8.923-9.961-11.691-16.144-12.529l-12.128,18.849-3.161-4.989-5.024,3.825V699.95c-3.224.429-5.108,1.265-9.861,4.22l-32.88,21.12-45.756-19.08-3.952,9.368,48.113,23.536a8.6,8.6,0,0,0,6.792.328l31.973-11.973"/><path class="cls-17" d="M1234.015,714.248l9.119-14.192a36.666,36.666,0,0,1,6.17.332l-12.128,18.849Z"/><path class="cls-17" d="M1228.991,699.95a16.33,16.33,0,0,1,5.024.106v14.192l-5.024,3.825Z"/><path class="cls-5" d="M1265.844,934.79s-7.846,11.5-10.376,15.575.576,6.873,9.947,1.422c2.707-1.575,8.221-10.4,8.221-10.4l3.1,7.055.719-.255s.156-14.547-4.559-15.886Z"/><path class="cls-18" d="M1242.687,864.656c5.12-1.81,9.037-6.33,12.741.787a88.083,88.083,0,0,1,10.811,30.575c2.852,18.043,6.654,36.279,6.654,36.279s-5.6,8.789-10.351,11.069,3.3-8.577,3.3-8.577-18.03-47.6-21.711-53.71S1237.568,866.467,1242.687,864.656Z"/><path class="cls-5" d="M1229.906,936.768s-11.233,8.232-14.975,11.226-1.748,6.672,8.9,4.656c3.076-.582,11.219-7.068,11.219-7.068l.568,7.684h.762s5-13.664,1-16.5Z"/><path class="cls-7" d="M1229.906,936.768s-1.13-50.89-2.564-57.875-1.319-15.966,4.112-15.966,10.629-2.956,11.75,4.989a88.1,88.1,0,0,1,0,32.431c-3.326,17.961-5.821,36.421-5.821,36.421s-8.21,6.419-13.449,6.985S1229.906,936.768,1229.906,936.768Z"/><path class="cls-6" d="M1254.95,765.637s12.126,7.412,12.791,34.093-9.313,68.186-9.313,68.186H1225.5s-4.571-84.413,1.663-102.279Z"/><path class="cls-10" d="M1225.475,733.05,1220.812,735s-3.508-14.227,3.978-19.424l-.169,9.712Z"/><path class="cls-8" d="M1224.79,715.578s-10.042,19.512-.254,23.279l4.455-5.026Z"/><path class="cls-16" d="M1238.942,700.056s11.836-33.565,7.935-34.492c-14.994-3.564-20.339-12.684-20.339-12.684l-7.137,10.353c-1.938-16.34,9.928-19.857,19-20.26s13.716,3.631,18.557,10.892S1247,699.95,1247,699.95Z"/><rect class="cls-12" x="1185.857" y="720.423" width="21.341" height="34.333"/><polygon class="cls-10" points="1253.368 714.704 1254.95 740.541 1224.701 740.541 1226.095 754.757 1257.44 757.342 1261.86 727.217 1253.368 714.704"/><path class="cls-19" d="M1208.132,738.462s-.408-.8-.934-1.914v.895C1207.772,738.062,1208.132,738.462,1208.132,738.462Z"/><path class="cls-7" d="M1215.269,744.4s-5.038-8.646-8.071-12.73v4.878c.526,1.115.934,1.914.934,1.914s-.36-.4-.934-1.019v10.139c4.323,2.432,8.071,4.24,8.071,4.24Z"/><path class="cls-7" d="M1197.519,729.292c-1.775.677-6.435,5.188-1.93,10.2,2.267,2.522,7.232,5.626,11.609,8.089V737.443C1204.885,734.95,1198.941,728.75,1197.519,729.292Z"/><path class="cls-8" d="M1264.823,709.881l6.128,38.629a6.329,6.329,0,0,1-6.706,7.305l-52.616-3.8,2.385-10.239,42.335.6-2.981-27.673S1255.409,702.427,1264.823,709.881Z"/><path class="cls-13" d="M1204.874,719.237s1.484-.2,1.484,1.186h-2.4Z"/><path class="cls-3" d="M1185.193,719.237h19.68a0,0,0,0,1,0,0v33.694a0,0,0,0,1,0,0h-20.125a0,0,0,0,1,0,0V719.682A.445.445,0,0,1,1185.193,719.237Z"/><path class="cls-3" d="M1204.874,720.423s.105-1.1.933-1.022c0,0,.066-.184-1.388-.174S1204.874,720.423,1204.874,720.423Z"/><circle class="cls-20" cx="1220.335" cy="671.501" r="6.149"/><circle class="cls-20" cx="1235.491" cy="671.501" r="6.149"/><path class="cls-20" d="M1226.484,671.5s1.3-2.411,2.858,0"/><line class="cls-20" x1="1241.542" y1="670.429" x2="1248.82" y2="669.847"/><polygon class="cls-3" points="661.085 275.943 719.823 236.343 635.046 240.893 661.085 275.943"/><polygon class="cls-12" points="631.152 211.971 719.823 236.343 635.046 240.892 631.152 211.971"/><polygon class="cls-12" points="636.862 254.379 719.823 236.343 640.756 283.3 636.862 254.379"/><path class="cls-3" d="M602.36,449.371a60.175,60.175,0,0,1-7.5-8.7l3.61-2.573a55.621,55.621,0,0,0,6.941,8.06Zm-14.439-20.439c-1.758-3.532-3.477-7.432-5.406-12.27l4.084-1.725.048.121c1.869,4.685,3.539,8.478,5.242,11.9Zm-10.1-24.9c-1.478-4.313-2.825-8.623-4-12.811l4.267-1.2c1.155,4.108,2.476,8.338,3.929,12.572ZM570.6,378.17c-.947-4.457-1.727-8.918-2.319-13.256l4.391-.6c.579,4.232,1.34,8.584,2.264,12.936ZM567,351.5c-.142-2.674-.214-5.359-.214-7.981q0-1.622.036-3.245.025-1.134.07-2.271l4.43.173q-.043,1.1-.068,2.2-.034,1.574-.035,3.145c0,2.544.07,5.15.207,7.746Zm5.493-26.341-4.389-.622a127.391,127.391,0,0,1,2.6-13.275l4.3,1.085A123.091,123.091,0,0,0,572.491,325.156ZM578.9,299.9l-4.146-1.567a109.843,109.843,0,0,1,5.561-12.371l3.921,2.067A105.794,105.794,0,0,0,578.9,299.9Zm12.143-22.932-3.607-2.576c1.768-2.477,3.66-4.876,5.622-7.134,1.022-1.175,2.073-2.3,3.124-3.35l3.13,3.138c-.977.974-1.955,2.024-2.909,3.12C594.533,272.32,592.729,274.608,591.043,276.97Zm18.307-17.462-2.009-3.952a25.281,25.281,0,0,1,14.049-2.934l-.427,4.412A20.913,20.913,0,0,0,609.35,259.508Z"/><rect class="cls-7" x="801.821" y="260.912" width="9.779" height="19.344"/><path class="cls-8" d="M824.745,352.872l1.64-14.776,13.026,14.776H860.75l-19.989-24.381-9.876-46.338c-2.746-7.282-10.368-7.111-13.819-7.571a17.489,17.489,0,0,0-5.377.113,4.874,4.874,0,0,1-7.876,1.771l-1.884-1.771a39.189,39.189,0,0,0-6.6.356c-6.618.9-15.023,3.2-19.766,12.127-4.992,9.393-1.933,45.315.3,65.694Z"/><path class="cls-7" d="M832.382,253.4c-4.168,13.438-15.69,21.8-22.391,19.726-6.908-2.142-18.066-17.543-13.9-30.98s6.721-24.586,25.69-18.7C841.783,229.644,836.549,239.961,832.382,253.4Z"/><path class="cls-10" d="M825.786,343.493,805.715,325.62,798.9,282.991l-3.689-2.592s-9.945-3.062-15.66,1.42a20.928,20.928,0,0,0-2.394,2.807c-4.57,8.43,9.89,54.308,9.89,54.308l16.2,13.938h21.5Z"/><path class="cls-7" d="M832.843,356.844s20.348,6.775,20.053,8.373-11.254-1.393-11.254-1.393,13.849,8.026,13.487,10.3-4.549,8.906-11.6,4.812-17.143-15.814-17.143-15.814Z"/><path class="cls-8" d="M795.209,280.4l9.343,47.063,32.608,30.52-7.906,10.559S790.6,340.921,788.5,336.419s-9.751-46.771-9.751-46.771S781.417,274.068,795.209,280.4Z"/><polygon class="cls-10" points="826.385 338.096 825.786 293.306 828.423 340.407 826.385 338.096"/><path class="cls-16" d="M822.022,230.592s9.284,3.149,6.3,12.014l10.265,2.771s9.359-28.074-19.639-26.227c0,0-12.559-6.1-19.024.738s-13.092,27.61-1.888,40.284l1.519-9.993s-4.8-4.8-2.032-7.942a4.8,4.8,0,0,1,6.1-1.108l1.663-4.248S818.513,236.5,822.022,230.592Z"/></g><g id="logo_left" data-name="logo left"><polygon class="cls-3" points="310.992 96.015 310.992 119.259 307.674 119.259 307.674 108.895 294.331 108.895 294.331 119.259 291.012 119.259 291.012 96.015 294.331 96.015 294.331 106.012 307.674 106.012 307.674 96.015 310.992 96.015"/><path class="cls-3" d="M331.6,110.792l-5.013-11.387-5.012,11.387Zm1.161,2.656H320.414l-2.558,5.811h-3.414l10.522-23.244h3.283L338.8,119.259h-3.484l-2.559-5.811Z"/><path class="cls-3" d="M357.693,104.115c0-3.32-2.227-5.216-6.471-5.216h-5.641v10.459h5.641C355.466,109.358,357.693,107.436,357.693,104.115Zm.1,15.144-5.012-7.139c-.463.035-.961.07-1.459.07h-5.737v7.069h-3.318V96.015h9.055c6.043,0,9.693,3.058,9.693,8.1a7.344,7.344,0,0,1-5.108,7.341l5.51,7.8h-3.624Z"/><polygon class="cls-3" points="387.925 119.259 387.89 102.324 379.498 116.437 377.97 116.437 369.578 102.42 369.578 119.259 366.39 119.259 366.39 96.015 369.115 96.015 378.808 112.356 388.361 96.015 391.086 96.015 391.121 119.259 387.933 119.259 387.925 119.259"/><path class="cls-3" d="M417.562,107.637a9.025,9.025,0,1,0-8.994,8.931A8.724,8.724,0,0,0,417.562,107.637Zm-21.368,0c0-6.807,5.24-11.884,12.374-11.884s12.313,5.051,12.313,11.884-5.24,11.884-12.313,11.884S396.194,114.444,396.194,107.637Z"/><polygon class="cls-3" points="445.943 96.015 445.943 119.259 443.218 119.259 429.281 101.922 429.281 119.259 425.963 119.259 425.963 96.015 428.688 96.015 442.625 113.352 442.625 96.015 445.943 96.015"/><polygon class="cls-3" points="461.809 111.22 461.809 119.259 458.526 119.259 458.526 111.159 449.305 96.015 452.859 96.015 460.29 108.266 467.756 96.015 471.04 96.015 461.809 111.22"/><path class="cls-3" d="M248.259,104.787a11.135,11.135,0,0,1,9.308,5.532,15.647,15.647,0,0,1,1.939,4.631c.437,1.853.244,3.793.672,5.645a7.72,7.72,0,0,0,15.3-1.494c0-4.282-3.371-7.279-7.423-7.742a12.8,12.8,0,0,1-7.309-2.788c-3.537-2.849-4.759-6.615-4.759-11.692,0-4.334-3.3-8.4-7.816-8.345s-7.641,4.011-7.641,8.336c0,5.077-1.222,8.844-4.759,11.692a12.739,12.739,0,0,1-7.309,2.788c-4.052.463-7.422,3.521-7.422,7.742a7.719,7.719,0,0,0,15.3,1.494c.428-1.852.236-3.792.672-5.645,1.24-5.243,5.545-10.145,11.248-10.171Z"/></g></svg>