<svg xmlns="http://www.w3.org/2000/svg" xmlns:xlink="http://www.w3.org/1999/xlink" viewBox="0 0 1920 1080"><defs><style>.cls-1{fill:#86a7d7;}.cls-2{fill:#0f1854;}.cls-3{isolation:isolate;}.cls-4{fill:#0de5b2;}.cls-5{fill:#fff;}.cls-6{fill:#eceffb;}.cls-7{fill:#2b45ed;}.cls-8{fill:#ffd2b5;}.cls-9{fill:#79bbfc;}.cls-10{fill:#111470;}.cls-11{fill:#dbe2ff;}.cls-12{fill:#97cafc;}.cls-13{fill:#7b70ff;}.cls-14{fill:#574cf2;}.cls-15{fill:#c2ceff;}.cls-16{fill:#685ef8;}.cls-17{fill:#c2dffc;}.cls-18{fill:#9acbfc;}.cls-19{fill:#ffc198;}.cls-20{fill:#aeb8fe;}.cls-21{fill:#ffe4d1;}.cls-22{fill:#ffd8bd;}.cls-23{clip-path:url(#clip-path);}.cls-24{fill:none;}.cls-25{fill:#5559f7;}.cls-26{fill:#293874;}.cls-27{fill:#4139e8;}.cls-28{fill:#c3c4c5;}.cls-29{fill:#dcdddf;}</style><clipPath id="clip-path"><polygon class="cls-1" points="758.373 716.134 787.552 699.177 808.494 711.268 779.315 728.225 758.373 716.134"/></clipPath></defs><title>15- Data harmonisation in public sector - X applications</title><g id="_15:_Data_harmonisation_in_public_sector_-_X_applications" data-name="15: Data harmonisation in public sector - X applications"><rect class="cls-2" width="1920" height="1080"/><g class="cls-3"><polygon class="cls-4" points="1250.159 206.808 1249.463 452.19 1241.55 456.789 1242.245 211.407 1250.159 206.808"/><path class="cls-4" d="M1250.159,206.808l-7.914,4.6c-166.795-72.262-397.763-72.273-563.743-.01l-7.965-4.6C840.974,132.094,1078.881,132.08,1250.159,206.808Z"/><path class="cls-5" d="M1242.245,211.407l-.695,245.382c-166.795-72.261-397.763-72.273-563.744-.009l.7-245.383C844.482,139.134,1075.45,139.145,1242.245,211.407Z"/><polygon class="cls-4" points="678.502 211.397 677.806 456.78 669.841 452.181 670.537 206.798 678.502 211.397"/></g><path class="cls-6" d="M1190.805,260.285a711.752,711.752,0,0,0-136.3-29.411v14.577a711.675,711.675,0,0,1,136.3,29.41Z"/><path class="cls-7" d="M1054.508,192.5v24.61a711.752,711.752,0,0,1,136.3,29.411V221.912A711.675,711.675,0,0,0,1054.508,192.5Z"/><path class="cls-6" d="M1190.805,288.623a711.675,711.675,0,0,0-136.3-29.41V273.79a711.675,711.675,0,0,1,136.3,29.41Z"/><path class="cls-6" d="M1190.805,316.962a711.752,711.752,0,0,0-136.3-29.411v14.577a711.827,711.827,0,0,1,136.3,29.41Z"/><path class="cls-6" d="M1190.805,345.3a711.676,711.676,0,0,0-136.3-29.411v14.577a711.675,711.675,0,0,1,136.3,29.41Z"/><path class="cls-6" d="M1190.805,373.639a711.752,711.752,0,0,0-136.3-29.411v14.577a711.752,711.752,0,0,1,136.3,29.411Z"/><path class="cls-7" d="M1028.2,188.482a813.494,813.494,0,0,0-147.807,2.9V364.921a813.581,813.581,0,0,1,147.807-2.9Z"/><path class="cls-5" d="M887.087,197.385a799.772,799.772,0,0,1,82.841-4.279c17.132,0,34.456.549,51.585,1.632V354.872c-17.132-1.065-34.447-1.6-51.579-1.6a814.041,814.041,0,0,0-82.847,4.205Z"/><path class="cls-6" d="M964.7,312.938,923.451,268.4l-36.364,43.57v45.5a814.041,814.041,0,0,1,82.847-4.205c17.132,0,34.447.539,51.579,1.6V268.538Z"/><circle class="cls-7" cx="983.297" cy="233.515" r="24.067"/><path class="cls-8" d="M1165.905,435.766a7.674,7.674,0,0,1,3.043-3.156c.021-.011.029-.028.048-.039.976.359,1.91.741,1.936.721,6.067,2.642,6.469,3.407,9.4,8.573,0,.006,0,.018,0,.026a23.646,23.646,0,0,0,1.186,2.1c.634.83-.739,1.7-1.369.872-.055-.072-.1-.15-.147-.225.7,1.246-.768,2.044-1.719.81.248.777-.808,1.147-1.437-.069a8.142,8.142,0,0,0-2.276-3.107c-.059-.043-1.091-.61-1.15-.647.01.056,1.161,1.518,1.058,2.265-.109.794-.925,1.219-1.284.449-.114-.243-.251-.462-.381-.686a8.257,8.257,0,0,0-1.734-1.454,5.894,5.894,0,0,1-1.875-1.724A23.817,23.817,0,0,0,1165.905,435.766Z"/><path class="cls-9" d="M1105.885,553.561c3.1.8,23.728-6.271,25.383-1.895,1.451,3.835-3.821,7.383-6.639,8.066-6.149,1.49-10.7,4.556-13.169,5.076-1.841.388-4.223.643-5.689-.8C1104.012,562.268,1104.165,555.847,1105.885,553.561Z"/><path class="cls-5" d="M1111.46,563.745c2.47-.519,7.02-3.586,13.169-5.076,2.361-.571,6.428-3.155,6.839-6.233.547,3.53-4.211,6.659-6.839,7.3-6.149,1.49-10.7,4.556-13.169,5.076-1.841.388-4.223.643-5.689-.8a3.61,3.61,0,0,1-.807-1.469A7.368,7.368,0,0,0,1111.46,563.745Z"/><path class="cls-5" d="M1124.675,550.191a5.872,5.872,0,0,1,2.962,3.5c.144.689-.913.983-1.058.291a4.743,4.743,0,0,0-3.472-3.394A1.443,1.443,0,0,1,1124.675,550.191Z"/><path class="cls-5" d="M1121.861,550.6a6.052,6.052,0,0,1,3.008,3.558c.144.688-.913.982-1.058.291a4.743,4.743,0,0,0-3.472-3.395A1.4,1.4,0,0,1,1121.861,550.6Z"/><path class="cls-5" d="M1119.077,551.142a5.737,5.737,0,0,1,3.036,3.542c.145.688-.912.983-1.057.291a4.744,4.744,0,0,0-3.473-3.394A1.346,1.346,0,0,1,1119.077,551.142Z"/><path class="cls-8" d="M1110.651,554.568a6.074,6.074,0,0,0,3.862-1.25c.237-7.282,1.55-40.643,6.176-60.478,2.162-9.263,4.987-32.433,5.031-53.474h-20.048c.233,1.893.486,3.826.747,5.791,1.833,13.847,3.906,29.539-.349,47.506-3.5,14.764-.844,52.127-.161,60.82A12.523,12.523,0,0,0,1110.651,554.568Z"/><path class="cls-9" d="M1127.08,565.465c3.1.8,23.728-6.27,25.384-1.894,1.451,3.835-3.822,7.383-6.64,8.065-6.149,1.49-10.7,4.557-13.169,5.076-1.841.388-4.223.643-5.689-.8C1125.207,574.173,1125.36,567.752,1127.08,565.465Z"/><path class="cls-5" d="M1132.655,575.65c2.47-.52,7.02-3.586,13.169-5.076,2.361-.572,6.429-3.156,6.839-6.233.548,3.529-4.21,6.659-6.839,7.295-6.149,1.49-10.7,4.557-13.169,5.076-1.841.388-4.223.643-5.689-.8a3.6,3.6,0,0,1-.806-1.468A7.369,7.369,0,0,0,1132.655,575.65Z"/><path class="cls-5" d="M1145.87,562.1a5.867,5.867,0,0,1,2.962,3.5c.144.689-.913.983-1.058.292a4.74,4.74,0,0,0-3.472-3.394A1.442,1.442,0,0,1,1145.87,562.1Z"/><path class="cls-5" d="M1143.056,562.508a6.05,6.05,0,0,1,3.008,3.557c.144.688-.913.983-1.058.292a4.741,4.741,0,0,0-3.472-3.395A1.4,1.4,0,0,1,1143.056,562.508Z"/><path class="cls-5" d="M1140.273,563.046a5.741,5.741,0,0,1,3.035,3.542c.145.689-.912.983-1.057.292a4.742,4.742,0,0,0-3.473-3.395A1.348,1.348,0,0,1,1140.273,563.046Z"/><path class="cls-8" d="M1131.732,566.9a6.06,6.06,0,0,0,3.857-1.25c.237-7.281,1.552-40.642,6.177-60.477,2.953-12.659,6.558-47.688,4.311-70.452-5.529,1.406-15.029,3.745-20.273,4.6a149.468,149.468,0,0,0,1.692,18.171c1.829,13.848,3.906,29.544-.35,47.507-3.5,14.764-.839,52.127-.156,60.819.864,1.085,2.917,1.085,4.742,1.085Z"/><path class="cls-9" d="M1170.282,431.335c-.888-.591-5.5-5.13-9.4-9.028a33.375,33.375,0,0,1-9.776-20.176c-1.029-10.235.167-20.822-4.321-28.681-7.145-12.509-19.685-24.955-35.43-22.158a10.114,10.114,0,0,0-4.833,2.049,13.308,13.308,0,0,0-4.418,8.887,67.142,67.142,0,0,0,2.041,25c2.683,10.278,4.035,19.188.765,29.462-2.542,7.988-9.043,40.707-7.112,49.089.062-.013,27.616,15.284,54.914,2.274-1.027-15.046-8.149-59.676-8.392-62.459-2.044,3.092-1.255,15.031-.373,17.366,2.186,5.786,23.219,16.408,23.219,16.408C1167.761,438.686,1171.527,436.76,1170.282,431.335Z"/><path class="cls-8" d="M1130.915,320.293a14.286,14.286,0,0,0-10.75-1.471,18.733,18.733,0,0,0-12.055,10.331,16.976,16.976,0,0,0,.1,15.095c-.081.165,8.8,19.907,10.7,22.175a67.431,67.431,0,0,0,13.08-3.179c-.912-2.619-1.734-7.993-.573-10.48a8.889,8.889,0,0,0,6.052-.738c4.319-2.645,3.829-10.971,3.419-15.2C1140.26,330.358,1136.671,323.577,1130.915,320.293Z"/><path class="cls-10" d="M1138.605,319.424a20.554,20.554,0,0,0-6.106-3.187,24.564,24.564,0,0,0-15.084.07,22.964,22.964,0,0,0-13.988,12.533c-2.786,6.622.77,13.533-2.868,19.861a19.645,19.645,0,0,0-.581,18.836,1.458,1.458,0,0,1-.139,1.538,11.866,11.866,0,0,0,2.205,15.7,11.729,11.729,0,0,0,5.29,2.283,1.347,1.347,0,0,1,.323.141c1.47,9.071,11.579,11.742,19.385,8.854a10.97,10.97,0,0,0,7.255-8.731c.68-4.08.557-8.293,1.647-12.3.878-3.223,4.086-6.816,7.714-6.425a6.745,6.745,0,0,0,1.266-4.311c-.126-4.608-3.57-7.826-7.113-10.267-1.735-1.2-3.088-3.384-4.519-5.244a5.561,5.561,0,0,0-2.932-2.045,3.561,3.561,0,0,1-2.729-2.487,1.441,1.441,0,0,1,2.342-1.465c.668.594,1.236,1.214,1.5,1.474.572.566,1.422-.232,1.183-.885-.411-1.126-.925-2.26-1.244-3.415a3.309,3.309,0,0,1,.931-3.61,1.433,1.433,0,0,1,.627-.33c3.06-.76,5.969-1.155,9.079-2.742C1143.99,332.129,1142.83,322.657,1138.605,319.424Z"/><g class="cls-3"><path class="cls-5" d="M1334.135,252.625c63.668,49.4,95.559,108.3,95.726,167.281l-2.883,85.813a165.95,165.95,0,0,1,2.883,30.151l-4.6,136.985c2.132-63.486-29.082-131.731-90.726-185.952Z"/><path class="cls-11" d="M1340.411,594.721c67.445-51.516,101.109-113.221,100.934-174.848l.4,140.829c.01,3.413-.1,6.827-.3,10.239l.3,105.725c.175,61.627-33.489,123.332-100.934,174.848l-.4-140.829c.111-.085.218-.171.328-.256Z"/><path class="cls-4" d="M1334.135,252.625c128.338,99.576,127.56,237.77-1.9,337.345l8.175,4.751c133.85-102.237,134.651-244.609,1.952-346.847Z"/><polygon class="cls-4" points="1332.236 589.97 1340.411 594.721 1340.81 735.55 1340.481 735.359 1340.81 851.514 1332.635 846.763 1332.236 705.934 1332.565 706.125 1332.236 589.97"/></g><path class="cls-6" d="M1389.267,404.1v12.823a292.258,292.258,0,0,0-48.805-58.23V347.417C1360.117,365.589,1376.357,384.08,1389.267,404.1Z"/><path class="cls-12" d="M1391.643,407.8c1.713,2.773,3.381,5.567,4.967,8.4v12.957c-1.586-2.837-3.254-5.658-4.967-8.47Z"/><path class="cls-13" d="M1391.643,385.917c1.713,2.772,3.381,5.566,4.967,8.4v12.958c-1.586-2.838-3.254-5.659-4.967-8.47Z"/><path class="cls-6" d="M1389.267,382.22v12.823a292.258,292.258,0,0,0-48.805-58.23V325.534C1360.117,343.706,1376.357,362.2,1389.267,382.22Z"/><path class="cls-6" d="M1389.267,360.337v12.822a292.281,292.281,0,0,0-48.805-58.229V303.65C1360.117,321.823,1376.357,340.313,1389.267,360.337Z"/><path class="cls-9" d="M1391.643,364.034c1.713,2.772,3.381,5.566,4.967,8.4v12.957c-1.586-2.836-3.254-5.658-4.967-8.469Z"/><path class="cls-14" d="M1391.643,342.151c1.713,2.772,3.381,5.566,4.967,8.4v12.957c-1.586-2.837-3.254-5.658-4.967-8.469Z"/><path class="cls-6" d="M1389.267,338.453v12.823a292.281,292.281,0,0,0-48.805-58.229v-11.28C1360.117,299.94,1376.357,318.43,1389.267,338.453Z"/><g class="cls-3"><path class="cls-5" d="M585.865,252.625c-63.668,49.4-95.559,108.3-95.726,167.281l2.883,85.813a165.95,165.95,0,0,0-2.883,30.151l4.6,136.985c-2.132-63.486,29.082-131.731,90.726-185.952Z"/><path class="cls-11" d="M579.589,594.721C512.144,543.205,478.48,481.5,478.655,419.873l-.4,140.829c-.01,3.413.1,6.827.3,10.239l-.3,105.725C478.081,738.293,511.745,800,579.19,851.514l.4-140.829c-.111-.085-.218-.171-.328-.256Z"/><path class="cls-4" d="M585.865,252.625c-128.338,99.576-127.56,237.77,1.9,337.345l-8.175,4.751c-133.85-102.237-134.651-244.609-1.952-346.847Z"/><polygon class="cls-4" points="587.764 589.97 579.589 594.721 579.19 735.55 579.519 735.359 579.19 851.514 587.365 846.763 587.764 705.934 587.435 706.125 587.764 589.97"/></g><path class="cls-6" d="M530.733,404.1v12.823a292.258,292.258,0,0,1,48.805-58.23V347.417C559.883,365.589,543.643,384.08,530.733,404.1Z"/><path class="cls-12" d="M528.357,407.8c-1.713,2.773-3.381,5.567-4.967,8.4v12.957c1.586-2.837,3.254-5.658,4.967-8.47Z"/><path class="cls-13" d="M528.357,385.917c-1.713,2.772-3.381,5.566-4.967,8.4v12.958c1.586-2.838,3.254-5.659,4.967-8.47Z"/><path class="cls-6" d="M530.733,382.22v12.823a292.258,292.258,0,0,1,48.805-58.23V325.534C559.883,343.706,543.643,362.2,530.733,382.22Z"/><path class="cls-6" d="M530.733,360.337v12.822a292.281,292.281,0,0,1,48.805-58.229V303.65C559.883,321.823,543.643,340.313,530.733,360.337Z"/><path class="cls-9" d="M528.357,364.034c-1.713,2.772-3.381,5.566-4.967,8.4v12.957c1.586-2.836,3.254-5.658,4.967-8.469Z"/><path class="cls-14" d="M528.357,342.151c-1.713,2.772-3.381,5.566-4.967,8.4v12.957c1.586-2.837,3.254-5.658,4.967-8.469Z"/><path class="cls-6" d="M530.733,338.453v12.823a292.281,292.281,0,0,1,48.805-58.229v-11.28C559.883,299.94,543.643,318.43,530.733,338.453Z"/><g class="cls-3"><polygon class="cls-11" points="1320.894 743.542 1283.825 765.083 1246.514 743.542 1283.583 722 1320.894 743.542"/><polygon class="cls-15" points="1320.781 743.542 1320.637 864.593 1283.568 886.135 1283.713 765.083 1320.781 743.542"/><polygon class="cls-5" points="1283.825 765.083 1283.68 886.135 1246.369 864.594 1246.514 743.542 1283.825 765.083"/></g><g class="cls-3"><polygon class="cls-13" points="1254.304 807.696 1217.235 829.238 1179.924 807.696 1216.993 786.154 1254.304 807.696"/><polygon class="cls-14" points="1254.304 807.696 1254.16 888.408 1217.091 909.95 1217.235 829.238 1254.304 807.696"/><polygon class="cls-16" points="1217.235 829.238 1217.091 909.95 1179.779 888.408 1179.924 807.696 1217.235 829.238"/></g><g class="cls-3"><polygon class="cls-17" points="1192.556 865.314 1155.487 886.856 1118.176 865.314 1155.245 843.772 1192.556 865.314"/><polygon class="cls-9" points="1192.556 865.314 1192.412 905.692 1155.343 927.234 1155.487 886.856 1192.556 865.314"/><polygon class="cls-18" points="1155.487 886.856 1155.343 927.234 1118.032 905.692 1118.176 865.314 1155.487 886.856"/></g><path class="cls-14" d="M797.157,649.369c-.023.007-1.207,29.852-2.757,32.683-3.629,6.629-13.137,17-13.4,18.3-.766,3.8,2.629,7.909,6.193,7.477,2.269-.274,19.384-10.626,19.384-10.626C807.455,691.5,797.423,649.127,797.157,649.369Z"/><path class="cls-14" d="M832.714,794.608c-1.883,3.179-5.475,3.1-5.6,3.373-1.728,3.753-11.163,16.12-9.757,18.481,2.513,4.225,9.26.16,11.489-2.234,2.191-2.353,3.619-5.514,5.619-8.077,1.426-1.827,3.027-3.091,2.456-5.531C836.575,799.146,833.171,794.378,832.714,794.608Z"/><path class="cls-5" d="M836.539,799.691c.466,2.367-1.1,3.642-2.518,5.456-2.033,2.6-3.484,5.817-5.711,8.209-2.06,2.212-7.9,5.8-10.87,3.22,2.572,4.015,9.2.022,11.4-2.348,2.191-2.353,3.619-5.514,5.619-8.077,1.426-1.827,3.027-3.091,2.456-5.531A4.649,4.649,0,0,0,836.539,799.691Z"/><path class="cls-5" d="M825.482,808.3a5.491,5.491,0,0,0-4.345-.741.952.952,0,0,0-.7,1.123,7.23,7.23,0,0,1,4.577.622C825.636,809.654,826.1,808.647,825.482,808.3Z"/><path class="cls-5" d="M827.055,805.8a5.489,5.489,0,0,0-4.344-.741.952.952,0,0,0-.7,1.123,7.234,7.234,0,0,1,4.578.622C827.209,807.158,827.669,806.151,827.055,805.8Z"/><path class="cls-5" d="M828.584,803.412a5.492,5.492,0,0,0-4.344-.741.953.953,0,0,0-.7,1.123,7.233,7.233,0,0,1,4.578.622C828.739,804.77,829.2,803.764,828.584,803.412Z"/><path class="cls-19" d="M827.113,797.981c-3.9-4.9-17.963-21.108-32.769-41.907a6.257,6.257,0,0,1-1.2-3.526c-.159-10.33,5.7-41.223,8.807-54.25a76.614,76.614,0,0,0,14.756,4.042c-.864,5.11-11.116,49.477-9.634,51.026,10.392,10.462,19.024,27.135,25.642,41.242C832.639,795.512,830.478,797.432,827.113,797.981Z"/><path class="cls-14" d="M820.909,823.236c-2.864,2.333-6.208,1.02-6.421,1.233-2.916,2.926-16.039,11.278-15.535,13.979.9,4.832,8.636,3.345,11.555,1.868,2.868-1.453,5.3-3.927,8.061-5.642,1.969-1.223,3.907-1.857,4.213-4.344C822.967,828.827,821.418,823.177,820.909,823.236Z"/><path class="cls-5" d="M822.746,829.326c-.38,2.383-2.292,3.038-4.246,4.252-2.807,1.743-5.278,4.258-8.194,5.734-2.7,1.366-9.42,2.721-11.313-.728,1.029,4.656,8.626,3.194,11.515,1.732,2.868-1.453,5.3-3.927,8.061-5.642,1.969-1.223,3.907-1.857,4.213-4.344A4.684,4.684,0,0,0,822.746,829.326Z"/><path class="cls-5" d="M809.4,833.587a5.489,5.489,0,0,0-3.822-2.194.952.952,0,0,0-1.042.813,7.23,7.23,0,0,1,4.082,2.164C809.075,834.915,809.854,834.129,809.4,833.587Z"/><path class="cls-5" d="M811.736,831.787a5.489,5.489,0,0,0-3.822-2.194.952.952,0,0,0-1.042.813,7.235,7.235,0,0,1,4.082,2.163C811.412,833.115,812.191,832.329,811.736,831.787Z"/><path class="cls-5" d="M814,830.074a5.489,5.489,0,0,0-3.821-2.194.952.952,0,0,0-1.043.813,7.23,7.23,0,0,1,4.082,2.164C813.672,831.4,814.451,830.616,814,830.074Z"/><path class="cls-8" d="M814.488,824.469c.686-10.537-6.258-60.173-6.258-60.173-1.925-6.986,7.323-32.428,9.846-40.445l.2-.617-.056-.645c-.008-.126-.92-11.169-.932-18.479a88.94,88.94,0,0,0,16.066-3.49c.217,1.383.462,2.747.7,4.087a61.363,61.363,0,0,1,1.233,9.685,49.541,49.541,0,0,1-1.824,13.773c-.844,3.126-3.721,10.771-12.65,29.445-.86,1.8-1.117,2.337-.816,3.508,6.225,25.885,2.06,56.259.706,62.8C820.1,824.176,818.475,825.876,814.488,824.469Z"/><path class="cls-20" d="M838.717,650.256a18.548,18.548,0,0,0-5.276-10.58c-3.225-3.206-7.552-4.7-11.826-5.939a25.362,25.362,0,0,0-13.479-.393c-5.752,1.5-10.211,5.58-10.879,11.675-.2.149-9.293,95.746-9.293,95.746,2.844,5.137,33.121,12.535,51.5,2.057-.706-2.786,1.9-32.568-8.237-55.775a8.969,8.969,0,0,1-.029-6.563C833.76,673.256,839.5,656.184,838.717,650.256Z"/><path class="cls-14" d="M838.789,649.118a16.743,16.743,0,0,0-4.994-9.078c-6.34,7.917-4.877,34.486-4.231,36.919l-25.473,14.168c-.51.283,1.535,6.161,4.233,5.913,2.33-.215,26.09-10.787,27.1-12.009C836.734,683.447,839.769,654.524,838.789,649.118Z"/><path class="cls-21" d="M811.489,632.369s.027,7.925.044,8c-.044,4.017,8.082,2.74,13.306-3.993V623.663C824.839,623.136,811.489,631.74,811.489,632.369Z"/><path class="cls-22" d="M827.176,600.79A12.248,12.248,0,0,0,818.2,598.2a16.194,16.194,0,0,0-8.378,3.9,18.681,18.681,0,0,0-5.225,7.153,17.763,17.763,0,0,0-.912,8.791c1.342,11.385,7.236,15.667,9.137,16.417,5.084-.358,8.178-2.609,9.885-5.169a34.716,34.716,0,0,1,6.4-7.433,6.927,6.927,0,0,0,.555-.516C833.641,617.181,834.791,607.433,827.176,600.79Z"/><path class="cls-10" d="M838.957,625.837a12.525,12.525,0,0,0,.484-2.711c.186-7.866-.842-16.306-6.974-21.9-5.645-5.149-14.033-6.849-20.919-3.181-7.533,4.012-10.821,13.956-7.76,20.777-1.373-7.195,5.3-7.747,9.231-8.733a.93.93,0,0,0,.011.384c1.242,5.381,5.776,8.325,10.281,10.9a.764.764,0,0,0,.155.045c.385-1.558,2.744-2.7,3.626-.9.785,1.6-.911,2.891-2.332,3.3-.865.811-.158,3.9-.1,4.936.293,5.469-2.009,10-5.763,13.812a26.654,26.654,0,0,0-4.324,5.084,8.111,8.111,0,0,0,.753,9.467c2.913,3.3,8.881,4.99,12.67,2.232,2.649-1.929,2.731-4.82,3.471-7.725,1.671-6.561,5.977-6.573,6.521-5.379a6.212,6.212,0,0,1,1.194-3.728C843.276,636.349,842.923,631.111,838.957,625.837Z"/><path class="cls-22" d="M805.3,690.771c-.511.359-6.051,2.958-9.143,3.124-2.262.122-3.622,3.205-6.04,3.35a.932.932,0,0,0-.706,1.564c.9.982,3.516.368,5.395-1.573a.767.767,0,0,0-.019.148,1.938,1.938,0,0,0,.9,1.652,1.537,1.537,0,0,0,.4.158.907.907,0,0,0,.1.433,1.755,1.755,0,0,0,1.282,1.05v.009a1.706,1.706,0,0,0,1.773,1.3,2.1,2.1,0,0,0,1.389-.533c1.726-.391,3.223-1.93,4.322-3.156a21.611,21.611,0,0,0,2.619-3.058C808.408,693.7,807.554,689.183,805.3,690.771Z"/><g class="cls-3"><polygon class="cls-1" points="758.373 716.134 787.552 699.177 808.494 711.268 779.315 728.225 758.373 716.134"/><g class="cls-23"><polyline class="cls-5" points="808.494 711.268 787.552 699.177 758.373 716.134 779.315 728.225 808.494 711.268"/></g></g><path class="cls-24" d="M787.953,707.591v-.006a1.038,1.038,0,0,0,.009-.176v-.018a1.305,1.305,0,0,0-.018-.164l-.008-.031a1.394,1.394,0,0,0-.041-.15c0-.015-.012-.029-.018-.045-.019-.044-.036-.089-.06-.133a.467.467,0,0,0-.036-.059,1.082,1.082,0,0,0-.071-.115c-.017-.025-.039-.048-.058-.073s-.051-.065-.081-.1a1.145,1.145,0,0,0-.086-.084c-.026-.027-.052-.054-.082-.08s-.081-.064-.123-.1c-.026-.019-.049-.039-.075-.058-.072-.051-.147-.1-.229-.147l-.034-.017a5.227,5.227,0,0,0-4.706.018c-1.3.758-1.3,1.987.015,2.745a5.224,5.224,0,0,0,4.74,0l.058-.037A1.727,1.727,0,0,0,787.953,707.591Z"/><path class="cls-25" d="M788.128,709.39l-1.079-.623-.058.037a5.224,5.224,0,0,1-4.74,0c-1.314-.758-1.319-1.987-.015-2.745a5.227,5.227,0,0,1,4.706-.018l1.072-.623a7.6,7.6,0,0,0-6.858.018c-1.9,1.1-1.885,2.889.024,3.991a7.591,7.591,0,0,0,6.889,0C788.09,709.415,788.108,709.4,788.128,709.39Z"/><path class="cls-26" d="M789.019,708.645c-.029.035-.06.068-.09.1C788.959,708.713,788.991,708.68,789.019,708.645Z"/><path class="cls-26" d="M788.714,708.963c-.04.035-.082.07-.125.1C788.632,709.033,788.674,709,788.714,708.963Z"/><path class="cls-26" d="M788.875,708.806c-.033.036-.07.07-.107.1C788.805,708.876,788.842,708.842,788.875,708.806Z"/><path class="cls-26" d="M789.143,708.48c-.022.031-.047.063-.07.094C789.1,708.543,789.121,708.511,789.143,708.48Z"/><path class="cls-26" d="M788.331,709.261c-.047.032-.1.063-.146.094C788.235,709.324,788.284,709.293,788.331,709.261Z"/><path class="cls-26" d="M788.532,709.114c-.043.035-.09.068-.137.1C788.442,709.182,788.489,709.149,788.532,709.114Z"/><path class="cls-26" d="M789.248,708.311c-.015.026-.032.052-.048.078C789.216,708.363,789.233,708.337,789.248,708.311Z"/><path class="cls-13" d="M786.976,706.058c.082.047.157.1.229.147.026.019.049.039.075.058.042.033.085.064.123.1s.056.053.082.08a1.145,1.145,0,0,1,.086.084c.03.032.054.065.081.1s.041.048.058.073a1.082,1.082,0,0,1,.071.115.467.467,0,0,1,.036.059c.024.044.041.089.06.133.006.016.013.03.018.045a1.394,1.394,0,0,1,.041.15l.008.031a1.305,1.305,0,0,1,.018.164v.018a1.038,1.038,0,0,1-.009.176v.006a1.727,1.727,0,0,1-.9,1.176l1.079.623h0l.056-.036c.05-.031.1-.062.146-.094l.064-.046c.047-.033.094-.066.137-.1.02-.015.038-.031.057-.047.043-.034.085-.069.125-.1.019-.017.036-.035.054-.052.037-.035.074-.069.107-.1.019-.019.036-.039.054-.059s.061-.067.09-.1.036-.048.054-.071.048-.063.07-.094.038-.061.057-.091.033-.052.048-.078c.032-.057.06-.115.086-.172v0l.009-.022,0,0,.009-.02,0,0,.008-.02,0-.007.007-.018,0,0,.007-.02,0-.008.006-.018,0-.006.006-.018.008-.025q.021-.066.036-.132v0a1.107,1.107,0,0,0,.023-.128v-.007c.006-.043.011-.085.013-.127v-.011c0-.04,0-.081,0-.122V707.4c0-.039,0-.079-.008-.118l0-.021c0-.037-.01-.075-.017-.112l0-.025c-.007-.036-.016-.072-.025-.108l-.009-.029c-.009-.034-.02-.069-.031-.1,0-.012-.009-.022-.012-.033l-.039-.1c0-.013-.013-.026-.019-.038-.014-.031-.028-.062-.044-.093l-.023-.04-.049-.088-.03-.045c-.018-.028-.035-.055-.055-.082s-.025-.033-.038-.049l-.057-.077-.045-.052c-.021-.024-.04-.047-.061-.07l-.052-.054c-.023-.023-.043-.045-.066-.067s-.041-.038-.063-.058-.042-.04-.065-.06l-.074-.061-.065-.053c-.027-.022-.056-.043-.086-.064l-.064-.049-.109-.072-.052-.036c-.057-.036-.114-.07-.173-.105h0l-.033-.017h0l-1.072.623Z"/><path class="cls-24" d="M797.034,712.372v-.006a1.147,1.147,0,0,0,.01-.176l0-.018a1.158,1.158,0,0,0-.018-.164l-.008-.031a1.136,1.136,0,0,0-.041-.149c0-.016-.012-.03-.018-.045-.019-.045-.036-.089-.06-.134a.457.457,0,0,0-.036-.058,1.162,1.162,0,0,0-.071-.116c-.017-.025-.039-.048-.059-.072s-.05-.066-.08-.1-.056-.056-.085-.084-.053-.054-.083-.08-.081-.064-.123-.1c-.026-.019-.048-.039-.075-.058-.072-.051-.147-.1-.229-.147l-.034-.017a5.227,5.227,0,0,0-4.706.018c-1.3.758-1.3,1.987.015,2.745a5.224,5.224,0,0,0,4.74,0l.058-.037A1.727,1.727,0,0,0,797.034,712.372Z"/><path class="cls-25" d="M797.209,714.171l-1.079-.623-.058.037a5.224,5.224,0,0,1-4.74,0c-1.314-.758-1.319-1.987-.015-2.745a5.227,5.227,0,0,1,4.706-.018l1.072-.623a7.6,7.6,0,0,0-6.858.018c-1.9,1.1-1.885,2.889.024,3.991a7.591,7.591,0,0,0,6.889,0C797.171,714.2,797.189,714.183,797.209,714.171Z"/><path class="cls-26" d="M798.1,713.426c-.029.035-.06.068-.09.1C798.04,713.494,798.071,713.461,798.1,713.426Z"/><path class="cls-26" d="M797.8,713.744c-.04.035-.082.07-.125.1C797.713,713.814,797.755,713.779,797.8,713.744Z"/><path class="cls-26" d="M797.957,713.587c-.034.036-.071.071-.108.105C797.886,713.657,797.923,713.623,797.957,713.587Z"/><path class="cls-26" d="M798.224,713.261c-.022.032-.047.063-.07.094C798.177,713.324,798.2,713.293,798.224,713.261Z"/><path class="cls-26" d="M797.412,714.042c-.047.032-.1.063-.146.094C797.316,714.105,797.365,714.074,797.412,714.042Z"/><path class="cls-26" d="M797.613,713.9c-.043.034-.09.067-.137.1C797.523,713.963,797.57,713.93,797.613,713.9Z"/><path class="cls-26" d="M798.329,713.092c-.015.026-.032.052-.048.078C798.3,713.144,798.314,713.118,798.329,713.092Z"/><path class="cls-13" d="M796.057,710.839c.082.047.157.1.229.147.027.019.049.039.075.058.042.033.085.065.123.1s.056.053.083.08.06.055.085.084.054.065.08.1.042.047.059.072a1.162,1.162,0,0,1,.071.116.457.457,0,0,1,.036.058c.024.045.041.089.06.134.006.015.013.029.018.045a1.136,1.136,0,0,1,.041.149l.008.031a1.158,1.158,0,0,1,.018.164l0,.018a1.147,1.147,0,0,1-.01.176v.006a1.727,1.727,0,0,1-.9,1.176l1.079.623h0l.056-.036c.05-.031.1-.062.146-.094l.064-.045c.047-.034.094-.067.137-.1l.057-.048c.043-.034.085-.069.125-.1.019-.017.036-.035.054-.052.037-.034.074-.069.108-.105.018-.019.035-.039.053-.059s.061-.067.09-.1.036-.048.054-.071.048-.062.07-.094.038-.061.057-.091.033-.052.048-.078a1.839,1.839,0,0,0,.086-.172v0l.01-.022v0l.009-.02v0l.009-.022,0-.006.007-.019,0-.006.006-.018,0-.008.006-.017,0-.007.006-.018.008-.025q.021-.066.036-.132v0a1.164,1.164,0,0,0,.023-.129v-.007c.006-.043.011-.085.013-.127v-.01c0-.041,0-.082,0-.122v-.016c0-.039,0-.079-.008-.118l0-.021c0-.037-.01-.075-.017-.112l0-.025c-.007-.036-.016-.072-.025-.107l-.009-.03c-.009-.034-.02-.069-.031-.1l-.012-.033c-.013-.032-.025-.066-.039-.1,0-.013-.013-.025-.019-.038a.961.961,0,0,0-.044-.092l-.023-.041-.049-.088-.03-.045c-.018-.027-.035-.054-.055-.081a.6.6,0,0,0-.038-.05l-.057-.077-.045-.052c-.021-.023-.04-.046-.061-.07l-.052-.054c-.023-.023-.043-.045-.066-.067s-.041-.038-.063-.057-.042-.041-.065-.06l-.074-.062-.065-.053c-.027-.022-.056-.043-.086-.064l-.064-.049-.109-.072-.052-.035c-.056-.037-.114-.071-.173-.105h0l-.033-.018h0l-1.072.623Z"/><polygon class="cls-13" points="768.523 717.087 767.288 716.374 766.059 717.088 767.295 717.801 768.523 717.087"/><polygon class="cls-13" points="769.08 717.409 767.852 718.123 777.788 723.859 779.016 723.146 769.08 717.409"/><polygon class="cls-5" points="769.644 713.626 768.529 712.982 767.42 713.627 768.536 714.271 769.644 713.626"/><polygon class="cls-25" points="770.147 713.917 769.038 714.561 783.086 722.62 784.195 721.976 770.147 713.917"/><polygon class="cls-5" points="771.616 712.384 770.501 711.74 769.392 712.385 770.507 713.029 771.616 712.384"/><polygon class="cls-25" points="772.119 712.675 771.01 713.319 785.057 721.378 786.166 720.734 772.119 712.675"/><polygon class="cls-5" points="773.578 711.234 772.462 710.59 771.353 711.235 772.469 711.879 773.578 711.234"/><polygon class="cls-25" points="774.081 711.525 772.972 712.169 787.019 720.228 788.128 719.584 774.081 711.525"/><path class="cls-22" d="M783.787,700.418c-1.779.411-3.684.551-5.181,1.69a12.339,12.339,0,0,1-1.834,1.356c-.3.147-.569.33-.876.464a2.805,2.805,0,0,0-1.165.767,2.922,2.922,0,0,0-.52,1.617,6.972,6.972,0,0,0-.1,2.116c.254,1.048,1.344.967,1.915.236a2.3,2.3,0,0,0,.485-1.277,2.779,2.779,0,0,1,1.231-2.231l6.97-4.329A.829.829,0,0,0,783.787,700.418Z"/><path class="cls-8" d="M1311.426,481.334c7.411-3.5,15.22-8.968,21.888-13.741,2.836-2.03,5.58-4.289,8.808-5.681a21.468,21.468,0,0,1,4.736-1.276,18.29,18.29,0,0,0,6.312-2.584.556.556,0,0,1,.406-.073.6.6,0,0,1,.883.17c.864,1.431-.033,2.758-1.236,3.608a23.125,23.125,0,0,1-3.778,2.117,9.2,9.2,0,0,1-4.934,9.275c-.86.433-1.807.638-2.691,1.009-1.321.554-2.33,1.548-3.648,2.062a7.059,7.059,0,0,1-4.131.192c-5.606,5.755-18.5,16.4-18.5,16.4C1314.941,491.5,1311.426,481.334,1311.426,481.334Z"/><path class="cls-13" d="M1253.34,638.739c4.025,1.035,11.4.464,14.9-1.663,2.91.086,15.893-6.475,18.042-.8,1.883,4.977-4.959,9.581-8.616,10.467-7.981,1.933-13.885,5.913-17.09,6.587-2.39.5-5.48.834-7.383-1.044C1250.91,650.038,1251.108,641.705,1253.34,638.739Z"/><path class="cls-5" d="M1260.575,651.955c3.2-.674,9.109-4.654,17.09-6.587,3.063-.742,8.342-4.1,8.875-8.089.71,4.58-5.465,8.641-8.875,9.468-7.981,1.933-13.885,5.913-17.09,6.587-2.39.5-5.48.834-7.383-1.044a4.669,4.669,0,0,1-1.046-1.906C1254.919,652.691,1258.185,652.458,1260.575,651.955Z"/><path class="cls-27" d="M1277.96,634.485c1.776,1.065,3.435,2.6,3.843,4.542.188.893-1.184,1.275-1.372.378-.432-2.058-2.692-4.228-4.506-4.4A1.873,1.873,0,0,1,1277.96,634.485Z"/><path class="cls-27" d="M1274.953,635.278c1.776,1.065,3.494,2.671,3.9,4.616.188.893-1.184,1.275-1.372.378-.432-2.058-2.692-4.227-4.507-4.405A1.813,1.813,0,0,1,1274.953,635.278Z"/><path class="cls-27" d="M1272.062,636.165a7.449,7.449,0,0,1,3.94,4.6c.187.893-1.184,1.276-1.373.378-.431-2.057-2.691-4.227-4.506-4.4A1.746,1.746,0,0,1,1272.062,636.165Z"/><path class="cls-9" d="M1250.843,516.362c2.751.341,28.381,1.976,28.381,1.976-.542,9.85-4.3,53-5.87,65.285-1.492,11.677-5.115,53.453-5.115,53.453-5.487,5.964-14.9,1.663-14.9,1.663s-2.619-47.5-1.137-61.219C1255.006,551.578,1250.025,533.345,1250.843,516.362Z"/><path class="cls-13" d="M1269.087,648.619c4.024,1.036,11.4.465,14.9-1.662,2.91.087,15.893-6.475,18.042-.8,1.883,4.977-4.959,9.581-8.616,10.467-7.98,1.933-13.884,5.913-17.09,6.587-2.389.5-5.48.834-7.382-1.044C1266.656,659.919,1266.854,651.587,1269.087,648.619Z"/><path class="cls-5" d="M1276.321,661.836c3.206-.674,9.11-4.654,17.09-6.587,3.063-.742,8.342-4.1,8.875-8.089.71,4.58-5.464,8.641-8.875,9.468-7.98,1.933-13.884,5.913-17.09,6.587-2.39.5-5.48.834-7.382-1.044a4.667,4.667,0,0,1-1.047-1.905C1270.666,662.572,1273.931,662.339,1276.321,661.836Z"/><path class="cls-5" d="M1293.706,644.366c1.776,1.065,3.436,2.6,3.844,4.542.187.893-1.184,1.275-1.373.378-.431-2.058-2.692-4.227-4.506-4.4A1.873,1.873,0,0,1,1293.706,644.366Z"/><path class="cls-5" d="M1290.7,645.159c1.776,1.065,3.495,2.672,3.9,4.616.187.893-1.185,1.275-1.373.378-.431-2.057-2.692-4.227-4.506-4.4A1.812,1.812,0,0,1,1290.7,645.159Z"/><path class="cls-5" d="M1287.809,646.046a7.45,7.45,0,0,1,3.939,4.6c.188.894-1.184,1.276-1.372.378-.432-2.057-2.692-4.227-4.507-4.4A1.748,1.748,0,0,1,1287.809,646.046Z"/><path class="cls-12" d="M1263.839,525.9c2.75.341,31.132,2.316,31.132,2.316-.542,9.85-4.3,53-5.871,65.285-1.491,11.677-5.115,53.453-5.115,53.453-5.487,5.964-14.9,1.662-14.9,1.662s-2.62-47.5-1.138-61.218C1270.752,561.459,1263.02,542.885,1263.839,525.9Z"/><path class="cls-7" d="M1253.143,448.356a12.135,12.135,0,0,1,8.94-11.075c4.716-1.227,9.724-.532,14.7,1.457a65.317,65.317,0,0,1,21.028,13.8c4.127,4,6.6,9.2,8.463,14.545,1.44,4.121,3.082,8.164,4.6,12.256,1-.595,3.134-1.91,3.134-1.91,6.494,6.163,4.626,14.587,4.626,14.587s-9.745,7.787-12.035,7.774c-6.31-.036-9.329-12.811-10.607-16.166,2.3,24.338,1.6,45.117,1.014,46.827-25.337,11.465-47.531-1.291-47.59-5.613C1249.266,514.253,1252.1,465.762,1253.143,448.356Z"/><path class="cls-8" d="M1263.17,407.96a14.582,14.582,0,0,1,13.895-7.652c5.382.271,11.165,3.047,12.974,8.457,2.354,7.042,4.753,15.7,1.238,22.572C1279.849,453.678,1258.835,415.954,1263.17,407.96Z"/><path class="cls-8" d="M1268.179,428.2a.72.72,0,0,1,1.071-.614c3.767,2.258,11.941,1.629,11.941,2.164,0,0,1.565,11.222,2.153,14.765a.734.734,0,0,1-.5.875,12.73,12.73,0,0,1-12.33-2.5c-1.4-1.159-2.7-2.486-2.885-4.366C1267.306,435.208,1267.995,431.531,1268.179,428.2Z"/><path class="cls-10" d="M1258.674,409.034a13.426,13.426,0,0,1,2.318-4.175c3.3-4.007,8.542-6.969,13.859-6.484a.688.688,0,0,1,.148.044.4.4,0,0,1,.029-.029,7.454,7.454,0,0,1,.963-.7,5.887,5.887,0,0,1,2.737-.839c1.052-.045,3.162.346,3.63,1.5a.689.689,0,0,1,.294-.161c5.989-1.6,12.311,2.625,10.978,9.2-1.263,6.238-7.581,9.785-13.6,10.333-.055,0-.106,3.013-.146,6.21a4.8,4.8,0,0,0-3.989-1.888c-1.669.11-3.278,1.7-2.724,3.449.744,2.345,4.172,3.3,6.666,2.625-.017,1.671-.03,2.967-.037,3.265a3.713,3.713,0,0,1-.766,2.5,3.24,3.24,0,0,1-1.559.821c-.948.252-1.935.315-2.9.478a6.677,6.677,0,0,0-2.167.692,16.343,16.343,0,0,1-1.748,1.1c-2.047.83-3.191-1.713-4.066-3.079a35.736,35.736,0,0,0-3.6-4.433,17.469,17.469,0,0,1-3.023-4.4,23.663,23.663,0,0,1-2.244-10.349A18.529,18.529,0,0,1,1258.674,409.034Z"/><g class="cls-3"><path class="cls-5" d="M731.256,891.465c2.51,1.45,2.523,3.807.029,5.257l-32.068,18.636a10,10,0,0,1-9.074,0l-67.336-38.876c-2.517-1.454-2.537-3.807-.036-5.261l32.068-18.636a10.016,10.016,0,0,1,9.081,0Z"/><path class="cls-9" d="M731.285,896.721l-32.068,18.637a10,10,0,0,1-9.074,0l-67.335-38.876a3.224,3.224,0,0,1-1.9-2.653l-.02,7.045a3.224,3.224,0,0,0,1.9,2.652L690.123,922.4a10,10,0,0,0,9.075,0l32.068-18.636a3.189,3.189,0,0,0,1.862-2.61l.019-7.044A3.181,3.181,0,0,1,731.285,896.721Z"/></g><g class="cls-3"><polygon class="cls-12" points="707.33 872.404 707.256 903.557 640.795 865.186 640.869 834.033 707.33 872.404"/><polygon class="cls-9" points="707.33 872.404 716.208 867.245 716.135 898.398 707.256 903.557 707.33 872.404"/><polygon class="cls-28" points="640.869 834.033 649.747 828.873 716.208 867.245 707.33 872.404 640.869 834.033"/></g><path class="cls-24" d="M620.469,619.513c.069.03.136.051.206.083C620.605,619.564,620.538,619.543,620.469,619.513Z"/><path class="cls-24" d="M618.266,618.992c.1,0,.193,0,.293.007C618.459,618.99,618.364,618.994,618.266,618.992Z"/><path class="cls-24" d="M619.671,619.226c.091.026.18.045.272.076C619.851,619.271,619.762,619.252,619.671,619.226Z"/><path class="cls-24" d="M617.634,619.018c.093-.011.184-.029.279-.033C617.818,618.989,617.727,619.007,617.634,619.018Z"/><path class="cls-24" d="M616.489,619.336c.082-.038.162-.083.248-.115C616.651,619.253,616.572,619.3,616.489,619.336Z"/><path class="cls-24" d="M617.038,619.134c.089-.024.175-.056.267-.074C617.213,619.078,617.127,619.11,617.038,619.134Z"/><path class="cls-24" d="M618.945,619.058c.1.016.192.024.291.046C619.137,619.082,619.042,619.074,618.945,619.058Z"/><path class="cls-24" d="M732.058,883.126l-.016.022Z"/><path class="cls-24" d="M732.725,882.087l-.007.018Z"/><path class="cls-24" d="M733.149,880.76l0,.011Z"/><polygon class="cls-29" points="623.766 632.512 623.766 632.512 623.766 632.512 623.255 812.912 623.255 812.912 623.766 632.512"/><polygon class="cls-7" points="623.255 812.912 723.598 870.845 724.109 690.445 623.766 632.512 623.766 632.512 623.255 812.912"/><polygon class="cls-5" points="630.32 739.414 630.785 644.71 717.045 694.511 716.577 789.214 630.32 739.414"/><polygon class="cls-5" points="630.32 756.087 630.785 749.643 717.045 799.444 716.577 805.888 630.32 756.087"/><polygon class="cls-5" points="630.32 770.49 630.785 764.046 717.045 813.846 716.577 820.29 630.32 770.49"/><polygon class="cls-5" points="630.32 784.893 630.785 778.448 717.045 828.249 716.577 834.693 630.32 784.893"/><polygon class="cls-5" points="630.32 799.295 630.785 792.851 717.045 842.651 716.577 849.095 630.32 799.295"/><path class="cls-5" d="M732.042,883.148l.016-.022a4.351,4.351,0,0,0,.66-1.021l.007-.018a5.87,5.87,0,0,0,.422-1.316l0-.011a8.278,8.278,0,0,0,.151-1.6l.527-185.832a16.127,16.127,0,0,0-7.326-12.68L621.429,619.987c-.254-.147-.506-.277-.754-.391-.07-.032-.137-.053-.206-.083-.177-.075-.353-.152-.526-.211-.092-.031-.181-.05-.272-.076-.145-.043-.293-.091-.435-.122-.1-.022-.194-.03-.291-.046-.13-.021-.261-.048-.386-.059-.1-.009-.195,0-.293-.007-.118,0-.238-.013-.353-.007-.1,0-.186.022-.279.033-.11.013-.223.02-.329.042s-.178.05-.267.074-.205.051-.3.087-.166.077-.248.115-.188.081-.277.132c-1.326.762-2.15,2.39-2.157,4.711l-.527,185.833a16.161,16.161,0,0,0,7.327,12.69l105.071,60.663c2.054,1.186,3.911,1.287,5.248.5A3.621,3.621,0,0,0,732.042,883.148ZM623.766,632.512h0l100.343,57.933-.511,180.4L623.255,812.912h0Z"/><path class="cls-9" d="M736.149,675.044,631.077,614.38c-2.043-1.179-3.895-1.289-5.233-.512l-9.647,5.607.015-.007c.089-.051.184-.089.277-.132s.162-.083.248-.115.2-.059.3-.087.175-.056.267-.074.219-.029.329-.042c.093-.011.184-.029.279-.033.115-.006.235,0,.353.007.1,0,.193,0,.293.007.125.011.256.038.386.059.1.016.192.024.291.046.142.031.29.079.435.122.091.026.18.045.272.076.173.059.349.136.526.211.069.03.136.051.206.083.248.114.5.244.754.391L726.5,680.65a16.127,16.127,0,0,1,7.326,12.68L733.3,879.162a8.278,8.278,0,0,1-.151,1.6l0,.011a5.87,5.87,0,0,1-.422,1.316l-.007.018a4.351,4.351,0,0,1-.66,1.021l-.016.022a3.621,3.621,0,0,1-.868.715c-.007,0-.011.011-.018.015l9.648-5.607c1.32-.767,2.138-2.4,2.144-4.715l.527-185.833A16.126,16.126,0,0,0,736.149,675.044Z"/><path class="cls-7" d="M742.489,239.927V221.438c0-.716-.512-1.007-1.136-.647l-14.516,4.566,0-1.532c0-.938-.671-1.319-1.487-.848l-8.166,2.65a3.27,3.27,0,0,0-1.485,2.565l0,1.28v.251l.009,3.075.043,15.112c0,.708.512,1,1.136.639l24.475-6.676A2.492,2.492,0,0,0,742.489,239.927Z"/><path class="cls-7" d="M742.489,278.815V260.326c0-.716-.512-1.007-1.136-.647l-14.516,4.566,0-1.532c0-.938-.671-1.319-1.487-.848l-8.166,2.651a3.267,3.267,0,0,0-1.485,2.564l0,1.28v.251l.009,3.075.043,15.112c0,.708.512,1,1.136.639l24.475-6.676A2.492,2.492,0,0,0,742.489,278.815Z"/><path class="cls-2" d="M742.489,317.7V299.214c0-.716-.512-1.007-1.136-.647l-14.516,4.566,0-1.531c0-.939-.671-1.32-1.487-.849l-8.166,2.651a3.267,3.267,0,0,0-1.485,2.564l0,1.28v.252l.009,3.074.043,15.112c0,.708.512,1,1.136.639l24.475-6.676A2.492,2.492,0,0,0,742.489,317.7Z"/><path class="cls-7" d="M742.489,356.592V338.1c0-.716-.512-1.007-1.136-.647l-14.516,4.566,0-1.531c0-.939-.671-1.32-1.487-.848l-8.166,2.65a3.268,3.268,0,0,0-1.485,2.564l0,1.28v.252l.009,3.075.043,15.111c0,.708.512,1,1.136.639l24.475-6.676A2.492,2.492,0,0,0,742.489,356.592Z"/><path class="cls-7" d="M742.489,395.48V376.991c0-.716-.512-1.007-1.136-.648l-14.516,4.566,0-1.531c0-.939-.671-1.32-1.487-.848l-8.166,2.65a3.27,3.27,0,0,0-1.485,2.564l0,1.28v.252l.009,3.075.043,15.112c0,.707.512,1,1.136.638l24.475-6.676A2.49,2.49,0,0,0,742.489,395.48Z"/><path class="cls-6" d="M858.268,197.92a696.232,696.232,0,0,0-104.26,24.917v14.577A696.356,696.356,0,0,1,858.268,212.5Z"/><path class="cls-6" d="M858.268,234.67a696.477,696.477,0,0,0-104.26,24.917v14.577a696.232,696.232,0,0,1,104.26-24.917Z"/><path class="cls-6" d="M858.268,274.575a696.477,696.477,0,0,0-104.26,24.917v14.577a696.232,696.232,0,0,1,104.26-24.917Z"/><path class="cls-6" d="M858.268,312.735a696.477,696.477,0,0,0-104.26,24.917v14.577a696.232,696.232,0,0,1,104.26-24.917Z"/><path class="cls-6" d="M858.268,351.23a696.356,696.356,0,0,0-104.26,24.918v14.576a696.355,696.355,0,0,1,104.26-24.917Z"/><path class="cls-8" d="M770.525,375.3c-7.411-3.5-15.22-8.967-21.888-13.741-2.836-2.03-5.58-4.289-8.808-5.681a21.468,21.468,0,0,0-4.736-1.276,18.315,18.315,0,0,1-6.312-2.583.557.557,0,0,0-.406-.074.6.6,0,0,0-.883.17c-.864,1.432.033,2.758,1.236,3.609a23.13,23.13,0,0,0,3.779,2.116,9.2,9.2,0,0,0,4.933,9.275c.861.433,1.808.638,2.691,1.009,1.322.554,2.33,1.549,3.648,2.063a7.067,7.067,0,0,0,4.131.191c5.607,5.755,18.5,16.4,18.5,16.4C767.01,385.468,770.525,375.3,770.525,375.3Z"/><path class="cls-9" d="M828.611,532.7c-4.025,1.035-11.4.464-14.9-1.663-2.911.087-15.894-6.475-18.042-.8-1.883,4.977,4.959,9.581,8.615,10.467,7.981,1.933,13.885,5.913,17.09,6.587,2.39.5,5.48.835,7.383-1.043C831.042,544,830.844,535.67,828.611,532.7Z"/><path class="cls-5" d="M821.376,545.92c-3.2-.675-9.109-4.654-17.09-6.588-3.063-.742-8.341-4.1-8.874-8.089-.711,4.581,5.464,8.642,8.874,9.468,7.981,1.933,13.885,5.913,17.09,6.587,2.39.5,5.48.835,7.383-1.043a4.682,4.682,0,0,0,1.046-1.906C827.032,546.655,823.766,546.422,821.376,545.92Z"/><path class="cls-27" d="M803.991,528.45c-1.776,1.064-3.435,2.6-3.843,4.541-.188.893,1.184,1.276,1.372.378.432-2.057,2.692-4.227,4.507-4.4A1.874,1.874,0,0,0,803.991,528.45Z"/><path class="cls-27" d="M807,529.242c-1.777,1.065-3.5,2.672-3.9,4.616-.187.894,1.184,1.276,1.373.379.431-2.058,2.692-4.228,4.506-4.4A1.812,1.812,0,0,0,807,529.242Z"/><path class="cls-27" d="M809.889,530.129a7.449,7.449,0,0,0-3.94,4.6c-.187.894,1.184,1.276,1.373.379.431-2.058,2.692-4.228,4.506-4.405A1.747,1.747,0,0,0,809.889,530.129Z"/><path class="cls-9" d="M831.108,410.327c-2.751.34-28.381,1.975-28.381,1.975.542,9.85,4.3,53,5.871,65.285,1.491,11.677,5.115,53.453,5.115,53.453,5.487,5.964,14.9,1.663,14.9,1.663s2.619-47.5,1.137-61.219C826.945,445.543,831.926,427.309,831.108,410.327Z"/><path class="cls-9" d="M812.865,542.584c-4.025,1.035-11.4.464-14.9-1.663-2.91.087-15.893-6.474-18.042-.8-1.883,4.977,4.959,9.581,8.616,10.467,7.98,1.933,13.885,5.913,17.09,6.587,2.39.5,5.48.835,7.383-1.043C815.3,553.884,815.1,545.551,812.865,542.584Z"/><path class="cls-5" d="M805.63,555.8c-3.205-.675-9.11-4.654-17.09-6.588-3.063-.742-8.342-4.095-8.875-8.089-.71,4.581,5.465,8.642,8.875,9.468,7.98,1.933,13.885,5.913,17.09,6.587,2.39.5,5.48.835,7.383-1.043a4.676,4.676,0,0,0,1.046-1.906C811.286,556.536,808.02,556.3,805.63,555.8Z"/><path class="cls-5" d="M788.245,538.33c-1.776,1.066-3.435,2.6-3.843,4.542-.188.894,1.184,1.276,1.372.378.432-2.057,2.692-4.227,4.507-4.4A1.876,1.876,0,0,0,788.245,538.33Z"/><path class="cls-5" d="M791.253,539.123c-1.777,1.065-3.5,2.672-3.9,4.616-.188.894,1.184,1.276,1.372.378.432-2.057,2.692-4.227,4.507-4.4A1.813,1.813,0,0,0,791.253,539.123Z"/><path class="cls-5" d="M794.142,540.01a7.452,7.452,0,0,0-3.939,4.6c-.187.893,1.184,1.275,1.372.378.432-2.058,2.693-4.227,4.507-4.4A1.748,1.748,0,0,0,794.142,540.01Z"/><path class="cls-12" d="M818.113,419.868c-2.751.34-31.132,2.316-31.132,2.316.542,9.849,4.3,53,5.87,65.284,1.492,11.677,5.115,53.453,5.115,53.453,5.487,5.964,14.9,1.663,14.9,1.663s2.619-47.5,1.137-61.218C811.2,455.424,818.931,436.85,818.113,419.868Z"/><path class="cls-13" d="M828.808,342.321a12.136,12.136,0,0,0-8.94-11.076c-4.716-1.227-9.724-.531-14.7,1.458a65.3,65.3,0,0,0-21.028,13.8c-4.127,4-6.6,9.205-8.463,14.545-1.439,4.121-3.082,8.164-4.6,12.255-1-.595-3.134-1.91-3.134-1.91-6.493,6.164-4.625,14.588-4.625,14.588s9.744,7.786,12.034,7.773c6.311-.036,9.33-12.81,10.607-16.166-2.3,24.338-1.6,45.117-1.014,46.827,25.337,11.465,47.531-1.291,47.59-5.613C832.685,408.217,829.851,359.726,828.808,342.321Z"/><path class="cls-8" d="M818.781,301.924a14.581,14.581,0,0,0-13.895-7.651c-5.381.271-11.165,3.046-12.973,8.456-2.355,7.042-4.754,15.7-1.239,22.572C802.1,347.642,823.117,309.919,818.781,301.924Z"/><path class="cls-8" d="M813.772,322.166a.72.72,0,0,0-1.071-.615c-3.767,2.259-11.94,1.63-11.94,2.165,0,0-1.565,11.221-2.154,14.764a.734.734,0,0,0,.5.875,12.73,12.73,0,0,0,12.331-2.5c1.4-1.159,2.7-2.486,2.884-4.366C814.645,329.172,813.957,325.5,813.772,322.166Z"/><path class="cls-10" d="M823.277,303a13.383,13.383,0,0,0-2.318-4.175c-3.3-4.008-8.542-6.97-13.859-6.484a.678.678,0,0,0-.147.043c-.01-.008-.021-.021-.03-.029a7.481,7.481,0,0,0-.963-.7,5.88,5.88,0,0,0-2.737-.839c-1.052-.044-3.161.346-3.63,1.5a.684.684,0,0,0-.294-.162c-5.988-1.6-12.31,2.625-10.978,9.2,1.264,6.237,7.581,9.784,13.6,10.332.055,0,.106,3.013.146,6.21a4.806,4.806,0,0,1,3.989-1.888c1.669.11,3.278,1.706,2.725,3.449-.744,2.345-4.173,3.3-6.667,2.626.018,1.67.031,2.967.038,3.264a3.7,3.7,0,0,0,.765,2.5,3.24,3.24,0,0,0,1.559.821c.948.252,1.935.315,2.9.479a6.659,6.659,0,0,1,2.168.692,16.652,16.652,0,0,0,1.747,1.1c2.047.829,3.192-1.713,4.066-3.08a35.9,35.9,0,0,1,3.6-4.433,17.5,17.5,0,0,0,3.024-4.4,23.659,23.659,0,0,0,2.243-10.349A18.493,18.493,0,0,0,823.277,303Z"/></g><g id="logo_left" data-name="logo left"><polygon class="cls-5" points="310.992 96.015 310.992 119.259 307.674 119.259 307.674 108.895 294.331 108.895 294.331 119.259 291.012 119.259 291.012 96.015 294.331 96.015 294.331 106.012 307.674 106.012 307.674 96.015 310.992 96.015"/><path class="cls-5" d="M331.6,110.792l-5.013-11.387-5.012,11.387Zm1.161,2.656H320.414l-2.558,5.811h-3.414l10.522-23.244h3.283L338.8,119.259h-3.484l-2.559-5.811Z"/><path class="cls-5" d="M357.693,104.115c0-3.32-2.227-5.216-6.471-5.216h-5.641v10.459h5.641C355.466,109.358,357.693,107.436,357.693,104.115Zm.1,15.144-5.012-7.139c-.463.035-.961.07-1.459.07h-5.737v7.069h-3.318V96.015h9.055c6.043,0,9.693,3.058,9.693,8.1a7.344,7.344,0,0,1-5.108,7.341l5.51,7.8h-3.624Z"/><polygon class="cls-5" points="387.925 119.259 387.89 102.324 379.498 116.437 377.97 116.437 369.578 102.42 369.578 119.259 366.39 119.259 366.39 96.015 369.115 96.015 378.808 112.356 388.361 96.015 391.086 96.015 391.121 119.259 387.933 119.259 387.925 119.259"/><path class="cls-5" d="M417.562,107.637a9.025,9.025,0,1,0-8.994,8.931A8.724,8.724,0,0,0,417.562,107.637Zm-21.368,0c0-6.807,5.24-11.884,12.374-11.884s12.313,5.051,12.313,11.884-5.24,11.884-12.313,11.884S396.194,114.444,396.194,107.637Z"/><polygon class="cls-5" points="445.943 96.015 445.943 119.259 443.218 119.259 429.281 101.922 429.281 119.259 425.963 119.259 425.963 96.015 428.688 96.015 442.625 113.352 442.625 96.015 445.943 96.015"/><polygon class="cls-5" points="461.809 111.22 461.809 119.259 458.526 119.259 458.526 111.159 449.305 96.015 452.859 96.015 460.29 108.266 467.756 96.015 471.04 96.015 461.809 111.22"/><path class="cls-5" d="M248.259,104.787a11.135,11.135,0,0,1,9.308,5.532,15.647,15.647,0,0,1,1.939,4.631c.437,1.853.244,3.793.672,5.645a7.72,7.72,0,0,0,15.3-1.494c0-4.282-3.371-7.279-7.423-7.742a12.8,12.8,0,0,1-7.309-2.788c-3.537-2.849-4.759-6.615-4.759-11.692,0-4.334-3.3-8.4-7.816-8.345s-7.641,4.011-7.641,8.336c0,5.077-1.222,8.844-4.759,11.692a12.739,12.739,0,0,1-7.309,2.788c-4.052.463-7.422,3.521-7.422,7.742a7.719,7.719,0,0,0,15.3,1.494c.428-1.852.236-3.792.672-5.645,1.24-5.243,5.545-10.145,11.248-10.171Z"/></g></svg>