<svg xmlns="http://www.w3.org/2000/svg" xmlns:xlink="http://www.w3.org/1999/xlink" viewBox="0 0 1920 1080"><defs><style>.cls-1{fill:none;}.cls-2,.cls-20{fill:#fff;}.cls-3{isolation:isolate;}.cls-4{fill:#0f1854;}.cls-5{fill:#b9b9be;}.cls-6{clip-path:url(#clip-path);}.cls-7{fill:#b8b8be;}.cls-8{fill:#b7b7bd;}.cls-9{clip-path:url(#clip-path-2);}.cls-10{clip-path:url(#clip-path-3);}.cls-11{clip-path:url(#clip-path-4);}.cls-12{fill:#b7b7bc;}.cls-13{clip-path:url(#clip-path-5);}.cls-14{clip-path:url(#clip-path-6);}.cls-15{clip-path:url(#clip-path-7);}.cls-16{fill:url(#Degradado_sin_nombre_14);}.cls-17{fill:url(#Degradado_sin_nombre_11);}.cls-18{clip-path:url(#clip-path-8);}.cls-19,.cls-20,.cls-27,.cls-28,.cls-29,.cls-30,.cls-31,.cls-32,.cls-33,.cls-34,.cls-35,.cls-36,.cls-38,.cls-39,.cls-40,.cls-41,.cls-42,.cls-43,.cls-44,.cls-45,.cls-46,.cls-47,.cls-48,.cls-49,.cls-50,.cls-51,.cls-53,.cls-54,.cls-55,.cls-56,.cls-57,.cls-58,.cls-59{stroke:#fff;}.cls-19,.cls-20{stroke-miterlimit:10;}.cls-19,.cls-27,.cls-28,.cls-29,.cls-30,.cls-31,.cls-32,.cls-36,.cls-38,.cls-39,.cls-40,.cls-41,.cls-42,.cls-43,.cls-44,.cls-45,.cls-46,.cls-47,.cls-48,.cls-49,.cls-50,.cls-51,.cls-53,.cls-54,.cls-55,.cls-56,.cls-57,.cls-58,.cls-59{stroke-width:1.595px;}.cls-19{fill:url(#Degradado_sin_nombre_10);}.cls-21,.cls-22{fill:#0de5b2;}.cls-21{opacity:0.58;}.cls-21,.cls-52{mix-blend-mode:multiply;}.cls-23{fill:#97a4f6;}.cls-24{fill:#00e2e2;}.cls-25{fill:#aeb8fe;}.cls-26{fill:#03e2e2;}.cls-27,.cls-28,.cls-29,.cls-30,.cls-31,.cls-32,.cls-33,.cls-34,.cls-35,.cls-36,.cls-38,.cls-39,.cls-40,.cls-41,.cls-42,.cls-43,.cls-44,.cls-45,.cls-46,.cls-47,.cls-48,.cls-49,.cls-50,.cls-51,.cls-53,.cls-54,.cls-55,.cls-56,.cls-57,.cls-58,.cls-59{stroke-linecap:round;stroke-linejoin:round;}.cls-27{fill:url(#Degradado_sin_nombre_13);}.cls-28{fill:url(#Degradado_sin_nombre_9);}.cls-29{fill:url(#Degradado_sin_nombre_2);}.cls-30{fill:url(#Degradado_sin_nombre_13-2);}.cls-31{fill:url(#Degradado_sin_nombre_9-2);}.cls-32{fill:url(#Degradado_sin_nombre_2-2);}.cls-33,.cls-34,.cls-35{stroke-width:1.513px;}.cls-33{fill:url(#Degradado_sin_nombre_9-3);}.cls-34{fill:url(#Degradado_sin_nombre_15);}.cls-35{fill:url(#Degradado_sin_nombre_2-3);}.cls-36{fill:url(#Degradado_sin_nombre_13-3);}.cls-37{fill:url(#linear-gradient);}.cls-38{fill:url(#Degradado_sin_nombre_9-4);}.cls-39{fill:url(#Degradado_sin_nombre_2-4);}.cls-40{fill:url(#Degradado_sin_nombre_13-4);}.cls-41{fill:url(#Degradado_sin_nombre_9-5);}.cls-42{fill:url(#Degradado_sin_nombre_2-5);}.cls-43{fill:url(#Degradado_sin_nombre_13-5);}.cls-44{fill:url(#Degradado_sin_nombre_9-6);}.cls-45{fill:url(#Degradado_sin_nombre_2-6);}.cls-46{fill:url(#Degradado_sin_nombre_13-6);}.cls-47{fill:url(#Degradado_sin_nombre_9-7);}.cls-48{fill:url(#Degradado_sin_nombre_2-7);}.cls-49{fill:url(#Degradado_sin_nombre_9-8);}.cls-50{fill:url(#Degradado_sin_nombre_15-2);}.cls-51{fill:url(#Degradado_sin_nombre_2-8);}.cls-52{opacity:0.5;}.cls-53{fill:url(#Degradado_sin_nombre_13-7);}.cls-54{fill:url(#Degradado_sin_nombre_9-9);}.cls-55{fill:url(#Degradado_sin_nombre_2-9);}.cls-56{fill:url(#Degradado_sin_nombre_13-8);}.cls-57{fill:url(#Degradado_sin_nombre_9-10);}.cls-58{fill:url(#Degradado_sin_nombre_2-10);}.cls-59{fill:#2b45ed;}</style><clipPath id="clip-path"><path class="cls-1" d="M1476.245,502.448l-.045-15.828c-.016-5.521-3.645-11.033-10.9-15.247l.045,15.829C1472.6,491.416,1476.229,496.928,1476.245,502.448Z"/></clipPath><clipPath id="clip-path-2"><path class="cls-1" d="M1476.246,502.449l-.045-15.829c.015,5.592-3.677,11.192-11.069,15.461l.045,15.828C1472.569,513.641,1476.261,508.041,1476.246,502.449Z"/></clipPath><clipPath id="clip-path-3"><path class="cls-1" d="M1495.643,502.393l-.045-15.829c.024,8.494-5.573,17-16.779,23.471l.045,15.829C1490.07,519.394,1495.667,510.887,1495.643,502.393Z"/></clipPath><clipPath id="clip-path-4"><path class="cls-1" d="M588.3,701.554c.036-5.558,3.732-11.117,11.077-15.358l-.044-15.829c-7.346,4.241-11.043,9.8-11.077,15.358Q588.28,693.641,588.3,701.554Z"/></clipPath><clipPath id="clip-path-5"><path class="cls-1" d="M588.3,701.683v-.129q-.021-7.914-.044-15.829c0,.043,0,.086,0,.129C588.272,690.6,588.289,696.934,588.3,701.683Z"/></clipPath><clipPath id="clip-path-6"><path class="cls-1" d="M588.258,685.841l.045,15.829c.016,5.52,3.641,11.03,10.888,15.241l-.045-15.828C591.9,696.872,588.274,691.361,588.258,685.841Z"/></clipPath><clipPath id="clip-path-7"><path class="cls-2" d="M568.874,685.882l.045,15.829c.024,8.388,5.526,16.762,16.511,23.146l-.045-15.828C574.4,702.644,568.9,694.27,568.874,685.882Z"/></clipPath><linearGradient id="Degradado_sin_nombre_14" x1="1210.808" y1="437.789" x2="824.664" y2="758.761" gradientUnits="userSpaceOnUse"><stop offset="0.345" stop-color="#fff"/><stop offset="0.996" stop-color="#fff"/></linearGradient><linearGradient id="Degradado_sin_nombre_11" x1="1104.09" y1="670.38" x2="910.779" y2="444.013" gradientUnits="userSpaceOnUse"><stop offset="0.05" stop-color="#4d63f0"/><stop offset="0.228" stop-color="#475eef"/><stop offset="1" stop-color="#2f49ed"/></linearGradient><clipPath id="clip-path-8"><path class="cls-1" d="M599.336,670.367c-14.692,8.482-14.785,22.234-.19,30.716L832.525,836.708c14.6,8.482,38.338,8.473,53.03-.009l579.577-334.618c14.691-8.483,14.768-22.226.172-30.709l-29.053-16.883L1260.979,352.632l-29.054-16.884c-14.6-8.482-38.321-8.482-53.013,0Z"/></clipPath><linearGradient id="Degradado_sin_nombre_10" x1="779.747" y1="641.758" x2="1469.575" y2="641.758" gradientUnits="userSpaceOnUse"><stop offset="0" stop-color="#314bee"/><stop offset="0.991" stop-color="#2b45ed"/></linearGradient><linearGradient id="Degradado_sin_nombre_13" x1="1234.346" y1="311.121" x2="1234.346" y2="1041.835" gradientUnits="userSpaceOnUse"><stop offset="0" stop-color="#2b45ed"/><stop offset="1" stop-color="#2b45ed"/></linearGradient><linearGradient id="Degradado_sin_nombre_9" x1="1176.346" y1="217.917" x2="1176.346" y2="512.014" xlink:href="#Degradado_sin_nombre_13"/><linearGradient id="Degradado_sin_nombre_2" x1="1265.997" y1="61.101" x2="1200.971" y2="185.026" xlink:href="#Degradado_sin_nombre_13"/><linearGradient id="Degradado_sin_nombre_13-2" x1="1220.592" y1="149.707" x2="1225.48" y2="192.883" xlink:href="#Degradado_sin_nombre_13"/><linearGradient id="Degradado_sin_nombre_9-2" x1="1188.371" y1="157.319" x2="1186.742" y2="186.104" xlink:href="#Degradado_sin_nombre_13"/><linearGradient id="Degradado_sin_nombre_2-2" x1="1243.218" y1="79.909" x2="1202.697" y2="157.135" xlink:href="#Degradado_sin_nombre_13"/><linearGradient id="Degradado_sin_nombre_9-3" x1="1205.623" y1="155.284" x2="1223.501" y2="155.284" xlink:href="#Degradado_sin_nombre_13"/><linearGradient id="Degradado_sin_nombre_15" x1="1188.004" y1="155.291" x2="1205.633" y2="155.291" xlink:href="#Degradado_sin_nombre_13"/><linearGradient id="Degradado_sin_nombre_2-3" x1="1224.245" y1="111.257" x2="1204.352" y2="149.169" xlink:href="#Degradado_sin_nombre_13"/><linearGradient id="Degradado_sin_nombre_13-3" x1="1072.778" y1="363.03" x2="1072.778" y2="613.478" xlink:href="#Degradado_sin_nombre_13"/><linearGradient id="linear-gradient" x1="861.406" y1="526.179" x2="1262.045" y2="436.368" gradientTransform="translate(-59.62)" gradientUnits="userSpaceOnUse"><stop offset="0" stop-color="#c2c9fa"/><stop offset="0.171" stop-color="#c9cffa"/><stop offset="0.411" stop-color="#dbdffc"/><stop offset="0.581" stop-color="#eceefd"/><stop offset="0.938" stop-color="#fcfcff"/><stop offset="1" stop-color="#fff"/></linearGradient><linearGradient id="Degradado_sin_nombre_9-4" x1="997.752" y1="258.6" x2="997.752" y2="579.286" xlink:href="#Degradado_sin_nombre_13"/><linearGradient id="Degradado_sin_nombre_2-4" x1="1173.339" y1="169.465" x2="1089.226" y2="329.766" gradientTransform="translate(-59.62)" xlink:href="#Degradado_sin_nombre_13"/><linearGradient id="Degradado_sin_nombre_13-4" x1="1064.295" y1="301.347" x2="1064.295" y2="352.584" xlink:href="#Degradado_sin_nombre_13"/><linearGradient id="Degradado_sin_nombre_9-5" x1="1006.354" y1="301.391" x2="1006.354" y2="352.584" xlink:href="#Degradado_sin_nombre_13"/><linearGradient id="Degradado_sin_nombre_2-5" x1="1155.534" y1="186.286" x2="1090.575" y2="310.084" gradientTransform="translate(-59.62)" xlink:href="#Degradado_sin_nombre_13"/><linearGradient id="Degradado_sin_nombre_13-5" x1="1055.759" y1="284.716" x2="1055.759" y2="325.409" xlink:href="#Degradado_sin_nombre_13"/><linearGradient id="Degradado_sin_nombre_9-6" x1="1015.011" y1="284.747" x2="1015.011" y2="325.409" xlink:href="#Degradado_sin_nombre_13"/><linearGradient id="Degradado_sin_nombre_2-6" x1="1137.615" y1="203.797" x2="1091.932" y2="290.861" gradientTransform="translate(-59.62)" xlink:href="#Degradado_sin_nombre_13"/><linearGradient id="Degradado_sin_nombre_13-6" x1="1048.174" y1="267.362" x2="1048.174" y2="299.009" xlink:href="#Degradado_sin_nombre_13"/><linearGradient id="Degradado_sin_nombre_9-7" x1="1022.704" y1="267.382" x2="1022.704" y2="299.009" xlink:href="#Degradado_sin_nombre_13"/><linearGradient id="Degradado_sin_nombre_2-7" x1="1121.693" y1="216.783" x2="1093.138" y2="271.203" gradientTransform="translate(-59.62)" xlink:href="#Degradado_sin_nombre_13"/><linearGradient id="Degradado_sin_nombre_9-8" x1="6778.187" y1="512.594" x2="6938.206" y2="464.679" gradientTransform="matrix(-1, 0, 0, 1, 7801.172, 0)" xlink:href="#Degradado_sin_nombre_13"/><linearGradient id="Degradado_sin_nombre_15-2" x1="987.848" y1="570.771" x2="981.33" y2="375.799" xlink:href="#Degradado_sin_nombre_13"/><linearGradient id="Degradado_sin_nombre_2-8" x1="-312.774" y1="336.868" x2="-329.52" y2="368.781" gradientTransform="translate(1321.014)" xlink:href="#Degradado_sin_nombre_13"/><linearGradient id="Degradado_sin_nombre_13-7" x1="890.573" y1="518.483" x2="890.573" y2="710.981" xlink:href="#Degradado_sin_nombre_13"/><linearGradient id="Degradado_sin_nombre_9-9" x1="803.054" y1="505.411" x2="803.054" y2="718.16" xlink:href="#Degradado_sin_nombre_13"/><linearGradient id="Degradado_sin_nombre_2-9" x1="938.333" y1="308.212" x2="840.213" y2="495.208" xlink:href="#Degradado_sin_nombre_13"/><linearGradient id="Degradado_sin_nombre_13-8" x1="881.051" y1="469.835" x2="881.051" y2="522.435" xlink:href="#Degradado_sin_nombre_13"/><linearGradient id="Degradado_sin_nombre_9-10" x1="811.256" y1="457.398" x2="811.256" y2="509.944" xlink:href="#Degradado_sin_nombre_13"/><linearGradient id="Degradado_sin_nombre_2-10" x1="919.138" y1="331.235" x2="840.89" y2="480.361" xlink:href="#Degradado_sin_nombre_13"/></defs><title>16- Data harmonisation in real estate</title><g class="cls-3"><g id="_16:_Data_harmonisation_in_real_estate" data-name="16: Data harmonisation in real estate"><rect class="cls-4" width="1920" height="1080"/><g class="cls-3"><g class="cls-3"><g class="cls-3"><path class="cls-5" d="M1254.356,398.3c.09.054.181.108.273.161"/></g></g><g class="cls-3"><g class="cls-6"><g class="cls-3"><path class="cls-5" d="M1465.3,471.373l.045,15.829q.231.135.458.271l-.045-15.829q-.226-.137-.458-.271"/><path class="cls-5" d="M1465.762,471.644l.045,15.829a29.005,29.005,0,0,1,4.749,3.517l-.044-15.829a29.058,29.058,0,0,0-4.75-3.517"/><path class="cls-5" d="M1470.512,475.161l.044,15.829a21.54,21.54,0,0,1,2.326,2.5l-.045-15.829a21.616,21.616,0,0,0-2.325-2.5"/><path class="cls-7" d="M1472.837,477.661l.045,15.829a17.547,17.547,0,0,1,1.508,2.24l-.045-15.829a17.618,17.618,0,0,0-1.508-2.24"/><path class="cls-7" d="M1474.345,479.9l.045,15.829a15,15,0,0,1,1,2.13l-.044-15.829a15.119,15.119,0,0,0-1-2.13"/><path class="cls-7" d="M1475.344,482.031l.044,15.829a13.624,13.624,0,0,1,.606,2.11l-.045-15.829a13.619,13.619,0,0,0-.605-2.11"/><path class="cls-8" d="M1475.949,484.141l.045,15.829a12.841,12.841,0,0,1,.246,2.149l-.045-15.829a12.841,12.841,0,0,0-.246-2.149"/><path class="cls-8" d="M1476.2,486.29l.045,15.829c0,.11,0,.22,0,.329l-.045-15.828c0-.11,0-.22-.005-.33"/></g></g></g><g class="cls-3"><g class="cls-9"><g class="cls-3"><path class="cls-2" d="M1465.132,502.081l.045,15.828c7.392-4.268,11.084-9.868,11.069-15.46l-.045-15.829c.015,5.592-3.677,11.192-11.069,15.461"/></g></g></g><g class="cls-3"><g class="cls-10"><path class="cls-2" d="M1478.819,510.035l.045,15.829c11.206-6.47,16.8-14.977,16.779-23.471l-.045-15.829c.024,8.494-5.573,17-16.779,23.471"/></g></g><g class="cls-3"><g class="cls-11"><g class="cls-3"><path class="cls-12" d="M588.258,685.841l.045,15.829c-.016-5.6,3.68-11.2,11.077-15.474l-.044-15.829c-7.4,4.271-11.094,9.877-11.078,15.474"/></g></g></g><g class="cls-3"><g class="cls-13"><g class="cls-3"><path class="cls-12" d="M588.258,685.841l.045,15.829c-.016-5.6,3.68-11.2,11.077-15.474l-.044-15.829c-7.4,4.271-11.094,9.877-11.078,15.474"/></g></g></g><g class="cls-3"><g class="cls-14"><g class="cls-3"><path class="cls-2" d="M588.258,685.841l.045,15.829c0,.11,0,.219,0,.329l-.045-15.829c0-.11,0-.219,0-.329"/><path class="cls-2" d="M588.263,686.17,588.308,702a12.853,12.853,0,0,0,.246,2.151l-.045-15.828a12.877,12.877,0,0,1-.246-2.152"/><path class="cls-2" d="M588.509,688.322l.045,15.828a13.667,13.667,0,0,0,.606,2.111l-.045-15.829a13.624,13.624,0,0,1-.606-2.11"/><path class="cls-2" d="M589.115,690.432l.045,15.829a15.216,15.216,0,0,0,1,2.13l-.045-15.828a15.227,15.227,0,0,1-1-2.131"/><path class="cls-2" d="M590.113,692.563l.045,15.828a17.609,17.609,0,0,0,1.508,2.239l-.045-15.829a17.778,17.778,0,0,1-1.508-2.238"/><path class="cls-2" d="M591.621,694.8l.045,15.829a21.5,21.5,0,0,0,2.324,2.5l-.045-15.828a21.591,21.591,0,0,1-2.324-2.5"/><path class="cls-2" d="M593.945,697.3l.045,15.828a28.929,28.929,0,0,0,4.744,3.513l-.045-15.829a29.027,29.027,0,0,1-4.744-3.512"/><path class="cls-2" d="M598.689,700.812l.045,15.829q.226.136.457.27l-.045-15.828q-.231-.135-.457-.271"/></g></g></g><g class="cls-3"><path class="cls-2" d="M568.874,685.882l.045,15.829c.024,8.388,5.526,16.762,16.511,23.146l-.045-15.828C574.4,702.644,568.9,694.27,568.874,685.882Z"/><g class="cls-15"><g class="cls-3"><path class="cls-8" d="M568.874,685.882l.045,15.829c0,.167,0,.334.008.5l-.045-15.828c0-.167-.007-.334-.008-.5"/><path class="cls-2" d="M577.514,703.3a32.762,32.762,0,0,1-3.527-3.792,26.937,26.937,0,0,1-2.291-3.4,23.175,23.175,0,0,1-1.518-3.241,20.582,20.582,0,0,1-.921-3.211,19.528,19.528,0,0,1-.375-3.274l.045,15.829a19.538,19.538,0,0,0,.374,3.274,20.7,20.7,0,0,0,.922,3.211,22.95,22.95,0,0,0,1.518,3.241,26.785,26.785,0,0,0,2.291,3.4,32.681,32.681,0,0,0,3.527,3.792Z"/></g></g></g><polygon class="cls-2" points="599.146 701.083 599.191 716.911 832.57 852.537 832.525 836.708 599.146 701.083"/><polygon class="cls-2" points="885.555 836.699 885.6 852.528 1465.177 517.909 1465.132 502.081 885.555 836.699"/><path class="cls-2" d="M818.764,844.653,585.385,709.028c-.232-.135-.463-.271-.69-.408l.044,15.829q.342.206.691.408L818.809,860.482Z"/><polygon class="cls-2" points="899.242 844.654 899.287 860.483 1478.864 525.864 1478.819 510.035 899.242 844.654"/><path class="cls-2" d="M889.632,864.944c.334-.123.672-.238,1-.366.154-.059.314-.11.467-.171.87-.343,1.7-.732,2.543-1.107.49-.217,1-.415,1.478-.643,1.433-.68,2.827-1.4,4.166-2.174l-.045-15.829c-1.339.773-2.732,1.494-4.165,2.173-.484.23-.994.429-1.488.648-.988.439-1.975.878-3,1.274-.331.128-.671.243-1,.367q-1.7.626-3.449,1.177l-.542.169-.039-13.763a49.919,49.919,0,0,1-18.483,5.839q-.93.118-1.868.208c-.576.056-1.153.106-1.733.146q-.948.064-1.9.1c-.572.023-1.145.041-1.719.048-.687.01-1.373,0-2.059-.01-.54-.009-1.08-.02-1.619-.044-.849-.036-1.693-.1-2.536-.168-.5-.043-1.008-.073-1.508-.126-.25-.027-.5-.06-.748-.09q-1.308-.156-2.6-.367c-.213-.034-.428-.065-.641-.1a47.574,47.574,0,0,1-15.617-5.426l.039,13.8c-.236-.072-.482-.131-.717-.2-1.383-.435-2.752-.891-4.081-1.4-.159-.06-.311-.13-.47-.191-1.247-.486-2.462-1.009-3.653-1.559q-.525-.242-1.045-.492c-1.313-.636-2.6-1.3-3.834-2.013l.045,15.829c1.232.716,2.521,1.377,3.834,2.013.346.167.694.33,1.045.492,1.191.549,2.406,1.073,3.653,1.558.159.062.311.131.47.192q1.69.645,3.44,1.215c.209.068.43.117.64.183.96.3,1.942.567,2.925.835.746.2,1.482.418,2.239.6,1.035.25,2.089.458,3.143.672.612.124,1.209.279,1.827.39.158.029.319.049.477.076.324.057.651.1.977.156q1.953.319,3.935.556c.383.046.764.1,1.148.137.244.026.486.063.73.087,1.292.129,2.592.223,3.894.3.288.017.577.029.865.044.522.026,1.042.06,1.565.078s1.03,0,1.546.008c1.046.019,2.09.028,3.137.014.386-.005.772.015,1.158.006.482-.013.96-.059,1.442-.078q1.451-.057,2.895-.154c.426-.03.854-.034,1.279-.069.453-.037.9-.107,1.35-.15.954-.093,1.9-.2,2.847-.319.447-.057.9-.087,1.345-.15.4-.058.8-.146,1.2-.209,1.013-.157,2.015-.334,3.015-.524.473-.09.959-.151,1.43-.249.568-.118,1.126-.254,1.689-.382.249-.057.5-.11.748-.169,1.179-.28,2.348-.577,3.5-.9.267-.076.525-.167.79-.246.4-.119.8-.245,1.193-.37Q887.936,865.57,889.632,864.944Z"/><path class="cls-16" d="M1165.224,327.794c22.27-12.857,58.369-12.848,80.478,0l233.379,135.624c22.124,12.857,22.007,33.759-.262,46.616L899.242,844.654c-22.269,12.857-58.354,12.857-80.478,0L585.385,709.029c-22.109-12.849-22.006-33.759.263-46.616Zm-332.7,508.914c14.6,8.482,38.337,8.473,53.028-.009l579.577-334.618c14.691-8.483,14.768-22.226.173-30.708L1259.993,352.059l-28.068-16.311c-14.6-8.482-38.321-8.482-53.013,0L599.336,670.367c-14.692,8.482-14.785,22.234-.189,30.716L832.526,836.708"/><path class="cls-17" d="M599.336,670.367c-14.692,8.482-14.785,22.234-.19,30.716L832.525,836.708c14.6,8.482,38.338,8.473,53.03-.009l579.577-334.618c14.691-8.483,14.768-22.226.172-30.709l-29.053-16.883L1260.979,352.632l-29.054-16.884c-14.6-8.482-38.321-8.482-53.013,0Z"/></g><g class="cls-18"><polygon class="cls-19" points="1469.575 464.414 819.624 842.125 779.747 819.101 1429.698 441.391 1469.575 464.414"/><polygon class="cls-20" points="851.08 802.33 838.132 809.855 834.666 807.854 847.614 800.329 851.08 802.33"/><polygon class="cls-20" points="878.882 786.218 865.933 793.743 862.467 791.742 875.416 784.217 878.882 786.218"/><polygon class="cls-20" points="906.683 770.106 893.735 777.631 890.269 775.63 903.218 768.105 906.683 770.106"/><polygon class="cls-20" points="934.485 753.994 921.536 761.519 918.07 759.518 931.019 751.993 934.485 753.994"/><polygon class="cls-20" points="962.287 737.882 949.338 745.407 945.872 743.406 958.821 735.881 962.287 737.882"/><polygon class="cls-20" points="990.088 721.77 977.139 729.295 973.673 727.294 986.622 719.769 990.088 721.77"/><polygon class="cls-20" points="1017.89 705.658 1004.941 713.183 1001.475 711.182 1014.424 703.657 1017.89 705.658"/><polygon class="cls-20" points="1045.691 689.546 1032.742 697.071 1029.276 695.07 1042.225 687.545 1045.691 689.546"/><polygon class="cls-20" points="1073.493 673.434 1060.544 680.959 1057.078 678.958 1070.027 671.433 1073.493 673.434"/><polygon class="cls-20" points="1101.294 657.322 1088.345 664.847 1084.88 662.846 1097.828 655.321 1101.294 657.322"/><polygon class="cls-20" points="1129.096 641.21 1116.147 648.735 1112.681 646.734 1125.63 639.209 1129.096 641.21"/><polygon class="cls-20" points="1156.897 625.098 1143.948 632.623 1140.483 630.622 1153.431 623.097 1156.897 625.098"/><polygon class="cls-20" points="1184.699 608.986 1171.75 616.512 1168.284 614.511 1181.233 606.985 1184.699 608.986"/><polygon class="cls-20" points="1212.5 592.875 1199.551 600.4 1196.086 598.399 1209.034 590.874 1212.5 592.875"/><polygon class="cls-20" points="1240.302 576.763 1227.353 584.288 1223.887 582.287 1236.836 574.762 1240.302 576.763"/><polygon class="cls-20" points="1268.103 560.651 1255.155 568.176 1251.689 566.175 1264.637 558.65 1268.103 560.651"/><polygon class="cls-20" points="1295.905 544.539 1282.956 552.064 1279.49 550.063 1292.439 542.538 1295.905 544.539"/><polygon class="cls-20" points="1323.706 528.427 1310.758 535.952 1307.292 533.951 1320.241 526.426 1323.706 528.427"/><polygon class="cls-20" points="1351.508 512.315 1338.559 519.84 1335.093 517.839 1348.042 510.314 1351.508 512.315"/><polygon class="cls-20" points="1379.309 496.203 1366.361 503.728 1362.895 501.727 1375.844 494.202 1379.309 496.203"/><polygon class="cls-20" points="1407.111 480.091 1394.162 487.616 1390.696 485.615 1403.645 478.09 1407.111 480.091"/><polygon class="cls-20" points="1434.913 463.979 1421.964 471.504 1418.498 469.503 1431.447 461.978 1434.913 463.979"/></g><polygon class="cls-21" points="1348.398 452.239 1361.851 444.475 1375.307 452.239 1361.851 460.01 1348.398 452.239"/><polygon class="cls-22" points="1375.307 452.239 1361.851 444.475 1348.398 452.239 1349.835 453.071 1361.851 446.161 1373.868 453.071 1375.307 452.239"/><path class="cls-22" d="M1363.112,453.448a2.537,2.537,0,0,1-1.96.826,2.489,2.489,0,0,1-1.689-.826V434.624h3.649Z"/><path class="cls-22" d="M1363.112,434.624h-3.649v11.822l3.649,2.127Z"/><path class="cls-22" d="M1342.574,422.728a18.714,18.714,0,1,1,18.712,18.715A18.714,18.714,0,0,1,1342.574,422.728Z"/><polygon class="cls-21" points="1298.433 422.912 1311.885 415.147 1325.341 422.912 1311.885 430.683 1298.433 422.912"/><polygon class="cls-22" points="1325.341 422.912 1311.885 415.147 1298.433 422.912 1299.87 423.744 1311.885 416.834 1323.903 423.744 1325.341 422.912"/><path class="cls-22" d="M1313.146,424.121a2.531,2.531,0,0,1-1.96.825,2.492,2.492,0,0,1-1.689-.825V405.3h3.649Z"/><path class="cls-22" d="M1313.146,405.3H1309.5v11.822l3.649,2.126Z"/><path class="cls-22" d="M1292.609,393.4a18.714,18.714,0,1,1,18.712,18.714A18.714,18.714,0,0,1,1292.609,393.4Z"/><polygon class="cls-21" points="1248.468 393.585 1261.92 385.82 1275.376 393.585 1261.92 401.355 1248.468 393.585"/><polygon class="cls-22" points="1275.376 393.585 1261.92 385.82 1248.468 393.585 1249.905 394.416 1261.92 387.507 1273.937 394.416 1275.376 393.585"/><path class="cls-22" d="M1263.181,394.793a2.527,2.527,0,0,1-1.96.826,2.492,2.492,0,0,1-1.689-.826V375.97h3.649Z"/><path class="cls-22" d="M1263.181,375.97h-3.649v11.822l3.649,2.126Z"/><path class="cls-22" d="M1242.644,364.073a18.714,18.714,0,1,1,18.712,18.715A18.714,18.714,0,0,1,1242.644,364.073Z"/><polygon class="cls-21" points="1198.503 364.257 1211.955 356.492 1225.411 364.257 1211.955 372.028 1198.503 364.257"/><polygon class="cls-22" points="1225.411 364.257 1211.955 356.492 1198.503 364.257 1199.94 365.089 1211.955 358.179 1223.972 365.089 1225.411 364.257"/><path class="cls-22" d="M1213.216,365.466a2.537,2.537,0,0,1-1.96.826,2.489,2.489,0,0,1-1.689-.826V346.642h3.649Z"/><path class="cls-22" d="M1213.216,346.642h-3.649v11.822l3.649,2.126Z"/><path class="cls-22" d="M1192.679,334.746a18.714,18.714,0,1,1,18.712,18.714A18.714,18.714,0,0,1,1192.679,334.746Z"/><polygon class="cls-21" points="766.739 781.765 780.191 774 793.647 781.765 780.191 789.536 766.739 781.765"/><polygon class="cls-22" points="793.647 781.765 780.191 774 766.739 781.765 768.175 782.597 780.191 775.687 792.208 782.597 793.647 781.765"/><path class="cls-22" d="M781.452,782.974a2.537,2.537,0,0,1-1.96.826,2.489,2.489,0,0,1-1.689-.826V764.15h3.649Z"/><path class="cls-22" d="M781.452,764.15H777.8v11.822l3.649,2.126Z"/><path class="cls-22" d="M760.914,752.254a18.715,18.715,0,1,1,18.713,18.714A18.714,18.714,0,0,1,760.914,752.254Z"/><polygon class="cls-21" points="716.773 752.438 730.226 744.673 743.682 752.438 730.226 760.208 716.773 752.438"/><polygon class="cls-22" points="743.682 752.438 730.226 744.673 716.773 752.438 718.21 753.27 730.226 746.36 742.243 753.27 743.682 752.438"/><path class="cls-22" d="M731.487,753.646a2.53,2.53,0,0,1-1.96.826,2.489,2.489,0,0,1-1.689-.826V734.823h3.649Z"/><path class="cls-22" d="M731.487,734.823h-3.649v11.822l3.649,2.126Z"/><path class="cls-22" d="M710.949,722.926a18.715,18.715,0,1,1,18.712,18.715A18.714,18.714,0,0,1,710.949,722.926Z"/><polygon class="cls-21" points="666.808 723.11 680.26 715.345 693.717 723.11 680.26 730.881 666.808 723.11"/><polygon class="cls-22" points="693.717 723.11 680.26 715.345 666.808 723.11 668.245 723.942 680.26 717.032 692.278 723.942 693.717 723.11"/><path class="cls-22" d="M681.522,724.319a2.537,2.537,0,0,1-1.96.826,2.486,2.486,0,0,1-1.689-.826V705.5h3.649Z"/><path class="cls-22" d="M681.522,705.5h-3.649v11.822l3.649,2.127Z"/><path class="cls-22" d="M660.984,693.6A18.714,18.714,0,1,1,679.7,712.313,18.714,18.714,0,0,1,660.984,693.6Z"/><polygon class="cls-21" points="616.843 693.783 630.295 686.018 643.751 693.783 630.295 701.554 616.843 693.783"/><polygon class="cls-22" points="643.751 693.783 630.295 686.018 616.843 693.783 618.28 694.615 630.295 687.705 642.313 694.615 643.751 693.783"/><path class="cls-22" d="M631.556,694.992a2.534,2.534,0,0,1-1.96.826,2.5,2.5,0,0,1-1.689-.826V676.168h3.649Z"/><path class="cls-22" d="M631.556,676.168h-3.649V687.99l3.649,2.126Z"/><path class="cls-22" d="M611.019,664.272a18.714,18.714,0,1,1,18.712,18.714A18.714,18.714,0,0,1,611.019,664.272Z"/><polygon class="cls-23" points="523.628 462.57 523.643 467.954 593.436 427.659 593.421 422.275 523.628 462.57"/><polygon class="cls-23" points="523.655 472.261 523.671 477.645 593.464 437.35 593.448 431.966 523.655 472.261"/><polygon class="cls-23" points="523.601 452.891 523.616 458.263 593.409 417.967 593.394 412.595 523.601 452.891"/><polygon class="cls-2" points="547.428 418.641 547.456 428.332 593.363 401.828 593.335 392.136 547.428 418.641"/><polygon class="cls-24" points="524.437 416.827 524.464 426.506 593.32 386.752 593.293 377.073 524.437 416.827"/><polygon class="cls-23" points="416.094 521.225 416.109 526.609 485.902 486.314 485.887 480.929 416.094 521.225"/><polygon class="cls-23" points="416.122 530.916 416.137 536.3 485.93 496.005 485.915 490.621 416.122 530.916"/><polygon class="cls-23" points="416.067 511.545 416.082 516.917 485.875 476.622 485.86 471.25 416.067 511.545"/><polygon class="cls-2" points="439.894 477.295 439.922 486.987 485.829 460.482 485.802 450.791 439.894 477.295"/><polygon class="cls-24" points="416.903 475.482 416.931 485.161 485.787 445.407 485.759 435.727 416.903 475.482"/><path class="cls-24" d="M579.994,472.514c10.215-5.9,18.524-1.162,18.558,10.576l-5.792,3.344c-.023-8.069-5.733-11.314-12.747-7.264-.139.08-.271.174-.4.25l-.205-6.531C579.607,472.764,579.793,472.63,579.994,472.514Z"/><path class="cls-2" d="M592.76,486.434l5.792-3.344c.033,11.658-8.292,26.077-18.438,31.935s-18.524,1.083-18.557-10.576c0-.72.026-1.44.087-2.177.7-8.711,5.625-18.521,12.283-25.062l.208-.21c.418-.4.85-.784,1.283-1.167.178-.147.348-.308.525-.455.356-.294.719-.575,1.09-.861.255-.191.518-.4.78-.584.31-.223.627-.423.952-.638.208-.138.425-.281.641-.406l.205,6.531c-6.828,4.191-12.285,13.777-12.262,21.685.023,8.06,5.725,11.318,12.747,7.264S592.783,494.494,592.76,486.434Z"/><path class="cls-24" d="M515.229,511.007c10.216-5.9,18.525-1.163,18.558,10.575L528,524.926c-.023-8.068-5.733-11.313-12.747-7.264-.139.08-.27.174-.4.25l-.2-6.531C514.843,511.256,515.028,511.123,515.229,511.007Z"/><path class="cls-2" d="M528,524.926l5.792-3.344c.033,11.658-8.291,26.077-18.437,31.935s-18.525,1.083-18.558-10.576c0-.72.027-1.439.087-2.177.7-8.71,5.625-18.521,12.283-25.062l.209-.209c.417-.4.85-.785,1.282-1.168.178-.147.348-.308.526-.455.355-.294.717-.577,1.089-.86.254-.193.519-.4.781-.585.31-.222.626-.423.951-.638.209-.138.425-.281.642-.406l.2,6.531c-6.828,4.191-12.284,13.777-12.262,21.685.023,8.06,5.725,11.318,12.747,7.264S528.018,532.986,528,524.926Z"/><path class="cls-24" d="M450.465,549.5c10.215-5.9,18.524-1.163,18.558,10.575l-5.793,3.344c-.022-8.068-5.733-11.313-12.747-7.264-.139.081-.27.174-.4.25l-.2-6.53C450.078,549.749,450.264,549.615,450.465,549.5Z"/><path class="cls-2" d="M463.23,563.418l5.793-3.344c.033,11.659-8.292,26.077-18.438,31.935s-18.525,1.083-18.558-10.576c0-.719.027-1.439.087-2.177.7-8.71,5.625-18.521,12.284-25.062l.208-.209c.417-.4.85-.785,1.283-1.168.177-.147.347-.307.525-.454.355-.3.719-.576,1.09-.861.255-.192.518-.4.78-.584.31-.223.627-.424.951-.638.209-.139.425-.282.642-.407l.2,6.531c-6.828,4.191-12.285,13.777-12.263,21.685.023,8.06,5.726,11.318,12.747,7.265S463.253,571.478,463.23,563.418Z"/><path class="cls-22" d="M844,949.25c-20.521,0-51.013-3.5-79.742-20.2l-249.509-145,2.512-4.322,249.51,145C794.534,940.863,824.091,944.25,844,944.25c19.857,0,49.366-3.37,77.179-19.427L1313.92,698.072l2.5,4.33L923.676,929.153C894.9,945.764,864.466,949.25,844,949.25Zm583.847-311.179-2.5-4.33,69.287-40,2.5,4.33Z"/><path class="cls-22" d="M523.407,775.766c3.9,2.255,3.935,5.917.055,8.172a15.561,15.561,0,0,1-14.116,0c-3.905-2.255-3.935-5.917-.046-8.177A15.557,15.557,0,0,1,523.407,775.766Z"/><path class="cls-22" d="M1500.986,590.841c3.9,2.255,3.935,5.916.056,8.171a15.56,15.56,0,0,1-14.117,0c-3.9-2.254-3.935-5.916-.046-8.176A15.554,15.554,0,0,1,1500.986,590.841Z"/><path class="cls-25" d="M1406.74,684.915a5.007,5.007,0,0,1-4.152.236l-9.168-3.727a46.99,46.99,0,0,1-10.754,2.811l-1.416,6.47c-.2.9-1.5,1.584-3.072,1.6l-4.315.071a4.65,4.65,0,0,1-2.342-.542,1.825,1.825,0,0,1-.89-.987l-1.957-6.38a49.92,49.92,0,0,1-11.061-2.429l-8.895,3.978a5.046,5.046,0,0,1-4.147-.122l-3.138-1.718c-1.164-.671-1.314-1.67-.434-2.4l6.41-5.295a17.024,17.024,0,0,1-4.881-6.242l-11.174-.841a4.429,4.429,0,0,1-1.853-.527,1.641,1.641,0,0,1-.94-1.258l-.129-2.5c-.046-.92,1.076-1.714,2.636-1.871l11-1.108a15.427,15.427,0,0,1,4.158-6.4l-6.9-5.169c-.961-.719-.871-1.741.2-2.4l2.948-1.816a5.014,5.014,0,0,1,4.159-.24l9.169,3.727a47.028,47.028,0,0,1,10.754-2.811l1.415-6.47c.2-.9,1.5-1.58,3.072-1.6l4.316-.07a4.644,4.644,0,0,1,2.341.541,1.828,1.828,0,0,1,.891.988l1.956,6.379a49.615,49.615,0,0,1,11.055,2.433l8.9-3.982a5.077,5.077,0,0,1,4.146.122l3.139,1.718c1.156.667,1.324,1.671.427,2.41l-6.4,5.294a17.111,17.111,0,0,1,4.874,6.239l11.175.841a4.4,4.4,0,0,1,1.853.527,1.639,1.639,0,0,1,.939,1.258l.13,2.5c.046.92-1.077,1.714-2.636,1.871l-11.008,1.113a15.43,15.43,0,0,1-4.151,6.395l6.9,5.173a1.326,1.326,0,0,1-.2,2.394Zm-42.3-13.372c5.65,3.262,14.791,3.266,20.406,0s5.584-8.562-.067-11.824-14.792-3.267-20.413,0-5.577,8.557.074,11.82"/><polygon class="cls-2" points="778.652 440.859 775.652 440.859 775.652 320.666 797.965 307.194 799.516 309.763 778.652 322.359 778.652 440.859"/><path class="cls-2" d="M798.761,313.989a3.34,3.34,0,0,1-1.684-.438,3.974,3.974,0,0,1-1.806-3.6,9.433,9.433,0,0,1,4.337-7.517,3.669,3.669,0,0,1,5.861,3.352,9.424,9.424,0,0,1-4.338,7.507h0A4.782,4.782,0,0,1,798.761,313.989Zm3.207-9.246a1.859,1.859,0,0,0-.86.292,6.458,6.458,0,0,0-2.837,4.911c0,.575.153.919.3,1s.541.046,1.057-.252a6.444,6.444,0,0,0,2.838-4.9c0-.581-.155-.928-.305-1.015A.392.392,0,0,0,801.968,304.743Z"/><polygon class="cls-23" points="950 216.654 950.015 222.038 1019.808 181.743 1019.793 176.359 950 216.654"/><polygon class="cls-23" points="950.027 226.345 950.042 231.729 1019.836 191.434 1019.82 186.05 950.027 226.345"/><polygon class="cls-23" points="949.972 206.974 949.987 212.346 1019.781 172.051 1019.765 166.679 949.972 206.974"/><polygon class="cls-2" points="950.99 187.388 951.017 197.08 996.925 170.575 996.897 160.884 950.99 187.388"/><polygon class="cls-24" points="950.809 170.911 950.836 180.59 1019.692 140.836 1019.665 131.157 950.809 170.911"/><polygon class="cls-26" points="830.852 222.788 831.166 333.604 823.75 337.886 823.436 227.069 830.852 222.788"/><polygon class="cls-23" points="843.684 255.023 843.886 326.26 836.471 330.542 836.269 259.304 843.684 255.023"/><polygon class="cls-2" points="856.328 220.688 856.607 318.916 849.182 323.203 848.903 224.975 856.328 220.688"/><polygon class="cls-23" points="869.202 270.99 869.318 311.577 861.902 315.859 861.787 275.271 869.202 270.99"/><polygon class="cls-26" points="881.724 193.417 882.038 304.233 874.622 308.515 874.308 197.698 881.724 193.417"/><polygon class="cls-23" points="894.521 213.267 894.758 296.889 887.343 301.17 887.106 217.548 894.521 213.267"/><polygon class="cls-2" points="907.2 191.317 907.479 289.545 900.054 293.832 899.775 195.604 907.2 191.317"/><polygon class="cls-23" points="920.121 257.856 920.19 282.206 912.774 286.488 912.705 262.137 920.121 257.856"/><path class="cls-25" d="M674.342,430.3a5.055,5.055,0,0,1,1.966-3.649l7.91-5.75a49.611,49.611,0,0,1,3.412-10.756l-4.58-4.819c-.649-.682-.531-2.2.283-3.555l2.218-3.7a4.52,4.52,0,0,1,1.55-1.61,1.759,1.759,0,0,1,1.382-.255l6.344,1.944a47.424,47.424,0,0,1,7.822-7.938l1.336-9.762a5.047,5.047,0,0,1,2.28-3.47l3.062-1.674c1.109-.609,2.037-.181,2.184,1.01l1.06,8.5a15.575,15.575,0,0,1,7.645-.467l6.47-8.982a4.326,4.326,0,0,1,1.3-1.228,1.586,1.586,0,0,1,1.645-.137l2.11,1.343c.772.478.837,1.882.159,3.283l-4.851,10.084a16.877,16.877,0,0,1,3,7.283l7.809-2.942c1.11-.422,1.909.237,1.886,1.543l-.072,3.565a5.055,5.055,0,0,1-1.966,3.641l-7.917,5.761a49.232,49.232,0,0,1-3.4,10.753l4.58,4.819c.65.683.525,2.2-.289,3.559l-2.212,3.7a4.559,4.559,0,0,1-1.553,1.612,1.754,1.754,0,0,1-1.379.253l-6.344-1.944a47.462,47.462,0,0,1-7.822,7.938l-1.335,9.754a5.072,5.072,0,0,1-2.287,3.482l-3.056,1.67c-1.109.6-2.044.185-2.19-1.007l-1.054-8.507a15.564,15.564,0,0,1-7.652.471l-6.463,8.978a4.287,4.287,0,0,1-1.295,1.22,1.594,1.594,0,0,1-1.652.137l-2.11-1.335c-.771-.486-.837-1.882-.159-3.291l4.851-10.076a16.771,16.771,0,0,1-3-7.283l-7.816,2.946c-1.1.418-1.909-.237-1.878-1.554Zm32.7-4.31c5.654-3.265,10.218-11.171,10.2-17.668s-4.613-9.108-10.267-5.843-10.212,11.167-10.194,17.656,4.613,9.116,10.261,5.855"/><polygon class="cls-27" points="1205.126 209.882 1205.126 557.039 1263.565 523.437 1263.565 176.28 1205.126 209.882"/><polygon class="cls-28" points="1205.158 209.882 1205.158 557.039 1147.533 523.445 1147.533 176.324 1205.158 209.882"/><polygon class="cls-29" points="1147.533 176.324 1205.158 209.882 1263.565 176.28 1205.878 142.686 1147.533 176.324"/><polygon class="cls-30" points="1205.286 172.624 1205.286 198.997 1241.703 178.058 1241.703 151.684 1205.286 172.624"/><polygon class="cls-31" points="1205.305 172.624 1205.305 198.997 1169.395 178.063 1169.395 151.712 1205.305 172.624"/><polygon class="cls-2" points="1175.399 176.255 1175.399 161.011 1178.737 162.987 1178.737 178.233 1175.399 176.255"/><polygon class="cls-2" points="1185.268 182.056 1185.268 166.809 1188.558 168.737 1188.558 183.988 1185.268 182.056"/><polygon class="cls-2" points="1195.137 187.858 1195.137 172.606 1198.378 174.489 1198.378 189.744 1195.137 187.858"/><polygon class="cls-2" points="1232.149 162.73 1235.315 160.969 1235.315 176.24 1232.149 178.004 1232.149 162.73"/><polygon class="cls-2" points="1222.242 168.611 1225.483 166.782 1225.483 182.047 1222.242 183.879 1222.242 168.611"/><polygon class="cls-2" points="1212.337 174.493 1215.65 172.595 1215.65 187.854 1212.337 189.753 1212.337 174.493"/><polygon class="cls-32" points="1169.395 151.712 1205.305 172.624 1241.703 151.684 1205.754 130.75 1169.395 151.712"/><polygon class="cls-33" points="1205.623 156.773 1205.623 164.075 1223.501 153.795 1223.501 146.493 1205.623 156.773"/><polygon class="cls-34" points="1205.633 156.773 1205.633 164.075 1188.004 153.798 1188.004 146.507 1205.633 156.773"/><polygon class="cls-35" points="1188.004 146.507 1205.633 156.773 1223.501 146.493 1205.854 136.216 1188.004 146.507"/><polygon class="cls-2" points="1220.032 217.295 1215.332 220.009 1215.332 214.615 1220.032 211.901 1220.032 217.295"/><polygon class="cls-2" points="1228.862 212.197 1224.161 214.91 1224.161 209.516 1228.862 206.803 1228.862 212.197"/><polygon class="cls-2" points="1237.693 207.098 1232.992 209.812 1232.992 204.419 1237.693 201.705 1237.693 207.098"/><polygon class="cls-2" points="1246.523 202.001 1241.822 204.714 1241.822 199.32 1246.523 196.606 1246.523 202.001"/><polygon class="cls-2" points="1255.353 196.902 1250.652 199.616 1250.652 194.222 1255.353 191.508 1255.353 196.902"/><polygon class="cls-2" points="1220.032 237.228 1215.332 239.942 1215.332 234.548 1220.032 231.834 1220.032 237.228"/><polygon class="cls-2" points="1228.862 232.13 1224.161 234.844 1224.161 229.45 1228.862 226.736 1228.862 232.13"/><polygon class="cls-2" points="1237.693 227.032 1232.992 229.746 1232.992 224.352 1237.693 221.638 1237.693 227.032"/><polygon class="cls-2" points="1246.523 221.934 1241.822 224.648 1241.822 219.254 1246.523 216.54 1246.523 221.934"/><polygon class="cls-2" points="1255.353 216.836 1250.652 219.55 1250.652 214.156 1255.353 211.442 1255.353 216.836"/><polygon class="cls-2" points="1220.032 257.162 1215.332 259.875 1215.332 254.482 1220.032 251.768 1220.032 257.162"/><polygon class="cls-2" points="1228.862 252.063 1224.161 254.777 1224.161 249.383 1228.862 246.67 1228.862 252.063"/><polygon class="cls-2" points="1237.693 246.965 1232.992 249.679 1232.992 244.286 1237.693 241.572 1237.693 246.965"/><polygon class="cls-2" points="1246.523 241.867 1241.822 244.581 1241.822 239.187 1246.523 236.473 1246.523 241.867"/><polygon class="cls-2" points="1255.353 236.769 1250.652 239.483 1250.652 234.089 1255.353 231.375 1255.353 236.769"/><polygon class="cls-2" points="1220.032 277.095 1215.332 279.809 1215.332 274.415 1220.032 271.701 1220.032 277.095"/><polygon class="cls-2" points="1228.862 271.997 1224.161 274.711 1224.161 269.317 1228.862 266.603 1228.862 271.997"/><polygon class="cls-2" points="1237.693 266.899 1232.992 269.613 1232.992 264.219 1237.693 261.505 1237.693 266.899"/><polygon class="cls-2" points="1246.523 261.801 1241.822 264.514 1241.822 259.121 1246.523 256.407 1246.523 261.801"/><polygon class="cls-2" points="1255.353 256.703 1250.652 259.417 1250.652 254.023 1255.353 251.309 1255.353 256.703"/><polygon class="cls-2" points="1220.032 297.029 1215.332 299.742 1215.332 294.348 1220.032 291.635 1220.032 297.029"/><polygon class="cls-2" points="1228.862 291.93 1224.161 294.644 1224.161 289.25 1228.862 286.536 1228.862 291.93"/><polygon class="cls-2" points="1237.693 286.832 1232.992 289.546 1232.992 284.152 1237.693 281.439 1237.693 286.832"/><polygon class="cls-2" points="1246.523 281.734 1241.822 284.448 1241.822 279.054 1246.523 276.34 1246.523 281.734"/><polygon class="cls-2" points="1255.353 276.636 1250.652 279.35 1250.652 273.956 1255.353 271.242 1255.353 276.636"/><polygon class="cls-2" points="1220.032 316.962 1215.332 319.676 1215.332 314.282 1220.032 311.568 1220.032 316.962"/><polygon class="cls-2" points="1228.862 311.864 1224.161 314.578 1224.161 309.184 1228.862 306.47 1228.862 311.864"/><polygon class="cls-2" points="1237.693 306.766 1232.992 309.48 1232.992 304.086 1237.693 301.372 1237.693 306.766"/><polygon class="cls-2" points="1246.523 301.668 1241.822 304.381 1241.822 298.988 1246.523 296.274 1246.523 301.668"/><polygon class="cls-2" points="1255.353 296.57 1250.652 299.284 1250.652 293.89 1255.353 291.176 1255.353 296.57"/><polygon class="cls-2" points="1220.032 336.896 1215.332 339.609 1215.332 334.215 1220.032 331.501 1220.032 336.896"/><polygon class="cls-2" points="1228.862 331.797 1224.161 334.511 1224.161 329.117 1228.862 326.403 1228.862 331.797"/><polygon class="cls-2" points="1237.693 326.699 1232.992 329.413 1232.992 324.019 1237.693 321.305 1237.693 326.699"/><polygon class="cls-2" points="1246.523 321.601 1241.822 324.315 1241.822 318.921 1246.523 316.207 1246.523 321.601"/><polygon class="cls-2" points="1255.353 316.503 1250.652 319.217 1250.652 313.823 1255.353 311.109 1255.353 316.503"/><polygon class="cls-2" points="1220.032 356.829 1215.332 359.543 1215.332 354.149 1220.032 351.435 1220.032 356.829"/><polygon class="cls-2" points="1228.862 351.731 1224.161 354.445 1224.161 349.051 1228.862 346.337 1228.862 351.731"/><polygon class="cls-2" points="1237.693 346.633 1232.992 349.347 1232.992 343.953 1237.693 341.239 1237.693 346.633"/><polygon class="cls-2" points="1246.523 341.535 1241.822 344.248 1241.822 338.855 1246.523 336.141 1246.523 341.535"/><polygon class="cls-2" points="1255.353 336.436 1250.652 339.15 1250.652 333.756 1255.353 331.043 1255.353 336.436"/><polygon class="cls-2" points="1220.032 376.762 1215.332 379.476 1215.332 374.082 1220.032 371.368 1220.032 376.762"/><polygon class="cls-2" points="1228.862 371.664 1224.161 374.378 1224.161 368.984 1228.862 366.27 1228.862 371.664"/><polygon class="cls-2" points="1237.693 366.566 1232.992 369.28 1232.992 363.886 1237.693 361.172 1237.693 366.566"/><polygon class="cls-2" points="1246.523 361.468 1241.822 364.182 1241.822 358.788 1246.523 356.074 1246.523 361.468"/><polygon class="cls-2" points="1255.353 356.37 1250.652 359.084 1250.652 353.69 1255.353 350.976 1255.353 356.37"/><polygon class="cls-2" points="1220.032 396.696 1215.332 399.41 1215.332 394.016 1220.032 391.302 1220.032 396.696"/><polygon class="cls-2" points="1228.862 391.598 1224.161 394.312 1224.161 388.918 1228.862 386.204 1228.862 391.598"/><polygon class="cls-2" points="1237.693 386.499 1232.992 389.213 1232.992 383.82 1237.693 381.106 1237.693 386.499"/><polygon class="cls-2" points="1246.523 381.402 1241.822 384.115 1241.822 378.721 1246.523 376.008 1246.523 381.402"/><polygon class="cls-2" points="1255.353 376.303 1250.652 379.017 1250.652 373.623 1255.353 370.909 1255.353 376.303"/><polygon class="cls-2" points="1220.032 416.629 1215.332 419.343 1215.332 413.949 1220.032 411.235 1220.032 416.629"/><polygon class="cls-2" points="1228.862 411.531 1224.161 414.245 1224.161 408.851 1228.862 406.137 1228.862 411.531"/><polygon class="cls-2" points="1237.693 406.433 1232.992 409.147 1232.992 403.753 1237.693 401.039 1237.693 406.433"/><polygon class="cls-2" points="1246.523 401.335 1241.822 404.049 1241.822 398.655 1246.523 395.941 1246.523 401.335"/><polygon class="cls-2" points="1255.353 396.237 1250.652 398.951 1250.652 393.557 1255.353 390.843 1255.353 396.237"/><polygon class="cls-2" points="1220.032 436.563 1215.332 439.277 1215.332 433.883 1220.032 431.169 1220.032 436.563"/><polygon class="cls-2" points="1228.862 431.465 1224.161 434.178 1224.161 428.784 1228.862 426.071 1228.862 431.465"/><polygon class="cls-2" points="1237.693 426.366 1232.992 429.08 1232.992 423.687 1237.693 420.973 1237.693 426.366"/><polygon class="cls-2" points="1246.523 421.269 1241.822 423.982 1241.822 418.588 1246.523 415.875 1246.523 421.269"/><polygon class="cls-2" points="1255.353 416.17 1250.652 418.884 1250.652 413.49 1255.353 410.776 1255.353 416.17"/><polygon class="cls-2" points="1220.032 456.496 1215.332 459.21 1215.332 453.816 1220.032 451.102 1220.032 456.496"/><polygon class="cls-2" points="1228.862 451.398 1224.161 454.112 1224.161 448.718 1228.862 446.004 1228.862 451.398"/><polygon class="cls-2" points="1237.693 446.3 1232.992 449.014 1232.992 443.62 1237.693 440.906 1237.693 446.3"/><polygon class="cls-2" points="1246.523 441.202 1241.822 443.916 1241.822 438.522 1246.523 435.808 1246.523 441.202"/><polygon class="cls-2" points="1255.353 436.104 1250.652 438.818 1250.652 433.424 1255.353 430.71 1255.353 436.104"/><polygon class="cls-2" points="1220.032 476.43 1215.332 479.144 1215.332 473.749 1220.032 471.036 1220.032 476.43"/><polygon class="cls-2" points="1228.862 471.331 1224.161 474.045 1224.161 468.651 1228.862 465.937 1228.862 471.331"/><polygon class="cls-2" points="1237.693 466.233 1232.992 468.947 1232.992 463.553 1237.693 460.84 1237.693 466.233"/><polygon class="cls-2" points="1246.523 461.135 1241.822 463.849 1241.822 458.455 1246.523 455.741 1246.523 461.135"/><polygon class="cls-2" points="1255.353 456.037 1250.652 458.751 1250.652 453.357 1255.353 450.643 1255.353 456.037"/><polygon class="cls-2" points="1220.032 496.363 1215.332 499.077 1215.332 493.683 1220.032 490.969 1220.032 496.363"/><polygon class="cls-2" points="1228.862 491.265 1224.161 493.979 1224.161 488.585 1228.862 485.871 1228.862 491.265"/><polygon class="cls-2" points="1237.693 486.167 1232.992 488.881 1232.992 483.487 1237.693 480.773 1237.693 486.167"/><polygon class="cls-2" points="1246.523 481.069 1241.822 483.782 1241.822 478.389 1246.523 475.675 1246.523 481.069"/><polygon class="cls-2" points="1255.353 475.971 1250.652 478.685 1250.652 473.291 1255.353 470.577 1255.353 475.971"/><polygon class="cls-2" points="1220.032 516.297 1215.332 519.01 1215.332 513.616 1220.032 510.902 1220.032 516.297"/><polygon class="cls-2" points="1228.862 511.198 1224.161 513.912 1224.161 508.518 1228.862 505.804 1228.862 511.198"/><polygon class="cls-2" points="1237.693 506.1 1232.992 508.814 1232.992 503.42 1237.693 500.706 1237.693 506.1"/><polygon class="cls-2" points="1246.523 501.002 1241.822 503.716 1241.822 498.322 1246.523 495.608 1246.523 501.002"/><polygon class="cls-2" points="1255.353 495.904 1250.652 498.618 1250.652 493.224 1255.353 490.51 1255.353 495.904"/><polygon class="cls-2" points="1220.032 536.23 1215.332 538.944 1215.332 533.55 1220.032 530.836 1220.032 536.23"/><polygon class="cls-2" points="1228.862 531.132 1224.161 533.846 1224.161 528.452 1228.862 525.738 1228.862 531.132"/><polygon class="cls-2" points="1237.693 526.034 1232.992 528.748 1232.992 523.354 1237.693 520.64 1237.693 526.034"/><polygon class="cls-2" points="1246.523 520.936 1241.822 523.649 1241.822 518.256 1246.523 515.542 1246.523 520.936"/><polygon class="cls-2" points="1255.353 515.838 1250.652 518.552 1250.652 513.157 1255.353 510.444 1255.353 515.838"/><polygon class="cls-2" points="1191.524 217.295 1196.225 220.009 1196.225 214.615 1191.524 211.901 1191.524 217.295"/><polygon class="cls-2" points="1182.694 212.197 1187.395 214.91 1187.395 209.516 1182.694 206.803 1182.694 212.197"/><polygon class="cls-2" points="1173.864 207.098 1178.565 209.812 1178.565 204.419 1173.864 201.705 1173.864 207.098"/><polygon class="cls-2" points="1165.034 202.001 1169.734 204.714 1169.734 199.32 1165.034 196.606 1165.034 202.001"/><polygon class="cls-2" points="1156.204 196.902 1193.776 218.145 1193.505 212.986 1156.204 191.508 1156.204 196.902"/><polygon class="cls-2" points="1156.204 223.582 1193.776 244.825 1193.505 239.665 1156.204 218.188 1156.204 223.582"/><polygon class="cls-2" points="1156.204 250.262 1193.776 271.505 1193.505 266.345 1156.204 244.868 1156.204 250.262"/><polygon class="cls-2" points="1156.204 276.942 1193.776 298.184 1193.505 293.025 1156.204 271.548 1156.204 276.942"/><polygon class="cls-2" points="1156.204 303.621 1193.776 324.864 1193.505 319.705 1156.204 298.227 1156.204 303.621"/><polygon class="cls-2" points="1156.204 330.301 1193.776 351.544 1193.505 346.384 1156.204 324.907 1156.204 330.301"/><polygon class="cls-2" points="1156.204 356.981 1193.776 378.224 1193.505 373.064 1156.204 351.587 1156.204 356.981"/><polygon class="cls-2" points="1156.204 383.661 1193.776 404.904 1193.505 399.744 1156.204 378.267 1156.204 383.661"/><polygon class="cls-2" points="1156.204 410.34 1193.776 431.583 1193.505 426.424 1156.204 404.947 1156.204 410.34"/><polygon class="cls-2" points="1156.204 437.02 1193.776 458.263 1193.505 453.104 1156.204 431.626 1156.204 437.02"/><polygon class="cls-2" points="1156.204 463.7 1193.776 484.943 1193.505 479.783 1156.204 458.306 1156.204 463.7"/><polygon class="cls-2" points="1156.204 490.38 1193.776 511.623 1193.505 506.463 1156.204 484.986 1156.204 490.38"/><polygon class="cls-2" points="1156.204 517.06 1193.776 538.302 1193.505 533.143 1156.204 511.666 1156.204 517.06"/><polygon class="cls-36" points="1034.981 645.989 1110.574 602.528 1110.574 318.452 1034.981 361.918 1034.981 645.989"/><polygon class="cls-37" points="960.482 602.528 1035.022 645.989 1035.022 361.918 960.482 318.51 960.482 602.528"/><polygon class="cls-38" points="960.482 602.528 1035.022 645.989 1035.022 361.918 960.482 318.51 960.482 602.528"/><polygon class="cls-39" points="960.482 318.51 1035.022 361.918 1110.574 318.452 1035.954 274.998 960.482 318.51"/><polygon class="cls-40" points="1035.105 352.584 1093.485 319.02 1093.485 301.347 1035.105 334.914 1035.105 352.584"/><polygon class="cls-41" points="977.571 319.02 1035.137 352.584 1035.137 334.914 977.571 301.391 977.571 319.02"/><polygon class="cls-42" points="977.571 301.391 1035.137 334.914 1093.485 301.347 1035.857 267.788 977.571 301.391"/><polygon class="cls-43" points="1035.231 325.409 1076.288 301.804 1076.288 284.716 1035.231 308.323 1035.231 325.409"/><polygon class="cls-44" points="994.769 301.804 1035.253 325.409 1035.253 308.323 994.769 284.747 994.769 301.804"/><polygon class="cls-45" points="994.769 284.747 1035.253 308.323 1076.288 284.716 1035.76 261.115 994.769 284.747"/><polygon class="cls-46" points="1035.342 299.009 1061.005 284.255 1061.005 267.362 1035.342 282.118 1035.342 299.009"/><polygon class="cls-47" points="1010.051 284.255 1035.356 299.009 1035.356 282.118 1010.051 267.382 1010.051 284.255"/><polygon class="cls-48" points="1010.051 267.382 1035.356 282.118 1061.005 267.362 1035.673 252.61 1010.051 267.382"/><polygon class="cls-49" points="1003.698 644.715 1017.947 636.877 1017.947 373.19 1003.698 381.03 1003.698 644.715"/><polygon class="cls-50" points="967.399 623.538 1003.718 644.715 1003.718 381.03 967.399 359.879 967.399 623.538"/><polygon class="cls-51" points="967.399 359.879 1003.718 381.03 1017.947 373.189 981.589 352.017 967.399 359.879"/><polygon class="cls-2" points="1052.732 371.938 1048.546 374.354 1048.546 369.552 1052.732 367.136 1052.732 371.938"/><polygon class="cls-2" points="1060.594 367.399 1056.408 369.815 1056.408 365.012 1060.594 362.596 1060.594 367.399"/><polygon class="cls-2" points="1068.456 362.86 1064.271 365.276 1064.271 360.474 1068.456 358.057 1068.456 362.86"/><polygon class="cls-2" points="1076.318 358.321 1072.133 360.737 1072.133 355.934 1076.318 353.518 1076.318 358.321"/><polygon class="cls-2" points="1084.18 353.781 1079.995 356.198 1079.995 351.395 1084.18 348.979 1084.18 353.781"/><polygon class="cls-2" points="1092.042 349.242 1087.857 351.659 1087.857 346.856 1092.042 344.44 1092.042 349.242"/><polygon class="cls-2" points="1099.904 344.703 1095.719 347.119 1095.719 342.317 1099.904 339.9 1099.904 344.703"/><polygon class="cls-2" points="1052.732 382.103 1048.546 384.52 1048.546 379.717 1052.732 377.301 1052.732 382.103"/><polygon class="cls-2" points="1060.594 377.564 1056.408 379.98 1056.408 375.178 1060.594 372.761 1060.594 377.564"/><polygon class="cls-2" points="1068.456 373.025 1064.271 375.441 1064.271 370.639 1068.456 368.222 1068.456 373.025"/><polygon class="cls-2" points="1076.318 368.486 1072.133 370.902 1072.133 366.1 1076.318 363.683 1076.318 368.486"/><polygon class="cls-2" points="1084.18 363.947 1079.995 366.363 1079.995 361.56 1084.18 359.144 1084.18 363.947"/><polygon class="cls-2" points="1092.042 359.408 1087.857 361.824 1087.857 357.021 1092.042 354.605 1092.042 359.408"/><polygon class="cls-2" points="1099.904 354.868 1095.719 357.285 1095.719 352.482 1099.904 350.066 1099.904 354.868"/><polygon class="cls-2" points="1052.732 392.269 1048.546 394.685 1048.546 389.883 1052.732 387.466 1052.732 392.269"/><polygon class="cls-2" points="1060.594 387.729 1056.408 390.146 1056.408 385.343 1060.594 382.927 1060.594 387.729"/><polygon class="cls-2" points="1068.456 383.19 1064.271 385.607 1064.271 380.804 1068.456 378.388 1068.456 383.19"/><polygon class="cls-2" points="1076.318 378.651 1072.133 381.067 1072.133 376.265 1076.318 373.848 1076.318 378.651"/><polygon class="cls-2" points="1084.18 374.112 1079.995 376.528 1079.995 371.726 1084.18 369.309 1084.18 374.112"/><polygon class="cls-2" points="1092.042 369.572 1087.857 371.989 1087.857 367.187 1092.042 364.77 1092.042 369.572"/><polygon class="cls-2" points="1099.904 365.034 1095.719 367.45 1095.719 362.647 1099.904 360.231 1099.904 365.034"/><polygon class="cls-2" points="1052.732 402.434 1048.546 404.85 1048.546 400.048 1052.732 397.631 1052.732 402.434"/><polygon class="cls-2" points="1060.594 397.895 1056.408 400.311 1056.408 395.509 1060.594 393.092 1060.594 397.895"/><polygon class="cls-2" points="1068.456 393.356 1064.271 395.772 1064.271 390.969 1068.456 388.553 1068.456 393.356"/><polygon class="cls-2" points="1076.318 388.816 1072.133 391.233 1072.133 386.43 1076.318 384.014 1076.318 388.816"/><polygon class="cls-2" points="1084.18 384.277 1079.995 386.694 1079.995 381.891 1084.18 379.474 1084.18 384.277"/><polygon class="cls-2" points="1092.042 379.738 1087.857 382.154 1087.857 377.352 1092.042 374.935 1092.042 379.738"/><polygon class="cls-2" points="1099.904 375.199 1095.719 377.615 1095.719 372.813 1099.904 370.396 1099.904 375.199"/><polygon class="cls-2" points="1052.732 412.599 1048.546 415.015 1048.546 410.213 1052.732 407.796 1052.732 412.599"/><polygon class="cls-2" points="1060.594 408.06 1056.408 410.476 1056.408 405.674 1060.594 403.258 1060.594 408.06"/><polygon class="cls-2" points="1068.456 403.521 1064.271 405.937 1064.271 401.134 1068.456 398.718 1068.456 403.521"/><polygon class="cls-2" points="1076.318 398.982 1072.133 401.398 1072.133 396.595 1076.318 394.179 1076.318 398.982"/><polygon class="cls-2" points="1084.18 394.443 1079.995 396.859 1079.995 392.056 1084.18 389.64 1084.18 394.443"/><polygon class="cls-2" points="1092.042 389.903 1087.857 392.32 1087.857 387.517 1092.042 385.101 1092.042 389.903"/><polygon class="cls-2" points="1099.904 385.364 1095.719 387.78 1095.719 382.978 1099.904 380.561 1099.904 385.364"/><polygon class="cls-2" points="1052.732 422.764 1048.546 425.181 1048.546 420.378 1052.732 417.962 1052.732 422.764"/><polygon class="cls-2" points="1060.594 418.225 1056.408 420.642 1056.408 415.839 1060.594 413.422 1060.594 418.225"/><polygon class="cls-2" points="1068.456 413.686 1064.271 416.102 1064.271 411.3 1068.456 408.883 1068.456 413.686"/><polygon class="cls-2" points="1076.318 409.147 1072.133 411.563 1072.133 406.761 1076.318 404.344 1076.318 409.147"/><polygon class="cls-2" points="1084.18 404.608 1079.995 407.024 1079.995 402.222 1084.18 399.805 1084.18 404.608"/><polygon class="cls-2" points="1092.042 400.069 1087.857 402.485 1087.857 397.682 1092.042 395.266 1092.042 400.069"/><polygon class="cls-2" points="1099.904 395.529 1095.719 397.946 1095.719 393.143 1099.904 390.727 1099.904 395.529"/><polygon class="cls-2" points="1052.732 432.93 1048.546 435.346 1048.546 430.544 1052.732 428.127 1052.732 432.93"/><polygon class="cls-2" points="1060.594 428.39 1056.408 430.807 1056.408 426.004 1060.594 423.588 1060.594 428.39"/><polygon class="cls-2" points="1068.456 423.851 1064.271 426.268 1064.271 421.465 1068.456 419.049 1068.456 423.851"/><polygon class="cls-2" points="1076.318 419.312 1072.133 421.728 1072.133 416.926 1076.318 414.509 1076.318 419.312"/><polygon class="cls-2" points="1084.18 414.773 1079.995 417.189 1079.995 412.387 1084.18 409.97 1084.18 414.773"/><polygon class="cls-2" points="1092.042 410.234 1087.857 412.65 1087.857 407.848 1092.042 405.431 1092.042 410.234"/><polygon class="cls-2" points="1099.904 405.695 1095.719 408.111 1095.719 403.308 1099.904 400.892 1099.904 405.695"/><polygon class="cls-2" points="1052.732 443.095 1048.546 445.511 1048.546 440.709 1052.732 438.293 1052.732 443.095"/><polygon class="cls-2" points="1060.594 438.556 1056.408 440.972 1056.408 436.169 1060.594 433.753 1060.594 438.556"/><polygon class="cls-2" points="1068.456 434.017 1064.271 436.433 1064.271 431.63 1068.456 429.214 1068.456 434.017"/><polygon class="cls-2" points="1076.318 429.477 1072.133 431.894 1072.133 427.091 1076.318 424.675 1076.318 429.477"/><polygon class="cls-2" points="1084.18 424.938 1079.995 427.355 1079.995 422.552 1084.18 420.136 1084.18 424.938"/><polygon class="cls-2" points="1092.042 420.399 1087.857 422.815 1087.857 418.013 1092.042 415.596 1092.042 420.399"/><polygon class="cls-2" points="1099.904 415.86 1095.719 418.276 1095.719 413.474 1099.904 411.057 1099.904 415.86"/><polygon class="cls-2" points="1052.732 453.26 1048.546 455.676 1048.546 450.874 1052.732 448.457 1052.732 453.26"/><polygon class="cls-2" points="1060.594 448.721 1056.408 451.137 1056.408 446.335 1060.594 443.918 1060.594 448.721"/><polygon class="cls-2" points="1068.456 444.182 1064.271 446.598 1064.271 441.796 1068.456 439.379 1068.456 444.182"/><polygon class="cls-2" points="1076.318 439.643 1072.133 442.059 1072.133 437.256 1076.318 434.84 1076.318 439.643"/><polygon class="cls-2" points="1084.18 435.104 1079.995 437.52 1079.995 432.717 1084.18 430.301 1084.18 435.104"/><polygon class="cls-2" points="1092.042 430.564 1087.857 432.98 1087.857 428.178 1092.042 425.762 1092.042 430.564"/><polygon class="cls-2" points="1099.904 426.025 1095.719 428.441 1095.719 423.639 1099.904 421.222 1099.904 426.025"/><polygon class="cls-2" points="1052.732 463.425 1048.546 465.842 1048.546 461.039 1052.732 458.623 1052.732 463.425"/><polygon class="cls-2" points="1060.594 458.886 1056.408 461.303 1056.408 456.5 1060.594 454.084 1060.594 458.886"/><polygon class="cls-2" points="1068.456 454.347 1064.271 456.763 1064.271 451.961 1068.456 449.545 1068.456 454.347"/><polygon class="cls-2" points="1076.318 449.808 1072.133 452.224 1072.133 447.422 1076.318 445.005 1076.318 449.808"/><polygon class="cls-2" points="1084.18 445.269 1079.995 447.685 1079.995 442.883 1084.18 440.466 1084.18 445.269"/><polygon class="cls-2" points="1092.042 440.73 1087.857 443.146 1087.857 438.343 1092.042 435.927 1092.042 440.73"/><polygon class="cls-2" points="1099.904 436.19 1095.719 438.607 1095.719 433.804 1099.904 431.388 1099.904 436.19"/><polygon class="cls-2" points="1052.732 473.591 1048.546 476.007 1048.546 471.204 1052.732 468.788 1052.732 473.591"/><polygon class="cls-2" points="1060.594 469.051 1056.408 471.468 1056.408 466.665 1060.594 464.249 1060.594 469.051"/><polygon class="cls-2" points="1068.456 464.512 1064.271 466.929 1064.271 462.126 1068.456 459.71 1068.456 464.512"/><polygon class="cls-2" points="1076.318 459.973 1072.133 462.39 1072.133 457.587 1076.318 455.17 1076.318 459.973"/><polygon class="cls-2" points="1084.18 455.434 1079.995 457.85 1079.995 453.048 1084.18 450.631 1084.18 455.434"/><polygon class="cls-2" points="1092.042 450.895 1087.857 453.311 1087.857 448.509 1092.042 446.092 1092.042 450.895"/><polygon class="cls-2" points="1099.904 446.356 1095.719 448.772 1095.719 443.969 1099.904 441.553 1099.904 446.356"/><polygon class="cls-2" points="1052.732 483.756 1048.546 486.172 1048.546 481.37 1052.732 478.953 1052.732 483.756"/><polygon class="cls-2" points="1060.594 479.217 1056.408 481.633 1056.408 476.83 1060.594 474.414 1060.594 479.217"/><polygon class="cls-2" points="1068.456 474.678 1064.271 477.094 1064.271 472.291 1068.456 469.875 1068.456 474.678"/><polygon class="cls-2" points="1076.318 470.138 1072.133 472.555 1072.133 467.752 1076.318 465.336 1076.318 470.138"/><polygon class="cls-2" points="1084.18 465.599 1079.995 468.015 1079.995 463.213 1084.18 460.797 1084.18 465.599"/><polygon class="cls-2" points="1092.042 461.06 1087.857 463.476 1087.857 458.674 1092.042 456.258 1092.042 461.06"/><polygon class="cls-2" points="1099.904 456.521 1095.719 458.937 1095.719 454.135 1099.904 451.718 1099.904 456.521"/><polygon class="cls-2" points="1052.732 493.921 1048.546 496.337 1048.546 491.535 1052.732 489.119 1052.732 493.921"/><polygon class="cls-2" points="1060.594 489.382 1056.408 491.798 1056.408 486.996 1060.594 484.579 1060.594 489.382"/><polygon class="cls-2" points="1068.456 484.843 1064.271 487.259 1064.271 482.457 1068.456 480.04 1068.456 484.843"/><polygon class="cls-2" points="1076.318 480.304 1072.133 482.72 1072.133 477.917 1076.318 475.501 1076.318 480.304"/><polygon class="cls-2" points="1084.18 475.765 1079.995 478.181 1079.995 473.378 1084.18 470.962 1084.18 475.765"/><polygon class="cls-2" points="1092.042 471.225 1087.857 473.641 1087.857 468.839 1092.042 466.423 1092.042 471.225"/><polygon class="cls-2" points="1099.904 466.686 1095.719 469.102 1095.719 464.3 1099.904 461.884 1099.904 466.686"/><polygon class="cls-2" points="1052.732 504.086 1048.546 506.503 1048.546 501.7 1052.732 499.284 1052.732 504.086"/><polygon class="cls-2" points="1060.594 499.547 1056.408 501.964 1056.408 497.161 1060.594 494.744 1060.594 499.547"/><polygon class="cls-2" points="1068.456 495.008 1064.271 497.424 1064.271 492.622 1068.456 490.206 1068.456 495.008"/><polygon class="cls-2" points="1076.318 490.469 1072.133 492.885 1072.133 488.083 1076.318 485.666 1076.318 490.469"/><polygon class="cls-2" points="1084.18 485.93 1079.995 488.346 1079.995 483.544 1084.18 481.127 1084.18 485.93"/><polygon class="cls-2" points="1092.042 481.39 1087.857 483.807 1087.857 479.004 1092.042 476.588 1092.042 481.39"/><polygon class="cls-2" points="1099.904 476.851 1095.719 479.268 1095.719 474.465 1099.904 472.049 1099.904 476.851"/><polygon class="cls-2" points="1052.732 514.252 1048.546 516.668 1048.546 511.865 1052.732 509.449 1052.732 514.252"/><polygon class="cls-2" points="1060.594 509.712 1056.408 512.129 1056.408 507.326 1060.594 504.91 1060.594 509.712"/><polygon class="cls-2" points="1068.456 505.173 1064.271 507.59 1064.271 502.787 1068.456 500.371 1068.456 505.173"/><polygon class="cls-2" points="1076.318 500.634 1072.133 503.05 1072.133 498.248 1076.318 495.832 1076.318 500.634"/><polygon class="cls-2" points="1084.18 496.095 1079.995 498.511 1079.995 493.709 1084.18 491.292 1084.18 496.095"/><polygon class="cls-2" points="1092.042 491.556 1087.857 493.972 1087.857 489.17 1092.042 486.753 1092.042 491.556"/><polygon class="cls-2" points="1099.904 487.017 1095.719 489.433 1095.719 484.63 1099.904 482.214 1099.904 487.017"/><polygon class="cls-2" points="1052.732 524.417 1048.546 526.833 1048.546 522.031 1052.732 519.614 1052.732 524.417"/><polygon class="cls-2" points="1060.594 519.878 1056.408 522.294 1056.408 517.492 1060.594 515.075 1060.594 519.878"/><polygon class="cls-2" points="1068.456 515.339 1064.271 517.755 1064.271 512.952 1068.456 510.536 1068.456 515.339"/><polygon class="cls-2" points="1076.318 510.799 1072.133 513.216 1072.133 508.413 1076.318 505.997 1076.318 510.799"/><polygon class="cls-2" points="1084.18 506.26 1079.995 508.676 1079.995 503.874 1084.18 501.458 1084.18 506.26"/><polygon class="cls-2" points="1092.042 501.721 1087.857 504.137 1087.857 499.335 1092.042 496.919 1092.042 501.721"/><polygon class="cls-2" points="1099.904 497.182 1095.719 499.598 1095.719 494.796 1099.904 492.379 1099.904 497.182"/><polygon class="cls-2" points="1052.732 534.582 1048.546 536.999 1048.546 532.196 1052.732 529.78 1052.732 534.582"/><polygon class="cls-2" points="1060.594 530.043 1056.408 532.459 1056.408 527.657 1060.594 525.24 1060.594 530.043"/><polygon class="cls-2" points="1068.456 525.504 1064.271 527.92 1064.271 523.118 1068.456 520.701 1068.456 525.504"/><polygon class="cls-2" points="1076.318 520.965 1072.133 523.381 1072.133 518.578 1076.318 516.162 1076.318 520.965"/><polygon class="cls-2" points="1084.18 516.425 1079.995 518.842 1079.995 514.039 1084.18 511.623 1084.18 516.425"/><polygon class="cls-2" points="1092.042 511.886 1087.857 514.303 1087.857 509.5 1092.042 507.084 1092.042 511.886"/><polygon class="cls-2" points="1099.904 507.347 1095.719 509.763 1095.719 504.961 1099.904 502.545 1099.904 507.347"/><polygon class="cls-2" points="1052.732 544.747 1048.546 547.164 1048.546 542.361 1052.732 539.945 1052.732 544.747"/><polygon class="cls-2" points="1060.594 540.208 1056.408 542.625 1056.408 537.822 1060.594 535.406 1060.594 540.208"/><polygon class="cls-2" points="1068.456 535.669 1064.271 538.085 1064.271 533.283 1068.456 530.867 1068.456 535.669"/><polygon class="cls-2" points="1076.318 531.13 1072.133 533.546 1072.133 528.744 1076.318 526.327 1076.318 531.13"/><polygon class="cls-2" points="1084.18 526.591 1079.995 529.007 1079.995 524.205 1084.18 521.788 1084.18 526.591"/><polygon class="cls-2" points="1092.042 522.052 1087.857 524.468 1087.857 519.665 1092.042 517.249 1092.042 522.052"/><polygon class="cls-2" points="1099.904 517.512 1095.719 519.929 1095.719 515.126 1099.904 512.71 1099.904 517.512"/><polygon class="cls-2" points="1052.732 554.913 1048.546 557.329 1048.546 552.526 1052.732 550.11 1052.732 554.913"/><polygon class="cls-2" points="1060.594 550.374 1056.408 552.79 1056.408 547.987 1060.594 545.571 1060.594 550.374"/><polygon class="cls-2" points="1068.456 545.834 1064.271 548.251 1064.271 543.448 1068.456 541.032 1068.456 545.834"/><polygon class="cls-2" points="1076.318 541.295 1072.133 543.711 1072.133 538.909 1076.318 536.493 1076.318 541.295"/><polygon class="cls-2" points="1084.18 536.756 1079.995 539.173 1079.995 534.37 1084.18 531.954 1084.18 536.756"/><polygon class="cls-2" points="1092.042 532.217 1087.857 534.633 1087.857 529.831 1092.042 527.414 1092.042 532.217"/><polygon class="cls-2" points="1099.904 527.678 1095.719 530.094 1095.719 525.291 1099.904 522.875 1099.904 527.678"/><polygon class="cls-2" points="1052.732 565.078 1048.546 567.494 1048.546 562.692 1052.732 560.275 1052.732 565.078"/><polygon class="cls-2" points="1060.594 560.539 1056.408 562.955 1056.408 558.153 1060.594 555.736 1060.594 560.539"/><polygon class="cls-2" points="1068.456 556 1064.271 558.416 1064.271 553.613 1068.456 551.197 1068.456 556"/><polygon class="cls-2" points="1076.318 551.46 1072.133 553.877 1072.133 549.074 1076.318 546.658 1076.318 551.46"/><polygon class="cls-2" points="1084.18 546.921 1079.995 549.337 1079.995 544.535 1084.18 542.119 1084.18 546.921"/><polygon class="cls-2" points="1092.042 542.382 1087.857 544.798 1087.857 539.996 1092.042 537.58 1092.042 542.382"/><polygon class="cls-2" points="1099.904 537.843 1095.719 540.259 1095.719 535.457 1099.904 533.04 1099.904 537.843"/><polygon class="cls-2" points="1052.732 575.243 1048.546 577.66 1048.546 572.857 1052.732 570.441 1052.732 575.243"/><polygon class="cls-2" points="1060.594 570.704 1056.408 573.121 1056.408 568.318 1060.594 565.902 1060.594 570.704"/><polygon class="cls-2" points="1068.456 566.165 1064.271 568.581 1064.271 563.779 1068.456 561.362 1068.456 566.165"/><polygon class="cls-2" points="1076.318 561.626 1072.133 564.042 1072.133 559.239 1076.318 556.823 1076.318 561.626"/><polygon class="cls-2" points="1084.18 557.086 1079.995 559.503 1079.995 554.7 1084.18 552.284 1084.18 557.086"/><polygon class="cls-2" points="1092.042 552.547 1087.857 554.964 1087.857 550.161 1092.042 547.745 1092.042 552.547"/><polygon class="cls-2" points="1099.904 548.008 1095.719 550.424 1095.719 545.622 1099.904 543.206 1099.904 548.008"/><polygon class="cls-2" points="1052.732 585.408 1048.546 587.825 1048.546 583.022 1052.732 580.606 1052.732 585.408"/><polygon class="cls-2" points="1060.594 580.869 1056.408 583.286 1056.408 578.483 1060.594 576.067 1060.594 580.869"/><polygon class="cls-2" points="1068.456 576.33 1064.271 578.746 1064.271 573.944 1068.456 571.528 1068.456 576.33"/><polygon class="cls-2" points="1076.318 571.791 1072.133 574.207 1072.133 569.405 1076.318 566.988 1076.318 571.791"/><polygon class="cls-2" points="1084.18 567.252 1079.995 569.668 1079.995 564.866 1084.18 562.449 1084.18 567.252"/><polygon class="cls-2" points="1092.042 562.713 1087.857 565.129 1087.857 560.326 1092.042 557.91 1092.042 562.713"/><polygon class="cls-2" points="1099.904 558.173 1095.719 560.59 1095.719 555.787 1099.904 553.371 1099.904 558.173"/><polygon class="cls-2" points="1052.732 595.574 1048.546 597.99 1048.546 593.187 1052.732 590.771 1052.732 595.574"/><polygon class="cls-2" points="1060.594 591.035 1056.408 593.451 1056.408 588.648 1060.594 586.232 1060.594 591.035"/><polygon class="cls-2" points="1068.456 586.495 1064.271 588.912 1064.271 584.109 1068.456 581.693 1068.456 586.495"/><polygon class="cls-2" points="1076.318 581.956 1072.133 584.372 1072.133 579.57 1076.318 577.154 1076.318 581.956"/><polygon class="cls-2" points="1084.18 577.417 1079.995 579.833 1079.995 575.031 1084.18 572.615 1084.18 577.417"/><polygon class="cls-2" points="1092.042 572.878 1087.857 575.294 1087.857 570.491 1092.042 568.075 1092.042 572.878"/><polygon class="cls-2" points="1099.904 568.339 1095.719 570.755 1095.719 565.952 1099.904 563.536 1099.904 568.339"/><polygon class="cls-2" points="1052.732 605.739 1048.546 608.155 1048.546 603.353 1052.732 600.936 1052.732 605.739"/><polygon class="cls-2" points="1060.594 601.2 1056.408 603.616 1056.408 598.814 1060.594 596.397 1060.594 601.2"/><polygon class="cls-2" points="1068.456 596.661 1064.271 599.077 1064.271 594.274 1068.456 591.858 1068.456 596.661"/><polygon class="cls-2" points="1076.318 592.121 1072.133 594.538 1072.133 589.735 1076.318 587.319 1076.318 592.121"/><polygon class="cls-2" points="1084.18 587.582 1079.995 589.999 1079.995 585.196 1084.18 582.78 1084.18 587.582"/><polygon class="cls-2" points="1092.042 583.043 1087.857 585.459 1087.857 580.657 1092.042 578.241 1092.042 583.043"/><polygon class="cls-2" points="1099.904 578.504 1095.719 580.92 1095.719 576.118 1099.904 573.701 1099.904 578.504"/><polygon class="cls-2" points="1052.732 615.904 1048.546 618.321 1048.546 613.518 1052.732 611.102 1052.732 615.904"/><polygon class="cls-2" points="1060.594 611.365 1056.408 613.782 1056.408 608.979 1060.594 606.562 1060.594 611.365"/><polygon class="cls-2" points="1068.456 606.826 1064.271 609.242 1064.271 604.44 1068.456 602.023 1068.456 606.826"/><polygon class="cls-2" points="1076.318 602.287 1072.133 604.703 1072.133 599.901 1076.318 597.484 1076.318 602.287"/><polygon class="cls-2" points="1084.18 597.747 1079.995 600.164 1079.995 595.361 1084.18 592.945 1084.18 597.747"/><polygon class="cls-2" points="1092.042 593.208 1087.857 595.625 1087.857 590.822 1092.042 588.406 1092.042 593.208"/><polygon class="cls-2" points="1099.904 588.669 1095.719 591.085 1095.719 586.283 1099.904 583.867 1099.904 588.669"/><g class="cls-52"><polygon class="cls-2" points="1052.732 371.938 1048.546 374.354 1048.546 369.552 1052.732 367.136 1052.732 371.938"/><polygon class="cls-2" points="1060.594 367.399 1056.408 369.815 1056.408 365.012 1060.594 362.596 1060.594 367.399"/><polygon class="cls-2" points="1068.456 362.86 1064.271 365.276 1064.271 360.474 1068.456 358.057 1068.456 362.86"/><polygon class="cls-2" points="1076.318 358.321 1072.133 360.737 1072.133 355.934 1076.318 353.518 1076.318 358.321"/><polygon class="cls-2" points="1084.18 353.781 1079.995 356.198 1079.995 351.395 1084.18 348.979 1084.18 353.781"/><polygon class="cls-2" points="1092.042 349.242 1087.857 351.659 1087.857 346.856 1092.042 344.44 1092.042 349.242"/><polygon class="cls-2" points="1099.904 344.703 1095.719 347.119 1095.719 342.317 1099.904 339.9 1099.904 344.703"/><polygon class="cls-2" points="1052.732 382.103 1048.546 384.52 1048.546 379.717 1052.732 377.301 1052.732 382.103"/><polygon class="cls-2" points="1060.594 377.564 1056.408 379.98 1056.408 375.178 1060.594 372.761 1060.594 377.564"/><polygon class="cls-2" points="1068.456 373.025 1064.271 375.441 1064.271 370.639 1068.456 368.222 1068.456 373.025"/><polygon class="cls-2" points="1076.318 368.486 1072.133 370.902 1072.133 366.1 1076.318 363.683 1076.318 368.486"/><polygon class="cls-2" points="1084.18 363.947 1079.995 366.363 1079.995 361.56 1084.18 359.144 1084.18 363.947"/><polygon class="cls-2" points="1092.042 359.408 1087.857 361.824 1087.857 357.021 1092.042 354.605 1092.042 359.408"/><polygon class="cls-2" points="1099.904 354.868 1095.719 357.285 1095.719 352.482 1099.904 350.066 1099.904 354.868"/><polygon class="cls-2" points="1052.732 392.269 1048.546 394.685 1048.546 389.883 1052.732 387.466 1052.732 392.269"/><polygon class="cls-2" points="1060.594 387.729 1056.408 390.146 1056.408 385.343 1060.594 382.927 1060.594 387.729"/><polygon class="cls-2" points="1068.456 383.19 1064.271 385.607 1064.271 380.804 1068.456 378.388 1068.456 383.19"/><polygon class="cls-2" points="1076.318 378.651 1072.133 381.067 1072.133 376.265 1076.318 373.848 1076.318 378.651"/><polygon class="cls-2" points="1084.18 374.112 1079.995 376.528 1079.995 371.726 1084.18 369.309 1084.18 374.112"/><polygon class="cls-2" points="1092.042 369.572 1087.857 371.989 1087.857 367.187 1092.042 364.77 1092.042 369.572"/><polygon class="cls-2" points="1099.904 365.034 1095.719 367.45 1095.719 362.647 1099.904 360.231 1099.904 365.034"/><polygon class="cls-2" points="1052.732 402.434 1048.546 404.85 1048.546 400.048 1052.732 397.631 1052.732 402.434"/><polygon class="cls-2" points="1060.594 397.895 1056.408 400.311 1056.408 395.509 1060.594 393.092 1060.594 397.895"/><polygon class="cls-2" points="1068.456 393.356 1064.271 395.772 1064.271 390.969 1068.456 388.553 1068.456 393.356"/><polygon class="cls-2" points="1076.318 388.816 1072.133 391.233 1072.133 386.43 1076.318 384.014 1076.318 388.816"/><polygon class="cls-2" points="1084.18 384.277 1079.995 386.694 1079.995 381.891 1084.18 379.474 1084.18 384.277"/><polygon class="cls-2" points="1092.042 379.738 1087.857 382.154 1087.857 377.352 1092.042 374.935 1092.042 379.738"/><polygon class="cls-2" points="1099.904 375.199 1095.719 377.615 1095.719 372.813 1099.904 370.396 1099.904 375.199"/><polygon class="cls-2" points="1052.732 412.599 1048.546 415.015 1048.546 410.213 1052.732 407.796 1052.732 412.599"/><polygon class="cls-2" points="1060.594 408.06 1056.408 410.476 1056.408 405.674 1060.594 403.258 1060.594 408.06"/><polygon class="cls-2" points="1068.456 403.521 1064.271 405.937 1064.271 401.134 1068.456 398.718 1068.456 403.521"/><polygon class="cls-2" points="1076.318 398.982 1072.133 401.398 1072.133 396.595 1076.318 394.179 1076.318 398.982"/><polygon class="cls-2" points="1084.18 394.443 1079.995 396.859 1079.995 392.056 1084.18 389.64 1084.18 394.443"/><polygon class="cls-2" points="1092.042 389.903 1087.857 392.32 1087.857 387.517 1092.042 385.101 1092.042 389.903"/><polygon class="cls-2" points="1099.904 385.364 1095.719 387.78 1095.719 382.978 1099.904 380.561 1099.904 385.364"/><polygon class="cls-2" points="1052.732 422.764 1048.546 425.181 1048.546 420.378 1052.732 417.962 1052.732 422.764"/><polygon class="cls-2" points="1060.594 418.225 1056.408 420.642 1056.408 415.839 1060.594 413.422 1060.594 418.225"/><polygon class="cls-2" points="1068.456 413.686 1064.271 416.102 1064.271 411.3 1068.456 408.883 1068.456 413.686"/><polygon class="cls-2" points="1076.318 409.147 1072.133 411.563 1072.133 406.761 1076.318 404.344 1076.318 409.147"/><polygon class="cls-2" points="1084.18 404.608 1079.995 407.024 1079.995 402.222 1084.18 399.805 1084.18 404.608"/><polygon class="cls-2" points="1092.042 400.069 1087.857 402.485 1087.857 397.682 1092.042 395.266 1092.042 400.069"/><polygon class="cls-2" points="1099.904 395.529 1095.719 397.946 1095.719 393.143 1099.904 390.727 1099.904 395.529"/><polygon class="cls-2" points="1052.732 432.93 1048.546 435.346 1048.546 430.544 1052.732 428.127 1052.732 432.93"/><polygon class="cls-2" points="1060.594 428.39 1056.408 430.807 1056.408 426.004 1060.594 423.588 1060.594 428.39"/><polygon class="cls-2" points="1068.456 423.851 1064.271 426.268 1064.271 421.465 1068.456 419.049 1068.456 423.851"/><polygon class="cls-2" points="1076.318 419.312 1072.133 421.728 1072.133 416.926 1076.318 414.509 1076.318 419.312"/><polygon class="cls-2" points="1084.18 414.773 1079.995 417.189 1079.995 412.387 1084.18 409.97 1084.18 414.773"/><polygon class="cls-2" points="1092.042 410.234 1087.857 412.65 1087.857 407.848 1092.042 405.431 1092.042 410.234"/><polygon class="cls-2" points="1099.904 405.695 1095.719 408.111 1095.719 403.308 1099.904 400.892 1099.904 405.695"/><polygon class="cls-2" points="1052.732 443.095 1048.546 445.511 1048.546 440.709 1052.732 438.293 1052.732 443.095"/><polygon class="cls-2" points="1060.594 438.556 1056.408 440.972 1056.408 436.169 1060.594 433.753 1060.594 438.556"/><polygon class="cls-2" points="1068.456 434.017 1064.271 436.433 1064.271 431.63 1068.456 429.214 1068.456 434.017"/><polygon class="cls-2" points="1076.318 429.477 1072.133 431.894 1072.133 427.091 1076.318 424.675 1076.318 429.477"/><polygon class="cls-2" points="1084.18 424.938 1079.995 427.355 1079.995 422.552 1084.18 420.136 1084.18 424.938"/><polygon class="cls-2" points="1092.042 420.399 1087.857 422.815 1087.857 418.013 1092.042 415.596 1092.042 420.399"/><polygon class="cls-2" points="1099.904 415.86 1095.719 418.276 1095.719 413.474 1099.904 411.057 1099.904 415.86"/><polygon class="cls-2" points="1052.732 453.26 1048.546 455.676 1048.546 450.874 1052.732 448.457 1052.732 453.26"/><polygon class="cls-2" points="1060.594 448.721 1056.408 451.137 1056.408 446.335 1060.594 443.918 1060.594 448.721"/><polygon class="cls-2" points="1068.456 444.182 1064.271 446.598 1064.271 441.796 1068.456 439.379 1068.456 444.182"/><polygon class="cls-2" points="1076.318 439.643 1072.133 442.059 1072.133 437.256 1076.318 434.84 1076.318 439.643"/><polygon class="cls-2" points="1084.18 435.104 1079.995 437.52 1079.995 432.717 1084.18 430.301 1084.18 435.104"/><polygon class="cls-2" points="1092.042 430.564 1087.857 432.98 1087.857 428.178 1092.042 425.762 1092.042 430.564"/><polygon class="cls-2" points="1099.904 426.025 1095.719 428.441 1095.719 423.639 1099.904 421.222 1099.904 426.025"/><polygon class="cls-2" points="1052.732 463.425 1048.546 465.842 1048.546 461.039 1052.732 458.623 1052.732 463.425"/><polygon class="cls-2" points="1060.594 458.886 1056.408 461.303 1056.408 456.5 1060.594 454.084 1060.594 458.886"/><polygon class="cls-2" points="1068.456 454.347 1064.271 456.763 1064.271 451.961 1068.456 449.545 1068.456 454.347"/><polygon class="cls-2" points="1076.318 449.808 1072.133 452.224 1072.133 447.422 1076.318 445.005 1076.318 449.808"/><polygon class="cls-2" points="1084.18 445.269 1079.995 447.685 1079.995 442.883 1084.18 440.466 1084.18 445.269"/><polygon class="cls-2" points="1092.042 440.73 1087.857 443.146 1087.857 438.343 1092.042 435.927 1092.042 440.73"/><polygon class="cls-2" points="1099.904 436.19 1095.719 438.607 1095.719 433.804 1099.904 431.388 1099.904 436.19"/><polygon class="cls-2" points="1052.732 473.591 1048.546 476.007 1048.546 471.204 1052.732 468.788 1052.732 473.591"/><polygon class="cls-2" points="1060.594 469.051 1056.408 471.468 1056.408 466.665 1060.594 464.249 1060.594 469.051"/><polygon class="cls-2" points="1068.456 464.512 1064.271 466.929 1064.271 462.126 1068.456 459.71 1068.456 464.512"/><polygon class="cls-2" points="1076.318 459.973 1072.133 462.39 1072.133 457.587 1076.318 455.17 1076.318 459.973"/><polygon class="cls-2" points="1084.18 455.434 1079.995 457.85 1079.995 453.048 1084.18 450.631 1084.18 455.434"/><polygon class="cls-2" points="1092.042 450.895 1087.857 453.311 1087.857 448.509 1092.042 446.092 1092.042 450.895"/><polygon class="cls-2" points="1099.904 446.356 1095.719 448.772 1095.719 443.969 1099.904 441.553 1099.904 446.356"/><polygon class="cls-2" points="1052.732 483.756 1048.546 486.172 1048.546 481.37 1052.732 478.953 1052.732 483.756"/><polygon class="cls-2" points="1060.594 479.217 1056.408 481.633 1056.408 476.83 1060.594 474.414 1060.594 479.217"/><polygon class="cls-2" points="1068.456 474.678 1064.271 477.094 1064.271 472.291 1068.456 469.875 1068.456 474.678"/><polygon class="cls-2" points="1076.318 470.138 1072.133 472.555 1072.133 467.752 1076.318 465.336 1076.318 470.138"/><polygon class="cls-2" points="1084.18 465.599 1079.995 468.015 1079.995 463.213 1084.18 460.797 1084.18 465.599"/><polygon class="cls-2" points="1092.042 461.06 1087.857 463.476 1087.857 458.674 1092.042 456.258 1092.042 461.06"/><polygon class="cls-2" points="1099.904 456.521 1095.719 458.937 1095.719 454.135 1099.904 451.718 1099.904 456.521"/><polygon class="cls-2" points="1052.732 493.921 1048.546 496.337 1048.546 491.535 1052.732 489.119 1052.732 493.921"/><polygon class="cls-2" points="1060.594 489.382 1056.408 491.798 1056.408 486.996 1060.594 484.579 1060.594 489.382"/><polygon class="cls-2" points="1068.456 484.843 1064.271 487.259 1064.271 482.457 1068.456 480.04 1068.456 484.843"/><polygon class="cls-2" points="1076.318 480.304 1072.133 482.72 1072.133 477.917 1076.318 475.501 1076.318 480.304"/><polygon class="cls-2" points="1084.18 475.765 1079.995 478.181 1079.995 473.378 1084.18 470.962 1084.18 475.765"/><polygon class="cls-2" points="1092.042 471.225 1087.857 473.641 1087.857 468.839 1092.042 466.423 1092.042 471.225"/><polygon class="cls-2" points="1099.904 466.686 1095.719 469.102 1095.719 464.3 1099.904 461.884 1099.904 466.686"/><polygon class="cls-2" points="1052.732 504.086 1048.546 506.503 1048.546 501.7 1052.732 499.284 1052.732 504.086"/><polygon class="cls-2" points="1060.594 499.547 1056.408 501.964 1056.408 497.161 1060.594 494.744 1060.594 499.547"/><polygon class="cls-2" points="1068.456 495.008 1064.271 497.424 1064.271 492.622 1068.456 490.206 1068.456 495.008"/><polygon class="cls-2" points="1076.318 490.469 1072.133 492.885 1072.133 488.083 1076.318 485.666 1076.318 490.469"/><polygon class="cls-2" points="1084.18 485.93 1079.995 488.346 1079.995 483.544 1084.18 481.127 1084.18 485.93"/><polygon class="cls-2" points="1092.042 481.39 1087.857 483.807 1087.857 479.004 1092.042 476.588 1092.042 481.39"/><polygon class="cls-2" points="1099.904 476.851 1095.719 479.268 1095.719 474.465 1099.904 472.049 1099.904 476.851"/><polygon class="cls-2" points="1052.732 514.252 1048.546 516.668 1048.546 511.865 1052.732 509.449 1052.732 514.252"/><polygon class="cls-2" points="1060.594 509.712 1056.408 512.129 1056.408 507.326 1060.594 504.91 1060.594 509.712"/><polygon class="cls-2" points="1068.456 505.173 1064.271 507.59 1064.271 502.787 1068.456 500.371 1068.456 505.173"/><polygon class="cls-2" points="1076.318 500.634 1072.133 503.05 1072.133 498.248 1076.318 495.832 1076.318 500.634"/><polygon class="cls-2" points="1084.18 496.095 1079.995 498.511 1079.995 493.709 1084.18 491.292 1084.18 496.095"/><polygon class="cls-2" points="1092.042 491.556 1087.857 493.972 1087.857 489.17 1092.042 486.753 1092.042 491.556"/><polygon class="cls-2" points="1099.904 487.017 1095.719 489.433 1095.719 484.63 1099.904 482.214 1099.904 487.017"/><polygon class="cls-2" points="1052.732 524.417 1048.546 526.833 1048.546 522.031 1052.732 519.614 1052.732 524.417"/><polygon class="cls-2" points="1060.594 519.878 1056.408 522.294 1056.408 517.492 1060.594 515.075 1060.594 519.878"/><polygon class="cls-2" points="1068.456 515.339 1064.271 517.755 1064.271 512.952 1068.456 510.536 1068.456 515.339"/><polygon class="cls-2" points="1076.318 510.799 1072.133 513.216 1072.133 508.413 1076.318 505.997 1076.318 510.799"/><polygon class="cls-2" points="1084.18 506.26 1079.995 508.676 1079.995 503.874 1084.18 501.458 1084.18 506.26"/><polygon class="cls-2" points="1092.042 501.721 1087.857 504.137 1087.857 499.335 1092.042 496.919 1092.042 501.721"/><polygon class="cls-2" points="1099.904 497.182 1095.719 499.598 1095.719 494.796 1099.904 492.379 1099.904 497.182"/><polygon class="cls-2" points="1052.732 534.582 1048.546 536.999 1048.546 532.196 1052.732 529.78 1052.732 534.582"/><polygon class="cls-2" points="1060.594 530.043 1056.408 532.459 1056.408 527.657 1060.594 525.24 1060.594 530.043"/><polygon class="cls-2" points="1068.456 525.504 1064.271 527.92 1064.271 523.118 1068.456 520.701 1068.456 525.504"/><polygon class="cls-2" points="1076.318 520.965 1072.133 523.381 1072.133 518.578 1076.318 516.162 1076.318 520.965"/><polygon class="cls-2" points="1084.18 516.425 1079.995 518.842 1079.995 514.039 1084.18 511.623 1084.18 516.425"/><polygon class="cls-2" points="1092.042 511.886 1087.857 514.303 1087.857 509.5 1092.042 507.084 1092.042 511.886"/><polygon class="cls-2" points="1099.904 507.347 1095.719 509.763 1095.719 504.961 1099.904 502.545 1099.904 507.347"/><polygon class="cls-2" points="1052.732 544.747 1048.546 547.164 1048.546 542.361 1052.732 539.945 1052.732 544.747"/><polygon class="cls-2" points="1060.594 540.208 1056.408 542.625 1056.408 537.822 1060.594 535.406 1060.594 540.208"/><polygon class="cls-2" points="1068.456 535.669 1064.271 538.085 1064.271 533.283 1068.456 530.867 1068.456 535.669"/><polygon class="cls-2" points="1076.318 531.13 1072.133 533.546 1072.133 528.744 1076.318 526.327 1076.318 531.13"/><polygon class="cls-2" points="1084.18 526.591 1079.995 529.007 1079.995 524.205 1084.18 521.788 1084.18 526.591"/><polygon class="cls-2" points="1092.042 522.052 1087.857 524.468 1087.857 519.665 1092.042 517.249 1092.042 522.052"/><polygon class="cls-2" points="1099.904 517.512 1095.719 519.929 1095.719 515.126 1099.904 512.71 1099.904 517.512"/><polygon class="cls-2" points="1052.732 554.913 1048.546 557.329 1048.546 552.526 1052.732 550.11 1052.732 554.913"/><polygon class="cls-2" points="1060.594 550.374 1056.408 552.79 1056.408 547.987 1060.594 545.571 1060.594 550.374"/><polygon class="cls-2" points="1068.456 545.834 1064.271 548.251 1064.271 543.448 1068.456 541.032 1068.456 545.834"/><polygon class="cls-2" points="1076.318 541.295 1072.133 543.711 1072.133 538.909 1076.318 536.493 1076.318 541.295"/><polygon class="cls-2" points="1084.18 536.756 1079.995 539.173 1079.995 534.37 1084.18 531.954 1084.18 536.756"/><polygon class="cls-2" points="1092.042 532.217 1087.857 534.633 1087.857 529.831 1092.042 527.414 1092.042 532.217"/><polygon class="cls-2" points="1099.904 527.678 1095.719 530.094 1095.719 525.291 1099.904 522.875 1099.904 527.678"/><polygon class="cls-2" points="1052.732 565.078 1048.546 567.494 1048.546 562.692 1052.732 560.275 1052.732 565.078"/><polygon class="cls-2" points="1060.594 560.539 1056.408 562.955 1056.408 558.153 1060.594 555.736 1060.594 560.539"/><polygon class="cls-2" points="1068.456 556 1064.271 558.416 1064.271 553.613 1068.456 551.197 1068.456 556"/><polygon class="cls-2" points="1076.318 551.46 1072.133 553.877 1072.133 549.074 1076.318 546.658 1076.318 551.46"/><polygon class="cls-2" points="1084.18 546.921 1079.995 549.337 1079.995 544.535 1084.18 542.119 1084.18 546.921"/><polygon class="cls-2" points="1092.042 542.382 1087.857 544.798 1087.857 539.996 1092.042 537.58 1092.042 542.382"/><polygon class="cls-2" points="1099.904 537.843 1095.719 540.259 1095.719 535.457 1099.904 533.04 1099.904 537.843"/><polygon class="cls-2" points="1052.732 575.243 1048.546 577.66 1048.546 572.857 1052.732 570.441 1052.732 575.243"/><polygon class="cls-2" points="1060.594 570.704 1056.408 573.121 1056.408 568.318 1060.594 565.902 1060.594 570.704"/><polygon class="cls-2" points="1068.456 566.165 1064.271 568.581 1064.271 563.779 1068.456 561.362 1068.456 566.165"/><polygon class="cls-2" points="1076.318 561.626 1072.133 564.042 1072.133 559.239 1076.318 556.823 1076.318 561.626"/><polygon class="cls-2" points="1084.18 557.086 1079.995 559.503 1079.995 554.7 1084.18 552.284 1084.18 557.086"/><polygon class="cls-2" points="1092.042 552.547 1087.857 554.964 1087.857 550.161 1092.042 547.745 1092.042 552.547"/><polygon class="cls-2" points="1099.904 548.008 1095.719 550.424 1095.719 545.622 1099.904 543.206 1099.904 548.008"/><polygon class="cls-2" points="1052.732 585.408 1048.546 587.825 1048.546 583.022 1052.732 580.606 1052.732 585.408"/><polygon class="cls-2" points="1060.594 580.869 1056.408 583.286 1056.408 578.483 1060.594 576.067 1060.594 580.869"/><polygon class="cls-2" points="1068.456 576.33 1064.271 578.746 1064.271 573.944 1068.456 571.528 1068.456 576.33"/><polygon class="cls-2" points="1076.318 571.791 1072.133 574.207 1072.133 569.405 1076.318 566.988 1076.318 571.791"/><polygon class="cls-2" points="1084.18 567.252 1079.995 569.668 1079.995 564.866 1084.18 562.449 1084.18 567.252"/><polygon class="cls-2" points="1092.042 562.713 1087.857 565.129 1087.857 560.326 1092.042 557.91 1092.042 562.713"/><polygon class="cls-2" points="1099.904 558.173 1095.719 560.59 1095.719 555.787 1099.904 553.371 1099.904 558.173"/><polygon class="cls-2" points="1052.732 595.574 1048.546 597.99 1048.546 593.187 1052.732 590.771 1052.732 595.574"/><polygon class="cls-2" points="1060.594 591.035 1056.408 593.451 1056.408 588.648 1060.594 586.232 1060.594 591.035"/><polygon class="cls-2" points="1068.456 586.495 1064.271 588.912 1064.271 584.109 1068.456 581.693 1068.456 586.495"/><polygon class="cls-2" points="1076.318 581.956 1072.133 584.372 1072.133 579.57 1076.318 577.154 1076.318 581.956"/><polygon class="cls-2" points="1084.18 577.417 1079.995 579.833 1079.995 575.031 1084.18 572.615 1084.18 577.417"/><polygon class="cls-2" points="1092.042 572.878 1087.857 575.294 1087.857 570.491 1092.042 568.075 1092.042 572.878"/><polygon class="cls-2" points="1099.904 568.339 1095.719 570.755 1095.719 565.952 1099.904 563.536 1099.904 568.339"/><polygon class="cls-2" points="1052.732 605.739 1048.546 608.155 1048.546 603.353 1052.732 600.936 1052.732 605.739"/><polygon class="cls-2" points="1060.594 601.2 1056.408 603.616 1056.408 598.814 1060.594 596.397 1060.594 601.2"/><polygon class="cls-2" points="1068.456 596.661 1064.271 599.077 1064.271 594.274 1068.456 591.858 1068.456 596.661"/><polygon class="cls-2" points="1076.318 592.121 1072.133 594.538 1072.133 589.735 1076.318 587.319 1076.318 592.121"/><polygon class="cls-2" points="1084.18 587.582 1079.995 589.999 1079.995 585.196 1084.18 582.78 1084.18 587.582"/><polygon class="cls-2" points="1092.042 583.043 1087.857 585.459 1087.857 580.657 1092.042 578.241 1092.042 583.043"/><polygon class="cls-2" points="1099.904 578.504 1095.719 580.92 1095.719 576.118 1099.904 573.701 1099.904 578.504"/><polygon class="cls-2" points="1052.732 615.904 1048.546 618.321 1048.546 613.518 1052.732 611.102 1052.732 615.904"/><polygon class="cls-2" points="1060.594 611.365 1056.408 613.782 1056.408 608.979 1060.594 606.562 1060.594 611.365"/><polygon class="cls-2" points="1068.456 606.826 1064.271 609.242 1064.271 604.44 1068.456 602.023 1068.456 606.826"/><polygon class="cls-2" points="1076.318 602.287 1072.133 604.703 1072.133 599.901 1076.318 597.484 1076.318 602.287"/><polygon class="cls-2" points="1084.18 597.747 1079.995 600.164 1079.995 595.361 1084.18 592.945 1084.18 597.747"/><polygon class="cls-2" points="1092.042 593.208 1087.857 595.625 1087.857 590.822 1092.042 588.406 1092.042 593.208"/><polygon class="cls-2" points="1099.904 588.669 1095.719 591.085 1095.719 586.283 1099.904 583.867 1099.904 588.669"/></g><polygon class="cls-2" points="972.736 375.855 997.989 390.579 997.989 386.046 972.736 371.34 972.736 375.855"/><polygon class="cls-2" points="972.736 395.135 997.989 409.859 997.989 405.326 972.736 390.62 972.736 395.135"/><polygon class="cls-2" points="972.736 414.415 997.989 429.139 997.989 424.606 972.736 409.9 972.736 414.415"/><polygon class="cls-2" points="972.736 433.695 997.989 448.419 997.989 443.886 972.736 429.18 972.736 433.695"/><polygon class="cls-2" points="972.736 452.975 997.989 467.699 997.989 463.166 972.736 448.46 972.736 452.975"/><polygon class="cls-2" points="972.736 472.255 997.989 486.979 997.989 482.446 972.736 467.74 972.736 472.255"/><polygon class="cls-2" points="972.736 491.535 997.989 506.259 997.989 501.726 972.736 487.02 972.736 491.535"/><polygon class="cls-2" points="972.736 510.815 997.989 525.539 997.989 521.006 972.736 506.3 972.736 510.815"/><polygon class="cls-2" points="972.736 530.096 997.989 544.82 997.989 540.286 972.736 525.58 972.736 530.096"/><polygon class="cls-2" points="972.736 549.376 997.989 564.1 997.989 559.566 972.736 544.86 972.736 549.376"/><polygon class="cls-2" points="972.736 568.656 997.989 583.38 997.989 578.846 972.736 564.14 972.736 568.656"/><polygon class="cls-2" points="972.736 587.936 997.989 602.66 997.989 598.126 972.736 583.42 972.736 587.936"/><polygon class="cls-2" points="972.736 607.216 997.989 621.94 997.989 617.406 972.736 602.7 972.736 607.216"/><polygon class="cls-53" points="846.482 755.66 934.664 704.961 934.664 482.01 846.482 532.714 846.482 755.66"/><polygon class="cls-54" points="759.577 704.961 846.53 755.66 846.53 532.714 759.577 482.077 759.577 704.961"/><polygon class="cls-55" points="759.577 482.077 846.53 532.713 934.664 482.01 847.617 431.319 759.577 482.077"/><polygon class="cls-56" points="845.889 510.271 845.889 522.435 916.212 482 916.212 469.835 845.889 510.271"/><polygon class="cls-57" points="845.928 510.271 845.928 522.435 776.585 482.01 776.585 469.889 845.928 510.271"/><polygon class="cls-58" points="776.585 469.889 845.928 510.271 916.212 469.835 846.794 429.411 776.585 469.889"/><polygon class="cls-59" points="845.723 452.595 845.723 445.239 845.7 445.226 802.828 469.914 809.197 473.623 845.723 452.595"/><polygon class="cls-59" points="845.7 452.595 882.162 473.829 888.522 470.163 845.7 445.226 845.7 452.595"/><polygon class="cls-59" points="809.477 473.462 845.431 494.4 881.873 473.434 845.88 452.474 809.477 473.462"/><path class="cls-2" d="M827.619,532.066v7.056l7.912,4.863v-7.064ZM813.182,530.8l7.912,4.863V528.6l-7.912-4.856Zm-14.438-8.32,7.912,4.863V520.28l-7.912-4.856Zm-14.437-8.321,7.912,4.863v-7.064l-7.912-4.855Zm-14.437-8.32,7.912,4.863v-7.065l-7.912-4.855Z"/><path class="cls-2" d="M827.619,553.247V560.3l7.912,4.863V558.1Zm-14.437-1.265,7.912,4.863v-7.064l-7.912-4.855Zm-14.438-8.32,7.912,4.862v-7.063l-7.912-4.856Zm-14.437-8.321,7.912,4.863V533.14l-7.912-4.855Zm-14.437-8.32,7.912,4.862v-7.064l-7.912-4.855Z"/><path class="cls-2" d="M827.619,574.428v7.056l7.912,4.863v-7.064Zm-14.437-1.265,7.912,4.863v-7.064l-7.912-4.855Zm-14.438-8.32,7.912,4.862v-7.063l-7.912-4.856Zm-14.437-8.321,7.912,4.863v-7.064l-7.912-4.855ZM769.87,548.2l7.912,4.863V546l-7.912-4.855Z"/><path class="cls-2" d="M827.619,595.608v7.057l7.912,4.863v-7.065Zm-14.437-1.264,7.912,4.863v-7.064l-7.912-4.855Zm-14.438-8.321,7.912,4.863v-7.064l-7.912-4.855Zm-14.437-8.32,7.912,4.863V575.5l-7.912-4.855Zm-14.437-8.321,7.912,4.863v-7.064l-7.912-4.855Z"/><path class="cls-2" d="M827.619,616.789v7.057l7.912,4.862v-7.064Zm-14.437-1.264,7.912,4.863v-7.064l-7.912-4.855ZM798.744,607.2l7.912,4.863V605l-7.912-4.855Zm-14.437-8.32,7.912,4.863v-7.064l-7.912-4.855Zm-14.437-8.321,7.912,4.863v-7.064l-7.912-4.855Z"/><path class="cls-2" d="M827.619,637.97v7.057l7.912,4.862v-7.064Zm-14.437-1.264,7.912,4.863v-7.064l-7.912-4.855Zm-14.438-8.321,7.912,4.863v-7.064l-7.912-4.855Zm-14.437-8.321,7.912,4.864v-7.064l-7.912-4.855Zm-14.437-8.32,7.912,4.863v-7.064l-7.912-4.855Z"/><path class="cls-2" d="M827.619,659.151v7.056l7.912,4.863v-7.064Zm-14.437-1.264,7.912,4.863v-7.064l-7.912-4.855Zm-14.438-8.321,7.912,4.863v-7.064l-7.912-4.855Zm-14.437-8.321,7.912,4.864v-7.065l-7.912-4.855Zm-14.437-8.32,7.912,4.863v-7.064l-7.912-4.855Z"/><path class="cls-2" d="M827.619,680.332v7.056l7.912,4.863v-7.064Zm-14.437-1.264,7.912,4.862v-7.063l-7.912-4.856Zm-14.438-8.321,7.912,4.863v-7.064l-7.912-4.855Zm-14.437-8.321,7.912,4.863v-7.064l-7.912-4.855Zm-14.437-8.32,7.912,4.863v-7.064l-7.912-4.855Z"/><path class="cls-2" d="M827.619,701.513v7.056l7.912,4.863v-7.064Zm-14.437-1.265,7.912,4.863v-7.064l-7.912-4.855Zm-14.438-8.32,7.912,4.863v-7.064l-7.912-4.855Zm-14.437-8.321,7.912,4.863v-7.064l-7.912-4.855Zm-14.437-8.32,7.912,4.863v-7.064l-7.912-4.855Z"/><path class="cls-2" d="M827.619,722.694v7.056l7.912,4.863v-7.064Zm-14.437-1.265,7.912,4.863v-7.064l-7.912-4.855Zm-14.438-8.32,7.912,4.863v-7.064l-7.912-4.856Zm-14.437-8.321,7.912,4.863v-7.064l-7.912-4.855Zm-14.437-8.32,7.912,4.862v-7.063l-7.912-4.856Z"/><path class="cls-2" d="M859.888,536.106v7.064l7.913-4.862v-7.057Zm22.35-13.175-7.912,4.855v7.064l7.912-4.863Zm14.437-8.321-7.912,4.855v7.064l7.912-4.863Zm14.438-8.321-7.913,4.855v7.065l7.913-4.864Zm14.437-8.32-7.912,4.855v7.064l7.912-4.863Z"/><path class="cls-2" d="M859.888,557.287v7.064l7.913-4.863v-7.056Zm22.35-13.175-7.912,4.855v7.063l7.912-4.862Zm14.437-8.321-7.912,4.855v7.064l7.912-4.863Zm14.438-8.321-7.913,4.855v7.064l7.913-4.863Zm14.437-8.32-7.912,4.855v7.064l7.912-4.863Z"/><path class="cls-2" d="M859.888,578.468v7.064l7.913-4.863v-7.056Zm22.35-13.176-7.912,4.856v7.063l7.912-4.862Zm14.437-8.32-7.912,4.855v7.064l7.912-4.863Zm14.438-8.321-7.913,4.855v7.064l7.913-4.863Zm14.437-8.32-7.912,4.855v7.064l7.912-4.863Z"/><path class="cls-2" d="M859.888,599.649v7.064l7.913-4.863v-7.056Zm22.35-13.176-7.912,4.855v7.064l7.912-4.863Zm14.437-8.32-7.912,4.855v7.064l7.912-4.863Zm14.438-8.321-7.913,4.855v7.064l7.913-4.863Zm14.437-8.32-7.912,4.855v7.064l7.912-4.863Z"/><path class="cls-2" d="M859.888,620.83v7.064l7.913-4.863v-7.056Zm22.35-13.176-7.912,4.855v7.064l7.912-4.863Zm14.437-8.321-7.912,4.856v7.064l7.912-4.863Zm14.438-8.32-7.913,4.855v7.064l7.913-4.863Zm14.437-8.321-7.912,4.855v7.064l7.912-4.862Z"/><path class="cls-2" d="M859.888,642.011v7.064l7.913-4.863v-7.056Zm22.35-13.176-7.912,4.855v7.064l7.912-4.863Zm14.437-8.321-7.912,4.856v7.063l7.912-4.863Zm14.438-8.32-7.913,4.855v7.064l7.913-4.863Zm14.437-8.321-7.912,4.855v7.064l7.912-4.863Z"/><path class="cls-2" d="M859.888,663.192v7.064l7.913-4.863v-7.056Zm22.35-13.176-7.912,4.855v7.064l7.912-4.863Zm14.437-8.321-7.912,4.856v7.063l7.912-4.863Zm14.438-8.32L903.2,638.23v7.064l7.913-4.863Zm14.437-8.321-7.912,4.855v7.064l7.912-4.863Z"/><path class="cls-2" d="M859.888,684.372v7.064l7.913-4.862v-7.057Zm22.35-13.175-7.912,4.855v7.064l7.912-4.863Zm14.437-8.321-7.912,4.855V674.8l7.912-4.863Zm14.438-8.32-7.913,4.855v7.064l7.913-4.863Zm14.437-8.321-7.912,4.855v7.064l7.912-4.863Z"/><path class="cls-2" d="M859.888,705.553v7.064l7.913-4.863V700.7Zm22.35-13.175-7.912,4.855V704.3l7.912-4.863Zm14.437-8.321-7.912,4.855v7.064l7.912-4.863Zm14.438-8.32-7.913,4.855v7.064l7.913-4.863Zm14.437-8.321-7.912,4.855v7.064l7.912-4.863Z"/><path class="cls-2" d="M859.888,726.734V733.8l7.913-4.863v-7.056Zm22.35-13.176-7.912,4.856v7.064l7.912-4.863Zm14.437-8.32-7.912,4.855v7.064l7.912-4.863Zm14.438-8.321-7.913,4.855v7.065l7.913-4.864Zm14.437-8.32-7.912,4.855v7.064l7.912-4.863Z"/></g><g id="logo_left" data-name="logo left"><polygon class="cls-2" points="310.992 96.015 310.992 119.259 307.674 119.259 307.674 108.895 294.331 108.895 294.331 119.259 291.012 119.259 291.012 96.015 294.331 96.015 294.331 106.012 307.674 106.012 307.674 96.015 310.992 96.015"/><path class="cls-2" d="M331.6,110.792l-5.013-11.387-5.012,11.387Zm1.161,2.656H320.414l-2.558,5.811h-3.414l10.522-23.244h3.283L338.8,119.259h-3.484l-2.559-5.811Z"/><path class="cls-2" d="M357.693,104.115c0-3.32-2.227-5.216-6.471-5.216h-5.641v10.459h5.641C355.466,109.358,357.693,107.436,357.693,104.115Zm.1,15.144-5.012-7.139c-.463.035-.961.07-1.459.07h-5.737v7.069h-3.318V96.015h9.055c6.043,0,9.693,3.058,9.693,8.1a7.344,7.344,0,0,1-5.108,7.341l5.51,7.8h-3.624Z"/><polygon class="cls-2" points="387.925 119.259 387.89 102.324 379.498 116.437 377.97 116.437 369.578 102.42 369.578 119.259 366.39 119.259 366.39 96.015 369.115 96.015 378.808 112.356 388.361 96.015 391.086 96.015 391.121 119.259 387.933 119.259 387.925 119.259"/><path class="cls-2" d="M417.562,107.637a9.025,9.025,0,1,0-8.994,8.931A8.724,8.724,0,0,0,417.562,107.637Zm-21.368,0c0-6.807,5.24-11.884,12.374-11.884s12.313,5.051,12.313,11.884-5.24,11.884-12.313,11.884S396.194,114.444,396.194,107.637Z"/><polygon class="cls-2" points="445.943 96.015 445.943 119.259 443.218 119.259 429.281 101.922 429.281 119.259 425.963 119.259 425.963 96.015 428.688 96.015 442.625 113.352 442.625 96.015 445.943 96.015"/><polygon class="cls-2" points="461.809 111.22 461.809 119.259 458.526 119.259 458.526 111.159 449.305 96.015 452.859 96.015 460.29 108.266 467.756 96.015 471.04 96.015 461.809 111.22"/><path class="cls-2" d="M248.259,104.787a11.135,11.135,0,0,1,9.308,5.532,15.647,15.647,0,0,1,1.939,4.631c.437,1.853.244,3.793.672,5.645a7.72,7.72,0,0,0,15.3-1.494c0-4.282-3.371-7.279-7.423-7.742a12.8,12.8,0,0,1-7.309-2.788c-3.537-2.849-4.759-6.615-4.759-11.692,0-4.334-3.3-8.4-7.816-8.345s-7.641,4.011-7.641,8.336c0,5.077-1.222,8.844-4.759,11.692a12.739,12.739,0,0,1-7.309,2.788c-4.052.463-7.422,3.521-7.422,7.742a7.719,7.719,0,0,0,15.3,1.494c.428-1.852.236-3.792.672-5.645,1.24-5.243,5.545-10.145,11.248-10.171Z"/></g></g></svg>