<svg xmlns="http://www.w3.org/2000/svg" xmlns:xlink="http://www.w3.org/1999/xlink" viewBox="0 0 1920 1080"><defs><style>.cls-1,.cls-11{fill:none;}.cls-2{fill:#0f1854;}.cls-3{fill:#2b45ed;}.cls-4{fill:#aeb8fe;}.cls-5{clip-path:url(#clip-path);}.cls-6{clip-path:url(#clip-path-2);}.cls-7{fill:url(#radial-gradient);}.cls-8{fill:#fff;}.cls-9{fill:url(#radial-gradient-2);}.cls-10{fill:url(#radial-gradient-3);}.cls-11{stroke:#875ccc;stroke-linecap:round;stroke-linejoin:round;stroke-width:3.306px;}.cls-12{fill:url(#radial-gradient-4);}.cls-13{fill:url(#radial-gradient-5);}.cls-14{fill:url(#radial-gradient-6);}.cls-15{fill:url(#radial-gradient-7);}.cls-16{fill:url(#radial-gradient-8);}.cls-17{fill:url(#radial-gradient-9);}.cls-18{fill:url(#radial-gradient-10);}.cls-19{fill:url(#radial-gradient-11);}.cls-20{fill:#b29ded;}</style><clipPath id="clip-path"><circle id="_Clipping_Path_" data-name="&lt;Clipping Path&gt;" class="cls-1" cx="757.94" cy="531.583" r="100.429"/></clipPath><clipPath id="clip-path-2"><circle id="_Clipping_Path_2" data-name="&lt;Clipping Path&gt;" class="cls-1" cx="757.94" cy="531.583" r="101.288" transform="translate(-153.89 691.641) rotate(-45)"/></clipPath><radialGradient id="radial-gradient" cx="772.995" cy="447.026" r="163.562" gradientUnits="userSpaceOnUse"><stop offset="0.469" stop-color="#2b71ed"/><stop offset="0.648" stop-color="#2b6eed"/><stop offset="0.791" stop-color="#2b64ed"/><stop offset="0.922" stop-color="#2b53ed"/><stop offset="1" stop-color="#2b45ed"/></radialGradient><radialGradient id="radial-gradient-2" cx="914.062" cy="373.693" r="126.135" gradientUnits="userSpaceOnUse"><stop offset="0.508" stop-color="#7f90e5"/><stop offset="0.572" stop-color="#8091e5" stop-opacity="0.982"/><stop offset="0.637" stop-color="#8293e7" stop-opacity="0.929"/><stop offset="0.703" stop-color="#8796e9" stop-opacity="0.84"/><stop offset="0.769" stop-color="#8c9bec" stop-opacity="0.716"/><stop offset="0.835" stop-color="#94a2f0" stop-opacity="0.555"/><stop offset="0.901" stop-color="#9daaf5" stop-opacity="0.358"/><stop offset="0.967" stop-color="#a8b3fb" stop-opacity="0.13"/><stop offset="1" stop-color="#aeb8fe" stop-opacity="0"/></radialGradient><radialGradient id="radial-gradient-3" cx="985.711" cy="305.304" r="40.58" xlink:href="#radial-gradient-2"/><radialGradient id="radial-gradient-4" cx="442.178" cy="730.758" r="53.729" xlink:href="#radial-gradient-2"/><radialGradient id="radial-gradient-5" cx="460.257" cy="668.677" r="26.349" xlink:href="#radial-gradient-2"/><radialGradient id="radial-gradient-6" cx="4325.919" cy="730.758" r="53.729" gradientTransform="matrix(-1, 0, 0, 1, 4843.06, 0)" xlink:href="#radial-gradient-2"/><radialGradient id="radial-gradient-7" cx="4343.998" cy="668.677" r="26.349" gradientTransform="matrix(-1, 0, 0, 1, 4843.06, 0)" xlink:href="#radial-gradient-2"/><radialGradient id="radial-gradient-8" cx="554.68" cy="404.365" r="136.536" xlink:href="#radial-gradient-2"/><radialGradient id="radial-gradient-9" cx="1062.907" cy="616.866" r="44.201" xlink:href="#radial-gradient-2"/><radialGradient id="radial-gradient-10" cx="817.23" cy="846.518" r="89.621" xlink:href="#radial-gradient-2"/><radialGradient id="radial-gradient-11" cx="2976.193" cy="846.518" r="89.621" gradientTransform="matrix(-1, 0, 0, 1, 3656.999, 0)" xlink:href="#radial-gradient-2"/></defs><title>18- International cancer data harmonization - the state of 2024</title><g id="_18:_International_cancer_data_harmonization_-_the_state_of_2024" data-name="18: International cancer data harmonization - the state of 2024"><rect class="cls-2" width="1920" height="1080"/><path class="cls-3" d="M591.075,613.984a183.036,183.036,0,0,1-18.12-75.063l-155-11.178c-.248,5.33-.373,10.619-.373,15.807A339.518,339.518,0,0,0,535.792,801.515L639.057,675.349A183.251,183.251,0,0,1,591.075,613.984Z"/><path class="cls-4" d="M677.191,368.287a182.369,182.369,0,0,1,72.285-18.064V251.3a292.417,292.417,0,0,0-282.17,262.551l106.059,7.647A184.209,184.209,0,0,1,677.191,368.287Z"/><path class="cls-3" d="M922.117,452.87l137.531-67.929A340.563,340.563,0,0,0,766.886,203.062v147.3C832.8,354.013,892.8,393.368,922.117,452.87Z"/><path class="cls-4" d="M1067.372,400.544l-138.287,68.3c29.628,77.863,2.682,165.7-63.495,214.007l94.046,135.327A341.041,341.041,0,0,0,1098.779,543.55,337.108,337.108,0,0,0,1067.372,400.544Z"/><path class="cls-4" d="M757.1,718.328a184.479,184.479,0,0,1-104.142-32.472L579.812,775.22a292.43,292.43,0,0,0,338.008,13.3l-66.772-96.083q-6.909,4.1-14.275,7.663A182.4,182.4,0,0,1,757.1,718.328Z"/><g id="_Group_" data-name="&lt;Group&gt;"><g class="cls-5"><g id="_Clip_Group_" data-name="&lt;Clip Group&gt;"><g class="cls-6"><g id="_Group_2" data-name="&lt;Group&gt;"><g id="_Group_3" data-name="&lt;Group&gt;"><g id="_Group_4" data-name="&lt;Group&gt;"><circle id="_Path_" data-name="&lt;Path&gt;" class="cls-7" cx="757.94" cy="531.583" r="100.429"/><g id="_Group_5" data-name="&lt;Group&gt;"><path id="_Path_2" data-name="&lt;Path&gt;" class="cls-4" d="M854.631,515.493l0,.021C854.658,515.537,854.654,515.527,854.631,515.493Z"/><g id="_Group_6" data-name="&lt;Group&gt;"><path class="cls-4" d="M770.091,429.871a1.133,1.133,0,0,0-.285,0l-.925.113-.136,1.226a1.141,1.141,0,0,0,.066.524l3.482,9.244a1.132,1.132,0,0,1-.271,1.212l-.916.888-4.572,4.75a1.133,1.133,0,0,1-1.191.284l-5.576-1.955a1.145,1.145,0,0,0-.258-.057l-7.06-.733a1.094,1.094,0,0,0-.151,0l-4.313.129a1.133,1.133,0,0,0-.594.19l-7.675,5.117a1.133,1.133,0,0,0-.482,1.171l.567,2.748a1.134,1.134,0,0,0,.36.621l8.143,7.181a1.132,1.132,0,0,1,.147,1.543l-4.121,5.323a1.132,1.132,0,0,1-.655.413l-2.07.452a1.134,1.134,0,0,1-1.272-.637l-2.845-6.239c-.014-.03-.029-.059-.045-.088l-1.635-2.891a1.134,1.134,0,0,0-1.753-.276l-4.467,4.109a1.1,1.1,0,0,0-.22.278c-.389.694-1.873,3.491-1.27,4.745a24.508,24.508,0,0,0,3.181,4.034,1.127,1.127,0,0,1,.268,1.029l-.141.587a1.133,1.133,0,0,0,.535,1.243l5.274,3.049a1.132,1.132,0,0,1,.189,1.824l-2.473,2.217a1.13,1.13,0,0,1-.457.249l-6.681,1.825a1.129,1.129,0,0,0-.826.951c-.255,2.062-.887,7.675-.253,8.092.583.384,1.669-.67,2.176-1.221a1.124,1.124,0,0,1,.7-.359l8.164-.9a1.133,1.133,0,0,0,.782-.446l5.167-6.889a1.146,1.146,0,0,1,.366-.316l5.012-2.718a1.131,1.131,0,0,1,1.062-.009l9.712,5.044a1.124,1.124,0,0,1,.53.586l1.41,3.543a1.133,1.133,0,0,0,2.081.055l1.063-2.31a1.132,1.132,0,0,0-.259-1.3l-7.008-6.5a1.133,1.133,0,0,1,1.1-1.915l4.47,1.342a1.137,1.137,0,0,1,.6.433l4.209,5.979c.024.033.049.065.076.1l1.386,1.575a1.133,1.133,0,0,0,1.927-.395h0a1.132,1.132,0,0,1,2.158.017c.63,2.037,1.321,4.3,1.392,4.644.118.574,4.106.131,4.973.027a1.09,1.09,0,0,0,.317-.087l3.787-1.657a1.122,1.122,0,0,0,.286-.18l2.268-1.955a1.134,1.134,0,0,1,1.6.117l3.949,4.569a1.134,1.134,0,0,1,.15,1.259l-1.606,3.116a1.125,1.125,0,0,1-.907.61c-3.019.251-16.057,1.36-16.537,1.826a7.675,7.675,0,0,0-.717,2.942,1.124,1.124,0,0,1-1.01.99c-2.8.27-11.072,1.026-11.51.575-.462-.476-3.93-3.384-4.779-4.1a1.136,1.136,0,0,1-.293-.377l-3.605-7.5a1.135,1.135,0,0,0-1.393-.58l-28.41,9.868a1.118,1.118,0,0,0-.648.577c-1.261,2.643-8.046,16.824-8.632,17.106s1.168,18.63,1.447,21.488a1.116,1.116,0,0,0,.293.652l14.284,15.555a1.133,1.133,0,0,0,1.231.294l23.013-8.6a1.132,1.132,0,0,1,1.448.639l.727,1.81a1.122,1.122,0,0,0,.711.659c1.687.522,7,2.2,7.26,2.746.277.576,1.549,8.025,1.827,9.666a1.1,1.1,0,0,0,.267.557c1.739,1.953,13.533,15.253,13.022,16.237-.552,1.062-2.032,6.82-1.3,7.795s4.908,8,5.85,9.4a72.115,72.115,0,0,0,5.692,5.915,1.13,1.13,0,0,0,1.376.148l11.2-6.861a1.085,1.085,0,0,0,.274-.236c1.563-1.874,18.4-22.107,17.9-23.135-.518-1.079-4.141-9.163-4.875-10.138s5.327-19.294,5.344-20.364c.014-.95,11.492-17.669,14.068-21.411a1.125,1.125,0,0,0-.1-1.4l-2.485-2.7a1.133,1.133,0,0,0-1.633-.035l-6.47,6.45a1.13,1.13,0,0,1-.991.315l-10.017-1.714a1.115,1.115,0,0,1-.665-.375c-1.816-2.123-12.489-14.611-12.774-15.2-.154-.319-2.054-2.652-3.937-4.931l0,.006,2.036-.979a1.132,1.132,0,0,1,1.312.239l15.836,16.641a1.136,1.136,0,0,0,1.019.335l5.69-1.012a1.119,1.119,0,0,0,.656-.371c1.209-1.4,6.261-7.262,6.641-7.444.431-.208,3.444-10.51,3.444-10.51l1.208-4.6a1.134,1.134,0,0,1,1.137-.844l8.683.317a1.136,1.136,0,0,1,.98.641l6.565,13.652a1.1,1.1,0,0,0,.13.208c.26.33,1.155,1.468,2.12,2.7a1.133,1.133,0,0,0,2-.912L849.79,490.5a1.127,1.127,0,0,1,.015-.5l.518-2.012c-.027-.274-.051-.525-.078-.8A102.342,102.342,0,0,0,770.091,429.871Z"/></g><g id="_Group_7" data-name="&lt;Group&gt;"><path class="cls-4" d="M697.2,614.071c-.3-2.19-1.058-8-.7-8.6.44-.743,3.323-.27,3.323-.27s-3.656-5.944-9.624-17.415-.646-3.939-.19-5.752,2.741-4.24,2.87-5.629-4.822-6.712-6.523-7.487-11.209-8.95-12.048-10.141-2.527-9.673-2.527-9.673l-8.053-5.147-4.465-9.283s-1.669-2.543-3.732-5.7a102.571,102.571,0,0,0,41.671,85.1Z"/></g><g id="_Group_8" data-name="&lt;Group&gt;"><path class="cls-4" d="M664.986,488.557c2.251-1.57,5.637-3.7,5.637-3.7l3.724-5.509,7.874,3.118s.524,7.716.66,5.791a53.145,53.145,0,0,1,1.827-7.245,30.174,30.174,0,0,1,3.419-6.7c2.078-2.859,4.7-6.244,6.312-6.754s3.334-7.978,3.334-7.978l.257-2.779c1.182-.3,4.011-3.257,4.011-3.257l1.51-.726s4.778-4.423,6.192-5.9,2.613-2.85,2.613-2.85l-5.436,12.441-1.309,3.905a50.041,50.041,0,0,1,14.883-7.158c7.809-1.985,10.289-2.9,10.289-2.9l2.437-3.216.711-6.805s2.717-2.634,3.061-4.128c.213-.925-1.778-2.829-3.324-4.144a102.593,102.593,0,0,0-68.682,56.5Z"/></g><g id="_Group_9" data-name="&lt;Group&gt;"><path class="cls-4" d="M825.662,566.453c1,4.832-4.432,16.738-4.432,16.738s-3.3,12.475,1.171,7.4,4.38-6.356,4.38-6.356l1.958-2,1.791-5.111s1.082-7.691,1.45-10.789C831.98,566.336,824.666,561.62,825.662,566.453Z"/></g></g></g></g></g></g></g></g></g><path class="cls-8" d="M932.9,346.764a75.981,75.981,0,1,1,75.979-75.982A76.066,76.066,0,0,1,932.9,346.764Z"/><circle class="cls-2" cx="932.896" cy="270.783" r="69.872"/><path class="cls-4" d="M941.752,213.187a3.786,3.786,0,0,1,5.176,3.359c.948,19.269,7.549,32.113,25.532,46.853,19.563,16.035-13.469,67.466-52.593,60.511s-52.594-44.8-31.428-72.7C904.837,229.6,930.861,217.527,941.752,213.187Z"/><path class="cls-9" d="M951.34,308.214a39.862,39.862,0,0,1-33.881-9.8,41.288,41.288,0,0,1-13.079-32.458,63.521,63.521,0,0,1,4.854-20.616,69.211,69.211,0,0,1,11.34-17.8q2.349-2.788,4.843-5.465c-11.693,6.427-25.867,16.211-36.15,29.768-9.774,12.883-12.374,28.845-6.956,42.695,5.784,14.782,19.538,25.116,37.737,28.352a40.76,40.76,0,0,0,7.1.627c16.528,0,31.747-10.3,40.984-22.918C963.127,304.181,957.45,307.19,951.34,308.214Z"/><path class="cls-10" d="M978.233,275.787c.315,4.167-1.972,8.768-5.769,10.083-5.629,1.951-13.4-3.725-13.119-10.26.21-4.821,4.794-9.806,10.267-9.35C974.571,266.675,977.9,271.362,978.233,275.787Z"/><path class="cls-11" d="M972.24,272.743a2.844,2.844,0,1,1,1.209,5.557"/><path class="cls-8" d="M478.468,746.218a75.981,75.981,0,1,1,75.979-75.982A76.066,76.066,0,0,1,478.468,746.218Z"/><circle class="cls-2" cx="478.468" cy="670.237" r="69.872" transform="translate(-282.454 985.114) rotate(-76.958)"/><path class="cls-4" d="M452.461,633.513c7.3.014,8.4,39.325,12.412,42.976s13.506,8.962,10.951,15.8-16.792,30.563-28.838,26.547-17.157-26.648-14.967-49.645S443.335,633.5,452.461,633.513Z"/><path class="cls-12" d="M449.807,718.254a7.881,7.881,0,0,1-2.494-.4c-10.609-3.536-16.607-23.961-14.264-48.566,2.273-23.868,11.646-34.739,19.393-34.739.641,0,2.288.749,4.112,7.645,1.3,4.9,2.279,11.21,3.227,17.31,1.544,9.932,2.582,16.1,4.4,17.752.8.731,1.81,1.518,2.874,2.351,4.277,3.348,9.6,7.514,7.8,12.319C472.482,698.271,460.437,718.254,449.807,718.254Z"/><path class="cls-13" d="M467.051,679.605c-1.064-.833-2.07-1.62-2.874-2.351-1.814-1.649-2.852-7.82-4.4-17.752-.948-6.1-1.929-12.407-3.227-17.31-1.824-6.9-3.471-7.644-4.112-7.645a8.809,8.809,0,0,0-2.077.259c6.9,8.3,5.789,22.423-2.513,28.6a6.323,6.323,0,0,0-2.536,5.5c1.066,14.955,8.986,31.117,23.533,33.9a60.03,60.03,0,0,0,6.006-10.882C476.651,687.119,471.328,682.953,467.051,679.605Z"/><path class="cls-4" d="M506.857,633.513c-7.3.014-8.4,39.325-12.411,42.976s-13.507,8.962-10.952,15.8,16.792,30.563,28.839,26.547,17.157-26.648,14.966-49.645S515.983,633.5,506.857,633.513Z"/><path class="cls-14" d="M509.512,718.254a7.87,7.87,0,0,0,2.493-.4c10.609-3.536,16.608-23.961,14.265-48.566-2.273-23.868-11.647-34.739-19.393-34.739-.641,0-2.288.749-4.113,7.645-1.3,4.9-2.278,11.21-3.226,17.31-1.544,9.932-2.583,16.1-4.4,17.752-.805.731-1.81,1.518-2.875,2.351-4.277,3.348-9.6,7.514-7.8,12.319C486.836,698.271,498.881,718.254,509.512,718.254Z"/><path class="cls-15" d="M492.267,679.605c1.065-.833,2.07-1.62,2.875-2.351,1.813-1.649,2.852-7.82,4.4-17.752.948-6.1,1.929-12.407,3.226-17.31,1.825-6.9,3.472-7.644,4.113-7.645a8.815,8.815,0,0,1,2.077.259c-6.9,8.3-5.79,22.423,2.512,28.6a6.324,6.324,0,0,1,2.537,5.5c-1.067,14.955-8.987,31.117-23.533,33.9a60.049,60.049,0,0,1-6.007-10.882C482.667,687.119,487.99,682.953,492.267,679.605Z"/><path class="cls-4" d="M503.207,663.53c-7.329-6.531-18.034-9.1-21.72-15.636-.927-1.644-1.114-3.015-.122-13.993.861-9.53,1.811-17.437,2.556-23.12H472.84c.746,5.683,1.7,13.59,2.557,23.12.992,10.978.8,12.349-.122,13.993-3.686,6.541-14.392,9.105-21.72,15.636-1,.894-2.456,2.32-2.19,3.833a3.578,3.578,0,0,0,3.285,2.555c1.972.08,3.521-1.8,4.015-2.373,3.073-3.563,13.056-11.944,19.636-12.152h.159c6.581.208,16.564,8.589,19.636,12.152.494.573,2.043,2.453,4.015,2.373a3.578,3.578,0,0,0,3.286-2.555C505.663,665.85,504.209,664.424,503.207,663.53Z"/><path class="cls-11" d="M474.577,622.023a5.456,5.456,0,0,0,7.853.25"/><path class="cls-11" d="M475.94,637.735a4.189,4.189,0,0,0,5.636-.786"/><path class="cls-11" d="M468.122,654.034a4.034,4.034,0,0,0,2.255,3.728"/><path class="cls-11" d="M484.77,657.423a4.107,4.107,0,0,0,2.087-3.221"/><path class="cls-11" d="M493.9,663.072a5.835,5.835,0,0,0,1.879-4.262"/><path class="cls-8" d="M544.538,418.576A75.981,75.981,0,1,1,620.517,342.6,76.066,76.066,0,0,1,544.538,418.576Z"/><circle class="cls-2" cx="544.537" cy="342.596" r="69.872"/><path class="cls-4" d="M512.918,290.519h8.969c.545,3.462,1.951,8.915,6.331,12.134,12.948,9.513,34.277-13.437,53.285-5.54,16.338,6.788,19.229,31.488,19.521,34.293,1.674,16.081-4.707,32.8-17.147,43.084-19.306,15.959-49.109,13.026-64.364.968-7.316-5.782-12.7-14.779-16.619-13.189-2.889,1.173-3.126,7.346-2.9,12.221H489.177a24.114,24.114,0,0,1,.792-18.024c.767-1.6,5.016-10.453,11.606-10.816,7.7-.423,9.094,11.265,22.052,15.388,2.118.674,9.052,2.88,15.358-.552a17.382,17.382,0,0,0,7.215-8.1c4.4-9.287.2-19.113.027-19.658C539.033,309.775,502.894,319.535,512.918,290.519Z"/><path class="cls-16" d="M570.264,370.721c.443-.353,6.594-5.375,5.725-10.633-.76-4.6-6.064-4.3-8.1-9.03-3.427-7.939,8.069-15.412,5.606-26.906-3.364-15.7-21.862-4.485-32.512-7.288-11.613-3.317-25.4-11.549-24.691-25.224h-2.563c-4.807,14.791,3.218,18.335,13.335,22.8,7.949,3.509,16.958,7.486,20.234,17.938l.058.155c1.261,3.362,3.773,12.075-.138,20.328a18.5,18.5,0,0,1-7.693,8.607,17.113,17.113,0,0,1-8.281,2.009,26.04,26.04,0,0,1-7.954-1.372c-7.027-2.237-10.8-6.607-13.838-10.119-2.622-3.035-4.516-5.228-7.469-5.228-.112,0-.227,0-.342.01-5.353.294-9.236,7.218-10.658,10.181a22.734,22.734,0,0,0-.991,16.418h3.906a15.862,15.862,0,0,1-1.74-10.827c.748-3.483,3.183-8.1,6.952-9.406,5.8-2.01,11.1,5.141,20.244,11.246C535.736,375.33,559.292,379.464,570.264,370.721Z"/><path class="cls-11" d="M519.778,311.887a14.593,14.593,0,0,0,6.445-9.9"/><path class="cls-11" d="M491.45,354.5a15.634,15.634,0,0,1,10.037,8.406"/><path class="cls-8" d="M1063.057,689.747a75.981,75.981,0,1,1,75.979-75.981A76.067,76.067,0,0,1,1063.057,689.747Z"/><circle class="cls-2" cx="1063.056" cy="613.766" r="69.872"/><path class="cls-4" d="M1100.412,576.7a5.769,5.769,0,0,0-4.241-6.009,8.681,8.681,0,0,0-16.258,1.061,5.512,5.512,0,0,0-10.132,3.3,8.6,8.6,0,0,0-6.951-3.3,8.2,8.2,0,0,0-6.951,4.712,7.211,7.211,0,0,0-13.2,0c-3.516-6.025-10.976-6.96-14.609-3.888-3.251,2.75-3.912,9.111,0,13.785a6.386,6.386,0,0,0,4.006,11.074,6.773,6.773,0,0,0-2.945,4.948,6.549,6.549,0,0,0,2.945,5.891,7.191,7.191,0,0,0,2.356,13.667c.136.5,1.53,5.306,6.229,7.039a10.541,10.541,0,0,0,11.679-3.5,5.21,5.21,0,0,1,3.652.619,4.2,4.2,0,0,1,2.357,2.915c2.827-4.948-3.77-7.775-3.77-7.775a4.869,4.869,0,0,0-5.184-7.423,5.63,5.63,0,0,0-5.42-9.307,3.988,3.988,0,0,0,.707-4.948,3.912,3.912,0,0,0-2.945-1.532,6.089,6.089,0,0,0,2.687-9.332,8.593,8.593,0,0,0,8.269,3.206c4.681-.855,6.4-5.337,6.477-5.537,0,0,3.612,3.137,6.454,2.958,1.323-.083,3.1-.923,5.1-4.254a6.272,6.272,0,0,0,8.584.442,5.022,5.022,0,0,0,3.9,7.805,8.216,8.216,0,0,0-2.356,15.08,6.319,6.319,0,0,0,0,12.017,4.837,4.837,0,0,0-.7,8.878,8.976,8.976,0,0,0-3.657-.435c-2.828.2-3.652,3.456-3.652,3.456s-1.061-3.888-6.362-3.416a7.191,7.191,0,0,0-6.48,4.948,5.456,5.456,0,0,0-6.6-2.357,6.411,6.411,0,0,0-4.476,6.127s-5.42-3.181-8.483,2.71,1.178,7.186,1.178,7.186-6.715,2.946-6.48,9.008,7.305,4.423,8.6,4.894.942,4.595,1.178,5.655,2.945,1.65,4.006.471-.236-7.068,1.152-7.5l-.563.082c.563-.082,3.813-.609,5.419-3.3a7.754,7.754,0,0,0-.476-7.957,4.278,4.278,0,0,0,6.1-2.705,5.568,5.568,0,0,0,4.5,4.417,5.65,5.65,0,0,0,6.126-4.359,8.9,8.9,0,0,0,17.437,0,7.383,7.383,0,0,0,7.54-3.652,7.546,7.546,0,0,0-3.3-9.779c.526-.272,4-2.132,4.6-5.655.669-3.938-2.49-8.542-7.894-9.9a9.176,9.176,0,0,0,3.653-4.713,9.833,9.833,0,0,0-1.532-8.482,7.989,7.989,0,0,0,4.477-3.417,8.5,8.5,0,0,0,.236-7.658,3.476,3.476,0,0,0,0-6.833,3.052,3.052,0,0,0,1.178-2.121,3.151,3.151,0,0,0-1.178-2.592A5.686,5.686,0,0,0,1100.412,576.7Z"/><path class="cls-17" d="M1099.649,576.622a4.917,4.917,0,0,0-2.568-4.7,11.305,11.305,0,0,1-1.186,5,10.687,10.687,0,0,1-4.545,4.455c-3.02,1.6-7.937,2.681-10.271-.426a7.327,7.327,0,0,1-9.269-.311c-2.174,2.471-7.115,3.946-8.526.619-2.045,1.948-5.539,3.46-7.346,1.143a8.6,8.6,0,0,1-6.517,3.149c-2.6-.121-4.349-1.9-5.308-4.125a12.336,12.336,0,0,1-6.909,3.348,9.669,9.669,0,0,1-10.97-7.027,10.1,10.1,0,0,0,.751,5.379.656.656,0,0,1,.706.836,3.805,3.805,0,0,0-.086.382,11.072,11.072,0,0,0,1.058,1.525l.454.543-.5.5a5.661,5.661,0,0,0-.379.424,6.181,6.181,0,0,0,3.4,2.512c2.273.659,4.665-.093,6.959-.241a.686.686,0,0,1,.587,1.023,26.974,26.974,0,0,0-2.613,7.23,6.059,6.059,0,0,0,.007,3.511c.524,1.147,1.955.83,2.922.541a.687.687,0,0,1,.768,1c-.877,1.26-1.764,3.107-1.183,4.67.638,1.714,2.733,1.167,4.027.652a.684.684,0,0,1,.836.837c-.647,1.857-1.346,4.241-.439,6.136.92,1.926,3.287,2.323,5.2,2.394a.694.694,0,0,1,.68.68c.057,4.807-3.658,8.792-8.043,10.117a8.824,8.824,0,0,0,2.631.405,10.187,10.187,0,0,0,7.773-3.807l.147-.18.223-.069a4.031,4.031,0,0,1,1.119-.135,6.826,6.826,0,0,1,3.109.8,5.469,5.469,0,0,1,1.918,1.6,3.193,3.193,0,0,0-.144-1.437c-.759-2.276-3.811-3.617-3.842-3.63l-.828-.358.484-.759a4.085,4.085,0,0,0-3.468-6.357,4.411,4.411,0,0,0-.908.1l-1.938.416,1.153-1.613c1.607-2.245,1.541-5.213-.153-6.9a4.866,4.866,0,0,0-3.485-1.285,5.867,5.867,0,0,0-1.016.082l-2.395.446,1.706-1.738a3.245,3.245,0,0,0,.62-3.979,3.177,3.177,0,0,0-2.346-1.2l-.255-1.477a5.322,5.322,0,0,0,2.346-8.187l1.236-.908a7.927,7.927,0,0,0,6.176,3.046,7.562,7.562,0,0,0,1.352-.122c4.289-.784,5.878-5,5.893-5.046l.383-1.045.841.729c.033.028,3.235,2.778,5.713,2.778.064,0,.127,0,.19-.006,1.49-.093,3-1.4,4.484-3.883l.5-.839.7.688a5.857,5.857,0,0,0,3.325,1.669,5.1,5.1,0,0,0,.634.039,5.949,5.949,0,0,0,3.621-1.332l1.1,1.036a4.255,4.255,0,0,0,3.309,6.615l.133,1.513a7.448,7.448,0,0,0-2.136,13.676l1.415.855-1.567.529a5.551,5.551,0,0,0,0,10.563l2.11.714-2.1.737a4.163,4.163,0,0,0-2.786,3.672,4,4,0,0,0,.436,1.987c.481.54.972,1.079,1.455,1.627.1.066.2.134.3.191l-.045.1a16.234,16.234,0,0,1,2.784,4.137,6.725,6.725,0,0,1-2.915,9.281,5.043,5.043,0,0,1-3.858.764,2.219,2.219,0,0,1-1.5-1.767,9.831,9.831,0,0,1-5.644,1.893,4.151,4.151,0,0,1-4.181-3.5c-3.155,2.76-9.456,7.633-11.7,3.373a4.98,4.98,0,0,1-2.15,1.929,2.486,2.486,0,0,1-2.562-.305c-.33,3.279-1.584,6.744-4.206,8.746a5.251,5.251,0,0,1-5.263.949,4.011,4.011,0,0,1-2.121-2,7.122,7.122,0,0,0-1.252,4.278c.144,3.707,3.067,4.03,6.309,4.048a5.95,5.95,0,0,1,1.787.155c1.417.515,1.5,2.83,1.574,4.872a10.747,10.747,0,0,0,.09,1.332,1.978,1.978,0,0,0,1.515.525,1.58,1.58,0,0,0,1.172-.395c.3-.328.273-2.114.26-3.182-.023-1.944-.044-3.656.812-4.323l-.024-.163a6.966,6.966,0,0,0,4.872-2.933,7.039,7.039,0,0,0-.47-7.161l-1.4-2.265,2.39,1.173a3.793,3.793,0,0,0,1.664.394,3.384,3.384,0,0,0,1.254-.237,3.662,3.662,0,0,0,2.111-2.388l1.488.058a4.831,4.831,0,0,0,3.863,3.816,4.172,4.172,0,0,0,.6.043,4.939,4.939,0,0,0,4.672-3.824h1.491a8.47,8.47,0,0,0,8.042,6.518q.341,0,.686-.031a8.391,8.391,0,0,0,7.216-6.48l.158-.673.686.087a7.468,7.468,0,0,0,.933.059,6.523,6.523,0,0,0,5.828-3.3c1.555-3,.21-6.928-3-8.759l-1.225-.7,1.254-.649c.1-.053.283-.151.506-.287a21.349,21.349,0,0,0-8.559-2.2.685.685,0,0,1-.343-1.266,6.09,6.09,0,0,0,2.891-5.689,8.071,8.071,0,0,0-3.614-5.418.691.691,0,0,1,.163-1.243,2.119,2.119,0,0,0,.2-3.814.689.689,0,0,1,.163-1.243,4.227,4.227,0,0,0,2.871-2.213,4.639,4.639,0,0,0-.1-2.9c-.636-2.184-1.92-4.1-2.821-6.166-.2-.467.147-1.253.767-1,3.664,1.5,4.688-3.578,4.558-6.207a.689.689,0,0,1,1.161-.481,6.943,6.943,0,0,0,5.492,1.657c-.074-.187-.13-.308-.142-.332l-.427-.88.957-.205a2.709,2.709,0,0,0,0-5.332l-1.645-.345,1.338-1.017a2.3,2.3,0,0,0,.878-1.569,2.368,2.368,0,0,0-.881-1.924l-1.163-.895,1.4-.445A4.9,4.9,0,0,0,1099.649,576.622Z"/><path class="cls-11" d="M1035.561,583.108a3.32,3.32,0,1,0,6.5.721,8.769,8.769,0,0,0,17.18.857,5.827,5.827,0,0,0,11.274-1.242,4.653,4.653,0,0,0,8.391-.157,4.161,4.161,0,0,0,8.129-1.759,5.638,5.638,0,0,0,7.459-8.416"/><path class="cls-11" d="M1095.274,592.544a7.273,7.273,0,0,1-8.329,10.729,5.631,5.631,0,0,1-.975,5.244"/><path class="cls-11" d="M1031.633,598.315a6.4,6.4,0,0,0,1.314,9.735,7.078,7.078,0,0,0,3.184,13.712,5.663,5.663,0,0,0,3.441-1.641,4.031,4.031,0,0,0,1.061-3.581"/><path class="cls-11" d="M1059.481,633.711a7.105,7.105,0,0,1,13.455-.412,4.349,4.349,0,0,1,6.781-3.825,7.239,7.239,0,0,1,10.785,9.111"/><path class="cls-8" d="M749.019,901.2A75.981,75.981,0,1,1,825,825.216,76.067,76.067,0,0,1,749.019,901.2Z"/><circle class="cls-2" cx="749.018" cy="825.217" r="69.872"/><path class="cls-4" d="M750.992,791.581c-1.372-10.679,6.728-18.786,13.989-18.429,5.757.282,11.587,5.915,12.657,13.766a14.138,14.138,0,0,1,9.992,1.777c4.558,2.895,6.979,8.543,6.217,14.433a9.389,9.389,0,0,1,6.661,3.33c2.43,3.144,2.337,7.975-.444,11.731.485.458,5.868,5.723,4.663,13.36a15.513,15.513,0,0,1-6.661,10.214,11.03,11.03,0,0,1-6.44,15.544,10.922,10.922,0,0,1-21.316,3.33c-.288.158-5.8,3.061-10.658.222-4.41-2.575-6.4-8.768-4-14.433a6.665,6.665,0,0,1,1.554-11.324,80.019,80.019,0,0,1-6.217-43.521Z"/><path class="cls-18" d="M799.076,819.234l-.927-.875.759-1.026c2.358-3.186,2.547-7.3.462-10a7.978,7.978,0,0,0-5.62-2.775l-1.526-.1.195-1.518c.691-5.331-1.491-10.447-5.56-13.032a11.877,11.877,0,0,0-6.475-1.8,13.523,13.523,0,0,0-2.483.227l-1.485.275-.2-1.5c-1.027-7.542-6.552-12.291-11.3-12.525-.13-.006-.262-.009-.393-.009a11.684,11.684,0,0,0-8.4,4.261,15.893,15.893,0,0,0-3.7,12.557l.024.189-.027.19c-.039.288-.067.576-.1.864,4.666-4.151,11.841-6.387,17.289-4.17,6.488,2.639,7.11,10.72,5.633,16.809A14.391,14.391,0,0,1,784.1,808.6c4.743,4,6.553,10.907,5.282,16.859a13.265,13.265,0,0,1-9.272,10.191c1.815.984,3.314,2.25,3.514,4.712.309,3.8-2.57,7.219-5.9,8.679a8.075,8.075,0,0,1-8.19-.917c-2.012-1.422-3.5-3.477-5.526-4.858-2.555-1.74-4.695.163-6.481,2.126a1.221,1.221,0,0,1-.467.326l.341.275-.423,1c-2.028,4.787-.534,10.333,3.4,12.629a7.87,7.87,0,0,0,4.028,1.044,12.09,12.09,0,0,0,5.211-1.284l1.5-.823.56,1.613a9.712,9.712,0,0,0,9.125,6.586,9.068,9.068,0,0,0,1.874-.2,9.686,9.686,0,0,0,7.517-9.281l.023-1.023.974-.314a9.592,9.592,0,0,0,5.6-13.522l-.585-1.148,1.075-.707a14,14,0,0,0,6.031-9.237C804.386,824.479,799.623,819.751,799.076,819.234Z"/><path class="cls-11" d="M765.745,789.717a7.132,7.132,0,0,1,10.478,6.918"/><path class="cls-11" d="M785.355,811.4a4.579,4.579,0,0,1,4.306,4.051"/><path class="cls-11" d="M792.2,819.523a8.759,8.759,0,0,0,8.878-3.693"/><path class="cls-11" d="M777.4,834.69a5.949,5.949,0,0,0,8.792-4.583"/><path class="cls-11" d="M769.966,848.614a4.759,4.759,0,0,1,4.052-6.3"/><path class="cls-11" d="M774.183,849.2a10.756,10.756,0,0,1,17.488,8.22"/><path class="cls-11" d="M754.81,846.9a8.751,8.751,0,0,1,15.137-2.538"/><path class="cls-11" d="M788.137,812.907a19.621,19.621,0,0,0,5.326-9.624"/><path class="cls-11" d="M783.073,834.963a10,10,0,0,0,15.283,5.987"/><path class="cls-11" d="M773.688,789.964a8.027,8.027,0,0,1,6.336-2.812"/><path class="cls-4" d="M747.044,791.581c1.372-10.679-6.728-18.786-13.989-18.429-5.757.282-11.588,5.915-12.657,13.766a14.137,14.137,0,0,0-9.992,1.777c-4.558,2.895-6.979,8.543-6.217,14.433a9.389,9.389,0,0,0-6.661,3.33c-2.431,3.144-2.338,7.975.444,11.731-.485.458-5.868,5.723-4.663,13.36a15.513,15.513,0,0,0,6.661,10.214,11.031,11.031,0,0,0,6.439,15.544,10.923,10.923,0,0,0,21.317,3.33c.288.158,5.8,3.061,10.658.222,4.41-2.575,6.395-8.768,4-14.433a6.665,6.665,0,0,0-1.555-11.324,80.007,80.007,0,0,0,6.218-43.521Z"/><path class="cls-19" d="M698.959,819.234l.928-.875-.759-1.026c-2.358-3.186-2.548-7.3-.462-10a7.977,7.977,0,0,1,5.62-2.775l1.526-.1-.2-1.518c-.692-5.331,1.491-10.447,5.56-13.032a11.877,11.877,0,0,1,6.475-1.8,13.523,13.523,0,0,1,2.483.227l1.485.275.2-1.5c1.027-7.542,6.552-12.291,11.3-12.525.131-.006.263-.009.394-.009a11.681,11.681,0,0,1,8.4,4.261,15.893,15.893,0,0,1,3.7,12.557l-.024.189.026.19c.04.288.068.576.1.864-4.666-4.151-11.841-6.387-17.289-4.17-6.488,2.639-7.11,10.72-5.633,16.809a14.389,14.389,0,0,0-8.866,3.317c-4.743,4-6.554,10.907-5.282,16.859a13.264,13.264,0,0,0,9.272,10.191c-1.815.984-3.315,2.25-3.515,4.712-.309,3.8,2.571,7.219,5.9,8.679a8.077,8.077,0,0,0,8.191-.917c2.011-1.422,3.5-3.477,5.526-4.858,2.554-1.74,4.7.163,6.48,2.126a1.228,1.228,0,0,0,.467.326l-.34.275.423,1c2.027,4.787.534,10.333-3.4,12.629a7.866,7.866,0,0,1-4.027,1.044,12.092,12.092,0,0,1-5.212-1.284l-1.5-.823-.559,1.613a9.713,9.713,0,0,1-9.125,6.586,9.068,9.068,0,0,1-1.874-.2,9.686,9.686,0,0,1-7.518-9.281l-.022-1.023-.974-.314a9.592,9.592,0,0,1-5.6-13.522l.585-1.148-1.075-.707a14,14,0,0,1-6.031-9.237C693.649,824.479,698.413,819.751,698.959,819.234Z"/><path class="cls-11" d="M732.291,789.717a7.132,7.132,0,0,0-10.478,6.918"/><path class="cls-11" d="M712.681,811.4a4.579,4.579,0,0,0-4.306,4.051"/><path class="cls-11" d="M705.835,819.523a8.758,8.758,0,0,1-8.877-3.693"/><path class="cls-11" d="M720.632,834.69a5.948,5.948,0,0,1-8.792-4.583"/><path class="cls-11" d="M728.07,848.614a4.76,4.76,0,0,0-4.052-6.3"/><path class="cls-11" d="M723.853,849.2a10.756,10.756,0,0,0-17.488,8.22"/><path class="cls-11" d="M743.225,846.9a8.75,8.75,0,0,0-15.136-2.538"/><path class="cls-11" d="M709.9,812.907a19.613,19.613,0,0,1-5.326-9.624"/><path class="cls-11" d="M714.962,834.963a10,10,0,0,1-15.282,5.987"/><path class="cls-11" d="M724.348,789.964a8.027,8.027,0,0,0-6.336-2.812"/><g id="_Group_10" data-name="&lt;Group&gt;"><path id="_Path_3" data-name="&lt;Path&gt;" class="cls-20" d="M1529.513,673.017,1289.22,386.949c-45.01,34.782-35.633,124.47,3.718,165.358s153.988,183.42,153.988,183.42l20.143-66.717Z"/><path id="_Path_4" data-name="&lt;Path&gt;" class="cls-4" d="M1265.96,810.954s169.788-224.506,203.494-270.16,31.354-135.8-17.792-164.44L1172.036,732l82.943,1.334Z"/><path id="_Path_5" data-name="&lt;Path&gt;" class="cls-4" d="M1364.669,291.117c-67.892,4.428-132.2,61.553-112.643,165.741-3.579-54.878,48.557-102.955,116.449-107.383s125.831,36.469,129.411,91.347C1521.381,346.809,1432.561,286.689,1364.669,291.117Z"/></g></g><g id="logo_left" data-name="logo left"><polygon class="cls-8" points="310.992 96.015 310.992 119.259 307.674 119.259 307.674 108.895 294.331 108.895 294.331 119.259 291.012 119.259 291.012 96.015 294.331 96.015 294.331 106.012 307.674 106.012 307.674 96.015 310.992 96.015"/><path class="cls-8" d="M331.6,110.792l-5.013-11.387-5.012,11.387Zm1.161,2.656H320.414l-2.558,5.811h-3.414l10.522-23.244h3.283L338.8,119.259h-3.484l-2.559-5.811Z"/><path class="cls-8" d="M357.693,104.115c0-3.32-2.227-5.216-6.471-5.216h-5.641v10.459h5.641C355.466,109.358,357.693,107.436,357.693,104.115Zm.1,15.144-5.012-7.139c-.463.035-.961.07-1.459.07h-5.737v7.069h-3.318V96.015h9.055c6.043,0,9.693,3.058,9.693,8.1a7.344,7.344,0,0,1-5.108,7.341l5.51,7.8h-3.624Z"/><polygon class="cls-8" points="387.925 119.259 387.89 102.324 379.498 116.437 377.97 116.437 369.578 102.42 369.578 119.259 366.39 119.259 366.39 96.015 369.115 96.015 378.808 112.356 388.361 96.015 391.086 96.015 391.121 119.259 387.933 119.259 387.925 119.259"/><path class="cls-8" d="M417.562,107.637a9.025,9.025,0,1,0-8.994,8.931A8.724,8.724,0,0,0,417.562,107.637Zm-21.368,0c0-6.807,5.24-11.884,12.374-11.884s12.313,5.051,12.313,11.884-5.24,11.884-12.313,11.884S396.194,114.444,396.194,107.637Z"/><polygon class="cls-8" points="445.943 96.015 445.943 119.259 443.218 119.259 429.281 101.922 429.281 119.259 425.963 119.259 425.963 96.015 428.688 96.015 442.625 113.352 442.625 96.015 445.943 96.015"/><polygon class="cls-8" points="461.809 111.22 461.809 119.259 458.526 119.259 458.526 111.159 449.305 96.015 452.859 96.015 460.29 108.266 467.756 96.015 471.04 96.015 461.809 111.22"/><path class="cls-8" d="M248.259,104.787a11.135,11.135,0,0,1,9.308,5.532,15.647,15.647,0,0,1,1.939,4.631c.437,1.853.244,3.793.672,5.645a7.72,7.72,0,0,0,15.3-1.494c0-4.282-3.371-7.279-7.423-7.742a12.8,12.8,0,0,1-7.309-2.788c-3.537-2.849-4.759-6.615-4.759-11.692,0-4.334-3.3-8.4-7.816-8.345s-7.641,4.011-7.641,8.336c0,5.077-1.222,8.844-4.759,11.692a12.739,12.739,0,0,1-7.309,2.788c-4.052.463-7.422,3.521-7.422,7.742a7.719,7.719,0,0,0,15.3,1.494c.428-1.852.236-3.792.672-5.645,1.24-5.243,5.545-10.145,11.248-10.171Z"/></g></svg>