<svg xmlns="http://www.w3.org/2000/svg" xmlns:xlink="http://www.w3.org/1999/xlink" viewBox="0 0 1920 1080"><defs><style>.cls-1{fill:#0f1854;}.cls-2{fill:#fff;}.cls-3{fill:#2b45ed;}.cls-4{fill:#fb4d3d;}.cls-5{fill:#0de5b2;}.cls-6{fill:url(#linear-gradient);}.cls-7{fill:#aeb8fe;}.cls-8{fill:url(#Degradado_sin_nombre_4);}.cls-9{fill:url(#Degradado_sin_nombre_12);}.cls-10{fill:#f7f7f8;}.cls-11{fill:#ffb087;}.cls-12{fill:#ffa678;}.cls-13{isolation:isolate;}.cls-14{fill:#fdfaef;}.cls-15{fill:#faf6d9;}.cls-16{fill:#bddcf2;}.cls-17{fill:none;}</style><linearGradient id="linear-gradient" x1="770.154" y1="364.74" x2="1367.771" y2="364.74" gradientUnits="userSpaceOnUse"><stop offset="0.225" stop-color="#0de5b2"/><stop offset="0.499" stop-color="#fff"/><stop offset="0.787" stop-color="#aeb8fe"/></linearGradient><linearGradient id="Degradado_sin_nombre_4" x1="-903.321" y1="735.865" x2="-758.815" y2="502.999" gradientTransform="translate(2178.852)" gradientUnits="userSpaceOnUse"><stop offset="0.184" stop-color="#b2d6fe"/><stop offset="1" stop-color="#a1bde6"/></linearGradient><linearGradient id="Degradado_sin_nombre_12" x1="-861.086" y1="755.028" x2="-730.972" y2="545.353" gradientTransform="translate(2178.852)" gradientUnits="userSpaceOnUse"><stop offset="0.184" stop-color="#d0e6fe"/><stop offset="1" stop-color="#a1bde6"/></linearGradient></defs><title>19- Pharmaceutical and R&amp;amp;D data harmonization - tools, standards, and processes</title><g id="_19:_Pharmaceutical_and_R_D_data_harmonization_-_tools_standards_and_processes" data-name="19: Pharmaceutical and R&amp;D data harmonization - tools, standards, and processes"><rect class="cls-1" width="1920" height="1080"/><rect class="cls-2" x="438.872" y="183.798" width="1042.256" height="724.404" rx="21.477" ry="21.477"/><rect class="cls-3" x="649.023" y="76.095" width="621.954" height="939.808" transform="translate(1505.999 -414.001) rotate(90)"/><rect class="cls-4" x="491.216" y="233.903" width="209.992" height="212.231" transform="translate(936.23 -256.194) rotate(90)"/><path class="cls-4" d="M702.51,312.184h21.361a6.978,6.978,0,0,1,6.978,6.978v55.475a6.978,6.978,0,0,1-6.978,6.978H702.51a0,0,0,0,1,0,0V312.184A0,0,0,0,1,702.51,312.184Z"/><path class="cls-1" d="M702.51,520.648h21.361a6.978,6.978,0,0,1,6.978,6.978V583.1a6.978,6.978,0,0,1-6.978,6.978H702.51a0,0,0,0,1,0,0V520.648A0,0,0,0,1,702.51,520.648Z"/><path class="cls-5" d="M702.51,713.183h21.361a6.978,6.978,0,0,1,6.978,6.978v55.475a6.978,6.978,0,0,1-6.978,6.978H702.51a0,0,0,0,1,0,0V713.183A0,0,0,0,1,702.51,713.183Z"/><rect class="cls-1" x="495.638" y="439.884" width="201.147" height="212.231" transform="translate(1142.212 -50.212) rotate(90)"/><rect class="cls-5" x="490.707" y="645.355" width="211.01" height="212.231" transform="translate(1347.683 155.259) rotate(90)"/><path class="cls-6" d="M1360.713,425.846h-27.867L1287.437,329.7a22,22,0,0,0-39.2-1.132l-23.26,42.682a22.722,22.722,0,0,1-19.931,12.012v-.046a23.168,23.168,0,0,1-15.207-5.363l-.027-.023c-.392-.331-.771-.681-1.143-1.042l-.148-.142c-.33-.327-.647-.671-.96-1.022-.077-.086-.156-.169-.232-.257-.282-.326-.55-.669-.816-1.016-.091-.119-.187-.233-.276-.355-.246-.335-.479-.687-.71-1.04-.093-.143-.192-.279-.283-.425-.229-.369-.443-.755-.655-1.142-.077-.141-.161-.274-.236-.417q-.418-.8-.788-1.659L1154.705,302.1c-7.2-16.779-30.991-16.779-38.194,0l-29.246,68.121a22.647,22.647,0,0,1-13.871,12.785,23.5,23.5,0,0,1-5.4,1.078v-.049a22.87,22.87,0,0,1-17.623-6.014l-.05-.044c-.352-.333-.692-.684-1.026-1.044-.056-.06-.116-.115-.171-.176-.3-.329-.585-.676-.868-1.027-.081-.1-.167-.192-.246-.294-.266-.34-.518-.7-.768-1.06-.086-.123-.177-.237-.26-.362-.312-.466-.609-.951-.894-1.45-.015-.025-.031-.048-.045-.073l-9.572-16.89-12.762-22.521a24.636,24.636,0,0,0-6.358-7.375c-.158-.122-.315-.245-.476-.363a23.963,23.963,0,0,0-3.154-1.957q-.889-.464-1.807-.851a24.61,24.61,0,0,0-4.275-1.351c-.367-.08-.735-.154-1.105-.218a25.013,25.013,0,0,0-2.542-.31c-.57-.039-1.141-.063-1.713-.063a24.987,24.987,0,0,0-7.722,1.22,24.281,24.281,0,0,0-13.708,11.268l-27.7,48.883a23.771,23.771,0,0,1-1.682,2.568,22.785,22.785,0,0,1-14.642,8.806v-.012a23.24,23.24,0,0,1-13.535-1.851l-.094-.046q-.622-.294-1.228-.628c-.1-.053-.188-.108-.282-.161q-.509-.289-1-.607c-.126-.08-.25-.163-.374-.246q-.444-.3-.875-.616c-.14-.1-.28-.207-.418-.315-.268-.207-.53-.425-.791-.646-.144-.122-.288-.243-.43-.369-.252-.226-.5-.463-.742-.7-.137-.134-.276-.263-.41-.4-.253-.261-.5-.534-.742-.809-.114-.13-.233-.253-.345-.385-.341-.4-.672-.819-.992-1.252l-.025-.031L887.615,347.68a21.075,21.075,0,0,0-35.04,1.528l-16.758,27.507-29.932,49.131H777.213a7.059,7.059,0,1,0,0,14.117h583.5a7.059,7.059,0,0,0,0-14.117Z"/><path class="cls-2" d="M1073.256,516.885H781.632a11.478,11.478,0,0,1-11.478-11.478h0a11.478,11.478,0,0,1,11.478-11.478h291.624a11.478,11.478,0,0,1,11.478,11.478h0A11.478,11.478,0,0,1,1073.256,516.885Z"/><path class="cls-7" d="M834.664,493.929H781.632a11.478,11.478,0,1,0,0,22.956h53.032Z"/><circle class="cls-7" cx="834.664" cy="505.407" r="16.571"/><path class="cls-2" d="M823.627,508.558a11.478,11.478,0,1,1,14.189,7.886A11.478,11.478,0,0,1,823.627,508.558Z"/><path class="cls-2" d="M1073.256,555.616H781.632a11.478,11.478,0,0,1-11.478-11.478h0a11.478,11.478,0,0,1,11.478-11.478h291.624a11.478,11.478,0,0,1,11.478,11.478h0A11.478,11.478,0,0,1,1073.256,555.616Z"/><path class="cls-7" d="M880.863,532.66H781.632a11.478,11.478,0,1,0,0,22.956h99.231Z"/><circle class="cls-7" cx="880.863" cy="544.138" r="16.571"/><path class="cls-2" d="M869.826,547.29a11.478,11.478,0,1,1,14.188,7.885A11.478,11.478,0,0,1,869.826,547.29Z"/><path class="cls-2" d="M1073.256,594.347H781.632a11.478,11.478,0,0,1-11.478-11.478h0a11.478,11.478,0,0,1,11.478-11.478h291.624a11.478,11.478,0,0,1,11.478,11.478h0A11.478,11.478,0,0,1,1073.256,594.347Z"/><path class="cls-7" d="M910.674,571.391H781.632a11.478,11.478,0,1,0,0,22.956H910.674Z"/><circle class="cls-7" cx="911.71" cy="582.869" r="16.571" transform="translate(-20.541 33.452) rotate(-2.079)"/><path class="cls-2" d="M900.673,586.021a11.478,11.478,0,1,1,14.189,7.885A11.478,11.478,0,0,1,900.673,586.021Z"/><path class="cls-4" d="M832.306,785.356a62.152,62.152,0,1,1,62.152-62.151A62.222,62.222,0,0,1,832.306,785.356Zm0-119.05a56.9,56.9,0,1,0,56.9,56.9A56.964,56.964,0,0,0,832.306,666.306Z"/><path class="cls-4" d="M831.388,780.081a56.948,56.948,0,0,1-55.952-55.709h-5.252a62.2,62.2,0,0,0,61.2,60.961Z"/><path class="cls-2" d="M832.306,773.5A50.3,50.3,0,1,1,882.6,723.205,50.352,50.352,0,0,1,832.306,773.5Zm0-96.34a46.045,46.045,0,1,0,46.045,46.045A46.1,46.1,0,0,0,832.306,677.16Z"/><path class="cls-2" d="M831.563,769.231a46.083,46.083,0,0,1-45.278-45.082h-4.25a50.337,50.337,0,0,0,49.528,49.332Z"/><path class="cls-5" d="M988.343,785.356a62.152,62.152,0,1,1,62.151-62.151A62.221,62.221,0,0,1,988.343,785.356Zm0-119.05a56.9,56.9,0,1,0,56.9,56.9A56.964,56.964,0,0,0,988.343,666.306Z"/><path class="cls-5" d="M1045.227,722.621c0,.2.015.388.015.584a56.9,56.9,0,0,1-113.8,0c0-.2.013-.388.015-.584h-5.252c0,.2-.015.388-.015.584a62.152,62.152,0,0,0,124.3,0c0-.2-.013-.388-.015-.584Z"/><path class="cls-2" d="M988.343,773.5a50.3,50.3,0,1,1,50.295-50.295A50.352,50.352,0,0,1,988.343,773.5Zm0-96.34a46.045,46.045,0,1,0,46.045,46.045A46.1,46.1,0,0,0,988.343,677.16Z"/><path class="cls-2" d="M1034.376,722.733c0,.158.012.314.012.472a46.046,46.046,0,0,1-92.091,0c0-.158.011-.314.012-.472h-4.25c0,.158-.012.314-.012.472a50.3,50.3,0,0,0,100.591,0c0-.158-.011-.314-.012-.472Z"/><path class="cls-2" d="M579.728,359.826l-.128-.009c-25.293-1.917-33.615-32.336-36.325-50.3a23.32,23.32,0,0,1,8.167-21.36l5.363-4.424,2.147,2.6-5.362,4.424a19.926,19.926,0,0,0-6.978,18.254c2.555,16.938,10.252,45.59,33.116,47.425,10.06-.808,18.2-6.893,24.189-18.088,5.291-9.889,7.83-21.784,9.028-30.022a18.932,18.932,0,0,0-6.664-17.226l-5.778-4.767,2.148-2.6,5.778,4.767a22.327,22.327,0,0,1,7.856,20.314c-1.238,8.5-3.871,20.81-9.393,31.129-6.6,12.326-15.692,19.011-27.037,19.871Z"/><path class="cls-2" d="M637.62,330.82h-3.374a.964.964,0,0,0-.964.964v44.655a24.064,24.064,0,0,1-24.037,24.036h-3.83a22.789,22.789,0,0,1-22.763-22.764V360.452c10.43-1.683,18.862-8.413,25.09-20.051,5.382-10.057,8.044-21.94,9.349-30.469h-5.366c-1.281,8.038-3.792,18.874-8.658,27.967-5.81,10.858-13.662,16.771-23.339,17.575-21.68-1.8-29.334-28.812-32-45.542h-5.367c2.715,17.753,10.848,47.14,34.986,50.6v17.174a28.1,28.1,0,0,0,28.066,28.066h3.83a29.371,29.371,0,0,0,29.339-29.338V331.784A.965.965,0,0,0,637.62,330.82Z"/><path class="cls-2" d="M563.519,281.983a3.624,3.624,0,0,0-1.13-.633,5.877,5.877,0,0,0-4.709.223c-1.794,1.088-1.268,3.686-.069,5.067a3.4,3.4,0,0,0,4.845.117C563.792,285.565,565.2,283.409,563.519,281.983Z"/><path class="cls-2" d="M597.373,281.983a3.624,3.624,0,0,1,1.13-.633,5.877,5.877,0,0,1,4.709.223c1.794,1.088,1.268,3.686.069,5.067a3.4,3.4,0,0,1-4.845.117C597.1,285.565,595.7,283.409,597.373,281.983Z"/><circle class="cls-2" cx="636.087" cy="330.82" r="11.632"/><path class="cls-2" d="M628.378,330.82a7.709,7.709,0,1,1,7.709,7.709A7.709,7.709,0,0,1,628.378,330.82Z"/><path class="cls-2" d="M629.74,330.82a6.347,6.347,0,1,1,6.347,6.347A6.347,6.347,0,0,1,629.74,330.82Z"/><path class="cls-2" d="M559.869,534.551A21.046,21.046,0,1,1,596.26,513.4l16.976,29.208-36.39,21.151Z"/><path class="cls-2" d="M593.822,592.967l-16.976-29.208,36.39-21.151,16.977,29.208a21.046,21.046,0,0,1-36.391,21.151Z"/><path class="cls-2" d="M617.407,712.379v-9.4H572.675v9.4a22.952,22.952,0,0,0-10.795,19.478v73.164c0,4.291,14.839,5.512,33.153,5.512s33.169-1.9,33.169-5.512V731.857A22.952,22.952,0,0,0,617.407,712.379Z"/><path class="cls-2" d="M614.673,689.7H575.234a4.224,4.224,0,0,0-4.224,4.224v7.053h48.047v-6.893A4.384,4.384,0,0,0,614.673,689.7Z"/><rect class="cls-2" x="571.01" y="699.731" width="48.047" height="1.244"/><path class="cls-2" d="M618.372,704.706H571.7a1.866,1.866,0,0,1-1.866-1.866h0a1.866,1.866,0,0,1,1.866-1.865h46.677a1.865,1.865,0,0,1,1.865,1.865h0A1.865,1.865,0,0,1,618.372,704.706Z"/><rect class="cls-2" x="571.055" y="704.706" width="47.957" height="1.244"/><path class="cls-1" d="M1359.247,505.347c-10.589-11.934-19.835-24.67-21.6-40.975-1.322-12.2-1-23.674-6.866-34.838a53.26,53.26,0,0,0-54.022-28.045c-25.013,3.257-48.257,25.917-43.321,65.106.217,1.725,39.353,13.068,63.036,7.218.043.33-.033,31.562,1.431,49.022,1,11.934,13,19.488,23.184,22.764,10.147,3.264,13.58,9.983,15.814,20.026,2.173,9.772,2.019,19.774,3.466,29.63.691,4.706,1.01,9.508,2.35,14.1,3.094,10.594,23.882,7.972,30.911,5.01,14.434-6.082,20.3-22.124,20.895-36.758.729-17.884-6.381-34.507-16.422-48.984A251.153,251.153,0,0,0,1359.247,505.347Z"/><polygon class="cls-8" points="1292.063 856.908 1291.5 643.436 1241.244 643.436 1250.795 856.908 1292.063 856.908"/><path class="cls-9" d="M1340.049,856.908c-.36-35.988-1.411-24.024,4.99-98.7,7.088-41.982,8.647-67.287-5.286-81.239-10.432-10.445-48.76-10.584-59.051,0l5.6,179.941Z"/><path class="cls-10" d="M1162.606,669.138a262.65,262.65,0,0,1-27.711-1.462,16.153,16.153,0,1,1,3.531-32.112c29.2,3.166,65.687.284,73.46-9.072,15.3-18.419,26.141-58.71,28.95-88.992A16.153,16.153,0,1,1,1273,540.479c-2.44,26.335-12.828,78.433-36.263,106.654C1221.544,665.429,1187.612,669.138,1162.606,669.138Z"/><path class="cls-11" d="M1131.164,641.727c-.22,0-21.951,1.185-32.042,2.345-6.612.76-10.429,9.2-14.18,14.029-3.082,3.965-4.243,9.513-4.26,14.834,1.755,10.281,10.855,13.4,17.332,13.07a122.314,122.314,0,0,1,1.024,16.565c0,1.561,1.624,1.959,2.883,1.621,2.356-.633,2.853-2.47,3.287-4.612.463-2.284.841-8.328,1.084-13.178a28.872,28.872,0,0,1,2.328-9.6c.109-.263.2-.5.26-.713,7.064-.238,3.371-10.5,4.746-12.728.964-1.563,16.783-1.645,17.986-1.645,4.73,0,8.116-5.172,8.116-10.444S1135.894,641.727,1131.164,641.727Z"/><path class="cls-3" d="M1237.475,639.205c-1.925,11.549-11.243,124.453-11.243,124.453,55.233,45.8,129.076,0,129.076,0-2.625-20.907-5.454-79.189-6.143-85.381-3.251-29.194-8-58.614-7.565-87.995.332-22.524,7.369-52.39-13.47-67.805l-.134-.1c-12.793-9.392-41.933-18.313-57.914-17.792C1215.038,506.382,1244.954,594.333,1237.475,639.205Z"/><path class="cls-2" d="M1247.1,765.361c1.094-20.78,14.092-167.14,17.609-187.971,1.823-10.792,2.078-24.547-3.417-38.093-4.907-16.357,8.464-34.018,8.591-34.7-54.765,2.007-27.565,85.433-35.034,130.249-3.887,23.32-19.628,155.8-9.788,165.613,6.593,7.376,16.109,12.794,27.121,16.388C1247.463,800.2,1246.181,782.81,1247.1,765.361Z"/><path class="cls-2" d="M1349.165,678.277c-3.251-29.194-8-58.614-7.565-87.995.332-22.524,7.369-52.39-13.47-67.805l-.134-.1c-4.841-3.555-12.025-7.04-19.949-9.973,5.314,24.438-23.769,32.781-26.855,36.433-6.234,7.377-4.647,21.941-4.634,31.078.018,12.561.522,96.825-2.551,108.31-3.114,11.64-7.32,22.845-9.772,34.679a192.237,192.237,0,0,0-4.047,35.04,163.164,163.164,0,0,0,11.181,63.176c32.672,4.263,70.711-4.265,87.791-23.932C1364.067,774.29,1350.776,692.747,1349.165,678.277Z"/><path class="cls-12" d="M1275.093,543.926c-9.974,0-5.31-16.354-5.31-26.326l-2.538-36.444a18.059,18.059,0,1,1,36.118,0v36.451C1303.363,527.579,1285.067,543.926,1275.093,543.926Z"/><path class="cls-11" d="M1324.389,450.783c1.246,10.189-4.8,34.095-15.021,43.867-15.847,15.152-39.222,18.894-43.462,16.938-14.158-6.53-27.524-32.622-29.652-50.032-3.176-25.988,13.978-49.467,38.316-52.442S1321.213,424.8,1324.389,450.783Z"/><path class="cls-12" d="M1324.389,450.783c-3.176-25.988-25.481-44.643-49.819-41.669s-41.492,26.454-38.316,52.442A75.653,75.653,0,0,0,1242,481.37c9.606,4.681,21.362,5.885,32.5,5.032a19.3,19.3,0,0,1,20.654,15.576c.151.8.308,1.612.483,2.423a61.167,61.167,0,0,0,13.735-9.751C1319.587,484.878,1325.635,460.972,1324.389,450.783Z"/><g class="cls-13"><path class="cls-14" d="M1193.56,694.727q-.006,2.336-.013,4.67l.012-4.67Z"/><path class="cls-14" d="M1193.542,700.877a1.245,1.245,0,0,0-.729,1.019l.018-6.15a1.246,1.246,0,0,1,.728-1.019q-.007,3.075-.016,6.149c.005-2.05.017-4.1.017-6.149a3.9,3.9,0,0,1,3.543,0l-.018,6.15A3.9,3.9,0,0,0,1193.542,700.877Z"/><path class="cls-14" d="M1197.826,701.911a1.255,1.255,0,0,0-.741-1.034l.018-6.15a1.254,1.254,0,0,1,.74,1.034C1197.838,697.606,1197.831,700.066,1197.826,701.911Z"/><path class="cls-15" d="M1197.843,695.761l-.017,6.15a1.245,1.245,0,0,1-.729,1.019,3.9,3.9,0,0,1-3.543,0,1.254,1.254,0,0,1-.741-1.033l.018-6.15a1.256,1.256,0,0,0,.74,1.033,3.9,3.9,0,0,0,3.544,0A1.244,1.244,0,0,0,1197.843,695.761Z"/><polygon class="cls-14" points="1219.295 714.359 1219.277 720.509 1162.013 687.448 1162.03 681.297 1219.295 714.359"/><polygon class="cls-14" points="1162.03 681.297 1162.013 687.448 1072.491 739.472 1072.509 733.322 1162.03 681.297"/><polygon class="cls-16" points="1129.773 766.383 1129.756 772.534 1072.491 739.472 1072.509 733.322 1129.773 766.383"/><path class="cls-15" d="M1100.548,753.344l-.017,6.15a2.674,2.674,0,0,1-1.565,2.193,8.41,8.41,0,0,1-7.624,0,2.7,2.7,0,0,1-1.59-2.223l.017-6.15a2.7,2.7,0,0,0,1.59,2.223,8.412,8.412,0,0,0,7.625,0A2.674,2.674,0,0,0,1100.548,753.344Z"/><polygon class="cls-16" points="1219.295 714.359 1219.278 720.509 1129.756 772.534 1129.773 766.383 1219.295 714.359"/><path class="cls-17" d="M1193.571,696.78a3.9,3.9,0,0,0,3.543,0,1.084,1.084,0,0,0-.011-2.053,3.9,3.9,0,0,0-3.543,0A1.084,1.084,0,0,0,1193.571,696.78Z"/><path class="cls-17" d="M1098.959,751.121a8.412,8.412,0,0,0-7.625,0c-2.1,1.218-2.085,3.2.025,4.416a8.412,8.412,0,0,0,7.625,0C1101.08,754.319,1101.069,752.339,1098.959,751.121Z"/><polygon class="cls-17" points="1072.509 733.322 1129.773 766.383 1219.295 714.359 1162.03 681.297 1072.509 733.322"/><path class="cls-2" d="M1228.487,707.086l-53.926-31.134a13.276,13.276,0,0,0-12.052,0L1061.44,734.687c-3.317,1.927-3.3,5.051.039,6.981l53.927,31.134a13.277,13.277,0,0,0,12.051,0l101.069-58.735C1231.843,712.14,1231.825,709.014,1228.487,707.086Zm-34.927-12.359a3.9,3.9,0,0,1,3.543,0,1.084,1.084,0,0,1,.011,2.053,3.9,3.9,0,0,1-3.543,0A1.084,1.084,0,0,1,1193.56,694.727Zm-63.787,71.656-57.264-33.061L1162.03,681.3l57.265,33.062Z"/><polygon class="cls-7" points="1219.295 714.359 1129.773 766.383 1072.509 733.322 1162.03 681.297 1219.295 714.359"/><path class="cls-10" d="M1228.526,714.067,1127.457,772.8a13.277,13.277,0,0,1-12.051,0l-53.927-31.134c-1.682-.971-2.521-2.244-2.517-3.514l-.018,6.15c0,1.27.836,2.543,2.517,3.514l53.927,31.134a13.277,13.277,0,0,0,12.051,0l101.07-58.735c1.647-.957,2.472-2.21,2.476-3.466l.017-6.15C1231,711.856,1230.174,713.11,1228.526,714.067Z"/></g><path class="cls-2" d="M1209.957,750.5a16.156,16.156,0,0,1-5.966-31.169c33.174-13.185,84.844-37.708,95.845-50.952,20.105-24.21,15.3-87.656,12.032-107.972a16.156,16.156,0,1,1,31.9-5.132,329.7,329.7,0,0,1,3.418,49.9c-.33,38.062-7.9,66.272-22.5,83.85-20.214,24.336-94.156,54.53-108.775,60.336A16.154,16.154,0,0,1,1209.957,750.5Z"/><path class="cls-10" d="M1306.633,704.328c7.6-5.177,13.95-10.366,18.059-15.312a80.145,80.145,0,0,0,12.865-22.742C1320.439,669.591,1307.77,686.567,1306.633,704.328Z"/><path class="cls-10" d="M1203.991,719.326c33.174-13.185,84.844-37.708,95.845-50.952,20.105-24.21,15.3-87.656,12.032-107.972,14.156,39.39,8.336,93.834-6.261,111.411C1285.393,696.15,1195.7,722.618,1203.991,719.326Z"/><path class="cls-11" d="M1201.577,728.2c-.508-.541-18.363,9.586-26.1,9.872-9.3.344-17.721,3.889-26.4,3.328a1.541,1.541,0,0,0-1.651,1.847c1.716,7.009,13.06,7.413,16.555,8.336,5.657,1.487,1.159,5.464,1.159,5.464s-15.711,9.284-15.88,9.228c8.879,1.654,20.858,4,29.3-.094,9.157-4.442,29.3-18.162,31.766-23.547C1213.019,736.131,1208.906,727.755,1201.577,728.2Z"/><path class="cls-1" d="M1378.1,528.618a251.153,251.153,0,0,0-18.854-23.271c-10.589-11.934-19.835-24.67-21.6-40.975-1.322-12.2-1-23.674-6.866-34.838a53.26,53.26,0,0,0-54.022-28.045c-25.013,3.257-49.678,28.534-44.742,67.723.181,1.435,18.73,16.153,46.513,10.686a15.263,15.263,0,0,1,18.176,14.707c.184,9.451.532,20.271,1.2,28.23,1,11.934,11,23.622,21.689,24.082,41.732,1.795,64.448,33.748,60.314,63.768,9.88-7.544,14.116-20.8,14.617-33.083C1395.252,559.718,1388.142,543.1,1378.1,528.618Z"/><path class="cls-2" d="M1151.172,737.168l-8.057-4.651,13.775-8.006-17.583-10.152-13.776,8.006-8.069-4.659a.519.519,0,0,0-.29-.054l-.328.191h0L1115.977,728l-.865,10.387a.179.179,0,0,0,.108.16h0a.532.532,0,0,0,.276.062l17.929-.535,17.524-.535h0l.32-.186A.161.161,0,0,0,1151.172,737.168Z"/><polygon class="cls-2" points="1162.235 721.405 1144.651 711.253 1141.833 712.891 1159.416 723.043 1162.235 721.405"/><polygon class="cls-2" points="1164.727 719.957 1167.556 718.313 1158.764 713.237 1149.972 708.161 1147.143 709.805 1164.727 719.957"/></g><g id="logo_left" data-name="logo left"><polygon class="cls-2" points="310.992 96.015 310.992 119.259 307.674 119.259 307.674 108.895 294.331 108.895 294.331 119.259 291.012 119.259 291.012 96.015 294.331 96.015 294.331 106.012 307.674 106.012 307.674 96.015 310.992 96.015"/><path class="cls-2" d="M331.6,110.792l-5.013-11.387-5.012,11.387Zm1.161,2.656H320.414l-2.558,5.811h-3.414l10.522-23.244h3.283L338.8,119.259h-3.484l-2.559-5.811Z"/><path class="cls-2" d="M357.693,104.115c0-3.32-2.227-5.216-6.471-5.216h-5.641v10.459h5.641C355.466,109.358,357.693,107.436,357.693,104.115Zm.1,15.144-5.012-7.139c-.463.035-.961.07-1.459.07h-5.737v7.069h-3.318V96.015h9.055c6.043,0,9.693,3.058,9.693,8.1a7.344,7.344,0,0,1-5.108,7.341l5.51,7.8h-3.624Z"/><polygon class="cls-2" points="387.925 119.259 387.89 102.324 379.498 116.437 377.97 116.437 369.578 102.42 369.578 119.259 366.39 119.259 366.39 96.015 369.115 96.015 378.808 112.356 388.361 96.015 391.086 96.015 391.121 119.259 387.933 119.259 387.925 119.259"/><path class="cls-2" d="M417.562,107.637a9.025,9.025,0,1,0-8.994,8.931A8.724,8.724,0,0,0,417.562,107.637Zm-21.368,0c0-6.807,5.24-11.884,12.374-11.884s12.313,5.051,12.313,11.884-5.24,11.884-12.313,11.884S396.194,114.444,396.194,107.637Z"/><polygon class="cls-2" points="445.943 96.015 445.943 119.259 443.218 119.259 429.281 101.922 429.281 119.259 425.963 119.259 425.963 96.015 428.688 96.015 442.625 113.352 442.625 96.015 445.943 96.015"/><polygon class="cls-2" points="461.809 111.22 461.809 119.259 458.526 119.259 458.526 111.159 449.305 96.015 452.859 96.015 460.29 108.266 467.756 96.015 471.04 96.015 461.809 111.22"/><path class="cls-2" d="M248.259,104.787a11.135,11.135,0,0,1,9.308,5.532,15.647,15.647,0,0,1,1.939,4.631c.437,1.853.244,3.793.672,5.645a7.72,7.72,0,0,0,15.3-1.494c0-4.282-3.371-7.279-7.423-7.742a12.8,12.8,0,0,1-7.309-2.788c-3.537-2.849-4.759-6.615-4.759-11.692,0-4.334-3.3-8.4-7.816-8.345s-7.641,4.011-7.641,8.336c0,5.077-1.222,8.844-4.759,11.692a12.739,12.739,0,0,1-7.309,2.788c-4.052.463-7.422,3.521-7.422,7.742a7.719,7.719,0,0,0,15.3,1.494c.428-1.852.236-3.792.672-5.645,1.24-5.243,5.545-10.145,11.248-10.171Z"/></g></svg>