<svg xmlns="http://www.w3.org/2000/svg" viewBox="0 0 1920 1080"><defs><style>.cls-1{fill:#0f1854;}.cls-10,.cls-13,.cls-14,.cls-2,.cls-7,.cls-8{fill:#fff;}.cls-3{fill:#0de5b2;}.cls-4{fill:none;stroke:#fff;stroke-linecap:round;stroke-miterlimit:10;stroke-width:1.423px;opacity:0.53;}.cls-5{fill:#fb4d3d;}.cls-6{fill:#2b45ed;}.cls-7{opacity:0.54;}.cls-10,.cls-8{font-size:31.816px;font-family:Montserrat-Bold, Montserrat;font-weight:700;}.cls-11,.cls-8{letter-spacing:0.04em;}.cls-10,.cls-9{letter-spacing:0.05em;}.cls-12{letter-spacing:0.05em;}.cls-13{opacity:0.45;}.cls-14{opacity:0.6;}</style></defs><title>20- Data harmonization in healthcare - from public to private records</title><g id="_20:_Data_harmonization_in_healthcare_-_from_public_to_private_records" data-name="20: Data harmonization in healthcare - from public to private records"><rect class="cls-1" width="1920" height="1080"/><path class="cls-2" d="M922.138,351.613a64.633,64.633,0,1,1,64.633-64.633A64.707,64.707,0,0,1,922.138,351.613Zm0-126.266a61.633,61.633,0,1,0,61.633,61.633A61.7,61.7,0,0,0,922.138,225.347Z"/><path class="cls-2" d="M890.706,324.136a7.244,7.244,0,0,1-4.888-1.926c-6.409-5.593-3.9-19.183-1.688-31.172.206-1.117.41-2.217.6-3.29,1.985-11.1,7.473-21.815,16.311-31.842,7.289-8.272,10.736-10.665,15.57-7.6a4.668,4.668,0,0,1,1.56,1.726l-.065-3.49a5.711,5.711,0,0,1,1.43-4.048,3.164,3.164,0,0,1,2.25-.994h1.042a3.167,3.167,0,0,1,2.252,1,5.715,5.715,0,0,1,1.428,4.052l-.144,6.926c.884-3.194,2.525-6.865,7.526-6.42,5.393.487,16.68,15.96,22.429,28.448,5.964,12.954,6.98,34.168,5.789,39.288-.787,3.382-2.357,5.648-4.668,6.734-2.605,1.225-5.986.817-10.049-1.214a27.908,27.908,0,0,1-5.852-3.649c-1.207-.975-1.658-1.341-6.754-2.24-8.434-1.488-9.247-8.405-9.9-13.962-.161-1.375-.314-2.674-.559-3.892a40.738,40.738,0,0,1-.409-10.778,18.25,18.25,0,0,0-.006-4.214c-.277-1.105-.648-2.63-.985-4.02a2.791,2.791,0,0,1-.626.074,2.934,2.934,0,0,1-.994-.173,18.713,18.713,0,0,0-.488,7.874c.846,4.745.482,6.519-.4,10.8-.429,2.094-.963,4.7-1.569,8.613-1.586,10.253-7.294,10.461-11.071,10.6a8.391,8.391,0,0,0-2.6.325,18.85,18.85,0,0,0-3.121,2.393C899.205,320.505,894.963,324.135,890.706,324.136Zm22.153-74.1c-1.745,0-4.167,1.728-9.567,7.855-8.469,9.609-13.721,19.833-15.607,30.386-.193,1.079-.4,2.184-.6,3.306-1.966,10.647-4.412,23.9.71,28.368,3.41,2.976,7.6-.127,12.318-4.169a18.761,18.761,0,0,1,3.865-2.86,10.13,10.13,0,0,1,3.7-.576c3.6-.132,7.009-.256,8.216-8.06.617-3.987,1.183-6.743,1.6-8.756.844-4.112,1.128-5.5.383-9.676a23.389,23.389,0,0,1,1.3-11.621l.988-2.772a1.916,1.916,0,0,1-1.43.236c-.927-.213-1.5-1-1.691-2.323a46.43,46.43,0,0,1-.195-5.783c0-4.049.014-11.586-1.828-12.753A3.991,3.991,0,0,0,912.859,250.035Zm11.6,21.061.861,3.581c.4,1.646,1.067,4.429,1.5,6.167a18.723,18.723,0,0,1,.091,5.119,38.308,38.308,0,0,0,.354,10.009c.27,1.338.437,2.759.6,4.133.647,5.5,1.205,10.258,7.443,11.359,5.574.984,6.439,1.5,8.118,2.861a25.28,25.28,0,0,0,5.307,3.3c3.2,1.6,5.7,2,7.432,1.183,1.437-.676,2.454-2.256,3.022-4.7,1-4.306.168-24.843-5.592-37.354-6.374-13.843-16.957-26.442-19.974-26.714-2.808-.256-3.645,1.2-4.739,5.7-.462,1.9-.341,5.128-.234,7.977.122,3.27.17,5.175-.271,6.308a2.28,2.28,0,0,1-1.942,1.633c-1.567.139-2.737-1.536-3.172-2.26l-.223-.371.47-22.541a2.331,2.331,0,0,0-.7-1.993l-1.022,0a2.4,2.4,0,0,0-.681,1.991l.442,23.452-.268.394a4.193,4.193,0,0,1-.754.86l1.4,2.888a1.351,1.351,0,0,0,.405.548c-.03-.028.1-.13.242-.371Z"/><path class="cls-2" d="M1086.5,351.613a64.633,64.633,0,1,1,64.633-64.633A64.706,64.706,0,0,1,1086.5,351.613Zm0-126.266a61.633,61.633,0,1,0,61.633,61.633A61.7,61.7,0,0,0,1086.5,225.347Z"/><path class="cls-2" d="M1071.517,329.615c-4.7,0-8.395-1.065-11.163-3.2-6.225-4.79-5.869-13.679-5.657-18.991.4-9.877,9.134-20.325,10.478-21.876,3.209-7.094,10.635-8.26,12.544-8.444a7.594,7.594,0,0,0,2.177-2.271c-.744,0-1.894.082-2.949.164-1.6.124-3.587.279-5.9.309-2.528.04-4.287-.717-5.255-2.23-1.914-2.991.311-7.653,1.381-9.893,1.774-3.719,7.2-1.689,9.811-.708a9.288,9.288,0,0,0-1.164-3.788,2.858,2.858,0,0,0-1.828-1.2,3.07,3.07,0,0,1-2.134-1.583,3.034,3.034,0,0,1,.26-2.509c1.045-2.158,3.272-2.991,4.6-3.489l.222-.084a3.955,3.955,0,0,1,1.009-3.868c1.334-1.134,4.089-.868,5.477-.18a3.3,3.3,0,0,1,.66.426,3.374,3.374,0,0,1,3.458-1.834,3.555,3.555,0,0,1,3.626,3.65c-.043,1.816.1,2.4.3,2.6.081-.2.167-.468.232-.668a4.983,4.983,0,0,1,2.087-3.116c1.752-.955,4.117.165,5.392,1.8,1.253,1.6.924,3.017.2,3.805a4.3,4.3,0,0,0-.668,2.9,2.473,2.473,0,0,0,1.023,1.868c.079.053.155.109.231.168a3.845,3.845,0,0,1,1.257-1.337,4.579,4.579,0,0,1,5.094-.42,2.472,2.472,0,0,1,1.152,1.745c.254-.746.8-1.215,2.071-1.481l.421-.091c2.514-.578,4.936,1.532,5.648,3.208.55,1.29-.388,2.35-1.381,3.471a14.831,14.831,0,0,0-3.556,5.918c-1.235,4.269,2.5,7.907,2.537,7.944l.147.141.109.178c5.243,8.807,6.343,18.809,3.021,27.44-2.74,7.119-9.9,16.807-28.478,22.531C1081.541,328.617,1076.062,329.615,1071.517,329.615Zm6.77-49.542c-.312.014-7.662.431-10.456,6.891l-.1.221-.161.181c-.1.106-9.5,10.788-9.879,20.182-.189,4.731-.506,12.65,4.488,16.494,4.558,3.506,12.951,3.41,24.95-.287,13.789-4.25,22.974-11.422,26.561-20.742,2.971-7.715,1.984-16.695-2.7-24.667-.878-.9-4.781-5.3-3.19-10.792a17.9,17.9,0,0,1,4.191-7.072c.206-.232.443-.5.614-.712-.448-.568-1.3-1.209-1.967-1.054l-.382.082c-.01.141-.02.3-.028.454-.022.349-.047.772-.088,1.289-.07.882-.284,3.57-2.172,4.029-.484.118-1.723.209-2.758-1.455a8.446,8.446,0,0,1-.793-5.075,2.079,2.079,0,0,0-1.454.448l-.037.027a4.316,4.316,0,0,1,.782,2.547,50.048,50.048,0,0,1-.831,6.181l-2.973-.3c.024-2.4-.546-6.371-1.843-7.251a5.415,5.415,0,0,1-2.321-4,7.324,7.324,0,0,1,1.225-5.023c-.29-.532-1.343-1.267-1.767-1.179a3.77,3.77,0,0,0-.636,1.4c-.353,1.076-1.023,3.082-3.139,2.83-3.372-.4-3.294-3.76-3.248-5.769a.411.411,0,0,0-.254-.454,1.51,1.51,0,0,0-1.029-.075c-.016.307-.011.574-.008.806.011.859.031,2.458-1.85,2.96a2.327,2.327,0,0,1-2.125-.406,3.134,3.134,0,0,1-1.017-2.408,3.8,3.8,0,0,0-2.051-.09,3.707,3.707,0,0,0,.124,1.393c.041.229.078.438.1.618.177,1.5-1.248,2.035-2.289,2.424s-2.358.883-2.908,1.9l.086.029a5.732,5.732,0,0,1,3.467,2.545c1.226,2.116,2.271,6.112.957,7.8a2.069,2.069,0,0,1-2.238.72c-.274-.077-.689-.23-1.2-.42-3.626-1.362-5.667-1.636-6.058-.812-.637,1.335-2.576,5.4-1.562,6.984.463.724,1.749.865,2.69.847,2.215-.028,4.15-.179,5.7-.3,3.214-.249,4.984-.386,5.96.81a2.349,2.349,0,0,1,.357,2.248c-.794,2.744-3.7,4.585-4.028,4.786l-.332.2Z"/><path class="cls-2" d="M922.138,516.291a64.633,64.633,0,1,1,64.633-64.633A64.707,64.707,0,0,1,922.138,516.291Zm0-126.266a61.633,61.633,0,1,0,61.633,61.633A61.7,61.7,0,0,0,922.138,390.025Z"/><path class="cls-2" d="M884.585,494.618l-.158-1.629c-.213-2.174-1.951-21.382,2.249-26.562a9.448,9.448,0,0,1,6.94-3.612A12.714,12.714,0,0,1,903,466.556c2.338,2.289,2.47,2.2,5.8,0,.512-.338,1.076-.71,1.707-1.109,2.038-1.289,3.843-1.609,5.363-.952a3.972,3.972,0,0,1,.636.345c1.808-3.744,5.611-6.051,7.516-7.018a17.372,17.372,0,0,1,2.477-11.3,8.47,8.47,0,0,1-3.543-8.693,17.949,17.949,0,0,1-10.721-8.388c-4.656-8.424-1.379-18.981-1.237-19.426l.39-1.226,9.427,1.475-.1,1.378a43.845,43.845,0,0,0,.093,7.55c.657,4.2,1.533,6.493,2.839,7.419,1.038.737,2.623.824,5.471.3a5.693,5.693,0,0,0,3.855-2.079c1.528-1.644,3.078-2.929,7.88-3.26,3.6-.239,7.5,1.541,10.98,5.037a31.747,31.747,0,0,1,8.44,24.269c-1.255,17.063-9.523,28.522-24.573,34.06-14.589,5.368-25.67,1.2-31.177-4.489a10.644,10.644,0,0,0-2.193-1.864l-.2.228c-1.72,1.964-3.843.78-5.248,0-1.672-.932-2.763-1.458-4.124-.584-2.2,1.414-2.093,8.815-1.313,13.619l.234,1.446ZM894.2,465.8q-.208,0-.414.012a6.438,6.438,0,0,0-4.782,2.507c-2.408,2.97-2.366,14.882-1.738,22.749l1.017-.189c-.487-3.854-1.106-12.624,2.86-15.173,2.941-1.889,5.508-.459,7.207.488a8.221,8.221,0,0,0,1.385.673,2.387,2.387,0,0,1,1.4-1.315c1.461-.509,3.173.36,5.549,2.816,1.674,1.73,10.9,10.046,27.985,3.76,13.847-5.095,21.456-15.681,22.617-31.464a28.665,28.665,0,0,0-7.574-21.933c-2.816-2.829-5.958-4.353-8.648-4.161-4,.276-4.874,1.218-5.888,2.309a8.61,8.61,0,0,1-5.511,2.987c-2.729.5-5.556.753-7.749-.8-2.075-1.472-3.253-4.2-4.067-9.4a39.51,39.51,0,0,1-.2-6.85l-4.112-.643c-.66,2.856-1.847,10.1,1.334,15.841,2.01,3.627,5.477,6.1,10.3,7.345l1.657.427-.641,1.587a5.69,5.69,0,0,0,3.118,7.35l1.661.839L929.8,447c-.037.046-4.033,5.125-2.625,11.361l.281,1.247-1.185.476c-.069.028-7.152,2.958-7.721,8.354l-1.053,9.979-1.912-9.851a2.047,2.047,0,0,0-.907-1.32c-.541-.229-1.452.033-2.562.736-.614.388-1.162.75-1.66,1.078-3.706,2.444-5.66,3.452-9.555-.361A9.954,9.954,0,0,0,894.2,465.8Zm8.3,12.18h0Z"/><path class="cls-2" d="M1086.5,516.291a64.633,64.633,0,1,1,64.633-64.633A64.706,64.706,0,0,1,1086.5,516.291Zm0-126.266a61.633,61.633,0,1,0,61.633,61.633A61.7,61.7,0,0,0,1086.5,390.025Z"/><path class="cls-2" d="M1092.017,499.775H1090.1l-.45-.625a15.834,15.834,0,0,1-2.051-5.225,10.741,10.741,0,0,1-7.7-10.286,10.565,10.565,0,0,1,2.389-6.72,10.56,10.56,0,0,1-2.389-6.719,10.684,10.684,0,0,1,5.568-9.4c-.032-.339-.049-.678-.049-1.016a10.741,10.741,0,0,1,10.728-10.728,10.621,10.621,0,0,1,5.763,1.722,10.736,10.736,0,0,1,7.7-3.293,9.9,9.9,0,0,1,2.391.307,14.14,14.14,0,0,1,4.135-1.029c.1-.109.2-.216.306-.321a10.381,10.381,0,0,1,.928-8,9.632,9.632,0,0,1-1.29-3.915,11.223,11.223,0,0,1-1.64-.657,9.625,9.625,0,0,1-7.5,3.556,9.488,9.488,0,0,1-2.777-.416,109.939,109.939,0,0,0-18.46,4.675,9.528,9.528,0,0,1-5.308-1.611,345.013,345.013,0,0,1-19.827-3.3,10.628,10.628,0,0,1-1.965,2.716,10.9,10.9,0,0,1,1.228,5.039,9.522,9.522,0,0,1-.107,1.338,12.214,12.214,0,0,1,.781,4.3c0,.017,0,.035,0,.053a12.083,12.083,0,0,1,1.753,10.9,12.3,12.3,0,1,1-21.132,4.134,12.208,12.208,0,0,1-2.872-7.886c0-.018,0-.035,0-.052a12.1,12.1,0,0,1-.241-13.982,10.925,10.925,0,0,1,3.346-6.753,10.661,10.661,0,0,1,5.476-14.5,11.049,11.049,0,0,1,19.633-2.962,9.642,9.642,0,0,1,6.77,2.979,9.515,9.515,0,0,1,7.815,1.269,50.876,50.876,0,0,0,17.867-1.194,9.655,9.655,0,0,1,8.02-4.256,9.547,9.547,0,0,1,2.561.349,11.264,11.264,0,0,1,9.977-5.96,11.383,11.383,0,0,1,11.369,11.37,10.088,10.088,0,0,1-.111,1.476,9.744,9.744,0,0,1,4.795,8.393,9.42,9.42,0,0,1-.7,3.538,10.422,10.422,0,0,1-.622,13.648,10.659,10.659,0,0,1-2.361,10.535,14.289,14.289,0,0,1-26.8,6.64,10.289,10.289,0,0,1-1.213-.688,10.7,10.7,0,0,1-2.539,1.955c.032.34.049.681.049,1.019a10.556,10.556,0,0,1-2.391,6.719,10.652,10.652,0,0,1-4.129,16.543,10.272,10.272,0,0,1-2.374,5.862Zm4.126-47.719a7.723,7.723,0,0,0-7.563,9.311l.253,1.218-1.149.475a7.692,7.692,0,0,0-2.325,12.764l1.17,1.095-1.17,1.1a7.64,7.64,0,0,0-2.463,5.624,7.732,7.732,0,0,0,6.242,7.576l.966.188.211.961a26.423,26.423,0,0,0,.915,3.258,10.262,10.262,0,0,0,.691-3.312l.055-1.035.986-.315a7.662,7.662,0,0,0,2.926-12.946l-1.169-1.1,1.169-1.094a7.644,7.644,0,0,0,2.464-5.625,7.816,7.816,0,0,0-.165-1.583l-.253-1.218,1.149-.474a7.729,7.729,0,0,0,3.309-2.633l.958-1.327,1.238,1.07a7.733,7.733,0,0,0,2.113,1.328l.518.211.254.5a11.29,11.29,0,0,0,21.382-5.1,1.126,1.126,0,0,1-.029-.259l-.013-.663.482-.456a7.667,7.667,0,0,0,1.793-8.656l-.435-1,.826-.721a7.442,7.442,0,0,0,.506-10.836l-.742-.776.5-.953a6.653,6.653,0,0,0,.792-3.1,6.751,6.751,0,0,0-4.077-6.195l-1.157-.5.294-1.226a8.344,8.344,0,0,0-15.9-4.945l-.568,1.474-1.442-.644a6.676,6.676,0,0,0-8.761,3.182l-.647,1.3-1.324-.608a6.686,6.686,0,0,0-7.278,1.107l-.922.823-.984-.747a6.747,6.747,0,0,0-7.922-.164l-.937.657-.882-.73a6.567,6.567,0,0,0-6.716-1.1l-1.042.406-.687-.884a6.7,6.7,0,0,0-5.31-2.637,1.37,1.37,0,0,0-.14.017c-.112.016-.225.03-.339.038l-.934.065-.469-.81a8.055,8.055,0,0,0-14.848,2.136l-.193.8-.784.266a7.672,7.672,0,0,0-4.024,11.481l.766,1.184-1.135.837a7.926,7.926,0,0,0-3.2,5.833l-.03.427-.25.347a9.116,9.116,0,0,0,.287,11.192l.349.438-.022.56c-.006.126-.021.249-.037.372a9.221,9.221,0,0,0,2.652,6.562l.691.7-.375.914a9.3,9.3,0,1,0,15.234-2.982l-.692-.705.375-.914a9.113,9.113,0,0,0-1.366-9.288l-.352-.442.026-.564c.006-.123.021-.244.037-.364a9.111,9.111,0,0,0-.7-3.615l-.163-.393.068-.421a8.08,8.08,0,0,0,.132-1.27,7.906,7.906,0,0,0-1.391-4.489l-.8-1.164,1.112-.866a7.682,7.682,0,0,0,2.605-3.74l.251-.788.8-.208c.1-.027.2-.061.3-.094l1.029-.332.649.679a6.639,6.639,0,0,0,7.309,1.62l1.042-.405.687.883a6.673,6.673,0,0,0,9.175,1.408l.936-.656.881.728a6.647,6.647,0,0,0,4.277,1.577,6.73,6.73,0,0,0,4.475-1.738l.922-.824.984.749a6.663,6.663,0,0,0,10.082-2.379l.646-1.305,1.324.608a6.654,6.654,0,0,0,8.578-2.679l.809-1.353,1.312.876a8.265,8.265,0,0,0,3,1.244l1.226.244-.037,1.484a6.694,6.694,0,0,0,1.329,3.92l.637.864-.613.881a7.411,7.411,0,0,0-.809,7.056l.405,1.02-.849.695a7.7,7.7,0,0,0-1.1,1.108l-.42.516-.666.035a11.22,11.22,0,0,0-4.18,1.025l-.507.237-.538-.153a7.469,7.469,0,0,0-8.355,2.887l-.958,1.324-1.238-1.068A7.6,7.6,0,0,0,1096.143,452.056Z"/><path class="cls-2" d="M905.648,552.328s-29.976,41.908-30.307,58.842h60.613C935.623,594.236,905.648,552.328,905.648,552.328Z"/><path class="cls-3" d="M935.97,611.46c0-.093-.014-.2-.016-.29H875.341c0,.094-.015.2-.015.29a30.322,30.322,0,1,0,60.644,0Z"/><path class="cls-2" d="M1004.317,552.328S986.1,577.8,977.907,597.055h52.82C1022.536,577.8,1004.317,552.328,1004.317,552.328Z"/><path class="cls-3" d="M1034.639,611.46c0-3.763-1.538-8.825-3.912-14.405h-52.82C975.533,602.635,974,607.7,974,611.46a30.322,30.322,0,1,0,60.644,0Z"/><path class="cls-3" d="M1102.986,552.328s-8.876,12.413-17.024,26.456h34.048C1111.862,564.741,1102.986,552.328,1102.986,552.328Z"/><path class="cls-2" d="M1133.308,611.46c0-7.685-6.387-20.766-13.3-32.676h-34.048c-6.911,11.91-13.3,24.991-13.3,32.676a30.322,30.322,0,1,0,60.644,0Z"/><line class="cls-4" x1="528.199" y1="683.815" x2="1130.073" y2="683.815"/><line class="cls-4" x1="528.199" y1="719.861" x2="1130.073" y2="719.861"/><line class="cls-4" x1="528.199" y1="755.907" x2="1130.073" y2="755.907"/><line class="cls-4" x1="528.199" y1="791.953" x2="1130.073" y2="791.953"/><line class="cls-4" x1="528.199" y1="828" x2="1130.073" y2="828"/><line class="cls-4" x1="528.199" y1="864.046" x2="1130.073" y2="864.046"/><polygon class="cls-5" points="633.859 864.902 619.883 715.224 609.642 768.904 595.774 768.904 581.929 838.229 573.346 766.781 568.52 793.567 528.199 793.567 528.199 790.339 565.821 790.339 573.985 745.032 582.723 817.771 593.126 765.676 606.971 765.676 620.98 692.247 634.717 839.361 644.172 780.854 687.53 780.854 696.059 739.108 705.477 805.129 720.695 692.69 734.801 771.842 781.472 771.842 788.792 732.711 799.694 808.965 814.638 703.646 827.113 807.413 852.963 807.413 863.901 757.782 869.826 812.728 880.614 709.717 893.233 767.573 927.125 767.573 938.95 730.338 950.763 781.811 963.561 747.653 985.513 747.653 996.559 704.757 1015.327 807.547 1020.921 776.319 1045.315 776.319 1061.104 723.12 1071.129 813.977 1082.506 748.735 1094.501 790.339 1130.073 790.339 1130.073 793.567 1092.071 793.567 1083.281 763.079 1070.41 836.893 1059.649 739.368 1047.726 779.548 1023.622 779.548 1015.358 825.686 996.021 719.788 988.015 750.882 965.799 750.882 950.019 792.998 938.448 742.584 929.488 770.802 890.633 770.802 881.735 730.006 869.873 843.272 862.807 777.747 855.558 810.642 824.25 810.642 814.374 728.489 799.707 831.857 788.366 752.543 784.153 775.07 732.097 775.07 721.131 713.538 705.561 828.578 695.494 758.004 690.166 784.082 646.92 784.082 633.859 864.902"/><path class="cls-2" d="M515.634,868.88a2.992,2.992,0,0,1-1.667-.478,3.256,3.256,0,0,1-1.162-1.389,5.938,5.938,0,0,1,0-4.417,3.247,3.247,0,0,1,1.162-1.388,3.132,3.132,0,0,1,3.329,0,3.2,3.2,0,0,1,1.161,1.388,6,6,0,0,1,0,4.417A3.206,3.206,0,0,1,517.3,868.4,3,3,0,0,1,515.634,868.88Zm0-1.013a1.826,1.826,0,0,0,1.1-.342,2.217,2.217,0,0,0,.739-1.024,5.5,5.5,0,0,0,0-3.392,2.207,2.207,0,0,0-.739-1.024,1.82,1.82,0,0,0-1.1-.342,1.843,1.843,0,0,0-1.1.342,2.2,2.2,0,0,0-.746,1.024,5.52,5.52,0,0,0,0,3.392,2.207,2.207,0,0,0,.746,1.024A1.85,1.85,0,0,0,515.634,867.867Z"/><path class="cls-2" d="M504.65,830.547v-.8l4.075-5.213h1.229l-4.041,5.213-.58-.182H511.7v.979Zm4.427,1.958v-1.958l.035-.979v-1.73h1.07v4.667Z"/><path class="cls-2" d="M515.634,832.6a2.991,2.991,0,0,1-1.667-.477,3.262,3.262,0,0,1-1.162-1.389,5.938,5.938,0,0,1,0-4.417,3.256,3.256,0,0,1,1.162-1.389,3.137,3.137,0,0,1,3.329,0,3.206,3.206,0,0,1,1.161,1.389,6,6,0,0,1,0,4.417,3.212,3.212,0,0,1-1.161,1.389A3,3,0,0,1,515.634,832.6Zm0-1.012a1.833,1.833,0,0,0,1.1-.342,2.215,2.215,0,0,0,.739-1.025,5.5,5.5,0,0,0,0-3.391,2.215,2.215,0,0,0-.739-1.025,1.826,1.826,0,0,0-1.1-.341,1.849,1.849,0,0,0-1.1.341,2.2,2.2,0,0,0-.746,1.025,5.517,5.517,0,0,0,0,3.391,2.2,2.2,0,0,0,.746,1.025A1.857,1.857,0,0,0,515.634,831.583Z"/><path class="cls-2" d="M508.7,796.312a3.355,3.355,0,0,1-1.81-.467,2.938,2.938,0,0,1-1.144-1.348,5.291,5.291,0,0,1-.393-2.158,4.979,4.979,0,0,1,.478-2.288,3.292,3.292,0,0,1,1.332-1.411,3.947,3.947,0,0,1,1.958-.478,5.052,5.052,0,0,1,1.087.114,2.749,2.749,0,0,1,.894.353l-.433.888a1.853,1.853,0,0,0-.7-.3,4.23,4.23,0,0,0-.825-.079,2.537,2.537,0,0,0-1.935.757,3.157,3.157,0,0,0-.718,2.248c0,.159.008.35.023.569a3.109,3.109,0,0,0,.114.649l-.387-.387a2.126,2.126,0,0,1,.541-.882,2.324,2.324,0,0,1,.888-.535,3.439,3.439,0,0,1,1.121-.177,3.216,3.216,0,0,1,1.411.3,2.347,2.347,0,0,1,.968.837,2.293,2.293,0,0,1,.353,1.281,2.358,2.358,0,0,1-.376,1.332,2.475,2.475,0,0,1-1.013.876A3.258,3.258,0,0,1,508.7,796.312Zm-.046-.922a2.046,2.046,0,0,0,.916-.193,1.543,1.543,0,0,0,.621-.541,1.456,1.456,0,0,0,.228-.814,1.393,1.393,0,0,0-.49-1.121,1.991,1.991,0,0,0-1.332-.416,2.12,2.12,0,0,0-.956.205,1.642,1.642,0,0,0-.643.552,1.386,1.386,0,0,0-.233.792,1.405,1.405,0,0,0,.216.757,1.579,1.579,0,0,0,.637.563A2.253,2.253,0,0,0,508.656,795.39Z"/><path class="cls-2" d="M515.633,796.312a2.991,2.991,0,0,1-1.667-.477,3.273,3.273,0,0,1-1.161-1.389,5.925,5.925,0,0,1,0-4.417,3.261,3.261,0,0,1,1.161-1.389,3.139,3.139,0,0,1,3.33,0,3.206,3.206,0,0,1,1.161,1.389,6,6,0,0,1,0,4.417,3.218,3.218,0,0,1-1.161,1.389A3.006,3.006,0,0,1,515.633,796.312Zm0-1.013a1.83,1.83,0,0,0,1.1-.341,2.222,2.222,0,0,0,.74-1.025,5.517,5.517,0,0,0,0-3.391,2.216,2.216,0,0,0-.74-1.025,1.824,1.824,0,0,0-1.1-.342,1.85,1.85,0,0,0-1.1.342,2.2,2.2,0,0,0-.745,1.025,5.5,5.5,0,0,0,0,3.391,2.208,2.208,0,0,0,.745,1.025A1.856,1.856,0,0,0,515.633,795.3Z"/><path class="cls-2" d="M508.155,760.03a4.479,4.479,0,0,1-1.673-.284,2.45,2.45,0,0,1-1.093-.815,2.055,2.055,0,0,1-.386-1.246,1.952,1.952,0,0,1,.369-1.2,2.267,2.267,0,0,1,1.076-.751,5.022,5.022,0,0,1,1.707-.256,5.077,5.077,0,0,1,1.714.256,2.283,2.283,0,0,1,1.087.757,1.937,1.937,0,0,1,.375,1.195,2.055,2.055,0,0,1-.386,1.246,2.438,2.438,0,0,1-1.105.815A4.57,4.57,0,0,1,508.155,760.03Zm0-3.939a4.33,4.33,0,0,1-1.547-.244,2.115,2.115,0,0,1-.979-.706,1.792,1.792,0,0,1-.342-1.1,1.883,1.883,0,0,1,.359-1.156,2.266,2.266,0,0,1,1.007-.745,4.474,4.474,0,0,1,3.017,0,2.32,2.32,0,0,1,1.013.745,1.873,1.873,0,0,1,.364,1.156,1.792,1.792,0,0,1-.342,1.1,2.113,2.113,0,0,1-.99.706A4.436,4.436,0,0,1,508.155,756.091Zm0,3.017a2.508,2.508,0,0,0,1.5-.393,1.246,1.246,0,0,0,.54-1.064,1.209,1.209,0,0,0-.54-1.041,2.56,2.56,0,0,0-1.5-.382,2.5,2.5,0,0,0-1.479.382,1.211,1.211,0,0,0-.535,1.041,1.249,1.249,0,0,0,.535,1.064A2.454,2.454,0,0,0,508.155,759.108Zm0-3.745a2.186,2.186,0,0,0,1.3-.341,1.159,1.159,0,0,0-.017-1.879,2.211,2.211,0,0,0-1.287-.341,2.128,2.128,0,0,0-1.269.341,1.179,1.179,0,0,0-.011,1.879A2.109,2.109,0,0,0,508.155,755.363Z"/><path class="cls-2" d="M515.634,760.03a2.984,2.984,0,0,1-1.667-.478,3.259,3.259,0,0,1-1.162-1.388,5.938,5.938,0,0,1,0-4.417,3.244,3.244,0,0,1,1.162-1.389,3.137,3.137,0,0,1,3.329,0,3.2,3.2,0,0,1,1.161,1.389,6,6,0,0,1,0,4.417,3.209,3.209,0,0,1-1.161,1.388A3,3,0,0,1,515.634,760.03Zm0-1.013a1.826,1.826,0,0,0,1.1-.342,2.212,2.212,0,0,0,.739-1.024,5.5,5.5,0,0,0,0-3.392,2.212,2.212,0,0,0-.739-1.024,1.82,1.82,0,0,0-1.1-.342,1.843,1.843,0,0,0-1.1.342,2.2,2.2,0,0,0-.746,1.024,5.52,5.52,0,0,0,0,3.392,2.2,2.2,0,0,0,.746,1.024A1.85,1.85,0,0,0,515.634,759.017Z"/><path class="cls-2" d="M501.918,723.655v-7.513l.489.535h-2.288v-.99h2.926v7.968Z"/><path class="cls-2" d="M508.041,723.746a2.984,2.984,0,0,1-1.667-.478,3.25,3.25,0,0,1-1.161-1.388,5.925,5.925,0,0,1,0-4.417,3.235,3.235,0,0,1,1.161-1.389,3.132,3.132,0,0,1,3.329,0,3.188,3.188,0,0,1,1.161,1.389,6,6,0,0,1,0,4.417,3.2,3.2,0,0,1-1.161,1.388A2.993,2.993,0,0,1,508.041,723.746Zm0-1.013a1.824,1.824,0,0,0,1.1-.342,2.22,2.22,0,0,0,.74-1.024,5.52,5.52,0,0,0,0-3.392,2.215,2.215,0,0,0-.74-1.024,1.818,1.818,0,0,0-1.1-.342,1.843,1.843,0,0,0-1.1.342,2.188,2.188,0,0,0-.745,1.024,5.5,5.5,0,0,0,0,3.392,2.193,2.193,0,0,0,.745,1.024A1.85,1.85,0,0,0,508.041,722.733Z"/><path class="cls-2" d="M515.634,723.746a2.984,2.984,0,0,1-1.667-.478,3.259,3.259,0,0,1-1.162-1.388,5.938,5.938,0,0,1,0-4.417,3.244,3.244,0,0,1,1.162-1.389,3.132,3.132,0,0,1,3.329,0,3.2,3.2,0,0,1,1.161,1.389,6,6,0,0,1,0,4.417,3.209,3.209,0,0,1-1.161,1.388A3,3,0,0,1,515.634,723.746Zm0-1.013a1.826,1.826,0,0,0,1.1-.342,2.212,2.212,0,0,0,.739-1.024,5.5,5.5,0,0,0,0-3.392,2.207,2.207,0,0,0-.739-1.024,1.82,1.82,0,0,0-1.1-.342,1.843,1.843,0,0,0-1.1.342,2.2,2.2,0,0,0-.746,1.024,5.52,5.52,0,0,0,0,3.392,2.2,2.2,0,0,0,.746,1.024A1.85,1.85,0,0,0,515.634,722.733Z"/><path class="cls-2" d="M502.976,687.373V679.86l.49.535h-2.289v-.99H504.1v7.968Z"/><path class="cls-2" d="M508.417,687.463a5.156,5.156,0,0,1-1.634-.261,3.646,3.646,0,0,1-1.292-.706l.524-.9a3.072,3.072,0,0,0,1.036.615,3.831,3.831,0,0,0,1.354.239,2.217,2.217,0,0,0,1.4-.387,1.254,1.254,0,0,0,.489-1.036,1.381,1.381,0,0,0-.216-.774,1.364,1.364,0,0,0-.746-.506,4.733,4.733,0,0,0-1.451-.177h-1.81l.421-4.166h4.5v.99h-4.075l.593-.557-.331,3.289-.592-.546h1.537a5.045,5.045,0,0,1,1.924.306,2.185,2.185,0,0,1,1.058.849,2.34,2.34,0,0,1,.33,1.246,2.425,2.425,0,0,1-.33,1.247,2.335,2.335,0,0,1-1,.9A3.742,3.742,0,0,1,508.417,687.463Z"/><path class="cls-2" d="M515.633,687.463a2.991,2.991,0,0,1-1.667-.477A3.261,3.261,0,0,1,512.8,685.6a5.925,5.925,0,0,1,0-4.417,3.252,3.252,0,0,1,1.161-1.388,3.133,3.133,0,0,1,3.33,0,3.2,3.2,0,0,1,1.161,1.388,6,6,0,0,1,0,4.417,3.206,3.206,0,0,1-1.161,1.389A3.006,3.006,0,0,1,515.633,687.463Zm0-1.012a1.824,1.824,0,0,0,1.1-.342,2.218,2.218,0,0,0,.74-1.024,5.52,5.52,0,0,0,0-3.392,2.208,2.208,0,0,0-.74-1.024,1.818,1.818,0,0,0-1.1-.342,1.843,1.843,0,0,0-1.1.342,2.195,2.195,0,0,0-.745,1.024,5.5,5.5,0,0,0,0,3.392,2.205,2.205,0,0,0,.745,1.024A1.85,1.85,0,0,0,515.633,686.451Z"/><rect class="cls-6" x="495.523" y="336.343" width="279.169" height="75.656" rx="14.304" ry="14.304"/><path class="cls-7" d="M509.827,336.343h71.395a0,0,0,0,1,0,0V412a0,0,0,0,1,0,0H509.827a14.3,14.3,0,0,1-14.3-14.3V350.647A14.3,14.3,0,0,1,509.827,336.343Z"/><text class="cls-8" transform="translate(590.979 383.463)">35<tspan class="cls-9" x="40.311" y="0">%</tspan></text><rect class="cls-6" x="495.523" y="225.847" width="279.169" height="75.656" rx="14.304" ry="14.304"/><path class="cls-7" d="M509.827,225.847H624.477a0,0,0,0,1,0,0V301.5a0,0,0,0,1,0,0H509.827a14.3,14.3,0,0,1-14.3-14.3V240.151A14.3,14.3,0,0,1,509.827,225.847Z"/><text class="cls-10" transform="translate(634.947 272.967)">4<tspan class="cls-11" x="23.512" y="0">5</tspan><tspan x="43.715" y="0">%</tspan></text><rect class="cls-6" x="495.523" y="446.839" width="279.169" height="75.656" rx="14.304" ry="14.304"/><path class="cls-7" d="M509.827,446.839H722.455a0,0,0,0,1,0,0v75.656a0,0,0,0,1,0,0H509.827a14.3,14.3,0,0,1-14.3-14.3V461.143A14.3,14.3,0,0,1,509.827,446.839Z"/><text class="cls-10" transform="translate(640.947 493.958)">9<tspan class="cls-11" x="21.857" y="0">5</tspan><tspan class="cls-12" x="42.061" y="0">%</tspan></text><rect class="cls-6" x="495.523" y="557.335" width="279.169" height="75.656" rx="14.304" ry="14.304"/><path class="cls-7" d="M509.827,557.335H635.107a0,0,0,0,1,0,0V632.99a0,0,0,0,1,0,0H509.827a14.3,14.3,0,0,1-14.3-14.3V571.638A14.3,14.3,0,0,1,509.827,557.335Z"/><text class="cls-10" transform="translate(644.947 606.454)">50%</text><path class="cls-13" d="M1420.421,445.329c-1.082-27.7-7.357-19.693-5.193-46.528s-1.082-45.663-15.582-52.588-43.066-20.775-49.558-28.566c-5.913-7.095-2.708-38.311-2.088-43.832.122-.312.237-.631.357-.945.081.026.131.075.217.1,8.614,2.282,8.915-8.341,9.781-16.781s-4.175-4.268-4.175-4.268-.133.179-.317.43a100.884,100.884,0,0,0,1.431-16.5c0-28.522-14.243-34.626-31.813-34.626s-31.812,6.1-31.812,34.626a100.881,100.881,0,0,0,1.43,16.5l-.316-.43s-5.041-4.172-4.175,4.268,1.167,19.063,9.781,16.781c.086-.022.135-.071.217-.1l.036.1h-.006s4.5,36.889-1.99,44.68-35.058,21.641-49.558,28.566-17.746,25.753-15.581,52.588-4.112,18.828-5.194,46.528-8.007,38.305-.866,69.685,2.381,34.842,6.276,46.1-4.112,43.5,27.7,46.312c0,0,.865,28.134,7.358,43.391s.973,26.294,6.167,45.121-9.414,18.5-1.947,74.013,0,63.949,0,63.949-5.519.325-7.467,10.063-21.586,14.77-24.183,20.938c0,0-3.247,4.707-.325,6.492a2.791,2.791,0,0,0,3.084,2.922s.162,2.921,5.843,1.623c0,0,6.168-1.786,5.843-.487,0,0,.162,2.759,4.22,3.246a11.187,11.187,0,0,0,11.037-5.194c2.759-4.22,5.843.163,8.115-4.22s.487-13.471,10.55-16.555,11.037-7.953,9.252-16.231-1.461-13.309-2.922-25,5.519-28.567,9.09-41.876,3.246-38.2,3.679-58.972,8.223-23.8,5.843-41.334,6.275-33.328,8.872-45.447c.8-3.734,1.394-7.178,1.834-10.16.44,2.982,1.033,6.426,1.834,10.16,2.6,12.119,11.253,27.917,8.872,45.447s5.411,20.559,5.844,41.334.108,45.663,3.679,58.972,10.55,30.189,9.089,41.876-1.136,16.717-2.922,25-.811,13.147,9.252,16.231,8.278,12.173,10.55,16.555,5.356,0,8.115,4.22a11.188,11.188,0,0,0,11.037,5.194c4.058-.487,4.22-3.246,4.22-3.246-.324-1.3,5.843.487,5.843.487,5.681,1.3,5.843-1.623,5.843-1.623a2.79,2.79,0,0,0,3.084-2.922c2.922-1.785-.324-6.492-.324-6.492-2.6-6.168-22.237-11.2-24.184-20.938s-7.466-10.063-7.466-10.063-7.467-8.44,0-63.949-7.142-55.185-1.948-74.013-.325-29.864,6.168-45.121,7.358-43.391,7.358-43.391c31.812-2.813,23.805-35.058,27.7-46.312s-.865-14.716,6.276-46.1S1421.5,473.03,1420.421,445.329Zm-152.341,46.1c0,14.608,4.545,24.671-3.571,34.734s-5.485,34.734-5.485,34.734-5.227.324-9.122-7.791-1.948-30.838,2.921-41.226-2.6-49.017,2.6-59.729,3.246-37.656,3.246-37.656a224.351,224.351,0,0,1,12.66,37.656C1276.845,474.545,1268.08,476.817,1268.08,491.425ZM1396.833,553.1c-3.9,8.115-9.123,7.791-9.123,7.791s2.63-24.671-5.485-34.734-3.571-20.126-3.571-34.734-8.764-16.88-3.246-39.278a224.351,224.351,0,0,1,12.66-37.656s-1.948,26.943,3.246,37.656-2.272,49.341,2.6,59.729S1400.728,544.987,1396.833,553.1Z"/><path class="cls-14" d="M1363.9,392.622c-7.261-15.77-20.71-33.427-26.066-33.91s-6.613,3.591-7.785,8.413.379,14.95-.547,17.33-2.988-1.051-2.988-1.051l.566-27.182c.041-2.372-1.171-4.33-2.681-4.33h-1.28c-1.507,0-2.718,1.951-2.681,4.32l.532,28.253c-.746,1.1-1.593,1.5-1.875-.414-.77-5.244,1.1-21.273-3.325-24.078s-7.6-1.4-16.773,9.009-16.96,23.368-19.621,38.253-7.046,33.866.733,40.655,17.761-6.545,21.851-8.342,13.436,2.788,15.728-12.024,3.879-15.1,2.424-23.267c-.909-5.106.4-10.224,1.517-13.344a2.551,2.551,0,0,0,2.109,1.709,2.386,2.386,0,0,0,1.93-1.351c.487,2.028,1.315,5.458,1.85,7.6.794,3.174-1.073,10.569.529,18.515s.133,18.515,11.374,20.5,5.687,2.248,16,7.406,14.151.132,15.473-5.555S1371.158,408.392,1363.9,392.622Z"/><path class="cls-14" d="M1339.071,385.658s5.252-1.246,8.477,2.725c0,0,7.874,5.035,9.835,11.074s5.071,16.632-16.034,16.107-25.96-14.186-23.1-24.81c0,0,1.989-3.319.175-6.24s-4.558-3.526-4.466-4.239.853-2.032,1.991-2.088.855-.241,1.549,1.64,1.368,1.713,1.636.786a4.7,4.7,0,0,0-.473-2.859c-.285-.546.78-1.493,2.273-.963s.193,1.06.575,2.3a31.155,31.155,0,0,0,1.5,3.465s-1.2-4.093.067-5.594.092-3.808-.825-4.374.57-2.895,1.732-2.628,1.463,2.389,2.467,1.975.941-1.28.443-2.906,2.06-2.288,2.429-1.3.241,1.511.923,1.5.656-.722.441-1.356,1.827-1.57,2.584-1.223.7,1.45.789,1.986,2.477-.087,3.71,1.305-1.066,1.091-1.552,2.986-.009,4.426.823,3.916,4.031-3.367,5.4-1.8,4.569,5.314.184,6.486-7.053,1.052-6.27,2.314A5.331,5.331,0,0,0,1339.071,385.658Z"/><path class="cls-14" d="M1290.855,480.464c-4.008-.711-4.413-3.123-4.7-10.923s-1.087-20.119-2.015-25.084,3.421-8.746,7.475-10.223,11.263-4.939,18.729-1.3a33.74,33.74,0,0,0,20.528,3.148c6.29-.937,15.232-2.12,19.85.427s8.878,3.163,3.78,4.984-7.739,3.186-9.651,8.74-4.189,12.929-11.381,12.929-8.286,1.457-7.739,3-.564,2.273-.355,4.461.2,2.567-1.088,2.513c0,0-.427-2.928-1.859-4.314a9.1,9.1,0,0,1-2.014-3.844s-1.553,4.251-4.736,5.652-12.491,3.073-13.888,4.924S1296.5,481.466,1290.855,480.464Z"/><path class="cls-14" d="M1328.859,423.18s-8.835,22.9,8.594,27.4a6.593,6.593,0,0,0,3.484,8.408s-4.107,5.066-2.657,11.486c0,0-7.253,2.912-7.865,8.715,0,0-.817-4.21-5.221-1.424s-5.171,4.1-8.51.83-9.251-4.641-12.826-.232-1.746,23.149-1.746,23.149l3.684-.686s-1.855-11.393,1.8-13.744,6.4,2.874,8.229.784c0,0,.261-2.613,4.18,1.437s13.146,8.8,26.884,3.748,20.4-15.573,21.445-29.776-8.621-25.7-16.2-25.175-4.827,3.788-10.512,4.833-7.893-.129-9.146-8.146a9.688,9.688,0,0,0-2.047-4.526Z"/><path class="cls-14" d="M1376.872,522.819a8.821,8.821,0,0,0-2.468-6.114,8.017,8.017,0,0,0,.944-3.721,8.1,8.1,0,0,0-4.891-7.436,9.667,9.667,0,0,0-18.425-5.73,13.23,13.23,0,0,1-13.893,3.062,7.972,7.972,0,0,1-10.251.411,7.988,7.988,0,0,1-9.78-.411,7.973,7.973,0,0,1-9.309-2.592c-.2,0-.38.043-.573.057a9.384,9.384,0,0,0-17.29,2.491,9.009,9.009,0,0,0-4.715,13.47,9.237,9.237,0,0,0-3.736,6.81,10.43,10.43,0,0,0,.326,12.775c-.008.164-.049.319-.049.485a10.563,10.563,0,0,0,3.037,7.415,10.6,10.6,0,1,0,17.375-3.4,10.432,10.432,0,0,0-1.554-10.6c.008-.165.049-.319.049-.485a10.563,10.563,0,0,0-.811-4.055,8.813,8.813,0,0,0-1.473-6.723,9.032,9.032,0,0,0,3.056-4.387c.174-.045.342-.1.512-.159a33.419,33.419,0,0,1,15.155,5.105,7.99,7.99,0,0,1,9.78.412,7.974,7.974,0,0,1,10.251-.412,8.014,8.014,0,0,1,10.605-3.77,8.073,8.073,0,0,0,6.934-3.966,9.622,9.622,0,0,0,3.482,1.441c0,.066-.02.126-.02.192a8.034,8.034,0,0,0,1.593,4.783,8.75,8.75,0,0,0-.955,8.314,9.065,9.065,0,0,0-1.292,1.3,12.5,12.5,0,0,0-4.652,1.142,12.3,12.3,0,0,1-15.7,1.16,9.057,9.057,0,0,0-8.869,10.917,9.027,9.027,0,0,0-2.728,14.972,9.032,9.032,0,0,0,4.436,15.486,17.207,17.207,0,0,0,1.982,5.487h.506s1.79-1.832,2-5.781a9,9,0,0,0,3.432-15.192,8.992,8.992,0,0,0,2.692-8.453,3.472,3.472,0,0,1,6.365-1.531,12.561,12.561,0,0,0,23.784-5.676c0-.1-.026-.187-.028-.283a9,9,0,0,0,2.1-10.155A8.807,8.807,0,0,0,1376.872,522.819Z"/><path class="cls-14" d="M1350.586,232.8c.448-3.466-1.079-2.852-1.973-5.7s-3.329-4.975-5.564-7.658a15.78,15.78,0,0,0-6.037-4.584c-2.348-1.229-5.6-1.551-7.068-.964a4.739,4.739,0,0,0-5.073,3.186c-.694.19-1.223,1.117-1.58,2.085-.357-.968-.885-1.9-1.58-2.085a4.739,4.739,0,0,0-5.073-3.186c-1.467-.587-4.72-.265-7.068.964a15.78,15.78,0,0,0-6.037,4.584c-2.235,2.683-4.67,4.807-5.564,7.658s-2.42,2.235-1.973,5.7-1.59,4.787-1.255,7.3.965,6.616,2.895,7.79,2.264,3.018,4.276,3.521,5.9,3.074,7.564,1.705c0,0,.133,4.85,4.417,4.675s5.064,2.348,6.771,1.506a7.839,7.839,0,0,1,.616,3.852,4.284,4.284,0,0,0,1.421,3.444l.59-.045.59.045a4.284,4.284,0,0,0,1.421-3.444,7.839,7.839,0,0,1,.616-3.852c1.707.842,2.486-1.682,6.771-1.506s4.417-4.675,4.417-4.675c1.659,1.369,5.551-1.2,7.564-1.705s2.347-2.348,4.276-3.521,2.56-5.275,2.895-7.79S1350.139,236.261,1350.586,232.8Z"/></g><g id="logo_left" data-name="logo left"><polygon class="cls-2" points="310.992 96.015 310.992 119.259 307.674 119.259 307.674 108.895 294.331 108.895 294.331 119.259 291.012 119.259 291.012 96.015 294.331 96.015 294.331 106.012 307.674 106.012 307.674 96.015 310.992 96.015"/><path class="cls-2" d="M331.6,110.792l-5.013-11.387-5.012,11.387Zm1.161,2.656H320.414l-2.558,5.811h-3.414l10.522-23.244h3.283L338.8,119.259h-3.484l-2.559-5.811Z"/><path class="cls-2" d="M357.693,104.115c0-3.32-2.227-5.216-6.471-5.216h-5.641v10.459h5.641C355.466,109.358,357.693,107.436,357.693,104.115Zm.1,15.144-5.012-7.139c-.463.035-.961.07-1.459.07h-5.737v7.069h-3.318V96.015h9.055c6.043,0,9.693,3.058,9.693,8.1a7.344,7.344,0,0,1-5.108,7.341l5.51,7.8h-3.624Z"/><polygon class="cls-2" points="387.925 119.259 387.89 102.324 379.498 116.437 377.97 116.437 369.578 102.42 369.578 119.259 366.39 119.259 366.39 96.015 369.115 96.015 378.808 112.356 388.361 96.015 391.086 96.015 391.121 119.259 387.933 119.259 387.925 119.259"/><path class="cls-2" d="M417.562,107.637a9.025,9.025,0,1,0-8.994,8.931A8.724,8.724,0,0,0,417.562,107.637Zm-21.368,0c0-6.807,5.24-11.884,12.374-11.884s12.313,5.051,12.313,11.884-5.24,11.884-12.313,11.884S396.194,114.444,396.194,107.637Z"/><polygon class="cls-2" points="445.943 96.015 445.943 119.259 443.218 119.259 429.281 101.922 429.281 119.259 425.963 119.259 425.963 96.015 428.688 96.015 442.625 113.352 442.625 96.015 445.943 96.015"/><polygon class="cls-2" points="461.809 111.22 461.809 119.259 458.526 119.259 458.526 111.159 449.305 96.015 452.859 96.015 460.29 108.266 467.756 96.015 471.04 96.015 461.809 111.22"/><path class="cls-2" d="M248.259,104.787a11.135,11.135,0,0,1,9.308,5.532,15.647,15.647,0,0,1,1.939,4.631c.437,1.853.244,3.793.672,5.645a7.72,7.72,0,0,0,15.3-1.494c0-4.282-3.371-7.279-7.423-7.742a12.8,12.8,0,0,1-7.309-2.788c-3.537-2.849-4.759-6.615-4.759-11.692,0-4.334-3.3-8.4-7.816-8.345s-7.641,4.011-7.641,8.336c0,5.077-1.222,8.844-4.759,11.692a12.739,12.739,0,0,1-7.309,2.788c-4.052.463-7.422,3.521-7.422,7.742a7.719,7.719,0,0,0,15.3,1.494c.428-1.852.236-3.792.672-5.645,1.24-5.243,5.545-10.145,11.248-10.171Z"/></g></svg>