<svg xmlns="http://www.w3.org/2000/svg" xmlns:xlink="http://www.w3.org/1999/xlink" viewBox="0 0 1920 1080"><defs><style>.cls-1{mask:url(#mask);filter:url(#luminosity-noclip-3);}.cls-2,.cls-4{mix-blend-mode:multiply;}.cls-2{fill:url(#linear-gradient);}.cls-3{mask:url(#mask-2);filter:url(#luminosity-noclip-4);}.cls-4{fill:url(#linear-gradient-2);}.cls-5{fill:#0f1854;}.cls-6{fill:url(#linear-gradient-3);}.cls-7{fill:#f0f0f0;}.cls-8{fill:#2b45ed;}.cls-9{fill:#aeb8fe;}.cls-10{fill:#00af54;}.cls-11{fill:#0de5b2;}.cls-12{mask:url(#mask-3);}.cls-13{fill:url(#linear-gradient-4);}.cls-14{fill:url(#linear-gradient-5);}.cls-15{fill:url(#linear-gradient-6);}.cls-16{fill:url(#linear-gradient-7);}.cls-17{fill:#e2f3fe;}.cls-18{fill:url(#linear-gradient-8);}.cls-19{fill:url(#linear-gradient-9);}.cls-20{fill:url(#linear-gradient-10);}.cls-21{fill:url(#linear-gradient-11);}.cls-22{fill:url(#linear-gradient-12);}.cls-23{fill:url(#linear-gradient-13);}.cls-24{fill:url(#linear-gradient-14);}.cls-25{fill:url(#linear-gradient-15);}.cls-26{fill:url(#linear-gradient-16);}.cls-27{fill:url(#linear-gradient-17);}.cls-28{fill:url(#linear-gradient-18);}.cls-29{mask:url(#mask-4);}.cls-30{fill:url(#linear-gradient-19);}.cls-31{fill:#fff;}.cls-32{fill:url(#linear-gradient-20);}.cls-33{fill:url(#linear-gradient-21);}.cls-34{fill:url(#linear-gradient-22);}.cls-35{fill:url(#linear-gradient-23);}.cls-36{fill:url(#linear-gradient-24);}.cls-37{fill:url(#linear-gradient-25);}.cls-38{fill:url(#linear-gradient-26);}.cls-39{fill:url(#linear-gradient-27);}.cls-40{fill:url(#linear-gradient-28);}.cls-41{fill:url(#linear-gradient-29);}.cls-42{fill:url(#linear-gradient-30);}.cls-43{fill:url(#linear-gradient-31);}.cls-44{fill:#fb4d3d;}.cls-45{fill:url(#linear-gradient-32);}.cls-46{fill:#666fb3;}.cls-47,.cls-52{fill:#2d314f;}.cls-48{fill:#eea886;}.cls-49{fill:#6d0acc;}.cls-50{fill:#515056;}.cls-51{fill:#323657;}.cls-52{stroke:#35343d;stroke-miterlimit:10;}.cls-53{fill:#5c544d;}.cls-54{fill:#3c4145;}.cls-55{fill:#e2d2ca;}.cls-56{fill:#f2cc77;}.cls-57{fill:#a3a3a3;}.cls-58{fill:#c98462;}.cls-59{fill:#de9d7d;}.cls-60{fill:#ff764d;}.cls-61{filter:url(#luminosity-noclip-2);}.cls-62{filter:url(#luminosity-noclip);}</style><filter id="luminosity-noclip" x="1133.802" y="-8732" width="265.992" height="32766" filterUnits="userSpaceOnUse" color-interpolation-filters="sRGB"><feFlood flood-color="#fff" result="bg"/><feBlend in="SourceGraphic" in2="bg"/></filter><mask id="mask" x="1133.802" y="-8732" width="265.992" height="32766" maskUnits="userSpaceOnUse"><g class="cls-62"/></mask><linearGradient id="linear-gradient" x1="1266.798" y1="581.314" x2="1266.798" y2="253.927" gradientUnits="userSpaceOnUse"><stop offset="0"/><stop offset="0.202" stop-color="#fff"/><stop offset="1" stop-color="#fff"/></linearGradient><filter id="luminosity-noclip-2" x="1133.802" y="-8732" width="443.915" height="32766" filterUnits="userSpaceOnUse" color-interpolation-filters="sRGB"><feFlood flood-color="#fff" result="bg"/><feBlend in="SourceGraphic" in2="bg"/></filter><mask id="mask-2" x="1133.802" y="-8732" width="443.915" height="32766" maskUnits="userSpaceOnUse"><g class="cls-61"/></mask><linearGradient id="linear-gradient-2" x1="1355.76" y1="781.4" x2="1355.76" y2="565.213" xlink:href="#linear-gradient"/><linearGradient id="linear-gradient-3" x1="528.726" y1="593.284" x2="800.999" y2="436.087" gradientUnits="userSpaceOnUse"><stop offset="0" stop-color="#0de5b2"/><stop offset="0.245" stop-color="#0de5b2"/><stop offset="0.338" stop-color="#0fdab6"/><stop offset="0.502" stop-color="#15bdc1"/><stop offset="0.716" stop-color="#1d8ed2"/><stop offset="0.971" stop-color="#2a4dea"/><stop offset="1" stop-color="#2b45ed"/></linearGradient><filter id="luminosity-noclip-3" x="1133.802" y="282.605" width="265.992" height="308.931" filterUnits="userSpaceOnUse" color-interpolation-filters="sRGB"><feFlood flood-color="#fff" result="bg"/><feBlend in="SourceGraphic" in2="bg"/></filter><mask id="mask-3" x="1133.802" y="282.605" width="265.992" height="308.931" maskUnits="userSpaceOnUse"><g class="cls-1"><rect class="cls-2" x="1133.802" y="282.605" width="265.992" height="308.931" rx="31.106" ry="31.106"/></g></mask><linearGradient id="linear-gradient-4" x1="1266.798" y1="581.314" x2="1266.798" y2="253.927" xlink:href="#linear-gradient-3"/><linearGradient id="linear-gradient-5" x1="1163.281" y1="433.634" x2="1299.268" y2="433.634" gradientUnits="userSpaceOnUse"><stop offset="0" stop-color="#d5e4ff"/><stop offset="1" stop-color="#edfffe"/></linearGradient><linearGradient id="linear-gradient-6" x1="1314.066" y1="477.682" x2="1370.316" y2="477.682" xlink:href="#linear-gradient-5"/><linearGradient id="linear-gradient-7" x1="1314.067" y1="392.057" x2="1370.315" y2="392.057" xlink:href="#linear-gradient-5"/><linearGradient id="linear-gradient-8" x1="1166.385" y1="515.474" x2="1213.374" y2="515.474" xlink:href="#linear-gradient-5"/><linearGradient id="linear-gradient-9" x1="1281.046" y1="515.474" x2="1308.684" y2="515.474" xlink:href="#linear-gradient-5"/><linearGradient id="linear-gradient-10" x1="1155.741" y1="311.527" x2="1178.23" y2="311.527" xlink:href="#linear-gradient-5"/><linearGradient id="linear-gradient-11" x1="1249.493" y1="329.622" x2="1284.383" y2="329.622" xlink:href="#linear-gradient-5"/><linearGradient id="linear-gradient-12" x1="1204.376" y1="329.622" x2="1225.677" y2="329.622" xlink:href="#linear-gradient-5"/><linearGradient id="linear-gradient-13" x1="1155.741" y1="329.622" x2="1197.941" y2="329.622" xlink:href="#linear-gradient-5"/><linearGradient id="linear-gradient-14" x1="1185.075" y1="311.527" x2="1218.397" y2="311.527" xlink:href="#linear-gradient-5"/><linearGradient id="linear-gradient-15" x1="1232.345" y1="329.622" x2="1241.497" y2="329.622" xlink:href="#linear-gradient-5"/><linearGradient id="linear-gradient-16" x1="1259.491" y1="311.793" x2="1284.383" y2="311.793" xlink:href="#linear-gradient-5"/><linearGradient id="linear-gradient-17" x1="1293.262" y1="329.622" x2="1314.489" y2="329.622" xlink:href="#linear-gradient-5"/><linearGradient id="linear-gradient-18" x1="1226.591" y1="311.793" x2="1252.978" y2="311.793" xlink:href="#linear-gradient-5"/><filter id="luminosity-noclip-4" x="1133.802" y="622.822" width="443.915" height="173.178" filterUnits="userSpaceOnUse" color-interpolation-filters="sRGB"><feFlood flood-color="#fff" result="bg"/><feBlend in="SourceGraphic" in2="bg"/></filter><mask id="mask-4" x="1133.802" y="622.822" width="443.915" height="173.178" maskUnits="userSpaceOnUse"><g class="cls-3"><path class="cls-4" d="M1175.589,622.822h360.341a41.787,41.787,0,0,1,41.787,41.787v89.6A41.786,41.786,0,0,1,1535.932,796H1175.589a41.787,41.787,0,0,1-41.787-41.787v-89.6A41.787,41.787,0,0,1,1175.589,622.822Z"/></g></mask><linearGradient id="linear-gradient-19" x1="1355.76" y1="781.4" x2="1355.76" y2="565.213" xlink:href="#linear-gradient-3"/><linearGradient id="linear-gradient-20" x1="1303.79" y1="779.048" x2="1303.79" y2="731.221" xlink:href="#linear-gradient-5"/><linearGradient id="linear-gradient-21" x1="1317.434" y1="779.048" x2="1317.434" y2="731.222" xlink:href="#linear-gradient-5"/><linearGradient id="linear-gradient-22" x1="1331.079" y1="779.049" x2="1331.079" y2="731.221" xlink:href="#linear-gradient-5"/><linearGradient id="linear-gradient-23" x1="1344.723" y1="779.048" x2="1344.723" y2="731.222" xlink:href="#linear-gradient-5"/><linearGradient id="linear-gradient-24" x1="1358.367" y1="779.048" x2="1358.367" y2="731.221" xlink:href="#linear-gradient-5"/><linearGradient id="linear-gradient-25" x1="1372.012" y1="779.048" x2="1372.012" y2="731.221" xlink:href="#linear-gradient-5"/><linearGradient id="linear-gradient-26" x1="1385.656" y1="779.048" x2="1385.656" y2="731.221" xlink:href="#linear-gradient-5"/><linearGradient id="linear-gradient-27" x1="1399.3" y1="779.049" x2="1399.3" y2="731.221" xlink:href="#linear-gradient-5"/><linearGradient id="linear-gradient-28" x1="1412.945" y1="779.049" x2="1412.945" y2="731.221" xlink:href="#linear-gradient-5"/><linearGradient id="linear-gradient-29" x1="1426.589" y1="779.048" x2="1426.589" y2="731.221" xlink:href="#linear-gradient-5"/><linearGradient id="linear-gradient-30" x1="1440.234" y1="779.048" x2="1440.234" y2="731.221" xlink:href="#linear-gradient-5"/><linearGradient id="linear-gradient-31" x1="1453.878" y1="779.048" x2="1453.878" y2="731.221" xlink:href="#linear-gradient-5"/><linearGradient id="linear-gradient-32" x1="-1547.211" y1="690.958" x2="-1290.646" y2="1244.056" gradientTransform="translate(1627.93 -1103.236) rotate(-26.177)" gradientUnits="userSpaceOnUse"><stop offset="0" stop-color="#abc9ff"/><stop offset="1" stop-color="#edfffe"/></linearGradient></defs><title>21- Data harmonization for marketing purposes - the strategies for success</title><g id="_21:_Data_harmonization_for_marketing_purposes_-_the_strategies_for_success" data-name="21: Data harmonization for marketing purposes - the strategies for success"><rect class="cls-5" width="1920" height="1080"/><ellipse class="cls-6" cx="664.862" cy="514.685" rx="157.952" ry="154.799"/><path class="cls-7" d="M802.787,228.992c-129.609-60.1-279.479-28.147-372.748,68.925a315.642,315.642,0,0,0-56.7,81.589c-44.986,93.2-39.424,197.1,5.854,281.914C410.574,720.2,461.02,769.82,526.93,800.381c6.55,3.042,13.18,5.858,19.832,8.431A326.224,326.224,0,0,0,638.875,829.8c129.832,10.273,258.5-57.714,317.513-179.933C1032.557,492.076,963.788,303.652,802.787,228.992Zm80.634,387.043c-44.24,91.637-140.706,142.6-238.041,134.909a244.416,244.416,0,0,1-69.061-15.75q-7.486-2.895-14.876-6.313A238.629,238.629,0,0,1,450.689,624.7c-33.953-63.6-38.133-141.493-4.393-211.36a236.772,236.772,0,0,1,42.5-61.172c69.909-72.782,182.29-96.744,279.468-51.685C888.977,356.459,940.529,497.731,883.421,616.035Z"/><path class="cls-8" d="M450.689,624.7l-71.5,36.721c-45.278-84.816-50.84-188.719-5.854-281.914a315.642,315.642,0,0,1,56.7-81.589l58.758,54.25a236.772,236.772,0,0,0-42.5,61.172C412.556,483.206,416.736,561.1,450.689,624.7Z"/><path class="cls-9" d="M576.319,735.194l-29.557,73.618c-6.652-2.573-13.282-5.389-19.832-8.431C461.02,769.82,410.574,720.2,379.193,661.42l71.5-36.721A238.629,238.629,0,0,0,561.443,728.881Q568.822,732.3,576.319,735.194Z"/><path class="cls-9" d="M638.875,829.8a326.224,326.224,0,0,1-92.113-20.988l29.557-73.618a244.416,244.416,0,0,0,69.061,15.75Z"/><path class="cls-7" d="M1572.112,322.527a60.166,60.166,0,1,0-113.3,40.522c.456,1.273.951,2.527,1.482,3.751a60.167,60.167,0,0,0,111.822-44.273Zm-41.461,62.735A45.058,45.058,0,0,1,1474.1,360.79q-.6-1.377-1.112-2.813a45.11,45.11,0,1,1,57.665,27.285Z"/><path class="cls-8" d="M1472.4,329.343l-14.375-4.489a60.255,60.255,0,0,1,55.638-42.222l.449,15.053a45.181,45.181,0,0,0-41.712,31.658Z"/><path class="cls-10" d="M1474.1,360.79l-13.808,6.01c-.531-1.224-1.026-2.478-1.482-3.751a59.907,59.907,0,0,1-.784-38.195l14.375,4.489a44.911,44.911,0,0,0,.587,28.634Q1473.5,359.411,1474.1,360.79Z"/><path class="cls-11" d="M1469.617,381.777a59.823,59.823,0,0,1-9.327-14.977l13.808-6.01a44.908,44.908,0,0,0,6.991,11.231Z"/><rect class="cls-9" x="1436.794" y="483.035" width="157.331" height="59.671" rx="17.596" ry="17.596" transform="translate(2028.331 -1002.589) rotate(90)"/><path class="cls-5" d="M1496.012,557.295a18.581,18.581,0,1,1,18.581,18.58A18.6,18.6,0,0,1,1496.012,557.295Zm36.164,0a17.584,17.584,0,1,0-17.583,17.584A17.6,17.6,0,0,0,1532.176,557.295Z"/><path class="cls-5" d="M1514.593,576.875a19.58,19.58,0,1,1,19.58-19.58A19.6,19.6,0,0,1,1514.593,576.875Zm0-36.164a16.584,16.584,0,1,0,16.584,16.584A16.6,16.6,0,0,0,1514.593,540.711Z"/><rect class="cls-5" x="1499.571" y="494.321" width="54.93" height="4.829" transform="translate(2023.771 -1030.3) rotate(90)"/><rect class="cls-5" x="1491.179" y="498.373" width="46.827" height="4.828" transform="translate(2015.38 -1013.806) rotate(90)"/><rect class="cls-5" x="1464.501" y="484.138" width="75.297" height="4.828" transform="translate(1988.702 -1015.598) rotate(90)"/><g class="cls-12"><rect class="cls-13" x="1133.802" y="282.605" width="265.992" height="308.931" rx="31.106" ry="31.106"/></g><path class="cls-14" d="M1295.279,410.743a67.974,67.974,0,1,0-128.008,45.781c.514,1.438,1.074,2.854,1.673,4.237a67.976,67.976,0,0,0,126.335-50.018Zm-46.842,70.877a50.907,50.907,0,0,1-63.892-27.649q-.675-1.557-1.256-3.177a50.963,50.963,0,1,1,65.148,30.826Z"/><path class="cls-8" d="M1182.626,418.444l-16.241-5.072a68.071,68.071,0,0,1,62.858-47.7l.508,17.007a51.043,51.043,0,0,0-47.125,35.767Z"/><path class="cls-10" d="M1184.545,453.971l-15.6,6.79c-.6-1.383-1.159-2.8-1.673-4.237a67.675,67.675,0,0,1-.886-43.152l16.241,5.072a50.724,50.724,0,0,0,.663,32.35Q1183.868,452.413,1184.545,453.971Z"/><path class="cls-11" d="M1179.482,477.682a67.632,67.632,0,0,1-10.538-16.921l15.6-6.79a50.625,50.625,0,0,0,7.9,12.688Z"/><path class="cls-15" d="M1354.216,452.265a28.118,28.118,0,1,0-24.051,50.833c.571.271,1.149.521,1.728.75a28.119,28.119,0,0,0,22.323-51.583Zm7.031,34.433a21.059,21.059,0,0,1-26.776,10.6c-.435-.172-.869-.359-1.3-.562a21.081,21.081,0,1,1,28.073-10.039Z"/><path class="cls-8" d="M1323.518,487.469l-6.234,3.266a28.161,28.161,0,0,1,4.433-32.338l5.123,4.826a21.11,21.11,0,0,0-3.322,24.246Z"/><path class="cls-10" d="M1334.471,497.3l-2.578,6.549c-.579-.229-1.157-.479-1.728-.75a27.986,27.986,0,0,1-12.881-12.363l6.234-3.266a20.986,20.986,0,0,0,9.656,9.268C1333.6,496.94,1334.036,497.127,1334.471,497.3Z"/><path class="cls-16" d="M1367.607,404.082a28.117,28.117,0,1,0-50.832-24.051c-.271.571-.522,1.149-.751,1.729a28.119,28.119,0,0,0,51.583,22.322Zm-34.432,7.03a21.053,21.053,0,0,1-10.6-26.775q.256-.653.561-1.3a21.081,21.081,0,1,1,10.04,28.072Z"/><path class="cls-8" d="M1332.4,373.383l-3.267-6.233a28.162,28.162,0,0,1,32.339,4.433l-4.827,5.123a21.111,21.111,0,0,0-24.245-3.323Z"/><path class="cls-10" d="M1322.574,384.337l-6.55-2.577c.229-.58.48-1.158.751-1.729a27.989,27.989,0,0,1,12.362-12.881l3.267,6.233a21,21,0,0,0-9.269,9.657Q1322.832,383.684,1322.574,384.337Z"/><path class="cls-11" d="M1314.157,389.791a28,28,0,0,1,1.867-8.031l6.55,2.577a20.978,20.978,0,0,0-1.4,6.021Z"/><polygon class="cls-17" points="1333.552 524.248 1281.046 524.248 1281.046 523.204 1332.508 523.204 1332.508 503.368 1333.552 503.368 1333.552 524.248"/><polygon class="cls-17" points="1234.675 524.248 1166.385 524.248 1166.385 523.204 1233.632 523.204 1233.632 490.735 1234.675 490.735 1234.675 524.248"/><rect class="cls-18" x="1166.385" y="512.343" width="46.989" height="6.262"/><rect class="cls-19" x="1281.046" y="512.343" width="27.638" height="6.262"/><rect class="cls-20" x="1155.741" y="309.124" width="22.489" height="4.806"/><rect class="cls-21" x="1249.493" y="327.218" width="34.891" height="4.806"/><rect class="cls-22" x="1204.376" y="327.218" width="21.3" height="4.806"/><rect class="cls-23" x="1155.741" y="327.218" width="42.2" height="4.806"/><rect class="cls-24" x="1185.075" y="309.124" width="33.322" height="4.806"/><rect class="cls-25" x="1232.345" y="327.218" width="9.152" height="4.806"/><rect class="cls-26" x="1259.491" y="309.39" width="24.892" height="4.806"/><rect class="cls-27" x="1293.262" y="327.218" width="21.227" height="4.806"/><rect class="cls-28" x="1226.591" y="309.39" width="26.387" height="4.806"/><g class="cls-29"><path class="cls-30" d="M1175.589,622.822h360.341a41.787,41.787,0,0,1,41.787,41.787v89.6A41.786,41.786,0,0,1,1535.932,796H1175.589a41.787,41.787,0,0,1-41.787-41.787v-89.6A41.787,41.787,0,0,1,1175.589,622.822Z"/></g><rect class="cls-31" x="1485.609" y="672.136" width="54.252" height="5.444"/><rect class="cls-31" x="1485.609" y="688.986" width="62.356" height="5.444"/><rect class="cls-31" x="1485.516" y="705.743" width="32.26" height="5.444"/><rect class="cls-31" x="1485.516" y="722.501" width="49.705" height="5.444"/><path class="cls-5" d="M1230.5,686.113a12.486,12.486,0,1,1-12.485-12.486A12.486,12.486,0,0,1,1230.5,686.113Z"/><path class="cls-5" d="M1240.538,726.816V750.56a54.91,54.91,0,0,1-45.264,0V726.816a22.632,22.632,0,0,1,45.264,0Z"/><rect class="cls-31" x="1294.04" y="663.649" width="116.299" height="7.497"/><rect class="cls-31" x="1294.04" y="646.575" width="54.611" height="7.497"/><path class="cls-5" d="M1217.906,756.925a55.77,55.77,0,0,1-23.246-5.013,56.246,56.246,0,1,1,46.492,0A55.763,55.763,0,0,1,1217.906,756.925Zm0-109.522a53.286,53.286,0,1,0,53.277,53.277A53.337,53.337,0,0,0,1217.906,647.4Z"/><rect class="cls-31" x="1302.305" y="685.351" width="2.97" height="72.006"/><rect class="cls-31" x="1315.949" y="685.351" width="2.97" height="72.006"/><rect class="cls-31" x="1329.594" y="685.351" width="2.97" height="72.006"/><rect class="cls-31" x="1343.238" y="685.351" width="2.97" height="72.006"/><rect class="cls-31" x="1356.883" y="685.351" width="2.969" height="72.006"/><rect class="cls-31" x="1370.527" y="685.351" width="2.97" height="72.006"/><rect class="cls-31" x="1384.172" y="685.351" width="2.969" height="72.006"/><rect class="cls-31" x="1397.816" y="685.351" width="2.97" height="72.006"/><rect class="cls-31" x="1411.46" y="685.351" width="2.969" height="72.006"/><rect class="cls-31" x="1425.104" y="685.351" width="2.97" height="72.006"/><rect class="cls-31" x="1438.749" y="685.351" width="2.969" height="72.006"/><rect class="cls-31" x="1452.393" y="685.351" width="2.97" height="72.006"/><rect class="cls-32" x="1302.305" y="704.879" width="2.97" height="50.479"/><rect class="cls-33" x="1315.949" y="722.324" width="2.97" height="33.034"/><rect class="cls-34" x="1329.594" y="693.743" width="2.97" height="61.614"/><rect class="cls-35" x="1343.238" y="737.418" width="2.97" height="17.939"/><rect class="cls-36" x="1356.883" y="719.354" width="2.969" height="36.003"/><rect class="cls-37" x="1370.527" y="705.868" width="2.97" height="49.489"/><rect class="cls-38" x="1384.172" y="723.437" width="2.969" height="31.92"/><rect class="cls-39" x="1397.816" y="701.29" width="2.97" height="54.067"/><rect class="cls-40" x="1411.46" y="725.664" width="2.969" height="29.694"/><rect class="cls-41" x="1425.104" y="707.848" width="2.97" height="47.509"/><rect class="cls-42" x="1438.749" y="731.603" width="2.969" height="23.754"/><rect class="cls-43" x="1452.393" y="707.848" width="2.97" height="47.509"/><polygon class="cls-44" points="970.336 311.346 964.63 259.389 876.1 319.411 877.536 374.263 970.336 311.346"/><polygon class="cls-44" points="935.843 407.808 889.921 383.422 978.491 323.373 1028.839 345.181 935.843 407.808"/><path class="cls-45" d="M673.833,529.926,978.491,323.373l-8.155-12.027-304.8,206.647h0a7.262,7.262,0,0,0,8.15,12.019l0,.008.076-.051c.011-.007.023-.011.034-.019S673.822,529.933,673.833,529.926Z"/><path class="cls-46" d="M963.8,807.358s2.494,9.8,2.833,11.27,15.7-2.586,15.7-2.586l-.015-11.981S965.6,805.743,963.8,807.358Z"/><path class="cls-47" d="M966.329,817.381s-4.3,6.529-8.8,9.659-21.881,7.178-24.419,10.189c-1.832,2.172-4.38,10.4,23.5,6.643,19.812-2.668,29.586-1.994,31.367-5.446s-5.65-23.455-5.65-23.455S978.091,817.277,966.329,817.381Z"/><polygon class="cls-11" points="944.817 924.485 904.889 519.075 911.904 518.394 951.832 923.804 944.817 924.485"/><polygon class="cls-11" points="1058.283 913.474 1018.355 508.063 1025.37 507.383 1065.298 912.793 1058.283 913.474"/><rect class="cls-11" x="909.412" y="522.762" width="113.999" height="7.048" transform="translate(-46.305 95.782) rotate(-5.541)"/><rect class="cls-11" x="914.532" y="575.524" width="113.999" height="7.048" transform="translate(-51.38 96.531) rotate(-5.542)"/><rect class="cls-11" x="919.653" y="628.286" width="113.999" height="7.048" transform="translate(-56.486 97.339) rotate(-5.546)"/><rect class="cls-11" x="924.773" y="681.048" width="113.999" height="7.048" transform="translate(-61.518 98.006) rotate(-5.541)"/><rect class="cls-11" x="929.894" y="733.81" width="113.999" height="7.048" transform="translate(-66.589 98.746) rotate(-5.541)"/><rect class="cls-11" x="935.014" y="786.572" width="113.999" height="7.048" transform="translate(-71.66 99.487) rotate(-5.541)"/><rect class="cls-11" x="940.134" y="839.334" width="113.999" height="7.048" transform="translate(-76.726 100.221) rotate(-5.541)"/><rect class="cls-11" x="945.255" y="892.095" width="114" height="7.048" transform="translate(-81.797 100.962) rotate(-5.541)"/><path class="cls-48" d="M813.659,425.868a10.517,10.517,0,0,0,2.468,2.271s1.918.724,3.25,1.321a9.766,9.766,0,0,1,1.008.5,19.236,19.236,0,0,0,5.431,2.874c2.622.755,14.486,3.457,14.486,3.457l2.759-7.04,1.978-5.686s-10.982-14.227-13.345-15.214a6.465,6.465,0,0,0-.688-.244c-2.082-.641-3.9-.243-5.031-.456-.416-.075-4.6-.547-5.506.327a4.11,4.11,0,0,0-1.42,3.737s-2.36,2.48-2.529,4.778a6.113,6.113,0,0,0-1.648,5.137S812.841,424.141,813.659,425.868Z"/><path class="cls-49" d="M940.821,518.169c-2.741-1.765-6.286-4.153-18.559-10.292-22.847-11.432-51.056-32.155-56.422-35.147-8.246-4.6-34.3-36.434-34.3-36.434,1.344-4.8,13.7-14.418,13.7-14.418s39.5,37.413,48.129,42.017c7.424,3.959,44.088,7.96,54.188,9,1.639.169,2.579.261,2.579.261C960.681,487.539,946.712,521.961,940.821,518.169Z"/><path class="cls-50" d="M944.851,601.107s-11.176,41.5-14.123,56.339c-2.568,12.926-7.732,47.355-8.466,55.54s32.994,87.415,36.5,101.726l30.729-4.934s-32.421-82.461-23.964-100.785c12.578-27.252,14.216-26.429,24.125-48.881s32.591-22.982,38.683-64.636C1028.337,595.476,953.1,587.9,944.851,601.107Z"/><path class="cls-48" d="M999.493,399.456s-20.4-7.621-29.812,7.911-8.5,46.626,1.783,50.45,25.735,1.824,31-7.895,10.019-23.769,9.791-33.158S1004.85,402.167,999.493,399.456Z"/><path class="cls-48" d="M974.89,456.863s.824,5.348-.539,7.982,25.664,2.7,25.664,2.7a178,178,0,0,1,6.354-26.438C1010.528,429,974.89,456.863,974.89,456.863Z"/><path class="cls-51" d="M1006.369,441.11s-1.866,3.077-9.48,1.883-16.9-11.324-20.082-12.436-3.209-2.98-3.209-2.98l-1.99,2.908-3.378.213s3.081-9.061-1.566-12.757,4.822-29.331,29.241-20.8c0,0,18.755,5.17,18.074,15.836S1010.565,435.8,1006.369,441.11Z"/><path class="cls-48" d="M974.1,423.7c.427-1.789,4.976-6.9,6.719-1.428s-2.633,12.838-5.072,12.208S973.02,428.234,974.1,423.7Z"/><path class="cls-49" d="M1051.923,534.874c-.223,2.677-3.279,5.572-5.363,7a8.726,8.726,0,0,1-4.653,1.53l-1.211.042v0l-21.2.722s-15.763-50.945,13.8-70.374C1034.211,473.886,1053.976,510.319,1051.923,534.874Z"/><path class="cls-52" d="M987.979,838.426c-1.782,3.453-11.556,2.78-31.367,5.446a90.71,90.71,0,0,1-13.028.963l-1.156-11.918c5.8-2.016,12.534-4.1,15.1-5.878,4.5-3.129,8.8-9.658,8.8-9.658,11.763-.1,16-2.411,16-2.411S989.76,834.973,987.979,838.426Z"/><path class="cls-49" d="M974.873,463.291s16.637-3.87,26.015-.7l1.416,1.311s2.851,5.464-7.878,5.934S966.832,471.082,974.873,463.291Z"/><path class="cls-46" d="M1039.893,853.169s2.494,9.8,2.833,11.271,15.7-2.586,15.7-2.586l-.015-11.981S1041.693,851.555,1039.893,853.169Z"/><path class="cls-50" d="M1028.337,595.476a323.6,323.6,0,0,1,7.258,46.229c1.533,21.372,4.322,44.815,6.539,67.168,2.472,24.92,9.524,65.2,9.891,78.535S1063.613,859,1063.613,859l-28.7,3.3s-18.647-102.95-23.05-113.474-26.245-85.55-26.979-93.969S1028.337,595.476,1028.337,595.476Z"/><path class="cls-52" d="M1042.423,863.193s-4.3,6.529-8.8,9.659-21.881,7.178-24.419,10.188c-1.831,2.173-4.38,10.4,23.506,6.645,19.811-2.668,29.585-1.994,31.366-5.447s-5.65-23.455-5.65-23.455S1054.186,863.089,1042.423,863.193Z"/><path class="cls-49" d="M939.045,652.947c-2.445-.35,6.07-73.218,5.419-77.787-.436-3.049-.367-26.729-.189-41.493l-2.664-14.939a68.207,68.207,0,0,0-5.85-3.7c-3.7-2.135-8.342-4.576-13.5-7.153.6-3.529,1.017-6.308,1.177-7.932a29.845,29.845,0,0,1,15.1-23,24.622,24.622,0,0,1,3.442-1.717c1.9-.806,3.764-1.586,5.573-2.331,12.035-4.952,27.32-9.6,27.32-9.6h24.559s18.7,3.736,29.839,8.3a20.857,20.857,0,0,1,4.025,2.208l-3.337,70.017-.006.045-.012.092c-1.5,9.85-3.087,21.47-3.613,29.617-.217,3.327,3.587,21.188,5.572,37.585l6.946,39.232S1034.832,666.641,939.045,652.947Z"/><path class="cls-53" d="M437.3,900.427l-1.27-11.9s16.779-.123,18.74,1.287c0,0-1.426,9.994-1.6,11.5S437.3,900.427,437.3,900.427Z"/><path class="cls-54" d="M465.82,925.3c-19.965-.17-29.591,1.193-31.73-2.045s3.1-23.895,3.1-23.895,4.728,1.717,16.145.677c0,0,4.971,6.022,9.778,8.647s12.361,3.664,15.2,6.381C480.364,917.031,485.786,925.474,465.82,925.3Z"/><path class="cls-53" d="M549.7,900.427l-1.269-11.9s16.778-.123,18.739,1.287c0,0-1.426,9.994-1.6,11.5S549.7,900.427,549.7,900.427Z"/><path class="cls-54" d="M578.219,925.3c-19.958-.525-29.591,1.193-31.73-2.045s3.095-23.895,3.095-23.895,4.455,1.834,16.146.677c0,0,4.97,6.022,9.777,8.647s22.5,4.781,25.34,7.5C602.9,918.147,606.311,926.042,578.219,925.3Z"/><path class="cls-50" d="M460.34,631.8s-8.349,24.8-7.25,46.171-4.317,44.759-6.531,67.084c-2.468,24.89-12.57,83.812-12.937,97.126s1.569,55.826,1.569,55.826l20.221.467S472.4,795.465,476.8,784.955s26.211-85.444,26.944-93.853S460.34,631.8,460.34,631.8Z"/><path class="cls-50" d="M545.352,636.215s11.107,58.577,12.574,71.657,2.443,63.3,3.176,71.476,4.888,106.981,8.8,119.128H544.047S524.2,826.647,524.2,792.663s-15.331-73.882-25.228-96.305S466.424,673.4,460.34,631.8C460.34,631.8,537.115,623.021,545.352,636.215Z"/><path class="cls-48" d="M492.812,436.027s20.378-7.612,29.775,7.9,8.491,46.568-1.781,50.386-25.7,1.823-30.962-7.884-10.007-23.74-9.778-33.117S487.462,438.734,492.812,436.027Z"/><path class="cls-48" d="M517.385,493.361s-.824,5.342.537,7.974-25.632,2.7-25.632,2.7a177.825,177.825,0,0,0-6.345-26.4C481.791,465.536,517.385,493.361,517.385,493.361Z"/><path class="cls-51" d="M485.945,477.629s1.862,3.073,9.467,1.881,16.882-11.31,20.057-12.421,3.206-2.976,3.206-2.976l1.988,2.9,3.372.213s-3.076-9.05,1.565-12.741S520.784,425.2,496.4,433.718c0,0-17.484,3.45-18.541,14.072C476.728,459.1,481.753,472.323,485.945,477.629Z"/><path class="cls-55" d="M519.524,501.018s-.085-5.028-2.364-5.51-25.154-2.682-27.951-1.582v5.857S494.6,503.1,519.524,501.018Z"/><path class="cls-48" d="M518.171,460.239c-.427-1.787-4.97-6.894-6.71-1.426s2.629,12.821,5.065,12.192S519.252,464.769,518.171,460.239Z"/><path class="cls-56" d="M519.524,501.018s12.541,4.508,27.065,10.681c0,0,16.709,6.239,18.519,24.691.96,9.795,11.389,61.779,13.344,66.177s25.081,75.059,25.9,76.525-18.874,9.639-20.177,8.988-22.392-64.449-24.51-69.173c0,0-12.139-38.253-12.465-43.955,0,0-.348,16.253-1,20.815s10.795,93.137,10.469,95.58-52.022,5.549-72.712,3.268a253.248,253.248,0,0,1-37.386-7.041s16.281-69.9,15.781-77.654c-1.09-16.884-6.732-48.691-6.732-48.691l-16.87,31.807,21.594,55.555-4.946,16.885s-40.127-60.638-41.431-66.177,1.968-12.6,4.085-17.157,16.029-39.28,19.287-44.167,8.764-24.461,22.072-29.907c11.128-4.554,29.8-8.285,29.8-8.285Z"/><rect class="cls-57" x="537.131" y="631.979" width="97.591" height="68.083" transform="translate(1318.921 1165.634) rotate(165.618)"/><path class="cls-58" d="M612.58,693.514s2.7,4.366,3.688,5.61-2.425,2.027-3.887.767S612.58,693.514,612.58,693.514Z"/><path class="cls-59" d="M592.894,708.423a10.481,10.481,0,0,1-1.939-2.731s-.475-1.991-.9-3.386a9.8,9.8,0,0,0-.373-1.063,19.189,19.189,0,0,1-2.162-5.744c-.417-2.693-1.6-14.788-1.6-14.788l7.323-1.845,5.883-1.241s12.709,12.676,13.388,15.143a6.565,6.565,0,0,1,.155.712c.372,2.143-.252,3.895-.184,5.042.022.422-.039,4.627-1.019,5.413a4.1,4.1,0,0,1-3.882.935s-2.755,2.025-5.053,1.9a6.107,6.107,0,0,1-5.3.984S594.5,709.452,592.894,708.423Z"/><path class="cls-60" d="M564.31,631.934s16.78,50.813,19.861,56.146c0,0,12.3-2.588,20.177-8.988l-18.421-54.837Z"/></g><g id="logo_left" data-name="logo left"><polygon class="cls-31" points="310.992 96.015 310.992 119.259 307.674 119.259 307.674 108.895 294.331 108.895 294.331 119.259 291.012 119.259 291.012 96.015 294.331 96.015 294.331 106.012 307.674 106.012 307.674 96.015 310.992 96.015"/><path class="cls-31" d="M331.6,110.792l-5.013-11.387-5.012,11.387Zm1.161,2.656H320.414l-2.558,5.811h-3.414l10.522-23.244h3.283L338.8,119.259h-3.484l-2.559-5.811Z"/><path class="cls-31" d="M357.693,104.115c0-3.32-2.227-5.216-6.471-5.216h-5.641v10.459h5.641C355.466,109.358,357.693,107.436,357.693,104.115Zm.1,15.144-5.012-7.139c-.463.035-.961.07-1.459.07h-5.737v7.069h-3.318V96.015h9.055c6.043,0,9.693,3.058,9.693,8.1a7.344,7.344,0,0,1-5.108,7.341l5.51,7.8h-3.624Z"/><polygon class="cls-31" points="387.925 119.259 387.89 102.324 379.498 116.437 377.97 116.437 369.578 102.42 369.578 119.259 366.39 119.259 366.39 96.015 369.115 96.015 378.808 112.356 388.361 96.015 391.086 96.015 391.121 119.259 387.933 119.259 387.925 119.259"/><path class="cls-31" d="M417.562,107.637a9.025,9.025,0,1,0-8.994,8.931A8.724,8.724,0,0,0,417.562,107.637Zm-21.368,0c0-6.807,5.24-11.884,12.374-11.884s12.313,5.051,12.313,11.884-5.24,11.884-12.313,11.884S396.194,114.444,396.194,107.637Z"/><polygon class="cls-31" points="445.943 96.015 445.943 119.259 443.218 119.259 429.281 101.922 429.281 119.259 425.963 119.259 425.963 96.015 428.688 96.015 442.625 113.352 442.625 96.015 445.943 96.015"/><polygon class="cls-31" points="461.809 111.22 461.809 119.259 458.526 119.259 458.526 111.159 449.305 96.015 452.859 96.015 460.29 108.266 467.756 96.015 471.04 96.015 461.809 111.22"/><path class="cls-31" d="M248.259,104.787a11.135,11.135,0,0,1,9.308,5.532,15.647,15.647,0,0,1,1.939,4.631c.437,1.853.244,3.793.672,5.645a7.72,7.72,0,0,0,15.3-1.494c0-4.282-3.371-7.279-7.423-7.742a12.8,12.8,0,0,1-7.309-2.788c-3.537-2.849-4.759-6.615-4.759-11.692,0-4.334-3.3-8.4-7.816-8.345s-7.641,4.011-7.641,8.336c0,5.077-1.222,8.844-4.759,11.692a12.739,12.739,0,0,1-7.309,2.788c-4.052.463-7.422,3.521-7.422,7.742a7.719,7.719,0,0,0,15.3,1.494c.428-1.852.236-3.792.672-5.645,1.24-5.243,5.545-10.145,11.248-10.171Z"/></g></svg>