<svg xmlns="http://www.w3.org/2000/svg" viewBox="0 0 1920 1080"><defs><style>.cls-1{fill:#0f1854;}.cls-2{fill:#2b45ed;}.cls-3{fill:#e6e9fd;}.cls-4{fill:#c2c9fa;}.cls-5{fill:#6275f2;}.cls-6{fill:#4f65f0;}.cls-7{fill:#fff;}.cls-8{fill:#eceefd;}.cls-9{fill:#5e72f1;}.cls-10{fill:#c6cdfa;}.cls-11{fill:#acb6f8;}.cls-12{fill:#364eee;}.cls-13{fill:#3a52ee;}.cls-14{fill:#bdc5f9;}.cls-15{fill:#556af1;}.cls-16{fill:#5c70f1;}.cls-17{fill:#d9defc;}.cls-18{fill:#aeb8fe;}.cls-19{fill:#fb4d3d;}.cls-20{fill:#00af54;}.cls-21{fill:#efb68b;}.cls-22{fill:#2f49ed;}.cls-23{fill:#eaecfd;}.cls-24{fill:#95a2f6;}</style></defs><title>23- Agriculture data harmonization</title><g id="_23:_Agriculture_data_harmonization" data-name="23: Agriculture data harmonization"><rect class="cls-1" width="1920" height="1080"/><path class="cls-2" d="M514.182,448.938s9.116-25.5,30.917-22.667c0,0,31.65-42.5,65.4-5.667,0,0,35.877-9.127,62.446,7.9,17.715,11.354,23.566,23.265,23.566,23.265Z"/><path class="cls-2" d="M819.625,427.064s12.1-22.331,41.044-19.85c0,0,42.018-37.218,86.824-4.962,0,0,47.629-7.992,82.9,6.92,23.517,9.943,31.285,20.373,31.285,20.373Z"/><path class="cls-3" d="M1550.549,832.2c-.863,3.678-1.833,7.456-2.915,11.235-.975,3.783-2.27,7.781-3.672,11.778-.65,1.939-1.407,3.89-2.052,5.83-2.27,6.161-4.86,12.529-7.994,19.122-.975,2.158-1.945,4.429-3.027,6.593-.272.674-.585,1.354-.911,2.028-.194.4-.4.8-.6,1.206H1400.931l-37.594-.1H1026.731l-47.562-.054h-.148l-50.111-.059H669.266l-108.241-.106H365.281s-.065-.178-.2-.526c-.035-.107-.077-.225-.13-.361-.16-.42-.372-.988-.645-1.709l-.106-.213v-.106a.4.4,0,0,1-.106-.219,29.954,29.954,0,0,1-1.189-3.021c-.218-.544-.431-1.195-.757-1.839v-.219l-.106-.107c-1.484-3.855-3.323-8.875-5.446-14.941q-.284-.825-.585-1.668c-1.591-4.582-3.341-9.714-5.2-15.367-4.429-13.718-9.508-30.463-14.475-49.367-1.945-7.456-3.891-15.231-5.729-23.337-1.083-4.677-2.171-9.55-3.211-14.469q-.453-2.164-.893-4.328c-1.91-9.212-3.707-18.7-5.328-28.4-2.134-12.737-3.967-25.828-5.362-39.12q-1.038-9.783-1.745-19.7c-.012-.172-.029-.349-.035-.52s-.03-.355-.042-.533c-.638-9.306-1.04-18.679-1.159-28.044q-.141-11.308.278-22.6c.213-5.079.538-10.158.864-15.238.863-10.8,2.158-21.605,4-32.083,1.188-7.131,2.7-14.261,4.428-21.174a240.341,240.341,0,0,1,17.5-48.5c2.7-5.292,5.51-10.478,8.644-15.557,7.018-11.56,14.15-22.362,21.393-32.515h.106c3.778-5.4,7.563-10.477,11.341-15.343a401.973,401.973,0,0,1,43-47.747c177.7-166.251,381.437-5.83,507.51-117.422,123.253-109,353.894-110.618,457.056-10.046,1.945,1.945,4,3.89,5.942,6.049a167.566,167.566,0,0,1,37.5,62.072,178.544,178.544,0,0,1,8.9,59.832q-.054,3.415-.219,6.895a230.328,230.328,0,0,1-3.613,30.687q-1.924,10.5-4.872,21.458a357.384,357.384,0,0,1-20.3,55.1q-1.3,2.75-2.6,5.51c-28.192,58.981-4.967,94.3,30.575,126.606,21.925,19.985,48.4,38.782,70.434,61.251,2.915,3.021,5.723,6.049,8.532,9.183,1.076,1.247,2.135,2.5,3.181,3.76,2.945,3.554,5.777,7.184,8.485,10.927q2.058,2.909,3.974,5.913a132.288,132.288,0,0,1,9.957,18.643,121.668,121.668,0,0,1,5.115,14.2,120,120,0,0,1,3.979,19.689C1555.711,796.336,1554.848,813.229,1550.549,832.2Z"/><path class="cls-2" d="M1217.586,889.776H827.109l-162.781-.106H369.952s-.171-.3-.5-.887c-.237-.42-.556-.988-.97-1.709l-.16-.213v-.106s-.159-.113-.159-.219a25.232,25.232,0,0,1-1.786-3.021,18.708,18.708,0,0,0-1.141-1.839v-.219l-.16-.107c-2.229-3.855-5-8.875-8.189-14.941-.29-.55-.579-1.106-.875-1.668-1.591-4.582-3.341-9.714-5.2-15.367-4.429-13.718-9.508-30.463-14.475-49.367-1.945-7.456-3.891-15.231-5.729-23.337-1.083-4.677-2.171-9.55-3.211-14.469q-.453-2.164-.893-4.328c-1.91-9.212-3.707-18.7-5.328-28.4-3.181-18.987-5.694-38.771-7.107-58.821,126.44,6.516,370.173,23.669,553.506,64.615,258.693,57.774,322.622,67.105,432.21,77.47C1361.108,818.539,1291.13,857.013,1217.586,889.776Z"/><polygon class="cls-4" points="976.591 690.879 970.159 816.679 976.591 816.679 979.486 690.879 976.591 690.879"/><polygon class="cls-4" points="977.101 679.488 978.735 687.234 1008 652.502 977.101 679.488"/><polygon class="cls-4" points="987.618 688.788 979.723 688.199 1004.923 725.984 987.618 688.788"/><polygon class="cls-4" points="971.476 694.964 976.059 688.509 930.689 690.565 971.476 694.964"/><circle class="cls-4" cx="977.852" cy="688.199" r="3.537" transform="translate(-188.928 426.594) rotate(-22.5)"/><path class="cls-5" d="M968.816,791.356s-334.641-91.76-440.136-101-4.435,12.358-4.435,12.358,286.384,75.339,353.383,106.4S968.816,791.356,968.816,791.356Z"/><path class="cls-5" d="M866.762,864.572S577.417,725.743,482.928,699.682s-6.091,10.369-6.091,10.369,248.151,115.94,303.97,155.15S866.762,864.572,866.762,864.572Z"/><polygon class="cls-4" points="761.38 670.952 753.877 817.711 761.38 817.711 764.757 670.952 761.38 670.952"/><polygon class="cls-4" points="761.975 657.664 763.881 666.7 798.022 626.182 761.975 657.664"/><polygon class="cls-4" points="774.244 668.514 765.034 667.826 794.432 711.906 774.244 668.514"/><polygon class="cls-4" points="755.413 675.718 760.76 668.188 707.83 670.586 755.413 675.718"/><path class="cls-4" d="M758.724,667.826a4.127,4.127,0,1,1,4.127,4.127A4.127,4.127,0,0,1,758.724,667.826Z"/><path class="cls-6" d="M1553.914,781.1q-1.029,13.419-3.365,27.938c-.035.22-.071.432-.112.657-.834,4.949-1.768,10.022-2.8,15.1-.975,5.3-2.27,10.9-3.672,16.508-.65,2.72-1.407,5.452-2.052,8.171-2.27,8.639-4.86,17.562-7.994,26.8-.975,3.028-1.945,6.209-3.027,9.242-.272.946-.585,1.9-.911,2.844H364.95c-.16-.591-.372-1.383-.645-2.395l-.106-.3v-.148a.663.663,0,0,1-.106-.307c-.432-1.207-.757-2.578-1.189-4.234-.218-.763-.431-1.673-.757-2.578v-.307l-.106-.148c-1.484-5.4-3.323-12.441-5.446-20.944-1.75-7.006-3.7-14.988-5.788-23.881-4.429-19.229-9.508-42.7-14.475-69.2-1.945-10.448-3.891-21.351-5.729-32.71-1.083-6.557-2.171-13.387-3.211-20.281,106.791,40.568,381.431,131.732,577.565,80.752,35.246-9.159,74.135-17.36,114.94-24.692q13.675-2.466,27.624-4.79c105.8-17.7,221.465-29.972,318.394-38.428h.024c1.117-.094,2.229-.194,3.347-.289l3.275-.284c1.325-.112,2.649-.23,3.968-.343,2.743-.23,5.469-.467,8.183-.692l1.059-.088q3.122-.267,6.214-.521,11.424-.957,22.4-1.832l4.913-.391q2.714-.222,5.387-.432,3.609-.284,7.166-.561,2.2-.168,4.37-.337,3.885-.3,7.7-.592l3.737-.283c1.709-.131,3.406-.255,5.091-.385.136-.012.272-.023.414-.029q4.141-.31,8.195-.615c.857-.065,1.72-.124,2.572-.189.047-.006.083-.006.112-.012a.513.513,0,0,1,.065-.006c21.861-1.62,41.491-2.992,58.289-4.157,2.945,3.554,5.777,7.184,8.485,10.927q2.058,2.909,3.974,5.913a132.288,132.288,0,0,1,9.957,18.643,121.668,121.668,0,0,1,5.115,14.2A120,120,0,0,1,1553.914,781.1Z"/><path class="cls-2" d="M1047.521,762.194c-27.684,15.565-87.373,55.406-124.051,126.163-.26.489-.515.986-.769,1.483l-27.885-1.483-8.721-.465c.84-2.362,39.734-61.324,133.8-120.908Q1033.572,764.522,1047.521,762.194Z"/><path class="cls-2" d="M944.573,887.994c.887-2.487,46.118-71.292,157.864-133.553l8.8,6.879s-85.954,37.773-132.072,128.524Z"/><path class="cls-2" d="M1025.361,887.994c.886-2.487,46.117-71.292,157.864-133.553l8.8,6.879s-85.953,37.773-132.071,128.524Z"/><path class="cls-2" d="M1464.115,715.888s-156.571,15.93-254.346,116.656l-61.688-17.679c1.7-2.486,68.677-54.669,217.834-91.1h.024c35.749-3.117,68.955-5.719,98.176-7.882Z"/><path class="cls-2" d="M1544.82,747.212c-70.333,16.982-182.926,55.894-267.119,141.145h-53.9l-39.61-11.465c2.513-3.884,109.861-93.7,350.673-148.323A132.288,132.288,0,0,1,1544.82,747.212Z"/><path class="cls-7" d="M983.186,886.75l.8-.207c-.323-1.434-1.125-30.3,7.931-47.131l-.731-.393C982.013,856.074,982.877,885.563,983.186,886.75Z"/><path class="cls-7" d="M993.473,823.949s2.851,5.979,1.114,8.659S991.42,827.641,993.473,823.949Z"/><path class="cls-7" d="M995.25,849.176s-2.85-5.98-1.114-8.659S997.3,845.484,995.25,849.176Z"/><path class="cls-7" d="M987.765,825.775s5.284,4,4.976,7.173S987.642,830,987.765,825.775Z"/><path class="cls-7" d="M1000.959,847.35s-5.284-4-4.976-7.173S1001.082,843.127,1000.959,847.35Z"/><path class="cls-7" d="M983.588,830.076s6.521,1.162,7.689,4.133S985.394,833.9,983.588,830.076Z"/><path class="cls-7" d="M1005.136,843.313s-6.522-1.162-7.689-4.133S1003.329,839.494,1005.136,843.313Z"/><path class="cls-7" d="M982.237,840.56s5.224-4.073,8.215-2.955S986.285,841.769,982.237,840.56Z"/><path class="cls-7" d="M1006.978,835.5s-5.847,3.115-8.6,1.5S1003.2,833.616,1006.978,835.5Z"/><path class="cls-7" d="M985.117,845.111s3.249-5.773,6.438-5.9S989.318,844.665,985.117,845.111Z"/><path class="cls-7" d="M1004.721,829.135s-3.248,5.773-6.438,5.9S1000.52,829.581,1004.721,829.135Z"/><path class="cls-7" d="M989.393,848.515s.427-6.611,3.249-8.1S992.986,846.293,989.393,848.515Z"/><path class="cls-7" d="M1000.141,825.623s-.427,6.61-3.249,8.1S996.548,827.845,1000.141,825.623Z"/><path class="cls-7" d="M981.9,836.294s6.189-2.364,8.72-.419S985.417,838.636,981.9,836.294Z"/><path class="cls-7" d="M998.973,836.7a4.611,4.611,0,1,0-4.611,4.61A4.61,4.61,0,0,0,998.973,836.7Z"/><path class="cls-7" d="M984.774,860.167a16,16,0,0,1,9.544-4.358,42.506,42.506,0,0,1,7.234,0s-3.4,3.6-7.463,4.358A34.124,34.124,0,0,1,984.774,860.167Z"/><path class="cls-7" d="M985.6,856.206c-.7-.61-1.227-5.584-5.516-6.829a40.593,40.593,0,0,0-7.331-1.485s3.716,6.465,6.423,7.433A21.331,21.331,0,0,0,985.6,856.206Z"/><path class="cls-7" d="M961.512,886.75l.946-.243c-.38-1.688-1.324-35.658,9.333-55.466l-.86-.463C960.132,850.65,961.148,885.353,961.512,886.75Z"/><path class="cls-7" d="M973.618,812.844s3.355,7.037,1.312,10.189S971.2,817.189,973.618,812.844Z"/><path class="cls-7" d="M975.71,842.532s-3.355-7.037-1.311-10.19S978.127,838.187,975.71,842.532Z"/><path class="cls-7" d="M966.9,814.993s6.219,4.7,5.857,8.441S966.756,819.962,966.9,814.993Z"/><path class="cls-7" d="M982.428,840.383s-6.218-4.7-5.856-8.442S982.573,835.413,982.428,840.383Z"/><path class="cls-7" d="M961.984,820.054s7.675,1.368,9.05,4.865S964.111,824.548,961.984,820.054Z"/><path class="cls-7" d="M987.344,835.632s-7.675-1.368-9.049-4.864S985.217,831.138,987.344,835.632Z"/><path class="cls-7" d="M960.4,832.392s6.148-4.793,9.667-3.477S965.158,833.815,960.4,832.392Z"/><path class="cls-7" d="M989.511,826.441s-6.88,3.666-10.121,1.766S985.062,824.221,989.511,826.441Z"/><path class="cls-7" d="M963.784,837.748s3.823-6.794,7.577-6.938S968.728,837.223,963.784,837.748Z"/><path class="cls-7" d="M986.855,818.946s-3.823,6.795-7.577,6.939S981.911,819.472,986.855,818.946Z"/><path class="cls-7" d="M968.816,841.753s.5-7.779,3.824-9.536S973.045,839.138,968.816,841.753Z"/><path class="cls-7" d="M981.466,814.813s-.5,7.78-3.824,9.537S977.237,817.428,981.466,814.813Z"/><path class="cls-7" d="M960,827.372s7.283-2.781,10.262-.493S964.138,830.128,960,827.372Z"/><path class="cls-7" d="M980.091,827.843a5.427,5.427,0,1,0-5.427,5.426A5.426,5.426,0,0,0,980.091,827.843Z"/><path class="cls-7" d="M961.86,869.166s4.721-4.8,11.232-5.128a50,50,0,0,1,8.514,0s-4.006,4.233-8.783,5.128A40.145,40.145,0,0,1,961.86,869.166Z"/><path class="cls-7" d="M962.837,864.505c-.824-.717-1.444-6.572-6.49-8.037a47.762,47.762,0,0,0-8.629-1.747s4.374,7.608,7.56,8.747A25.07,25.07,0,0,0,962.837,864.505Z"/><path class="cls-7" d="M987.659,886.75l.568-.146c-.228-1.013-.795-21.4,5.6-33.281l-.516-.277C986.831,865.089,987.441,885.912,987.659,886.75Z"/><path class="cls-7" d="M994.923,842.405s2.013,4.222.787,6.114S993.473,845.012,994.923,842.405Z"/><path class="cls-7" d="M996.178,860.218s-2.013-4.222-.786-6.114S997.628,857.611,996.178,860.218Z"/><path class="cls-7" d="M990.892,843.694s3.731,2.821,3.514,5.065S990.806,846.676,990.892,843.694Z"/><path class="cls-7" d="M1000.209,858.929s-3.731-2.822-3.514-5.065S1000.3,855.947,1000.209,858.929Z"/><path class="cls-7" d="M987.943,846.731s4.605.821,5.429,2.919S989.219,849.428,987.943,846.731Z"/><path class="cls-7" d="M1003.159,856.078s-4.605-.821-5.43-2.919S1001.883,853.382,1003.159,856.078Z"/><path class="cls-7" d="M986.989,854.134s3.689-2.876,5.8-2.086S989.847,854.988,986.989,854.134Z"/><path class="cls-7" d="M1004.459,850.563s-4.128,2.2-6.073,1.06S1001.789,849.231,1004.459,850.563Z"/><path class="cls-7" d="M989.023,857.348s2.294-4.077,4.546-4.163S991.989,857.033,989.023,857.348Z"/><path class="cls-7" d="M1002.866,846.066s-2.294,4.077-4.547,4.164S999.9,846.382,1002.866,846.066Z"/><path class="cls-7" d="M992.042,859.751s.3-4.668,2.294-5.722S994.579,858.182,992.042,859.751Z"/><path class="cls-7" d="M999.632,843.587s-.3,4.667-2.294,5.721S997.094,845.156,999.632,843.587Z"/><path class="cls-7" d="M986.752,851.122s4.37-1.669,6.158-.3S989.235,852.776,986.752,851.122Z"/><path class="cls-7" d="M998.807,851.405a3.256,3.256,0,1,0-3.256,3.255A3.256,3.256,0,0,0,998.807,851.405Z"/><path class="cls-7" d="M987.868,876.2a11.307,11.307,0,0,1,6.74-3.077,30,30,0,0,1,5.108,0,11.44,11.44,0,0,1-5.27,3.077A24.116,24.116,0,0,1,987.868,876.2Z"/><path class="cls-7" d="M988.454,873.4c-.494-.431-.866-3.944-3.894-4.823a28.64,28.64,0,0,0-5.177-1.048s2.624,4.564,4.535,5.248A15.061,15.061,0,0,0,988.454,873.4Z"/><path class="cls-7" d="M1019.193,886.75l.946-.243c-.379-1.688-1.324-35.658,9.334-55.466l-.861-.463C1017.813,850.65,1018.829,885.353,1019.193,886.75Z"/><path class="cls-7" d="M1031.3,812.844s3.355,7.037,1.312,10.189S1028.883,817.189,1031.3,812.844Z"/><path class="cls-7" d="M1033.391,842.532s-3.355-7.037-1.311-10.19S1035.808,838.187,1033.391,842.532Z"/><path class="cls-7" d="M1024.581,814.993s6.219,4.7,5.857,8.441S1024.437,819.962,1024.581,814.993Z"/><path class="cls-7" d="M1040.109,840.383s-6.218-4.7-5.856-8.442S1040.254,835.413,1040.109,840.383Z"/><path class="cls-7" d="M1019.666,820.054s7.675,1.368,9.049,4.865S1021.792,824.548,1019.666,820.054Z"/><path class="cls-7" d="M1045.025,835.632s-7.675-1.368-9.05-4.864S1042.9,831.138,1045.025,835.632Z"/><path class="cls-7" d="M1018.076,832.392s6.148-4.793,9.667-3.477S1022.84,833.815,1018.076,832.392Z"/><path class="cls-7" d="M1047.192,826.441s-6.88,3.666-10.121,1.766S1042.743,824.221,1047.192,826.441Z"/><path class="cls-7" d="M1021.466,837.748s3.822-6.794,7.576-6.938S1026.41,837.223,1021.466,837.748Z"/><path class="cls-7" d="M1044.536,818.946s-3.823,6.795-7.577,6.939S1039.592,819.472,1044.536,818.946Z"/><path class="cls-7" d="M1026.5,841.753s.5-7.779,3.823-9.536S1030.726,839.138,1026.5,841.753Z"/><path class="cls-7" d="M1039.147,814.813s-.5,7.78-3.824,9.537S1034.918,817.428,1039.147,814.813Z"/><path class="cls-7" d="M1017.681,827.372s7.283-2.781,10.262-.493S1021.819,830.128,1017.681,827.372Z"/><circle class="cls-7" cx="1032.345" cy="827.843" r="5.426"/><path class="cls-7" d="M1021.062,855.466s4.72-4.8,11.232-5.128a49.857,49.857,0,0,1,8.514,0s-4.007,4.233-8.784,5.128A40.181,40.181,0,0,1,1021.062,855.466Z"/><path class="cls-7" d="M1022.038,850.805c-.823-.717-1.443-6.572-6.49-8.037a47.761,47.761,0,0,0-8.628-1.747s4.373,7.607,7.559,8.747A25.07,25.07,0,0,0,1022.038,850.805Z"/><path class="cls-7" d="M1001.726,886.75l.946-.263c-.379-1.826-1.324-38.579,9.334-60.009l-.861-.5C1000.346,847.693,1001.362,885.239,1001.726,886.75Z"/><path class="cls-7" d="M1013.833,806.79s3.354,7.614,1.311,11.024S1011.416,811.491,1013.833,806.79Z"/><path class="cls-7" d="M1015.924,838.91s-3.354-7.614-1.311-11.025S1018.341,834.209,1015.924,838.91Z"/><path class="cls-7" d="M1007.114,809.115s6.219,5.087,5.857,9.133S1006.97,814.492,1007.114,809.115Z"/><path class="cls-7" d="M1022.642,836.585s-6.218-5.087-5.856-9.133S1022.787,831.208,1022.642,836.585Z"/><path class="cls-7" d="M1002.2,814.591s7.676,1.48,9.05,5.262S1004.325,819.453,1002.2,814.591Z"/><path class="cls-7" d="M1027.558,831.445s-7.675-1.48-9.05-5.263S1025.431,826.583,1027.558,831.445Z"/><path class="cls-7" d="M1000.609,827.939s6.148-5.185,9.667-3.762S1005.373,829.479,1000.609,827.939Z"/><path class="cls-7" d="M1029.725,821.5s-6.88,3.966-10.121,1.91S1025.276,819.1,1029.725,821.5Z"/><path class="cls-7" d="M1004,833.734s3.822-7.351,7.577-7.506S1008.943,833.166,1004,833.734Z"/><path class="cls-7" d="M1027.069,813.392s-3.823,7.351-7.576,7.507S1022.125,813.96,1027.069,813.392Z"/><path class="cls-7" d="M1009.03,838.068s.5-8.417,3.824-10.317S1013.259,835.238,1009.03,838.068Z"/><path class="cls-7" d="M1021.68,808.921s-.5,8.417-3.823,10.317S1017.451,811.75,1021.68,808.921Z"/><path class="cls-7" d="M1000.214,822.508s7.283-3.009,10.262-.533S1004.352,825.49,1000.214,822.508Z"/><path class="cls-7" d="M1020.305,823.018a5.443,5.443,0,1,0-5.427,5.871A5.662,5.662,0,0,0,1020.305,823.018Z"/><path class="cls-7" d="M1002.074,867.726s4.721-5.2,11.233-5.548,8.513,0,8.513,0-4.006,4.579-8.783,5.548S1002.074,867.726,1002.074,867.726Z"/><path class="cls-7" d="M1003.051,862.683c-.823-.776-1.443-7.111-6.49-8.7a44.543,44.543,0,0,0-8.629-1.89s4.374,8.231,7.56,9.464A23.292,23.292,0,0,0,1003.051,862.683Z"/><path class="cls-7" d="M1024.457,886.75l.668-.172c-.268-1.192-.935-25.179,6.591-39.165l-.608-.327C1023.482,861.259,1024.2,885.764,1024.457,886.75Z"/><path class="cls-7" d="M1033.006,834.563s2.369,4.969.926,7.2S1031.3,837.631,1033.006,834.563Z"/><path class="cls-7" d="M1034.483,855.527s-2.369-4.969-.926-7.2S1036.19,852.458,1034.483,855.527Z"/><path class="cls-7" d="M1028.262,836.08s4.391,3.321,4.136,5.961S1028.16,839.59,1028.262,836.08Z"/><path class="cls-7" d="M1039.227,854.009s-4.391-3.32-4.136-5.961S1039.329,850.5,1039.227,854.009Z"/><path class="cls-7" d="M1024.791,839.655s5.42.965,6.39,3.434S1026.293,842.828,1024.791,839.655Z"/><path class="cls-7" d="M1042.7,850.654s-5.42-.966-6.39-3.434S1041.2,847.481,1042.7,850.654Z"/><path class="cls-7" d="M1023.668,848.366s4.342-3.384,6.827-2.455S1027.032,849.371,1023.668,848.366Z"/><path class="cls-7" d="M1044.228,844.164s-4.858,2.589-7.147,1.247S1041.087,842.6,1044.228,844.164Z"/><path class="cls-7" d="M1026.062,852.149s2.7-4.8,5.35-4.9S1029.553,851.778,1026.062,852.149Z"/><path class="cls-7" d="M1042.353,838.872s-2.7,4.8-5.351,4.9S1038.861,839.243,1042.353,838.872Z"/><path class="cls-7" d="M1029.615,854.977s.355-5.494,2.7-6.734S1032.6,853.13,1029.615,854.977Z"/><path class="cls-7" d="M1038.547,835.954s-.355,5.493-2.7,6.734S1035.561,837.8,1038.547,835.954Z"/><path class="cls-7" d="M1023.39,844.822s5.142-1.964,7.246-.348S1026.312,846.768,1023.39,844.822Z"/><path class="cls-7" d="M1037.576,845.155a3.832,3.832,0,1,0-3.832,3.831A3.831,3.831,0,0,0,1037.576,845.155Z"/><path class="cls-7" d="M1024.7,874.334a13.293,13.293,0,0,1,7.932-3.621,35.216,35.216,0,0,1,6.011,0s-2.829,2.988-6.2,3.621A28.376,28.376,0,0,1,1024.7,874.334Z"/><path class="cls-7" d="M1025.393,871.042c-.582-.506-1.019-4.641-4.583-5.675a33.74,33.74,0,0,0-6.093-1.233s3.089,5.372,5.338,6.176A17.7,17.7,0,0,0,1025.393,871.042Z"/><path class="cls-7" d="M1048.89,886.75l.481-.124c-.193-.858-.673-18.128,4.745-28.2l-.437-.235C1048.188,868.4,1048.705,886.04,1048.89,886.75Z"/><path class="cls-7" d="M1055.045,849.176s1.7,3.578.667,5.181S1053.816,851.385,1055.045,849.176Z"/><path class="cls-7" d="M1056.108,864.269s-1.7-3.577-.667-5.18S1057.337,862.06,1056.108,864.269Z"/><path class="cls-7" d="M1051.629,850.269s3.161,2.39,2.978,4.291S1051.556,852.8,1051.629,850.269Z"/><path class="cls-7" d="M1059.524,863.177s-3.162-2.39-2.978-4.292S1059.6,860.65,1059.524,863.177Z"/><path class="cls-7" d="M1049.13,852.842s3.9.7,4.6,2.473S1050.211,855.127,1049.13,852.842Z"/><path class="cls-7" d="M1062.023,860.762s-3.9-.7-4.6-2.473S1060.942,858.477,1062.023,860.762Z"/><path class="cls-7" d="M1048.322,859.114s3.126-2.436,4.915-1.768S1050.744,859.838,1048.322,859.114Z"/><path class="cls-7" d="M1063.124,856.089s-3.5,1.864-5.145.9S1060.863,854.96,1063.124,856.089Z"/><path class="cls-7" d="M1050.045,861.838s1.944-3.455,3.852-3.528S1052.559,861.571,1050.045,861.838Z"/><path class="cls-7" d="M1061.774,852.279s-1.943,3.454-3.852,3.527S1059.261,852.546,1061.774,852.279Z"/><path class="cls-7" d="M1052.6,863.874s.256-3.956,1.944-4.848S1054.753,862.544,1052.6,863.874Z"/><path class="cls-7" d="M1059.034,850.178s-.255,3.955-1.943,4.848S1056.884,851.507,1059.034,850.178Z"/><path class="cls-7" d="M1048.121,856.562s3.7-1.414,5.218-.25S1050.225,857.963,1048.121,856.562Z"/><circle class="cls-7" cx="1055.576" cy="856.802" r="2.759"/><path class="cls-7" d="M1049.84,870.845a9.578,9.578,0,0,1,5.71-2.607,25.293,25.293,0,0,1,4.328,0,9.687,9.687,0,0,1-4.465,2.607A20.43,20.43,0,0,1,1049.84,870.845Z"/><path class="cls-7" d="M1050.336,868.476c-.418-.365-.734-3.342-3.3-4.087a24.251,24.251,0,0,0-4.387-.888s2.224,3.868,3.843,4.447A12.746,12.746,0,0,0,1050.336,868.476Z"/><path class="cls-7" d="M1035.922,886.75l.566-.146c-.227-1.009-.792-21.334,5.585-33.185l-.515-.277C1035.1,865.152,1035.705,885.914,1035.922,886.75Z"/><path class="cls-7" d="M1043.165,842.532s2.007,4.21.785,6.1S1041.72,845.131,1043.165,842.532Z"/><path class="cls-7" d="M1044.417,860.294s-2.007-4.21-.785-6.1S1045.863,857.7,1044.417,860.294Z"/><path class="cls-7" d="M1039.146,843.818s3.721,2.813,3.5,5.05S1039.06,846.791,1039.146,843.818Z"/><path class="cls-7" d="M1048.436,859.009s-3.72-2.813-3.5-5.051S1048.523,856.035,1048.436,859.009Z"/><path class="cls-7" d="M1036.205,846.846s4.592.818,5.414,2.91S1037.478,849.535,1036.205,846.846Z"/><path class="cls-7" d="M1051.378,856.166s-4.592-.818-5.415-2.91S1050.105,853.478,1051.378,856.166Z"/><path class="cls-7" d="M1035.254,854.228s3.678-2.868,5.784-2.081S1038.1,855.079,1035.254,854.228Z"/><path class="cls-7" d="M1052.674,850.667s-4.117,2.194-6.055,1.057S1050.012,849.339,1052.674,850.667Z"/><path class="cls-7" d="M1037.282,857.433s2.287-4.066,4.533-4.152S1040.24,857.118,1037.282,857.433Z"/><path class="cls-7" d="M1051.085,846.183s-2.287,4.065-4.533,4.151S1048.127,846.5,1051.085,846.183Z"/><path class="cls-7" d="M1040.292,859.828s.3-4.654,2.288-5.7S1042.822,858.264,1040.292,859.828Z"/><path class="cls-7" d="M1047.861,843.71s-.3,4.655-2.288,5.706S1045.331,845.275,1047.861,843.71Z"/><path class="cls-7" d="M1035.018,851.224s4.357-1.664,6.139-.3S1037.494,852.873,1035.018,851.224Z"/><path class="cls-7" d="M1047.038,851.506a3.247,3.247,0,1,0-3.247,3.247A3.247,3.247,0,0,0,1047.038,851.506Z"/><path class="cls-7" d="M1036.13,876.23a11.271,11.271,0,0,1,6.721-3.069,29.834,29.834,0,0,1,5.094,0,11.409,11.409,0,0,1-5.255,3.069A24.074,24.074,0,0,1,1036.13,876.23Z"/><path class="cls-7" d="M1036.715,873.441c-.493-.429-.864-3.932-3.883-4.809a28.622,28.622,0,0,0-5.162-1.045s2.617,4.552,4.523,5.233A15.006,15.006,0,0,0,1036.715,873.441Z"/><path class="cls-7" d="M1051.566,886.75l.34-.087c-.136-.606-.476-12.8,3.35-19.912l-.308-.166C1051.071,873.79,1051.435,886.249,1051.566,886.75Z"/><path class="cls-7" d="M1055.912,860.218s1.2,2.526.471,3.658S1055.045,861.778,1055.912,860.218Z"/><path class="cls-7" d="M1056.663,870.876s-1.2-2.526-.471-3.658S1057.531,869.316,1056.663,870.876Z"/><path class="cls-7" d="M1053.5,860.99s2.232,1.688,2.1,3.03S1053.449,862.774,1053.5,860.99Z"/><path class="cls-7" d="M1059.075,870.105s-2.233-1.688-2.1-3.031S1059.127,868.32,1059.075,870.105Z"/><path class="cls-7" d="M1051.736,862.807s2.755.491,3.248,1.746S1052.5,864.42,1051.736,862.807Z"/><path class="cls-7" d="M1060.84,868.4s-2.756-.491-3.249-1.746S1060.076,866.786,1060.84,868.4Z"/><path class="cls-7" d="M1051.165,867.236s2.207-1.721,3.47-1.249S1052.875,867.747,1051.165,867.236Z"/><path class="cls-7" d="M1061.618,865.1s-2.47,1.316-3.634.633S1060.02,864.3,1061.618,865.1Z"/><path class="cls-7" d="M1052.382,869.159s1.372-2.439,2.72-2.491S1054.157,868.97,1052.382,869.159Z"/><path class="cls-7" d="M1060.664,862.409s-1.372,2.439-2.72,2.491S1058.889,862.6,1060.664,862.409Z"/><path class="cls-7" d="M1054.188,870.6s.18-2.793,1.373-3.424S1055.706,869.658,1054.188,870.6Z"/><path class="cls-7" d="M1058.729,860.925s-.18,2.793-1.372,3.424S1057.211,861.864,1058.729,860.925Z"/><path class="cls-7" d="M1051.024,865.434s2.614-1,3.684-.177S1052.509,866.423,1051.024,865.434Z"/><path class="cls-7" d="M1058.236,865.6a1.948,1.948,0,1,0-1.948,1.948A1.948,1.948,0,0,0,1058.236,865.6Z"/><path class="cls-7" d="M1051.691,880.437a6.763,6.763,0,0,1,4.032-1.841,18.062,18.062,0,0,1,3.057,0,6.846,6.846,0,0,1-3.154,1.841A14.393,14.393,0,0,1,1051.691,880.437Z"/><path class="cls-7" d="M1052.042,878.764c-.3-.258-.518-2.359-2.33-2.885a17.13,17.13,0,0,0-3.1-.627s1.569,2.731,2.713,3.14A9.008,9.008,0,0,0,1052.042,878.764Z"/><path class="cls-7" d="M1070.433,886.75l.566-.146c-.227-1.009-.792-21.334,5.584-33.185l-.515-.277C1069.607,865.152,1070.215,885.914,1070.433,886.75Z"/><path class="cls-7" d="M1077.676,842.532s2.007,4.21.785,6.1S1076.23,845.131,1077.676,842.532Z"/><path class="cls-7" d="M1078.927,860.294s-2.007-4.21-.784-6.1S1080.373,857.7,1078.927,860.294Z"/><path class="cls-7" d="M1073.657,843.818s3.72,2.813,3.5,5.05S1073.57,846.791,1073.657,843.818Z"/><path class="cls-7" d="M1082.947,859.009s-3.721-2.813-3.5-5.051S1083.033,856.035,1082.947,859.009Z"/><path class="cls-7" d="M1070.716,846.846s4.591.818,5.414,2.91S1071.988,849.535,1070.716,846.846Z"/><path class="cls-7" d="M1085.888,856.166s-4.592-.818-5.414-2.91S1084.616,853.478,1085.888,856.166Z"/><path class="cls-7" d="M1069.764,854.228s3.679-2.868,5.784-2.081S1072.615,855.079,1069.764,854.228Z"/><path class="cls-7" d="M1087.184,850.667s-4.116,2.194-6.055,1.057S1084.522,849.339,1087.184,850.667Z"/><path class="cls-7" d="M1071.792,857.433s2.288-4.066,4.534-4.152S1074.75,857.118,1071.792,857.433Z"/><path class="cls-7" d="M1085.6,846.183s-2.287,4.065-4.532,4.151S1082.638,846.5,1085.6,846.183Z"/><path class="cls-7" d="M1074.8,859.828s.3-4.654,2.288-5.7S1077.333,858.264,1074.8,859.828Z"/><path class="cls-7" d="M1082.371,843.71s-.3,4.655-2.287,5.706S1079.841,845.275,1082.371,843.71Z"/><path class="cls-7" d="M1069.528,851.224s4.358-1.664,6.14-.3S1072,852.873,1069.528,851.224Z"/><path class="cls-7" d="M1081.548,851.506a3.247,3.247,0,1,0-3.247,3.247A3.247,3.247,0,0,0,1081.548,851.506Z"/><path class="cls-7" d="M1071.551,868.033a11.268,11.268,0,0,1,6.72-3.068,29.817,29.817,0,0,1,5.093,0,11.405,11.405,0,0,1-5.254,3.068A24.066,24.066,0,0,1,1071.551,868.033Z"/><path class="cls-7" d="M1072.135,865.244c-.493-.429-.864-3.932-3.883-4.809a28.622,28.622,0,0,0-5.162-1.045s2.616,4.552,4.522,5.234A15,15,0,0,0,1072.135,865.244Z"/><path class="cls-7" d="M1059.982,886.75l.567-.157c-.227-1.093-.793-23.082,5.583-35.9l-.514-.3C1059.157,863.382,1059.765,885.846,1059.982,886.75Z"/><path class="cls-7" d="M1067.226,838.91s2.007,4.555.784,6.6S1065.78,841.723,1067.226,838.91Z"/><path class="cls-7" d="M1068.477,858.127s-2.007-4.555-.785-6.6S1069.923,855.315,1068.477,858.127Z"/><path class="cls-7" d="M1063.206,840.3s3.721,3.044,3.5,5.464S1063.12,843.518,1063.206,840.3Z"/><path class="cls-7" d="M1072.5,856.736s-3.72-3.043-3.5-5.464S1072.583,853.519,1072.5,856.736Z"/><path class="cls-7" d="M1060.265,843.577s4.592.886,5.415,3.149S1061.537,846.487,1060.265,843.577Z"/><path class="cls-7" d="M1075.437,853.661s-4.592-.885-5.414-3.149S1074.165,850.752,1075.437,853.661Z"/><path class="cls-7" d="M1059.314,851.564s3.678-3.1,5.784-2.251S1062.164,852.485,1059.314,851.564Z"/><path class="cls-7" d="M1076.734,847.711s-4.116,2.373-6.056,1.144S1074.072,846.275,1076.734,847.711Z"/><path class="cls-7" d="M1061.342,855.031s2.287-4.4,4.533-4.491S1064.3,854.691,1061.342,855.031Z"/><path class="cls-7" d="M1075.145,842.86s-2.287,4.4-4.533,4.492S1072.187,843.2,1075.145,842.86Z"/><path class="cls-7" d="M1064.353,857.623s.3-5.036,2.287-6.172S1066.882,855.931,1064.353,857.623Z"/><path class="cls-7" d="M1071.921,840.185s-.3,5.036-2.288,6.173S1069.391,841.878,1071.921,840.185Z"/><path class="cls-7" d="M1059.078,848.314s4.357-1.8,6.14-.319S1061.553,850.1,1059.078,848.314Z"/><path class="cls-7" d="M1071.1,848.619a3.257,3.257,0,1,0-3.247,3.513A3.387,3.387,0,0,0,1071.1,848.619Z"/><path class="cls-7" d="M1060.191,875.368a10.989,10.989,0,0,1,6.72-3.32,27.583,27.583,0,0,1,5.094,0s-2.4,2.74-5.255,3.32A22.256,22.256,0,0,1,1060.191,875.368Z"/><path class="cls-7" d="M1060.775,872.351c-.492-.465-.864-4.254-3.883-5.2a26.681,26.681,0,0,0-5.162-1.131s2.616,4.925,4.522,5.662A13.94,13.94,0,0,0,1060.775,872.351Z"/><path class="cls-7" d="M1073.582,886.75l.4-.1c-.16-.713-.559-15.064,3.943-23.433l-.363-.2C1073,871.5,1073.429,886.16,1073.582,886.75Z"/><path class="cls-7" d="M1078.7,855.527s1.417,2.973.554,4.3S1077.676,857.362,1078.7,855.527Z"/><path class="cls-7" d="M1079.581,868.069s-1.418-2.973-.555-4.3S1080.6,866.233,1079.581,868.069Z"/><path class="cls-7" d="M1075.859,856.434s2.627,1.987,2.474,3.567S1075.8,858.534,1075.859,856.434Z"/><path class="cls-7" d="M1082.419,867.161s-2.627-1.986-2.474-3.566S1082.48,865.062,1082.419,867.161Z"/><path class="cls-7" d="M1073.782,858.573s3.242.578,3.823,2.055S1074.68,860.471,1073.782,858.573Z"/><path class="cls-7" d="M1084.5,865.154s-3.243-.578-3.824-2.055S1083.6,863.256,1084.5,865.154Z"/><path class="cls-7" d="M1073.11,863.785s2.6-2.025,4.084-1.469S1075.123,864.386,1073.11,863.785Z"/><path class="cls-7" d="M1085.411,861.271s-2.906,1.549-4.276.746S1083.531,860.333,1085.411,861.271Z"/><path class="cls-7" d="M1074.542,866.048s1.615-2.87,3.2-2.931S1076.631,865.826,1074.542,866.048Z"/><path class="cls-7" d="M1084.289,858.1s-1.615,2.871-3.2,2.932S1082.2,858.327,1084.289,858.1Z"/><path class="cls-7" d="M1076.668,867.74s.212-3.286,1.616-4.028S1078.455,866.635,1076.668,867.74Z"/><path class="cls-7" d="M1082.012,856.359s-.212,3.287-1.615,4.029S1080.226,857.463,1082.012,856.359Z"/><path class="cls-7" d="M1072.944,861.664s3.076-1.175,4.335-.208S1074.692,862.829,1072.944,861.664Z"/><path class="cls-7" d="M1081.431,861.863a2.293,2.293,0,1,0-2.292,2.293A2.292,2.292,0,0,0,1081.431,861.863Z"/><path class="cls-7" d="M1073.729,879.321a7.957,7.957,0,0,1,4.746-2.166,21,21,0,0,1,3.6,0,8.051,8.051,0,0,1-3.71,2.166A16.988,16.988,0,0,1,1073.729,879.321Z"/><path class="cls-7" d="M1074.142,877.352c-.348-.3-.61-2.776-2.742-3.395a20.054,20.054,0,0,0-3.645-.738s1.848,3.214,3.193,3.695A10.616,10.616,0,0,0,1074.142,877.352Z"/><path class="cls-8" d="M413.362,670.133V889.144H365.048c-.023-.065-.047-.142-.076-.219l-.054-.142c-.159-.42-.372-.988-.644-1.709l-.107-.213v-.106a.4.4,0,0,1-.106-.219,29.954,29.954,0,0,1-1.189-3.021c-.219-.544-.431-1.195-.757-1.839v-.219l-.106-.107c-1.484-3.855-3.323-8.875-5.446-14.941q-.285-.825-.586-1.668c-1.59-4.582-3.341-9.714-5.2-15.367q-1.286-3.982-2.643-8.308c-3.749-11.979-7.829-25.815-11.833-41.059-1.945-7.456-3.891-15.231-5.73-23.337-1.082-4.677-2.17-9.55-3.211-14.469q-.452-2.164-.893-4.328c-1.91-9.212-3.708-18.7-5.328-28.4-2.135-12.737-3.968-25.828-5.364-39.12q-1.037-9.783-1.744-19.7c-.012-.172-.03-.349-.035-.52Z"/><polygon class="cls-9" points="373.654 579.147 424.835 684.51 580.328 684.51 499.261 579.532 373.654 579.147"/><polygon class="cls-10" points="574.192 684.51 569.57 678.524 493.125 579.532 367.517 579.147 413.36 673.519 413.36 889.131 569.57 889.131 569.57 684.51 574.192 684.51"/><path class="cls-11" d="M472.294,631.829h42.789a0,0,0,0,1,0,0v50.084a21.041,21.041,0,0,1-21.041,21.041h0a21.747,21.747,0,0,1-21.747-21.747V631.829A0,0,0,0,1,472.294,631.829Z" transform="translate(987.376 1334.783) rotate(180)"/><path class="cls-9" d="M499.675,579.146l-.349.467-3.028,4.032-73.114,97.468-6.931,9.241H315.771q-1.037-9.783-1.744-19.7c-.012-.172-.03-.349-.035-.52s-.03-.355-.042-.533c-.638-9.306-1.041-18.679-1.159-28.044l48.171-62.387h20.419l71.329-.011Z"/><polygon class="cls-9" points="510.075 713.937 546.513 788.95 657.216 788.95 599.501 714.211 510.075 713.937"/><polygon class="cls-10" points="653.899 788.95 596.184 714.211 506.758 713.937 543.196 788.95 543.438 788.95 543.438 888.924 653.897 889.141 653.897 788.95 653.899 788.95"/><rect class="cls-8" x="449.901" y="788.949" width="93.537" height="99.976"/><polygon class="cls-9" points="439.622 793.385 540.105 793.385 599.502 714.209 569.57 714.214 500.745 714.229 439.622 793.385"/><path class="cls-11" d="M576.231,805.6v83.539h46.537V806.37a23.654,23.654,0,0,0-23.652-23.65A22.892,22.892,0,0,0,576.231,805.6Z"/><path class="cls-11" d="M604.723,755.854a5.223,5.223,0,1,0-5.222,5.222A5.222,5.222,0,0,0,604.723,755.854Z"/><polygon class="cls-12" points="439.622 793.385 458.692 793.385 569.57 714.214 500.745 714.229 439.622 793.385"/><polygon class="cls-13" points="422.099 653.027 330.264 653.027 378.709 593.614 470.544 593.614 422.099 653.027"/><polygon class="cls-14" points="458.037 609.263 366.201 609.263 366.771 608.564 458.606 608.564 458.037 609.263"/><polygon class="cls-14" points="400.296 593.613 351.85 653.027 351.151 653.027 399.597 593.613 400.296 593.613"/><polygon class="cls-14" points="424.628 593.613 376.182 653.027 375.483 653.027 423.929 593.613 424.628 593.613"/><polygon class="cls-14" points="448.041 593.613 399.595 653.027 398.897 653.027 447.342 593.613 448.041 593.613"/><polygon class="cls-14" points="446.037 623.67 354.202 623.67 354.771 622.971 446.607 622.971 446.037 623.67"/><polygon class="cls-14" points="433.365 639.211 341.53 639.211 342.099 638.512 433.935 638.512 433.365 639.211"/><polygon class="cls-14" points="385.01 611.824 384.482 608.962 389.676 606.101 390.205 608.962 385.01 611.824"/><polygon class="cls-14" points="409.08 611.824 408.551 608.962 413.746 606.101 414.275 608.962 409.08 611.824"/><polygon class="cls-14" points="432.843 611.824 432.314 608.962 437.509 606.101 438.037 608.962 432.843 611.824"/><polygon class="cls-14" points="373.302 626.182 372.774 623.321 377.969 620.459 378.497 623.321 373.302 626.182"/><polygon class="cls-14" points="397.372 626.182 396.844 623.321 402.039 620.459 402.567 623.321 397.372 626.182"/><polygon class="cls-14" points="421.135 626.182 420.607 623.321 425.801 620.459 426.33 623.321 421.135 626.182"/><polygon class="cls-14" points="360.63 641.723 360.102 638.861 365.297 636 365.825 638.861 360.63 641.723"/><polygon class="cls-14" points="384.7 641.723 384.172 638.861 389.367 636 389.895 638.861 384.7 641.723"/><polygon class="cls-14" points="408.463 641.723 407.935 638.861 413.13 636 413.658 638.861 408.463 641.723"/><path class="cls-1" d="M1441.286,391.283q-.054,3.415-.219,6.895a230.328,230.328,0,0,1-3.613,30.687l-143.676-1.886s13-30.693,44.105-27.282c0,0,45.15-51.164,93.292-6.823C1431.175,392.874,1434.983,392.058,1441.286,391.283Z"/><path class="cls-1" d="M974.009,293.874s6.733-16.209,22.837-14.408c0,0,23.379-27.015,48.31-3.6,0,0,26.5-5.8,46.127,5.023,13.085,7.217,17.407,14.788,17.407,14.788Z"/><path class="cls-1" d="M432.334,529.26s7.195-17.318,24.4-15.393c0,0,24.978-28.864,51.615-3.849,0,0,28.315-6.2,49.284,5.367,13.98,7.711,18.6,15.8,18.6,15.8Z"/><path class="cls-1" d="M394.841,476.28s5.506-13.253,18.672-11.78c0,0,19.116-22.088,39.5-2.945,0,0,21.668-4.743,37.715,4.107,10.7,5.9,14.232,12.09,14.232,12.09Z"/><path class="cls-2" d="M1554.067,810.746a173.167,173.167,0,0,1-3.518,21.451c-.035.154-.071.307-.112.467-37.978,13.759-77.127,32.012-111.983,56.119h-94.245C1357.868,880,1424.441,843.136,1554.067,810.746Z"/><path class="cls-15" d="M1344.732,790.689s72.321-6.34,91.98,0,29.489,35.829,26.681,57.361-9.362,39.787-22,39.319-102.042,0-102.042,0Z"/><path class="cls-15" d="M1359.5,789.582s15.306-2.851,25.721-3.9c0,0-8.192,1.677-9.206,2.535,0,0,22.234-3.355,30.348-2.535s19.23,2.193,19.23,2.193l12.365-.828s-10.3,1.248-9.751,1.4,10.063,1.326,13.106,3.277c0,0,9.439,2.964,11.468,4.759,0,0-7.567-3.823-10.532-3.589,0,0,17.149,11.895,17.195,23.228s-73.755-17.065-73.755-17.065Z"/><path class="cls-2" d="M1355.075,790.12s-28.785-2.189-47.04,20.98-3.51,76.82,20.361,77.025,53.274-3.463,59.635-34.627S1381.053,790.9,1355.075,790.12Z"/><path class="cls-2" d="M1296.131,836.348s10.3-11.858,11.39-15.135l1.56,3.277Z"/><path class="cls-2" d="M1303.563,818.793s1.3-8.5,5.05-11.622c0,0-3.4,5.7-2.525,10.453S1303.563,818.793,1303.563,818.793Z"/><path class="cls-2" d="M1308.613,878.943c.188.456-5.539-15.564-3.667-18.606l1.09.01S1306.78,874.5,1308.613,878.943Z"/><path class="cls-2" d="M1304.01,858.113s-4.29-1.4-6.709,0c0,0,3.976-1.112,6.4,1.249S1304.01,858.113,1304.01,858.113Z"/><path class="cls-15" d="M1343.685,887.312c-6.618,0-14.585-1.123-21.387-5.286-7.352-4.5-12.154-11.753-14.273-21.562-3.608-16.7-1.836-30.4,5.267-40.718,6.641-9.649,17.855-15.932,32.429-18.17,9.836-1.512,18.354,1.667,24.629,9.192,9.068,10.875,11.673,29.244,6.336,44.671-3.771,10.9-13.843,17.634-26.943,18.013q-.561.016-1.119.016c-13.195,0-25.09-6.745-29.174-16.659-4.164-10.105-3.948-19.991.608-27.835,4.626-7.965,13.361-13.147,24.6-14.589,10.171-1.31,15.659,3.428,18.47,7.629,5.423,8.108,5.409,21.276,1.774,27.635-3.5,6.125-13.194,10.853-21.612,10.56-6.074-.218-10.711-3.03-13.056-7.916-3.017-6.285-2.819-12.776.543-17.808,2.705-4.052,7.077-6.525,11.134-6.305,4.659.254,6.645,4.144,6.93,7.4.252,2.867-.726,6.057-3.08,6.607-4.38,1.021-5.934-1.369-6-1.471,0,0-2.365-3.905.577-4.466,3.371-.643,2.484,1.973,2.484,1.973.048.072-.832,3.608,2.663,2.791,1.441-.336,2.387-2.677,2.155-5.33-.255-2.907-1.911-6.09-5.8-6.3-3.646-.207-7.594,2.067-10.068,5.772-3.119,4.67-3.286,10.728-.459,16.619,2.746,5.721,8.049,7.091,12.015,7.234,8.012.274,17.221-4.178,20.523-9.954,3.061-5.355,3.884-17.976-1.73-26.369-3.759-5.619-9.746-8.078-17.316-7.1-10.856,1.394-19.276,6.366-23.709,14-4.363,7.513-4.554,17.02-.536,26.772s16.007,16.279,29.145,15.9c12.579-.364,22.24-6.794,25.84-17.2,5.206-15.05,2.689-32.94-6.122-43.507-4.177-5.009-11.647-10.594-23.522-8.774-14.238,2.187-25.172,8.295-31.62,17.664-6.908,10.037-8.618,23.421-5.083,39.781,2.048,9.474,6.666,16.469,13.726,20.789,14.265,8.731,36.766,3.447,36.964,3.395l-2.547,1.375A59.779,59.779,0,0,1,1343.685,887.312Z"/><path class="cls-15" d="M1456.611,757.1s97.246-8.525,123.682,0,39.653,48.178,35.876,77.131-12.588,53.5-29.582,52.87-137.212,0-137.212,0Z"/><path class="cls-15" d="M1476.471,755.615s20.582-3.833,34.586-5.249c0,0-11.014,2.255-12.378,3.409,0,0,29.9-4.511,40.806-3.409s25.859,2.949,25.859,2.949l16.627-1.114s-13.847,1.679-13.113,1.889,13.532,1.783,17.624,4.4c0,0,12.693,3.987,15.42,6.4,0,0-10.175-5.141-14.162-4.826,0,0,23.06,16,23.122,31.233s-99.175-22.946-99.175-22.946Z"/><path class="cls-2" d="M1470.52,756.339s-38.708-2.943-63.254,28.211-4.72,103.3,27.379,103.573,71.635-4.656,80.189-46.562S1505.45,757.393,1470.52,756.339Z"/><path class="cls-2" d="M1391.259,818.5s13.847-15.946,15.316-20.351l2.1,4.4Z"/><path class="cls-2" d="M1401.253,794.894s1.755-11.432,6.79-15.628c0,0-4.576,7.664-3.395,14.057S1401.253,794.894,1401.253,794.894Z"/><path class="cls-2" d="M1408.043,875.776c.253.614-7.448-20.928-4.93-25.019l1.465.014S1405.578,869.8,1408.043,875.776Z"/><path class="cls-2" d="M1401.854,847.767s-5.769-1.888-9.021,0c0,0,5.346-1.5,8.6,1.679S1401.854,847.767,1401.854,847.767Z"/><path class="cls-15" d="M1455.2,887.029c-8.9,0-19.612-1.51-28.758-7.107-9.885-6.05-16.343-15.805-19.193-28.994-4.851-22.452-2.468-40.873,7.083-54.751,8.93-12.975,24.009-21.424,43.606-24.434,13.225-2.033,24.68,2.243,33.118,12.361,12.192,14.622,15.7,39.323,8.52,60.067-5.072,14.658-18.615,23.712-36.23,24.221q-.753.023-1.5.022c-17.743,0-33.738-9.07-39.23-22.4-5.6-13.588-5.308-26.88.818-37.429,6.22-10.71,17.966-17.677,33.075-19.617,13.677-1.761,21.056,4.61,24.835,10.259,7.292,10.9,7.274,28.609,2.386,37.159-4.708,8.237-17.742,14.594-29.061,14.2-8.167-.293-14.4-4.073-17.555-10.643-4.057-8.452-3.791-17.18.729-23.947,3.638-5.448,9.517-8.772,14.972-8.478,6.265.341,8.935,5.573,9.319,9.949.338,3.856-.977,8.146-4.143,8.885-5.889,1.373-7.979-1.841-8.065-1.978,0,0-3.18-5.251.777-6,4.532-.864,3.34,2.653,3.34,2.653.065.1-1.119,4.851,3.581,3.753,1.937-.452,3.21-3.6,2.9-7.166-.343-3.91-2.57-8.19-7.794-8.474-4.9-.279-10.211,2.778-13.538,7.76-4.194,6.28-4.419,14.425-.616,22.347,3.692,7.692,10.823,9.535,16.155,9.727,10.773.368,23.156-5.618,27.6-13.385,4.116-7.2,5.222-24.172-2.327-35.456-5.054-7.557-13.105-10.863-23.283-9.553-14.6,1.874-25.92,8.56-31.881,18.825-5.867,10.1-6.124,22.886-.721,36,5.4,13.1,21.524,21.889,39.19,21.377,16.915-.488,29.905-9.135,34.747-23.132,7-20.236,3.615-44.292-8.234-58.5-5.616-6.736-15.66-14.246-31.628-11.8-19.145,2.94-33.848,11.153-42.518,23.752-9.289,13.5-11.588,31.493-6.834,53.491,2.753,12.739,8.962,22.145,18.455,27.955,19.182,11.739,49.44,4.634,49.7,4.564l-3.424,1.849A80.375,80.375,0,0,1,1455.2,887.029Z"/><path class="cls-16" d="M752.643,794.77s-16.689,64.4-15.192,69.486,9.878,22.385,9.878,22.385h-8.065a6.081,6.081,0,0,1-3.126-5.589c.133-3.991-11.177-19.558-11.177-19.558s4.437-24.723,0-34.461C705.855,785.1,737.856,785.494,752.643,794.77Z"/><path class="cls-16" d="M838.368,817.054s-4.79,34.594-5.056,36.723-2.528,4.789-2.395,8.249,1.331,15.168,5.056,18.1a10.6,10.6,0,0,1,4.125,6.52H829.986s-1.73-3.46-1.464-5.855-2.794-4.923-2.927-9.845,0-14.1-1.33-17.3-.932-25.147-5.322-30.069S838.368,817.054,838.368,817.054Z"/><path class="cls-11" d="M728.354,805.487c-.11,1.6-.165,3.08-.165,4.566.275,37.45,37.341,26.232,38.661,25.241a7.94,7.94,0,0,1,4.015-.879c18.533,7.37,44.491.6,49.88-1.595s19.743,3.245,26.4,2.75c2.695-.221,4.949-3.025,6.654-6.544a49.553,49.553,0,0,0,4.015-13.694c.11-1.265,1.815-6.105,4.125-12.044.934-2.311,1.979-4.84,3.079-7.425.22-.44.385-.934.605-1.374-.55-.606-1.045-1.265-1.54-1.926-2.914-3.849-4.949-8.359-7.2-12.868-2.31-4.73-4.785-9.57-8.47-13.913-5.444-1.706-11.933,1.374-14.628,1.209a74.693,74.693,0,0,1-9.019-1.1c-1.155-.219-2.2-.384-3.19-.549-5.5-.826-38.826,3.466-62.364,4.125-4.839.165-9.239.11-12.924-.11-.275,0-.55-.055-.825-.055-9.844-.551-15.068.055-17.818.934-3.025.936-3.08,2.091-3.08,2.091C715.155,781.509,728.354,805.487,728.354,805.487Z"/><path class="cls-11" d="M850.486,817.054s-4.79,34.594-5.056,36.723-2.528,4.789-2.395,8.249,1.33,15.168,5.056,18.1a10.6,10.6,0,0,1,4.124,6.52H842.1s-1.729-3.46-1.463-5.855-2.795-4.923-2.928-9.845,0-14.1-1.33-17.3-.932-25.147-5.322-30.069S850.486,817.054,850.486,817.054Z"/><path class="cls-11" d="M763.052,809.175s-13.471,49.992-11.974,55.081,9.878,22.385,9.878,22.385h-8.065a6.083,6.083,0,0,1-3.127-5.589c.133-3.991-11.176-19.558-11.176-19.558s-.914-28.22-7.566-36.6S748.265,799.9,763.052,809.175Z"/><path class="cls-11" d="M900.28,821.969c.544.732,1.025,1.253,1.025,1.253a20.619,20.619,0,0,0,2.4.119,6.511,6.511,0,0,0,3.225-.878,4.057,4.057,0,0,0,1.578-1.88s-.458-1.18-2.854-1.491c-1.766-.229-3.5-1.454-4.977-1.61h0a2.13,2.13,0,0,0-1.487.352C898.071,818.617,899.283,820.638,900.28,821.969Z"/><path class="cls-11" d="M902.828,826.634c.068-.031.91.128,2.008.124,1.765,0,4.212-.43,5.195-2.763,0,0-.457-1.18-2.854-1.491a2.429,2.429,0,0,1-.251-.041c-1.542-.274-3.06-1.244-4.387-1.514a2.267,2.267,0,0,0-1.829.293,1,1,0,0,0-.43.727C900.06,823.62,902.828,826.634,902.828,826.634Z"/><path class="cls-11" d="M847.968,776.12c.66,17.159,3.849,49.991,5.829,52.906a76.649,76.649,0,0,1,11.934,1.32c9.9,2.034,12.649,5.772,13.584,7.533,1.759,3.521,10.009,11.55,11.439,11.825,1.485.273,2.364,2.2,3.9,5.334,1.484,3.079,4.454,3.354,6.928,3.519,2.475.11,4.51-2.86,4.565-3.574.055-.771-1.265-3.08-1.045-6.16.166-3.08-1.814-12.264-.165-14.738,1.045-1.6.44-5-.11-7.315-.33-1.375-.66-2.309-.66-2.309a6.1,6.1,0,0,0-.5-1.1c-.33-.716-.715-1.54-1.154-2.42-.5-1.045-1.155-2.2-1.87-3.465A143.082,143.082,0,0,0,887.4,798.118a131.192,131.192,0,0,0-21.448-21.337,95.243,95.243,0,0,0-17.544-11C847.858,766,847.748,770.125,847.968,776.12Z"/><path class="cls-13" d="M840.285,808.568c-.347-.886-.168-15.939-11.035-19.032s-16.814,1.666-30.375-3.806-27.834-9.992-29.262-4.045,1.19,22.6,0,30.214,24.556,10.31,35.117,5.631S844.106,818.322,840.285,808.568Z"/><path class="cls-13" d="M724.55,772.348a27.293,27.293,0,0,0-8.227,16.712c-1.189,10.706,2.141,57.742,2.141,57.742l2.716-.152,2.915-52.039Z"/><path class="cls-13" d="M721.636,852.789s-5.868-6.315-2.22-7.742,2.22,2.855,2.22,4.52Z"/><path class="cls-17" d="M727.639,770.235c6.819,3.355,14.354,6.435,18.808,6.546,9.734.164,33.382-5.445,43.006-6.051s48.616,8.415,57.8,5.5a1.51,1.51,0,0,1,.715-.11c2.035-.165,5.114,1.265,8.909,3.575,2.145,1.375,4.509,3.024,6.984,4.894,16,12.1,36.792,32.887,36.792,32.887A143.082,143.082,0,0,0,887.4,798.118a131.192,131.192,0,0,0-21.448-21.337,95.243,95.243,0,0,0-17.544-11c-5.444-1.706-11.933,1.374-14.628,1.209a74.693,74.693,0,0,1-9.019-1.1c-1.155-.219-2.2-.384-3.19-.549-5.5-.826-38.826,3.466-62.364,4.125-4.839.165-9.239.11-12.924-.11-.275,0-.55-.055-.825-.055C735.613,768.75,730.389,769.356,727.639,770.235Z"/><path class="cls-13" d="M759.215,769.464c4.256,3.471,12.42,4.856,23.959,2.7,14.036-2.616,17.367,3.569,29.024,4.045,10.284.418,12.235-8.275,12.552-10.33-1.133-.188-2.208-.371-3.2-.521C816.083,764.535,782.727,768.791,759.215,769.464Z"/><path class="cls-13" d="M864.081,792.563a24.729,24.729,0,0,0,.935,3.3,27.342,27.342,0,0,0,1.815,3.575c6.215,9.9.33,21.777-1.1,30.908,9.9,2.034,12.649,5.772,13.584,7.533,1.759,3.521,10.009,11.55,11.439,11.825,1.485.273,2.364,2.2,3.9,5.334,1.484,3.079,4.454,3.354,6.928,3.519,2.475.11,4.51-2.86,4.565-3.574.055-.771-1.265-3.08-1.045-6.16.166-3.08-1.814-12.264-.165-14.738,1.045-1.6.44-5-.11-7.315,1.76,0,4.235-.439,5.225-2.75,0,0-.5-1.21-2.86-1.54h-.275a4.3,4.3,0,0,0,1.6-1.924s-.5-1.155-2.86-1.485c-1.759-.22-3.519-1.43-5-1.6A143.082,143.082,0,0,0,887.4,798.118a131.192,131.192,0,0,0-21.448-21.337,32.867,32.867,0,0,0-2.09,7.808A24.4,24.4,0,0,0,864.081,792.563Z"/><path class="cls-13" d="M728.342,805.478c-.105,1.6-.147,3.114-.138,4.561,12.076,8.956,33.256,4.437,34.848-6.338,1.832-12.412-14.85-14.165-13.627-24.392.5-4.171-1.466-7.513-3.968-10.006-20.712-1.228-20.907,3.045-20.907,3.045C715.172,781.528,728.342,805.478,728.342,805.478Z"/><path class="cls-18" d="M653.255,334.4h362.2a59.626,59.626,0,0,1,59.626,59.626v200.91a59.625,59.625,0,0,1-59.625,59.625h-362.2a59.626,59.626,0,0,1-59.626-59.626V394.025A59.626,59.626,0,0,1,653.255,334.4Z"/><path class="cls-1" d="M769.871,438.638a69.243,69.243,0,1,1-56.536-68.1c-8.647,31.511-20.122,73.243-20.891,75.845,1.427-2.248,43.556-21.134,72.325-33.862A68.852,68.852,0,0,1,769.871,438.638Z"/><path class="cls-19" d="M768.623,404.969c-25.406,11.195-67.491,29.955-68.838,32.078.731-2.474,12.371-44.79,20.17-73.153A76.1,76.1,0,0,1,768.623,404.969Z"/><path class="cls-2" d="M936.821,355.369a5.756,5.756,0,1,1,5.756,5.756A5.756,5.756,0,0,1,936.821,355.369Z"/><path class="cls-2" d="M966.7,355.369a5.756,5.756,0,1,1,5.756,5.756A5.756,5.756,0,0,1,966.7,355.369Z"/><circle class="cls-2" cx="1003.293" cy="355.369" r="5.756" transform="translate(42.574 813.52) rotate(-45)"/><path class="cls-2" d="M758.237,630.716H624.2V588.064h134.04Zm-132.395-1.645H756.593V589.708H625.842Z"/><rect class="cls-2" x="633.909" y="599.525" width="51.849" height="3.38"/><rect class="cls-2" x="691.217" y="599.525" width="36.79" height="3.38"/><rect class="cls-2" x="633.909" y="609.18" width="28.614" height="3.38"/><rect class="cls-2" x="667.363" y="609.18" width="36.79" height="3.38"/><rect class="cls-2" x="707.963" y="609.18" width="36.79" height="3.38"/><path class="cls-2" d="M926.505,609.18H860.144V588.064h66.361Zm-65.546-.814h64.732V588.878H860.959Z"/><rect class="cls-2" x="864.953" y="593.738" width="25.669" height="1.673"/><rect class="cls-2" x="893.325" y="593.738" width="18.214" height="1.673"/><rect class="cls-2" x="864.953" y="598.518" width="14.166" height="1.673"/><rect class="cls-2" x="881.515" y="598.518" width="18.214" height="1.673"/><rect class="cls-2" x="901.615" y="598.518" width="18.214" height="1.673"/><path class="cls-2" d="M1005.636,609.18H939.275V588.064h66.361Zm-65.547-.814h64.733V588.878H940.089Z"/><rect class="cls-2" x="944.083" y="593.738" width="25.669" height="1.673"/><rect class="cls-2" x="972.455" y="593.738" width="18.214" height="1.673"/><rect class="cls-2" x="944.083" y="598.518" width="14.166" height="1.673"/><rect class="cls-2" x="960.646" y="598.518" width="18.214" height="1.673"/><rect class="cls-2" x="980.746" y="598.518" width="18.214" height="1.673"/><path class="cls-2" d="M926.505,515.259H860.144V494.143h66.361Zm-65.546-.814h64.732V494.957H860.959Z"/><rect class="cls-2" x="864.953" y="499.817" width="25.669" height="1.673"/><rect class="cls-2" x="893.325" y="499.817" width="18.214" height="1.673"/><rect class="cls-2" x="864.953" y="504.597" width="14.166" height="1.673"/><rect class="cls-2" x="881.515" y="504.597" width="18.214" height="1.673"/><rect class="cls-2" x="901.615" y="504.597" width="18.214" height="1.673"/><path class="cls-2" d="M1005.636,515.259H939.275V494.143h66.361Zm-65.547-.814h64.733V494.957H940.089Z"/><rect class="cls-2" x="944.083" y="499.817" width="25.669" height="1.673"/><rect class="cls-2" x="972.455" y="499.817" width="18.214" height="1.673"/><rect class="cls-2" x="944.083" y="504.597" width="14.166" height="1.673"/><rect class="cls-2" x="960.646" y="504.597" width="18.214" height="1.673"/><rect class="cls-2" x="980.746" y="504.597" width="18.214" height="1.673"/><path class="cls-2" d="M926.505,433.5H860.144V412.387h66.361Zm-65.546-.814h64.732V413.2H860.959Z"/><rect class="cls-2" x="864.953" y="418.061" width="25.669" height="1.673"/><rect class="cls-2" x="893.325" y="418.061" width="18.214" height="1.673"/><rect class="cls-2" x="864.953" y="422.841" width="14.166" height="1.673"/><rect class="cls-2" x="881.515" y="422.841" width="18.214" height="1.673"/><rect class="cls-2" x="901.615" y="422.841" width="18.214" height="1.673"/><path class="cls-2" d="M1005.636,433.5H939.275V412.387h66.361Zm-65.547-.814h64.733V413.2H940.089Z"/><rect class="cls-2" x="944.083" y="418.061" width="25.669" height="1.673"/><rect class="cls-2" x="972.455" y="418.061" width="18.214" height="1.673"/><rect class="cls-2" x="944.083" y="422.841" width="14.166" height="1.673"/><rect class="cls-2" x="960.646" y="422.841" width="18.214" height="1.673"/><rect class="cls-2" x="980.746" y="422.841" width="18.214" height="1.673"/><path class="cls-20" d="M820.482,399.2a7.508,7.508,0,1,1,7.508,7.507A7.507,7.507,0,0,1,820.482,399.2Z"/><rect class="cls-20" x="826.587" y="371.799" width="3.138" height="16.418" rx="1.569" ry="1.569"/><rect class="cls-20" x="826.587" y="410.66" width="3.138" height="16.418" rx="1.569" ry="1.569"/><rect class="cls-20" x="842.283" y="402.683" width="3.138" height="16.418" rx="1.204" ry="1.204" transform="translate(14.514 850.342) rotate(-53.881)"/><path class="cls-20" d="M812.094,379.777h.73a1.2,1.2,0,0,1,1.2,1.2v14.01a1.2,1.2,0,0,1-1.2,1.2h-.731a1.2,1.2,0,0,1-1.2-1.2V380.98A1.2,1.2,0,0,1,812.094,379.777Z" transform="translate(20.231 815.766) rotate(-53.894)"/><rect class="cls-20" x="805.294" y="410.818" width="16.418" height="3.138" rx="1.204" ry="1.204" transform="translate(-67.896 646.88) rotate(-41.78)"/><rect class="cls-20" x="834.268" y="384.921" width="16.418" height="3.138" rx="1.204" ry="1.204" transform="translate(-43.203 659.826) rotate(-41.795)"/><rect class="cls-20" x="806.824" y="390.767" width="3.138" height="16.418" rx="1.204" ry="1.204" transform="translate(400.254 1202.783) rotate(-89.349)"/><rect class="cls-20" x="845.683" y="391.206" width="3.138" height="16.418" rx="1.569" ry="1.569" transform="translate(438.286 1242.097) rotate(-89.352)"/><rect class="cls-20" x="860.854" y="392.588" width="116.133" height="10.713"/><path class="cls-7" d="M812.785,483.3c0-9.8,15.036-28.288,15.036-28.288S842.856,473.5,842.856,483.3s-6.731,17.752-15.035,17.752S812.785,493.107,812.785,483.3Z"/><path class="cls-19" d="M832.056,579.982V540.734h-8.471v39.248a8.938,8.938,0,1,0,8.471,0Z"/><rect class="cls-19" x="860.854" y="563.406" width="97.374" height="10.713"/><rect class="cls-7" x="625.019" y="555.607" width="13.98" height="19.436"/><rect class="cls-7" x="648.966" y="542.724" width="13.98" height="32.32"/><rect class="cls-7" x="672.913" y="532.167" width="13.98" height="42.876"/><rect class="cls-7" x="696.859" y="540.734" width="13.98" height="34.31"/><rect class="cls-7" x="720.806" y="522.475" width="13.98" height="52.568"/><rect class="cls-7" x="744.753" y="513.096" width="13.98" height="61.947"/><path class="cls-21" d="M1296.939,447.824s55.94,63.576,75.459,102.819c0,0-23.469,51.094-99.543,92.6,0,0-3.379-.739-8.542-4.427-8.049-5.749.871-9.959,2.633-11.1,19.3-12.5,53.024-66.353,54-71.026s-42.268-46.581-55.41-62.076S1276.509,439.841,1296.939,447.824Z"/><path class="cls-21" d="M1150.767,446.024s-73.216,69.7-90.147,67.856-83.152-17.84-83.152-17.84l-5.522,12.687s66.453,39.013,98.365,38.454,73.683-30.963,73.683-30.963Z"/><path class="cls-22" d="M1203.909,354.327s.365,7.838-4.336,9.371,4.843,18.449,4.094,29.872-5.8,16.009-5.8,16.009,2.427-6.283,1.07-10.169c0,0,.217,8.083-5.685,12.159s-4.315,7.6-4.315,7.6-13.339-3.994-13.713-14c0,0-.572,4.522-.111,6.4,0,0-11.518-8.649-12.067-18.613s9.067-18.373,13.446-18.525,14.152-8.751,13.889-12S1203.909,354.327,1203.909,354.327Z"/><ellipse class="cls-2" cx="1221.82" cy="334.399" rx="25.551" ry="65.584" transform="translate(270.532 1170.891) rotate(-56.632)"/><path class="cls-2" d="M1234.643,718.322c-8.39,44.464-19.193,104.953-27.53,152.273-.987,5.588-1.94,10.986-2.85,16.154-.207,1.194-.414,2.383-.621,3.547h-83.33q-.177-1.782-.337-3.547a619.858,619.858,0,0,1-.892-105.514c.892-11.471,2.075-22.043,3.382-31.634,5.481-56.639,7.326-80.64,7.881-88.575l.119-1.749c.006-.107.011-.207.018-.3l.017-.266c.012-.16.024-.3.03-.426l.018-.349c.005-.118.011-.171.011-.171l28.406,8.449,13.895,4.133,3.276,10.407,6.551,20.807,47.557,15.344Z"/><path class="cls-13" d="M1289.3,729.521c-1.436,23.1-3.8,104.562-6.445,157.228q-.088,1.8-.177,3.547H1196.28q-.4-1.764-.8-3.547c-9.171-41.242-16.68-87.551-22.06-125.139-.947.041-10.809-67.129-35.525-96.74-.224-.266-.254-.479-.118-.639,1.224-1.572,16.911,1.147,16.911,1.147a34.8,34.8,0,0,0,4.275.84c11.861,1.626,29.085-.993,46.173-4.979h.006c4.618-1.076,9.218-2.252,13.706-3.47,12.653-3.436,24.366-7.208,32.721-10.046,2.076-.7,3.938-1.354,5.558-1.922,1.313-.461,2.466-.875,3.436-1.224h0c2.33-.839,3.631-1.33,3.631-1.33s.586.514,1.585,1.578c3.317,3.536,11.169,13.127,16.964,29.854C1287.421,688.143,1290.749,706.236,1289.3,729.521Z"/><path class="cls-22" d="M1184.08,299.668l54.377,82.5s6.217-12.18,13.122-7.81c10.773,6.806,33.915-16.492,29.089-49.387-.318-2.151-.695-4.194-1.115-6.136-10.85-15.631-22.9-33.035-31.544-45.271C1223.038,258.484,1184.08,299.668,1184.08,299.668Z"/><path class="cls-21" d="M1160.182,466.332c7.61,6.972,17.491,13.212,30.3,18.062,48.018,18.2,72.715-21.12,83.762-48.912a43,43,0,0,0-16.094-7.444c-2.822-.728-5.775-1.382-8.431-1.911a5.36,5.36,0,0,1-3.436-2.273c-4.579-6.911-9.213-24.424-7.547-49.043l-2.417.309L1195.8,380.5s.1,12.663-.619,24.522a122.008,122.008,0,0,1-1.478,13.78,8.16,8.16,0,0,1-7.24,6.632h0a.11.11,0,0,1-.025.034A253.969,253.969,0,0,0,1160.182,466.332Z"/><path class="cls-16" d="M1195.792,380.506s.108,12.655-.62,24.522c22.438.794,35.576-18.884,41.148-29.9Z"/><path class="cls-21" d="M1187.6,391.266s52.935,4.247,55.072-28.759,10.409-54.687-23.3-58.794-41.1,8.062-44.489,18.9S1173.882,389.311,1187.6,391.266Z"/><path class="cls-22" d="M1177.625,304.365c8.824-9.407,14.875-6.834,18.153-3.629,29.978-14.079,47.143,10.651,47.143,10.651,2.037,23.91,18.252,38.564,18.252,38.564s-10.038,5.352-31.94-1.791c-6.69-2.182-12.455-7.4-17.243-13.594a123.892,123.892,0,0,0,19.622,27.341c-25.814-13.987-34.14-51.659-34.955-55.638-3.42,2.7-10.2,8.6-12.536,14.665-3.177,8.238-5.466,25.466-10.472,24.556C1173.649,345.49,1164.393,318.473,1177.625,304.365Z"/><path class="cls-15" d="M1281.8,341.214s24.618-49-9.783-68.372-59.582-11.764-78.508,11.926Z"/><path class="cls-15" d="M1283.2,523.589c1.885,1.963,3.063,3.071,3.063,3.071,40.1-4.992,41.981-46.169,41.981-46.169s-31.387-41.391-60.691-50.5a153.886,153.886,0,0,0-17.829-3.866c-9.169,7.6-19.731,18.743-29.664,27.8-11.452,10.446-31.162,13.993-38.454-4.533-2.921-7.421,4.1-22.824,4.823-23.931a.155.155,0,0,0,.023-.039c-.752.049-1.484.105-2.2.153-3.593.287-6.829.726-9.769,1.021-14.3,1.435-34.053,10.913-73.965,61.43,0,0,21.566,26.636,43.476,28.185-.88,42.2,3.65,110.927,3.65,110.927-9.57,18.821,132.613,62.416,138.751,44.464,9.2-14.043.019-40.931-7.936-61.54-1.951-5.03-2.38-10.392-4.116-14.283a46.657,46.657,0,0,1-2.648-7.693,45.565,45.565,0,0,1-.458-20.21A435.011,435.011,0,0,1,1283.2,523.589Z"/><path class="cls-2" d="M1284.482,334.946q-1.551-1.6-3.2-3.211l-.006-.006a236.154,236.154,0,0,0-39.681-30.67,246.142,246.142,0,0,0-36.635-18.944h-.007q-3.466-1.428-6.84-2.655c-26.786-9.8-48.374-10.543-54.907-.071-6.9,11.045,4.771,31.616,27.619,52.482l.006.006c-.018-.183-.042-.361-.059-.538s-.03-.361-.048-.544c-.017-.207-.035-.42-.053-.633-.012-.153-.024-.307-.036-.467-.011-.26-.029-.52-.047-.786-.018-.331-.035-.662-.047-1,0-.036-.006-.077-.006-.119-.012-.242-.018-.49-.024-.739v-.23c-.006-.16-.006-.32-.006-.485-.005-.58,0-1.171.012-1.756,0-.207.006-.42.018-.627.006-.118.012-.237.012-.355.012-.195.018-.39.035-.579.018-.361.042-.716.071-1.071s.065-.709.1-1.07c0-.018,0-.041,0-.059.013-.13.03-.26.042-.384.012-.083.018-.166.03-.243.035-.248.065-.5.1-.745.053-.408.118-.81.195-1.212.012-.065.024-.136.036-.2.083-.479.177-.952.29-1.425.047-.236.106-.473.165-.7l.018-.089c-2.442-5.144-2.886-9.591-.893-12.784,2.306-3.7,7.556-5.2,14.681-4.73h.012c.2.012.391.03.591.047h.007a57.351,57.351,0,0,1,8.573,1.378h.006c.722.166,1.449.343,2.194.538,2.7.71,5.528,1.591,8.461,2.649h.035a150.76,150.76,0,0,1,28.1,13.913c4.027,2.513,7.84,5.126,11.406,7.781h.006c.355.266.709.532,1.058.8,16.479,12.5,27.365,25.928,28.612,35.2a9.428,9.428,0,0,1-1.135,6.428,4.686,4.686,0,0,1-.29.414.46.46,0,0,1-.035.059,8.644,8.644,0,0,1-2.868,2.465c-.006.006-.006.006-.011.006a5.113,5.113,0,0,1-.486.254s0,0,0,0a15.15,15.15,0,0,1-4.2,1.278h-.011c-.154.124-.308.242-.462.36-.112.089-.23.178-.348.261s-.225.165-.343.248a1.19,1.19,0,0,0-.107.077c-.2.13-.4.266-.591.4-.308.2-.621.39-.928.573-.154.089-.308.178-.461.261s-.308.165-.462.242c-.207.106-.408.207-.615.3a2.056,2.056,0,0,1-.23.106c-.077.036-.154.065-.231.1-.006,0-.006,0-.011,0s-.036.018-.054.024c-.094.042-.189.077-.284.118-.142.054-.277.113-.42.16-.177.065-.349.13-.52.183s-.331.107-.491.148a.335.335,0,0,1-.047.018c-.136.035-.266.071-.4.1a1.066,1.066,0,0,1-.148.042c-.124.029-.248.059-.378.083-.154.029-.308.059-.467.082-.1.018-.19.03-.284.042-.113.018-.225.029-.337.041-.148.018-.29.03-.438.036a1.745,1.745,0,0,1-.177.006h-.071a.84.84,0,0,1-.112,0h-.042a1.3,1.3,0,0,1-.153.006,8.979,8.979,0,0,1-1.142-.071,8.4,8.4,0,0,1-1.094-.218c-.177-.054-.354-.107-.526-.166-.13-.047-.26-.1-.384-.154a2.912,2.912,0,0,1-.284-.124c-.077-.035-.153-.071-.23-.112a1.644,1.644,0,0,1-.2-.107c-.135-.071-.266-.147-.4-.23a6.335,6.335,0,0,0-.81-.438c-.089-.041-.177-.077-.26-.112-.035-.012-.071-.03-.107-.041a3.191,3.191,0,0,0-.39-.131,5.319,5.319,0,0,0-1.525-.224h-.071a.16.16,0,0,0-.053.006h-.072c-.064,0-.123.006-.189.011a.865.865,0,0,0-.124.006c-.112.012-.219.024-.325.042-.012,0-.024.006-.035.006a1.248,1.248,0,0,0-.148.029,1.888,1.888,0,0,0-.255.053c-.082.018-.165.042-.254.066a2.749,2.749,0,0,0-.3.088l-.195.071a3.035,3.035,0,0,0-.29.112h-.006c-.077.03-.148.06-.225.1s-.142.065-.207.1c-.083.035-.159.082-.242.124l-.231.124c-.082.047-.159.1-.236.142s-.148.1-.225.142-.153.094-.231.148a1.9,1.9,0,0,0-.224.159c-.148.1-.3.213-.438.331a2.188,2.188,0,0,0-.213.172c-.071.059-.142.118-.212.183-.143.118-.279.243-.414.367s-.273.248-.4.384c-.065.065-.129.13-.194.2s-.131.13-.19.2c-.077.071-.142.142-.207.213h.006q3.885,1.605,7.645,2.968a138.947,138.947,0,0,0,22.416,6.244c15.805,2.844,27.636.994,32.183-6.291C1310.386,370.192,1302.1,353.122,1284.482,334.946Z"/><path class="cls-2" d="M1252.735,612.79c20.478,6.561,10.917-4.666,26.736-3.524-1.95-5.031-3.392-9.589-5.128-13.48a46.561,46.561,0,0,1-2.647-7.693,45.55,45.55,0,0,1-.459-20.21,393.4,393.4,0,0,1,11.964-44.294c-4.526-11.89-23.839,7.6-23.839,7.6s-17.884,18.787-13.2,50.734C1250.521,611.691,1235.065,607.128,1252.735,612.79Z"/><path class="cls-13" d="M1267.554,430s-33.067,21.131-41.522,65.682l-10-3.176s4.213-32.1,42.461-64.763c0,0,2.882.571,3.847.812C1263.642,428.873,1267.554,430,1267.554,430Z"/><path class="cls-13" d="M1150.767,496.806l10.47.687a106.222,106.222,0,0,1,23.018-71.907c-3.592.288-6.847.636-9.768,1.021C1153.235,459.056,1150.767,496.806,1150.767,496.806Z"/><path class="cls-13" d="M1225.029,520.388c.647-2.751,7.053-29.494,7.053-29.494s1.476-8.361-13.215-9.188-66.819-3.574-66.819-3.574a16.24,16.24,0,0,0-7.207,13.084c-.106,8.8-7.2,59.125-7.2,59.125l-7.3,110.686L1289.3,729.518s10.9-55.943-1.306-94.935c-7.117-22.741-16.293-46.486-16.293-46.486S1215.137,562.418,1225.029,520.388Z"/><path class="cls-2" d="M1226.444,491.791a4.391,4.391,0,1,0-5.514,2.856A4.391,4.391,0,0,0,1226.444,491.791Z"/><path class="cls-15" d="M1225.691,491.552a4.39,4.39,0,1,0-5.513,2.856A4.39,4.39,0,0,0,1225.691,491.552Z"/><path class="cls-13" d="M1224.228,490.219a.638.638,0,1,0-.637.639A.637.637,0,0,0,1224.228,490.219Z"/><path class="cls-13" d="M1220.061,490.225a.638.638,0,1,0-.637.639A.638.638,0,0,0,1220.061,490.225Z"/><path class="cls-2" d="M1161.812,486.212a4.391,4.391,0,1,0-5.514,2.856A4.391,4.391,0,0,0,1161.812,486.212Z"/><path class="cls-15" d="M1161.06,485.973a4.391,4.391,0,1,0-5.514,2.856A4.391,4.391,0,0,0,1161.06,485.973Z"/><path class="cls-13" d="M1159.6,484.64a.639.639,0,1,0-.637.639A.639.639,0,0,0,1159.6,484.64Z"/><path class="cls-13" d="M1155.43,484.647a.638.638,0,1,0-.637.639A.637.637,0,0,0,1155.43,484.647Z"/><path class="cls-22" d="M1274.487,360.615s.364,7.837-4.337,9.371,4.843,18.449,4.095,29.872-5.8,16.009-5.8,16.009,2.428-6.283,1.07-10.17c0,0,.217,8.083-5.684,12.16s-4.316,7.6-4.316,7.6-13.338-3.994-13.713-14c0,0-.572,4.522-.111,6.4,0,0-11.517-8.649-12.067-18.613s9.067-18.373,13.446-18.525,14.153-8.751,13.889-12S1274.487,360.615,1274.487,360.615Z"/><path class="cls-23" d="M1203.916,372.821s-7.888,4.782-13.5,4.225c-5.559-.551-8.588-7.256-8.588-7.256A46.614,46.614,0,0,1,1203.916,372.821Z"/><path class="cls-14" d="M1253.939,657.769H1147.7c-4.447,0-9.516-3.605-11.323-8.052l-26.744-65.838c-1.806-4.447.335-8.053,4.782-8.053h106.236c4.448,0,9.518,3.606,11.324,8.053l26.743,65.838C1260.527,654.164,1258.386,657.769,1253.939,657.769Z"/><path class="cls-24" d="M1247.6,657.769H1141.363c-4.448,0-9.518-3.605-11.324-8.052L1103.3,583.879c-1.807-4.447.334-8.053,4.781-8.053h106.237c4.447,0,9.517,3.606,11.323,8.053l26.744,65.838C1254.187,654.164,1252.046,657.769,1247.6,657.769Z"/><path class="cls-13" d="M1113.906,580.876h0a6.164,6.164,0,0,1,5.171,3.677h0c.821,2.023-.161,3.677-2.184,3.677h0a6.159,6.159,0,0,1-5.17-3.677h0C1110.9,582.531,1111.883,580.876,1113.906,580.876Z"/><path class="cls-13" d="M1125.582,582.408h0a3.6,3.6,0,0,1,3.018,2.145h0c.479,1.18-.094,2.146-1.274,2.146h0a3.6,3.6,0,0,1-3.018-2.146h0C1123.829,583.373,1124.4,582.408,1125.582,582.408Z"/><path class="cls-21" d="M1266.591,628.513s-14.608-8.329-18.129-12.178c-2.273-2.485-2.409.711-2.264,1.608a12.308,12.308,0,0,0,4.719,8.767C1256.9,631.6,1266.591,628.513,1266.591,628.513Z"/><path class="cls-21" d="M1266.591,628.513s-26.349-7.914-32.418-7.228-19.928,5.007-21.044,6.133,3.654,2.315,7.284,1.254c4.652-1.359,11.978.169,11.978.169s-14.771,3.2-18.471,4.832a.542.542,0,0,0-.119.917c.886.7,3.159,1.14,6.427.686a112.687,112.687,0,0,1,12.925-.535l-16.792,3.649a.451.451,0,0,0-.359.446c.027.8,1.369,1.652,5.292,1.829,3.023.137,13.262-1.375,13.262-1.375l-9.12,4.814s2.21,1.583,6.868.045c3.195-1.055,12.724-3.441,14.925-2.977s13.179,4.342,18.364,3.678a29.7,29.7,0,0,0,7.262-1.605Z"/><path class="cls-21" d="M1339.826,593.668c-15.409,15.562-37.144,33.306-66.969,49.579,0,0-3.382-.739-8.544-4.429-8.047-5.747.87-9.957,2.632-11.1,8.745-5.664,20.458-19.825,30.74-34.051Z"/><path class="cls-6" d="M493.69,888.925H364.972l-.054-.142c-.159-.42-.372-.988-.644-1.709l-.107-.213v-.106a.4.4,0,0,1-.106-.219,29.954,29.954,0,0,1-1.189-3.021c-.219-.544-.431-1.195-.757-1.839v-.219l-.106-.107c-1.484-3.855-3.323-8.875-5.446-14.941q-.285-.825-.586-1.668c-1.59-4.582-3.341-9.714-5.2-15.367q-1.286-3.982-2.643-8.308c12.72-3.542,29.349-5.983,44.156-1.176a55.938,55.938,0,0,1,21.076,12.281c10.188,9.271,14.4,18.436,26.261,14.87a42.76,42.76,0,0,1,10.278-1.579C469,864.605,495.4,872.664,493.69,888.925Z"/><path class="cls-7" d="M1649,888.268v.515a1.516,1.516,0,0,1-1.513,1.513H312.513A1.516,1.516,0,0,1,311,888.783v-.515a1.522,1.522,0,0,1,1.514-1.519H1647.488A1.521,1.521,0,0,1,1649,888.268Z"/><path class="cls-2" d="M1009.759,404.011H860.144V391.878h149.615Zm-148.2-1.42h146.775V393.3H861.564Z"/><rect class="cls-7" x="860.854" y="472.678" width="70.97" height="10.713"/><path class="cls-2" d="M1009.759,484.1H860.144V471.968h149.615Zm-148.2-1.419h146.775v-9.294H861.564Z"/><path class="cls-21" d="M977.468,496.04s-13.22-14.124-18.079-15.808-22.2-4.61-22.2-4.61.07,4.149,7.83,7.012,9.387,16.323,13.977,20.132,16.724,7.1,16.724,7.1Z"/><path class="cls-21" d="M971.946,508.727s-12.88-.563-17.064-3.192-11-6.067-9.686-8.159,15.517-.514,15.517-.514Z"/><path class="cls-21" d="M958.345,482.7c-.675-.3-17.851-11.787-17.851-11.787s-1.447,5.443,1.083,6.477S958.345,482.7,958.345,482.7Z"/><path class="cls-2" d="M1009.759,574.829H860.144V562.7h149.615Zm-148.2-1.42h146.775v-9.293H861.564Z"/></g><g id="logo_left" data-name="logo left"><polygon class="cls-7" points="310.992 96.015 310.992 119.259 307.674 119.259 307.674 108.895 294.331 108.895 294.331 119.259 291.012 119.259 291.012 96.015 294.331 96.015 294.331 106.012 307.674 106.012 307.674 96.015 310.992 96.015"/><path class="cls-7" d="M331.6,110.792l-5.013-11.387-5.012,11.387Zm1.161,2.656H320.414l-2.558,5.811h-3.414l10.522-23.244h3.283L338.8,119.259h-3.484l-2.559-5.811Z"/><path class="cls-7" d="M357.693,104.115c0-3.32-2.227-5.216-6.471-5.216h-5.641v10.459h5.641C355.466,109.358,357.693,107.436,357.693,104.115Zm.1,15.144-5.012-7.139c-.463.035-.961.07-1.459.07h-5.737v7.069h-3.318V96.015h9.055c6.043,0,9.693,3.058,9.693,8.1a7.344,7.344,0,0,1-5.108,7.341l5.51,7.8h-3.624Z"/><polygon class="cls-7" points="387.925 119.259 387.89 102.324 379.498 116.437 377.97 116.437 369.578 102.42 369.578 119.259 366.39 119.259 366.39 96.015 369.115 96.015 378.808 112.356 388.361 96.015 391.086 96.015 391.121 119.259 387.933 119.259 387.925 119.259"/><path class="cls-7" d="M417.562,107.637a9.025,9.025,0,1,0-8.994,8.931A8.724,8.724,0,0,0,417.562,107.637Zm-21.368,0c0-6.807,5.24-11.884,12.374-11.884s12.313,5.051,12.313,11.884-5.24,11.884-12.313,11.884S396.194,114.444,396.194,107.637Z"/><polygon class="cls-7" points="445.943 96.015 445.943 119.259 443.218 119.259 429.281 101.922 429.281 119.259 425.963 119.259 425.963 96.015 428.688 96.015 442.625 113.352 442.625 96.015 445.943 96.015"/><polygon class="cls-7" points="461.809 111.22 461.809 119.259 458.526 119.259 458.526 111.159 449.305 96.015 452.859 96.015 460.29 108.266 467.756 96.015 471.04 96.015 461.809 111.22"/><path class="cls-7" d="M248.259,104.787a11.135,11.135,0,0,1,9.308,5.532,15.647,15.647,0,0,1,1.939,4.631c.437,1.853.244,3.793.672,5.645a7.72,7.72,0,0,0,15.3-1.494c0-4.282-3.371-7.279-7.423-7.742a12.8,12.8,0,0,1-7.309-2.788c-3.537-2.849-4.759-6.615-4.759-11.692,0-4.334-3.3-8.4-7.816-8.345s-7.641,4.011-7.641,8.336c0,5.077-1.222,8.844-4.759,11.692a12.739,12.739,0,0,1-7.309,2.788c-4.052.463-7.422,3.521-7.422,7.742a7.719,7.719,0,0,0,15.3,1.494c.428-1.852.236-3.792.672-5.645,1.24-5.243,5.545-10.145,11.248-10.171Z"/></g></svg>