<svg xmlns="http://www.w3.org/2000/svg" xmlns:xlink="http://www.w3.org/1999/xlink" viewBox="0 0 1920 1080"><defs><style>.cls-1,.cls-10,.cls-12{fill:none;}.cls-2{fill:#0f1854;}.cls-3{opacity:0.2;}.cls-4,.cls-9{fill:#fff;}.cls-5{fill:#fb4d3d;}.cls-6{fill:#aeb8fe;}.cls-7{clip-path:url(#clip-path);}.cls-8{fill:#1a2e35;}.cls-10,.cls-11,.cls-12,.cls-14,.cls-8,.cls-9{stroke:#1a2e35;stroke-linecap:round;stroke-linejoin:round;}.cls-10,.cls-11,.cls-14,.cls-8,.cls-9{stroke-width:2.48px;}.cls-11,.cls-15{fill:#2b45ed;}.cls-12{stroke-width:7.441px;}.cls-13{fill:#0de5b2;}.cls-14{fill:#949494;}.cls-16{clip-path:url(#clip-path-2);}</style><clipPath id="clip-path"><path class="cls-1" d="M1439.43,607.923V365.147H956.464V616.29h26.982a232.5,232.5,0,0,0-1.623,27.337c0,127.127,103.057,230.184,230.183,230.184S1442.19,770.754,1442.19,643.627A231.8,231.8,0,0,0,1439.43,607.923Z"/></clipPath><clipPath id="clip-path-2"><path class="cls-1" d="M825.163,347.437V201.108H624.742V320.22a228.957,228.957,0,0,0-45.257,20.691V294.246H396V661.755H502.566A230.006,230.006,0,0,0,697.16,768.95c127.126,0,230.183-103.057,230.183-230.184A229.952,229.952,0,0,0,825.163,347.437Z"/></clipPath></defs><title>24- Clinical trial and research data harmonization principles</title><g id="_24:_Clinical_trial_and_research_data_harmonization_principles" data-name="24: Clinical trial and research data harmonization principles"><rect class="cls-2" width="1920" height="1080"/><g class="cls-3"><path class="cls-4" d="M1332.3,767.937a6.071,6.071,0,0,1-1.966-7.606c32.088-66.289,121.366-63.415,125.15-63.261.6-.007,86.777-.658,111.584-35.922,17.116-24.332,6.981-58.878-4.753-98.881-5.169-17.618-10.513-35.838-13.723-54.278-10.892-62.569,18.631-89.339,19.893-90.448a6.071,6.071,0,0,1,8.037,9.1c-1.141,1.035-25.6,23.962-15.97,79.266,3.095,17.764,8.34,35.646,13.413,52.943,12.093,41.227,23.516,80.166,3.033,109.284-28.415,40.393-117.951,41.064-121.748,41.072-1.1-.038-85.394-2.657-113.988,56.414a6.072,6.072,0,0,1-8.108,2.82A6.3,6.3,0,0,1,1332.3,767.937Z"/><path class="cls-4" d="M1441.386,844.672a6.178,6.178,0,0,1-.762-.633,6.07,6.07,0,0,1-.086-8.584c45.931-46.875,14.982-125.322,14.665-126.107-1.367-3.817-30.992-88.313-2.577-128.706,20.483-29.118,60.991-31.525,103.88-34.075,17.993-1.071,36.6-2.177,54.361-5.268,55.411-9.646,68.671-40.514,69.207-41.822a6.071,6.071,0,0,1,11.28,4.5c-.618,1.563-15.836,38.4-78.4,49.288-18.441,3.21-37.394,4.337-55.723,5.426-41.614,2.474-77.553,4.609-94.67,28.941-24.837,35.308,3.7,116.587,3.99,117.4,1.332,3.264,34.207,86.319-17.337,138.922A6.07,6.07,0,0,1,1441.386,844.672Z"/><path class="cls-4" d="M1669.543,520.773,1561.28,444.614a3.035,3.035,0,1,1,3.492-4.966l108.264,76.159a3.036,3.036,0,1,1-3.493,4.966Z"/><path class="cls-4" d="M1661.466,532.255,1553.2,456.1a3.035,3.035,0,1,1,3.493-4.965l108.264,76.158a3.036,3.036,0,0,1-3.493,4.966Z"/><path class="cls-4" d="M1647.238,539.41l-95.962-67.5a3.036,3.036,0,0,1,3.493-4.966l95.962,67.506a3.035,3.035,0,0,1-3.493,4.965Z"/><path class="cls-4" d="M1629.932,544.4l-77.508-54.523a3.036,3.036,0,0,1,3.493-4.966l77.508,54.523a3.036,3.036,0,0,1-3.493,4.966Z"/><path class="cls-4" d="M1455.422,825.158,1347.158,749a3.036,3.036,0,0,1,3.493-4.966l108.263,76.159a3.035,3.035,0,0,1-3.492,4.966Z"/><path class="cls-4" d="M1463.5,813.675l-108.264-76.159a3.035,3.035,0,1,1,3.493-4.965l108.264,76.159a3.035,3.035,0,1,1-3.493,4.965Z"/><path class="cls-4" d="M1465.425,797.866l-95.962-67.5a3.035,3.035,0,0,1,3.493-4.965l95.962,67.505a3.035,3.035,0,1,1-3.493,4.965Z"/><path class="cls-4" d="M1464.275,779.893l-77.507-54.523a3.035,3.035,0,1,1,3.492-4.965l77.508,54.523a3.035,3.035,0,1,1-3.493,4.965Z"/><path class="cls-4" d="M1579.969,648.107l-108.264-76.159a3.035,3.035,0,1,1,3.493-4.965l108.264,76.159a3.035,3.035,0,0,1-3.493,4.965Z"/><path class="cls-4" d="M1572.18,659.18l-108.264-76.159a3.036,3.036,0,0,1,3.493-4.966l108.264,76.159a3.036,3.036,0,0,1-3.493,4.966Z"/><path class="cls-4" d="M1566.236,671.55,1454.28,592.794a3.036,3.036,0,0,1,3.493-4.966l111.956,78.757a3.035,3.035,0,0,1-3.493,4.965Z"/><path class="cls-4" d="M1555.986,680.891,1448.952,605.6a3.035,3.035,0,1,1,3.492-4.965l107.035,75.294a3.035,3.035,0,0,1-3.493,4.965Z"/><path class="cls-4" d="M1543.656,688.769l-97.952-68.9a3.035,3.035,0,1,1,3.492-4.965l97.953,68.9a3.035,3.035,0,0,1-3.493,4.965Z"/></g><g class="cls-3"><path class="cls-4" d="M706.63,702.47a8.778,8.778,0,0,1-2.844-11c46.4-95.861,175.508-91.705,180.981-91.482.872-.01,125.488-.952,161.361-51.946,24.752-35.187,10.1-85.144-6.873-142.992-7.475-25.478-15.2-51.825-19.845-78.492-15.751-90.481,26.942-129.193,28.767-130.8a8.779,8.779,0,0,1,11.623,13.16c-1.65,1.5-37.016,34.651-23.094,114.626,4.475,25.69,12.06,51.549,19.4,76.562,17.489,59.618,34.008,115.928,4.387,158.035-41.091,58.413-170.57,59.383-176.06,59.394-1.6-.054-123.489-3.842-164.838,81.58a8.779,8.779,0,0,1-11.726,4.078A8.991,8.991,0,0,1,706.63,702.47Z"/><path class="cls-4" d="M864.376,813.438a8.987,8.987,0,0,1-1.1-.916,8.777,8.777,0,0,1-.125-12.414c66.421-67.786,21.666-181.227,21.206-182.363-1.976-5.52-44.817-127.709-3.726-186.123,29.621-42.107,88.2-45.588,150.221-49.275,26.021-1.548,52.921-3.148,78.612-7.618,80.13-13.949,99.305-58.588,100.08-60.48a8.78,8.78,0,0,1,16.312,6.5c-.893,2.259-22.9,55.523-113.382,71.274-26.666,4.642-54.075,6.273-80.58,7.847-60.179,3.578-112.15,6.666-136.9,41.852-35.917,51.058,5.348,168.6,5.77,169.778,1.926,4.72,49.466,124.827-25.072,200.9A8.779,8.779,0,0,1,864.376,813.438Z"/><path class="cls-4" d="M1194.315,345.045l-156.56-110.133a4.389,4.389,0,1,1,5.051-7.18l156.56,110.133a4.389,4.389,0,1,1-5.051,7.18Z"/><path class="cls-4" d="M1182.635,361.65,1026.074,251.516a4.389,4.389,0,1,1,5.051-7.18L1187.686,354.47a4.389,4.389,0,0,1-5.051,7.18Z"/><path class="cls-4" d="M1162.059,372l-138.771-97.619a4.39,4.39,0,1,1,5.051-7.181l138.772,97.62a4.39,4.39,0,0,1-5.052,7.18Z"/><path class="cls-4" d="M1137.033,379.219l-112.084-78.847a4.389,4.389,0,1,1,5.051-7.18l112.084,78.846a4.39,4.39,0,0,1-5.051,7.181Z"/><path class="cls-4" d="M884.673,785.217,728.112,675.084a4.39,4.39,0,0,1,5.051-7.181L889.724,778.037a4.389,4.389,0,1,1-5.051,7.18Z"/><path class="cls-4" d="M896.354,768.613,739.793,658.479a4.389,4.389,0,1,1,5.051-7.18L901.405,761.433a4.389,4.389,0,0,1-5.051,7.18Z"/><path class="cls-4" d="M899.139,745.752l-138.771-97.62a4.389,4.389,0,1,1,5.051-7.18L904.19,738.571a4.39,4.39,0,1,1-5.051,7.181Z"/><path class="cls-4" d="M897.476,719.76,785.392,640.914a4.389,4.389,0,0,1,5.051-7.18L902.527,712.58a4.389,4.389,0,1,1-5.051,7.18Z"/><path class="cls-4" d="M1064.781,529.184,908.221,419.051a4.39,4.39,0,1,1,5.051-7.181L1069.832,522a4.389,4.389,0,1,1-5.051,7.18Z"/><path class="cls-4" d="M1053.518,545.2,896.957,435.063a4.39,4.39,0,0,1,5.051-7.181l156.561,110.134a4.389,4.389,0,0,1-5.051,7.18Z"/><path class="cls-4" d="M1044.922,563.085,883.022,449.2a4.389,4.389,0,1,1,5.051-7.18l161.9,113.89a4.389,4.389,0,1,1-5.051,7.18Z"/><path class="cls-4" d="M1030.1,576.593,875.317,467.71a4.389,4.389,0,1,1,5.051-7.18l154.783,108.883a4.389,4.389,0,0,1-5.051,7.18Z"/><path class="cls-4" d="M1012.269,587.986,870.62,488.342a4.389,4.389,0,1,1,5.051-7.18l141.649,99.644a4.389,4.389,0,1,1-5.051,7.18Z"/></g><circle class="cls-5" cx="1212.006" cy="643.627" r="233.295" transform="translate(-100.125 1045.532) rotate(-45)"/><path class="cls-6" d="M1340.591,731.913v92.542H1134.05V774.831h-26.824v61.695h-14.753V819.09h-34.2a232.391,232.391,0,0,0,153.736,57.832c97.6,0,181.184-59.94,215.992-145.009Z"/><path class="cls-6" d="M1076.379,689H983.135A232.691,232.691,0,0,0,1042.9,804.337h33.48Z"/><g class="cls-7"><path class="cls-8" d="M1177.876,488.075s-24.646-21.781-22.566-36.326c1.754-12.266,37.113-54.983,74.226-55.67s73.539,11.684,78.35,48.8,5.5,52.92,13.746,70.1,50.859,101.717,62.543,125.772,4.811,45.36-39.176,60.48-140.892,24.743-142.954-51.546,12.371-120.961,5.5-139.517S1177.876,488.075,1177.876,488.075Z"/><path class="cls-9" d="M1247.4,589.2s-56.078-.738-59.768,1.475-101,58.933-101,58.933l-29.6-86.234L1006.118,595.1s41.337,146.923,45.027,147.661,111.4-24.436,111.4-24.436l-14.757,173.4H1370.63s7.379-248.665,8.117-261.947-20.661-37.632-33.205-38.37S1247.4,589.2,1247.4,589.2Z"/><polyline class="cls-10" points="1095.113 682.802 1086.633 649.609 1108.655 684.736"/><rect class="cls-11" x="1268.418" y="712.025" width="47.305" height="73.968"/><rect class="cls-8" x="1285.62" y="692.243" width="12.901" height="30.103"/><path class="cls-9" d="M1241.907,585.768s-4.123,6.873-10.309,15.12-26.116,22.681-26.116,22.681l17.869,8.934-21.306,17.182s3.437,28.866,11,52.234,13.058,53.608,13.058,53.608L1313.385,654.5l-16.495-15.807,24.055-5.5s-2.749-31.615-8.248-44.673-14.433-13.746-28.178-13.746S1246.718,578.9,1241.907,585.768Z"/><path class="cls-9" d="M1237.784,577.521a89.851,89.851,0,0,1,2.749,30.928c-1.375,17.869-15.808,105.154-6.186,107.9s60.481-120.962,60.481-128.522-9.622-59.106-9.622-59.106S1270.086,575.459,1237.784,577.521Z"/><path class="cls-8" d="M1285.206,528.724s-15.12,46.735-47.422,48.8a80.849,80.849,0,0,1,2.8,17.074,24.418,24.418,0,0,0,4.1.354c21.305,0,43.477-35.027,43.477-44.649,0-1.65.021-3.36.055-5.062C1286.541,535.875,1285.206,528.724,1285.206,528.724Z"/><path class="cls-11" d="M1234.348,716.352c4.856,1.387,20.216-29.44,34.24-61.288a59.566,59.566,0,0,1-33.758-.362C1231.375,683.594,1228.662,714.727,1234.348,716.352Z"/><path class="cls-9" d="M1185.55,452.436s-8.82,18.337-8.82,29.334,9.508,49.016,19.817,63.449,25.938,42.587,47.244,42.587,43.477-35.027,43.477-44.649.687-21.306.687-21.306,9.622-11.683,6.873-21.306-5.5-10.309-5.5-10.309-40.55,2.749-62.543-9.622A325.54,325.54,0,0,1,1185.55,452.436Z"/><path class="cls-10" d="M1205.111,540.2a11.376,11.376,0,0,0,9.133,4"/><path class="cls-9" d="M1267.5,488.9s-66.373,5.82-101.038,24.084c0,0,9.393,28.342,14.579,29.388s19.447-2.228,21.4-5.5.046-14.671,4.094-16.013,7.8,12.693,14.421,13.057,32.322-7.186,37.1-9.461,13.329-16.308,13.329-16.308Z"/><path class="cls-12" d="M1166.465,512.988s43.164-21.955,101.038-24.084"/><path class="cls-9" d="M1348.494,593.628s22.136-.738,36.894,6.641,28.777,26.563,25.087,40.583-66.409,212.509-66.409,212.509L1212.2,766.217l24.607-56.9,71.255,46.137,33.051-107.959"/><line class="cls-10" x1="1308.064" y1="755.452" x2="1317.578" y2="779.525"/><path class="cls-13" d="M1143.143,616.386h21.266a0,0,0,0,1,0,0v89.737a3.457,3.457,0,0,1-3.457,3.457H1146.6a3.457,3.457,0,0,1-3.457-3.457V616.386A0,0,0,0,1,1143.143,616.386Z" transform="translate(-24.41 44.418) rotate(-2.182)"/><rect class="cls-9" x="1138.817" y="612.669" width="26.269" height="5.004" transform="translate(-22.612 44.357) rotate(-2.185)"/><path class="cls-14" d="M1224.737,700.477s-11.6-11.194-16.392-21.589-8.4-24.388-13.593-26.387-30.385-15.592-30.385-15.592V650.1l-13.993-12.393s-10.794-21.589-11.994-21.19-3.6-2.4-6,3.2,1.2,15.192,1.2,15.192-8,5.2-5.6,12.394.8,15.592,3.2,26.786,4.4,19.99,11.594,25.987,25.987,17.192,32.784,20.39,17.99,10.395,17.99,10.395l33.184,35.982,28.785-36.782Z"/><line class="cls-9" x1="1164.367" y1="650.102" x2="1179.16" y2="659.698"/><path class="cls-10" d="M1133.583,634.91s5.2,17.191,8.395,21.189,23.189,17.192,23.189,17.192"/><path class="cls-10" d="M1128.785,653.7s7.6,22.388,11.994,25.587,21.189,11.194,21.189,11.194"/><path class="cls-10" d="M1133.183,684.085s6.4,10.395,21.589,17.991"/><polygon class="cls-9" points="1047.649 496.062 1142.998 612.941 1149.149 612.428 1063.54 484.271 1047.649 496.062"/><polygon class="cls-8" points="1044.573 499.65 1065.672 483.212 1023.389 430.008 1003.909 444.362 1044.573 499.65"/><path class="cls-14" d="M1022.759,584.733l29.863-18.61c-1.3-18.526-3.809-53.5-4.662-59.47-1.17-8.191-16.381-23.4-16.381-23.4s19.112-18.331,22.622-18.331,11.311-3.121,9.751-6.241-12.481-3.51-12.481-3.51l-3.9-3.511-18.722-18.331s-5.85-7.411-8.97-7.411-39.785,30.033-40.564,33.933,35.493,45.635,39,52.265C1020.948,517.082,1022.264,562.355,1022.759,584.733Z"/><path class="cls-10" d="M1051.471,455.168s-8.191.39-11.311,1.95-21.063,15.6-21.063,15.6"/><path class="cls-10" d="M1038.209,443.077s-8.19,3.51-9.751,5.85-19.5,14.432-19.5,14.432"/><path class="cls-10" d="M1029.238,434.886s-27.692,14.041-31.593,18.722"/><path class="cls-9" d="M1052.622,566.123c-.486-6.927-1.14-16.15-1.815-25.3-15.062,5.473-24.013,6.107-29.282,5.073.614,13.729,1.008,28.647,1.233,38.836Z"/></g><circle class="cls-15" cx="697.159" cy="538.766" r="233.156" transform="translate(-176.772 650.767) rotate(-45)"/><path class="cls-6" d="M921.359,602.971h-40.34V395.383q-6.539-8.373-13.812-16.113v33.4h-55.25V529.3H624.725V389.648H613.981V497.077H571.01v-78.27H551.059V659.755H497.814A233.023,233.023,0,0,0,697.16,771.922C803.658,771.922,893.476,700.517,921.359,602.971ZM839.582,424.946h27.625V529.3H839.582Z"/><g class="cls-16"><path class="cls-9" d="M482.784,300.551h23.786a0,0,0,0,1,0,0V401.335a3.457,3.457,0,0,1-3.457,3.457H486.241a3.457,3.457,0,0,1-3.457-3.457V300.551a0,0,0,0,1,0,0Z" transform="translate(-13.071 19.093) rotate(-2.182)"/><path class="cls-13" d="M496.353,401.561h0a8.574,8.574,0,0,1-8.895-8.241l-3.025-79.291,17.137-.654,3.025,79.291A8.574,8.574,0,0,1,496.353,401.561Z"/><rect class="cls-9" x="477.946" y="296.392" width="29.383" height="5.597" transform="translate(-11.045 18.994) rotate(-2.184)"/><path class="cls-14" d="M420.09,443.271s-6.3-53.17-6.3-63.664,31.481-51.071,37.078-55.268,44.775-1.4,44.775-1.4,20.288,21.688,20.288,25.186-4.9,4.9-4.9,4.9,2.1,1.4-1.4,5.6-9.8,4.2-9.8,4.2-1.4,8.395-7,8.395h-5.6l-12.593,7S465.564,388.7,463.465,394.3s-4.9,7.7-4.9,11.193,2.1,22.388,2.1,22.388Z"/><path class="cls-10" d="M511.038,353.022s-18.19-24.486-24.486-24.486-25.186.7-25.186.7"/><path class="cls-10" d="M499.844,362.817s-16.09-18.19-22.387-19.589-24.486-1.4-24.486-1.4"/><path class="cls-9" d="M487.252,371.212s-21.688-18.889-26.585-18.889-23.087,3.5-23.087,3.5"/><path class="cls-14" d="M435.481,373.311l18.19-6.3s20.988,9.095,26.585,9.095,9.794-.7,2.1-8.395-12.592-14.692-21.687-15.391-19.589,3.5-19.589,3.5"/><path class="cls-10" d="M433.382,406.192s12.593,4.9,20.289-8.395,7.695-20.988,7.695-20.988"/><path class="cls-9" d="M679.642,424.382s-92.347,14.691-95.846,16.091-76.256,93.746-76.256,93.746L475.358,415.986,411,440.473s34.98,114.734,41.277,142.718,22.387,55.269,26.584,57.368,90.249-57.368,90.249-57.368l.7,200.786H845.448s-12.593-307.125-16.791-315.52-93.747-46.874-93.747-46.874Z"/><path class="cls-10" d="M507.54,534.219s11.828,35.309,6.025,56.588"/><path class="cls-10" d="M512.6,550.183s6.77,9.673,8.705,29.017"/><line class="cls-10" x1="642.207" y1="621.759" x2="647.043" y2="777.484"/><line class="cls-10" x1="568.697" y1="562.758" x2="559.992" y2="510.527"/><line class="cls-9" x1="569.105" y1="583.191" x2="567.771" y2="506.272"/><path class="cls-9" d="M675.681,421.114s-16.314,11.294-25.1,24.471-18.824,26.98-18.824,26.98l11.922,11.294-23.216,12.549s10.039,60.862,15.059,81.568,7.529,35.137,7.529,35.137L750.347,504.565l-15.059-18.824,24.471-8.157s-7.53-36.391-9.412-48.94-13.176-14.432-17.569-14.432S683.21,411.7,675.681,421.114Z"/><path class="cls-8" d="M662.5,283.7s-4.392-7.529-4.392-20.078,25.725-27.608,48.941-27.608,55.216,5.02,72.784,24.47,11.921,54.588,6.274,66.51-11.294,31.372-11.921,33.255-12.549,10.039-19.451.627-.627-28.862-8.157-43.921-27.608-26.981-44.549-31.373S662.5,283.7,662.5,283.7Z"/><path class="cls-9" d="M673.8,411.7s-4.392,33.254-8.784,48.313-13.8,77.176-15.059,96.627-2.509,31.372-2.509,31.372,53.96-82.823,66.509-109.8,27.608-54.588,27.608-54.588l8.157-45.8S706.425,413.585,673.8,411.7Z"/><path class="cls-8" d="M673.8,411.7s-.921,6.968-2.339,15.962c10.749,5.572,31.881,9.2,50.556-1.385,9.486-5.376,17.213-13.138,22.551-19.519l5.154-28.94S706.426,413.585,673.8,411.7Z"/><path class="cls-11" d="M714.358,477.355c-32.351,9.25-46.442,1.032-52.129-5.137-4.733,23.857-11.245,68.476-12.274,84.425-1.255,19.451-2.51,31.372-2.51,31.372s53.961-82.823,66.51-109.8C714.088,477.926,714.224,477.641,714.358,477.355Z"/><path class="cls-9" d="M658.112,279.311S649.328,327,648.7,347.075s10.039,65.882,20.706,71.53,32,9.411,50.823-1.256,30.745-30.744,30.745-30.744a76.412,76.412,0,0,0,16.692-6.176c7.213-3.77,10.586-10.818,13.176-18.155,1.322-3.744,6.8-18.336-1-18.336-8.157,0-10.667,4.392-11.922,6.275s-4.392,6.274-6.9,5.647.628-15.059,0-26.981-8.784-15.686-9.411-23.215S762.9,289.977,762.9,282.448s-15.686-11.921-28.235-8.784-31.373,6.274-42.667-1.255-20.078-12.549-25.725-6.9S658.112,279.311,658.112,279.311Z"/><line class="cls-9" x1="666.269" y1="358.997" x2="674.941" y2="366.706"/><path class="cls-9" d="M761.013,333.272s-74.038-27.608-120.469-25.726c0,0-4.393,35.137.627,38.9s21.961,7.529,25.725,5.02,7.53-15.687,12.549-15.059,1.883,17.568,8.785,21.333,38.274,8.784,44.548,8.784,22.589-10.666,22.589-10.666Z"/><path class="cls-12" d="M640.544,307.546s62.729,3.4,120.469,25.726l15.059,9.411"/><path class="cls-9" d="M800,513.153s-20.642,38.7-18.062,49.025,38.7,155.676,38.7,155.676l6.021,68.807h71.387l-7.776-109.593s-55.871-205.2-59.311-208.64-18.922,3.44-18.922,3.44"/><rect class="cls-11" x="714.416" y="593.141" width="47.305" height="73.968"/><rect class="cls-8" x="731.618" y="573.359" width="12.901" height="30.103"/></g></g><g id="logo_left" data-name="logo left"><polygon class="cls-4" points="310.992 96.015 310.992 119.259 307.674 119.259 307.674 108.895 294.331 108.895 294.331 119.259 291.012 119.259 291.012 96.015 294.331 96.015 294.331 106.012 307.674 106.012 307.674 96.015 310.992 96.015"/><path class="cls-4" d="M331.6,110.792l-5.013-11.387-5.012,11.387Zm1.161,2.656H320.414l-2.558,5.811h-3.414l10.522-23.244h3.283L338.8,119.259h-3.484l-2.559-5.811Z"/><path class="cls-4" d="M357.693,104.115c0-3.32-2.227-5.216-6.471-5.216h-5.641v10.459h5.641C355.466,109.358,357.693,107.436,357.693,104.115Zm.1,15.144-5.012-7.139c-.463.035-.961.07-1.459.07h-5.737v7.069h-3.318V96.015h9.055c6.043,0,9.693,3.058,9.693,8.1a7.344,7.344,0,0,1-5.108,7.341l5.51,7.8h-3.624Z"/><polygon class="cls-4" points="387.925 119.259 387.89 102.324 379.498 116.437 377.97 116.437 369.578 102.42 369.578 119.259 366.39 119.259 366.39 96.015 369.115 96.015 378.808 112.356 388.361 96.015 391.086 96.015 391.121 119.259 387.933 119.259 387.925 119.259"/><path class="cls-4" d="M417.562,107.637a9.025,9.025,0,1,0-8.994,8.931A8.724,8.724,0,0,0,417.562,107.637Zm-21.368,0c0-6.807,5.24-11.884,12.374-11.884s12.313,5.051,12.313,11.884-5.24,11.884-12.313,11.884S396.194,114.444,396.194,107.637Z"/><polygon class="cls-4" points="445.943 96.015 445.943 119.259 443.218 119.259 429.281 101.922 429.281 119.259 425.963 119.259 425.963 96.015 428.688 96.015 442.625 113.352 442.625 96.015 445.943 96.015"/><polygon class="cls-4" points="461.809 111.22 461.809 119.259 458.526 119.259 458.526 111.159 449.305 96.015 452.859 96.015 460.29 108.266 467.756 96.015 471.04 96.015 461.809 111.22"/><path class="cls-4" d="M248.259,104.787a11.135,11.135,0,0,1,9.308,5.532,15.647,15.647,0,0,1,1.939,4.631c.437,1.853.244,3.793.672,5.645a7.72,7.72,0,0,0,15.3-1.494c0-4.282-3.371-7.279-7.423-7.742a12.8,12.8,0,0,1-7.309-2.788c-3.537-2.849-4.759-6.615-4.759-11.692,0-4.334-3.3-8.4-7.816-8.345s-7.641,4.011-7.641,8.336c0,5.077-1.222,8.844-4.759,11.692a12.739,12.739,0,0,1-7.309,2.788c-4.052.463-7.422,3.521-7.422,7.742a7.719,7.719,0,0,0,15.3,1.494c.428-1.852.236-3.792.672-5.645,1.24-5.243,5.545-10.145,11.248-10.171Z"/></g></svg>