<svg xmlns="http://www.w3.org/2000/svg" viewBox="0 0 1920 1080"><defs><style>.cls-1{isolation:isolate;}.cls-2{fill:#0f1854;}.cls-3{fill:#aeb8fe;}.cls-4{fill:#fff;}.cls-20,.cls-5{fill:#bdd0fb;mix-blend-mode:multiply;}.cls-6{fill:#fb4d3d;}.cls-11,.cls-7{fill:#dae4ff;}.cls-22,.cls-8{fill:#7c97f2;}.cls-9{fill:#5b65f8;}.cls-10,.cls-14{fill:#1a1998;}.cls-11,.cls-14,.cls-22{opacity:0.5;}.cls-12{fill:#4c4ffe;}.cls-13{fill:#2b45ed;}.cls-15{fill:#0f046a;}.cls-16,.cls-21{opacity:0.4;}.cls-17,.cls-21{fill:#4f51fe;}.cls-18{fill:#fcd981;}.cls-19{fill:#cddef9;}.cls-20{opacity:0.3;}.cls-23{fill:#5862e5;}.cls-24{fill:#4347e8;}.cls-25{fill:#7380ff;}.cls-26{fill:#fffffd;}.cls-27{fill:#e6edfd;}.cls-28{fill:#becffb;}.cls-29{fill:#8591ff;}.cls-30{fill:#5c66f9;}.cls-31{fill:#b3baff;}</style></defs><title>25- International customs data organization for goods</title><g class="cls-1"><g id="_25:_International_customs_data_organization_for_goods" data-name="25: International customs data organization for goods"><rect class="cls-2" width="1920" height="1080"/><circle class="cls-3" cx="922.047" cy="522.033" r="313.068"/><path class="cls-4" d="M916.641,835.924a.911.911,0,0,1-.879-.938.958.958,0,0,1,.936-.879c2.4.075,4.823.1,7.227.075h.01a.909.909,0,0,1,.011,1.818c-.631.008-1.265.009-1.9.009Q919.337,836.008,916.641,835.924Zm13.641-1.023a.908.908,0,0,1,.859-.955c2.412-.133,4.833-.321,7.2-.554a.943.943,0,0,1,.995.815.91.91,0,0,1-.817.993c-2.39.237-4.838.425-7.278.557a.4.4,0,0,1-.049,0A.909.909,0,0,1,930.282,834.9Zm-20.933.633c-2.423-.188-4.867-.425-7.268-.715a.907.907,0,0,1,.216-1.8c2.374.284,4.794.521,7.19.7a.909.909,0,0,1-.067,1.816C909.394,835.536,909.371,835.536,909.349,835.534Zm35.407-1.979a.909.909,0,0,1,.772-1.027c2.391-.341,4.791-.737,7.133-1.177a.908.908,0,0,1,.334,1.785c-2.367.446-4.795.846-7.212,1.191a1.069,1.069,0,0,1-.127.009A.91.91,0,0,1,944.756,833.555Zm-49.9.241c-2.393-.394-4.807-.844-7.175-1.338a.908.908,0,0,1,.37-1.778c2.344.489,4.733.934,7.1,1.325a.908.908,0,0,1-.145,1.8A.836.836,0,0,1,894.855,833.8Zm64.193-2.837a.912.912,0,0,1,.68-1.09c2.347-.546,4.7-1.143,6.99-1.78a.908.908,0,0,1,.487,1.75c-2.318.642-4.694,1.25-7.065,1.8a.976.976,0,0,1-.205.023A.912.912,0,0,1,959.048,830.959Zm-78.467-.139c-2.345-.593-4.711-1.247-7.031-1.94a.909.909,0,1,1,.521-1.742c2.3.688,4.637,1.334,6.956,1.924a.907.907,0,0,1-.223,1.787A.823.823,0,0,1,880.581,830.82Zm92.457-3.658a.9.9,0,0,1,.584-1.142c2.28-.738,4.579-1.532,6.827-2.362a.908.908,0,1,1,.629,1.7c-2.272.84-4.592,1.643-6.9,2.386a.907.907,0,0,1-1.143-.586ZM866.6,826.641c-2.294-.792-4.605-1.641-6.863-2.524a.909.909,0,0,1,.664-1.693c2.235.874,4.52,1.716,6.791,2.5a.908.908,0,0,1-.3,1.767A.869.869,0,0,1,866.6,826.641Zm120.083-4.435a.911.911,0,0,1,.493-1.188c2.2-.913,4.423-1.891,6.616-2.9a.909.909,0,0,1,.764,1.65c-2.216,1.024-4.463,2.011-6.685,2.934a.91.91,0,0,1-1.188-.491Zm-133.7-.894c-2.215-.97-4.443-2-6.627-3.059a.909.909,0,1,1,.8-1.635c2.161,1.05,4.368,2.067,6.562,3.03a.908.908,0,0,1-.365,1.74A.922.922,0,0,1,852.979,821.312ZM999.9,816.18a.912.912,0,0,1,.4-1.223c2.143-1.1,4.289-2.242,6.375-3.409a.909.909,0,1,1,.887,1.586c-2.107,1.179-4.272,2.335-6.436,3.44a.908.908,0,0,1-1.222-.394Zm-160.05-1.236c-2.136-1.141-4.28-2.339-6.373-3.557a.908.908,0,1,1,.916-1.568c2.072,1.206,4.2,2.392,6.313,3.522a.909.909,0,0,1-.856,1.6Zm172.765-5.79a.906.906,0,0,1,.3-1.249c2.047-1.245,4.1-2.547,6.112-3.868a.908.908,0,0,1,1,1.518c-2.024,1.332-4.1,2.646-6.165,3.9a.914.914,0,0,1-.47.133A.9.9,0,0,1,1012.613,809.154ZM827.241,807.6c-2.035-1.287-4.087-2.636-6.1-4.007a.909.909,0,1,1,1.025-1.5c1.992,1.361,4.026,2.7,6.044,3.973a.908.908,0,0,1-.972,1.535Zm197.541-6.379a.908.908,0,0,1,.216-1.266c1.956-1.384,3.916-2.824,5.83-4.282a.907.907,0,1,1,1.1,1.444c-1.929,1.469-3.906,2.923-5.877,4.32a.919.919,0,0,1-.525.166A.91.91,0,0,1,1024.782,801.223ZM815.189,799.38q-2.929-2.151-5.808-4.414a.908.908,0,0,1,1.123-1.427q2.856,2.244,5.761,4.376a.909.909,0,0,1-.538,1.642A.9.9,0,0,1,815.189,799.38Zm221.194-6.9a.908.908,0,0,1,.13-1.277q2.794-2.275,5.538-4.657a.908.908,0,1,1,1.192,1.37q-2.766,2.4-5.583,4.695a.9.9,0,0,1-1.277-.131Zm-232.662-2.111q-2.783-2.337-5.512-4.78a.907.907,0,1,1,1.212-1.351q2.706,2.423,5.468,4.74a.908.908,0,1,1-1.168,1.391ZM1047.392,783a.91.91,0,0,1,.049-1.283q2.65-2.448,5.242-4.994a.909.909,0,0,1,1.274,1.3q-2.616,2.565-5.28,5.032a.91.91,0,0,1-1.285-.051Zm-254.541-2.357q-2.631-2.5-5.209-5.106a.909.909,0,0,1,1.292-1.278q2.558,2.582,5.17,5.068a.909.909,0,0,1-1.253,1.316Zm264.952-7.778a.911.911,0,0,1-.025-1.286q2.5-2.6,4.941-5.291a.908.908,0,0,1,1.345,1.221q-2.462,2.712-4.977,5.329a.912.912,0,0,1-1.284.027Zm-275.216-2.58q-2.478-2.652-4.9-5.394a.909.909,0,0,1,1.363-1.2q2.406,2.722,4.87,5.356a.909.909,0,0,1-1.328,1.241Zm285.023-8.144a.911.911,0,0,1-.1-1.281q2.351-2.735,4.643-5.557a.91.91,0,0,1,1.412,1.147q-2.309,2.84-4.675,5.6a.909.909,0,0,1-1.282.1Zm-294.681-2.778q-2.331-2.785-4.6-5.655a.908.908,0,1,1,1.422-1.128q2.257,2.849,4.574,5.615a.91.91,0,0,1-1.395,1.168Zm303.888-8.462a.913.913,0,0,1-.167-1.276q2.207-2.855,4.35-5.792a.908.908,0,0,1,1.467,1.071q-2.16,2.957-4.374,5.832a.917.917,0,0,1-.722.354A.906.906,0,0,1,1076.817,750.9Zm-312.941-2.963q-2.182-2.9-4.3-5.884a.908.908,0,0,1,1.48-1.054q2.109,2.962,4.276,5.847a.908.908,0,0,1-1.452,1.091Zm321.553-8.742a.909.909,0,0,1-.227-1.264q2.052-2.962,4.054-6a.909.909,0,1,1,1.518,1q-2.013,3.054-4.081,6.039a.91.91,0,0,1-1.264.229Zm-330.015-3.129q-2.034-3.011-4.009-6.09a.908.908,0,0,1,1.53-.98q1.964,3.063,3.982,6.05a.908.908,0,0,1-1.5,1.02Zm338.04-8.987a.905.905,0,0,1-.288-1.251q1.91-3.062,3.763-6.192a.909.909,0,0,1,1.564.927q-1.864,3.144-3.788,6.227a.908.908,0,0,1-1.251.289ZM747.545,723.8q-1.884-3.1-3.717-6.269a.908.908,0,1,1,1.572-.908q1.82,3.147,3.7,6.233a.913.913,0,0,1-.305,1.251.925.925,0,0,1-.47.131A.914.914,0,0,1,747.545,723.8Zm353.353-9.2a.907.907,0,0,1-.345-1.238q1.765-3.147,3.48-6.357a.908.908,0,0,1,1.6.855q-1.722,3.227-3.5,6.393a.914.914,0,0,1-1.238.347Zm-360.644-3.421q-1.747-3.182-3.432-6.429a.907.907,0,1,1,1.611-.836q1.68,3.225,3.414,6.391a.909.909,0,1,1-1.593.874Zm367.52-9.382a.91.91,0,0,1-.4-1.22q1.629-3.224,3.2-6.5a.909.909,0,1,1,1.639.785q-1.579,3.3-3.218,6.537a.909.909,0,0,1-.811.5A.926.926,0,0,1,1107.774,701.8Zm-374.241-3.548q-1.606-3.255-3.151-6.57a.908.908,0,0,1,1.646-.766q1.536,3.3,3.133,6.535a.908.908,0,0,1-.413,1.217.922.922,0,0,1-.4.092A.905.905,0,0,1,733.533,698.247Zm380.552-9.544a.905.905,0,0,1-.449-1.2q1.489-3.286,2.922-6.634a.909.909,0,0,1,1.67.718q-1.439,3.361-2.94,6.666a.907.907,0,0,1-1.2.451Zm-386.714-3.66q-1.468-3.317-2.874-6.7a.909.909,0,0,1,1.678-.7q1.4,3.36,2.857,6.662a.908.908,0,1,1-1.661.733Zm392.477-9.68a.912.912,0,0,1-.5-1.185q1.353-3.346,2.651-6.749a.91.91,0,0,1,1.7.65q-1.305,3.417-2.667,6.781a.907.907,0,0,1-.841.567A.962.962,0,0,1,1119.848,675.363ZM721.761,671.6q-1.333-3.384-2.6-6.808a.908.908,0,1,1,1.7-.631q1.263,3.411,2.587,6.772a.909.909,0,0,1-.511,1.178.9.9,0,0,1-.334.063A.908.908,0,0,1,721.761,671.6Zm403.305-9.8a.909.909,0,0,1-.548-1.162q1.219-3.4,2.384-6.846a.916.916,0,0,1,1.153-.57.907.907,0,0,1,.568,1.152q-1.168,3.462-2.395,6.878a.91.91,0,0,1-1.162.548Zm-408.372-3.859q-1.2-3.432-2.333-6.9a.909.909,0,0,1,1.729-.564q1.131,3.456,2.319,6.868a.906.906,0,0,1-.558,1.156.875.875,0,0,1-.3.051A.906.906,0,0,1,716.694,657.938Zm413.051-9.9a.907.907,0,0,1-.589-1.139q1.086-3.448,2.117-6.935a.909.909,0,1,1,1.743.516q-1.034,3.5-2.13,6.965a.907.907,0,0,1-.866.635A.937.937,0,0,1,1129.745,648.039Zm-417.581-3.946q-1.062-3.474-2.066-6.985a.908.908,0,0,1,1.746-.5q1,3.5,2.058,6.954a.911.911,0,0,1-.6,1.135.954.954,0,0,1-.266.04A.91.91,0,0,1,712.164,644.093Zm421.736-9.982a.909.909,0,0,1-.635-1.118q.96-3.483,1.861-7.007a.908.908,0,1,1,1.759.451q-.9,3.54-1.867,7.039a.91.91,0,0,1-.878.667A.967.967,0,0,1,1133.9,634.111Zm-425.739-4.023q-.934-3.514-1.806-7.06a.908.908,0,0,1,1.763-.432q.867,3.531,1.8,7.023a.909.909,0,0,1-1.756.469Zm429.37-10.049a.912.912,0,0,1-.677-1.093q.831-3.518,1.606-7.072a.907.907,0,0,1,1.773.387q-.775,3.569-1.609,7.1a.912.912,0,0,1-.885.7A.882.882,0,0,1,1137.531,620.039Zm-432.851-4.1q-.807-3.54-1.549-7.117a.908.908,0,1,1,1.778-.37q.742,3.563,1.541,7.083a.909.909,0,0,1-.683,1.088.95.95,0,0,1-.2.023A.91.91,0,0,1,704.68,615.942Zm435.969-10.1a.906.906,0,0,1-.715-1.067q.705-3.544,1.349-7.126a.909.909,0,0,1,1.788.324q-.648,3.593-1.355,7.156a.91.91,0,0,1-.891.732A.817.817,0,0,1,1140.649,605.842ZM701.711,601.68q-.679-3.565-1.294-7.17a.909.909,0,0,1,1.792-.3q.612,3.582,1.288,7.134a.909.909,0,0,1-.722,1.063.939.939,0,0,1-.173.017A.913.913,0,0,1,701.711,601.68Zm441.545-10.134a.909.909,0,0,1-.752-1.04q.581-3.571,1.1-7.168a.924.924,0,0,1,1.03-.771.912.912,0,0,1,.771,1.029q-.524,3.615-1.1,7.2a.911.911,0,0,1-.9.764A.743.743,0,0,1,1143.256,591.546Zm-444-4.22q-.555-3.591-1.042-7.208a.909.909,0,0,1,.777-1.023.883.883,0,0,1,1.022.777q.49,3.6,1.037,7.177a.91.91,0,0,1-.759,1.037,1.35,1.35,0,0,1-.14.009A.906.906,0,0,1,699.252,587.326Zm446.108-10.159a.912.912,0,0,1-.788-1.016q.455-3.584.849-7.2a.908.908,0,1,1,1.806.2q-.4,3.63-.851,7.232a.907.907,0,0,1-.9.8A.772.772,0,0,1,1145.36,577.167ZM697.3,572.893q-.429-3.609-.793-7.239a.9.9,0,0,1,.812-1,.927.927,0,0,1,.994.813q.363,3.617.789,7.207a.907.907,0,0,1-.795,1.009.783.783,0,0,1-.108.007A.906.906,0,0,1,697.3,572.893Zm449.674-10.169a.908.908,0,0,1-.821-.988q.33-3.6.6-7.226a.908.908,0,1,1,1.812.134q-.276,3.642-.605,7.259a.908.908,0,0,1-.906.824ZM695.832,558.4q-.3-3.616-.546-7.263a.909.909,0,0,1,1.814-.119q.241,3.624.543,7.228a.911.911,0,0,1-.83.982c-.026,0-.051,0-.077,0A.908.908,0,0,1,695.832,558.4Zm452.253-10.168a.908.908,0,0,1-.854-.961q.207-3.608.358-7.242a.923.923,0,0,1,.944-.87.91.91,0,0,1,.87.946q-.152,3.648-.361,7.274a.908.908,0,0,1-.9.855A.47.47,0,0,1,1148.085,548.233Zm-453.221-4.359q-.185-3.63-.3-7.278a.91.91,0,0,1,.878-.938.877.877,0,0,1,.939.877q.12,3.635.3,7.246a.908.908,0,0,1-.861.953.37.37,0,0,1-.046,0A.907.907,0,0,1,694.864,543.874Zm453.849-10.161a.909.909,0,0,1-.887-.932q.09-3.61.117-7.242a.911.911,0,0,1,.908-.9h.008a.906.906,0,0,1,.9.915q-.028,3.648-.118,7.274a.909.909,0,0,1-.908.885Zm-454.332-4.4q-.061-3.635-.06-7.282,0-3.531.055-7.043a.968.968,0,0,1,.922-.894.911.911,0,0,1,.895.923q-.056,3.5-.055,7.012,0,3.636.06,7.251a.909.909,0,0,1-.892.925h-.016A.91.91,0,0,1,694.381,529.317Zm453.56-11.027q-.029-3.636-.121-7.251a.908.908,0,0,1,.885-.931.9.9,0,0,1,.931.886q.09,3.63.123,7.281a.91.91,0,0,1-.9.917h-.01A.911.911,0,0,1,1147.941,518.29Zm-452.509-9.643a.906.906,0,0,1-.879-.936q.12-3.648.3-7.275a.908.908,0,1,1,1.813.089q-.176,3.612-.3,7.247a.91.91,0,0,1-.908.877A.151.151,0,0,1,695.432,508.647Zm452.145-4.855q-.15-3.634-.362-7.244a.908.908,0,0,1,.853-.96.9.9,0,0,1,.961.854q.213,3.625.364,7.273a.909.909,0,0,1-.87.946h-.038A.91.91,0,0,1,1147.577,503.792Zm-451.461-9.659a.908.908,0,0,1-.846-.966q.24-3.643.543-7.262a.942.942,0,0,1,.98-.831.909.909,0,0,1,.83.981q-.3,3.6-.54,7.231a.908.908,0,0,1-.906.849Zm450.614-4.819q-.273-3.624-.606-7.225a.908.908,0,1,1,1.808-.168q.334,3.615.61,7.257a.906.906,0,0,1-.836.974c-.026,0-.047,0-.072,0A.907.907,0,0,1,1146.73,489.314Zm-449.441-9.667a.908.908,0,0,1-.813-1q.366-3.633.788-7.239a.9.9,0,0,1,1.01-.8.909.909,0,0,1,.8,1.008q-.424,3.591-.789,7.208a.906.906,0,0,1-.9.818C697.35,479.651,697.319,479.649,697.289,479.647Zm448.107-4.774q-.4-3.612-.855-7.2a.909.909,0,0,1,1.8-.229q.461,3.6.858,7.232a.909.909,0,0,1-.805,1,.868.868,0,0,1-.1.006A.906.906,0,0,1,1145.4,474.873ZM698.953,465.21a.909.909,0,0,1-.777-1.023q.49-3.618,1.038-7.208a.908.908,0,0,1,1.795.275q-.546,3.574-1.034,7.178a.907.907,0,0,1-.9.786A1.06,1.06,0,0,1,698.953,465.21Zm444.616-4.722q-.523-3.6-1.105-7.168a.91.91,0,0,1,1.8-.291q.579,3.585,1.1,7.2a.907.907,0,0,1-.766,1.029.762.762,0,0,1-.132.01A.9.9,0,0,1,1143.569,460.488Zm-442.448-9.65a.909.909,0,0,1-.743-1.047q.615-3.6,1.29-7.169a.908.908,0,1,1,1.784.338q-.67,3.55-1.283,7.136a.907.907,0,0,1-.893.756A.813.813,0,0,1,701.121,450.838Zm440.117-4.664q-.645-3.577-1.351-7.123a.908.908,0,1,1,1.781-.355q.711,3.561,1.359,7.156a.909.909,0,0,1-.734,1.055.888.888,0,0,1-.162.015A.912.912,0,0,1,1141.238,446.174Zm-437.452-9.621a.908.908,0,0,1-.7-1.075q.741-3.576,1.544-7.117a.908.908,0,1,1,1.771.4q-.8,3.526-1.538,7.087a.908.908,0,0,1-.886.723A.98.98,0,0,1,703.786,436.553Zm434.618-4.6q-.769-3.553-1.605-7.071a.909.909,0,0,1,1.769-.419q.839,3.534,1.614,7.1a.909.909,0,0,1-.693,1.082.945.945,0,0,1-.2.02A.914.914,0,0,1,1138.4,431.953Zm-431.441-9.581a.908.908,0,0,1-.665-1.1q.867-3.551,1.8-7.059a.909.909,0,1,1,1.756.467q-.925,3.49-1.794,7.025a.906.906,0,0,1-.881.691A.958.958,0,0,1,706.963,422.372Zm428.1-4.529q-.9-3.523-1.863-7.006a.908.908,0,1,1,1.75-.485q.969,3.5,1.874,7.04a.909.909,0,0,1-.654,1.106.94.94,0,0,1-.227.028A.91.91,0,0,1,1135.063,417.843Zm-424.408-9.528a.907.907,0,0,1-.624-1.122q1-3.516,2.062-6.987a.909.909,0,0,1,1.739.531q-1.058,3.456-2.055,6.953a.909.909,0,0,1-.874.66A.9.9,0,0,1,710.655,408.315Zm420.551-4.448q-1.03-3.489-2.126-6.931a.909.909,0,0,1,1.732-.551q1.1,3.462,2.136,6.965a.909.909,0,0,1-.614,1.129.862.862,0,0,1-.26.038A.911.911,0,0,1,1131.206,403.867Zm-416.335-9.462a.907.907,0,0,1-.582-1.145q1.136-3.476,2.327-6.9a.909.909,0,0,1,1.718.6q-1.188,3.411-2.317,6.87a.91.91,0,0,1-.865.626A.892.892,0,0,1,714.871,394.405Zm411.954-4.359q-1.166-3.444-2.39-6.844a.907.907,0,0,1,1.707-.616q1.234,3.415,2.4,6.878a.91.91,0,0,1-.571,1.152.891.891,0,0,1-.29.048A.907.907,0,0,1,1126.825,390.046Zm-407.212-9.377a.908.908,0,0,1-.536-1.167q1.268-3.428,2.594-6.807a.909.909,0,0,1,1.693.664q-1.322,3.36-2.584,6.773a.91.91,0,0,1-1.167.537Zm402.3-4.264q-1.3-3.4-2.657-6.744a.908.908,0,1,1,1.683-.683q1.365,3.364,2.671,6.778a.909.909,0,0,1-.525,1.173.9.9,0,0,1-.323.06A.91.91,0,0,1,1121.912,376.405ZM724.9,367.129a.909.909,0,0,1-.49-1.188q1.4-3.376,2.866-6.7a.909.909,0,0,1,1.664.731q-1.455,3.3-2.852,6.663a.91.91,0,0,1-.84.56A.93.93,0,0,1,724.9,367.129Zm391.567-4.156q-1.44-3.342-2.931-6.631a.909.909,0,0,1,1.655-.75q1.5,3.3,2.945,6.664a.908.908,0,0,1-1.669.717Zm-385.747-9.159a.908.908,0,0,1-.438-1.208q1.55-3.313,3.147-6.571a.908.908,0,1,1,1.629.8q-1.591,3.24-3.13,6.537a.906.906,0,0,1-.822.524A.924.924,0,0,1,730.717,353.814Zm379.752-4.039q-1.575-3.278-3.207-6.5a.909.909,0,0,1,1.623-.821q1.637,3.238,3.221,6.535a.908.908,0,1,1-1.637.785ZM737.1,340.755a.908.908,0,0,1-.386-1.225q1.685-3.247,3.427-6.431a.909.909,0,1,1,1.593.874q-1.733,3.165-3.409,6.394a.909.909,0,0,1-1.225.388Zm366.824-3.908q-1.715-3.208-3.485-6.353a.908.908,0,0,1,1.582-.891q1.78,3.162,3.5,6.387a.908.908,0,1,1-1.6.857Zm-359.88-8.859a.909.909,0,0,1-.331-1.242q1.824-3.168,3.711-6.269a.909.909,0,0,1,1.554.944q-1.873,3.083-3.693,6.234a.91.91,0,0,1-1.241.333Zm352.767-3.767q-1.856-3.127-3.771-6.187a.908.908,0,0,1,1.54-.964q1.926,3.078,3.793,6.223a.909.909,0,0,1-.317,1.245.9.9,0,0,1-.464.127A.908.908,0,0,1,1096.806,324.221Zm-345.253-8.674a.905.905,0,0,1-.275-1.254q1.972-3.082,4-6.091a.908.908,0,1,1,1.5,1.016q-2.018,2.991-3.98,6.054a.906.906,0,0,1-.765.419A.9.9,0,0,1,751.553,315.547Zm337.568-3.609q-2-3.037-4.059-6a.909.909,0,1,1,1.493-1.036q2.07,2.98,4.084,6.036a.909.909,0,0,1-.26,1.259.894.894,0,0,1-.5.15A.912.912,0,0,1,1089.121,311.938Zm-329.476-8.46a.909.909,0,0,1-.214-1.267q2.121-2.982,4.3-5.886a.909.909,0,0,1,1.454,1.09q-2.166,2.886-4.273,5.85a.91.91,0,0,1-1.267.213Zm321.211-3.438q-2.147-2.935-4.351-5.789a.908.908,0,1,1,1.436-1.112q2.22,2.874,4.38,5.827a.908.908,0,0,1-1.465,1.074Zm-312.53-8.216a.909.909,0,0,1-.148-1.276q2.269-2.871,4.6-5.656a.908.908,0,0,1,1.395,1.164q-2.31,2.768-4.569,5.62a.908.908,0,0,1-1.275.148ZM1072,288.575q-2.3-2.817-4.649-5.551a.909.909,0,0,1,1.378-1.186q2.369,2.751,4.68,5.59a.908.908,0,0,1-.131,1.278.9.9,0,0,1-.572.2A.909.909,0,0,1,1072,288.575Zm-294.4-7.934a.911.911,0,0,1-.08-1.283q2.422-2.743,4.9-5.4a.908.908,0,1,1,1.328,1.24q-2.461,2.636-4.865,5.361a.91.91,0,0,1-1.283.08Zm284.956-3.04q-2.448-2.69-4.949-5.287a.908.908,0,0,1,1.31-1.259q2.515,2.618,4.98,5.324a.907.907,0,1,1-1.341,1.222Zm-275.075-7.617a.908.908,0,0,1-.008-1.284q2.577-2.6,5.2-5.108a.907.907,0,1,1,1.251,1.314q-2.607,2.487-5.164,5.072a.908.908,0,0,1-1.284.006Zm265.03-2.808q-2.6-2.544-5.246-4.987a.908.908,0,1,1,1.23-1.336q2.67,2.462,5.286,5.024a.908.908,0,0,1-1.27,1.3Zm-254.552-7.255a.907.907,0,0,1,.069-1.282q2.73-2.445,5.507-4.784a.908.908,0,1,1,1.17,1.389q-2.755,2.322-5.463,4.748a.911.911,0,0,1-.607.231A.9.9,0,0,1,797.961,259.921Zm243.91-2.557q-2.745-2.379-5.543-4.65a.907.907,0,1,1,1.142-1.41q2.824,2.289,5.59,4.687a.908.908,0,1,1-1.189,1.373ZM809.04,250.523a.91.91,0,0,1,.151-1.276q2.879-2.267,5.807-4.419a.908.908,0,1,1,1.075,1.464q-2.9,2.135-5.757,4.383a.91.91,0,0,1-1.276-.152Zm221.6-2.278c-1.916-1.455-3.877-2.894-5.831-4.276a.908.908,0,1,1,1.048-1.483c1.971,1.394,3.951,2.844,5.883,4.311a.909.909,0,0,1-1.1,1.448Zm-209.925-6.377a.908.908,0,0,1,.238-1.262c2.008-1.374,4.056-2.725,6.092-4.014a.909.909,0,0,1,.972,1.536c-2.016,1.277-4.049,2.615-6.039,3.977a.908.908,0,0,1-1.263-.237Zm198.114-1.971c-2.018-1.325-4.074-2.623-6.114-3.859a.909.909,0,0,1,.942-1.554c2.057,1.247,4.132,2.557,6.169,3.895a.908.908,0,0,1-1,1.518Zm-185.88-5.856a.908.908,0,0,1,.326-1.242c2.112-1.233,4.255-2.43,6.369-3.563a.909.909,0,0,1,.859,1.6c-2.1,1.121-4.221,2.308-6.312,3.529a.9.9,0,0,1-1.242-.327Zm173.516-1.638c-2.11-1.176-4.257-2.32-6.379-3.4a.908.908,0,1,1,.822-1.619c2.143,1.089,4.31,2.244,6.44,3.43a.908.908,0,1,1-.883,1.588Zm-160.739-5.274a.909.909,0,0,1,.419-1.214c2.2-1.072,4.428-2.1,6.623-3.068a.909.909,0,1,1,.73,1.664c-2.172.955-4.379,1.976-6.558,3.038a.909.909,0,0,1-1.214-.42Zm147.857-1.278c-2.191-1.01-4.425-1.987-6.643-2.9a.908.908,0,0,1,.694-1.678c2.242.925,4.5,1.912,6.709,2.932a.909.909,0,0,1-.381,1.734A.9.9,0,0,1,993.579,225.851Zm-134.591-4.63a.91.91,0,0,1,.514-1.178c2.257-.887,4.561-1.738,6.847-2.531a.909.909,0,0,1,.6,1.718c-2.264.783-4.544,1.626-6.779,2.5a.926.926,0,0,1-.332.063A.91.91,0,0,1,858.988,221.221Zm121.2-.908c-2.261-.83-4.564-1.622-6.84-2.353a.908.908,0,0,1,.556-1.729c2.3.738,4.626,1.538,6.91,2.378a.908.908,0,1,1-.626,1.7Zm-107.528-3.908a.907.907,0,0,1,.608-1.132c2.328-.7,4.689-1.356,7.02-1.952a.909.909,0,0,1,.451,1.761c-2.306.588-4.644,1.238-6.949,1.932a.942.942,0,0,1-.261.038A.906.906,0,0,1,872.663,216.405Zm93.769-.508c-2.318-.637-4.67-1.231-6.994-1.766a.908.908,0,1,1,.408-1.77c2.348.54,4.727,1.14,7.067,1.785a.908.908,0,1,1-.481,1.751Zm-79.738-3.155a.908.908,0,0,1,.7-1.075c2.39-.5,4.8-.956,7.178-1.349a.908.908,0,0,1,.3,1.792c-2.349.389-4.739.839-7.1,1.335a.91.91,0,0,1-1.075-.7Zm65.692-.076c-2.355-.438-4.753-.83-7.124-1.164a.908.908,0,1,1,.254-1.8c2.4.339,4.82.734,7.2,1.176a.909.909,0,0,1-.167,1.8A.886.886,0,0,1,952.386,212.666ZM901.02,210.29a.91.91,0,0,1,.791-1.012c2.422-.293,4.874-.537,7.29-.723a.946.946,0,0,1,.974.836.907.907,0,0,1-.835.975c-2.388.185-4.815.426-7.208.717-.038,0-.075,0-.112,0A.907.907,0,0,1,901.02,210.29Zm37.071.359c-2.4-.233-4.82-.414-7.2-.54a.909.909,0,0,1,.094-1.815c2.407.127,4.858.311,7.284.547a.908.908,0,0,1-.089,1.812C938.151,210.653,938.123,210.652,938.091,210.649Zm-22.579-1.559a.908.908,0,0,1,.878-.937q2.823-.1,5.657-.1l1.644.008a.907.907,0,0,1,.9.917.877.877,0,0,1-.917.9l-1.626-.008q-2.8,0-5.6.094h-.03A.908.908,0,0,1,915.512,209.09Z"/><path class="cls-4" d="M919.226,835.831a.908.908,0,1,1,.232-1.8,19.977,19.977,0,0,0,2.553.165,23.014,23.014,0,0,0,4.312-.453.93.93,0,0,1,1.077.7.909.909,0,0,1-.7,1.077,22.4,22.4,0,0,1-4.649.49h-.04A21.773,21.773,0,0,1,919.226,835.831Zm-7.129-2.084a33.18,33.18,0,0,1-6.318-3.857.908.908,0,1,1,1.1-1.442,31.662,31.662,0,0,0,5.97,3.648.908.908,0,1,1-.755,1.651Zm20.333-1.2a.909.909,0,0,1,.371-1.23,34.627,34.627,0,0,0,5.792-3.98.908.908,0,0,1,1.167,1.391,36.525,36.525,0,0,1-6.1,4.19.927.927,0,0,1-.431.108A.907.907,0,0,1,932.43,832.549Zm-32.119-7.608a67.861,67.861,0,0,1-4.763-5.6.91.91,0,0,1,1.445-1.105,65.327,65.327,0,0,0,4.631,5.445.909.909,0,1,1-1.313,1.256Zm43.443-1.287a.908.908,0,0,1-.069-1.281,70.9,70.9,0,0,0,4.494-5.579.909.909,0,0,1,1.469,1.072,73.265,73.265,0,0,1-4.611,5.72.906.906,0,0,1-1.283.068Zm-52.41-10.317c-1.258-1.952-2.524-4.063-3.766-6.275a.908.908,0,1,1,1.585-.887c1.223,2.178,2.47,4.258,3.707,6.178a.905.905,0,0,1-.271,1.255.886.886,0,0,1-.492.146A.908.908,0,0,1,891.344,813.337Zm61.143-1.262a.91.91,0,0,1-.3-1.251c1.215-1.952,2.432-4.052,3.62-6.239a.909.909,0,0,1,1.6.866c-1.208,2.219-2.443,4.349-3.673,6.332a.908.908,0,0,1-.772.428A.894.894,0,0,1,952.487,812.075ZM884.168,800.6c-1.05-2.106-2.1-4.329-3.119-6.607a.908.908,0,0,1,1.657-.743c1.011,2.254,2.049,4.456,3.087,6.541a.908.908,0,0,1-.408,1.217.888.888,0,0,1-.4.1A.908.908,0,0,1,884.168,800.6Zm75.358-1.232a.908.908,0,0,1-.421-1.213c1.016-2.1,2.031-4.309,3.021-6.572a.908.908,0,0,1,1.664.727c-1,2.284-2.024,4.517-3.05,6.636a.906.906,0,0,1-.82.513A.893.893,0,0,1,959.526,799.367Zm-81.345-12.084q-1.35-3.3-2.658-6.8a.908.908,0,1,1,1.7-.635q1.3,3.468,2.638,6.743a.91.91,0,0,1-.5,1.185.886.886,0,0,1-.344.068A.908.908,0,0,1,878.181,787.283Zm87.243-1.2a.906.906,0,0,1-.508-1.179q1.313-3.287,2.59-6.764a.907.907,0,1,1,1.7.623q-1.284,3.5-2.608,6.815a.906.906,0,0,1-.841.571A.883.883,0,0,1,965.424,786.082ZM873.053,773.63q-1.171-3.38-2.306-6.916a.907.907,0,1,1,1.727-.557q1.133,3.52,2.3,6.876a.912.912,0,0,1-.561,1.158.958.958,0,0,1-.3.049A.913.913,0,0,1,873.053,773.63Zm97.435-1.173a.909.909,0,0,1-.569-1.152q1.146-3.369,2.257-6.888a.908.908,0,1,1,1.731.546q-1.117,3.54-2.267,6.927a.913.913,0,0,1-1.152.567Zm-101.9-12.7q-1.029-3.433-2.027-7a.908.908,0,0,1,1.749-.491q.993,3.548,2.017,6.965a.908.908,0,0,1-1.739.523Zm106.32-1.146a.91.91,0,0,1-.614-1.128q1.01-3.426,1.99-6.975a.908.908,0,1,1,1.75.482q-.984,3.564-2,7.006a.907.907,0,0,1-.87.653A.965.965,0,0,1,974.905,758.607ZM864.651,745.725q-.913-3.471-1.8-7.056a.909.909,0,0,1,1.764-.436q.88,3.57,1.79,7.029a.907.907,0,0,1-.648,1.109.8.8,0,0,1-.23.03A.907.907,0,0,1,864.651,745.725ZM978.8,744.6a.906.906,0,0,1-.65-1.107q.893-3.468,1.762-7.037a.909.909,0,1,1,1.767.429q-.873,3.582-1.772,7.063a.909.909,0,0,1-.878.68A.87.87,0,0,1,978.8,744.6ZM861.159,731.586q-.808-3.5-1.6-7.1a.908.908,0,0,1,1.775-.387q.784,3.588,1.593,7.083a.908.908,0,0,1-.682,1.088.828.828,0,0,1-.2.024A.91.91,0,0,1,861.159,731.586Zm121.1-1.106a.907.907,0,0,1-.684-1.088q.8-3.5,1.571-7.088a.909.909,0,1,1,1.777.382q-.779,3.6-1.578,7.109a.91.91,0,0,1-1.086.685Zm-124.21-13.117q-.725-3.531-1.427-7.14a.91.91,0,0,1,1.786-.346q.7,3.6,1.422,7.12a.91.91,0,0,1-.708,1.074.959.959,0,0,1-.185.018A.909.909,0,0,1,858.051,717.363Zm127.289-1.092a.912.912,0,0,1-.71-1.073q.712-3.519,1.4-7.122a.909.909,0,0,1,1.786.339q-.694,3.617-1.407,7.145a.91.91,0,0,1-.89.728A1.025,1.025,0,0,1,985.34,716.271Zm-130.062-13.2q-.647-3.548-1.272-7.166a.909.909,0,0,1,1.792-.309q.62,3.607,1.268,7.149a.911.911,0,0,1-.731,1.057,1.148,1.148,0,0,1-.165.014A.908.908,0,0,1,855.278,703.069ZM988.09,702a.91.91,0,0,1-.735-1.055q.639-3.54,1.251-7.153a.909.909,0,0,1,1.793.3q-.618,3.62-1.255,7.17a.908.908,0,0,1-.892.747A1.119,1.119,0,0,1,988.09,702Zm-135.282-13.27q-.582-3.562-1.134-7.191a.908.908,0,0,1,1.8-.273q.553,3.617,1.13,7.174a.905.905,0,0,1-.75,1.04.749.749,0,0,1-.148.014A.909.909,0,0,1,852.808,688.726Zm137.733-1.06a.907.907,0,0,1-.752-1.042q.566-3.556,1.11-7.173a.91.91,0,0,1,1.8.269q-.546,3.627-1.117,7.192a.908.908,0,0,1-.9.764A1.189,1.189,0,0,1,990.541,687.666ZM850.608,674.341q-.513-3.582-1-7.209a.905.905,0,0,1,.778-1.022.9.9,0,0,1,1.021.777q.489,3.626,1,7.194a.908.908,0,0,1-.77,1.029.95.95,0,0,1-.131.008A.91.91,0,0,1,850.608,674.341Zm142.112-1.05a.91.91,0,0,1-.773-1.027q.507-3.568.986-7.194a.909.909,0,0,1,1.8.238q-.483,3.635-.989,7.212a.909.909,0,0,1-.9.781A.92.92,0,0,1,992.72,673.291ZM848.661,659.916q-.454-3.584-.885-7.222a.908.908,0,0,1,.8-1.008.917.917,0,0,1,1.007.8q.432,3.627.884,7.207a.91.91,0,0,1-.788,1.016,1.107,1.107,0,0,1-.115.006A.908.908,0,0,1,848.661,659.916Zm145.989-1.032a.908.908,0,0,1-.79-1.012q.446-3.58.869-7.212a.908.908,0,1,1,1.8.211q-.422,3.636-.87,7.224a.907.907,0,0,1-.9.8A.842.842,0,0,1,994.65,658.884Zm-147.7-13.421q-.4-3.592-.772-7.232a.908.908,0,1,1,1.806-.187q.375,3.63.772,7.222a.907.907,0,0,1-.8,1,.86.86,0,0,1-.1.006A.908.908,0,0,1,846.95,645.463Zm149.394-1.017a.906.906,0,0,1-.8-1q.388-3.591.756-7.224a.91.91,0,0,1,1.81.185q-.37,3.639-.76,7.234a.911.911,0,0,1-.9.812A.843.843,0,0,1,996.344,644.446ZM845.458,630.993q-.346-3.6-.667-7.245a.907.907,0,0,1,.825-.984.934.934,0,0,1,.985.825q.321,3.639.667,7.232a.91.91,0,0,1-.818.991c-.03,0-.059,0-.089,0A.909.909,0,0,1,845.458,630.993Zm152.363-1.01a.908.908,0,0,1-.819-.989q.338-3.6.652-7.234a.908.908,0,0,1,1.81.155q-.317,3.645-.652,7.248a.912.912,0,0,1-.9.824C997.879,629.987,997.851,629.985,997.821,629.983ZM844.175,616.5q-.292-3.607-.566-7.251a.909.909,0,0,1,.84-.974.886.886,0,0,1,.974.839q.268,3.636.562,7.24a.91.91,0,0,1-.832.978c-.025,0-.05,0-.074,0A.907.907,0,0,1,844.175,616.5Zm154.915-1a.906.906,0,0,1-.834-.976q.288-3.6.552-7.242a.907.907,0,1,1,1.81.133q-.264,3.642-.554,7.253a.9.9,0,0,1-.9.836C999.138,615.5,999.113,615.5,999.09,615.5Zm-156-13.511q-.245-3.611-.468-7.261a.907.907,0,0,1,.852-.96.892.892,0,0,1,.962.85q.224,3.642.468,7.246a.911.911,0,0,1-.844.97c-.022,0-.043,0-.065,0A.91.91,0,0,1,843.094,601.989ZM1000.157,601a.909.909,0,0,1-.847-.966q.239-3.608.457-7.249a.893.893,0,0,1,.963-.851.908.908,0,0,1,.851.961q-.219,3.646-.459,7.26a.9.9,0,0,1-.9.847A.6.6,0,0,1,1000.157,601ZM842.205,587.468q-.2-3.616-.375-7.263a.906.906,0,0,1,.862-.951.865.865,0,0,1,.951.862q.177,3.639.374,7.253a.9.9,0,0,1-.856.955.426.426,0,0,1-.051,0A.906.906,0,0,1,842.205,587.468Zm158.83-.976a.911.911,0,0,1-.861-.956q.194-3.609.362-7.253a.893.893,0,0,1,.952-.864.909.909,0,0,1,.864.95q-.174,3.646-.364,7.264a.907.907,0,0,1-.9.861A.37.37,0,0,1,1001.035,586.492ZM841.5,572.937q-.153-3.62-.283-7.27a.909.909,0,0,1,.877-.94.945.945,0,0,1,.94.876q.13,3.644.283,7.256a.91.91,0,0,1-.869.948h-.039A.911.911,0,0,1,841.5,572.937Zm160.228-.963a.911.911,0,0,1-.874-.945q.149-3.616.273-7.259a.909.909,0,0,1,1.816.064q-.126,3.645-.272,7.268a.91.91,0,0,1-.909.872ZM840.978,558.4q-.106-3.623-.195-7.27a.911.911,0,0,1,.887-.931.968.968,0,0,1,.93.887q.087,3.645.195,7.261a.908.908,0,0,1-.881.934h-.027A.909.909,0,0,1,840.978,558.4Zm161.258-.953a.91.91,0,0,1-.883-.933q.1-3.62.184-7.262a.909.909,0,0,1,1.818.039q-.083,3.648-.184,7.272a.911.911,0,0,1-.91.884Zm-161.6-13.589q-.063-3.622-.107-7.274a.907.907,0,0,1,.9-.917h.01a.908.908,0,0,1,.909.9q.04,3.645.106,7.265a.906.906,0,0,1-.893.923h-.016A.907.907,0,0,1,840.634,543.855Zm161.934-.944a.908.908,0,0,1-.893-.921q.06-3.62.1-7.264a.909.909,0,0,1,.908-.9h.011a.91.91,0,0,1,.9.918q-.041,3.649-.1,7.273a.91.91,0,0,1-.908.893Zm-162.106-13.6q-.021-3.627-.021-7.274a.909.909,0,0,1,1.817,0q0,3.642.02,7.265a.907.907,0,0,1-.9.913h0A.911.911,0,0,1,840.462,529.307Zm162.267-.915a.911.911,0,0,1-.9-.912q.015-2.718.013-5.447l0-1.814a.909.909,0,0,1,.908-.911h0a.909.909,0,0,1,.908.91l0,1.813q0,2.738-.011,5.457a.908.908,0,0,1-.91.9Zm-161.376-9.1a.911.911,0,0,1-.907-.912q.01-3.642.042-7.263a.909.909,0,0,1,.909-.9h.009a.908.908,0,0,1,.9.916q-.031,3.615-.043,7.253a.907.907,0,0,1-.908.906Zm160.451-6.34q-.029-3.639-.075-7.262a.909.909,0,0,1,.9-.921h.013a.909.909,0,0,1,.908.9q.048,3.63.074,7.276a.908.908,0,0,1-.9.915h-.008A.91.91,0,0,1,1001.8,512.955Zm-160.338-8.187a.909.909,0,0,1-.894-.922q.057-3.648.13-7.272a.909.909,0,0,1,.907-.89h.02a.909.909,0,0,1,.889.928q-.073,3.618-.13,7.262a.907.907,0,0,1-.907.894Zm160.147-6.335q-.074-3.643-.163-7.262a.909.909,0,0,1,.887-.931.885.885,0,0,1,.928.885q.092,3.624.163,7.272a.909.909,0,0,1-.89.926h-.017A.906.906,0,0,1,1001.613,498.433Zm-159.851-8.2a.91.91,0,0,1-.885-.932q.1-3.649.217-7.271a.847.847,0,0,1,.938-.878.908.908,0,0,1,.879.937q-.12,3.618-.217,7.26a.91.91,0,0,1-.908.884Zm159.481-6.325q-.111-3.643-.248-7.26a.91.91,0,0,1,.874-.941.891.891,0,0,1,.943.874q.132,3.621.249,7.27a.91.91,0,0,1-.881.936h-.029A.911.911,0,0,1,1001.243,483.911Zm-159.018-8.206a.907.907,0,0,1-.872-.943q.143-3.647.307-7.267a.861.861,0,0,1,.947-.867.907.907,0,0,1,.865.949q-.159,3.613-.3,7.257a.908.908,0,0,1-.908.872ZM1000.7,469.4q-.162-3.642-.339-7.256a.908.908,0,0,1,.862-.952.879.879,0,0,1,.952.862q.182,3.62.341,7.267a.909.909,0,0,1-.87.946h-.038A.907.907,0,0,1,1000.7,469.4Zm-157.828-8.213a.907.907,0,0,1-.861-.953q.186-3.649.4-7.265a.916.916,0,0,1,.96-.853.907.907,0,0,1,.853.959q-.21,3.609-.4,7.251a.909.909,0,0,1-.907.862Zm157.1-6.3q-.207-3.64-.434-7.249a.909.909,0,1,1,1.814-.114q.225,3.615.432,7.262a.907.907,0,0,1-.855.957l-.053,0A.9.9,0,0,1,999.977,454.888ZM843.7,446.67a.91.91,0,0,1-.848-.966q.235-3.648.492-7.258a.882.882,0,0,1,.973-.84.908.908,0,0,1,.841.97q-.258,3.606-.494,7.245a.908.908,0,0,1-.905.85Zm155.362-6.279q-.253-3.639-.527-7.243a.905.905,0,0,1,.834-.975.9.9,0,0,1,.974.837q.279,3.609.531,7.255a.909.909,0,0,1-.842.969l-.064,0A.908.908,0,0,1,999.064,440.391Zm-154.345-8.222a.906.906,0,0,1-.832-.977q.284-3.644.59-7.25a.933.933,0,0,1,.981-.828.908.908,0,0,1,.829.982q-.308,3.6-.592,7.238a.907.907,0,0,1-.9.838Zm153.238-6.26q-.3-3.638-.624-7.236a.909.909,0,0,1,1.81-.163q.324,3.606.628,7.249a.908.908,0,0,1-.83.979.7.7,0,0,1-.078,0A.912.912,0,0,1,997.957,425.909Zm-152.02-8.226a.908.908,0,0,1-.821-.988q.338-3.642.693-7.242a.909.909,0,0,1,1.81.179q-.357,3.6-.694,7.231a.908.908,0,0,1-.9.824A.819.819,0,0,1,845.937,417.683Zm150.716-6.241q-.352-3.635-.728-7.225a.9.9,0,0,1,.806-1,.894.894,0,0,1,1,.808q.378,3.6.731,7.239a.906.906,0,0,1-.815.991c-.03,0-.06,0-.089,0A.91.91,0,0,1,996.653,411.442Zm-149.29-8.228a.906.906,0,0,1-.807-1q.389-3.639.8-7.231a.909.909,0,0,1,1.806.206q-.411,3.585-.8,7.218a.907.907,0,0,1-.9.812A.793.793,0,0,1,847.363,403.214ZM995.139,397q-.406-3.63-.84-7.212a.908.908,0,1,1,1.8-.219q.437,3.591.844,7.229a.909.909,0,0,1-.8,1,.905.905,0,0,1-1-.8ZM849.005,388.77a.907.907,0,0,1-.792-1.012q.444-3.635.912-7.218a.922.922,0,0,1,1.019-.782.907.907,0,0,1,.783,1.018q-.467,3.576-.911,7.2a.907.907,0,0,1-.9.8A1.032,1.032,0,0,1,849.005,388.77Zm144.4-6.19q-.463-3.628-.955-7.2a.908.908,0,1,1,1.8-.247q.489,3.579.957,7.214a.906.906,0,0,1-.783,1.016.959.959,0,0,1-.117.008A.912.912,0,0,1,993.4,382.58Zm-142.53-8.227a.909.909,0,0,1-.774-1.025q.505-3.628,1.037-7.2a.907.907,0,1,1,1.795.267q-.527,3.563-1.032,7.185a.907.907,0,0,1-1.026.775Zm140.557-6.16q-.527-3.621-1.078-7.179a.909.909,0,0,1,1.8-.279q.552,3.567,1.082,7.2a.911.911,0,0,1-.769,1.03.991.991,0,0,1-.133.009A.911.911,0,0,1,991.428,368.193Zm-138.441-8.222a.91.91,0,0,1-.756-1.039q.57-3.624,1.166-7.184a.909.909,0,1,1,1.792.3q-.592,3.548-1.162,7.165a.909.909,0,0,1-.9.767A1,1,0,0,1,852.987,359.971Zm136.218-6.13q-.6-3.611-1.219-7.157a.91.91,0,0,1,1.793-.312q.617,3.552,1.217,7.176a.907.907,0,1,1-1.791.293ZM855.37,345.629a.908.908,0,0,1-.737-1.052q.643-3.618,1.31-7.16a.908.908,0,0,1,1.784.335q-.664,3.535-1.3,7.142a.91.91,0,0,1-.893.75A.866.866,0,0,1,855.37,345.629ZM986.7,339.541q-.668-3.6-1.362-7.131a.909.909,0,1,1,1.783-.351q.693,3.537,1.365,7.149a.908.908,0,0,1-.726,1.06.96.96,0,0,1-.167.015A.909.909,0,0,1,986.7,339.541Zm-128.659-8.2a.908.908,0,0,1-.714-1.068q.72-3.606,1.466-7.13a.909.909,0,1,1,1.778.376q-.744,3.513-1.462,7.109a.905.905,0,0,1-1.068.713ZM983.9,325.3q-.75-3.589-1.525-7.094a.909.909,0,1,1,1.774-.394q.776,3.513,1.529,7.118a.908.908,0,1,1-1.778.37Zm-122.86-8.184a.911.911,0,0,1-.688-1.086q.81-3.594,1.647-7.092a.908.908,0,1,1,1.767.423q-.835,3.484-1.64,7.067a.908.908,0,0,1-.885.71A.923.923,0,0,1,861.036,317.112Zm119.716-5.986q-.841-3.576-1.711-7.051a.907.907,0,1,1,1.76-.442q.873,3.486,1.721,7.076a.909.909,0,0,1-.676,1.093.935.935,0,0,1-.211.024A.909.909,0,0,1,980.752,311.126ZM864.4,302.968a.908.908,0,0,1-.656-1.105q.909-3.579,1.85-7.044a.908.908,0,0,1,1.753.475q-.935,3.453-1.843,7.018a.908.908,0,0,1-1.1.656Zm112.828-5.917q-.95-3.556-1.931-6.993a.909.909,0,0,1,1.749-.5q.984,3.451,1.937,7.024a.908.908,0,0,1-.644,1.111.9.9,0,0,1-.235.031A.907.907,0,0,1,977.225,297.051ZM868.176,288.93a.908.908,0,0,1-.619-1.125q1.032-3.558,2.093-6.98a.908.908,0,0,1,1.735.538q-1.056,3.406-2.083,6.947a.909.909,0,0,1-.872.656A.9.9,0,0,1,868.176,288.93ZM973.245,283.1q-1.077-3.531-2.183-6.914a.908.908,0,1,1,1.725-.566q1.113,3.4,2.2,6.95a.909.909,0,0,1-1.738.53Zm-100.79-8.066a.909.909,0,0,1-.575-1.148q1.179-3.526,2.386-6.889a.909.909,0,0,1,1.711.615q-1.2,3.342-2.372,6.849a.9.9,0,0,1-1.15.573Zm96.272-5.709q-1.231-3.49-2.5-6.8a.908.908,0,1,1,1.7-.65q1.276,3.332,2.515,6.844a.91.91,0,0,1-.553,1.16.937.937,0,0,1-.3.051A.912.912,0,0,1,968.727,269.326Zm-91.38-7.981a.909.909,0,0,1-.517-1.178q1.359-3.481,2.759-6.753a.908.908,0,1,1,1.671.712q-1.386,3.247-2.737,6.7a.909.909,0,0,1-1.176.515Zm86.2-5.545c-.956-2.288-1.932-4.518-2.9-6.628a.909.909,0,1,1,1.651-.759c.977,2.13,1.963,4.379,2.926,6.687a.908.908,0,1,1-1.675.7Zm-80.534-7.84a.907.907,0,0,1-.435-1.209c1.07-2.268,2.166-4.468,3.259-6.542a.909.909,0,1,1,1.607.849c-1.08,2.048-2.166,4.224-3.223,6.468a.908.908,0,0,1-.822.52A.893.893,0,0,1,883.01,247.96Zm74.48-5.294c-1.133-2.209-2.293-4.342-3.449-6.342a.908.908,0,0,1,1.571-.91c1.175,2.026,2.35,4.188,3.5,6.424a.911.911,0,0,1-.394,1.223.926.926,0,0,1-.414.1A.9.9,0,0,1,957.49,242.666Zm-67.76-7.589a.908.908,0,0,1-.312-1.247c1.3-2.17,2.636-4.239,3.974-6.154a.909.909,0,0,1,1.49,1.041c-1.315,1.879-2.629,3.914-3.907,6.046a.9.9,0,0,1-.779.442A.915.915,0,0,1,889.73,235.077Zm60.507-4.867c-1.395-2.079-2.822-4.027-4.239-5.791a.908.908,0,1,1,1.415-1.139c1.45,1.805,2.909,3.8,4.333,5.918a.91.91,0,0,1-.25,1.261.9.9,0,0,1-.5.154A.908.908,0,0,1,950.237,230.21Zm-52.272-7.078a.909.909,0,0,1-.1-1.282,57.181,57.181,0,0,1,5.1-5.313.908.908,0,1,1,1.22,1.345,56.1,56.1,0,0,0-4.934,5.143.906.906,0,0,1-1.279.107Zm43.257-4.017a41.866,41.866,0,0,0-5.432-4.531.908.908,0,1,1,1.033-1.494,43.566,43.566,0,0,1,5.668,4.726.908.908,0,0,1-1.269,1.3Zm-32.676-5.8a.908.908,0,0,1,.3-1.249A28.169,28.169,0,0,1,915.608,209a.908.908,0,0,1,.512,1.742,26.34,26.34,0,0,0-6.325,2.869.908.908,0,0,1-1.249-.3Zm21.1-2.011a21.587,21.587,0,0,0-6.722-1.411.909.909,0,0,1-.869-.946.863.863,0,0,1,.947-.869,23.447,23.447,0,0,1,7.286,1.526.908.908,0,0,1-.32,1.758A.945.945,0,0,1,929.644,211.3Z"/><path class="cls-4" d="M915,749.7a.907.907,0,0,1-.894-.921.865.865,0,0,1,.922-.9c4.745.074,9.524.076,14.267,0a.909.909,0,0,1,.032,1.818q-3.633.06-7.284.059Q918.517,749.76,915,749.7Zm-7.279-.173q-3.651-.118-7.275-.3a.909.909,0,0,1-.863-.951.887.887,0,0,1,.951-.863q3.612.177,7.247.3a.909.909,0,0,1-.03,1.817Zm27.945-.887a.912.912,0,0,1,.88-.938q3.633-.122,7.247-.3a.89.89,0,0,1,.95.86.908.908,0,0,1-.861.954q-3.627.185-7.276.3h-.03A.911.911,0,0,1,935.67,748.643Zm-42.492.171q-3.642-.241-7.261-.544a.907.907,0,0,1-.83-.98.945.945,0,0,1,.98-.83q3.6.3,7.233.54a.909.909,0,0,1-.061,1.816C893.219,748.816,893.2,748.816,893.178,748.814Zm57.01-.864a.911.911,0,0,1,.845-.969q3.627-.241,7.23-.542a.924.924,0,0,1,.982.828.907.907,0,0,1-.83.982q-3.62.3-7.261.546c-.021,0-.041,0-.062,0A.907.907,0,0,1,950.188,747.95Zm-71.522-.343q-3.635-.364-7.24-.791a.907.907,0,1,1,.213-1.8q3.59.421,7.208.786a.908.908,0,0,1-.088,1.812C878.728,747.612,878.7,747.61,878.666,747.607Zm86.005-.84a.908.908,0,0,1,.813-.993q3.62-.365,7.21-.79a.908.908,0,0,1,.212,1.8q-3.607.426-7.242.792a.654.654,0,0,1-.089.006A.91.91,0,0,1,964.671,746.767ZM864.2,745.9q-3.62-.489-7.207-1.037a.908.908,0,1,1,.274-1.8q3.576.544,7.178,1.034a.908.908,0,0,1-.121,1.808A.653.653,0,0,1,864.2,745.9Zm114.909-.809a.909.909,0,0,1,.777-1.022q3.6-.489,7.179-1.037a.908.908,0,0,1,.277,1.8q-3.591.555-7.212,1.041a.7.7,0,0,1-.121.009A.909.909,0,0,1,979.109,745.094ZM849.8,743.706q-3.6-.614-7.168-1.288a.909.909,0,0,1,.336-1.786q3.553.672,7.138,1.283a.909.909,0,0,1-.151,1.805A.827.827,0,0,1,849.8,743.706Zm143.677-.784a.91.91,0,0,1,.741-1.05q3.582-.612,7.135-1.287a.909.909,0,0,1,.341,1.785q-3.573.679-7.169,1.295a.921.921,0,0,1-.156.013A.9.9,0,0,1,993.481,742.922ZM835.491,741q-3.577-.743-7.118-1.545a.908.908,0,0,1,.4-1.772q3.527.8,7.086,1.539a.908.908,0,1,1-.369,1.778Zm172.274-.756a.905.905,0,0,1,.7-1.073q3.56-.743,7.086-1.543a.908.908,0,0,1,.4,1.77q-3.543.808-7.119,1.551a.894.894,0,0,1-.185.019A.9.9,0,0,1,1007.765,740.246Zm-186.48-2.464q-3.546-.867-7.057-1.8a.908.908,0,1,1,.465-1.756q3.494.925,7.025,1.792a.909.909,0,0,1-.216,1.791A.96.96,0,0,1,821.285,737.782Zm200.66-.72a.907.907,0,0,1,.663-1.1q3.531-.867,7.024-1.8a.909.909,0,1,1,.466,1.757q-3.508.931-7.058,1.806a.938.938,0,0,1-.216.026A.9.9,0,0,1,1021.945,737.062Zm-214.74-3.014q-3.511-1-6.987-2.062a.909.909,0,1,1,.531-1.738q3.457,1.057,6.954,2.055a.908.908,0,0,1-.249,1.781A.867.867,0,0,1,807.205,734.048ZM1036,733.36a.911.911,0,0,1,.625-1.124q3.5-.995,6.952-2.056a.909.909,0,0,1,.531,1.738q-3.471,1.063-6.984,2.066a.9.9,0,0,1-.25.034A.911.911,0,0,1,1036,733.36ZM793.274,729.8q-3.476-1.137-6.9-2.329a.909.909,0,1,1,.6-1.717q3.413,1.188,6.872,2.318a.909.909,0,0,1-.283,1.772A.946.946,0,0,1,793.274,729.8Zm256.631-.657a.907.907,0,0,1,.58-1.147q3.458-1.131,6.866-2.318a.908.908,0,1,1,.6,1.713q-3.431,1.2-6.9,2.334a.926.926,0,0,1-.281.045A.906.906,0,0,1,1049.905,729.138ZM779.511,725q-3.426-1.264-6.8-2.594a.909.909,0,0,1,.663-1.693q3.361,1.323,6.773,2.584a.908.908,0,0,1-.315,1.76A.884.884,0,0,1,779.511,725Zm284.125-.617a.911.911,0,0,1,.536-1.168q3.412-1.261,6.774-2.587a.908.908,0,1,1,.663,1.691q-3.376,1.332-6.806,2.6a.858.858,0,0,1-.316.057A.912.912,0,0,1,1063.636,724.385Zm-297.684-4.71q-3.375-1.4-6.7-2.868a.909.909,0,1,1,.731-1.664q3.306,1.457,6.664,2.853a.908.908,0,0,1-.35,1.747A.954.954,0,0,1,765.952,719.675Zm311.222-.58a.909.909,0,0,1,.489-1.188q3.354-1.4,6.659-2.856a.908.908,0,1,1,.736,1.66q-3.324,1.467-6.7,2.873a.959.959,0,0,1-.351.07A.9.9,0,0,1,1077.174,719.1ZM752.619,713.8q-3.314-1.545-6.571-3.146a.908.908,0,1,1,.8-1.629q3.243,1.592,6.54,3.131a.908.908,0,0,1-.385,1.73A.892.892,0,0,1,752.619,713.8Zm337.867-.542a.908.908,0,0,1,.437-1.207q3.3-1.535,6.535-3.133a.909.909,0,1,1,.8,1.63q-3.255,1.607-6.569,3.15a.9.9,0,0,1-.383.086A.905.905,0,0,1,1090.486,713.259Zm-350.942-5.888q-3.246-1.686-6.431-3.428a.908.908,0,1,1,.872-1.592q3.168,1.731,6.4,3.409a.908.908,0,0,1-.419,1.713A.9.9,0,0,1,739.544,707.371Zm363.992-.5a.91.91,0,0,1,.389-1.225q3.23-1.68,6.392-3.413a.909.909,0,1,1,.874,1.594q-3.185,1.746-6.429,3.43a.89.89,0,0,1-.417.1A.91.91,0,0,1,1103.536,706.873Zm-376.777-6.5q-3.167-1.825-6.27-3.711a.909.909,0,1,1,.944-1.554q3.086,1.873,6.235,3.694a.908.908,0,1,1-.909,1.571Zm389.542-.453a.906.906,0,0,1,.333-1.24q3.15-1.82,6.23-3.7a.908.908,0,1,1,.945,1.55q-3.1,1.889-6.267,3.719a.9.9,0,0,1-.455.123A.906.906,0,0,1,1116.3,699.921ZM714.306,692.8q-3.084-1.972-6.092-4a.908.908,0,1,1,1.017-1.5q2.991,2.016,6.055,3.98a.908.908,0,0,1-.98,1.529Zm414.427-.4a.909.909,0,0,1,.275-1.255q3.062-1.965,6.051-3.982a.907.907,0,1,1,1.014,1.5q-3,2.033-6.083,4.006a.91.91,0,0,1-1.257-.274Zm-426.509-7.752q-2.979-2.121-5.886-4.3a.909.909,0,0,1,1.089-1.456q2.887,2.168,5.852,4.274a.909.909,0,1,1-1.055,1.48ZM1140.8,684.3a.908.908,0,0,1,.214-1.266q2.966-2.11,5.847-4.276a.907.907,0,1,1,1.09,1.45q-2.9,2.182-5.883,4.3a.9.9,0,0,1-.525.169A.915.915,0,0,1,1140.8,684.3Zm-450.234-8.4q-2.87-2.269-5.658-4.6a.908.908,0,0,1,1.163-1.395q2.77,2.312,5.623,4.567a.909.909,0,0,1-.564,1.621A.9.9,0,0,1,690.562,675.9Zm461.88-.294a.909.909,0,0,1,.15-1.276q2.848-2.256,5.616-4.573a.907.907,0,1,1,1.163,1.393q-2.783,2.333-5.651,4.6a.9.9,0,0,1-.565.2A.914.914,0,0,1,1152.442,675.607Zm-473.069-9.05q-2.745-2.421-5.4-4.9a.907.907,0,1,1,1.239-1.326q2.636,2.459,5.365,4.865a.909.909,0,1,1-1.2,1.362Zm484.246-.239a.906.906,0,0,1,.079-1.281q2.724-2.408,5.358-4.87a.907.907,0,1,1,1.239,1.326q-2.652,2.482-5.395,4.9a.905.905,0,0,1-1.281-.08Zm-494.906-9.712q-2.605-2.574-5.112-5.2a.909.909,0,0,1,1.317-1.253q2.486,2.607,5.072,5.165a.908.908,0,1,1-1.277,1.291Zm505.553-.175a.908.908,0,0,1,.006-1.283q2.582-2.559,5.066-5.17a.909.909,0,0,1,1.317,1.253q-2.5,2.632-5.1,5.208a.907.907,0,0,1-1.285-.008ZM658.654,646.049q-2.45-2.728-4.787-5.5a.909.909,0,1,1,1.391-1.172q2.32,2.759,4.747,5.464a.908.908,0,1,1-1.351,1.213Zm525.662-.108a.91.91,0,0,1-.07-1.281q2.423-2.706,4.742-5.468a.908.908,0,1,1,1.391,1.168q-2.337,2.783-4.778,5.513a.918.918,0,0,1-.678.3A.9.9,0,0,1,1184.316,645.941ZM649.261,634.89q-2.266-2.88-4.42-5.807a.908.908,0,0,1,1.463-1.075q2.138,2.9,4.383,5.758a.908.908,0,1,1-1.426,1.124Zm544.442-.038a.905.905,0,0,1-.151-1.275c1.491-1.9,2.964-3.834,4.376-5.76a.909.909,0,1,1,1.465,1.075c-1.425,1.94-2.909,3.894-4.414,5.809a.909.909,0,0,1-1.276.151ZM640.62,623.134c-1.374-2.009-2.724-4.058-4.013-6.093a.908.908,0,1,1,1.534-.972c1.279,2.014,2.617,4.048,3.979,6.038a.909.909,0,0,1-1.5,1.027Zm561.726.042a.911.911,0,0,1-.239-1.264c1.357-1.987,2.695-4.02,3.972-6.042a.907.907,0,1,1,1.535.968c-1.288,2.043-2.638,4.1-4.006,6.1a.912.912,0,0,1-1.262.237ZM632.815,610.809c-1.217-2.082-2.416-4.224-3.565-6.369a.908.908,0,0,1,1.6-.859c1.137,2.126,2.326,4.249,3.533,6.309a.909.909,0,0,1-1.569.919Zm577.345.124a.91.91,0,0,1-.332-1.242c1.213-2.079,2.4-4.2,3.525-6.313a.908.908,0,1,1,1.6.855c-1.138,2.13-2.333,4.274-3.554,6.374a.914.914,0,0,1-.788.449A.873.873,0,0,1,1210.16,610.933ZM625.93,597.941c-1.072-2.2-2.1-4.429-3.069-6.624a.909.909,0,1,1,1.664-.73c.954,2.172,1.975,4.38,3.037,6.558a.909.909,0,0,1-.419,1.215.934.934,0,0,1-.4.09A.906.906,0,0,1,625.93,597.941Zm591.124.208a.908.908,0,0,1-.42-1.215c1.048-2.153,2.067-4.363,3.03-6.563a.909.909,0,0,1,1.664.732c-.972,2.219-2,4.45-3.059,6.626a.909.909,0,0,1-.818.511A.9.9,0,0,1,1217.054,598.149Zm-597-13.568c-.885-2.246-1.736-4.55-2.533-6.847a.909.909,0,1,1,1.717-.6c.787,2.276,1.63,4.556,2.5,6.777a.906.906,0,0,1-.511,1.177.851.851,0,0,1-.333.065A.908.908,0,0,1,620.059,584.581Zm602.9.277a.908.908,0,0,1-.515-1.177c.877-2.242,1.717-4.528,2.5-6.792a.908.908,0,1,1,1.717.593c-.789,2.287-1.638,4.6-2.523,6.859a.908.908,0,0,1-.847.58A.919.919,0,0,1,1222.954,584.858ZM615.286,570.812c-.7-2.323-1.355-4.686-1.953-7.021a.908.908,0,1,1,1.76-.451c.591,2.314,1.243,4.65,1.932,6.947a.909.909,0,0,1-.606,1.132.9.9,0,0,1-.263.038A.908.908,0,0,1,615.286,570.812Zm612.477.33a.909.909,0,0,1-.611-1.131c.684-2.3,1.333-4.636,1.922-6.958a.909.909,0,0,1,1.761.448c-.6,2.346-1.249,4.709-1.943,7.031a.907.907,0,0,1-1.129.61ZM611.682,556.685c-.5-2.361-.954-4.777-1.351-7.179a.908.908,0,0,1,.747-1.044.9.9,0,0,1,1.045.747c.395,2.374.843,4.764,1.336,7.1a.91.91,0,0,1-.7,1.077.932.932,0,0,1-.189.019A.907.907,0,0,1,611.682,556.685Zm619.717.419a.907.907,0,0,1-.7-1.074c.489-2.354.935-4.744,1.319-7.1a.909.909,0,0,1,1.795.294c-.388,2.378-.839,4.793-1.336,7.177a.91.91,0,0,1-.889.722A.732.732,0,0,1,1231.4,557.1Zm-622.1-14.836c-.291-2.395-.537-4.847-.724-7.288A.908.908,0,0,1,609.4,534a.9.9,0,0,1,.976.834c.187,2.417.429,4.843.716,7.212a.906.906,0,0,1-.791,1.01.7.7,0,0,1-.112.007A.906.906,0,0,1,609.294,542.268Zm624.529.525a.905.905,0,0,1-.792-1.01c.286-2.388.521-4.806.7-7.188a.907.907,0,1,1,1.808.138c-.18,2.407-.419,4.852-.708,7.266a.909.909,0,0,1-.9.8A.688.688,0,0,1,1233.823,542.793Zm-625.66-15.1q-.091-2.825-.094-5.659l.007-1.641a.907.907,0,0,1,.909-.9h.008a.908.908,0,0,1,.9.915l-.008,1.624q0,2.807.094,5.6a.908.908,0,0,1-.878.938h-.03A.909.909,0,0,1,608.163,527.692ZM1235,528.32a.908.908,0,0,1-.879-.937q.086-2.668.087-5.35c0-.625,0-1.252-.011-1.876a.908.908,0,0,1,.9-.919.867.867,0,0,1,.918.9q.011.947.011,1.9,0,2.712-.087,5.409a.908.908,0,0,1-.908.878ZM609.162,514.051a.906.906,0,0,1-.857-.956c.131-2.439.316-4.889.547-7.28a.926.926,0,0,1,.991-.816.907.907,0,0,1,.818.991c-.228,2.365-.411,4.789-.543,7.2a.908.908,0,0,1-.906.86Zm624.8-1.111c-.131-2.379-.315-4.8-.552-7.2a.908.908,0,0,1,1.808-.177c.239,2.425.427,4.873.558,7.277a.911.911,0,0,1-.859.957h-.049A.906.906,0,0,1,1233.96,512.94ZM610.488,499.592a.908.908,0,0,1-.773-1.026c.34-2.4.737-4.827,1.178-7.2a.908.908,0,1,1,1.786.332c-.437,2.352-.829,4.749-1.164,7.125a.908.908,0,0,1-.9.781A.95.95,0,0,1,610.488,499.592Zm622.052-1.038c-.339-2.371-.733-4.772-1.177-7.133a.908.908,0,0,1,1.786-.334c.447,2.387.847,4.813,1.192,7.209a.91.91,0,0,1-.773,1.029.943.943,0,0,1-.129.009A.909.909,0,0,1,1232.54,498.554ZM613.055,485.325a.909.909,0,0,1-.681-1.09c.544-2.361,1.145-4.738,1.786-7.066a.909.909,0,0,1,1.753.482c-.635,2.3-1.231,4.656-1.769,6.992a.909.909,0,0,1-.885.7A.95.95,0,0,1,613.055,485.325Zm616.828-.973c-.538-2.319-1.137-4.672-1.781-6.989a.91.91,0,0,1,1.753-.486c.65,2.342,1.253,4.72,1.8,7.065a.911.911,0,0,1-.68,1.091.966.966,0,0,1-.207.023A.909.909,0,0,1,1229.883,484.352ZM616.83,471.317a.909.909,0,0,1-.586-1.144c.745-2.319,1.546-4.643,2.376-6.909a.909.909,0,0,1,1.707.627c-.824,2.242-1.615,4.542-2.354,6.839a.907.907,0,0,1-.864.63A.965.965,0,0,1,616.83,471.317Zm609.2-.859c-.733-2.273-1.527-4.57-2.361-6.825a.909.909,0,0,1,1.7-.63c.842,2.28,1.644,4.6,2.387,6.9a.912.912,0,0,1-.586,1.144.956.956,0,0,1-.281.044A.908.908,0,0,1,1226.032,470.458ZM621.769,457.637a.91.91,0,0,1-.491-1.187c.924-2.233,1.912-4.489,2.934-6.707a.908.908,0,1,1,1.65.76c-1.011,2.2-1.99,4.432-2.906,6.642a.909.909,0,0,1-1.187.492Zm599.265-.731c-.915-2.2-1.891-4.431-2.9-6.618a.908.908,0,1,1,1.647-.763c1.021,2.209,2.009,4.457,2.934,6.683a.911.911,0,0,1-.489,1.188.923.923,0,0,1-.349.069A.912.912,0,0,1,1221.034,456.906ZM627.8,444.4a.906.906,0,0,1-.4-1.221c1.089-2.143,2.244-4.31,3.431-6.44a.907.907,0,1,1,1.585.884c-1.174,2.11-2.318,4.256-3.4,6.379a.906.906,0,0,1-1.22.4Zm587.172-.611c-1.08-2.118-2.225-4.263-3.408-6.375a.909.909,0,0,1,1.586-.887c1.193,2.132,2.349,4.3,3.44,6.438a.908.908,0,1,1-1.618.824ZM634.8,431.676a.91.91,0,0,1-.305-1.249c1.245-2.05,2.555-4.125,3.895-6.168a.908.908,0,0,1,1.519,1c-1.329,2.025-2.628,4.083-3.86,6.115a.911.911,0,0,1-1.249.306Zm573.117-.51c-1.236-2.036-2.538-4.092-3.867-6.111a.909.909,0,0,1,1.52-1c1.338,2.038,2.65,4.112,3.9,6.166a.907.907,0,0,1-.305,1.248.889.889,0,0,1-.47.133A.91.91,0,0,1,1207.918,431.166Zm-565.2-11.672a.91.91,0,0,1-.217-1.267q2.1-2.965,4.314-5.882a.908.908,0,0,1,1.447,1.1q-2.194,2.892-4.278,5.835a.908.908,0,0,1-1.266.216Zm557.256-.41c-1.387-1.956-2.828-3.917-4.281-5.83a.908.908,0,1,1,1.446-1.1c1.467,1.928,2.92,3.906,4.317,5.878a.908.908,0,1,1-1.482,1.051Zm-548.522-11.2a.909.909,0,0,1-.132-1.278q2.292-2.818,4.687-5.587a.909.909,0,0,1,1.374,1.189q-2.376,2.746-4.651,5.544a.91.91,0,0,1-1.278.132Zm539.766-.32q-2.277-2.794-4.658-5.537a.909.909,0,1,1,1.372-1.192q2.4,2.764,4.694,5.584a.907.907,0,1,1-1.408,1.145Zm-530.3-10.7a.909.909,0,0,1-.052-1.284q2.463-2.67,5.023-5.285a.908.908,0,0,1,1.3,1.27q-2.544,2.6-4.987,5.246a.908.908,0,0,1-1.283.053Zm520.809-.228q-2.445-2.649-4.991-5.241a.908.908,0,1,1,1.295-1.272q2.567,2.612,5.03,5.28a.908.908,0,0,1-1.334,1.233ZM671.044,386.446a.907.907,0,0,1,.025-1.284q2.613-2.515,5.322-4.981a.909.909,0,1,1,1.225,1.343q-2.691,2.446-5.287,4.947a.908.908,0,0,1-1.285-.025Zm500.546-.142q-2.6-2.5-5.288-4.942a.908.908,0,1,1,1.221-1.345q2.709,2.462,5.327,4.978a.908.908,0,1,1-1.26,1.309Zm-489.835-9.672a.91.91,0,0,1,.1-1.282q2.748-2.367,5.589-4.681a.908.908,0,1,1,1.147,1.409q-2.819,2.3-5.551,4.649a.909.909,0,0,1-1.281-.095Zm479.117-.063q-2.735-2.351-5.554-4.645a.907.907,0,1,1,1.144-1.408q2.841,2.308,5.6,4.674a.909.909,0,0,1-1.185,1.379Zm-467.881-9.155a.907.907,0,0,1,.163-1.274q2.871-2.22,5.824-4.381a.909.909,0,0,1,1.075,1.466q-2.935,2.149-5.789,4.352a.9.9,0,0,1-1.273-.163Zm456.647.015q-2.854-2.2-5.792-4.347a.908.908,0,1,1,1.071-1.467q2.954,2.158,5.829,4.376a.908.908,0,0,1-.555,1.627A.9.9,0,0,1,1149.638,367.429Zm-444.953-8.637a.908.908,0,0,1,.228-1.264q2.98-2.072,6.037-4.085a.908.908,0,1,1,1,1.517q-3.038,2-6,4.06a.908.908,0,0,1-1.263-.228Zm433.259.09q-2.968-2.056-6-4.056a.908.908,0,0,1,1-1.517q3.059,2.011,6.04,4.078a.909.909,0,0,1-.517,1.656A.9.9,0,0,1,1137.944,358.882ZM716.8,350.758a.908.908,0,0,1,.287-1.252q3.078-1.926,6.226-3.793a.908.908,0,1,1,.925,1.562q-3.126,1.857-6.186,3.771a.91.91,0,0,1-1.252-.288Zm409.045.159q-3.061-1.911-6.192-3.766a.908.908,0,1,1,.927-1.562q3.147,1.864,6.226,3.786a.908.908,0,1,1-.961,1.542ZM729.27,343.3a.906.906,0,0,1,.346-1.237q3.164-1.782,6.39-3.5a.908.908,0,1,1,.855,1.6q-3.205,1.713-6.354,3.485a.9.9,0,0,1-.446.116A.908.908,0,0,1,729.27,343.3Zm384.1.226q-3.144-1.768-6.354-3.481a.908.908,0,1,1,.854-1.6q3.23,1.721,6.391,3.5a.909.909,0,1,1-.891,1.584Zm-371.307-7.11a.906.906,0,0,1,.4-1.221q3.236-1.639,6.535-3.223a.909.909,0,0,1,.785,1.639q-3.279,1.574-6.5,3.2a.884.884,0,0,1-.409.1A.909.909,0,0,1,742.065,336.419Zm358.52.29q-3.22-1.629-6.5-3.2a.908.908,0,1,1,.782-1.64q3.3,1.581,6.539,3.217a.909.909,0,0,1-.409,1.72A.922.922,0,0,1,1100.585,336.709ZM755.154,330.1a.907.907,0,0,1,.451-1.2q3.307-1.5,6.666-2.944a.908.908,0,1,1,.716,1.668q-3.342,1.435-6.629,2.929a.908.908,0,0,1-1.2-.451Zm332.36.351q-3.286-1.491-6.631-2.925a.908.908,0,1,1,.716-1.669q3.36,1.442,6.665,2.939a.909.909,0,0,1-.75,1.655Zm-319.021-6.121a.9.9,0,0,1,.5-1.182q3.363-1.365,6.776-2.671a.908.908,0,1,1,.65,1.7q-3.4,1.3-6.745,2.657a.89.89,0,0,1-.341.068A.9.9,0,0,1,768.493,324.326Zm305.7.408q-3.348-1.354-6.746-2.653a.909.909,0,1,1,.648-1.7q3.417,1.307,6.779,2.667a.908.908,0,0,1-.681,1.684ZM782.052,319.1a.908.908,0,0,1,.547-1.163q3.417-1.23,6.878-2.4a.909.909,0,0,1,.581,1.722q-3.446,1.166-6.842,2.389a.883.883,0,0,1-.309.054A.907.907,0,0,1,782.052,319.1Zm278.6.462q-3.4-1.221-6.849-2.385a.908.908,0,0,1,.582-1.721q3.465,1.17,6.881,2.4a.909.909,0,0,1-.307,1.764A.893.893,0,0,1,1060.649,319.563Zm-264.84-5.152a.909.909,0,0,1,.591-1.141q3.461-1.1,6.965-2.135a.908.908,0,1,1,.514,1.741q-3.483,1.032-6.93,2.126a.91.91,0,0,1-1.14-.591Zm251.1.516q-3.446-1.089-6.933-2.12a.909.909,0,1,1,.515-1.743q3.5,1.036,6.967,2.132a.908.908,0,0,1-.549,1.731Zm-237.177-4.679a.906.906,0,0,1,.634-1.117q3.5-.967,7.038-1.873a.908.908,0,0,1,.45,1.759q-3.524.9-7.006,1.865a.916.916,0,0,1-.242.033A.906.906,0,0,1,809.734,310.248Zm223.273.568q-3.482-.96-7.008-1.86a.908.908,0,0,1,.451-1.76q3.538.9,7.041,1.869a.908.908,0,0,1-.243,1.784A.89.89,0,0,1,1033.007,310.816Zm-209.2-4.208a.91.91,0,0,1,.674-1.094q3.534-.837,7.1-1.615a.909.909,0,0,1,.387,1.776q-3.554.774-7.07,1.606a.854.854,0,0,1-.21.025A.909.909,0,0,1,823.8,306.608Zm195.157.619q-3.519-.832-7.071-1.6a.909.909,0,1,1,.386-1.776q3.568.777,7.1,1.61a.909.909,0,0,1-.211,1.793A.934.934,0,0,1,1018.96,307.227Zm-180.966-3.745a.908.908,0,0,1,.713-1.068q3.564-.71,7.157-1.36a.909.909,0,0,1,.323,1.789q-3.579.647-7.125,1.351a.906.906,0,0,1-1.068-.712Zm166.795.666q-3.548-.7-7.126-1.349a.908.908,0,0,1,.322-1.788q3.6.647,7.159,1.355a.909.909,0,0,1-.355,1.782Zm-152.5-3.284a.908.908,0,0,1,.75-1.042q3.582-.584,7.2-1.105a.908.908,0,1,1,.258,1.8q-3.6.52-7.166,1.1a.912.912,0,0,1-1.041-.752Zm138.226.713q-3.567-.577-7.168-1.1a.909.909,0,0,1,.26-1.8q3.616.522,7.2,1.1a.908.908,0,0,1-.144,1.805A1.064,1.064,0,0,1,990.518,301.577Zm-123.847-2.824a.909.909,0,0,1,.786-1.016q3.6-.459,7.234-.857a.909.909,0,0,1,.2,1.807q-3.614.4-7.2.853a1.148,1.148,0,0,1-.117.007A.909.909,0,0,1,866.671,298.753Zm109.493.755q-3.585-.453-7.2-.848a.908.908,0,1,1,.195-1.806q3.633.395,7.236.852a.908.908,0,0,1-.231,1.8Zm-95.051-2.37a.909.909,0,0,1,.821-.989q3.617-.336,7.256-.609a.893.893,0,0,1,.976.836.907.907,0,0,1-.838.974q-3.626.274-7.227.609c-.028,0-.057,0-.085,0A.908.908,0,0,1,881.113,297.138Zm80.634.8q-3.6-.332-7.227-.6a.909.909,0,1,1,.139-1.812q3.637.273,7.255.605a.908.908,0,0,1-.082,1.813A.806.806,0,0,1,961.747,297.933Zm-66.143-1.92a.908.908,0,0,1,.853-.96q3.625-.213,7.274-.364a.908.908,0,1,1,.075,1.814q-3.633.153-7.243.363l-.053,0A.907.907,0,0,1,895.6,296.013Zm51.684.838q-3.613-.207-7.243-.358a.91.91,0,0,1-.872-.945.9.9,0,0,1,.946-.87q3.649.151,7.271.36a.908.908,0,0,1-.049,1.815Zm-37.168-1.474a.909.909,0,0,1,.885-.932q3.633-.091,7.283-.122h.007a.908.908,0,0,1,.007,1.816q-3.635.032-7.251.124h-.022A.91.91,0,0,1,910.12,295.377Zm22.675.878q-3.61-.09-7.241-.118a.909.909,0,0,1-.9-.915.869.869,0,0,1,.915-.9q3.649.03,7.274.118a.909.909,0,0,1-.023,1.817Z"/><path class="cls-4" d="M921.139,602.732a.907.907,0,0,1,.908-.908q3.64,0,7.263-.021h.006a.908.908,0,0,1,0,1.816q-3.627.022-7.274.023A.909.909,0,0,1,921.139,602.732Zm-2.745.9q-3.639-.012-7.265-.044a.908.908,0,0,1,.01-1.815h.008q3.615.03,7.253.041a.909.909,0,0,1,0,1.818Zm17.282-.98a.908.908,0,0,1,.9-.919q3.642-.042,7.263-.106a.86.86,0,0,1,.925.892.906.906,0,0,1-.893.923q-3.627.066-7.274.108h-.011A.908.908,0,0,1,935.676,602.656Zm-31.817.853q-3.649-.054-7.272-.129a.909.909,0,0,1,.019-1.817h.02q3.62.077,7.261.13a.908.908,0,0,1-.014,1.816Zm46.35-1.1a.911.911,0,0,1,.887-.931q3.64-.088,7.26-.2a.923.923,0,0,1,.936.883.911.911,0,0,1-.881.934q-3.627.105-7.272.2h-.023A.91.91,0,0,1,950.209,602.412Zm-60.891.794q-3.652-.1-7.274-.216a.909.909,0,0,1-.878-.939.885.885,0,0,1,.939-.879q3.615.123,7.259.218a.908.908,0,0,1-.022,1.816Zm75.423-1.217a.906.906,0,0,1,.874-.94q3.642-.13,7.257-.284a.943.943,0,0,1,.947.87.91.91,0,0,1-.87.947q-3.621.154-7.268.283h-.034A.905.905,0,0,1,964.741,601.989Zm-89.967.739q-3.649-.142-7.267-.307a.9.9,0,0,1-.865-.946.84.84,0,0,1,.946-.866q3.615.159,7.257.3a.908.908,0,0,1-.036,1.816Zm104.49-1.338a.906.906,0,0,1,.863-.951q3.642-.177,7.255-.376a.908.908,0,0,1,.1,1.814q-3.618.2-7.266.375h-.046A.908.908,0,0,1,979.264,601.39Zm-119.022.679q-3.646-.186-7.265-.4a.907.907,0,0,1-.854-.959.892.892,0,0,1,.96-.853q3.612.21,7.251.4a.908.908,0,0,1-.046,1.815Zm133.54-1.465a.9.9,0,0,1,.851-.961q3.642-.225,7.247-.47a.917.917,0,0,1,.967.845.907.907,0,0,1-.844.968q-3.615.245-7.26.469h-.057A.9.9,0,0,1,993.782,600.6Zm-148.063.623q-3.647-.235-7.26-.493a.908.908,0,0,1-.841-.972.883.883,0,0,1,.972-.841q3.6.258,7.246.494a.908.908,0,0,1-.057,1.814A.582.582,0,0,1,845.719,601.227Zm162.565-1.594a.911.911,0,0,1,.84-.974q3.639-.27,7.239-.563a.908.908,0,1,1,.148,1.81q-3.607.293-7.253.567c-.024,0-.045,0-.068,0A.911.911,0,0,1,1008.284,599.633Zm-177.079.563q-3.647-.287-7.252-.591a.91.91,0,0,1-.828-.982.938.938,0,0,1,.981-.828q3.6.306,7.241.591a.907.907,0,0,1-.069,1.812C831.252,600.2,831.229,600.2,831.205,600.2Zm191.57-1.73a.911.911,0,0,1,.826-.986q3.636-.321,7.23-.667a.921.921,0,0,1,.992.819.91.91,0,0,1-.817.991q-3.6.346-7.246.667c-.028,0-.054,0-.081,0A.91.91,0,0,1,1022.775,598.466Zm-206.067.5q-3.641-.337-7.242-.7a.908.908,0,0,1-.816-.993.9.9,0,0,1,1-.814q3.591.355,7.229.692a.909.909,0,0,1-.082,1.814C816.765,598.968,816.737,598.966,816.708,598.964Zm220.539-1.87a.909.909,0,0,1,.811-1q3.633-.376,7.223-.772a.918.918,0,0,1,1,.8.907.907,0,0,1-.8,1q-3.6.394-7.234.771a.776.776,0,0,1-.1,0A.911.911,0,0,1,1037.247,597.094Zm-235.017.43q-3.643-.39-7.234-.8a.909.909,0,1,1,.206-1.806q3.588.41,7.219.8a.908.908,0,0,1-.094,1.811A.778.778,0,0,1,802.23,597.524Zm249.47-2.015a.9.9,0,0,1,.794-1.006q3.63-.432,7.207-.885a.921.921,0,0,1,1.015.788.908.908,0,0,1-.787,1.016q-3.582.451-7.221.883a.652.652,0,0,1-.108.006A.9.9,0,0,1,1051.7,595.509Zm-263.928.358q-3.638-.442-7.219-.911a.91.91,0,0,1-.785-1.018.931.931,0,0,1,1.019-.785q3.576.469,7.2.912a.908.908,0,0,1-.108,1.81A.7.7,0,0,1,787.772,595.867Zm278.352-2.17a.906.906,0,0,1,.778-1.021q3.624-.489,7.192-1a.919.919,0,0,1,1.027.772.909.909,0,0,1-.769,1.029q-3.574.511-7.206,1a.847.847,0,0,1-.123.008A.906.906,0,0,1,1066.124,593.7Zm-292.783.287q-3.63-.507-7.2-1.035a.908.908,0,0,1,.266-1.8q3.567.528,7.189,1.033a.908.908,0,0,1-.124,1.808A1.086,1.086,0,0,1,773.341,593.984Zm307.174-2.339a.907.907,0,0,1,.76-1.033q3.62-.555,7.171-1.131a.9.9,0,0,1,1.043.75.907.907,0,0,1-.749,1.042q-3.564.584-7.188,1.134a.973.973,0,0,1-.139.011A.909.909,0,0,1,1080.515,591.645Zm-321.573.2q-3.622-.568-7.181-1.166a.908.908,0,1,1,.3-1.791q3.553.591,7.168,1.162a.909.909,0,0,1-.14,1.806A1,1,0,0,1,758.942,591.848Zm335.925-2.513a.908.908,0,0,1,.742-1.05q3.609-.622,7.146-1.27a.924.924,0,0,1,1.058.731.911.911,0,0,1-.73,1.058q-3.544.645-7.166,1.272a.935.935,0,0,1-.155.013A.91.91,0,0,1,1094.867,589.335Zm-350.28.113q-3.613-.642-7.16-1.309a.909.909,0,0,1,.337-1.786q3.534.666,7.143,1.306a.909.909,0,0,1-.158,1.8A1.131,1.131,0,0,1,744.587,589.448Zm364.584-2.71a.909.909,0,0,1,.72-1.065q3.6-.7,7.118-1.423a.909.909,0,0,1,.366,1.781q-3.528.723-7.139,1.425a.851.851,0,0,1-.175.017A.91.91,0,0,1,1109.171,586.738Zm-378.888.015q-3.606-.719-7.131-1.467a.908.908,0,0,1,.376-1.777q3.513.747,7.109,1.463a.908.908,0,0,1-.354,1.781Zm393.13-2.928a.909.909,0,0,1,.694-1.08q3.588-.785,7.081-1.594a.91.91,0,0,1,.411,1.772q-3.505.807-7.1,1.6a.856.856,0,0,1-.195.021A.909.909,0,0,1,1123.413,583.825Zm-407.372-.093q-3.6-.807-7.094-1.645a.909.909,0,0,1,.422-1.768q3.487.836,7.07,1.639a.91.91,0,0,1-.2,1.8A.921.921,0,0,1,716.041,583.732Zm421.541-3.167a.91.91,0,0,1,.663-1.1q3.575-.881,7.033-1.789a.907.907,0,1,1,.461,1.755q-3.474.912-7.056,1.8a.972.972,0,0,1-.22.026A.91.91,0,0,1,1137.582,580.565Zm-435.709-.223q-3.579-.913-7.043-1.852a.908.908,0,1,1,.476-1.753q3.448.936,7.015,1.844a.909.909,0,0,1-.448,1.761Zm449.779-3.448a.9.9,0,0,1,.627-1.12q3.552-.991,6.967-2.016a.907.907,0,1,1,.521,1.738q-3.433,1.029-7,2.027a.894.894,0,0,1-.244.035A.905.905,0,0,1,1151.652,576.894Zm-463.835-.369q-3.558-1.032-6.979-2.094a.908.908,0,1,1,.539-1.735q3.405,1.057,6.948,2.083a.909.909,0,0,1-.254,1.782A.933.933,0,0,1,687.817,576.525Zm477.769-3.776a.905.905,0,0,1,.585-1.142q3.518-1.132,6.876-2.295a.909.909,0,0,1,.6,1.717q-3.379,1.17-6.915,2.306a.907.907,0,0,1-1.143-.586ZM673.9,572.2q-3.529-1.181-6.889-2.386a.909.909,0,1,1,.614-1.712q3.342,1.2,6.849,2.373a.908.908,0,0,1-.287,1.77A.9.9,0,0,1,673.9,572.2Zm505.433-4.175a.911.911,0,0,1,.532-1.17q3.469-1.3,6.746-2.638a.909.909,0,0,1,.688,1.683q-3.3,1.347-6.8,2.655a.907.907,0,0,1-1.171-.53Zm-519.151-.776q-3.48-1.357-6.756-2.759a.908.908,0,1,1,.714-1.67q3.246,1.385,6.7,2.737a.908.908,0,1,1-.66,1.692Zm532.626-4.677a.9.9,0,0,1,.457-1.2c2.259-1.014,4.457-2.052,6.538-3.087a.907.907,0,1,1,.809,1.624c-2.1,1.048-4.323,2.1-6.6,3.12a.887.887,0,0,1-.37.079A.909.909,0,0,1,1192.807,562.574Zm-546.044-1.069c-2.274-1.071-4.474-2.168-6.543-3.26a.909.909,0,0,1,.848-1.607c2.044,1.079,4.221,2.163,6.469,3.224a.908.908,0,1,1-.774,1.643Zm559.077-5.35a.911.911,0,0,1,.349-1.238c2.174-1.217,4.253-2.463,6.18-3.705a.908.908,0,1,1,.984,1.526c-1.958,1.262-4.069,2.53-6.275,3.766a.923.923,0,0,1-.443.115A.91.91,0,0,1,1205.84,556.155Zm-572-1.492c-2.17-1.3-4.24-2.634-6.156-3.974a.909.909,0,1,1,1.043-1.49c1.878,1.317,3.914,2.629,6.046,3.906a.909.909,0,0,1-.466,1.689A.888.888,0,0,1,633.844,554.663Zm584.24-6.3a.909.909,0,0,1,.168-1.274,65.762,65.762,0,0,0,5.447-4.63.909.909,0,0,1,1.257,1.313,68.025,68.025,0,0,1-5.6,4.761.89.89,0,0,1-.549.186A.9.9,0,0,1,1218.084,548.362ZM621.865,546.22a57.094,57.094,0,0,1-5.315-5.1.908.908,0,1,1,1.344-1.221,55.222,55.222,0,0,0,5.146,4.932.909.909,0,1,1-1.175,1.387Zm606.762-7.746a.912.912,0,0,1-.169-1.273,31.3,31.3,0,0,0,3.65-5.972.911.911,0,0,1,1.655.76,33.528,33.528,0,0,1-3.861,6.315.907.907,0,0,1-1.275.17Zm-616.552-3.237a28.217,28.217,0,0,1-3.062-6.764.908.908,0,0,1,1.742-.511,26.455,26.455,0,0,0,2.867,6.324.907.907,0,0,1-.3,1.249.887.887,0,0,1-.475.134A.9.9,0,0,1,612.075,535.237Zm622.753-9.6a.91.91,0,0,1-.787-1.016,20.419,20.419,0,0,0,.167-2.591,20.744,20.744,0,0,0-.451-4.276.909.909,0,0,1,1.778-.375,22.4,22.4,0,0,1,.311,7.473.911.911,0,0,1-.9.792A.768.768,0,0,1,1234.828,525.64ZM608.96,522.027a.911.911,0,0,1-.87-.947,23.488,23.488,0,0,1,1.526-7.285.909.909,0,0,1,1.7.642,21.661,21.661,0,0,0-1.408,6.721.913.913,0,0,1-.909.871A.268.268,0,0,1,608.96,522.027Zm622.375-10.745a34.507,34.507,0,0,0-3.984-5.794.909.909,0,0,1,1.393-1.168,36.446,36.446,0,0,1,4.191,6.1.908.908,0,0,1-1.6.859Zm-618-2.762a.91.91,0,0,1-.229-1.264,43.99,43.99,0,0,1,4.727-5.667.908.908,0,1,1,1.3,1.271,42.176,42.176,0,0,0-4.53,5.429.905.905,0,0,1-.747.39A.918.918,0,0,1,613.331,508.52Zm609.055-8.124a71.141,71.141,0,0,0-5.576-4.494.908.908,0,1,1,1.069-1.467,71.958,71.958,0,0,1,5.72,4.609.908.908,0,0,1-.607,1.585A.9.9,0,0,1,1222.386,500.4Zm-599.232-2.45a.912.912,0,0,1,.139-1.278c1.8-1.451,3.795-2.909,5.919-4.332a.908.908,0,0,1,1.011,1.508c-2.079,1.395-4.028,2.822-5.791,4.24a.911.911,0,0,1-1.278-.138Zm587.682-6.057c-1.954-1.216-4.055-2.433-6.237-3.618a.908.908,0,1,1,.866-1.6c2.214,1.2,4.344,2.438,6.33,3.671a.909.909,0,0,1-.959,1.544ZM635.1,489.709a.908.908,0,0,1,.33-1.241c2.013-1.167,4.175-2.342,6.425-3.493a.908.908,0,1,1,.826,1.617c-2.221,1.137-4.353,2.3-6.339,3.448a.91.91,0,0,1-1.242-.331Zm563.067-4.731c-2.1-1.017-4.308-2.033-6.571-3.022a.908.908,0,0,1,.728-1.664c2.283,1,4.514,2.024,6.635,3.049a.909.909,0,0,1-.4,1.727A.936.936,0,0,1,1198.167,484.978ZM647.98,482.993a.91.91,0,0,1,.445-1.206c2.144-.984,4.394-1.968,6.69-2.926a.908.908,0,0,1,.7,1.676c-2.274.95-4.5,1.927-6.628,2.9a.918.918,0,0,1-.38.083A.907.907,0,0,1,647.98,482.993Zm536.937-3.828q-3.289-1.312-6.766-2.589a.908.908,0,0,1,.627-1.705q3.5,1.284,6.812,2.607a.909.909,0,0,1-.337,1.753A.886.886,0,0,1,1184.917,479.165Zm-523.553-1.836a.91.91,0,0,1,.524-1.174q3.332-1.276,6.847-2.515a.908.908,0,1,1,.6,1.714q-3.488,1.232-6.8,2.5a.92.92,0,0,1-.325.06A.907.907,0,0,1,661.364,477.329Zm509.955-3.165q-3.369-1.146-6.891-2.259a.908.908,0,0,1,.549-1.731q3.54,1.119,6.924,2.268a.908.908,0,0,1-.29,1.769A.929.929,0,0,1,1171.319,474.164Zm-496.266-1.723a.911.911,0,0,1,.583-1.147q3.4-1.113,6.949-2.2a.908.908,0,0,1,.529,1.738q-3.53,1.077-6.914,2.185a.9.9,0,0,1-.283.045A.912.912,0,0,1,675.053,472.441Zm482.438-2.652q-3.423-1.008-6.976-1.988a.908.908,0,1,1,.483-1.751q3.568.984,7.009,2a.908.908,0,0,1-.256,1.779A.871.871,0,0,1,1157.491,469.789Zm-468.54-1.627a.908.908,0,0,1,.622-1.123q3.448-.982,7.022-1.936a.908.908,0,1,1,.468,1.755q-3.555.95-6.991,1.929a.921.921,0,0,1-.248.034A.907.907,0,0,1,688.951,468.162Zm454.557-2.23q-3.465-.894-7.04-1.764a.908.908,0,1,1,.43-1.764q3.588.872,7.063,1.77a.908.908,0,0,1-.225,1.787A.839.839,0,0,1,1143.508,465.932Zm-440.522-1.551a.908.908,0,0,1,.661-1.1q3.489-.873,7.077-1.72a.909.909,0,0,1,.415,1.77q-3.573.841-7.052,1.713a.913.913,0,0,1-1.1-.661ZM1129.4,462.5q-3.5-.8-7.086-1.571a.908.908,0,0,1,.383-1.776q3.6.777,7.107,1.577a.908.908,0,0,1-.2,1.794A.886.886,0,0,1,1129.4,462.5ZM717.131,461.02a.908.908,0,0,1,.69-1.083q3.514-.777,7.117-1.531a.908.908,0,0,1,.374,1.777q-3.594.753-7.1,1.528a.967.967,0,0,1-.2.022A.909.909,0,0,1,717.131,461.02Zm398.084-1.569q-3.524-.716-7.123-1.4a.908.908,0,1,1,.342-1.784q3.609.692,7.142,1.4a.909.909,0,0,1-.181,1.8A1.008,1.008,0,0,1,1115.215,459.451Zm-383.859-1.423a.907.907,0,0,1,.715-1.067q3.537-.7,7.152-1.367a.908.908,0,0,1,.33,1.786q-3.6.669-7.13,1.363a1,1,0,0,1-.178.017A.908.908,0,0,1,731.356,458.028Zm369.6-1.3q-3.538-.641-7.149-1.251a.908.908,0,1,1,.3-1.791q3.621.613,7.171,1.253a.908.908,0,0,1-.161,1.8A1.013,1.013,0,0,1,1100.953,456.726Zm-355.306-1.371a.908.908,0,0,1,.738-1.052q3.555-.62,7.176-1.216a.908.908,0,1,1,.295,1.791q-3.612.6-7.159,1.216a1.052,1.052,0,0,1-.158.013A.906.906,0,0,1,745.647,455.355Zm340.993-1.061q-3.56-.568-7.175-1.112a.909.909,0,0,1,.269-1.8q3.624.546,7.192,1.116a.908.908,0,0,1-.142,1.805A.865.865,0,0,1,1086.64,454.294Zm-326.651-1.32a.91.91,0,0,1,.758-1.038q3.567-.552,7.2-1.082a.908.908,0,1,1,.262,1.8q-3.621.526-7.18,1.08a.967.967,0,0,1-.141.011A.908.908,0,0,1,759.989,452.974Zm312.291-.84q-3.57-.507-7.2-.987a.909.909,0,1,1,.241-1.8q3.63.483,7.209.989a.908.908,0,1,1-.254,1.8Zm-297.908-1.275a.906.906,0,0,1,.777-1.023q3.579-.49,7.214-.958a.908.908,0,1,1,.23,1.8q-3.624.466-7.2.956a.861.861,0,0,1-.124.008A.907.907,0,0,1,774.372,450.859Zm283.512-.638q-3.582-.444-7.209-.868a.908.908,0,1,1,.208-1.8q3.636.422,7.225.87a.908.908,0,0,1-.112,1.809A.717.717,0,0,1,1057.884,450.221Zm-269.1-1.231a.908.908,0,0,1,.793-1.012q3.587-.432,7.227-.841a.909.909,0,1,1,.2,1.806q-3.63.407-7.214.84a.987.987,0,0,1-.11.006A.907.907,0,0,1,788.789,448.99Zm254.669-.449q-3.588-.39-7.223-.757a.909.909,0,1,1,.182-1.808q3.642.368,7.236.759a.909.909,0,0,1-.1,1.812A.831.831,0,0,1,1043.458,448.541ZM803.232,447.35a.905.905,0,0,1,.808-1q3.6-.378,7.239-.732a.908.908,0,1,1,.177,1.808q-3.635.354-7.227.729a.785.785,0,0,1-.1.006A.907.907,0,0,1,803.232,447.35Zm225.776-.27q-3.6-.339-7.232-.653a.908.908,0,1,1,.156-1.81q3.644.315,7.247.654a.909.909,0,0,1-.085,1.813A.825.825,0,0,1,1029.008,447.08ZM817.7,445.926a.911.911,0,0,1,.824-.987q3.6-.324,7.249-.627a.946.946,0,0,1,.979.83.909.909,0,0,1-.83.981q-3.635.3-7.235.626a.787.787,0,0,1-.084,0A.909.909,0,0,1,817.7,445.926Zm196.837-.1q-3.6-.287-7.241-.552a.908.908,0,1,1,.13-1.811q3.648.264,7.253.552a.908.908,0,0,1-.07,1.814C1014.586,445.829,1014.561,445.828,1014.538,445.826ZM832.187,444.71a.911.911,0,0,1,.838-.975q3.607-.276,7.256-.53a.909.909,0,0,1,.124,1.814q-3.637.252-7.242.528l-.071,0A.909.909,0,0,1,832.187,444.71Zm167.864.06q-3.608-.238-7.249-.456a.908.908,0,0,1,.108-1.813q3.648.218,7.263.457a.908.908,0,0,1-.061,1.814Zm-153.363-1.082a.907.907,0,0,1,.849-.962q3.618-.228,7.262-.433a.871.871,0,0,1,.957.854.906.906,0,0,1-.854.958q-3.64.207-7.251.433l-.057,0A.907.907,0,0,1,846.688,443.688Zm138.861.219q-3.61-.192-7.253-.363a.908.908,0,0,1,.085-1.814q3.648.169,7.265.362a.909.909,0,0,1-.048,1.816ZM861.2,442.857a.908.908,0,0,1,.863-.952q3.618-.178,7.267-.34a.884.884,0,0,1,.947.868.909.909,0,0,1-.869.947q-3.644.161-7.256.34h-.045A.91.91,0,0,1,861.2,442.857Zm109.84.371q-3.617-.147-7.257-.273a.908.908,0,0,1,.061-1.815q3.649.128,7.27.272a.909.909,0,0,1-.036,1.817Zm-95.318-1.016a.909.909,0,0,1,.875-.941q3.62-.135,7.268-.249a.908.908,0,1,1,.057,1.815q-3.643.112-7.257.249h-.035A.911.911,0,0,1,875.723,442.212Zm80.8.516q-3.62-.1-7.259-.183a.91.91,0,0,1-.889-.929.853.853,0,0,1,.927-.888q3.653.081,7.274.183a.909.909,0,0,1-.027,1.817Zm-66.271-.982a.91.91,0,0,1,.885-.932q3.625-.089,7.272-.161a.931.931,0,0,1,.927.891.908.908,0,0,1-.891.926q-3.642.07-7.261.162h-.024A.91.91,0,0,1,890.253,441.746Zm51.748.66q-3.62-.058-7.261-.1a.909.909,0,0,1,.009-1.817h.008q3.653.039,7.276.1a.908.908,0,0,1-.015,1.816Zm-37.214-.95a.908.908,0,0,1,.9-.921q3.626-.048,7.272-.074h.007a.908.908,0,0,1,.007,1.816q-3.639.027-7.261.075H905.7A.91.91,0,0,1,904.787,441.456Zm22.707.8q-2.717-.015-5.447-.012h-1.814a.908.908,0,0,1,0-1.816l1.816,0q2.735,0,5.455.011a.909.909,0,0,1,0,1.818Z"/><path class="cls-5" d="M658.542,591.453c62.322-54.65,154.617-60.876,221.068-56.473a645.548,645.548,0,0,1,124.452,21.089c-37.6-87.552-103.237-133.73-152.189-157.117-54.271-25.93-100.348-30.307-100.808-30.347a2.716,2.716,0,0,1-.6-.124s-.01,0-.018,0c-.057-.018-.112-.053-.167-.074a3.519,3.519,0,0,1-.337-.15c-.07-.04-.138-.091-.206-.138a2.863,2.863,0,0,1-.262-.19c-.069-.059-.128-.124-.192-.189a2.826,2.826,0,0,1-.2-.235,2.19,2.19,0,0,1-.149-.217,2.633,2.633,0,0,1-.167-.3c-.02-.043-.05-.08-.069-.126s-.02-.073-.03-.106a3.7,3.7,0,0,1-.142-.553,1.464,1.464,0,0,1-.022-.255,2.348,2.348,0,0,1-.007-.313c0-.034,0-.068,0-.1s.02-.1.027-.147c.016-.1.034-.2.058-.3a2.5,2.5,0,0,1,.078-.255c.032-.087.068-.17.107-.256a2.5,2.5,0,0,1,.129-.24c.047-.079.1-.156.151-.229s.109-.141.168-.207a2.516,2.516,0,0,1,.2-.2,2.591,2.591,0,0,1,.2-.172c.073-.054.147-.105.224-.155s.173-.1.266-.14c.046-.023.087-.052.133-.072,128.448-52.765,234.085-42.325,300.086-24.275a391.344,391.344,0,0,1,83.989,33.622c19.215,10.539,29.438,18.559,29.863,18.895a2.836,2.836,0,1,1-3.516,4.451c-.4-.32-41.333-32.223-111.833-51.5-63.441-17.35-164.029-27.54-286.5,20.1a353.535,353.535,0,0,1,91.794,29.287c50.938,24.3,119.615,72.759,157.512,165.64a3,3,0,0,1,.18.748c0,.044.006.084.009.127a2.252,2.252,0,0,1,0,.385c0,.072-.013.144-.022.216-.017.11-.038.216-.063.32-.013.04-.015.08-.026.122s-.037.079-.05.117a2.8,2.8,0,0,1-.117.275c-.04.081-.08.161-.127.237s-.1.152-.158.229a2.348,2.348,0,0,1-.174.211c-.061.066-.125.126-.193.187a2.144,2.144,0,0,1-.218.18,2.191,2.191,0,0,1-.22.144,2.849,2.849,0,0,1-.267.142c-.04.017-.074.046-.112.061-.023.009-.047,0-.072.015a2.7,2.7,0,0,1-.851.18.939.939,0,0,1-.15,0,2.788,2.788,0,0,1-.843-.112c-.571-.18-57.945-17.836-129.048-22.53-65.34-4.317-156,1.738-216.836,55.085a2.827,2.827,0,0,1-2.74.565,2.8,2.8,0,0,1-1.259-.827A2.836,2.836,0,0,1,658.542,591.453Z"/><path class="cls-2" d="M659.539,596.283a2.836,2.836,0,0,0,2.986-.806c59.634-66.706,150.177-72.034,215.63-64.756,71.3,7.926,129.17,32.105,129.748,32.344a2.836,2.836,0,0,0,3.919-2.953c-9.4-77.98-57.5-136.818-139.092-170.149-45.792-18.71-90.507-24.536-110.476-26.291,53.543-25.082,107.02-39.447,159.108-42.732a354.111,354.111,0,0,1,128.554,15.229c70.04,21.891,110.166,59.146,110.562,59.521a2.837,2.837,0,0,0,3.885-4.134c-.418-.394-10.45-9.765-29.429-22.009a345.972,345.972,0,0,0-83.323-38.794,359.826,359.826,0,0,0-130.605-15.475c-55.979,3.529-113.492,19.665-170.942,47.957a2.837,2.837,0,0,0,1.175,5.38c.583.016,59.084,1.945,119.492,26.66,35.342,14.458,64.42,33.776,86.429,57.415,26.4,28.36,42.673,63.108,48.4,103.338-15.105-5.841-66.082-24.181-126.644-30.93C783.088,514.414,706.8,537.441,658.3,591.692a2.839,2.839,0,0,0,.223,4.007A2.791,2.791,0,0,0,659.539,596.283Z"/><path class="cls-6" d="M1131.208,347.505c0,16.35,29.606,55.051,29.606,55.051s29.6-38.7,29.6-55.051a29.6,29.6,0,1,0-59.209,0Zm13.456,0a16.149,16.149,0,1,1,16.15,16.148A16.148,16.148,0,0,1,1144.664,347.505Z"/><path class="cls-6" d="M724.9,318.727c0,16.35,29.6,55.051,29.6,55.051s29.605-38.7,29.605-55.051a29.6,29.6,0,1,0-59.209,0Zm13.455,0a16.15,16.15,0,1,1,16.149,16.148A16.15,16.15,0,0,1,738.358,318.727Z"/><path class="cls-6" d="M980.472,513c0,16.346,29.607,55.05,29.607,55.05s29.6-38.7,29.6-55.05a29.605,29.605,0,0,0-59.21,0Zm13.454,0a16.15,16.15,0,1,1,16.153,16.147A16.15,16.15,0,0,1,993.926,513Z"/><path class="cls-6" d="M630.228,546.637c0,16.352,29.6,55.053,29.6,55.053s29.605-38.7,29.605-55.053a29.6,29.6,0,0,0-59.209,0Zm13.456,0a16.149,16.149,0,1,1,16.148,16.149A16.148,16.148,0,0,1,643.684,546.637Z"/><path class="cls-7" d="M1144.165,262.516s77.068,2.962,107.674,6.925c0,0,19.085,13.238,22.679,21.269,0,0-119.566-20.711-124.973-22.023S1139.772,262.337,1144.165,262.516Z"/><path class="cls-8" d="M1230.243,278.278c3.161.343,5.254,4.944,4.674,10.273s-3.614,9.373-6.776,9.03l-17.628-.491c-4.081-.445-6.779-6.384-6.03-13.264s4.662-12.1,8.743-11.651Z"/><path class="cls-9" d="M1204.483,283.826c-.749,6.88,1.949,12.819,6.03,13.264s7.994-4.774,8.743-11.654-1.952-12.818-6.03-13.261S1205.233,276.945,1204.483,283.826Z"/><path class="cls-10" d="M1206.844,284.084c-.507,4.681,1.329,8.721,4.1,9.022s5.441-3.245,5.95-7.926-1.328-8.721-4.1-9.023S1207.355,279.4,1206.844,284.084Z"/><path class="cls-4" d="M1410.171,328.345c-6.848,4.795-62.143-5.062-88.3-11.248s-143.413-75.923-165.064-88.578,40.774-21.933,61.863-10.966,140.6,75.361,148.192,78.735,71.986-14.9,75.642-16.028,15.749,4.78,11.81,8.154S1412.985,326.377,1410.171,328.345Z"/><path class="cls-11" d="M1168.467,214.769c.112,19.5,106.579,76.812,149.9,94.1,35.66,14.23,77.943,15.856,96.043,15.826-2.211,1.971-3.755,3.309-4.244,3.65-6.848,4.795-62.143-5.062-88.3-11.248s-143.413-75.923-165.064-88.578C1146.762,222.646,1154.831,217.5,1168.467,214.769Z"/><path class="cls-7" d="M1447.852,271.153s-92.514,14.731-129.913,17.261c0,0-25.87-11.248-32.057-19.964,0,0,147.347-3.656,154.1-3.374S1453.126,270.323,1447.852,271.153Z"/><path class="cls-7" d="M1399.76,307.124c24.845-.551,44.852-.944,47.24-.845,6.749.282,13.146,5.247,7.874,6.077,0,0-14.449,2.3-34.232,5.239A59.819,59.819,0,0,1,1399.76,307.124Z"/><path class="cls-8" d="M1356.112,284.693c3.06.865,4.358,5.75,2.9,10.909s-5.125,8.64-8.185,7.775l-17.3-3.417c-3.949-1.116-5.622-7.422-3.737-14.082s6.61-11.152,10.558-10.035Z"/><path class="cls-9" d="M1329.788,285.878c-1.885,6.66-.212,12.966,3.737,14.082s8.68-3.376,10.563-10.036.208-12.964-3.742-14.081S1331.67,279.219,1329.788,285.878Z"/><path class="cls-10" d="M1332.074,286.525c-1.283,4.531-.146,8.821,2.544,9.58s5.9-2.3,7.184-6.828.141-8.818-2.545-9.578S1333.354,282,1332.074,286.525Z"/><path class="cls-9" d="M1209.6,228.136c-2.218-.74-17.885-10.24-26.048-15.234a111.342,111.342,0,0,1,20,.543L1229,228.365S1212.624,229.144,1209.6,228.136Z"/><path class="cls-12" d="M1235.121,766.682h122.743a9.717,9.717,0,0,1,9.07,6.261h221.842a9.739,9.739,0,0,1,9.737,9.738v11.354a9.736,9.736,0,0,1-9.737,9.738s-225.532,47.232-230.912,47.232H1235.121a9.739,9.739,0,0,1-9.738-9.74V776.42A9.738,9.738,0,0,1,1235.121,766.682Z"/><path class="cls-9" d="M1235.121,766.682h122.744a9.739,9.739,0,0,1,9.739,9.739v64.846a9.738,9.738,0,0,1-9.738,9.738H1235.121a9.738,9.738,0,0,1-9.738-9.738V776.42A9.738,9.738,0,0,1,1235.121,766.682Z"/><path class="cls-13" d="M1179.043,567.864h145.945a9.574,9.574,0,0,1,2.684.42l285.772,44.909a9.733,9.733,0,0,1,9.736,9.736v148.3a9.735,9.735,0,0,1-9.736,9.735l-288.456,12.949H1179.043a9.735,9.735,0,0,1-9.737-9.736V577.6A9.736,9.736,0,0,1,1179.043,567.864Z"/><path class="cls-14" d="M1605.253,611.9l8.191,1.289a9.733,9.733,0,0,1,9.736,9.736v148.3a9.735,9.735,0,0,1-9.736,9.735l-287.4,12.9C1477.217,753.062,1568.989,657.084,1605.253,611.9Z"/><path class="cls-8" d="M1179.041,567.864h145.947a9.737,9.737,0,0,1,9.737,9.737V784.176a9.738,9.738,0,0,1-9.738,9.738H1179.044a9.738,9.738,0,0,1-9.738-9.738V577.6A9.736,9.736,0,0,1,1179.041,567.864Z"/><path class="cls-4" d="M1098.665,635.293a9.737,9.737,0,0,1,9.736-9.741h199.514a9.739,9.739,0,0,1,9.738,9.741V784.206a9.735,9.735,0,0,1-9.738,9.736h-89.16v39.1a9.736,9.736,0,0,1-9.737,9.736H1091.33a9.738,9.738,0,0,1-9.741-9.736v-91.2C1081.589,736.461,1098.665,635.293,1098.665,635.293Z"/><path class="cls-11" d="M1237.593,793.942h70.322a9.735,9.735,0,0,0,9.738-9.736V635.293a9.739,9.739,0,0,0-9.738-9.741h-70.322Z"/><path class="cls-15" d="M1101.169,757.267h84.61a9.736,9.736,0,0,1,9.736,9.736v63.737a9.739,9.739,0,0,1-9.739,9.739h-84.606a9.736,9.736,0,0,1-9.736-9.736V767a9.736,9.736,0,0,1,9.736-9.736Z"/><g class="cls-16"><path class="cls-17" d="M1097.6,764.291h91.761a1.623,1.623,0,0,0,0-3.246H1097.6a1.623,1.623,0,0,0,0,3.246Z"/><path class="cls-17" d="M1097.6,772.943h91.761a1.623,1.623,0,0,0,0-3.245H1097.6a1.623,1.623,0,1,0,0,3.245Z"/><path class="cls-17" d="M1097.6,781.6h91.761a1.622,1.622,0,0,0,0-3.243H1097.6a1.622,1.622,0,1,0,0,3.243Z"/><path class="cls-17" d="M1097.6,790.253h91.761a1.624,1.624,0,0,0,0-3.248H1097.6a1.624,1.624,0,0,0,0,3.248Z"/><path class="cls-17" d="M1097.6,798.905h91.761a1.624,1.624,0,0,0,0-3.247H1097.6a1.624,1.624,0,0,0,0,3.247Z"/><path class="cls-17" d="M1097.6,807.558h91.761a1.623,1.623,0,0,0,0-3.245H1097.6a1.623,1.623,0,1,0,0,3.245Z"/><path class="cls-17" d="M1097.6,816.212h91.761a1.624,1.624,0,0,0,0-3.247H1097.6a1.624,1.624,0,0,0,0,3.247Z"/><path class="cls-17" d="M1097.6,824.865h91.761a1.624,1.624,0,0,0,0-3.247H1097.6a1.624,1.624,0,0,0,0,3.247Z"/><path class="cls-17" d="M1097.6,833.52h91.761a1.624,1.624,0,0,0,0-3.248H1097.6a1.624,1.624,0,0,0,0,3.248Z"/></g><path class="cls-9" d="M1082.086,789.076h6.839a9.736,9.736,0,0,1,9.74,9.736v38.614h90.742V798.812a9.733,9.733,0,0,1,9.736-9.736h41.6a9.735,9.735,0,0,1,9.738,9.736v56.359a9.739,9.739,0,0,1-9.738,9.74H1082.086a9.736,9.736,0,0,1-9.736-9.74V798.812A9.733,9.733,0,0,1,1082.086,789.076Z"/><path class="cls-12" d="M1210.022,855.171V798.812a9.735,9.735,0,0,0-9.738-9.736h40.46a9.735,9.735,0,0,1,9.738,9.736v56.359a9.739,9.739,0,0,1-9.738,9.74h-40.46A9.739,9.739,0,0,0,1210.022,855.171Z"/><rect class="cls-18" x="1200.284" y="821.618" width="25.099" height="29.387" rx="9.738" ry="9.738"/><path class="cls-18" d="M1066.336,841.265a9.738,9.738,0,0,0,9.736,9.74h5.624a9.739,9.739,0,0,0,9.738-9.74v-9.907a9.74,9.74,0,0,0-9.738-9.74h-5.624a9.739,9.739,0,0,0-9.736,9.74Z"/><path class="cls-19" d="M1223.4,669.138a9.737,9.737,0,0,1,9.738,9.738v40.6a9.736,9.736,0,0,1-9.738,9.736H1083.29c2.247-14.783,6.322-39.625,9.716-60.072Z"/><path class="cls-20" d="M1223.4,669.138a9.737,9.737,0,0,1,9.738,9.738v40.6a9.736,9.736,0,0,1-9.738,9.736H1083.29Z"/><path class="cls-15" d="M1283.318,804.313H1293.4c8.714,0,15.779,15.138,15.779,33.815s-7.065,33.815-15.779,33.815h-10.086c-8.717,0-15.779-15.139-15.779-33.815S1274.6,804.313,1283.318,804.313Z"/><path class="cls-21" d="M1277.624,838.128c0,18.676,7.063,33.815,15.78,33.815s15.779-15.139,15.779-33.815-7.065-33.815-15.779-33.815S1277.624,819.451,1277.624,838.128Z"/><path class="cls-22" d="M1285.888,838.128c0,8.893,3.363,16.1,7.516,16.1s7.515-7.212,7.515-16.1-3.366-16.105-7.515-16.105S1285.888,829.235,1285.888,838.128Z"/><path class="cls-15" d="M1391.725,794.583h9.034c7.8,0,14.127,13.558,14.127,30.282s-6.327,30.28-14.127,30.28h-9.034c-7.8,0-14.128-13.557-14.128-30.28S1383.921,794.583,1391.725,794.583Z"/><path class="cls-21" d="M1386.628,824.865c0,16.723,6.323,30.28,14.131,30.28s14.127-13.557,14.127-30.28-6.327-30.282-14.127-30.282S1386.628,808.141,1386.628,824.865Z"/><path class="cls-22" d="M1394.026,824.865c0,7.966,3.014,14.424,6.733,14.424s6.73-6.458,6.73-14.424-3.016-14.422-6.73-14.422S1394.026,816.9,1394.026,824.865Z"/><path class="cls-15" d="M1516.761,794.583h6.105c5.274,0,9.55,9.164,9.55,20.468s-4.276,20.469-9.55,20.469h-6.105c-5.274,0-9.551-9.167-9.551-20.469S1511.487,794.583,1516.761,794.583Z"/><ellipse class="cls-21" cx="1522.866" cy="815.051" rx="9.551" ry="20.468"/><path class="cls-22" d="M1518.317,815.051c0,5.384,2.036,9.747,4.549,9.747s4.548-4.363,4.548-9.747-2.038-9.748-4.548-9.748S1518.317,809.666,1518.317,815.051Z"/><path class="cls-15" d="M1545.02,791.282h5.718c4.936,0,8.938,8.581,8.938,19.161s-4,19.162-8.938,19.162h-5.718c-4.936,0-8.939-8.583-8.939-19.162S1540.084,791.282,1545.02,791.282Z"/><path class="cls-21" d="M1541.8,810.443c0,10.579,4,19.162,8.942,19.162s8.938-8.583,8.938-19.162-4-19.161-8.938-19.161S1541.8,799.863,1541.8,810.443Z"/><path class="cls-22" d="M1546.477,810.443c0,5.039,1.9,9.125,4.261,9.125s4.256-4.086,4.256-9.125-1.907-9.131-4.256-9.131S1546.477,805.4,1546.477,810.443Z"/><path class="cls-15" d="M1570,789.076h4.843c4.178,0,7.569,7.264,7.569,16.227s-3.391,16.224-7.569,16.224H1570c-4.178,0-7.569-7.266-7.569-16.224S1565.826,789.076,1570,789.076Z"/><path class="cls-21" d="M1567.275,805.3c0,8.958,3.388,16.224,7.572,16.224s7.569-7.266,7.569-16.224-3.391-16.227-7.569-16.227S1567.275,796.34,1567.275,805.3Z"/><path class="cls-22" d="M1571.24,805.3c0,4.265,1.613,7.725,3.607,7.725s3.6-3.46,3.6-7.725-1.616-7.732-3.6-7.732S1571.24,801.035,1571.24,805.3Z"/><rect class="cls-23" x="483.406" y="584.831" width="74.248" height="62.859"/><rect class="cls-24" x="520.53" y="584.831" width="37.124" height="62.859"/><rect class="cls-25" x="497.475" y="584.831" width="4.428" height="21.928"/><rect class="cls-25" x="539.091" y="584.831" width="4.429" height="21.928"/><rect class="cls-26" x="454.558" y="618.324" width="54.508" height="27.42"/><rect class="cls-27" x="471.944" y="618.324" width="37.122" height="27.42"/><rect class="cls-28" x="461.209" y="618.324" width="4.428" height="9.566"/><rect class="cls-28" x="487.537" y="618.324" width="4.429" height="9.566"/><rect class="cls-29" x="434.789" y="643.932" width="137.007" height="85.474"/><rect class="cls-30" x="503.293" y="643.932" width="68.503" height="85.474"/><rect class="cls-31" x="460.747" y="643.932" width="8.173" height="29.815"/><rect class="cls-31" x="537.545" y="643.932" width="8.17" height="29.815"/><rect class="cls-26" x="513.365" y="676.361" width="64.748" height="49.033"/><rect class="cls-27" x="541.629" y="676.361" width="36.485" height="49.033"/><rect class="cls-28" x="522.758" y="676.361" width="6.253" height="13.509"/><rect class="cls-28" x="559.945" y="676.361" width="6.255" height="13.509"/><rect class="cls-23" x="400.343" y="725.394" width="194.26" height="146.549"/><rect class="cls-13" x="497.475" y="725.394" width="97.129" height="146.549"/><rect class="cls-25" x="437.149" y="725.394" width="11.591" height="51.122"/><rect class="cls-25" x="546.038" y="725.394" width="11.591" height="51.122"/><path class="cls-4" d="M682.271,386.58a36.609,36.609,0,0,0-63.758-20.38,53.151,53.151,0,0,0-104.007-10.634,45.109,45.109,0,0,0-61.412,42.057c0,.047,0,.093,0,.14H697.067A20.186,20.186,0,0,0,682.271,386.58Z"/><path class="cls-4" d="M425.958,448.068a26.472,26.472,0,0,0-11.35,2.543c.026-.593.044-1.191.044-1.791a38.582,38.582,0,0,0-72.341-18.682A32.756,32.756,0,0,0,296.82,460.3c0,1.044.053,2.075.149,3.095h153.07A26.58,26.58,0,0,0,425.958,448.068Z"/><path class="cls-4" d="M1390.1,499.535a32.165,32.165,0,0,0-14.858,3.635,58.823,58.823,0,0,0-110.438.334,32.331,32.331,0,0,0-46.773,20.08h203.317A32.35,32.35,0,0,0,1390.1,499.535Z"/></g><g id="logo_left" data-name="logo left"><polygon class="cls-4" points="310.992 96.015 310.992 119.259 307.674 119.259 307.674 108.895 294.331 108.895 294.331 119.259 291.012 119.259 291.012 96.015 294.331 96.015 294.331 106.012 307.674 106.012 307.674 96.015 310.992 96.015"/><path class="cls-4" d="M331.6,110.792l-5.013-11.387-5.012,11.387Zm1.161,2.656H320.414l-2.558,5.811h-3.414l10.522-23.244h3.283L338.8,119.259h-3.484l-2.559-5.811Z"/><path class="cls-4" d="M357.693,104.115c0-3.32-2.227-5.216-6.471-5.216h-5.641v10.459h5.641C355.466,109.358,357.693,107.436,357.693,104.115Zm.1,15.144-5.012-7.139c-.463.035-.961.07-1.459.07h-5.737v7.069h-3.318V96.015h9.055c6.043,0,9.693,3.058,9.693,8.1a7.344,7.344,0,0,1-5.108,7.341l5.51,7.8h-3.624Z"/><polygon class="cls-4" points="387.925 119.259 387.89 102.324 379.498 116.437 377.97 116.437 369.578 102.42 369.578 119.259 366.39 119.259 366.39 96.015 369.115 96.015 378.808 112.356 388.361 96.015 391.086 96.015 391.121 119.259 387.933 119.259 387.925 119.259"/><path class="cls-4" d="M417.562,107.637a9.025,9.025,0,1,0-8.994,8.931A8.724,8.724,0,0,0,417.562,107.637Zm-21.368,0c0-6.807,5.24-11.884,12.374-11.884s12.313,5.051,12.313,11.884-5.24,11.884-12.313,11.884S396.194,114.444,396.194,107.637Z"/><polygon class="cls-4" points="445.943 96.015 445.943 119.259 443.218 119.259 429.281 101.922 429.281 119.259 425.963 119.259 425.963 96.015 428.688 96.015 442.625 113.352 442.625 96.015 445.943 96.015"/><polygon class="cls-4" points="461.809 111.22 461.809 119.259 458.526 119.259 458.526 111.159 449.305 96.015 452.859 96.015 460.29 108.266 467.756 96.015 471.04 96.015 461.809 111.22"/><path class="cls-4" d="M248.259,104.787a11.135,11.135,0,0,1,9.308,5.532,15.647,15.647,0,0,1,1.939,4.631c.437,1.853.244,3.793.672,5.645a7.72,7.72,0,0,0,15.3-1.494c0-4.282-3.371-7.279-7.423-7.742a12.8,12.8,0,0,1-7.309-2.788c-3.537-2.849-4.759-6.615-4.759-11.692,0-4.334-3.3-8.4-7.816-8.345s-7.641,4.011-7.641,8.336c0,5.077-1.222,8.844-4.759,11.692a12.739,12.739,0,0,1-7.309,2.788c-4.052.463-7.422,3.521-7.422,7.742a7.719,7.719,0,0,0,15.3,1.494c.428-1.852.236-3.792.672-5.645,1.24-5.243,5.545-10.145,11.248-10.171Z"/></g></g></svg>