<svg xmlns="http://www.w3.org/2000/svg" viewBox="0 0 1920 1080"><defs><style>.cls-1{fill:#0f1854;}.cls-2{fill:#fffefa;}.cls-3{fill:#fff;}.cls-4{fill:#fb4d3d;}.cls-5{fill:#aeb8fe;}.cls-6{fill:#fef9e6;}.cls-7{fill:#45ebc4;}.cls-8{fill:#31e9be;opacity:0.07;}.cls-9{fill:#2f49ed;}.cls-10,.cls-12{fill:#0de5b2;}.cls-10{opacity:0.1;}.cls-11{fill:#2b45ed;}.cls-13{fill:#8a99f5;}.cls-14{fill:#586cf1;}.cls-15{fill:#69efcf;opacity:0.28;}.cls-16{fill:#64eece;}.cls-17{fill:#808ff4;}</style></defs><title>27- Climate data harmonization in practice</title><g id="_27:_Climate_data_harmonization_in_practice" data-name="27: Climate data harmonization in practice"><rect class="cls-1" width="1920" height="1080"/><circle class="cls-2" cx="494.346" cy="621.611" r="47.411"/><path class="cls-2" d="M494.346,645.138a23.528,23.528,0,0,1-23.526-23.527V342.19a23.527,23.527,0,0,1,47.053,0V621.611A23.528,23.528,0,0,1,494.346,645.138Z"/><path class="cls-3" d="M494.346,627.877A10.783,10.783,0,0,1,483.563,617.1V344.69a10.783,10.783,0,0,1,21.566,0V617.1A10.783,10.783,0,0,1,494.346,627.877Z"/><circle class="cls-4" cx="494.346" cy="621.611" r="34.987"/><path class="cls-4" d="M483.563,402.745V617.1a10.783,10.783,0,0,0,21.566,0V402.745Z"/><path class="cls-2" d="M648.666,364.7a40.592,40.592,0,0,1,5.873.473,47.541,47.541,0,0,1,71.591-39.1,52.526,52.526,0,0,1,101.918,11.076,54.526,54.526,0,1,1,8.821,108.522v.071H649.5V445.7c-.278.006-.549.042-.829.042a40.522,40.522,0,0,1,0-81.044Z"/><polygon class="cls-5" points="1271.873 567.415 1348.394 567.612 1165.019 386.666 1114.896 427.795 1009.308 333.881 894.412 448.778 804.529 365.361 621.558 566.576 776.206 566.985 775.582 567.609 1078.305 567.609 1079.533 567.612 1079.529 567.609 1272.092 567.609 1271.873 567.415"/><polygon class="cls-5" points="962.62 380.57 894.412 448.778 918.169 474.567 890.186 512.429 951.279 553.846 956.068 503.185 1018.331 461.032 973.084 428.547 1009.3 333.881 962.62 380.57"/><polygon class="cls-5" points="1114.896 427.795 1093.743 449.043 1055.079 490.143 1108.52 524.261 1045.448 590.392 1214.401 593.679 1165.036 538.377 1165.036 491.583 1139.763 465.672 1165.036 386.607 1114.896 427.795"/><polygon class="cls-5" points="621.558 566.576 703.342 537.604 684.835 569.145 853.789 572.432 821.68 521.721 791.516 479.015 823.984 433.767 804.423 365.361 621.558 566.576"/><polygon class="cls-2" points="1296.654 370.249 1303.719 571.571 1279.642 571.571 1287.384 370.249 1296.654 370.249"/><polygon class="cls-6" points="1296.654 370.249 1303.719 571.571 1291.681 571.571 1291.681 371.617 1296.654 370.249"/><polygon class="cls-2" points="1291.681 357.869 1283.201 347.16 1286.391 277.894 1291.681 274.84 1291.681 357.869"/><polygon class="cls-6" points="1291.681 357.869 1300.16 347.16 1296.97 277.894 1291.681 274.84 1291.681 357.869"/><polygon class="cls-6" points="1285.742 365.976 1279.651 378.203 1215.593 404.746 1210.581 401.256 1285.742 365.976"/><polygon class="cls-2" points="1285.742 365.976 1272.445 362.85 1211.098 395.169 1210.581 401.256 1285.742 365.976"/><polygon class="cls-2" points="1297.733 367.189 1310.685 362.85 1374.75 389.377 1375.826 395.39 1297.733 367.189"/><polygon class="cls-6" points="1297.733 367.189 1304.925 378.802 1371.157 399.328 1375.826 395.39 1297.733 367.189"/><circle class="cls-2" cx="1291.681" cy="364.932" r="8.658"/><path class="cls-7" d="M1296.573,364.932a4.893,4.893,0,1,1-4.892-4.892A4.893,4.893,0,0,1,1296.573,364.932Z"/><polygon class="cls-8" points="1198.46 380.431 1199.356 398.838 1182.673 394.167 1183.665 374.253 1198.46 380.431"/><polygon class="cls-8" points="1128.624 430.108 1128.835 436.297 1135.264 432.858 1137.977 433.981 1158.072 442.34 1142.743 448.726 1139.742 447.8 1129.373 452.095 1126.538 453.259 1111.361 439.005 1108.336 438.067 1109.074 422.013 1128.624 430.108"/><polygon class="cls-2" points="1195.88 423.63 1202.945 567.335 1178.867 567.335 1186.609 423.63 1195.88 423.63"/><polygon class="cls-6" points="1195.88 423.63 1202.945 567.335 1190.906 567.335 1190.906 424.997 1195.88 423.63"/><polygon class="cls-2" points="1190.906 411.25 1182.426 400.541 1185.616 331.275 1190.906 328.221 1190.906 411.25"/><polygon class="cls-6" points="1190.906 411.25 1199.386 400.541 1196.196 331.275 1190.906 328.221 1190.906 411.25"/><polygon class="cls-6" points="1184.968 419.357 1178.876 431.584 1114.819 458.127 1109.806 454.636 1184.968 419.357"/><polygon class="cls-2" points="1184.968 419.357 1171.67 416.231 1110.323 448.55 1109.806 454.636 1184.968 419.357"/><polygon class="cls-2" points="1196.958 420.569 1209.911 416.231 1273.976 442.758 1275.052 448.771 1196.958 420.569"/><polygon class="cls-6" points="1196.958 420.569 1204.15 432.183 1270.382 452.709 1275.052 448.771 1196.958 420.569"/><path class="cls-2" d="M1199.564,418.313a8.658,8.658,0,1,1-8.658-8.658A8.658,8.658,0,0,1,1199.564,418.313Z"/><path class="cls-7" d="M1195.8,418.313a4.892,4.892,0,1,1-4.892-4.892A4.892,4.892,0,0,1,1195.8,418.313Z"/><polygon class="cls-8" points="1128.918 438.753 1129.693 451.964 1126.538 453.259 1126.055 440.262 1128.918 438.753"/><polygon class="cls-8" points="1198.458 380.11 1199.327 399.274 1182.746 393.675 1183.666 373.693 1198.458 380.11"/><polygon class="cls-2" points="1123.438 366.013 1130.503 567.335 1106.426 567.335 1114.167 366.013 1123.438 366.013"/><polygon class="cls-6" points="1123.438 366.013 1130.503 567.335 1118.465 567.335 1118.465 367.381 1123.438 366.013"/><polygon class="cls-2" points="1118.465 353.633 1109.985 342.924 1113.175 273.658 1118.465 270.604 1118.465 353.633"/><polygon class="cls-6" points="1118.465 353.633 1126.944 342.924 1123.754 273.658 1118.465 270.604 1118.465 353.633"/><polygon class="cls-6" points="1112.526 361.74 1106.435 373.967 1042.377 400.51 1037.365 397.02 1112.526 361.74"/><polygon class="cls-2" points="1112.526 361.74 1099.229 358.614 1037.882 390.933 1037.365 397.02 1112.526 361.74"/><polygon class="cls-2" points="1124.517 362.953 1137.469 358.614 1201.534 385.141 1202.61 391.154 1124.517 362.953"/><polygon class="cls-6" points="1124.517 362.953 1131.709 374.566 1197.941 395.092 1202.61 391.154 1124.517 362.953"/><circle class="cls-2" cx="1118.465" cy="360.696" r="8.658"/><path class="cls-7" d="M1123.357,360.7a4.893,4.893,0,1,1-4.892-4.892A4.893,4.893,0,0,1,1123.357,360.7Z"/><path class="cls-3" d="M1126.48,898.942q-4.9,2.01-9.864,3.891Q1121.586,900.963,1126.48,898.942Z"/><path class="cls-3" d="M1116.439,902.9q-5.177,1.946-10.431,3.732Q1111.26,904.842,1116.439,902.9Z"/><path class="cls-3" d="M1148.21,889.191q-9.9,4.842-20.129,9.089Q1138.3,894.029,1148.21,889.191Z"/><path class="cls-3" d="M1024.243,924.337q-5.364.528-10.773.892Q1018.878,924.858,1024.243,924.337Z"/><path class="cls-3" d="M1047.138,921.343q-4.5.731-9.034,1.35Q1042.639,922.072,1047.138,921.343Z"/><path class="cls-3" d="M1070.215,916.815q-4.266.981-8.571,1.862Q1065.949,917.8,1070.215,916.815Z"/><path class="cls-3" d="M1158.147,884.131q-4.687,2.475-9.453,4.819Q1153.461,886.609,1158.147,884.131Z"/><path class="cls-3" d="M1104.449,907.153q-4.383,1.473-8.816,2.837Q1100.066,908.625,1104.449,907.153Z"/><path class="cls-3" d="M1093.525,910.638q-10.286,3.1-20.82,5.6Q1083.237,913.74,1093.525,910.638Z"/><path class="cls-3" d="M1035.1,923.092q-4.5.577-9.033,1.047Q1030.6,923.671,1035.1,923.092Z"/><path class="cls-3" d="M1010.733,925.393q-4.215.258-8.456.42Q1006.518,925.651,1010.733,925.393Z"/><path class="cls-3" d="M999.154,925.925c-3.652.108-7.313.182-10.991.182C991.841,926.107,995.5,926.033,999.154,925.925Z"/><path class="cls-3" d="M1352.32,567.444c.145,2.294.271,4.592.363,6.9q.12-3.442.189-6.9Z"/><path class="cls-3" d="M1178.462,872.564q-9.557,5.859-19.494,11.135Q1168.9,878.425,1178.462,872.564Z"/><path class="cls-3" d="M1059.411,919.138q-5.277,1.044-10.607,1.943Q1054.135,920.189,1059.411,919.138Z"/><path class="cls-9" d="M1351.663,592.13c.043-2.059,1.173-13.93,1.02-17.788q-.309,8.777-1.02,17.444Z"/><path class="cls-7" d="M789.842,586.592c2.476,8.94,11.242,15.388,21.588,15.883l88.912,4.247c17.493.836,31.65,12.945,33.257,28.444l6.744,65.059a37.39,37.39,0,0,0,4.326,13.969c7.492,13.887,24.96,45.454,34.671,56.366,12.5,14.051,43.3,14.607,53.686,6.208l72.291-52.561a30.468,30.468,0,0,0,11.167-18.668l8.469-51.62,57.406-56.211c5.591-5.477,3.08-13.875-4.036-16.588l-1.028.612a33.723,33.723,0,0,1-14.571,4.575c-.92.071-1.838.113-2.758.113-10.641,0-20.511-4.8-26.245-12.907l-4.3-6.069H784.537Z"/><path class="cls-7" d="M1318.664,567.444l6.235,10.244a23.084,23.084,0,0,0,13.527,9.967l13.237,4.131q.716-8.665,1.02-17.444c-.092-2.306-.218-4.6-.363-6.9Z"/><path class="cls-7" d="M1185.478,696.469c-5.37-3.663-12.411-3.528-16.582,1.436l-30.888,36.772a11.768,11.768,0,0,0,1.436,16.581c2.207,1.85,4.931,2.325,7.561,2.758,16.544,2.72,29.817-8.806,33.245-12.909C1180.25,741.107,1197.988,705,1185.478,696.469Z"/><path class="cls-10" d="M1002.277,925.813c-1.04.039-2.08.082-3.123.112C1000.2,925.9,1001.237,925.852,1002.277,925.813Z"/><path class="cls-10" d="M1048.8,921.081c-.554.092-1.111.171-1.666.262C1047.693,921.252,1048.25,921.173,1048.8,921.081Z"/><path class="cls-10" d="M1013.47,925.229c-.911.062-1.825.109-2.737.164C1011.645,925.338,1012.559,925.291,1013.47,925.229Z"/><path class="cls-10" d="M1026.068,924.139c-.609.063-1.215.138-1.825.2C1024.853,924.277,1025.459,924.2,1026.068,924.139Z"/><path class="cls-10" d="M1038.1,922.693q-1.5.206-3,.4Q1036.6,922.9,1038.1,922.693Z"/><path class="cls-10" d="M1178.779,872.368l-.317.2Z"/><path class="cls-10" d="M1128.081,898.28q-.8.333-1.6.662Q1127.281,898.612,1128.081,898.28Z"/><path class="cls-10" d="M1116.616,902.833l-.177.068Z"/><path class="cls-10" d="M1148.694,888.95c-.162.079-.322.161-.484.241C1148.372,889.111,1148.532,889.029,1148.694,888.95Z"/><path class="cls-10" d="M1158.968,883.7c-.273.145-.547.288-.821.432C1158.421,883.987,1158.7,883.844,1158.968,883.7Z"/><path class="cls-10" d="M1072.705,916.239c-.828.2-1.66.385-2.49.576C1071.045,916.624,1071.877,916.436,1072.705,916.239Z"/><path class="cls-10" d="M1061.644,918.677c-.744.152-1.486.312-2.233.461C1060.158,918.989,1060.9,918.829,1061.644,918.677Z"/><path class="cls-10" d="M1095.633,909.99c-.7.216-1.4.436-2.108.648C1094.229,910.426,1094.93,910.206,1095.633,909.99Z"/><path class="cls-10" d="M1106.008,906.633c-.518.177-1.04.345-1.559.52C1104.968,906.978,1105.49,906.81,1106.008,906.633Z"/><path class="cls-3" d="M1298.885,752.421a363.007,363.007,0,0,1-191.092,54.055c-157.269,0-291.289-99.528-342.519-239.032H623.464c3.268,198.637,165.283,358.663,364.7,358.663,3.678,0,7.339-.074,10.991-.182,1.043-.03,2.083-.073,3.123-.112q4.24-.162,8.456-.42c.912-.055,1.826-.1,2.737-.164q5.408-.371,10.773-.892c.61-.06,1.216-.135,1.825-.2q4.533-.468,9.033-1.047,1.5-.193,3-.4,4.534-.621,9.034-1.35c.555-.091,1.112-.17,1.666-.262q5.331-.893,10.607-1.943c.747-.149,1.489-.309,2.233-.461q4.3-.882,8.571-1.862c.83-.191,1.662-.38,2.49-.576q10.53-2.5,20.82-5.6c.7-.212,1.4-.432,2.108-.648q4.431-1.365,8.816-2.837c.519-.175,1.041-.343,1.559-.52q5.25-1.793,10.431-3.732l.177-.068q4.97-1.872,9.864-3.891.8-.329,1.6-.662,10.223-4.251,20.129-9.089c.162-.08.322-.162.484-.241q4.767-2.341,9.453-4.819c.274-.144.548-.287.821-.432q9.931-5.275,19.494-11.135l.317-.2A366.79,366.79,0,0,0,1298.885,752.421ZM694.659,670.9l-10.181,92.5a362.607,362.607,0,0,1-59.665-170.777l62.8,58.723A23.528,23.528,0,0,1,694.659,670.9Z"/><path class="cls-11" d="M1253.643,811.422q3.471-3.684,6.843-7.459c.128-.144.252-.292.38-.436q3.353-3.771,6.6-7.632c.142-.169.279-.342.42-.511q3.217-3.84,6.334-7.767c.144-.181.282-.367.426-.548q3.091-3.918,6.081-7.919c.156-.209.306-.422.462-.631q2.951-3.975,5.8-8.027c.167-.237.328-.48.494-.718q2.806-4.023,5.512-8.119c.183-.278.359-.561.542-.84q2.653-4.053,5.206-8.177c.046-.073.094-.144.139-.217l-.011.006a362.5,362.5,0,0,0,52.789-160.641l-13.237-4.131a23.084,23.084,0,0,1-13.527-9.967l-6.235-10.244H1129.42l4.3,6.069c5.734,8.108,15.6,12.907,26.245,12.907.92,0,1.838-.042,2.758-.113a33.737,33.737,0,0,0,14.571-4.575l1.028-.613c7.116,2.714,9.627,11.112,4.035,16.589l-57.4,56.211-8.469,51.62a30.468,30.468,0,0,1-11.167,18.668l-72.291,52.561c-10.382,8.4-41.184,7.843-53.686-6.208-9.711-10.912-27.179-42.479-34.671-56.366a37.39,37.39,0,0,1-4.326-13.969L933.6,635.166c-1.607-15.5-15.764-27.608-33.257-28.444l-88.912-4.247c-10.346-.5-19.112-6.943-21.588-15.883l-5.3-19.148H623.464c3.268,198.637,165.283,358.663,364.7,358.663,3.678,0,7.339-.074,10.991-.182,1.043-.03,2.083-.073,3.123-.112q4.24-.162,8.456-.42c.912-.056,1.826-.1,2.737-.164q5.408-.371,10.773-.892c.61-.06,1.216-.135,1.825-.2q4.533-.468,9.033-1.047,1.5-.193,3-.4,4.534-.621,9.034-1.35c.555-.091,1.112-.17,1.666-.262q5.331-.893,10.607-1.944c.747-.148,1.489-.308,2.233-.461q4.3-.88,8.571-1.861c.83-.191,1.662-.38,2.49-.576q10.53-2.5,20.82-5.6c.7-.212,1.4-.432,2.108-.648q4.431-1.365,8.816-2.838c.519-.174,1.041-.342,1.559-.519q5.25-1.793,10.431-3.732c.059-.022.118-.046.177-.069q4.97-1.87,9.864-3.89l1.6-.662q10.223-4.252,20.129-9.089c.162-.08.322-.162.484-.241q4.767-2.341,9.453-4.819c.274-.144.548-.287.821-.432q9.931-5.275,19.494-11.135l.317-.2q4.571-2.808,9.051-5.746c.164-.108.324-.222.487-.33q4.231-2.783,8.384-5.675c.19-.132.374-.271.563-.4q4.1-2.874,8.12-5.85c.2-.147.389-.3.586-.448q3.995-2.977,7.909-6.057c.174-.138.343-.281.517-.419q3.929-3.111,7.775-6.323c.174-.146.342-.3.516-.443q3.831-3.221,7.577-6.539c.156-.139.308-.283.464-.422q3.755-3.346,7.419-6.789c.145-.136.285-.277.429-.413q3.668-3.465,7.241-7.024c.133-.133.262-.27.394-.4q3.576-3.577,7.054-7.252C1253.392,811.7,1253.516,811.557,1253.643,811.422ZM694.659,670.9l-10.181,92.5a362.607,362.607,0,0,1-59.665-170.777l62.8,58.723A23.528,23.528,0,0,1,694.659,670.9Zm443.349,63.775,30.888-36.772c4.171-4.964,11.212-5.1,16.582-1.436,12.51,8.534-5.228,44.638-5.228,44.638-3.428,4.1-16.7,15.628-33.245,12.909-2.63-.433-5.354-.908-7.561-2.758A11.768,11.768,0,0,1,1138.008,734.677Z"/><path class="cls-9" d="M624.813,592.622A362.607,362.607,0,0,0,684.478,763.4l10.181-92.5a23.528,23.528,0,0,0-7.048-19.557Z"/><path class="cls-2" d="M1453.105,705.124a20.009,20.009,0,0,0-4.442.513,33.795,33.795,0,0,0-38.28-28.4,32.823,32.823,0,0,0-63.687-6.921,29.708,29.708,0,0,0-44.736,24.432,25.308,25.308,0,1,0-3.67,50.347c.175,0,.344-.022.518-.026v.026H1415.9l36.02-.044c.236-.006.437-.024.66-.035.178,0,.351.027.53.027a19.959,19.959,0,1,0,0-39.918Z"/><circle class="cls-12" cx="1239.185" cy="519.661" r="28.605"/><circle class="cls-12" cx="1239.185" cy="481.523" r="24.051"/><path class="cls-12" d="M1239.186,565.493a2.852,2.852,0,0,1-2.851-2.851V533.889a2.851,2.851,0,0,1,5.7,0v28.753A2.852,2.852,0,0,1,1239.186,565.493Z"/><circle class="cls-13" cx="1300.339" cy="519.661" r="28.605"/><circle class="cls-13" cx="1300.339" cy="481.522" r="24.051" transform="translate(-86.097 504.762) rotate(-21.28)"/><path class="cls-14" d="M1300.338,565.493a2.852,2.852,0,0,1-2.851-2.851V533.889a2.851,2.851,0,0,1,5.7,0v28.753A2.852,2.852,0,0,1,1300.338,565.493Z"/><circle class="cls-13" cx="1141.167" cy="520.536" r="28.605"/><circle class="cls-13" cx="1141.167" cy="482.397" r="24.051"/><path class="cls-14" d="M1141.166,566.368a2.852,2.852,0,0,1-2.851-2.851V534.765a2.851,2.851,0,0,1,5.7,0v28.752A2.852,2.852,0,0,1,1141.166,566.368Z"/><path class="cls-3" d="M1095.986,228.231a16.634,16.634,0,0,0-15.385-16.58,23.021,23.021,0,1,0-36.525-28.033A31.2,31.2,0,1,0,989.948,211.9a16.632,16.632,0,0,0-18.605,22.616,16.805,16.805,0,0,0-7.364,29.152,22.723,22.723,0,1,0,41.228,15.751,16.611,16.611,0,0,0,24.226-7.737,31.2,31.2,0,0,0,50.879-24.231c0-.885-.06-1.754-.132-2.62A16.63,16.63,0,0,0,1095.986,228.231Z"/><polygon class="cls-11" points="1032.948 564.407 930.999 564.407 950.807 297.557 1010.551 297.557 1032.948 564.407"/><path class="cls-11" d="M1013.129,298.428H948.891a3.137,3.137,0,1,1,0-6.273h64.238a3.137,3.137,0,1,1,0,6.273Z"/><path class="cls-13" d="M842.212,302.067s82.408,14.222,53.651,76.255C895.863,378.322,832.257,393.221,842.212,302.067Z"/><path class="cls-11" d="M898.8,378.839,888.006,363.5l5.509-21.062a2.411,2.411,0,1,0-4.665-1.218l-4.478,17.115-6.506-9.248,4.512-17.253a2.41,2.41,0,1,0-4.664-1.217l-3.482,13.305-6.507-9.249,3.623-13.851a2.413,2.413,0,0,0-4.668-1.223l-2.59,9.908-6.508-9.25,2.211-8.462a2.41,2.41,0,1,0-4.664-1.218l-1.181,4.515-8.728-12.406-3.008-.623-.387,4.18,8.2,11.652-4.745-.4a2.412,2.412,0,0,0-.4,4.807l8.768.736,6.523,9.272-8.816-.74a2.412,2.412,0,1,0-.4,4.807l12.838,1.075,6.523,9.271-13.253-1.111a2.411,2.411,0,1,0-.4,4.806l17.276,1.45,6.522,9.269L862.17,359.61a2.412,2.412,0,0,0-.4,4.807l22.3,1.869,10.784,15.328a2.412,2.412,0,0,0,3.945-2.775Z"/><path class="cls-11" d="M955.758,267.105s44.194,97.555-42.222,111.7C913.536,378.8,852,322.113,955.758,267.105Z"/><path class="cls-13" d="M958.09,292.734a3.087,3.087,0,1,0-2.065-5.819l-5.633,2,6.869-18.172-1.5-3.634-4.707,2.6L944.6,286.768l-2.99-5.315a3.089,3.089,0,0,0-5.384,3.029l5.526,9.821-5.134,13.581-5.557-9.875a3.089,3.089,0,0,0-5.384,3.029l8.094,14.378L928.636,329l-8.353-14.844a3.089,3.089,0,0,0-5.384,3.029l10.889,19.35-5.132,13.578-11.523-20.47a3.089,3.089,0,1,0-5.384,3.029l14.058,24.976L909.321,380.1a3.088,3.088,0,1,0,5.776,2.184l8.492-22.462,26.281-9.311a3.087,3.087,0,1,0-2.065-5.819l-21.357,7.564,5.121-13.546,21.529-7.626a3.087,3.087,0,1,0-2.065-5.819l-16.6,5.88,5.121-13.547,17.284-6.122a3.09,3.09,0,0,0-2.061-5.827l-12.363,4.382,5.122-13.55Z"/><polygon class="cls-12" points="950.766 563.242 854.626 563.242 873.273 387.643 932.119 387.643 950.766 563.242"/><path class="cls-12" d="M935.95,388.938H870.426a4.662,4.662,0,0,1,0-9.324H935.95a4.662,4.662,0,0,1,0,9.324Z"/><path class="cls-2" d="M1162.053,189.754a19.661,19.661,0,0,1,2.838.228,22.972,22.972,0,0,1,34.593-18.892,25.38,25.38,0,0,1,49.247,5.352,26.347,26.347,0,1,1,4.263,52.438v.034h-90.54v-.02c-.135,0-.265.02-.4.02a19.58,19.58,0,0,1,0-39.16Z"/><path class="cls-3" d="M1215.909,298.567h.047l-7.724-15.138a1.05,1.05,0,0,0-1.871,0l-7.728,15.148h.046a9.593,9.593,0,0,0-1.082,4.364,9.7,9.7,0,1,0,19.4,0A9.594,9.594,0,0,0,1215.909,298.567Z"/><path class="cls-3" d="M1215.909,256.2h.047l-7.724-15.138a1.05,1.05,0,0,0-1.871,0l-7.728,15.148h.046a9.59,9.59,0,0,0-1.082,4.364,9.7,9.7,0,0,0,19.4,0A9.591,9.591,0,0,0,1215.909,256.2Z"/><path class="cls-3" d="M1182.272,271.1h.047l-7.723-15.138a1.051,1.051,0,0,0-1.872,0L1165,271.105h.046a9.593,9.593,0,0,0-1.081,4.364,9.7,9.7,0,1,0,19.4,0A9.591,9.591,0,0,0,1182.272,271.1Z"/><path class="cls-3" d="M1249.157,283.675h.047l-7.724-15.138a1.05,1.05,0,0,0-1.871,0l-7.728,15.149h.046a9.586,9.586,0,0,0-1.082,4.363,9.7,9.7,0,0,0,19.4,0A9.6,9.6,0,0,0,1249.157,283.675Z"/><rect class="cls-3" x="646.689" y="475.357" width="107.418" height="73.756"/><rect class="cls-3" x="652.69" y="481.738" width="27.455" height="27.454"/><rect class="cls-3" x="686.67" y="481.738" width="27.454" height="27.454"/><rect class="cls-3" x="720.651" y="481.738" width="27.454" height="27.454"/><rect class="cls-3" x="652.69" y="516.244" width="27.455" height="27.454"/><rect class="cls-3" x="686.67" y="516.244" width="27.454" height="27.454"/><rect class="cls-3" x="720.651" y="516.244" width="27.454" height="27.454"/><polyline class="cls-15" points="680.144 481.738 680.144 509.193 652.69 509.193"/><polyline class="cls-15" points="714.125 481.738 714.125 509.193 686.67 509.193"/><polyline class="cls-15" points="748.105 481.738 748.105 509.193 720.651 509.193"/><polyline class="cls-15" points="680.144 516.244 680.144 543.698 652.69 543.698"/><polyline class="cls-15" points="714.125 516.244 714.125 543.698 686.67 543.698"/><polyline class="cls-15" points="748.105 516.244 748.105 543.698 720.651 543.698"/><rect class="cls-3" x="695.222" y="547.087" width="10.352" height="15.303"/><rect class="cls-16" x="695.222" y="549.113" width="10.352" height="4.726"/><rect class="cls-3" x="763.232" y="475.357" width="107.417" height="73.756"/><rect class="cls-3" x="769.233" y="481.738" width="27.454" height="27.454"/><rect class="cls-3" x="803.214" y="481.738" width="27.454" height="27.454"/><rect class="cls-3" x="837.195" y="481.738" width="27.454" height="27.454"/><rect class="cls-3" x="769.233" y="516.244" width="27.454" height="27.454"/><rect class="cls-3" x="803.214" y="516.244" width="27.454" height="27.454"/><rect class="cls-3" x="837.195" y="516.244" width="27.454" height="27.454"/><polyline class="cls-15" points="796.688 481.738 796.688 509.193 769.233 509.193"/><polyline class="cls-15" points="830.668 481.738 830.668 509.193 803.214 509.193"/><polyline class="cls-15" points="864.649 481.738 864.649 509.193 837.195 509.193"/><polyline class="cls-15" points="796.688 516.244 796.688 543.698 769.233 543.698"/><polyline class="cls-15" points="830.668 516.244 830.668 543.698 803.214 543.698"/><polyline class="cls-15" points="864.649 516.244 864.649 543.698 837.195 543.698"/><rect class="cls-3" x="811.765" y="547.087" width="10.352" height="15.303"/><rect class="cls-16" x="811.765" y="549.113" width="10.352" height="4.726"/><path class="cls-5" d="M745.241,377.811a18.5,18.5,0,1,1-18.5-18.5A18.5,18.5,0,0,1,745.241,377.811Z"/><path class="cls-17" d="M726.743,396.309a18.5,18.5,0,1,1,0-37"/><path class="cls-17" d="M726.743,354.578a1.066,1.066,0,0,1-1.066-1.066v-5.8a1.066,1.066,0,1,1,2.132,0v5.8A1.066,1.066,0,0,1,726.743,354.578Z"/><path class="cls-17" d="M726.743,408.984a1.066,1.066,0,0,1-1.066-1.066v-5.8a1.066,1.066,0,0,1,2.132,0v5.8A1.066,1.066,0,0,1,726.743,408.984Z"/><path class="cls-17" d="M756.845,378.882h-5.8a1.066,1.066,0,1,1,0-2.131h5.8a1.066,1.066,0,1,1,0,2.131Z"/><path class="cls-17" d="M702.439,378.882h-5.8a1.066,1.066,0,1,1,0-2.131h5.8a1.066,1.066,0,1,1,0,2.131Z"/><path class="cls-17" d="M743.928,361.7a1.066,1.066,0,0,1-.753-1.819l4.1-4.1a1.066,1.066,0,0,1,1.507,1.507l-4.1,4.1A1.059,1.059,0,0,1,743.928,361.7Z"/><path class="cls-17" d="M705.457,400.167a1.066,1.066,0,0,1-.754-1.819l4.1-4.1a1.066,1.066,0,0,1,1.508,1.508l-4.1,4.1A1.061,1.061,0,0,1,705.457,400.167Z"/><path class="cls-17" d="M748.028,400.167a1.058,1.058,0,0,1-.753-.312l-4.1-4.1a1.066,1.066,0,0,1,1.507-1.508l4.1,4.1a1.066,1.066,0,0,1-.754,1.819Z"/><path class="cls-17" d="M709.557,361.7a1.062,1.062,0,0,1-.754-.312l-4.1-4.1a1.066,1.066,0,0,1,1.508-1.507l4.1,4.1a1.066,1.066,0,0,1-.754,1.819Z"/><circle class="cls-12" cx="1046.341" cy="519.661" r="28.605"/><circle class="cls-12" cx="1046.341" cy="481.523" r="24.051"/><path class="cls-12" d="M1046.342,565.493a2.852,2.852,0,0,1-2.851-2.851V533.889a2.851,2.851,0,0,1,5.7,0v28.753A2.852,2.852,0,0,1,1046.342,565.493Z"/><circle class="cls-13" cx="1008.621" cy="520.536" r="28.605"/><circle class="cls-13" cx="1008.621" cy="482.397" r="24.051"/><path class="cls-14" d="M1008.621,566.368a2.852,2.852,0,0,1-2.851-2.851V534.765a2.851,2.851,0,0,1,5.7,0v28.752A2.852,2.852,0,0,1,1008.621,566.368Z"/><path class="cls-3" d="M884.129,820.057l-.5.861a3.995,3.995,0,0,0,3.459,5.992h28.221a8.7,8.7,0,0,1,8.7,8.7v20.912a8.7,8.7,0,0,1-8.7,8.7H887.092a41.872,41.872,0,0,1-36.457-20.84"/><path class="cls-3" d="M923.483,721.709a9.831,9.831,0,0,0-15.2-7.667L856.9,747.712a9.832,9.832,0,0,0,.963,17l10.825,5.459-17.818,30.863c-7.732,13.392-8.078,30.018-.237,43.347A41.793,41.793,0,0,0,880.354,864.7h0c-16.967-12.009-4.757-31.219.568-39.618,1.488-2.347,3.207-5.025,3.207-5.025l18.825-32.606,9.758,4.92a9.832,9.832,0,0,0,14.243-9.334Z"/><path class="cls-3" d="M971.525,682.76l-.494-.863a4,4,0,0,0-6.92-.023l-14.193,24.391a8.7,8.7,0,0,1-11.9,3.144l-18.074-10.518A8.7,8.7,0,0,1,916.8,687L931,662.6a41.869,41.869,0,0,1,36.349-21.028"/><path class="cls-3" d="M1047.747,695.614a9.832,9.832,0,0,0-15.179-7.719l-10.163,6.611-17.713-30.924c-7.686-13.418-21.882-22.08-37.346-22.006a41.79,41.79,0,0,0-32.509,15.467h0c18.913-8.624,29.375,11.591,33.956,20.417,1.28,2.467,2.731,5.3,2.731,5.3l18.713,32.67-9.161,5.959a9.832,9.832,0,0,0,.9,17l54.752,27.845a9.832,9.832,0,0,0,14.275-9.285Z"/><path class="cls-3" d="M1047.886,826.529l.993.047a4,4,0,0,0,3.735-5.826l-12.96-25.068a8.7,8.7,0,0,1,3.732-11.724l18.576-9.6a8.7,8.7,0,0,1,11.725,3.733l12.96,25.068a41.868,41.868,0,0,1-1.77,41.956"/><path class="cls-3" d="M1089.278,809.38h0c-2.876,20.587-25.547,18.562-35.453,17.69-2.769-.244-5.938-.542-5.938-.542l-37.609-1.748-.11-10.928a9.831,9.831,0,0,0-14.833-8.365L942.45,836.736a9.831,9.831,0,0,0,.172,17.028l53.5,30.175a9.831,9.831,0,0,0,14.66-8.663l-.122-12.123,35.6,1.655c15.447.718,30.376-6.61,38.614-19.7A41.793,41.793,0,0,0,1089.278,809.38Z"/><path class="cls-7" d="M652.738,592.622A362.6,362.6,0,0,0,712.4,763.4l10.18-92.5a23.528,23.528,0,0,0-7.048-19.557Z"/><rect class="cls-13" x="650.439" y="562.39" width="730.249" height="13.103"/></g><g id="logo_left" data-name="logo left"><polygon class="cls-3" points="310.992 96.015 310.992 119.259 307.674 119.259 307.674 108.895 294.331 108.895 294.331 119.259 291.012 119.259 291.012 96.015 294.331 96.015 294.331 106.012 307.674 106.012 307.674 96.015 310.992 96.015"/><path class="cls-3" d="M331.6,110.792l-5.013-11.387-5.012,11.387Zm1.161,2.656H320.414l-2.558,5.811h-3.414l10.522-23.244h3.283L338.8,119.259h-3.484l-2.559-5.811Z"/><path class="cls-3" d="M357.693,104.115c0-3.32-2.227-5.216-6.471-5.216h-5.641v10.459h5.641C355.466,109.358,357.693,107.436,357.693,104.115Zm.1,15.144-5.012-7.139c-.463.035-.961.07-1.459.07h-5.737v7.069h-3.318V96.015h9.055c6.043,0,9.693,3.058,9.693,8.1a7.344,7.344,0,0,1-5.108,7.341l5.51,7.8h-3.624Z"/><polygon class="cls-3" points="387.925 119.259 387.89 102.324 379.498 116.437 377.97 116.437 369.578 102.42 369.578 119.259 366.39 119.259 366.39 96.015 369.115 96.015 378.808 112.356 388.361 96.015 391.086 96.015 391.121 119.259 387.933 119.259 387.925 119.259"/><path class="cls-3" d="M417.562,107.637a9.025,9.025,0,1,0-8.994,8.931A8.724,8.724,0,0,0,417.562,107.637Zm-21.368,0c0-6.807,5.24-11.884,12.374-11.884s12.313,5.051,12.313,11.884-5.24,11.884-12.313,11.884S396.194,114.444,396.194,107.637Z"/><polygon class="cls-3" points="445.943 96.015 445.943 119.259 443.218 119.259 429.281 101.922 429.281 119.259 425.963 119.259 425.963 96.015 428.688 96.015 442.625 113.352 442.625 96.015 445.943 96.015"/><polygon class="cls-3" points="461.809 111.22 461.809 119.259 458.526 119.259 458.526 111.159 449.305 96.015 452.859 96.015 460.29 108.266 467.756 96.015 471.04 96.015 461.809 111.22"/><path class="cls-3" d="M248.259,104.787a11.135,11.135,0,0,1,9.308,5.532,15.647,15.647,0,0,1,1.939,4.631c.437,1.853.244,3.793.672,5.645a7.72,7.72,0,0,0,15.3-1.494c0-4.282-3.371-7.279-7.423-7.742a12.8,12.8,0,0,1-7.309-2.788c-3.537-2.849-4.759-6.615-4.759-11.692,0-4.334-3.3-8.4-7.816-8.345s-7.641,4.011-7.641,8.336c0,5.077-1.222,8.844-4.759,11.692a12.739,12.739,0,0,1-7.309,2.788c-4.052.463-7.422,3.521-7.422,7.742a7.719,7.719,0,0,0,15.3,1.494c.428-1.852.236-3.792.672-5.645,1.24-5.243,5.545-10.145,11.248-10.171Z"/></g></svg>