<svg xmlns="http://www.w3.org/2000/svg" viewBox="0 0 1920 1080"><defs><style>.cls-1{fill:#0f1854;}.cls-2{fill:#ced4fb;}.cls-3{fill:#8d9bf5;}.cls-4{fill:#fff;}.cls-5,.cls-7{fill:none;}.cls-5{stroke:#fff;}.cls-5,.cls-7,.cls-9{stroke-linecap:round;stroke-linejoin:round;stroke-width:0.815px;}.cls-6{fill:#2b45ed;}.cls-7,.cls-9{stroke:#1d1d1b;}.cls-8{fill:#dde1ff;}.cls-11,.cls-9{fill:#1d1d1b;}.cls-10{fill:#f4f4f4;}.cls-12{fill:#ebebea;}.cls-13{fill:#aeb8fe;}.cls-14{fill:#d3d9fe;}.cls-15{fill:#bfc7fe;}</style></defs><title>28-  Data harmonization in public sector - the 2024 overview</title><g id="_28:_Data_harmonization_in_public_sector_-_the_2024_overview" data-name="28: 
Data harmonization in public sector - the 2024 overview"><rect class="cls-1" width="1920" height="1080"/><path class="cls-2" d="M561.2,322.519V255.7a183.351,183.351,0,0,0-61,10.415l22.194,63.053A116.351,116.351,0,0,1,561.2,322.519Z"/><path class="cls-3" d="M744.933,439.429A183.729,183.729,0,0,0,561.2,255.7v66.819a116.835,116.835,0,0,1,79.605,202.424l45.556,48.937A183.19,183.19,0,0,0,744.933,439.429Z"/><path class="cls-2" d="M561.2,556.34A116.839,116.839,0,0,1,452.456,396.6l-62.193-24.5a183.695,183.695,0,0,0,296.1,201.78l-45.556-48.937A116.452,116.452,0,0,1,561.2,556.34Z"/><path class="cls-3" d="M500.2,266.115A184.185,184.185,0,0,0,390.263,372.1l62.193,24.5a117.466,117.466,0,0,1,69.938-67.428Z"/><rect class="cls-4" x="769.102" y="292.949" width="64.565" height="15.729"/><rect class="cls-4" x="769.102" y="315.66" width="109.979" height="15.729"/><polyline class="cls-5" points="759.986 300.814 733.7 300.814 679.036 355.478"/><path class="cls-4" d="M681.876,355.478a2.841,2.841,0,1,1-2.84-2.841A2.839,2.839,0,0,1,681.876,355.478Z"/><rect class="cls-4" x="619.791" y="208.883" width="64.565" height="15.729"/><rect class="cls-4" x="619.791" y="231.594" width="64.565" height="15.729"/><polyline class="cls-5" points="610.676 216.747 584.39 216.747 529.725 271.412"/><path class="cls-4" d="M532.566,271.412a2.841,2.841,0,1,1-2.841-2.841A2.84,2.84,0,0,1,532.566,271.412Z"/><path class="cls-6" d="M571.579,605.366l1.268,9.931s1.691-.422,2.747,4.438,28.95,113.9,28.95,121.083,2.959,98.261,3.593,106.713,2.958,39.516,2.535,40.572a10.918,10.918,0,0,1-1.479,2.325s3.592,1.69,2.747,4.015c0,0,.845,1.479,3.8,1.69s4.649-2.958,12.89-1.9,9.087,4.86,8.664,7.818-8.453,10.354-13.947,12.256-7.607,1.479-9.932,4.015-6.762,9.509-15,10.355-13.524-3.17-14.369-5.072-3.17-13.735-3.17-13.735a4.214,4.214,0,0,1-4.015-5.283c.845-5.072,0-19.23-1.479-23.033s-10.143-48.391-11.411-72.692,2.324-41.84,0-45.433-30.64-68.888-30.64-68.888-8.03,82.624-9.3,86.639-3.381,9.509-3.381,9.509-.846,66.775,0,77.763,3.169,23.033,5.071,25.569,10.143,2.959,14.581,4.438,9.086,1.9,9.932,5.071,1.056,7.819-4.438,10.355-11.833,2.324-16.9,2.324-11.411.423-15.637,2.536-9.509,5.283-17.962,4.437-8.03-3.381-8.453-6.339S489.8,897.4,489.8,897.4s-2.959,0-1.479-3.592.634-4.649,0-8.03-10.143-66.564-8.664-80.3,1.69-26.2,1.69-26.2-.946-81.567-1.846-93.612-6.184-37.4-6.606-47.334,0-29.373,0-29.373l98.472-7.185Z"/><path class="cls-7" d="M555.753,618.035q6.612-.836,13.924-1.876l-1.493-14.153-14.1,1.028Z"/><path class="cls-7" d="M543.587,603.8l-32.553,2.375,1.186,15.806c8.68-.379,19.29-1.174,32.232-2.607Z"/><path class="cls-7" d="M497.408,607.17l-21.348,1.557v11.219s4.821,2.1,21.348,2.3Z"/><polyline class="cls-7" points="533.332 694.54 522.555 669.394 507.34 664.745"/><path class="cls-7" d="M489.8,897.4s7.707,10.077,35.022-5.21"/><path class="cls-7" d="M580.877,909.869s16.694,5.283,31.063-15.426"/><path class="cls-7" d="M583.7,922.587a20.079,20.079,0,0,0,15.136,2.5c8.452-2.113,13.735-9.3,20.709-12.89s14.848-6.4,17.672-12.712"/><path class="cls-7" d="M486.842,916.842s.212,4.438,15.426,1.691,17.539-4.227,29.373-4.861,16.933-1.689,19.032-6.55"/><path class="cls-8" d="M640.229,456.918s12.917-16.377,19.468-21.448,12.89-11.2,14.792-10.989,2.113,2.959,0,5.283-9.3,9.72-9.3,9.72,4.649-1.167,5.917,1.213a6.373,6.373,0,0,1,0,5.127,5.161,5.161,0,0,1,1.479,4.437s.423,4.86-1.268,6.657-7.4,1.8-7.4,1.8-11.833,7.607-15,7.819l-9.932-7.608Z"/><line class="cls-7" x1="671.108" y1="445.824" x2="668.15" y2="445.504"/><line class="cls-7" x1="672.587" y1="450.261" x2="668.15" y2="450.261"/><line class="cls-7" x1="663.923" y1="458.714" x2="669.629" y2="455.756"/><path class="cls-8" d="M543.052,354.959s5.917,34.022,6.762,44.165h-6.762s-3.381,20.5-6.551,20.708-17.75-4.649-17.75-4.649l-6.34,14.581-33.176-11.411,9.932-21.343L534.6,348.2l7.608,3.17Z"/><path class="cls-6" d="M487.492,400.61s3.154,2.951,9.916,3.8a28.3,28.3,0,0,0,13.1-1.9l4.015-8.879s-2.536-9.086,1.268-13.524,7.184-1.479,6.55,3.381c0,0,6.974-3.8,9.3-11.2,0,0,8.667-1.975,11.624-16.1l3.065,18.37a16.177,16.177,0,0,0,10.246-14.741,23.5,23.5,0,0,0-6.762-17.75s-8.03-5.706-23.245-7.4-27.682-1.691-35.5,6.339-10.777,30.852-9.3,39.093S487.492,400.61,487.492,400.61Z"/><polygon class="cls-9" points="518.751 415.183 511.778 411.38 517.024 419.155 518.751 415.183"/><path class="cls-7" d="M533.332,400.6a7.257,7.257,0,0,0,4.015,5.917"/><path class="cls-7" d="M514.525,393.629s.845,3.17,3.381,2.325"/><path class="cls-9" d="M517.906,381.373s2.324-2.536,2.324,2.959"/><path class="cls-10" d="M479.235,412.436,521.5,425.115l1.69,12.89s10.355,4.438,12.679,6.34,35.078,37.191,41.418,41.417,10.354,6.551,10.354,6.551,2.747-4.015,8.664,2.536L638.777,456.6s12.045,1.69,14.158,13.313c0,0-41.84,61.7-48.391,63.394s-37.191-15.638-37.191-15.638,2.959,53.252,5.283,59.8,3.8,12.679,3.592,16.483.634,9.932-4.649,11.411-58.322,6.55-69.522,7.818-33.6-.422-37.191-4.437.634-17.328-1.691-26.2L452.4,552.326s-4.648-85.159-2.958-92.344S479.235,412.436,479.235,412.436Z"/><polygon class="cls-9" points="503.114 484.706 567.353 517.67 567.353 524.221 503.114 484.706"/><path class="cls-7" d="M452.821,473.3s6.551,46.489,6.973,56.843,2.325,29.161,2.959,33.6.422,18.807.422,18.807"/><path class="cls-7" d="M629.545,464.915s12.967,3.325,16.488,15.045"/><line class="cls-7" x1="596.303" y1="494.849" x2="603.91" y2="504.463"/><line class="cls-7" x1="587.639" y1="492.313" x2="594.824" y2="504.463"/><line class="cls-7" x1="523.188" y1="438.005" x2="478.179" y2="421.945"/><circle class="cls-7" cx="646.907" cy="470.225" r="2.213"/><path class="cls-7" d="M543.265,356.19a10.61,10.61,0,0,0,6.549-9.8"/><path class="cls-7" d="M531.641,372.287s-6.175,3.719-19.863.43"/><path class="cls-11" d="M544.443,387.706a1.179,1.179,0,1,1-1.178-1.182A1.18,1.18,0,0,1,544.443,387.706Z"/><path class="cls-11" d="M545.437,384.007c-.647.423-2.075-.712-3.848-1.3s-3.6-.519-3.865-1.244,1.988-2.327,4.737-1.421S546.083,383.584,545.437,384.007Z"/><rect class="cls-3" x="766.842" y="494.774" width="29.692" height="118.002"/><rect class="cls-2" x="812.264" y="474.604" width="29.692" height="138.171"/><rect class="cls-3" x="857.685" y="472.095" width="29.692" height="140.68"/><rect class="cls-2" x="903.107" y="449.517" width="29.692" height="163.259"/><rect class="cls-3" x="948.528" y="429.248" width="29.692" height="183.527"/><rect class="cls-2" x="993.95" y="402.564" width="29.692" height="210.212"/><rect class="cls-3" x="1039.371" y="363.912" width="29.692" height="248.864"/><rect class="cls-2" x="1084.793" y="303.139" width="29.692" height="309.637"/><rect class="cls-3" x="1130.215" y="249.636" width="29.692" height="363.139"/><rect class="cls-4" x="716.908" y="662.841" width="64.565" height="15.729" transform="translate(-254.828 726.203) rotate(-45)"/><polyline class="cls-5" points="731.924 699.094 797.22 633.799 797.22 613.543"/><rect class="cls-4" x="761.644" y="662.841" width="64.565" height="15.729" transform="translate(-241.725 757.836) rotate(-45)"/><polyline class="cls-5" points="776.66 699.094 841.956 633.799 841.956 613.543"/><rect class="cls-4" x="807.01" y="662.841" width="64.565" height="15.729" transform="translate(-228.438 789.915) rotate(-45)"/><polyline class="cls-5" points="822.026 699.094 887.322 633.799 887.322 613.543"/><rect class="cls-12" x="852.376" y="662.841" width="64.565" height="15.729" transform="translate(-215.15 821.993) rotate(-45)"/><polyline class="cls-7" points="867.393 699.094 932.688 633.799 932.688 613.543"/><rect class="cls-12" x="897.743" y="662.841" width="64.565" height="15.729" transform="translate(-201.863 854.072) rotate(-45)"/><polyline class="cls-7" points="912.759 699.094 978.055 633.799 978.055 613.543"/><rect class="cls-4" x="943.109" y="662.841" width="64.565" height="15.729" transform="translate(-188.575 886.151) rotate(-45)"/><polyline class="cls-5" points="958.126 699.094 1023.421 633.799 1023.421 613.543"/><rect class="cls-4" x="988.476" y="662.841" width="64.565" height="15.729" transform="translate(-175.288 918.23) rotate(-45)"/><polyline class="cls-5" points="1003.492 699.094 1068.788 633.799 1068.788 613.543"/><rect class="cls-4" x="1033.842" y="662.841" width="64.565" height="15.729" transform="translate(-162 950.309) rotate(-45)"/><polyline class="cls-5" points="1048.858 699.094 1114.154 633.799 1114.154 613.543"/><rect class="cls-4" x="1079.208" y="662.841" width="64.565" height="15.729" transform="translate(-148.713 982.388) rotate(-45)"/><polyline class="cls-5" points="1094.225 699.094 1159.52 633.799 1159.52 613.543"/><rect class="cls-4" x="983.343" y="233.777" width="64.565" height="15.729" transform="translate(2031.252 483.284) rotate(180)"/><rect class="cls-4" x="937.929" y="256.488" width="109.98" height="15.729" transform="translate(1985.837 528.706) rotate(180)"/><polyline class="cls-5" points="1057.023 241.642 1083.31 241.642 1137.974 296.306"/><path class="cls-4" d="M1135.133,296.306a2.841,2.841,0,1,0,2.841-2.84A2.841,2.841,0,0,0,1135.133,296.306Z"/><path class="cls-13" d="M954.719,884.064s-3.4,13.939-3.4,16.411.927,7.108,0,10.817-1.545,16.38-1.545,16.38L928.451,925.2s-.927-20.4,0-24.725,2.454-18.275,2.454-18.275Z"/><path class="cls-6" d="M928.151,916.546s8.381-4.945,22.42,0l.75-5.254s1.432,1.546,1.489,7.418.674,12.671-3.961,14.216-17.9,2.782-22.392,0-3.26-13.6-2.024-17,3.606-9.581,3.606-9.581Z"/><path class="cls-7" d="M923.417,926.44s-.529,5.868,7.094,6.28,17.088-1.092,19.574-3.14a7.173,7.173,0,0,0,2.725-4.341"/><path class="cls-7" d="M926.705,931.839s-1.737-10.451,1.446-15.293"/><path class="cls-7" d="M950.571,916.546s2.276,7.072,1.228,11.126"/><path class="cls-11" d="M930.638,884.569s-.333.556,4.612,1.792,17.617,1.855,17.617,1.855l1.852-4.152L930.905,882.2Z"/><path class="cls-13" d="M892.93,882.211s1.538,14.263,1.213,16.715-1.852,6.925-1.42,10.723-.62,16.441-.62,16.441l21.465.35s3.6-20.1,3.248-24.51-.033-18.44-.033-18.44Z"/><path class="cls-6" d="M915,917.9s-7.658-6-22.225-2.944l-.053-5.307s-1.623,1.344-2.45,7.157-2.334,12.473,2.059,14.614,17.376,5.108,22.2,2.942,5.018-13.053,4.239-16.586-2.316-9.971-2.316-9.971Z"/><path class="cls-7" d="M889.339,926.44s3.879,4.518,13.769,5.4,14.556-1.24,14.556-1.24"/><path class="cls-7" d="M892.776,914.956s-3.6,8.968-2.021,12.716"/><path class="cls-7" d="M915,917.9s1.592,7.8,0,13.474"/><path class="cls-11" d="M893.45,887.381l.435,4.968s14.071,4.339,22.773,0l.091-7.141Z"/><path class="cls-13" d="M955.03,406.29c.927,6.49-2.164,31.833-6.181,34s-10.2,0-10.2,0v9.581H904.344V414.325Z"/><polygon class="cls-9" points="938.65 440.286 938.65 434.739 942.675 441.145 938.65 440.286"/><path class="cls-6" d="M929.729,433.919a3.134,3.134,0,0,0,3.757-.828c.877-1.077,1.509-3.115.837-4.33a14.056,14.056,0,0,0,5.605-.257c1.791-.584,3.921-3.076,4-4.958,1.782.432,3.9.785,5.248-.463a5.64,5.64,0,0,0,1.35-3.036c.354-1.6,1.183-3.262,1.537-4.865a2.963,2.963,0,0,0,3.794.575,8.621,8.621,0,0,0,2.814-3.07c1.308-2,3.462-4.128,4.77-6.13a2.77,2.77,0,0,0,4.584-.622,5.28,5.28,0,0,0,.186-2.105c-.1-2.165-.064-4.361-.165-6.526,1.01.991,2.725.743,3.947.028,2.789-1.634,4.056-5.12,3.932-8.35s-1.4-6.29-2.651-9.269c-.384-.911-.169-1.271-.552-2.182a1.247,1.247,0,0,0,1.926-.192,3.149,3.149,0,0,0,.347-2.187c-.538-4.964-2.4-10.6-6.673-13.187a1.216,1.216,0,0,0,.924-1.548,3.175,3.175,0,0,0-1.265-1.584,17.128,17.128,0,0,0-5.1-2.871c1.141-1.331,0-3.359-1.228-4.607a33.664,33.664,0,0,0-15.439-8.612c-5.767-1.521-11.431-1.508-17.375-1.023-.1-2.238-2.461-3.646-4.617-4.252a19.506,19.506,0,0,0-18.275,4.243c.3-2.015-2.232-3.56-4.18-2.965s-2.978,2.438-3.61,4.375c-3.645-.561-7.59-1.075-10.841.667a4.625,4.625,0,0,0-1.991,1.838c-.423.815.207,2.052.784,2.766-5.148.226-10.46,1.75-14.113,5.383a5.969,5.969,0,0,0-1.579,2.32c-.289.9.493,2.143,1.132,2.838-4.09,1.913-6.957,5.746-9.069,9.737-1.194,2.258-2.227,4.764-1.883,7.295s2.833,5.491,5.372,5.226a4.906,4.906,0,0,0-.9,6.841,16.043,16.043,0,0,0-6.016,12.378,7.709,7.709,0,0,0,.8,3.769,3.852,3.852,0,0,0,3.089,2.082c-.71,4.445.893,9.552,4.765,11.846.131,2.768.476,5.729,1.933,8.086a7.788,7.788,0,0,0,4.128,3.608c1.791.534,4.046-.2,4.7-1.953a3.96,3.96,0,0,0,7.817.664,4.256,4.256,0,0,0,3.2,2.82,3.657,3.657,0,0,0,3.485-1.825,5.988,5.988,0,0,0,7.654,1.5c.105,2.023,2.329,4.029,4.327,3.693a92.527,92.527,0,0,1,19.577-1.391C925.823,433.365,928.589,433.318,929.729,433.919Z"/><path class="cls-13" d="M1021.477,397.327l-5.253-11.584s1.545-8.5,5.253-10.977,6.182-1.546,6.182-1.546,16.689-16.38,19.161-16.689,2.782,3.4,1.546,5.563-10.817,14.826-10.817,14.826,2.472,4.645,4.017,5.572,8.212,4.636,7.506,6.8-1.943,8.035-5.033,8.035l-6.49,4.327Z"/><line class="cls-7" x1="1027.659" y1="373.22" x2="1020.55" y2="381.256"/><path class="cls-13" d="M849.332,662.191c-.309.927-.618,30.906,1.545,33.069a17.579,17.579,0,0,0,5.872,3.4s3.4,4.326,7.108,4.017,7.727-3.4,7.727-6.181-5.563-5.563-5.563-5.563l3.09-19.161-.618-15.454h-19.38Z"/><path class="cls-7" d="M860.349,662.191s2.89,8.962-2.364,16.071v12.053s6.8,4.018,6.491,5.254-3.24,3.709-3.24,3.709l-4.487-.618"/><path class="cls-7" d="M860.617,691.981s6.949,2.043,7.567,3.279,0,5.9,0,5.9"/><path class="cls-14" d="M967.392,824.756c-.309-9.581-.927-24.107,0-41.414s22.252-77.265,21.325-121.887c-.515-24.776-3.887-41.619-6.786-51.71-70.936,12.271-108.5,2.617-117.268-.187.948,11.79,3.05,38.668,4.448,62.213,1.855,31.215,18.544,96.118,18.544,96.118s-2.782,12.053-4.018,21.634.618,68.611.618,68.611a16.021,16.021,0,0,1-2.781,3.709c-1.855,1.854-.618,8.653,0,14.216s.618,7.109,13.907,12.054,29.361-3.7,29.361-3.7,0-13.606-.309-16.7a3.042,3.042,0,0,0-3.4-2.782s3.4-55.63,2.473-64.284,3.09-25.034,3.09-25.034l5.254,24.416s-2.472,7.108-2.781,11.435-.618,47.286-.618,47.286l-1.855,2.782v17.307a19.012,19.012,0,0,0,8.036,4.945c4.636,1.236,19.162.309,25.652,0s7.108-4.327,6.8-12.362-3.09-6.491-3.09-6.491S967.7,834.336,967.392,824.756Z"/><path class="cls-6" d="M981.931,609.745a66.317,66.317,0,0,0-4.34-11.839l-4.327-8.653-80.664-9.89-28.434,24.106s.188,2.248.5,6.089C873.429,612.362,911,622.016,981.931,609.745Z"/><rect class="cls-14" x="884.255" y="597.591" width="5.563" height="19.477"/><rect class="cls-14" x="960.593" y="597.591" width="5.563" height="19.477"/><path class="cls-8" d="M868.667,660.651s-13.772,2.467-21.808-1.242v-5.872s-3.09-1.854-3.4-7.417,2.781-48.832,2.472-67.066-1.673-76.029,3.181-90.864,8.563-17,20.926-21.634,16.689-7.417,16.689-7.417-2.164-5.872,1.545-8.036,15.453-6.49,32.142-6.8,22.562,3.091,25.652,5.563,4.945,7.727,4.945,7.727,16.776,6.181,24.923,7.417,38.743-.927,38.743-.927l4.018-66.448a28.16,28.16,0,0,1,21.634,4.018s.618,67.684,0,75.719-10.2,11.435-17.925,14.217-49.45,12.362-49.45,12.362l2.98,19.471-2.671,11.744s8.345,51.922,8.963,56.249-4.636,6.49-4.636,6.49-42.032,3.709-52.231,4.018-41.105.309-41.105.309l-12.671,4.018S868.418,654.442,868.667,660.651Z"/><path class="cls-7" d="M871.584,606.251s-8.528-14.835-7.046-20.089,7.046-42.65,7.046-42.65l-14.835-67.066"/><polygon class="cls-9" points="972.955 503.952 960.593 507.661 974.146 511.733 972.955 503.952"/><polygon class="cls-9" points="1014.678 464.084 1020.55 464.084 1015.016 458.504 1014.678 464.084"/><path class="cls-7" d="M1018.062,408.124s8.836-4.617,22.351,3.728"/><path class="cls-7" d="M886.728,459.139s29.353-9.334,64.284-1.545"/><line class="cls-7" x1="901.254" y1="675.48" x2="951.63" y2="675.48"/><line class="cls-7" x1="928.142" y1="675.48" x2="926.596" y2="775.615"/><path class="cls-7" d="M928.451,858.752v4.327s7.417,7.417,35.542,1.854"/><line class="cls-7" x1="884.255" y1="858.134" x2="884.255" y2="865.861"/><path class="cls-7" d="M884.255,862.877s-3.09,2.984,2.473,5.765,13.907,11.744,34.305,1.854"/><line class="cls-7" x1="921.033" y1="864.933" x2="919.156" y2="871.369"/><path class="cls-7" d="M878.937,356.331a6.552,6.552,0,0,0-4.047,3.5,3.865,3.865,0,0,0,1.527,4.791,12.008,12.008,0,0,0-3.5,5.582,7.573,7.573,0,0,0,1.074,6.367,5.568,5.568,0,0,0,5.9,2.091"/><path class="cls-7" d="M948.522,355.868c2.1.094,3.3,2.369,4.041,4.33a2.589,2.589,0,0,1,.246,1.417.9.9,0,0,1-1.055.741,8.127,8.127,0,0,1,4.153,5.219c.349,1.411-.052,3.357-1.492,3.555"/><path class="cls-7" d="M965.779,381.04a6.66,6.66,0,0,1,1.642,8.579"/><path class="cls-7" d="M883.465,406.109a4.346,4.346,0,0,0,4.826,6.987,7.029,7.029,0,0,0,3.823,5.221c2.075.86,4.891-.052,5.582-2.189"/><path class="cls-7" d="M924.359,424.04a6.564,6.564,0,0,0,9.657-3.947,5.866,5.866,0,0,0,10.05-3.616"/><path class="cls-7" d="M952.057,382.443a4.582,4.582,0,0,1-3.877,8.145c.894,1.726-.934,3.848-2.871,4.013s-3.733-.925-5.371-1.973"/><path class="cls-7" d="M892.918,384.641a8.33,8.33,0,0,0,2.895,6.106c1.851,1.4,4.791,1.469,6.328-.272"/><rect class="cls-3" x="1251.824" y="181.276" width="29.692" height="107.028" transform="translate(1501.46 -1031.879) rotate(90)"/><rect class="cls-2" x="1260.971" y="217.551" width="29.692" height="125.322" transform="translate(1556.036 -995.603) rotate(90)"/><rect class="cls-3" x="1262.109" y="261.834" width="29.692" height="127.598" transform="translate(1602.588 -951.321) rotate(90)"/><rect class="cls-2" x="1272.348" y="297.017" width="29.692" height="148.077" transform="translate(1658.249 -916.139) rotate(90)"/><rect class="cls-3" x="1281.54" y="333.247" width="29.692" height="166.46" transform="translate(1712.862 -879.909) rotate(90)"/><rect class="cls-2" x="1293.641" y="366.566" width="29.692" height="190.664" transform="translate(1770.386 -846.589) rotate(90)"/><rect class="cls-3" x="1311.17" y="394.459" width="29.692" height="225.721" transform="translate(1833.336 -818.696) rotate(90)"/><rect class="cls-2" x="1338.731" y="412.32" width="29.692" height="280.843" transform="translate(1906.326 -800.832) rotate(90)"/><rect class="cls-3" x="1362.994" y="433.478" width="29.692" height="329.37" transform="translate(1976.004 -779.677) rotate(90)"/><rect class="cls-4" x="1404.195" y="216.952" width="64.565" height="15.729"/><rect class="cls-4" x="1404.195" y="239.663" width="109.98" height="15.729"/><polyline class="cls-5" points="1395.08 224.816 1368.794 224.816 1314.129 279.481"/><path class="cls-4" d="M1316.97,279.481a2.841,2.841,0,1,1-2.841-2.841A2.84,2.84,0,0,1,1316.97,279.481Z"/><path class="cls-6" d="M1342.962,901.656s.3,16.022-3.93,19.046-26,0-27.511-1.21-1.813-4.837-1.813-4.837-19.651,1.605-24.488-2.825-1.512-12.593,1.512-14.1,22.069-8.465,22.069-8.465l28.719,6.356Z"/><path class="cls-7" d="M1283.4,909.217s14.215,4.531,27.214,2.415c0,0,27.1,12.977,31.384,2.407"/><path class="cls-6" d="M1383.1,892.923s-.676,11.46,0,16.294a100.759,100.759,0,0,0,2.489,11.182s16.628,3.023,21.767,0l3.326-6.7s7.557-6,6.348-9.929-6.348-10.581-6.348-10.581Z"/><path class="cls-7" d="M1384.446,915.994s15.416,4.426,22,0,9.859-14.019,9.859-14.019"/><path class="cls-8" d="M1465.4,507.929s2.117,10.09,0,26.113-15.115,70.741-15.115,70.741,1.511,26.3-3.628,30.836-9.07,0-9.07,0l-3.023-42.626s3.326-83.439,7.256-86.764,21.464-2.419,21.464-2.419Z"/><path class="cls-13" d="M1439.389,576.424s2.128,36.521,1.221,51.335-15.418,140.576-15.418,140.576,2.72,16.627,1.209,22.371-15.72,102.485-15.72,102.485-17.535,6.651-32.348-2.721c0,0,4.232-93.415,3.325-100.671s1.21-14.813,2.721-23.278l-6.046-123.646s-27.511,104.9-27.208,112.763,1.2,35.068,0,47.463-8.16,98.555-8.16,98.555-24.79,3.325-35.975-11.488c0,0-2.116-10.279,0-14.209s4.534-7.256,4.837-11.79-3.628-98.857-2.721-108.833,3.93-118.81,6.651-137.251,7.86-41.661,7.86-41.661Z"/><polyline class="cls-7" points="1378.333 642.875 1381.961 629.271 1411.587 618.387"/><path class="cls-7" d="M1337.52,576.424s-7.86,40.855-10.58,61.211-5.442,113.77-5.442,113.77-1.814,112.461-2.721,117-6.046,8.465-6.046,12.4v14.821"/><path class="cls-8" d="M1270.588,348.118l-31.32-48.975s-5.441-21.766-6.953-24.487-9.069-12.093-10.883-11.79-1.512,2.116,0,5.139,6.651,11.186,6.651,11.186-9.372,2.418-12.395,4.534-5.139,5.442-3.628,8.465,5.744,2.116,5.744,2.116,1.512,5.537,3.93,8.815,4.535,3.883,4.535,3.883l21.725,57.518Z"/><line class="cls-7" x1="1217.804" y1="294.306" x2="1215.083" y2="288.562"/><path class="cls-8" d="M1358.078,314.259l-13.907,35.069,4.837,2.418s0,18.441,3.628,20.86,10.884,3.023,10.884,3.023V384.4h33.556V364.443l-32.952-52.6Z"/><path class="cls-6" d="M1352.225,356.236l.109.045s6.651-20.255,7.558-25.092-6.046-15.721-2.721-19.348,4.535-1.814,4.535-1.814,5.139-8.465,18.743-6.651,24.487.6,30.232,14.813-2.117,31.743-4.837,36.882-5.442,15.116-5.442,15.116h-27.813l-5.139-19.348s-.3-11.138-1.21-14.185-4.232-.931-4.837,3.3-3.023,17.534-3.023,20.255,2.419,7.255,3.023,9.976a7.255,7.255,0,0,1-.889,5.035s-7.576,2.221-10.6-2.012c-2.248-3.148-3.527-7.734-3.885-12.291A4.6,4.6,0,0,1,1352.225,356.236Z"/><path class="cls-7" d="M1361.369,330.285a5.015,5.015,0,0,0,2.741,3.957"/><path class="cls-7" d="M1407.327,332.705a11.515,11.515,0,0,1-2.45,9.016"/><path class="cls-7" d="M1400.692,350.836a4.446,4.446,0,0,1-1.5,2.422"/><path class="cls-7" d="M1367.45,350.839s-1.3,6.55-4.711,4.232"/><path class="cls-15" d="M1352.636,384.4s11.186-7.558,32.045-7.256,28.051,7.256,28.051,7.256v4.837s28.18,8.767,36.342,14.209,10.581,43.835,10.884,55.928,3.325,29.324,3.325,29.324,1.814-.907,3.023,1.512,3.93,12.7,2.419,15.72-18.441,5.442-25.092,4.233-7.558-3.326-8.767-5.744-3.628-12.093-3.628-12.093l-1.209,20.255s10.883,49.58,12.395,62.277c0,0-13.605,9.372-58.347,10.279s-64.393-6.651-64.393-6.651l6.349-68.928s-5.442-68.021-10.884-77.09-58.951-55.332-58.951-55.332-.907,1.267-4.232-1.327-6.047-7.734-6.047-7.734,7.256-14.511,18.744-18.441,14.208,0,14.208,0l6.047,7.255.3,2.721,22.371,16.2Z"/><path class="cls-7" d="M1256.2,377.132s-.907-8.154,9.674-14.2,16.627-5.744,16.627-5.744"/><path class="cls-7" d="M1446.656,414.325s-9.976,59.556-12.093,65.6a99.161,99.161,0,0,0-3.325,12.395"/><line class="cls-7" x1="1463.283" y1="488.694" x2="1463.283" y2="492.322"/><path class="cls-7" d="M1437.586,496.252s17.535.605,27.813-3.93"/><line class="cls-7" x1="1352.636" y1="384.396" x2="1412.732" y2="389.233"/><path class="cls-7" d="M1397.076,419.464l-8.464,84.233s5.441,1.02,4.232,3.741a35.257,35.257,0,0,0-1.814,5.139l6.046,58.089"/><path class="cls-7" d="M1369.263,503.7s29.023.718,47.766-1.4"/></g><g id="logo_left" data-name="logo left"><polygon class="cls-4" points="310.992 96.015 310.992 119.259 307.674 119.259 307.674 108.895 294.331 108.895 294.331 119.259 291.012 119.259 291.012 96.015 294.331 96.015 294.331 106.012 307.674 106.012 307.674 96.015 310.992 96.015"/><path class="cls-4" d="M331.6,110.792l-5.013-11.387-5.012,11.387Zm1.161,2.656H320.414l-2.558,5.811h-3.414l10.522-23.244h3.283L338.8,119.259h-3.484l-2.559-5.811Z"/><path class="cls-4" d="M357.693,104.115c0-3.32-2.227-5.216-6.471-5.216h-5.641v10.459h5.641C355.466,109.358,357.693,107.436,357.693,104.115Zm.1,15.144-5.012-7.139c-.463.035-.961.07-1.459.07h-5.737v7.069h-3.318V96.015h9.055c6.043,0,9.693,3.058,9.693,8.1a7.344,7.344,0,0,1-5.108,7.341l5.51,7.8h-3.624Z"/><polygon class="cls-4" points="387.925 119.259 387.89 102.324 379.498 116.437 377.97 116.437 369.578 102.42 369.578 119.259 366.39 119.259 366.39 96.015 369.115 96.015 378.808 112.356 388.361 96.015 391.086 96.015 391.121 119.259 387.933 119.259 387.925 119.259"/><path class="cls-4" d="M417.562,107.637a9.025,9.025,0,1,0-8.994,8.931A8.724,8.724,0,0,0,417.562,107.637Zm-21.368,0c0-6.807,5.24-11.884,12.374-11.884s12.313,5.051,12.313,11.884-5.24,11.884-12.313,11.884S396.194,114.444,396.194,107.637Z"/><polygon class="cls-4" points="445.943 96.015 445.943 119.259 443.218 119.259 429.281 101.922 429.281 119.259 425.963 119.259 425.963 96.015 428.688 96.015 442.625 113.352 442.625 96.015 445.943 96.015"/><polygon class="cls-4" points="461.809 111.22 461.809 119.259 458.526 119.259 458.526 111.159 449.305 96.015 452.859 96.015 460.29 108.266 467.756 96.015 471.04 96.015 461.809 111.22"/><path class="cls-4" d="M248.259,104.787a11.135,11.135,0,0,1,9.308,5.532,15.647,15.647,0,0,1,1.939,4.631c.437,1.853.244,3.793.672,5.645a7.72,7.72,0,0,0,15.3-1.494c0-4.282-3.371-7.279-7.423-7.742a12.8,12.8,0,0,1-7.309-2.788c-3.537-2.849-4.759-6.615-4.759-11.692,0-4.334-3.3-8.4-7.816-8.345s-7.641,4.011-7.641,8.336c0,5.077-1.222,8.844-4.759,11.692a12.739,12.739,0,0,1-7.309,2.788c-4.052.463-7.422,3.521-7.422,7.742a7.719,7.719,0,0,0,15.3,1.494c.428-1.852.236-3.792.672-5.645,1.24-5.243,5.545-10.145,11.248-10.171Z"/></g></svg>