<svg xmlns="http://www.w3.org/2000/svg" viewBox="0 0 1920 1080"><defs><style>.cls-1{isolation:isolate;}.cls-2{fill:#0f1854;}.cls-3{fill:#2b45ed;}.cls-4{fill:#aeb8fe;}.cls-5{fill:#043b59;}.cls-6{fill:#075e8f;}.cls-7{fill:#8cd6ff;}.cls-8{fill:#f7a594;}.cls-9{fill:#e6836f;}.cls-10{fill:#231f20;}.cls-11{fill:#fff;}.cls-12{fill:#d68676;}.cls-13{fill:#def3ff;}.cls-14{fill:#d6715f;}.cls-15{fill:#5e5e5e;}.cls-16{fill:#2c96c9;}.cls-17{fill:#1d6182;}.cls-18{fill:#5cc8ff;}.cls-19{fill:#94dbff;}.cls-20{fill:#abe3ff;}.cls-21{fill:#70caf7;}.cls-22{fill:#2982ba;}.cls-23{fill:#c2ebff;}.cls-24{fill:#2785b3;}.cls-25{fill:#0de5b2;}.cls-26{fill:#5bc2f7;}.cls-27{fill:#c9edff;}.cls-28{fill:#3990bf;}.cls-29{fill:#4abbf7;}.cls-30{fill:#b8e7ff;}.cls-31{fill:#9cddff;}.cls-32{fill:#a8e2ff;}.cls-33{fill:#56c0f7;}.cls-34{fill:#80d3ff;}.cls-35{fill:#377ca1;}.cls-36{fill:#8ad8ff;}.cls-37{fill:#50b8f2;}.cls-38{fill:#3fadeb;}.cls-39{fill:#2e97d1;}.cls-40{fill:#3c98c9;}.cls-41{fill:#317ba3;}.cls-42{fill:#4caade;}.cls-43{fill:#f26161;}.cls-44{fill:#ff9678;}.cls-45{fill:#78cfff;}.cls-46{fill:#bfe9ff;}.cls-47{fill:#b84a4a;}.cls-48{fill:#d65656;}.cls-49{fill:#0d0d0d;opacity:0.5;mix-blend-mode:soft-light;}.cls-50{fill:#77c3f2;}</style></defs><title>30- MRI Data harmonization case study</title><g class="cls-1"><g id="_30:_MRI_Data_harmonization_case_study" data-name="30: MRI Data harmonization case study"><rect class="cls-2" width="1920" height="1080"/><path class="cls-3" d="M435.763,596.53C556.868,811.1,922.04,517.036,1301.28,699.884c94.915,45.763,202.934-17.323,238.982-61.016,55.931-67.8,87.428-244.752-11.865-354.235-180.847-199.407-440.168,73.731-698.321-34.724C544.624,128.958,314.657,381.96,435.763,596.53Z"/><path class="cls-4" d="M1554.525,870.486H347.58a2.142,2.142,0,0,1-2.142-2.142h0a2.142,2.142,0,0,1,2.142-2.142H1554.525a2.142,2.142,0,0,1,2.142,2.142h0A2.142,2.142,0,0,1,1554.525,870.486Z"/><g id="doctor"><path class="cls-5" d="M550.175,863.864l36-.124a4.291,4.291,0,0,0,1.609-1.451c1.763-26.784,4.388-39.686,4.388-39.686l-25.079-.935-5.608,19.94C553.109,847.379,543.137,859.731,550.175,863.864Z"/><path class="cls-5" d="M588.911,864.214l-42.686.146c-1.082,0-.739-5.934.343-5.937l42.432.093C590.114,858.512,590.025,864.21,588.911,864.214Z"/><path class="cls-6" d="M598.6,588.124c-10.43,31.915-19.064,119.221-33.925,243.418l25.559,1.259c7.55-37.421,19.734-53.171,28.341-107.106,17.17-59.8,26.928-91.354,32.622-135.272Z"/><path class="cls-6" d="M633.2,589.636c2.438,66.246,9.138,119.356,9.138,119.356s9.3,83.289,11.939,124.115l23.1-.386c3.018-46.714,9.012-151.064,8.244-240.794Z"/><path class="cls-5" d="M654.281,833.107c-2.022,11.041-3.471,19.654-2.572,29.637l55.942.9s5.519-5.412-1.471-13.477-20.193-3.339-28.8-17.443Z"/><path class="cls-5" d="M710.192,863.779l-59.431.2c-1.082,0-.818-5.934.264-5.937l59.18.036C711.319,858.078,711.306,863.775,710.192,863.779Z"/><path class="cls-7" d="M596.88,455.905,598.694,605.4c8.209,6.566,35.405,10,58.046,8.794,10.763-.572,20.5-2.191,26.673-5.018A14.849,14.849,0,0,0,688.8,605.4l2.644-120.813c-3.806-13.68-9.9-28.24-14.133-32.247C650.658,439.842,609.015,446.862,596.88,455.905Z"/><path class="cls-8" d="M647,471.377s-25.041-18.088-27.135-22.268l5.765-35.791,11.657,5.2a48.765,48.765,0,0,1,13.62,3.154l3.7,19.088.816,4.139C657.276,448.975,647,471.377,647,471.377Z"/><path class="cls-9" d="M629.357,422.407c.466,4.428,6.293,22.374,25.637,20.509l-3.59-18.669Z"/><path class="cls-8" d="M673.454,400.4c-.458,5.837-1.622,18.6-3.676,23.994-3.126,8.211-13.447,15.132-20.377,14.261-7.839-1.618-17.372-7.246-21.438-14C626,419.883,622.706,409,622.306,400.26c-.834-18.222,14.576-29.049,29.652-27.874S674.882,382.207,673.454,400.4Z"/><path class="cls-10" d="M623.886,412.6c-1.394-6.335,3.349-7.26,6.514-1.7.5-4.3-.455-17.647,4.873-20.327,6.055-3.149,25.843,5.158,40.341-2.88,0,0-2.628-20.443-32.72-18.16C607.636,376.226,623.886,412.6,623.886,412.6Z"/><ellipse class="cls-8" cx="624.117" cy="410.63" rx="5.44" ry="7.047" transform="translate(-100.745 229.761) rotate(-19.332)"/><path class="cls-11" d="M632.188,412.358c8.514,5.888,30.156,5.565,32.622,1.674,4.17,2.023,6.189,7.493,6.189,7.493s-5.272,16.513-17.259,17.452c-12.448.976-20.334-6.136-25.748-15.589C627.992,423.388,635.24,421.052,632.188,412.358Z"/><path class="cls-11" d="M634.481,414.541c-2.611-1.318-5.076-5.193-5.179-5.357l.347-.219c.025.039,2.508,3.943,5.018,5.21Z"/><path class="cls-11" d="M629.58,425.135a14.213,14.213,0,0,1-4.392-7.873l.407-.054a13.783,13.783,0,0,0,4.258,7.62Z"/><path class="cls-10" d="M671.832,388.79s14.732-1.962,9.607-16.223c-4.416,4.819-9.154,2.7-9.154,2.7s5.19-7-4.139-16.644c-1.214,6.264-13.45,9.432-20.575,7.85-11.282-2.5-22.455,1.892-23.276,12.724,0,0-7.253,2.041-4.192,16.491,11.282-.795,15.918-11.269,24.2-13.054S660.028,390.885,671.832,388.79Z"/><path class="cls-8" d="M773.635,479.029S779,465.977,781.966,463.9s15.548,3.864,14.9,5.445-2.409,5.315-10.178.953C787.067,478.122,784.249,490.193,773.635,479.029Z"/><path class="cls-8" d="M772.725,478.964s7.492-9.157,12.18-11.193c6.243-2.712,14.449-.328,14.449-.328s2.147,16.764,1.113,18.393-17.033,2.086-17.033,2.086S772.054,487.714,772.725,478.964Z"/><path class="cls-8" d="M784.693,469.06s22.945-18.655,25.646-14.8c1.245,1.779-20.6,19.662-20.6,19.662Z"/><path class="cls-9" d="M775.173,475.342a.155.155,0,0,0,.07.066.159.159,0,0,0,.21-.077c1.722-3.7,4.869-10.087,6.6-11.3,2.287-1.6,10.946,1.865,13.859,4.194.868.693.837.989.806,1.063a4.2,4.2,0,0,1-2.463,2.668c-1.76.613-4.281.01-7.492-1.792l-.248-.14.013.284c.158,3.249-.239,7.724-1.824,10.542a.157.157,0,1,0,.274.155c1.573-2.8,2-7.164,1.877-10.43,3.177,1.742,5.7,2.307,7.5,1.678a4.6,4.6,0,0,0,2.651-2.846c.146-.359-.147-.826-.9-1.428-2.953-2.36-11.764-5.935-14.236-4.2-1.795,1.256-4.974,7.7-6.709,11.425A.159.159,0,0,0,775.173,475.342Z"/><path class="cls-9" d="M790.475,482.584c.023.041.046.08.07.118l.06.094.109-.026c3.434-.8,7.485,1.508,7.525,1.531a.158.158,0,0,0,.158-.273c-.169-.1-4.113-2.342-7.643-1.589l-.007-.013c-1.441-2.562.42-10.108.439-10.186a.158.158,0,0,0-.306-.076C790.8,472.484,788.97,479.91,790.475,482.584Z"/><polygon class="cls-8" points="759.436 486.326 766.663 500.131 773.205 494.552 777.645 490.764 782.664 486.482 775.744 476.632 773.213 478.137 773.171 478.159 759.436 486.326"/><polygon class="cls-12" points="773.171 478.019 773.171 478.159 773.205 494.552 777.645 490.764 773.213 478.137 773.171 478.019"/><path class="cls-11" d="M667.267,496.161a189.778,189.778,0,0,0,22.314,28.945,87.64,87.64,0,0,0,13.557,11.72c7.92,5.363,8.8,7.01,16.771,5.5,18.23-4.915,55.675-39.916,55.675-39.916l-2.414-24.39-52.519,29.637L691.8,462.431C679.313,447.693,666.537,472.2,667.267,496.161Z"/><path class="cls-13" d="M689.581,525.106a87.64,87.64,0,0,0,13.557,11.72c-4.9-8.756-9.227-19.655-13.024-32.558C690.114,504.268,689.794,516.425,689.581,525.106Z"/><path class="cls-11" d="M613.71,702.889c-.408-9.792,4.561-73.02,7.105-104.449.867-10.674,1.451-17.681,1.451-17.681s-.4-8.49-1-21.218c-1.78-37.76-5.349-112.819-5.66-114.057,0,0-18.314,4.5-26.916,10.616-1.6,1.138.055,62.109,1.047,94.462.359,11.727.633,19.7.633,19.7s-.667,2.471-1.792,6.691c-6.119,22.924-25.837,97.429-26.226,106.935C576.488,697.421,596.007,702.232,613.71,702.889Z"/><path class="cls-13" d="M588.58,576.949l32.235,21.491c.867-10.674,1.451-17.681,1.451-17.681s-.4-8.49-1-21.218l-31.529-8.979c.359,11.727.633,19.7.633,19.7S589.705,572.729,588.58,576.949Z"/><path class="cls-11" d="M674.53,704.259C673.47,621.065,660.3,446.553,660.3,446.553c12.543,1.029,29.654,14.036,29.654,14.036l1.525,112.285s18.666,100.067,19.082,111.249C701.617,703.525,687.26,700.433,674.53,704.259Z"/><path class="cls-8" d="M643.568,558.238l15-.348a2.906,2.906,0,0,1-3.157,3.243c-5.329-.132-5.99,4.791-9.736,4.276S641.2,559.422,643.568,558.238Z"/><polygon class="cls-11" points="697.404 544.361 696.143 542.193 656.867 547.144 655.83 550.951 697.404 544.361"/><polygon class="cls-14" points="699.708 542.526 654.76 548.246 640.173 605.433 682.546 599.732 699.708 542.526"/><path class="cls-15" d="M689.109,547.364l1.731-5.407a1,1,0,0,0-1.05-1.319l-22.456,2.474a1.4,1.4,0,0,0-1.179.962l-1.871,6.191Z"/><path class="cls-8" d="M641.186,569.856a10.219,10.219,0,0,0,.818,1.926,14.381,14.381,0,0,0,2.9,3.688,15.4,15.4,0,0,0,8.991,4.011c7.264.727,18.814-10.811,17.694-17.295-.593-3.42-20.459.788-20.459.788l-.368-.247-5.514-3.663-.977-.648a1.761,1.761,0,0,0-.587-.031,1.637,1.637,0,0,0-.563.158C640.672,559.712,640.23,566.671,641.186,569.856Z"/><path class="cls-9" d="M653.551,567.221c7.948-.743,16.934-3.25,18.141-5.061l-.254-.168c-1.144,1.717-10.186,4.2-17.916,4.926Z"/><path class="cls-9" d="M654.692,571.852a40.229,40.229,0,0,0,16.45-5.634l-.171-.252a39.854,39.854,0,0,1-16.308,5.582Z"/><path class="cls-9" d="M654.692,576.413a34.663,34.663,0,0,0,12.171-3.674l-.139-.27a34.358,34.358,0,0,1-12.061,3.641Z"/><polygon class="cls-8" points="627.999 568.737 636.889 570.669 642.004 571.782 644.247 572.269 644.469 569.333 644.786 565.174 645.251 559.064 645.309 558.315 644.944 558.206 644.938 558.206 643.647 557.831 638.764 556.404 629.587 553.724 627.999 568.737"/><path class="cls-12" d="M636.889,570.669,642,571.782a14.381,14.381,0,0,0,2.9,3.688l-.438-6.137-.32-4.488-.462-6.46-.009-.149-.031-.4-4.883-1.427-1.747,2Z"/><path class="cls-11" d="M586.4,457.776c-8.423,5.223-45.668,78.061-33.564,96.781,6.218,9.617,88.527,25.715,88.527,25.715l1.686-24.872-56.488-23.607,16.581-34.557C619.071,489.039,605.432,447.611,586.4,457.776Z"/></g><g id="monitor"><path class="cls-16" d="M964.94,508.95l-7.363,5.618-18.626-26.68-10.42-.315-11.542-.395-31.021-1.045.344-8.076c.93.191,16.294.573,30.677.878,4.038.1,8,.179,11.542.255,4.447.094,8.225.172,10.661.222a6.131,6.131,0,0,1,4.731,2.384Z"/><path class="cls-17" d="M928.531,479.19v8.383l-11.542-.395v-8.243C921.027,479.037,924.989,479.114,928.531,479.19Z"/><path class="cls-18" d="M914.5,534.35a494.818,494.818,0,0,1-88.694,0,6.91,6.91,0,0,1-6.91-6.91V457.023a6.91,6.91,0,0,1,6.91-6.909,400.552,400.552,0,0,1,88.694,0,6.909,6.909,0,0,1,6.91,6.909V527.44A6.91,6.91,0,0,1,914.5,534.35Z"/><path class="cls-19" d="M910.465,534.35a494.83,494.83,0,0,1-88.7,0,6.91,6.91,0,0,1-6.909-6.91V457.023a6.909,6.909,0,0,1,6.909-6.909,400.561,400.561,0,0,1,88.7,0,6.91,6.91,0,0,1,6.91,6.909V527.44A6.91,6.91,0,0,1,910.465,534.35Z"/><rect class="cls-2" x="819.252" y="457.975" width="93.071" height="66.635"/><path class="cls-20" d="M846.156,509.435s-12.144-5.073-9.486-25.712,43.384-22.479,54.016-5.28-1.564,29.4-16.417,34.4S846.156,509.435,846.156,509.435Z"/><path class="cls-21" d="M848,507.8s-10.938-5.015-8.676-22.577c1.236-9.6,17.259-18.378,24.163-10.635,9.236-11.568,22.205.173,26.308,6.81,5.333,8.627,2.207,18.4-4.811,23.435-4.889,3.51-13.94,9.031-19.072,2.5C861.336,516.1,848,507.8,848,507.8Z"/><path class="cls-22" d="M859.479,477.4c.885.309,3.83,1.553,4.244,6.625a24.934,24.934,0,0,1-.207,7.453s-5.693-.518-3.934-3.313,4.141-5.486,1.657-7.142-7.66.414-7.143-1.76S857.409,476.674,859.479,477.4Z"/><path class="cls-22" d="M868.487,477.192c-.884.309-3.83,1.552-4.244,6.625a24.934,24.934,0,0,0,.207,7.453s5.694-.518,3.934-3.313-4.141-5.486-1.656-7.142,7.66.414,7.142-1.76S870.558,476.467,868.487,477.192Z"/><path class="cls-22" d="M859.582,498.205a5.833,5.833,0,0,0,4.141-3,15.057,15.057,0,0,0,6.418,3.209s-3.83,1.967-4.865,5.8C863.723,500.379,859.582,498.205,859.582,498.205Z"/><polygon class="cls-19" points="794.296 575.654 794.296 585.873 898.518 585.873 936.518 585.873 937.633 555.177 836.454 555.177 794.296 575.654"/><polygon class="cls-23" points="895.475 575.654 794.296 575.654 836.454 555.177 937.633 555.177 895.475 575.654"/><polygon class="cls-19" points="839.197 559.904 831.665 563.868 839.462 563.868 846.994 559.904 839.197 559.904"/><polygon class="cls-19" points="849.032 559.904 841.5 563.868 849.297 563.868 856.829 559.904 849.032 559.904"/><polygon class="cls-19" points="858.867 559.904 851.335 563.868 859.132 563.868 866.664 559.904 858.867 559.904"/><polygon class="cls-19" points="868.702 559.904 861.17 563.868 868.967 563.868 876.499 559.904 868.702 559.904"/><polygon class="cls-19" points="878.537 559.904 871.005 563.868 878.802 563.868 886.334 559.904 878.537 559.904"/><polygon class="cls-19" points="888.372 559.904 880.84 563.868 888.637 563.868 896.169 559.904 888.372 559.904"/><polygon class="cls-19" points="898.207 559.904 890.675 563.868 898.472 563.868 906.004 559.904 898.207 559.904"/><polygon class="cls-19" points="908.042 559.904 900.51 563.868 908.307 563.868 915.839 559.904 908.042 559.904"/><polygon class="cls-19" points="822.422 567.936 814.89 571.901 822.688 571.901 830.219 567.936 822.422 567.936"/><polygon class="cls-19" points="832.257 567.936 824.725 571.901 832.523 571.901 840.054 567.936 832.257 567.936"/><polygon class="cls-19" points="842.092 567.936 834.56 571.901 842.357 571.901 849.889 567.936 842.092 567.936"/><polygon class="cls-19" points="851.927 567.936 844.395 571.901 852.193 571.901 859.724 567.936 851.927 567.936"/><polygon class="cls-19" points="861.762 567.936 854.23 571.901 862.028 571.901 869.559 567.936 861.762 567.936"/><polygon class="cls-19" points="871.597 567.936 864.065 571.901 871.863 571.901 879.394 567.936 871.597 567.936"/><polygon class="cls-19" points="881.432 567.936 873.9 571.901 881.697 571.901 889.229 567.936 881.432 567.936"/><polygon class="cls-19" points="891.267 567.936 883.735 571.901 891.532 571.901 899.064 567.936 891.267 567.936"/><rect class="cls-19" x="916.361" y="570.662" width="10.498" height="24.191"/><rect class="cls-19" x="929.42" y="564.823" width="10.498" height="24.191"/><path class="cls-24" d="M937.279,625.735a12.175,12.175,0,0,1-8.59-3.332c-8.5-7.938-7.506-27.24-7.46-28.058l1.8.1c-.011.192-.987,19.28,6.893,26.64a10.825,10.825,0,0,0,9.148,2.73c1.709-.213,3.055-1.269,4.116-3.226,9.164-16.9-9.09-88.507-12.216-94.932-1.713-3.522-4.687-5.115-9.076-4.873l-.1-1.8c5.132-.283,8.76,1.7,10.8,5.883,3.239,6.657,21.837,78.769,12.18,96.58-1.34,2.471-3.183,3.869-5.477,4.156A16.27,16.27,0,0,1,937.279,625.735Z"/><path class="cls-24" d="M947.2,618.039a10.956,10.956,0,0,1-8.232-3.486c-7.326-7.688-5.981-25.417-5.92-26.168l1.8.145c-.014.176-1.341,17.679,5.43,24.781a9.14,9.14,0,0,0,7.279,2.92c1.741-.232,3.042-1.386,3.977-3.524,7.718-17.664-14.775-90.07-19.176-96.2-3.46-4.822-6.569-5.187-10.917-5.195l0-1.8c4.6.008,8.435.452,12.379,5.946,2.36,3.289,9.309,23.785,14.4,44.3,3.842,15.494,9.6,43.069,4.964,53.67-1.2,2.749-3.032,4.3-5.444,4.6l-.082.007C947.5,618.037,947.348,618.039,947.2,618.039Z"/></g><rect class="cls-25" x="1027.696" y="323.442" width="402.065" height="514.616"/><ellipse class="cls-26" cx="1027.507" cy="581.735" rx="89.94" ry="257.556"/><path class="cls-11" d="M1087.135,840.091v-1.6c11.892,0,23.463-6.712,34.392-19.949,10.649-12.9,20.221-31.387,28.449-54.951,16.959-48.563,26.3-113.148,26.3-181.856s-9.34-133.292-26.3-181.855c-8.228-23.564-17.8-42.052-28.449-54.951-10.929-13.237-22.5-19.949-34.392-19.949v-1.6c24.391,0,47.245,26.98,64.353,75.973,17.017,48.728,26.388,113.5,26.388,182.383s-9.371,133.655-26.388,182.384C1134.38,813.11,1111.526,840.091,1087.135,840.091Z"/><path class="cls-11" d="M1180.866,840.091v-1.6c11.891,0,23.463-6.712,34.391-19.949,10.65-12.9,20.222-31.387,28.451-54.951,16.958-48.563,26.3-113.147,26.3-181.856s-9.34-133.292-26.3-181.855c-8.229-23.564-17.8-42.052-28.451-54.951-10.928-13.237-22.5-19.949-34.391-19.949v-1.6c24.39,0,47.245,26.98,64.353,75.973,17.017,48.728,26.388,113.5,26.388,182.383s-9.371,133.656-26.388,182.384C1228.111,813.11,1205.256,840.091,1180.866,840.091Z"/><ellipse class="cls-27" cx="1027.507" cy="581.735" rx="81.944" ry="249.116"/><ellipse class="cls-25" cx="1433.718" cy="581.735" rx="89.94" ry="257.556"/><ellipse class="cls-28" cx="1023.16" cy="581.16" rx="67.446" ry="208.572"/><path class="cls-29" d="M1077.918,583.106c0,60.4-8.534,114.118-21.776,148.416-8.935,23.153-20.031,37.452-32.105,38.941a15.629,15.629,0,0,1-2.113.144c-30.92,0-55.995-83.951-55.995-187.5s25.075-187.5,56-187.5a15.629,15.629,0,0,1,2.113.144c12.074,1.489,23.17,15.788,32.105,38.942C1069.384,468.988,1077.918,522.708,1077.918,583.106Z"/><path class="cls-30" d="M1077.918,583.106c0,60.4-8.534,114.118-21.776,148.416-8.935,23.153-20.031,37.452-32.105,38.941-29.942-3.682-53.9-86.161-53.9-187.357s23.954-183.675,53.9-187.358c12.074,1.489,23.17,15.788,32.105,38.942C1069.384,468.988,1077.918,522.708,1077.918,583.106Z"/><path class="cls-2" d="M1077.918,583.106c0,60.4-8.534,114.118-21.776,148.416-13.242-34.3-21.761-88.019-21.761-148.416s8.519-114.118,21.761-148.416C1069.384,468.988,1077.918,522.708,1077.918,583.106Z"/><rect class="cls-11" x="1096.974" y="424.294" width="407.401" height="1.601"/><rect class="cls-11" x="1106.144" y="703.318" width="407.401" height="1.602"/><path class="cls-26" d="M1171.67,539.724h-57.691c4.847,32.979,1.175,77.48-2.982,114.013h60.673Z"/><path class="cls-27" d="M1287.392,653.156c-10.023,157.5-74.232,212.657-74.232,212.657l-118.281.688s-.112-.784-.288-2.337a244.986,244.986,0,0,1-1.2-26.356c64.192-20.063,79.276-184.684,79.276-184.684h23.2Z"/><path class="cls-31" d="M1195.867,653.124c-3.266,42.4-20.976,119.258-44.817,163.74-18.495,34.506-41.968,44.546-56.459,47.3a244.986,244.986,0,0,1-1.2-26.356c64.192-20.063,79.276-184.684,79.276-184.684Z"/><path class="cls-27" d="M1484.214,653.156c-10.023,157.5-74.232,212.657-74.232,212.657L1291.7,866.5s-.112-.784-.288-2.337a244.986,244.986,0,0,1-1.2-26.356c64.192-20.063,79.276-184.684,79.276-184.684h23.2Z"/><path class="cls-31" d="M1392.689,653.124c-3.266,42.4-20.976,119.258-44.818,163.74-18.494,34.506-41.967,44.546-56.458,47.3a244.986,244.986,0,0,1-1.2-26.356c64.192-20.063,79.276-184.684,79.276-184.684Z"/><path class="cls-32" d="M1528.668,653.737H1154.475c8.5-37.09,9.8-74.954,0-114.013h374.193a14.347,14.347,0,0,1,14.347,14.347V639.39A14.347,14.347,0,0,1,1528.668,653.737Z"/><rect class="cls-33" x="1122.026" y="527.257" width="76.8" height="136.652" rx="24.664" ry="24.664"/><rect class="cls-34" x="1136.54" y="527.257" width="68.022" height="136.652" rx="24.664" ry="24.664"/><rect class="cls-35" x="1146.506" y="546.609" width="49.814" height="21.861"/><circle class="cls-35" cx="1154.089" cy="586.437" r="4.398"/><circle class="cls-35" cx="1154.089" cy="600.447" r="4.398"/><circle class="cls-35" cx="1154.089" cy="614.457" r="4.398"/><circle class="cls-35" cx="1154.089" cy="628.466" r="4.398"/><circle class="cls-35" cx="1154.089" cy="642.476" r="4.398"/><circle class="cls-35" cx="1172.021" cy="586.437" r="4.398"/><circle class="cls-35" cx="1172.021" cy="600.447" r="4.398"/><circle class="cls-35" cx="1172.021" cy="614.457" r="4.398"/><circle class="cls-35" cx="1172.021" cy="628.466" r="4.398"/><circle class="cls-35" cx="1172.021" cy="642.476" r="4.398"/><circle class="cls-35" cx="1190.14" cy="586.437" r="4.398"/><circle class="cls-35" cx="1190.14" cy="600.447" r="4.398"/><circle class="cls-35" cx="1190.14" cy="614.457" r="4.398"/><circle class="cls-35" cx="1190.14" cy="628.466" r="4.398"/><circle class="cls-35" cx="1190.14" cy="642.476" r="4.398"/><path class="cls-36" d="M1025.656,804.235c-20.38,0-39.459-23.317-53.721-65.657-14.169-42.06-21.972-97.966-21.972-157.418s7.8-115.357,21.972-157.418c14.262-42.339,33.341-65.657,53.721-65.657s39.46,23.318,53.722,65.657c14.169,42.061,21.972,97.966,21.972,157.418s-7.8,115.358-21.972,157.418C1065.116,780.918,1046.037,804.235,1025.656,804.235Zm0-444.5c-9.843,0-19.43,5.771-28.5,17.154-8.856,11.119-16.817,27.059-23.661,47.379-14.113,41.895-21.886,97.613-21.886,156.891s7.773,115,21.886,156.891c6.844,20.32,14.8,36.261,23.661,47.379,9.066,11.383,18.653,17.155,28.5,17.155s19.431-5.772,28.5-17.155c8.855-11.118,16.817-27.059,23.661-47.379,14.113-41.9,21.886-97.613,21.886-156.891s-7.773-115-21.886-156.891c-6.844-20.32-14.806-36.26-23.661-47.379C1045.087,365.507,1035.5,359.736,1025.656,359.736Z"/><path class="cls-36" d="M329.4,692.115a14.2,14.2,0,0,0,12.049,21.739h720.827V692.115Z"/><path class="cls-37" d="M1063.643,683.732c0,.183-.005.36-.02.538a8.373,8.373,0,0,1-8.358,7.84H342.2a8.373,8.373,0,0,1-8.363-7.84c-.015-.178-.021-.355-.021-.538a8.382,8.382,0,0,1,8.384-8.383h713.065A8.381,8.381,0,0,1,1063.643,683.732Z"/><polygon class="cls-38" points="880.337 796.769 660.839 796.769 589.264 714.06 951.912 714.06 880.337 796.769"/><rect class="cls-39" x="647.501" y="783.54" width="244.27" height="82.748"/><path class="cls-40" d="M703.789,741.263H522.718c-14.9,0-19.677-17.847-14.322-29.283v0c2.526-5.386,7.3-9.352,14.322-9.352H703.789c10.31,0,16.533,6.091,18.653,13.435C725.677,727.215,719.454,741.263,703.789,741.263Z"/><path class="cls-41" d="M703.789,741.263H522.718c-14.9,0-19.677-17.847-14.322-29.283,1.3,6,4.361,13.48,11.472,13.48H709.1a25.053,25.053,0,0,0,13.343-9.4C725.677,727.215,719.454,741.263,703.789,741.263Z"/><path class="cls-39" d="M334.367,686.71a8.376,8.376,0,0,0,7.833,5.4h713.065a8.361,8.361,0,0,0,7.826-5.4Z"/><path class="cls-42" d="M857.349,530.081a1.8,1.8,0,1,1-1.8-1.8A1.8,1.8,0,0,1,857.349,530.081Z"/><path class="cls-42" d="M862.623,530.081a1.8,1.8,0,1,1-1.805-1.8A1.8,1.8,0,0,1,862.623,530.081Z"/><path class="cls-42" d="M867.9,530.081a1.8,1.8,0,1,1-1.8-1.8A1.8,1.8,0,0,1,867.9,530.081Z"/><path class="cls-42" d="M873.17,530.081a1.8,1.8,0,1,1-1.8-1.8A1.8,1.8,0,0,1,873.17,530.081Z"/><path class="cls-42" d="M878.443,530.081a1.8,1.8,0,1,1-1.8-1.8A1.8,1.8,0,0,1,878.443,530.081Z"/><path class="cls-43" d="M925.343,617.518s-10.352-11.727-18.916-15.872-61.393-16.323-61.393-16.323c-14.874-4.107-16.313,19.509,6.265,26.432C851.3,611.755,929.264,630.972,925.343,617.518Z"/><path class="cls-44" d="M785.569,599.337c-4.633-.8-5.252-5.1.3-9.689,0,0,36.526-6.836,49.708-5.581s11.814,8.423,3.154,12.558S785.569,599.337,785.569,599.337Z"/><path class="cls-43" d="M803.705,666.24l41.268,12.293,1.06-7.893s1.4.225,3.828.5c8.059.924,27.39,2.414,43.978-1.982,9.991-2.651,19.134-9.712,26.071-16.533a110.982,110.982,0,0,0,13.121-15.49c-1.849-6.554-6.035-14.287-14.061-23.312-17.277-12.386-72.278-24.122-72.278-24.122C789.809,590.985,765.676,640.476,803.705,666.24Z"/><path class="cls-7" d="M1012.541,677.476a22.934,22.934,0,0,0-8.264-1.54h-612.3a22.862,22.862,0,0,0-8.242,1.54Z"/><path class="cls-7" d="M879.224,677.721c-3.494-36.391-9.417-68.953-22.671-87.537a354.213,354.213,0,0,0-56.646,2.431q-4.478.52-9.017,1.129C729.277,601.981,659.714,622.1,585.4,640.759c-9.553,2.4-30.858-10.156-40.562-7.835-42.505,16.732-94.9,38.411-150.241,43.451a22.855,22.855,0,0,0-7.72,1.346Z"/><path class="cls-45" d="M563.005,644.784s-9.332,8.178-20.894,10.791,29.067,19.04,29.067,19.04l-74.383-2.24s40.585-3.36,34.783-9.706-4.426-15.307,0-15.307S548.07,653.779,563.005,644.784Z"/><path class="cls-45" d="M857.882,675.934c.25,2.52-247.276.879-257.092-.043s202.577-14.355,207.157-37.074c3.989-19.785-12.477-38.444-19.077-45.32q4.542-.609,9.017-1.129l7.415.744S857.627,673.418,857.882,675.934Z"/><path class="cls-46" d="M814.451,677.476h62.778c-1.507-19.75-4.067-40.669-8.113-54.037-7.5-24.76-13.009-33.627-13.009-33.627-16.664-3.038-39.993-1.572-63.956,3.135,0,0,13.542,16.786,15.8,33.591C811.179,645.475,813.2,662.752,814.451,677.476Z"/><path class="cls-44" d="M863.476,642.357l-44.829-11.089c-10.317-11.456-25.537-13.772-46.327-23.31l-7.15,6.169s25.217,29.477,55.19,41.5c23.577,7.059,39.536,24.444,39.536,24.444Z"/><path class="cls-43" d="M919.54,652.52c-6.937,6.821-16.079,13.882-26.07,16.533-16.588,4.4-35.92,2.906-43.978,1.982-2.952-24.49,4.722-32.344,4.722-32.344l35.335,1.026S912.713,641.227,919.54,652.52Z"/><path class="cls-44" d="M773.2,605.6s-2.237-10.87-5.641-10.792c-1.734.881,1.2,4.1-.879,5.12s-2.142-8.355-5.942-7.187-11.805,10.915,4.718,21.849C776.093,617.338,773.2,605.6,773.2,605.6Z"/><path class="cls-47" d="M854.6,638.88l.034-.51c.235.02,23.639,2.031,34.442-.715l.11.5C878.309,640.918,854.833,638.9,854.6,638.88Z"/><path class="cls-48" d="M927.591,664.191c-10.1,16.574-37.076,21.009-75.935,14.744a31.472,31.472,0,0,1-1.795-7.79c8.059.924,27.39,2.414,43.978-1.982,9.991-2.651,19.134-9.712,26.071-16.533a110.982,110.982,0,0,0,13.121-15.49C937.005,651.2,930.236,659.843,927.591,664.191Z"/><path class="cls-44" d="M921.838,616.063l3.8.544,13.594,1.97,18.555,5.2-1.242,27.251L928.586,648c-7.24-.717-16.54-15.578-20.822-26.729C910.78,617.187,916.49,615.577,921.838,616.063Z"/><path class="cls-49" d="M938.394,641.631a57.418,57.418,0,0,1-12.761-25.024l13.594,1.97Z"/><path class="cls-44" d="M961.417,599.2c-12.563-1.159-28.557,5.883-29.887,22s12.826,30.11,29.988,31.809S993.67,643.019,995,626.9,980.584,595.731,961.417,599.2Z"/><ellipse class="cls-44" cx="963.287" cy="647.925" rx="5.097" ry="5.581"/><path class="cls-11" d="M971.888,599.029s16.84-3.459,26.379,8.617c12.148,15.38,2.83,39.532-1.708,43.853-13.1,12.471-30.939,1.663-30.939,1.663C975.99,634.629,981.2,616.4,971.888,599.029Z"/><path class="cls-7" d="M1008.872,638.749v37.462s-78.689-.5-78.689-.75l.386-20.641.3-16.071Z"/><path class="cls-44" d="M785.865,589.648s-12.524,7.054-5.575,12.209,16.139-8.836,14.346-10.8S785.865,589.648,785.865,589.648Z"/><path class="cls-50" d="M1008.872,656.453v19.758s-78.689-.5-78.689-.75l.386-20.641C938.323,657.133,978.575,668.082,1008.872,656.453Z"/></g><g id="logo_left" data-name="logo left"><polygon class="cls-11" points="310.992 96.015 310.992 119.259 307.674 119.259 307.674 108.895 294.331 108.895 294.331 119.259 291.012 119.259 291.012 96.015 294.331 96.015 294.331 106.012 307.674 106.012 307.674 96.015 310.992 96.015"/><path class="cls-11" d="M331.6,110.792l-5.013-11.387-5.012,11.387Zm1.161,2.656H320.414l-2.558,5.811h-3.414l10.522-23.244h3.283L338.8,119.259h-3.484l-2.559-5.811Z"/><path class="cls-11" d="M357.693,104.115c0-3.32-2.227-5.216-6.471-5.216h-5.641v10.459h5.641C355.466,109.358,357.693,107.436,357.693,104.115Zm.1,15.144-5.012-7.139c-.463.035-.961.07-1.459.07h-5.737v7.069h-3.318V96.015h9.055c6.043,0,9.693,3.058,9.693,8.1a7.344,7.344,0,0,1-5.108,7.341l5.51,7.8h-3.624Z"/><polygon class="cls-11" points="387.925 119.259 387.89 102.324 379.498 116.437 377.97 116.437 369.578 102.42 369.578 119.259 366.39 119.259 366.39 96.015 369.115 96.015 378.808 112.356 388.361 96.015 391.086 96.015 391.121 119.259 387.933 119.259 387.925 119.259"/><path class="cls-11" d="M417.562,107.637a9.025,9.025,0,1,0-8.994,8.931A8.724,8.724,0,0,0,417.562,107.637Zm-21.368,0c0-6.807,5.24-11.884,12.374-11.884s12.313,5.051,12.313,11.884-5.24,11.884-12.313,11.884S396.194,114.444,396.194,107.637Z"/><polygon class="cls-11" points="445.943 96.015 445.943 119.259 443.218 119.259 429.281 101.922 429.281 119.259 425.963 119.259 425.963 96.015 428.688 96.015 442.625 113.352 442.625 96.015 445.943 96.015"/><polygon class="cls-11" points="461.809 111.22 461.809 119.259 458.526 119.259 458.526 111.159 449.305 96.015 452.859 96.015 460.29 108.266 467.756 96.015 471.04 96.015 461.809 111.22"/><path class="cls-11" d="M248.259,104.787a11.135,11.135,0,0,1,9.308,5.532,15.647,15.647,0,0,1,1.939,4.631c.437,1.853.244,3.793.672,5.645a7.72,7.72,0,0,0,15.3-1.494c0-4.282-3.371-7.279-7.423-7.742a12.8,12.8,0,0,1-7.309-2.788c-3.537-2.849-4.759-6.615-4.759-11.692,0-4.334-3.3-8.4-7.816-8.345s-7.641,4.011-7.641,8.336c0,5.077-1.222,8.844-4.759,11.692a12.739,12.739,0,0,1-7.309,2.788c-4.052.463-7.422,3.521-7.422,7.742a7.719,7.719,0,0,0,15.3,1.494c.428-1.852.236-3.792.672-5.645,1.24-5.243,5.545-10.145,11.248-10.171Z"/></g></g></svg>