<svg xmlns="http://www.w3.org/2000/svg" width="563.75" height="336.312" viewBox="0 0 563.75 336.312">
  <metadata><?xpacket begin="﻿" id="W5M0MpCehiHzreSzNTczkc9d"?>
<x:xmpmeta xmlns:x="adobe:ns:meta/" x:xmptk="Adobe XMP Core 5.6-c138 79.159824, 2016/09/14-01:09:01        ">
   <rdf:RDF xmlns:rdf="http://www.w3.org/1999/02/22-rdf-syntax-ns#">
      <rdf:Description rdf:about=""/>
   </rdf:RDF>
</x:xmpmeta>                         
<?xpacket end="w"?></metadata>
<defs>
    <style>
      .cls-1 {
        fill: #d50032;
        fill-rule: evenodd;
      }
    </style>
  </defs>
  <path class="cls-1" d="M28.806,0.084A30.328,30.328,0,0,1,47.137,5.8c1.254,0.941,1.333,2.194.47,3.6l-1.019,1.567c-0.941,1.41-2.117,1.566-3.6.627A24.923,24.923,0,0,0,29.119,7.21c-12.843,0-20.443,9.4-20.443,21.066,0,11.747,7.756,21.85,20.521,21.85a24.772,24.772,0,0,0,15.038-5.4c1.333-1.018,2.587-1.018,3.606.313L49.014,46.6a2.4,2.4,0,0,1-.392,3.6,30.613,30.613,0,0,1-19.659,7.048c-17.072,0-28.273-12.687-28.273-28.9C0.689,12.3,12.283.084,28.806,0.084Zm30.7,3.524a2.284,2.284,0,0,1,2.583-2.584H89.037A2.282,2.282,0,0,1,91.62,3.608V5.174a2.315,2.315,0,0,1-2.583,2.584H67.183V25.065H84.495a2.314,2.314,0,0,1,2.583,2.584v1.567A2.315,2.315,0,0,1,84.495,31.8H67.183V49.576H90.37a2.284,2.284,0,0,1,2.583,2.584v1.567a2.284,2.284,0,0,1-2.583,2.584H62.092a2.284,2.284,0,0,1-2.583-2.584V3.608Zm43.469,0a2.284,2.284,0,0,1,2.582-2.584h2.979a3.236,3.236,0,0,1,3.132,1.723l23.574,34.222c1.96,2.976,4.546,7.988,4.546,7.988h0.153s-0.466-4.934-.466-7.988V3.608a2.314,2.314,0,0,1,2.582-2.584h2.509a2.284,2.284,0,0,1,2.583,2.584v50.12a2.284,2.284,0,0,1-2.583,2.584H141.59a3.119,3.119,0,0,1-3.053-1.723L114.88,20.445c-1.955-3.055-4.542-8.067-4.542-8.067h-0.157s0.47,4.934.47,8.067V53.727a2.284,2.284,0,0,1-2.582,2.584H105.56a2.284,2.284,0,0,1-2.582-2.584V3.608ZM173.7,7.759H157.255a2.317,2.317,0,0,1-2.586-2.584V3.608a2.285,2.285,0,0,1,2.586-2.584h40.573a2.261,2.261,0,0,1,2.5,2.584V5.174a2.294,2.294,0,0,1-2.5,2.584h-16.45V53.727a2.317,2.317,0,0,1-2.587,2.584h-2.582a2.262,2.262,0,0,1-2.509-2.584V7.759Zm34.149-4.151a2.285,2.285,0,0,1,2.587-2.584h14.881c5.405,0,8.066.47,10.339,1.488,5.248,2.349,8.693,7.44,8.693,14.487s-3.759,13.157-9.869,15.193v0.157a14.344,14.344,0,0,1,1.647,2.506l9.947,18.4c1.019,1.8.235,3.055-1.725,3.055h-3.131a3.05,3.05,0,0,1-3.058-1.8l-10.809-20.2H215.527V53.727a2.286,2.286,0,0,1-2.587,2.584h-2.5a2.285,2.285,0,0,1-2.587-2.584V3.608Zm18.8,23.964c6.027,0,9.868-4.073,9.868-10.259,0-3.994-1.724-7.126-5.169-8.614-1.411-.626-3.057-0.94-6.581-0.94h-9.241V27.571H226.65ZM256.173,3.608a2.285,2.285,0,0,1,2.587-2.584H285.7a2.286,2.286,0,0,1,2.587,2.584V5.174A2.318,2.318,0,0,1,285.7,7.759h-21.85V25.065h17.307a2.317,2.317,0,0,1,2.587,2.584v1.567a2.317,2.317,0,0,1-2.587,2.584H263.851V49.576h23.182a2.286,2.286,0,0,1,2.587,2.584v1.567a2.285,2.285,0,0,1-2.587,2.584H258.76a2.285,2.285,0,0,1-2.587-2.584V3.608Zm63.053,0a2.284,2.284,0,0,1,2.583-2.584h25.3A2.317,2.317,0,0,1,349.7,3.608V5.174a2.352,2.352,0,0,1-2.587,2.584H326.9V25.926h16.763a2.314,2.314,0,0,1,2.582,2.584v1.567a2.282,2.282,0,0,1-2.582,2.584H326.9V53.727a2.284,2.284,0,0,1-2.583,2.584h-2.508a2.284,2.284,0,0,1-2.583-2.584V3.608Zm64.456-3.524c16.449,0,28.356,12.295,28.356,28.192,0,16.289-11.907,28.976-28.356,28.976s-28.43-12.687-28.43-28.976C355.252,12.379,367.237.084,383.682,0.084Zm0,50.041c11.75,0,20.364-9.475,20.364-21.85,0-11.981-8.614-21.066-20.364-21.066s-20.443,9.084-20.443,21.066C363.239,40.65,371.936,50.125,383.682,50.125ZM422.608,3.608A2.285,2.285,0,0,1,425.2,1.023h14.881c5.4,0,8.066.47,10.339,1.488,5.248,2.349,8.693,7.44,8.693,14.487s-3.758,13.157-9.869,15.193v0.157a14.344,14.344,0,0,1,1.647,2.506l9.947,18.4c1.019,1.8.235,3.055-1.725,3.055h-3.131a3.051,3.051,0,0,1-3.058-1.8l-10.809-20.2H430.286V53.727a2.285,2.285,0,0,1-2.587,2.584h-2.5a2.285,2.285,0,0,1-2.587-2.584V3.608Zm18.8,23.964c6.027,0,9.869-4.073,9.869-10.259,0-3.994-1.725-7.126-5.17-8.614-1.411-.626-3.057-0.94-6.58-0.94h-9.242V27.571h11.123ZM4.134,84.931a2.285,2.285,0,0,1,2.587-2.584h2.5a2.285,2.285,0,0,1,2.587,2.584V130.9H34.054a2.318,2.318,0,0,1,2.587,2.584v1.566a2.317,2.317,0,0,1-2.587,2.584H6.721a2.285,2.285,0,0,1-2.587-2.584V84.931Zm61.407-3.524c16.449,0,28.352,12.295,28.352,28.191,0,16.29-11.9,28.977-28.352,28.977s-28.43-12.687-28.43-28.977C37.111,93.7,49.092,81.408,65.541,81.408Zm0,50.042c11.75,0,20.364-9.476,20.364-21.851,0-11.981-8.614-21.065-20.364-21.065S45.1,97.617,45.1,109.6C45.1,121.973,53.791,131.449,65.541,131.449Zm38.926-46.518a2.284,2.284,0,0,1,2.583-2.584h2.979a3.235,3.235,0,0,1,3.131,1.723l23.574,34.222c1.96,2.976,4.547,7.988,4.547,7.988h0.152s-0.466-4.934-.466-7.988V84.931a2.315,2.315,0,0,1,2.583-2.584h2.508a2.284,2.284,0,0,1,2.583,2.584V135.05a2.283,2.283,0,0,1-2.583,2.584H143.08a3.119,3.119,0,0,1-3.053-1.722L116.37,101.769c-1.956-3.055-4.543-8.067-4.543-8.067h-0.156s0.47,4.934.47,8.067V135.05a2.283,2.283,0,0,1-2.583,2.584H107.05a2.284,2.284,0,0,1-2.583-2.584V84.931Zm83.022-3.524a32.715,32.715,0,0,1,18.169,5.169,2.276,2.276,0,0,1,.549,3.523l-1.1,1.646c-0.936,1.409-2.112,1.487-3.6.7a25.351,25.351,0,0,0-13.627-3.915c-12.691,0-20.6,9.475-20.6,21.3,0,12.609,8.771,21.616,20.208,21.616a20.943,20.943,0,0,0,15.743-7.126V116.57h-6.423a2.315,2.315,0,0,1-2.583-2.585v-1.567a2.349,2.349,0,0,1,2.583-2.585H207.7a2.315,2.315,0,0,1,2.583,2.585V135.05a2.282,2.282,0,0,1-2.583,2.584h-1.489c-1.642,0-2.583-.86-2.583-2.192v-2.036c0-.941.079-1.722,0.079-1.722h-0.157s-5.875,6.891-17.077,6.891c-14.959,0-27.175-11.825-27.175-28.428C159.294,93.781,171.275,81.408,187.489,81.408Zm34.07,3.524a2.284,2.284,0,0,1,2.582-2.584h2.509a2.284,2.284,0,0,1,2.582,2.584V135.05a2.283,2.283,0,0,1-2.582,2.584h-2.509a2.283,2.283,0,0,1-2.582-2.584V84.931Zm34.226,4.151H239.341a2.318,2.318,0,0,1-2.587-2.584V84.931a2.285,2.285,0,0,1,2.587-2.584h40.572a2.26,2.26,0,0,1,2.5,2.584V86.5a2.294,2.294,0,0,1-2.5,2.584h-16.45V135.05a2.316,2.316,0,0,1-2.586,2.584h-2.583a2.262,2.262,0,0,1-2.509-2.584V89.082Zm33.443-4.151a2.316,2.316,0,0,1,2.583-2.584H294.4a2.259,2.259,0,0,1,2.5,2.584v33.047c0,8.459,5.562,13.471,14.023,13.471s14.02-5.012,14.02-13.549V84.931a2.315,2.315,0,0,1,2.582-2.584h2.587a2.315,2.315,0,0,1,2.583,2.584v33.126c0,12.294-8.772,20.518-21.693,20.518-13,0-21.776-8.224-21.776-20.518V84.931Zm56.861,0a2.285,2.285,0,0,1,2.587-2.584h15.743c16.837,0,28.039,10.1,28.039,27.565,0,17.541-11.2,27.722-28.039,27.722H348.676a2.285,2.285,0,0,1-2.587-2.584V84.931ZM363.871,130.9c12.451,0,20.6-7.361,20.6-20.988,0-13.547-8.227-20.83-20.6-20.83h-10.1V130.9h10.1Zm39.317-45.969a2.284,2.284,0,0,1,2.583-2.584h2.509a2.284,2.284,0,0,1,2.582,2.584V135.05a2.283,2.283,0,0,1-2.582,2.584h-2.509a2.284,2.284,0,0,1-2.583-2.584V84.931Zm21.772,0a2.285,2.285,0,0,1,2.587-2.584h2.974a3.238,3.238,0,0,1,3.136,1.723l23.574,34.222c1.96,2.976,4.542,7.988,4.542,7.988h0.157s-0.47-4.934-.47-7.988V84.931a2.317,2.317,0,0,1,2.587-2.584h2.5a2.285,2.285,0,0,1,2.587,2.584V135.05a2.285,2.285,0,0,1-2.587,2.584h-2.975a3.125,3.125,0,0,1-3.057-1.722l-23.653-34.143c-1.959-3.055-4.542-8.067-4.542-8.067h-0.157s0.471,4.934.471,8.067V135.05a2.285,2.285,0,0,1-2.587,2.584h-2.5a2.285,2.285,0,0,1-2.587-2.584V84.931Zm70.805-.47a2.719,2.719,0,0,1,2.9-2.114h3.763a2.771,2.771,0,0,1,2.9,2.114l18.17,50.2c0.627,1.8-.235,2.976-2.113,2.976h-2.665a2.791,2.791,0,0,1-2.9-2.114l-4.934-13.782H490.047l-4.856,13.782a2.706,2.706,0,0,1-2.818,2.114h-2.665c-1.96,0-2.74-1.173-2.117-2.976Zm13.078,30.854-6.11-17.541c-0.936-2.82-2.112-7.831-2.112-7.831h-0.157s-1.254,5.012-2.195,7.831l-6.184,17.541h16.758Zm23.026-30.384a2.285,2.285,0,0,1,2.587-2.584h2.5a2.285,2.285,0,0,1,2.587,2.584V130.9h22.242a2.317,2.317,0,0,1,2.586,2.584v1.566a2.316,2.316,0,0,1-2.586,2.584H534.456a2.285,2.285,0,0,1-2.587-2.584V84.931ZM1.316,210.578L2.649,208.7c0.936-1.252,2.034-1.409,3.523-.471,1.96,1.411,6.189,4.464,12.064,4.464s9.712-3.131,9.712-7.908c0-12.216-26.632-9.477-26.632-26.706,0-9.318,7.831-15.349,17.934-15.349a24,24,0,0,1,13.867,4.23,2.47,2.47,0,0,1,.78,3.523L32.8,172.441c-0.941,1.644-2.2,1.487-3.528.7a19.238,19.238,0,0,0-10.182-3.21c-5.714,0-9.947,2.975-9.947,7.751,0,11.905,26.631,8.694,26.631,26.471,0,8.691-6.5,15.741-17.542,15.741A27.416,27.416,0,0,1,1.63,214.181,2.356,2.356,0,0,1,1.316,210.578ZM58.647,170.4H42.2a2.317,2.317,0,0,1-2.587-2.585v-1.565a2.286,2.286,0,0,1,2.587-2.585H82.774a2.262,2.262,0,0,1,2.5,2.585v1.565a2.293,2.293,0,0,1-2.5,2.585H66.325v45.969a2.318,2.318,0,0,1-2.587,2.585H61.156a2.262,2.262,0,0,1-2.508-2.585V170.4Zm33.443-4.15a2.317,2.317,0,0,1,2.583-2.585H97.26a2.26,2.26,0,0,1,2.5,2.585V199.3c0,8.456,5.561,13.468,14.023,13.468s14.019-5.012,14.019-13.547V166.254a2.317,2.317,0,0,1,2.583-2.585h2.587a2.315,2.315,0,0,1,2.582,2.585V199.38c0,12.3-8.771,20.518-21.692,20.518-13,0-21.776-8.223-21.776-20.518V166.254Zm56.86,0a2.287,2.287,0,0,1,2.587-2.585h15.744c16.837,0,28.038,10.1,28.038,27.566,0,17.542-11.2,27.723-28.038,27.723H151.537a2.286,2.286,0,0,1-2.587-2.585V166.254Zm17.782,45.97c12.451,0,20.6-7.362,20.6-20.989,0-13.549-8.227-20.831-20.6-20.831h-10.1v41.82h10.1Zm39.318-45.97a2.285,2.285,0,0,1,2.583-2.585h2.508a2.285,2.285,0,0,1,2.583,2.585v50.119a2.285,2.285,0,0,1-2.583,2.585h-2.508a2.284,2.284,0,0,1-2.583-2.585V166.254Zm21.771,0a2.287,2.287,0,0,1,2.587-2.585h26.941a2.286,2.286,0,0,1,2.587,2.585v1.565a2.317,2.317,0,0,1-2.587,2.585H235.5V187.71h17.308a2.318,2.318,0,0,1,2.587,2.585v1.567a2.318,2.318,0,0,1-2.587,2.585H235.5v17.777h23.183a2.285,2.285,0,0,1,2.587,2.584v1.565a2.286,2.286,0,0,1-2.587,2.585H230.408a2.286,2.286,0,0,1-2.587-2.585V166.254Zm40.651,44.324,1.333-1.879c0.936-1.252,2.033-1.409,3.523-.471,1.96,1.411,6.188,4.464,12.063,4.464s9.712-3.131,9.712-7.908c0-12.216-26.631-9.477-26.631-26.706,0-9.318,7.83-15.349,17.934-15.349a24,24,0,0,1,13.867,4.23,2.47,2.47,0,0,1,.779,3.523l-1.093,1.959c-0.94,1.644-2.195,1.487-3.527.7a19.241,19.241,0,0,0-10.183-3.21c-5.714,0-9.947,2.975-9.947,7.751,0,11.905,26.632,8.694,26.632,26.471,0,8.691-6.5,15.741-17.543,15.741a27.42,27.42,0,0,1-16.606-5.717A2.356,2.356,0,0,1,268.472,210.578Zm43.451,62.208H2.7a1.16,1.16,0,0,1-1.16-1.16v-4.139a1.16,1.16,0,0,1,1.16-1.16H311.923a1.16,1.16,0,0,1,1.16,1.16v4.139A1.16,1.16,0,0,1,311.923,272.786ZM363.614,336.4H2.7a1.159,1.159,0,0,1-1.16-1.159V331.1a1.159,1.159,0,0,1,1.16-1.159H363.614a1.159,1.159,0,0,1,1.159,1.159v4.14A1.159,1.159,0,0,1,363.614,336.4Z" transform="translate(-0.625 -0.094)"/>
  <path id="Shape_1_copy_2" data-name="Shape 1 copy 2" class="cls-1" d="M280.1,303.99H2.895A1,1,0,0,1,2,302.915v-3.84A1,1,0,0,1,2.895,298H280.1a1,1,0,0,1,.891,1.076v3.84A1,1,0,0,1,280.1,303.99Z" transform="translate(-0.625 -0.094)"/>
</svg>
