<?xml version="1.0" standalone="no"?>
<!DOCTYPE svg PUBLIC "-//W3C//DTD SVG 20010904//EN"
 "http://www.w3.org/TR/2001/REC-SVG-20010904/DTD/svg10.dtd">
<svg version="1.0" xmlns="http://www.w3.org/2000/svg"
 width="104.000000pt" height="185.000000pt" viewBox="0 0 104.000000 185.000000"
 preserveAspectRatio="xMidYMid meet">

<g transform="translate(0.000000,185.000000) scale(0.100000,-0.100000)"
fill="#000000" stroke="none">
<path d="M472 1780 c-50 -92 -229 -335 -282 -383 -60 -54 -65 -67 -25 -67 48
0 80 20 106 68 43 76 166 212 193 212 13 0 69 -28 125 -61 106 -63 134 -93
145 -154 8 -39 12 -41 119 -56 154 -23 151 14 -7 96 -82 42 -116 68 -212 160
-63 61 -114 116 -114 123 0 7 6 21 12 32 10 15 10 25 2 38 -19 29 -43 26 -62
-8z"/>
<path d="M424 1526 c-3 -14 1 -37 10 -55 18 -34 50 -40 100 -21 40 15 31 36
-28 69 -64 37 -74 38 -82 7z"/>
<path d="M435 1395 c-27 -7 -67 -16 -87 -19 -42 -8 -46 -20 -19 -56 l19 -24
99 37 c54 21 101 37 106 37 4 0 7 -12 7 -26 0 -16 -13 -39 -35 -61 -28 -28
-37 -32 -54 -24 -27 15 -31 14 -31 -5 0 -20 75 -157 94 -173 12 -10 17 -8 25
8 18 33 13 86 -11 116 l-22 28 24 16 c67 44 120 93 120 111 0 46 -123 64 -235
35z"/>
<path d="M395 766 c-49 -24 -101 -56 -115 -71 l-25 -27 63 7 62 7 0 -36 c0
-42 -3 -44 -133 -77 -45 -11 -86 -24 -90 -28 -9 -9 12 -61 23 -61 4 0 24 7 45
16 21 8 57 14 83 12 l47 -3 -100 -103 c-80 -82 -97 -105 -85 -112 8 -5 18 -10
21 -10 8 0 104 74 145 112 29 27 32 28 38 11 4 -10 6 -69 5 -132 -2 -99 0
-114 15 -123 10 -5 20 -7 23 -5 3 3 7 63 9 134 3 70 7 133 9 140 2 6 14 13 27
15 33 4 34 35 2 69 -30 32 -28 39 19 55 26 9 31 16 29 35 -5 31 -7 33 -40 34
-25 0 -27 3 -27 44 0 42 2 45 35 56 19 6 36 19 38 28 4 17 -14 57 -26 57 -4 0
-47 -20 -97 -44z"/>
<path d="M645 543 c-98 -20 -121 -33 -117 -63 5 -38 37 -101 70 -138 28 -32
29 -32 82 -22 29 5 72 10 96 10 34 0 44 4 44 16 0 9 17 48 37 86 l37 71 -29
22 c-47 39 -104 43 -220 18z m119 -39 c19 -19 19 -18 2 -53 -20 -39 -61 -63
-99 -59 -31 3 -32 5 -32 48 0 41 3 46 35 62 43 22 74 23 94 2z"/>
</g>
</svg>
