<?xml version="1.0" encoding="UTF-8" standalone="no"?>
<svg
   xmlns:dc="http://purl.org/dc/elements/1.1/"
   xmlns:cc="http://creativecommons.org/ns#"
   xmlns:rdf="http://www.w3.org/1999/02/22-rdf-syntax-ns#"
   xmlns:svg="http://www.w3.org/2000/svg"
   xmlns="http://www.w3.org/2000/svg"
   xmlns:sodipodi="http://sodipodi.sourceforge.net/DTD/sodipodi-0.dtd"
   xmlns:inkscape="http://www.inkscape.org/namespaces/inkscape"
   id="Logo"
   viewBox="0 0 832.72711 284.32718"
   version="1.1"
   sodipodi:docname="UKLLC_Logo_Landscape_Black.svg"
   width="832.72711"
   height="284.32718"
   inkscape:version="1.0.2 (e86c8708, 2021-01-15)">
  <metadata
     id="metadata206">
    <rdf:RDF>
      <cc:Work
         rdf:about="">
        <dc:format>image/svg+xml</dc:format>
        <dc:type
           rdf:resource="http://purl.org/dc/dcmitype/StillImage" />
      </cc:Work>
    </rdf:RDF>
  </metadata>
  <defs
     id="defs204" />
  <sodipodi:namedview
     pagecolor="#ffffff"
     bordercolor="#666666"
     borderopacity="1"
     objecttolerance="10"
     gridtolerance="10"
     guidetolerance="10"
     inkscape:pageopacity="0"
     inkscape:pageshadow="2"
     inkscape:window-width="1190"
     inkscape:window-height="712"
     id="namedview202"
     showgrid="false"
     inkscape:zoom="1.093931"
     inkscape:cx="416.36374"
     inkscape:cy="141.73272"
     inkscape:window-x="0"
     inkscape:window-y="23"
     inkscape:window-maximized="0"
     inkscape:current-layer="Logo" />
  <polygon
     points="85.039,85.04 125.13,85.04 125.13,328.411 368.504,328.411 368.504,368.504 85.039,368.504 "
     id="polygon127"
     transform="translate(-85.039,-85.03894)" />
  <polygon
     points="165.223,85.04 205.314,85.04 205.314,248.229 368.504,248.229 368.504,288.322 165.223,288.322 "
     id="polygon129"
     transform="translate(-85.039,-85.03894)" />
  <polygon
     points="245.405,85.041 368.502,85.041 368.502,125.131 285.498,125.131 285.498,168.046 368.502,168.046 368.502,208.137 245.405,208.137 "
     id="polygon131"
     transform="translate(-85.039,-85.03894)" />
  <path
     d="M 322.34207,28.95337 V 0 h 11.96559 v 28.51023 c 0,9.82351 4.284,13.8858 11.52225,13.8858 7.31232,0 11.52225,-4.06229 11.52225,-13.8858 V 0 h 11.81775 v 28.95337 c 0,15.21542 -8.71556,23.63549 -23.41382,23.63549 -14.69826,0 -23.41402,-8.42007 -23.41402,-23.63549 z"
     id="path133" />
  <path
     d="m 399.823,31.39074 -6.9428,7.2385 V 51.70258 H 380.98864 V 0 h 11.89157 V 24.15245 L 415.77706,0 h 13.295 l -21.41979,23.0445 22.67538,28.65808 h -13.9598 z"
     id="path135" />
  <path
     d="m 322.78541,77.24617 h 11.96539 v 41.95289 h 25.9252 v 9.74969 h -37.89059 z"
     id="path137" />
  <path
     d="m 363.33526,109.08025 c 0,-11.96559 9.23252,-20.45948 21.86272,-20.45948 12.6304,0 21.7891,8.49389 21.7891,20.45948 0,11.96539 -9.1587,20.45929 -21.7891,20.45929 -12.6302,0 -21.86272,-8.4939 -21.86272,-20.45929 z m 31.98173,0 c 0,-6.86917 -4.35778,-11.00528 -10.119,-11.00528 -5.761,0 -10.19263,4.13611 -10.19263,11.00528 0,6.869 4.43161,11.00509 10.19263,11.00509 5.76122,0 10.11901,-4.13611 10.11901,-11.00509 z"
     id="path139" />
  <path
     d="m 455.29318,106.19954 v 22.74921 H 443.77073 V 107.9723 c 0,-6.426 -2.95454,-9.38037 -8.05075,-9.38037 -5.53956,0 -9.528,3.39768 -9.528,10.70979 v 19.647 H 414.66951 V 89.21156 h 11.00529 v 4.65327 c 3.10218,-3.39767 7.75545,-5.24406 13.14736,-5.24406 9.38037,0 16.47102,5.46554 16.47102,17.57877 z"
     id="path141" />
  <path
     d="m 507.144,89.21156 v 33.08968 c 0,14.77228 -7.97693,21.56743 -22.30626,21.56743 -7.53359,0 -14.84571,-1.84658 -19.499,-5.46573 l 4.57945,-8.27242 c 3.39747,2.73287 8.937,4.50543 14.03325,4.50543 8.125,0 11.67009,-3.693 11.67009,-10.85744 v -1.69874 c -3.02836,3.32366 -7.38594,4.94857 -12.55638,4.94857 -11.00528,0 -19.86849,-7.60761 -19.86849,-19.20388 0,-11.59608 8.86321,-19.20369 19.86849,-19.20369 5.53956,0 10.119,1.84639 13.14737,5.6872 v -5.09641 z m -11.3748,18.6129 c 0,-5.83485 -4.35758,-9.74949 -10.4143,-9.74949 -6.05672,0 -10.48812,3.91464 -10.48812,9.74949 0,5.835 4.4314,9.74969 10.48812,9.74969 6.05672,0 10.4143,-3.91464 10.4143,-9.74969 z"
     id="path143" />
  <path
     d="m 516.45134,77.24617 c 0,-3.61915 2.88071,-6.426 7.16447,-6.426 4.28376,0 7.16447,2.65905 7.16447,6.20437 0,3.84082 -2.88071,6.64751 -7.16447,6.64751 -4.28376,0 -7.16447,-2.80673 -7.16447,-6.42588 z m 1.40345,11.96539 h 11.52205 v 39.73719 h -11.52205 z"
     id="path145" />
  <path
     d="m 565.71635,127.02834 c -2.36355,1.69874 -5.83485,2.5112 -9.38037,2.5112 -9.38037,0 -14.84571,-4.80092 -14.84571,-14.25512 V 98.96125 h -6.13054 v -8.86341 h 6.13054 v -9.67566 h 11.52206 v 9.67566 h 9.89753 v 8.86341 h -9.89753 v 16.17552 c 0,3.39768 1.84638,5.24406 4.94856,5.24406 a 7.765,7.765 0 0 0 4.65328,-1.47706 z"
     id="path147" />
  <path
     d="m 612.24988,89.21156 v 39.73719 h -10.93146 v -4.7271 a 16.07752,16.07752 0 0 1 -12.33491,5.31789 c -9.97135,0 -16.98818,-5.61338 -16.98818,-17.87427 V 89.21156 h 11.52245 v 20.755 c 0,6.64751 2.95454,9.60185 8.05075,9.60185 5.31809,0 9.1589,-3.39748 9.1589,-10.7098 v -19.647 z"
     id="path149" />
  <path
     d="m 663.43589,74.14399 v 54.80476 h -11.00528 v -4.57945 c -2.88071,3.4715 -7.09065,5.17024 -12.40873,5.17024 -11.22676,0 -19.8685,-7.97693 -19.8685,-20.45929 0,-12.48255 8.64174,-20.45948 19.8685,-20.45948 4.87514,0 9.01125,1.55109 11.892,4.80092 v -19.2777 z m -11.30058,34.93626 c 0,-6.86917 -4.4318,-11.00528 -10.119,-11.00528 -5.761,0 -10.19283,4.13611 -10.19283,11.00528 0,6.869 4.4318,11.00509 10.19283,11.00509 5.6872,0 10.119,-4.13611 10.119,-11.00509 z"
     id="path151" />
  <path
     d="m 672.66862,77.24617 c 0,-3.61915 2.88071,-6.426 7.16447,-6.426 4.28376,0 7.16447,2.65905 7.16447,6.20437 0,3.84082 -2.88071,6.64751 -7.16447,6.64751 -4.28376,0 -7.16447,-2.80673 -7.16447,-6.42588 z m 1.40344,11.96539 h 11.52205 v 39.73719 h -11.52205 z"
     id="path153" />
  <path
     d="m 736.92777,106.19954 v 22.74921 H 725.40572 V 107.9723 c 0,-6.426 -2.95453,-9.38037 -8.05115,-9.38037 -5.53955,0 -9.528,3.39768 -9.528,10.70979 v 19.647 H 696.3045 V 89.21156 h 11.00529 v 4.65327 c 3.10218,-3.39767 7.75545,-5.24406 13.147,-5.24406 9.38034,0 16.47098,5.46554 16.47098,17.57877 z"
     id="path155" />
  <path
     d="m 782.50041,106.27337 v 22.67538 H 771.717 v -4.94877 c -2.14208,3.61935 -6.27819,5.53956 -12.11344,5.53956 -9.30655,0 -14.8461,-5.17024 -14.8461,-12.03922 0,-7.01682 4.949,-11.89157 17.062,-11.89157 h 9.1589 c 0,-4.94876 -2.95453,-7.82928 -9.1589,-7.82928 a 19.10542,19.10542 0 0 0 -11.44823,3.693 l -4.1365,-8.05075 c 4.358,-3.10218 10.78381,-4.80092 17.13582,-4.80092 12.11303,-3e-5 19.12986,5.61335 19.12986,17.65257 z m -11.52206,10.119 v -4.06231 h -7.9031 c -5.39191,0 -7.09065,1.99424 -7.09065,4.65328 0,2.88051 2.43738,4.80092 6.49966,4.80092 3.84082,2e-5 7.16447,-1.77274 8.49409,-5.39189 z"
     id="path157" />
  <path
     d="m 792.9155,74.14399 h 11.522 v 54.80476 h -11.522 z"
     id="path159" />
  <path
     d="m 322.78541,154.49194 h 11.96539 v 41.95329 h 25.9252 v 9.74949 h -37.89059 z"
     id="path161" />
  <path
     d="m 365.18164,154.49194 c 0,-3.61895 2.88052,-6.42583 7.16447,-6.42583 4.28395,0 7.16447,2.65924 7.16447,6.20436 0,3.84082 -2.88051,6.64771 -7.16447,6.64771 -4.28396,0 -7.16447,-2.80689 -7.16447,-6.42624 z m 1.40325,11.96579 h 11.52245 v 39.737 h -11.52245 z"
     id="path163" />
  <path
     d="m 429.4408,183.44551 v 22.74921 h -11.52245 v -20.97666 c 0,-6.42584 -2.95434,-9.38037 -8.05075,-9.38037 -5.53956,0 -9.528,3.39787 -9.528,10.71 v 19.647 h -11.52227 v -39.737 h 11.00509 v 4.65288 c 3.10218,-3.39748 7.75545,-5.24387 13.14736,-5.24387 9.38037,4e-5 16.47102,5.46578 16.47102,17.57881 z"
     id="path165" />
  <path
     d="m 456.9177,190.60998 -5.53956,5.46574 v 10.119 h -11.52205 v -54.805 h 11.52205 v 31.02183 l 16.84053,-15.95386 h 13.738 l -16.54484,16.84014 18.02211,22.89685 h -13.95987 z"
     id="path167" />
  <path
     d="m 523.02363,183.51934 v 22.67538 h -10.78341 v -4.94857 c -2.14208,3.61895 -6.27819,5.53956 -12.11344,5.53956 -9.30655,0 -14.8461,-5.17044 -14.8461,-12.03961 0,-7.01643 4.949,-11.89157 17.062,-11.89157 h 9.1589 c 0,-4.94857 -2.95453,-7.82928 -9.1589,-7.82928 a 19.10548,19.10548 0 0 0 -11.44823,3.69317 l -4.1365,-8.05075 c 4.358,-3.10219 10.78381,-4.80093 17.13582,-4.80093 12.11304,0 19.12986,5.61338 19.12986,17.6526 z m -11.52205,10.119 v -4.06228 h -7.9031 c -5.39191,0 -7.09065,1.994 -7.09065,4.65327 0,2.88031 2.43738,4.80092 6.49966,4.80092 3.84082,0 7.16451,-1.77256 8.49409,-5.39191 z"
     id="path169" />
  <path
     d="m 574.87406,166.45773 v 33.08968 c 0,14.77189 -7.97693,21.56724 -22.30626,21.56724 -7.53359,0 -14.84571,-1.84639 -19.499,-5.46573 l 4.57945,-8.27262 c 3.39747,2.73306 8.937,4.50562 14.03324,4.50562 8.125,0 11.6701,-3.69277 11.6701,-10.85764 v -1.69873 c -3.02836,3.32365 -7.38594,4.949 -12.55638,4.949 -11.00528,0 -19.86849,-7.60781 -19.86849,-19.20408 0,-11.59627 8.86321,-19.20369 19.86849,-19.20369 5.53956,0 10.119,1.84639 13.14737,5.68721 v -5.09622 z m -11.3748,18.6127 c 0,-5.83485 -4.35758,-9.74949 -10.4143,-9.74949 -6.05672,0 -10.48813,3.91464 -10.48813,9.74949 0,5.83525 4.43141,9.74989 10.48813,9.74989 6.05672,0 10.4143,-3.91464 10.4143,-9.74989 z"
     id="path171" />
  <path
     d="m 624.28791,189.57606 h -30.06133 c 1.10775,4.94856 5.31769,7.97692 11.37441,7.97692 a 13.4713,13.4713 0 0 0 9.97135,-3.84081 l 6.13055,6.6477 c -3.69317,4.20994 -9.23273,6.42584 -16.3972,6.42584 -13.73835,0 -22.67538,-8.64174 -22.67538,-20.45948 0,-11.89157 9.08508,-20.45949 21.19811,-20.45949 11.6701,0 20.681,7.82928 20.681,20.60713 -4e-5,0.88628 -0.14769,2.14208 -0.22151,3.10219 z m -30.209,-6.72153 h 19.57281 a 9.44227,9.44227 0 0 0 -9.74949,-8.27222 c -5.24423,0 -9.01084,3.176 -9.8233,8.27222 z"
     id="path173" />
  <path
     d="m 319.53538,257.5895 c 0,-15.58473 11.96559,-26.73767 28.06729,-26.73767 8.937,0 16.397,3.24983 21.27194,9.1589 l -7.68163,7.09065 a 16.63462,16.63462 0 0 0 -12.99952,-6.05672 c -9.67586,0 -16.54484,6.79535 -16.54484,16.54484 0,9.74989 6.869,16.54484 16.54484,16.54484 a 16.47569,16.47569 0 0 0 12.99952,-6.13054 l 7.68163,7.09065 c -4.87494,5.98289 -12.3349,9.23272 -21.346,9.23272 -16.02761,0 -27.99323,-11.15293 -27.99323,-26.73767 z"
     id="path175" />
  <path
     d="m 371.75552,263.5724 c 0,-11.96539 9.23253,-20.45948 21.86273,-20.45948 12.6304,0 21.7891,8.49409 21.7891,20.45948 0,11.96539 -9.1587,20.45948 -21.7891,20.45948 -12.6302,0 -21.86273,-8.49409 -21.86273,-20.45948 z m 31.98173,0 c 0,-6.86918 -4.35778,-11.00529 -10.119,-11.00529 -5.761,0 -10.19263,4.13611 -10.19263,11.00529 0,6.86918 4.4316,11.00528 10.19263,11.00528 5.76122,0 10.119,-4.13611 10.119,-11.00528 z"
     id="path177" />
  <path
     d="m 423.08978,228.63593 h 11.52245 v 54.805 h -11.52245 z"
     id="path179" />
  <path
     d="m 445.32222,228.63593 h 11.52205 v 54.805 h -11.52205 z"
     id="path181" />
  <path
     d="m 502.7118,260.76551 v 22.67538 h -10.78342 v -4.94857 c -2.14208,3.619 -6.27819,5.53956 -12.11343,5.53956 -9.30655,0 -14.84611,-5.17044 -14.84611,-12.03961 0,-7.01643 4.949,-11.89157 17.062,-11.89157 h 9.1589 c 0,-4.94857 -2.95454,-7.82928 -9.1589,-7.82928 a 19.10544,19.10544 0 0 0 -11.44823,3.69317 l -4.13651,-8.05075 c 4.358,-3.10219 10.78382,-4.80092 17.13583,-4.80092 12.11307,0 19.12987,5.61337 19.12987,17.65259 z m -11.52205,10.119 v -4.06228 h -7.9031 c -5.39191,0 -7.09065,1.994 -7.09065,4.65327 0,2.88031 2.43737,4.80092 6.49966,4.80092 3.84081,0 7.16447,-1.77256 8.49409,-5.39191 z"
     id="path183" />
  <path
     d="m 556.40941,263.5724 c 0,12.48255 -8.64174,20.45948 -19.79468,20.45948 -5.31808,0 -9.60223,-1.69874 -12.48255,-5.17044 v 4.57945 h -11.00529 v -54.805 H 524.649 v 19.27791 c 2.95453,-3.24983 7.01682,-4.80092 11.96578,-4.80092 11.15289,4e-5 19.79463,7.97696 19.79463,20.45952 z m -11.6701,0 c 0,-6.86918 -4.358,-11.00529 -10.119,-11.00529 -5.761,0 -10.119,4.13611 -10.119,11.00529 0,6.86918 4.358,11.00528 10.119,11.00528 5.761,0 10.119,-4.13611 10.119,-11.00528 z"
     id="path185" />
  <path
     d="m 561.1365,263.5724 c 0,-11.96539 9.23273,-20.45948 21.86293,-20.45948 12.6302,0 21.7887,8.49409 21.7887,20.45948 0,11.96539 -9.1585,20.45948 -21.7887,20.45948 -12.6302,0 -21.86293,-8.49409 -21.86293,-20.45948 z m 31.98193,0 c 0,-6.86918 -4.358,-11.00529 -10.119,-11.00529 -5.76142,0 -10.19283,4.13611 -10.19283,11.00529 0,6.86918 4.43141,11.00528 10.19283,11.00528 5.76102,0 10.119,-4.13611 10.119,-11.00528 z"
     id="path187" />
  <path
     d="m 637.14037,243.11292 v 10.63577 c -0.9601,-0.0738 -1.69874,-0.14765 -2.585,-0.14765 -6.352,0 -10.56234,3.4717 -10.56234,11.07911 v 18.76074 H 612.471 v -39.737 h 11.00528 v 5.24387 c 2.80645,-3.84081 7.53355,-5.83484 13.66409,-5.83484 z"
     id="path189" />
  <path
     d="m 678.94681,260.76551 v 22.67538 h -10.78342 v -4.94857 c -2.14208,3.619 -6.27819,5.53956 -12.11344,5.53956 -9.30615,0 -14.8461,-5.17044 -14.8461,-12.03961 0,-7.01643 4.949,-11.89157 17.062,-11.89157 h 9.1589 c 0,-4.94857 -2.95453,-7.82928 -9.1589,-7.82928 a 19.10543,19.10543 0 0 0 -11.44822,3.69317 l -4.13651,-8.05075 c 4.358,-3.10219 10.78381,-4.80092 17.13583,-4.80092 12.11305,0 19.12986,5.61337 19.12986,17.65259 z m -11.52206,10.119 v -4.06228 h -7.9031 c -5.39191,0 -7.09065,1.994 -7.09065,4.65327 0,2.88031 2.43738,4.80092 6.49966,4.80092 3.84082,0 7.16447,-1.77256 8.49409,-5.39191 z"
     id="path191" />
  <path
     d="m 714.99142,281.52068 c -2.36355,1.69874 -5.83485,2.5112 -9.38037,2.5112 -9.38037,0 -14.84571,-4.80092 -14.84571,-14.25512 v -16.32337 h -6.13054 v -8.86321 h 6.13054 v -9.67606 h 11.52206 v 9.67606 h 9.89753 v 8.86321 h -9.89753 v 16.17533 c 0,3.39787 1.84678,5.24426 4.94856,5.24426 a 7.76516,7.76516 0 0 0 4.65328,-1.47727 z"
     id="path193" />
  <path
     d="m 720.08843,231.73806 c 0,-3.61894 2.88071,-6.42583 7.16447,-6.42583 4.28416,0 7.16447,2.65924 7.16447,6.20436 0,3.84082 -2.88031,6.64771 -7.16447,6.64771 -4.28376,5e-5 -7.16447,-2.80684 -7.16447,-6.42624 z m 1.40344,11.96579 h 11.52206 v 39.737 h -11.52206 z"
     id="path195" />
  <path
     d="m 740.76938,263.5724 c 0,-11.96539 9.23273,-20.45948 21.86293,-20.45948 12.6302,0 21.78869,8.49414 21.78869,20.45948 0,11.96534 -9.1585,20.45948 -21.7887,20.45948 -12.6302,0 -21.86292,-8.49409 -21.86292,-20.45948 z m 31.98193,0 c 0,-6.86918 -4.358,-11.00529 -10.119,-11.00529 -5.76143,0 -10.19283,4.13611 -10.19283,11.00529 0,6.86918 4.4314,11.00528 10.19283,11.00528 5.76102,0 10.119,-4.13611 10.119,-11.00528 z"
     id="path197" />
  <path
     d="m 832.72711,260.69169 v 22.7492 h -11.52206 v -20.97664 c 0,-6.42584 -2.95453,-9.38037 -8.05114,-9.38037 -5.53956,0 -9.528,3.39787 -9.528,10.71 v 19.647 h -11.52207 v -39.737 h 11.00528 v 4.65288 c 3.10218,-3.39748 7.75546,-5.24386 13.147,-5.24386 9.38034,2e-5 16.47099,5.46575 16.47099,17.57879 z"
     id="path199" />
</svg>
